<?xml version="1.0" encoding="UTF-8" standalone="no"?>
<!DOCTYPE svg PUBLIC "-//W3C//DTD SVG 1.1//EN"
 "http://www.w3.org/Graphics/SVG/1.1/DTD/svg11.dtd">
<!-- Generated by graphviz version 2.43.0 (0)
 -->
<!-- Title: proto::FieldPrototype::print Pages: 1 -->
<svg width="282pt" height="172pt"
 viewBox="0.00 0.00 282.00 171.50" xmlns="http://www.w3.org/2000/svg" xmlns:xlink="http://www.w3.org/1999/xlink">
<g id="graph0" class="graph" transform="scale(1 1) rotate(0) translate(4 167.5)">
<title>proto::FieldPrototype::print</title>
<!-- Node1 -->
<g id="Node000001" class="node">
<title>Node1</title>
<g id="a_Node000001"><a xlink:title="Print field contents in a table format.">
<polygon fill="#999999" stroke="#666666" points="119,-91.5 0,-91.5 0,-61.5 119,-61.5 119,-91.5"/>
<text text-anchor="start" x="8" y="-79.5" font-family="Helvetica,sans-Serif" font-size="10.00">proto::FieldPrototype</text>
<text text-anchor="middle" x="59.5" y="-68.5" font-family="Helvetica,sans-Serif" font-size="10.00">::print</text>
</a>
</g>
</g>
<!-- Node2 -->
<g id="Node000002" class="node">
<title>Node2</title>
<g id="a_Node000002"><a xlink:href="../../dc/d80/classproto_1_1FieldPrototype.html#a0bf49baed90909424e7aa4d39f5d26ac" target="_top" xlink:title=" ">
<polygon fill="white" stroke="#666666" points="274,-163.5 155,-163.5 155,-133.5 274,-133.5 274,-163.5"/>
<text text-anchor="start" x="163" y="-151.5" font-family="Helvetica,sans-Serif" font-size="10.00">proto::FieldPrototype</text>
<text text-anchor="middle" x="214.5" y="-140.5" font-family="Helvetica,sans-Serif" font-size="10.00">::begin</text>
</a>
</g>
</g>
<!-- Node1&#45;&gt;Node2 -->
<g id="edge1_Node000001_Node000002" class="edge">
<title>Node1&#45;&gt;Node2</title>
<g id="a_edge1_Node000001_Node000002"><a xlink:title=" ">
<path fill="none" stroke="#63b8ff" d="M88.74,-91.6C107.37,-101.37 132.42,-114.15 155,-124.5 158.6,-126.15 162.35,-127.81 166.13,-129.45"/>
<polygon fill="#63b8ff" stroke="#63b8ff" points="164.97,-132.76 175.54,-133.45 167.71,-126.32 164.97,-132.76"/>
</a>
</g>
</g>
<!-- Node3 -->
<g id="Node000003" class="node">
<title>Node3</title>
<g id="a_Node000003"><a xlink:href="../../dc/d80/classproto_1_1FieldPrototype.html#ab7ad3c9424d95db3fb0b18106f4fd15e" target="_top" xlink:title=" ">
<polygon fill="white" stroke="#666666" points="274,-115.5 155,-115.5 155,-85.5 274,-85.5 274,-115.5"/>
<text text-anchor="start" x="163" y="-103.5" font-family="Helvetica,sans-Serif" font-size="10.00">proto::FieldPrototype</text>
<text text-anchor="middle" x="214.5" y="-92.5" font-family="Helvetica,sans-Serif" font-size="10.00">::get_offset</text>
</a>
</g>
</g>
<!-- Node1&#45;&gt;Node3 -->
<g id="edge2_Node000001_Node000003" class="edge">
<title>Node1&#45;&gt;Node3</title>
<g id="a_edge2_Node000001_Node000003"><a xlink:title=" ">
<path fill="none" stroke="#63b8ff" d="M119.22,-85.71C127.64,-87.03 136.36,-88.4 144.95,-89.75"/>
<polygon fill="#63b8ff" stroke="#63b8ff" points="144.52,-93.22 154.94,-91.31 145.6,-86.31 144.52,-93.22"/>
</a>
</g>
</g>
<!-- Node4 -->
<g id="Node000004" class="node">
<title>Node4</title>
<g id="a_Node000004"><a xlink:href="../../dc/d80/classproto_1_1FieldPrototype.html#a8c34bc10adc027dbc979c17a8e0b177d" target="_top" xlink:title=" ">
<polygon fill="white" stroke="#666666" points="274,-67.5 155,-67.5 155,-37.5 274,-37.5 274,-67.5"/>
<text text-anchor="start" x="163" y="-55.5" font-family="Helvetica,sans-Serif" font-size="10.00">proto::FieldPrototype</text>
<text text-anchor="middle" x="214.5" y="-44.5" font-family="Helvetica,sans-Serif" font-size="10.00">::get_size</text>
</a>
</g>
</g>
<!-- Node1&#45;&gt;Node4 -->
<g id="edge3_Node000001_Node000004" class="edge">
<title>Node1&#45;&gt;Node4</title>
<g id="a_edge3_Node000001_Node000004"><a xlink:title=" ">
<path fill="none" stroke="#63b8ff" d="M119.22,-67.29C127.64,-65.97 136.36,-64.6 144.95,-63.25"/>
<polygon fill="#63b8ff" stroke="#63b8ff" points="145.6,-66.69 154.94,-61.69 144.52,-59.78 145.6,-66.69"/>
</a>
</g>
</g>
<!-- Node5 -->
<g id="Node000005" class="node">
<title>Node5</title>
<g id="a_Node000005"><a xlink:href="../../d6/dca/namespaceproto.html#a1881b92fb56d58d8b379b994eff4eb7d" target="_top" xlink:title="Convert FieldName enum to string.">
<polygon fill="white" stroke="#666666" points="260,-19 169,-19 169,0 260,0 260,-19"/>
<text text-anchor="middle" x="214.5" y="-7" font-family="Helvetica,sans-Serif" font-size="10.00">proto::to_string</text>
</a>
</g>
</g>
<!-- Node1&#45;&gt;Node5 -->
<g id="edge4_Node000001_Node000005" class="edge">
<title>Node1&#45;&gt;Node5</title>
<g id="a_edge4_Node000001_Node000005"><a xlink:title=" ">
<path fill="none" stroke="#63b8ff" d="M87.27,-61.49C105.91,-51.39 131.53,-38.2 155,-28.5 160.18,-26.36 165.7,-24.3 171.19,-22.37"/>
<polygon fill="#63b8ff" stroke="#63b8ff" points="172.63,-25.58 180.99,-19.06 170.39,-18.95 172.63,-25.58"/>
</a>
</g>
</g>
</g>
</svg>
