<?xml version="1.0" encoding="UTF-8" standalone="no"?>
<!DOCTYPE svg PUBLIC "-//W3C//DTD SVG 1.1//EN"
 "http://www.w3.org/Graphics/SVG/1.1/DTD/svg11.dtd">
<!-- Generated by graphviz version 14.0.1 (20251006.0113)
 -->
<!-- Title: CustomSpan.hpp Pages: 1 -->
<svg width="371pt" height="359pt"
 viewBox="0.00 0.00 371.00 359.00" xmlns="http://www.w3.org/2000/svg" xmlns:xlink="http://www.w3.org/1999/xlink">
<g id="graph0" class="graph" transform="scale(1 1) rotate(0) translate(4 354.75)">
<title>CustomSpan.hpp</title>
<!-- Node1 -->
<g id="Node000001" class="node">
<title>Node1</title>
<g id="a_Node000001"><a xlink:title=" ">
<polygon fill="#999999" stroke="#666666" points="197.75,-350.75 106,-350.75 106,-331.5 197.75,-331.5 197.75,-350.75"/>
<text xml:space="preserve" text-anchor="middle" x="151.88" y="-337.25" font-family="Helvetica,sans-Serif" font-size="10.00">CustomSpan.hpp</text>
</a>
</g>
</g>
<!-- Node2 -->
<g id="Node000002" class="node">
<title>Node2</title>
<g id="a_Node000002"><a xlink:href="../../db/d62/_crc_8hpp.html" target="_top" xlink:title=" ">
<polygon fill="white" stroke="#666666" points="65.12,-295.5 14.62,-295.5 14.62,-276.25 65.12,-276.25 65.12,-295.5"/>
<text xml:space="preserve" text-anchor="middle" x="39.88" y="-282" font-family="Helvetica,sans-Serif" font-size="10.00">Crc.hpp</text>
</a>
</g>
</g>
<!-- Node1&#45;&gt;Node2 -->
<g id="edge1_Node000001_Node000002" class="edge">
<title>Node1&#45;&gt;Node2</title>
<g id="a_edge1_Node000001_Node000002"><a xlink:title=" ">
<path fill="none" stroke="#63b8ff" d="M122.71,-326.26C102.6,-316.7 76.46,-304.27 58.97,-295.95"/>
<polygon fill="#63b8ff" stroke="#63b8ff" points="120.97,-329.31 131.51,-330.44 123.98,-322.99 120.97,-329.31"/>
</a>
</g>
</g>
<!-- Node3 -->
<g id="Node000003" class="node">
<title>Node3</title>
<g id="a_Node000003"><a xlink:href="../../dc/dba/_interface_8hpp.html" target="_top" xlink:title=" ">
<polygon fill="white" stroke="#666666" points="156.38,-295.5 83.38,-295.5 83.38,-276.25 156.38,-276.25 156.38,-295.5"/>
<text xml:space="preserve" text-anchor="middle" x="119.88" y="-282" font-family="Helvetica,sans-Serif" font-size="10.00">Interface.hpp</text>
</a>
</g>
</g>
<!-- Node1&#45;&gt;Node3 -->
<g id="edge2_Node000001_Node000003" class="edge">
<title>Node1&#45;&gt;Node3</title>
<g id="a_edge2_Node000001_Node000003"><a xlink:title=" ">
<path fill="none" stroke="#63b8ff" d="M140.75,-321.62C135.51,-312.89 129.5,-302.89 125.27,-295.86"/>
<polygon fill="#63b8ff" stroke="#63b8ff" points="137.66,-323.27 145.81,-330.03 143.66,-319.66 137.66,-323.27"/>
</a>
</g>
</g>
<!-- Node4 -->
<g id="Node000004" class="node">
<title>Node4</title>
<g id="a_Node000004"><a xlink:href="../../d7/d5d/_tx_container_8hpp.html" target="_top" xlink:title="TX&#45;side container that builds protocol frames from a set of fields.">
<polygon fill="white" stroke="#666666" points="195.5,-240.25 108.25,-240.25 108.25,-221 195.5,-221 195.5,-240.25"/>
<text xml:space="preserve" text-anchor="middle" x="151.88" y="-226.75" font-family="Helvetica,sans-Serif" font-size="10.00">TxContainer.hpp</text>
</a>
</g>
</g>
<!-- Node1&#45;&gt;Node4 -->
<g id="edge16_Node000001_Node000004" class="edge">
<title>Node1&#45;&gt;Node4</title>
<g id="a_edge16_Node000001_Node000004"><a xlink:title=" ">
<path fill="none" stroke="#63b8ff" d="M160.01,-320.5C164.27,-307.93 168.17,-291.22 165.88,-276.25 163.93,-263.57 159.05,-249.54 155.61,-240.66"/>
<polygon fill="#63b8ff" stroke="#63b8ff" points="156.8,-319.09 156.54,-329.68 163.35,-321.56 156.8,-319.09"/>
</a>
</g>
</g>
<!-- Node12 -->
<g id="Node000012" class="node">
<title>Node12</title>
<g id="a_Node000012"><a xlink:href="../../d0/d95/_rx_container_8hpp.html" target="_top" xlink:title="Stateful frame parsing container that incrementally matches and fills protocol fields from a byte str...">
<polygon fill="white" stroke="#666666" points="302.25,-240.25 213.5,-240.25 213.5,-221 302.25,-221 302.25,-240.25"/>
<text xml:space="preserve" text-anchor="middle" x="257.88" y="-226.75" font-family="Helvetica,sans-Serif" font-size="10.00">RxContainer.hpp</text>
</a>
</g>
</g>
<!-- Node1&#45;&gt;Node12 -->
<g id="edge13_Node000001_Node000012" class="edge">
<title>Node1&#45;&gt;Node12</title>
<g id="a_edge13_Node000001_Node000012"><a xlink:title=" ">
<path fill="none" stroke="#63b8ff" d="M168.33,-323.28C191.08,-299.99 231.35,-258.77 249.08,-240.63"/>
<polygon fill="#63b8ff" stroke="#63b8ff" points="166.09,-320.56 161.61,-330.16 171.1,-325.46 166.09,-320.56"/>
</a>
</g>
</g>
<!-- Node3&#45;&gt;Node4 -->
<g id="edge3_Node000003_Node000004" class="edge">
<title>Node3&#45;&gt;Node4</title>
<g id="a_edge3_Node000003_Node000004"><a xlink:title=" ">
<path fill="none" stroke="#63b8ff" d="M131,-266.37C136.24,-257.64 142.25,-247.64 146.48,-240.61"/>
<polygon fill="#63b8ff" stroke="#63b8ff" points="128.09,-264.41 125.94,-274.78 134.09,-268.02 128.09,-264.41"/>
</a>
</g>
</g>
<!-- Node11 -->
<g id="Node000011" class="node">
<title>Node11</title>
<g id="a_Node000011"><a xlink:href="../../db/d39/_ymodem_8hpp.html" target="_top" xlink:title=" ">
<polygon fill="white" stroke="#666666" points="73.75,-185 0,-185 0,-165.75 73.75,-165.75 73.75,-185"/>
<text xml:space="preserve" text-anchor="middle" x="36.88" y="-171.5" font-family="Helvetica,sans-Serif" font-size="10.00">Ymodem.hpp</text>
</a>
</g>
</g>
<!-- Node3&#45;&gt;Node11 -->
<g id="edge11_Node000003_Node000011" class="edge">
<title>Node3&#45;&gt;Node11</title>
<g id="a_edge11_Node000003_Node000011"><a xlink:title=" ">
<path fill="none" stroke="#63b8ff" d="M106.28,-267.1C88.34,-243.66 57.46,-203.28 43.76,-185.38"/>
<polygon fill="#63b8ff" stroke="#63b8ff" points="103.31,-268.98 112.16,-274.79 108.87,-264.72 103.31,-268.98"/>
</a>
</g>
</g>
<!-- Node5 -->
<g id="Node000005" class="node">
<title>Node5</title>
<g id="a_Node000005"><a xlink:href="../../dd/d7f/_protocol_endpoint_8hpp.html" target="_top" xlink:title="Base endpoint class for protocol implementations.">
<polygon fill="white" stroke="#666666" points="206.38,-185 97.38,-185 97.38,-165.75 206.38,-165.75 206.38,-185"/>
<text xml:space="preserve" text-anchor="middle" x="151.88" y="-171.5" font-family="Helvetica,sans-Serif" font-size="10.00">ProtocolEndpoint.hpp</text>
</a>
</g>
</g>
<!-- Node4&#45;&gt;Node5 -->
<g id="edge4_Node000004_Node000005" class="edge">
<title>Node4&#45;&gt;Node5</title>
<g id="a_edge4_Node000004_Node000005"><a xlink:title=" ">
<path fill="none" stroke="#63b8ff" d="M151.88,-209.38C151.88,-201.09 151.88,-191.92 151.88,-185.36"/>
<polygon fill="#63b8ff" stroke="#63b8ff" points="148.38,-209.32 151.88,-219.32 155.38,-209.32 148.38,-209.32"/>
</a>
</g>
</g>
<!-- Node9 -->
<g id="Node000009" class="node">
<title>Node9</title>
<g id="a_Node000009"><a xlink:href="../../dc/d1e/_protocol_no_sys_endpoint_8hpp.html" target="_top" xlink:title=" ">
<polygon fill="white" stroke="#666666" points="363.38,-185 224.38,-185 224.38,-165.75 363.38,-165.75 363.38,-185"/>
<text xml:space="preserve" text-anchor="middle" x="293.88" y="-171.5" font-family="Helvetica,sans-Serif" font-size="10.00">ProtocolNoSysEndpoint.hpp</text>
</a>
</g>
</g>
<!-- Node4&#45;&gt;Node9 -->
<g id="edge9_Node000004_Node000009" class="edge">
<title>Node4&#45;&gt;Node9</title>
<g id="a_edge9_Node000004_Node000009"><a xlink:title=" ">
<path fill="none" stroke="#63b8ff" d="M186.41,-216.67C212.2,-207 246.78,-194.04 269.67,-185.45"/>
<polygon fill="#63b8ff" stroke="#63b8ff" points="185.51,-213.27 177.38,-220.06 187.97,-219.83 185.51,-213.27"/>
</a>
</g>
</g>
<!-- Node6 -->
<g id="Node000006" class="node">
<title>Node6</title>
<g id="a_Node000006"><a xlink:href="../../dc/d95/_lacte_protocol_8hpp.html" target="_top" xlink:title=" ">
<polygon fill="white" stroke="#666666" points="168.25,-74.5 73.5,-74.5 73.5,-55.25 168.25,-55.25 168.25,-74.5"/>
<text xml:space="preserve" text-anchor="middle" x="120.88" y="-61" font-family="Helvetica,sans-Serif" font-size="10.00">LacteProtocol.hpp</text>
</a>
</g>
</g>
<!-- Node5&#45;&gt;Node6 -->
<g id="edge5_Node000005_Node000006" class="edge">
<title>Node5&#45;&gt;Node6</title>
<g id="a_edge5_Node000005_Node000006"><a xlink:title=" ">
<path fill="none" stroke="#63b8ff" d="M175.75,-158.56C191.6,-145.99 207.8,-127.72 197.88,-110.5 187.77,-92.96 167.84,-81.69 150.79,-74.86"/>
<polygon fill="#63b8ff" stroke="#63b8ff" points="173.86,-155.61 167.88,-164.36 178.01,-161.25 173.86,-155.61"/>
</a>
</g>
</g>
<!-- Node8 -->
<g id="Node000008" class="node">
<title>Node8</title>
<g id="a_Node000008"><a xlink:href="../../d8/df0/_lacte_protocol_prototype_8hpp.html" target="_top" xlink:title=" ">
<polygon fill="white" stroke="#666666" points="189.25,-129.75 52.5,-129.75 52.5,-110.5 189.25,-110.5 189.25,-129.75"/>
<text xml:space="preserve" text-anchor="middle" x="120.88" y="-116.25" font-family="Helvetica,sans-Serif" font-size="10.00">LacteProtocolPrototype.hpp</text>
</a>
</g>
</g>
<!-- Node5&#45;&gt;Node8 -->
<g id="edge7_Node000005_Node000008" class="edge">
<title>Node5&#45;&gt;Node8</title>
<g id="a_edge7_Node000005_Node000008"><a xlink:title=" ">
<path fill="none" stroke="#63b8ff" d="M141.1,-155.87C136.02,-147.14 130.2,-137.14 126.11,-130.11"/>
<polygon fill="#63b8ff" stroke="#63b8ff" points="137.94,-157.39 145.99,-164.27 143.99,-153.87 137.94,-157.39"/>
</a>
</g>
</g>
<!-- Node7 -->
<g id="Node000007" class="node">
<title>Node7</title>
<g id="a_Node000007"><a xlink:href="../../db/dc5/_virtual_board_8hpp.html" target="_top" xlink:title=" ">
<polygon fill="white" stroke="#666666" points="164.88,-19.25 76.88,-19.25 76.88,0 164.88,0 164.88,-19.25"/>
<text xml:space="preserve" text-anchor="middle" x="120.88" y="-5.75" font-family="Helvetica,sans-Serif" font-size="10.00">VirtualBoard.hpp</text>
</a>
</g>
</g>
<!-- Node6&#45;&gt;Node7 -->
<g id="edge6_Node000006_Node000007" class="edge">
<title>Node6&#45;&gt;Node7</title>
<g id="a_edge6_Node000006_Node000007"><a xlink:title=" ">
<path fill="none" stroke="#63b8ff" d="M120.88,-43.63C120.88,-35.34 120.88,-26.17 120.88,-19.61"/>
<polygon fill="#63b8ff" stroke="#63b8ff" points="117.38,-43.57 120.88,-53.57 124.38,-43.57 117.38,-43.57"/>
</a>
</g>
</g>
<!-- Node8&#45;&gt;Node6 -->
<g id="edge8_Node000008_Node000006" class="edge">
<title>Node8&#45;&gt;Node6</title>
<g id="a_edge8_Node000008_Node000006"><a xlink:title=" ">
<path fill="none" stroke="#63b8ff" d="M120.88,-98.88C120.88,-90.59 120.88,-81.42 120.88,-74.86"/>
<polygon fill="#63b8ff" stroke="#63b8ff" points="117.38,-98.82 120.88,-108.82 124.38,-98.82 117.38,-98.82"/>
</a>
</g>
</g>
<!-- Node10 -->
<g id="Node000010" class="node">
<title>Node10</title>
<g id="a_Node000010"><a xlink:href="../../d5/d46/exo_atlant_protocol_8hpp.html" target="_top" xlink:title=" ">
<polygon fill="white" stroke="#666666" points="356.88,-129.75 244.88,-129.75 244.88,-110.5 356.88,-110.5 356.88,-129.75"/>
<text xml:space="preserve" text-anchor="middle" x="300.88" y="-116.25" font-family="Helvetica,sans-Serif" font-size="10.00">exoAtlantProtocol.hpp</text>
</a>
</g>
</g>
<!-- Node9&#45;&gt;Node10 -->
<g id="edge10_Node000009_Node000010" class="edge">
<title>Node9&#45;&gt;Node10</title>
<g id="a_edge10_Node000009_Node000010"><a xlink:title=" ">
<path fill="none" stroke="#63b8ff" d="M296.5,-154.42C297.6,-146.05 298.82,-136.75 299.69,-130.11"/>
<polygon fill="#63b8ff" stroke="#63b8ff" points="293.06,-153.71 295.23,-164.08 300,-154.62 293.06,-153.71"/>
</a>
</g>
</g>
<!-- Node11&#45;&gt;Node6 -->
<g id="edge12_Node000011_Node000006" class="edge">
<title>Node11&#45;&gt;Node6</title>
<g id="a_edge12_Node000011_Node000006"><a xlink:title=" ">
<path fill="none" stroke="#63b8ff" d="M34.59,-153.93C34.13,-140.55 35.57,-123.25 43.88,-110.5 55.09,-93.28 75.44,-81.91 92.4,-74.96"/>
<polygon fill="#63b8ff" stroke="#63b8ff" points="31.09,-154.06 35.35,-163.77 38.07,-153.53 31.09,-154.06"/>
</a>
</g>
</g>
<!-- Node12&#45;&gt;Node5 -->
<g id="edge14_Node000012_Node000005" class="edge">
<title>Node12&#45;&gt;Node5</title>
<g id="a_edge14_Node000012_Node000005"><a xlink:title=" ">
<path fill="none" stroke="#63b8ff" d="M229.74,-215.49C210.79,-205.97 186.34,-193.69 169.94,-185.45"/>
<polygon fill="#63b8ff" stroke="#63b8ff" points="228.03,-218.55 238.54,-219.91 231.18,-212.3 228.03,-218.55"/>
</a>
</g>
</g>
<!-- Node12&#45;&gt;Node9 -->
<g id="edge15_Node000012_Node000009" class="edge">
<title>Node12&#45;&gt;Node9</title>
<g id="a_edge15_Node000012_Node000009"><a xlink:title=" ">
<path fill="none" stroke="#63b8ff" d="M270.19,-211.4C276.14,-202.61 283,-192.46 287.8,-185.36"/>
<polygon fill="#63b8ff" stroke="#63b8ff" points="267.37,-209.33 264.67,-219.58 273.17,-213.25 267.37,-209.33"/>
</a>
</g>
</g>
</g>
</svg>
