<?xml version="1.0" encoding="UTF-8" standalone="no"?>
<!DOCTYPE svg PUBLIC "-//W3C//DTD SVG 1.1//EN"
 "http://www.w3.org/Graphics/SVG/1.1/DTD/svg11.dtd">
<!-- Generated by graphviz version 2.43.0 (0)
 -->
<!-- Title: proto::RxContainer::fill_fields Pages: 1 -->
<svg width="271pt" height="150pt"
 viewBox="0.00 0.00 271.00 150.00" xmlns="http://www.w3.org/2000/svg" xmlns:xlink="http://www.w3.org/1999/xlink">
<g id="graph0" class="graph" transform="scale(1 1) rotate(0) translate(4 146)">
<title>proto::RxContainer::fill_fields</title>
<!-- Node1 -->
<g id="Node000001" class="node">
<title>Node1</title>
<g id="a_Node000001"><a xlink:title="Reads bytes for a specific field, validates const values and copies into the frame buffer.">
<polygon fill="#999999" stroke="#666666" points="108,-88.5 0,-88.5 0,-58.5 108,-58.5 108,-88.5"/>
<text text-anchor="start" x="8" y="-76.5" font-family="Helvetica,sans-Serif" font-size="10.00">proto::RxContainer</text>
<text text-anchor="middle" x="54" y="-65.5" font-family="Helvetica,sans-Serif" font-size="10.00">::fill_fields</text>
</a>
</g>
</g>
<!-- Node2 -->
<g id="Node000002" class="node">
<title>Node2</title>
<g id="a_Node000002"><a xlink:href="../../d6/d58/classCustomSpan.html#aa94cafb45950ce4dbcf4e57f6c22615a" target="_top" xlink:title=" ">
<polygon fill="white" stroke="#666666" points="256.5,-142 150.5,-142 150.5,-123 256.5,-123 256.5,-142"/>
<text text-anchor="middle" x="203.5" y="-130" font-family="Helvetica,sans-Serif" font-size="10.00">CustomSpan::data</text>
</a>
</g>
</g>
<!-- Node1&#45;&gt;Node2 -->
<g id="edge1_Node000001_Node000002" class="edge">
<title>Node1&#45;&gt;Node2</title>
<g id="a_edge1_Node000001_Node000002"><a xlink:title=" ">
<path fill="none" stroke="#63b8ff" d="M85.05,-88.56C102.1,-96.79 123.98,-106.85 144,-114.5 148.84,-116.35 153.96,-118.15 159.07,-119.85"/>
<polygon fill="#63b8ff" stroke="#63b8ff" points="158.24,-123.25 168.83,-122.98 160.38,-116.59 158.24,-123.25"/>
</a>
</g>
</g>
<!-- Node3 -->
<g id="Node000003" class="node">
<title>Node3</title>
<g id="a_Node000003"><a xlink:href="../../d6/dca/namespaceproto.html#aecb8f5d93c1910cff7a2844f50eb98d5" target="_top" xlink:title="Generic flag check helper.">
<polygon fill="white" stroke="#666666" points="248,-105 159,-105 159,-86 248,-86 248,-105"/>
<text text-anchor="middle" x="203.5" y="-93" font-family="Helvetica,sans-Serif" font-size="10.00">proto::has_flag</text>
</a>
</g>
</g>
<!-- Node1&#45;&gt;Node3 -->
<g id="edge2_Node000001_Node000003" class="edge">
<title>Node1&#45;&gt;Node3</title>
<g id="a_edge2_Node000001_Node000003"><a xlink:title=" ">
<path fill="none" stroke="#63b8ff" d="M108.25,-81.44C121.27,-83.38 135.22,-85.47 148.29,-87.41"/>
<polygon fill="#63b8ff" stroke="#63b8ff" points="148.14,-90.93 158.54,-88.94 149.17,-84.01 148.14,-90.93"/>
</a>
</g>
</g>
<!-- Node4 -->
<g id="Node000004" class="node">
<title>Node4</title>
<g id="a_Node000004"><a xlink:href="../../d5/d09/classproto_1_1FieldContainer.html#a839d6710504914db7f4f92b0e63029cf" target="_top" xlink:title="Check if debug mode is enabled.">
<polygon fill="white" stroke="#666666" points="263,-67.5 144,-67.5 144,-37.5 263,-37.5 263,-67.5"/>
<text text-anchor="start" x="152" y="-55.5" font-family="Helvetica,sans-Serif" font-size="10.00">proto::FieldContainer</text>
<text text-anchor="middle" x="203.5" y="-44.5" font-family="Helvetica,sans-Serif" font-size="10.00">::is_debug</text>
</a>
</g>
</g>
<!-- Node1&#45;&gt;Node4 -->
<g id="edge3_Node000001_Node000004" class="edge">
<title>Node1&#45;&gt;Node4</title>
<g id="a_edge3_Node000001_Node000004"><a xlink:title=" ">
<path fill="none" stroke="#63b8ff" d="M108.25,-65.92C116.55,-64.74 125.23,-63.5 133.82,-62.28"/>
<polygon fill="#63b8ff" stroke="#63b8ff" points="134.43,-65.73 143.83,-60.85 133.44,-58.8 134.43,-65.73"/>
</a>
</g>
</g>
<!-- Node5 -->
<g id="Node000005" class="node">
<title>Node5</title>
<g id="a_Node000005"><a xlink:href="../../d6/d58/classCustomSpan.html#a7612ff42bfc672d97414e1e3ddc391b9" target="_top" xlink:title=" ">
<polygon fill="white" stroke="#666666" points="255.5,-19 151.5,-19 151.5,0 255.5,0 255.5,-19"/>
<text text-anchor="middle" x="203.5" y="-7" font-family="Helvetica,sans-Serif" font-size="10.00">CustomSpan::size</text>
</a>
</g>
</g>
<!-- Node1&#45;&gt;Node5 -->
<g id="edge4_Node000001_Node000005" class="edge">
<title>Node1&#45;&gt;Node5</title>
<g id="a_edge4_Node000001_Node000005"><a xlink:title=" ">
<path fill="none" stroke="#63b8ff" d="M82.15,-58.4C99.52,-49.08 122.71,-37.28 144,-28.5 149.18,-26.36 154.7,-24.3 160.2,-22.38"/>
<polygon fill="#63b8ff" stroke="#63b8ff" points="161.64,-25.59 169.99,-19.07 159.4,-18.96 161.64,-25.59"/>
</a>
</g>
</g>
</g>
</svg>
