<?xml version="1.0" encoding="UTF-8" standalone="no"?>
<!DOCTYPE svg PUBLIC "-//W3C//DTD SVG 1.1//EN"
 "http://www.w3.org/Graphics/SVG/1.1/DTD/svg11.dtd">
<!-- Generated by graphviz version 2.43.0 (0)
 -->
<!-- Title: proto::RxContainer::add_receive_callback Pages: 1 -->
<svg width="333pt" height="86pt"
 viewBox="0.00 0.00 333.00 86.00" xmlns="http://www.w3.org/2000/svg" xmlns:xlink="http://www.w3.org/1999/xlink">
<g id="graph0" class="graph" transform="scale(1 1) rotate(0) translate(4 82)">
<title>proto::RxContainer::add_receive_callback</title>
<!-- Node1 -->
<g id="Node000001" class="node">
<title>Node1</title>
<g id="a_Node000001"><a xlink:title="Subscribes to notifications when a full frame is parsed.">
<polygon fill="#999999" stroke="#666666" points="325,-54 197,-54 197,-24 325,-24 325,-54"/>
<text text-anchor="start" x="205" y="-42" font-family="Helvetica,sans-Serif" font-size="10.00">proto::RxContainer</text>
<text text-anchor="middle" x="261" y="-31" font-family="Helvetica,sans-Serif" font-size="10.00">::add_receive_callback</text>
</a>
</g>
</g>
<!-- Node2 -->
<g id="Node000002" class="node">
<title>Node2</title>
<g id="a_Node000002"><a xlink:href="../../d6/dc5/classproto_1_1ProtocolEndpoint.html#af1e4aec725ab34fe336f3dc40bbae6aa" target="_top" xlink:title="Construct endpoint and install a permanent RX callback that snapshots the last frame&#39;s type code.">
<polygon fill="white" stroke="#666666" points="146,-78 15,-78 15,-48 146,-48 146,-78"/>
<text text-anchor="start" x="23" y="-66" font-family="Helvetica,sans-Serif" font-size="10.00">proto::ProtocolEndpoint</text>
<text text-anchor="middle" x="80.5" y="-55" font-family="Helvetica,sans-Serif" font-size="10.00">::ProtocolEndpoint</text>
</a>
</g>
</g>
<!-- Node1&#45;&gt;Node2 -->
<g id="edge1_Node000001_Node000002" class="edge">
<title>Node1&#45;&gt;Node2</title>
<g id="a_edge1_Node000001_Node000002"><a xlink:title=" ">
<path fill="none" stroke="#63b8ff" d="M186.65,-48.86C173.21,-50.67 159.27,-52.54 146.11,-54.31"/>
<polygon fill="#63b8ff" stroke="#63b8ff" points="187.37,-52.3 196.82,-47.5 186.44,-45.36 187.37,-52.3"/>
</a>
</g>
</g>
<!-- Node3 -->
<g id="Node000003" class="node">
<title>Node3</title>
<g id="a_Node000003"><a xlink:href="../../d3/d19/classproto_1_1ProtocolNoSysEndpoint.html#a4d52b9d808999b178d1b4fdd789d4678" target="_top" xlink:title="Construct endpoint and install a permanent RX callback that snapshots the last frame&#39;s type code.">
<polygon fill="white" stroke="#666666" points="161,-30 0,-30 0,0 161,0 161,-30"/>
<text text-anchor="start" x="8" y="-18" font-family="Helvetica,sans-Serif" font-size="10.00">proto::ProtocolNoSysEndpoint</text>
<text text-anchor="middle" x="80.5" y="-7" font-family="Helvetica,sans-Serif" font-size="10.00">::ProtocolNoSysEndpoint</text>
</a>
</g>
</g>
<!-- Node1&#45;&gt;Node3 -->
<g id="edge2_Node000001_Node000003" class="edge">
<title>Node1&#45;&gt;Node3</title>
<g id="a_edge2_Node000001_Node000003"><a xlink:title=" ">
<path fill="none" stroke="#63b8ff" d="M186.68,-29.14C178.27,-28.01 169.66,-26.85 161.17,-25.71"/>
<polygon fill="#63b8ff" stroke="#63b8ff" points="186.44,-32.64 196.82,-30.5 187.37,-25.7 186.44,-32.64"/>
</a>
</g>
</g>
</g>
</svg>
