<?xml version="1.0" encoding="UTF-8" standalone="no"?>
<!DOCTYPE svg PUBLIC "-//W3C//DTD SVG 1.1//EN"
 "http://www.w3.org/Graphics/SVG/1.1/DTD/svg11.dtd">
<!-- Generated by graphviz version 2.43.0 (0)
 -->
<!-- Title: proto::RxContainer::fill Pages: 1 -->
<svg width="614pt" height="283pt"
 viewBox="0.00 0.00 614.00 283.00" xmlns="http://www.w3.org/2000/svg" xmlns:xlink="http://www.w3.org/1999/xlink">
<g id="graph0" class="graph" transform="scale(1 1) rotate(0) translate(4 279)">
<title>proto::RxContainer::fill</title>
<!-- Node1 -->
<g id="Node000001" class="node">
<title>Node1</title>
<g id="a_Node000001"><a xlink:title="Feeds a chunk of bytes to the parser and advances internal state.">
<polygon fill="#999999" stroke="#666666" points="108,-152.5 0,-152.5 0,-122.5 108,-122.5 108,-152.5"/>
<text text-anchor="start" x="8" y="-140.5" font-family="Helvetica,sans-Serif" font-size="10.00">proto::RxContainer</text>
<text text-anchor="middle" x="54" y="-129.5" font-family="Helvetica,sans-Serif" font-size="10.00">::fill</text>
</a>
</g>
</g>
<!-- Node2 -->
<g id="Node000002" class="node">
<title>Node2</title>
<g id="a_Node000002"><a xlink:href="../../d6/d58/classCustomSpan.html#afeef45fadf14f15d82570e9022861177" target="_top" xlink:title=" ">
<polygon fill="white" stroke="#666666" points="262,-275 151,-275 151,-256 262,-256 262,-275"/>
<text text-anchor="middle" x="206.5" y="-263" font-family="Helvetica,sans-Serif" font-size="10.00">CustomSpan::begin</text>
</a>
</g>
</g>
<!-- Node1&#45;&gt;Node2 -->
<g id="edge1_Node000001_Node000002" class="edge">
<title>Node1&#45;&gt;Node2</title>
<g id="a_edge1_Node000001_Node000002"><a xlink:title=" ">
<path fill="none" stroke="#63b8ff" d="M63.23,-152.76C76.86,-176.58 106.38,-222.44 144,-247.5 146.39,-249.09 148.92,-250.54 151.54,-251.87"/>
<polygon fill="#63b8ff" stroke="#63b8ff" points="150.15,-255.08 160.71,-255.91 152.97,-248.68 150.15,-255.08"/>
</a>
</g>
</g>
<!-- Node3 -->
<g id="Node000003" class="node">
<title>Node3</title>
<g id="a_Node000003"><a xlink:href="../../d6/d58/classCustomSpan.html#a94497ad048636cd0b4ec22d4a486ab75" target="_top" xlink:title=" ">
<polygon fill="white" stroke="#666666" points="264.5,-238 148.5,-238 148.5,-219 264.5,-219 264.5,-238"/>
<text text-anchor="middle" x="206.5" y="-226" font-family="Helvetica,sans-Serif" font-size="10.00">CustomSpan::empty</text>
</a>
</g>
</g>
<!-- Node1&#45;&gt;Node3 -->
<g id="edge2_Node000001_Node000003" class="edge">
<title>Node1&#45;&gt;Node3</title>
<g id="a_edge2_Node000001_Node000003"><a xlink:title=" ">
<path fill="none" stroke="#63b8ff" d="M70.08,-152.77C86.8,-168.93 115.24,-194.16 144,-209.5 148.05,-211.66 152.38,-213.61 156.8,-215.37"/>
<polygon fill="#63b8ff" stroke="#63b8ff" points="155.94,-218.79 166.54,-218.92 158.34,-212.21 155.94,-218.79"/>
</a>
</g>
</g>
<!-- Node4 -->
<g id="Node000004" class="node">
<title>Node4</title>
<g id="a_Node000004"><a xlink:href="../../d5/d09/classproto_1_1FieldContainer.html#a839d6710504914db7f4f92b0e63029cf" target="_top" xlink:title="Check if debug mode is enabled.">
<polygon fill="white" stroke="#666666" points="266,-200.5 147,-200.5 147,-170.5 266,-170.5 266,-200.5"/>
<text text-anchor="start" x="155" y="-188.5" font-family="Helvetica,sans-Serif" font-size="10.00">proto::FieldContainer</text>
<text text-anchor="middle" x="206.5" y="-177.5" font-family="Helvetica,sans-Serif" font-size="10.00">::is_debug</text>
</a>
</g>
</g>
<!-- Node1&#45;&gt;Node4 -->
<g id="edge3_Node000001_Node000004" class="edge">
<title>Node1&#45;&gt;Node4</title>
<g id="a_edge3_Node000001_Node000004"><a xlink:title=" ">
<path fill="none" stroke="#63b8ff" d="M102.21,-152.56C116.91,-157.25 133.29,-162.47 148.59,-167.35"/>
<polygon fill="#63b8ff" stroke="#63b8ff" points="147.87,-170.79 158.46,-170.5 150,-164.12 147.87,-170.79"/>
</a>
</g>
</g>
<!-- Node5 -->
<g id="Node000005" class="node">
<title>Node5</title>
<g id="a_Node000005"><a xlink:href="../../d5/d09/classproto_1_1FieldContainer.html#a44b086a546a434a9ba804d3081559d29" target="_top" xlink:title="Reset all fields, CRC, and internal state to defaults.">
<polygon fill="white" stroke="#666666" points="266,-152.5 147,-152.5 147,-122.5 266,-122.5 266,-152.5"/>
<text text-anchor="start" x="155" y="-140.5" font-family="Helvetica,sans-Serif" font-size="10.00">proto::FieldContainer</text>
<text text-anchor="middle" x="206.5" y="-129.5" font-family="Helvetica,sans-Serif" font-size="10.00">::reset</text>
</a>
</g>
</g>
<!-- Node1&#45;&gt;Node5 -->
<g id="edge4_Node000001_Node000005" class="edge">
<title>Node1&#45;&gt;Node5</title>
<g id="a_edge4_Node000001_Node000005"><a xlink:title=" ">
<path fill="none" stroke="#63b8ff" d="M108.06,-137.5C117.26,-137.5 126.94,-137.5 136.49,-137.5"/>
<polygon fill="#63b8ff" stroke="#63b8ff" points="136.77,-141 146.77,-137.5 136.77,-134 136.77,-141"/>
</a>
</g>
</g>
<!-- Node8 -->
<g id="Node000008" class="node">
<title>Node8</title>
<g id="a_Node000008"><a xlink:href="../../d0/d29/classproto_1_1RxContainer.html#a1b2e180fb838c06e4704724c13712107" target="_top" xlink:title="Compile&#45;time unrolled dispatcher that calls a functor for a runtime field index.">
<polygon fill="white" stroke="#666666" points="260.5,-104.5 152.5,-104.5 152.5,-74.5 260.5,-74.5 260.5,-104.5"/>
<text text-anchor="start" x="160.5" y="-92.5" font-family="Helvetica,sans-Serif" font-size="10.00">proto::RxContainer</text>
<text text-anchor="middle" x="206.5" y="-81.5" font-family="Helvetica,sans-Serif" font-size="10.00">::static_for_index</text>
</a>
</g>
</g>
<!-- Node1&#45;&gt;Node8 -->
<g id="edge7_Node000001_Node000008" class="edge">
<title>Node1&#45;&gt;Node8</title>
<g id="a_edge7_Node000001_Node000008"><a xlink:title=" ">
<path fill="none" stroke="#63b8ff" d="M102.21,-122.44C116.91,-117.75 133.29,-112.53 148.59,-107.65"/>
<polygon fill="#63b8ff" stroke="#63b8ff" points="150,-110.88 158.46,-104.5 147.87,-104.21 150,-110.88"/>
</a>
</g>
</g>
<!-- Node9 -->
<g id="Node000009" class="node">
<title>Node9</title>
<g id="a_Node000009"><a xlink:href="../../d6/d58/classCustomSpan.html#a9b193ceee70ecda6e7bf8ba824cdca37" target="_top" xlink:title=" ">
<polygon fill="white" stroke="#666666" points="269,-56 144,-56 144,-37 269,-37 269,-56"/>
<text text-anchor="middle" x="206.5" y="-44" font-family="Helvetica,sans-Serif" font-size="10.00">CustomSpan::subspan</text>
</a>
</g>
</g>
<!-- Node1&#45;&gt;Node9 -->
<g id="edge8_Node000001_Node000009" class="edge">
<title>Node1&#45;&gt;Node9</title>
<g id="a_edge8_Node000001_Node000009"><a xlink:title=" ">
<path fill="none" stroke="#63b8ff" d="M70.08,-122.23C86.8,-106.07 115.24,-80.84 144,-65.5 148.05,-63.34 152.38,-61.39 156.8,-59.63"/>
<polygon fill="#63b8ff" stroke="#63b8ff" points="158.34,-62.79 166.54,-56.08 155.94,-56.21 158.34,-62.79"/>
</a>
</g>
</g>
<!-- Node11 -->
<g id="Node000011" class="node">
<title>Node11</title>
<g id="a_Node000011"><a xlink:href="../../d6/dca/namespaceproto.html#a1881b92fb56d58d8b379b994eff4eb7d" target="_top" xlink:title="Convert FieldName enum to string.">
<polygon fill="white" stroke="#666666" points="252,-19 161,-19 161,0 252,0 252,-19"/>
<text text-anchor="middle" x="206.5" y="-7" font-family="Helvetica,sans-Serif" font-size="10.00">proto::to_string</text>
</a>
</g>
</g>
<!-- Node1&#45;&gt;Node11 -->
<g id="edge10_Node000001_Node000011" class="edge">
<title>Node1&#45;&gt;Node11</title>
<g id="a_edge10_Node000001_Node000011"><a xlink:title=" ">
<path fill="none" stroke="#63b8ff" d="M63.23,-122.24C76.86,-98.42 106.38,-52.56 144,-27.5 146.39,-25.91 148.92,-24.46 151.54,-23.13"/>
<polygon fill="#63b8ff" stroke="#63b8ff" points="152.97,-26.32 160.71,-19.09 150.15,-19.92 152.97,-26.32"/>
</a>
</g>
</g>
<!-- Node6 -->
<g id="Node000006" class="node">
<title>Node6</title>
<g id="a_Node000006"><a xlink:href="../../d5/d09/classproto_1_1FieldContainer.html#ad87097e46757f1f4d2ead100ef965f1e" target="_top" xlink:title="Apply a callable to each field in the container.">
<polygon fill="white" stroke="#666666" points="437.5,-152.5 318.5,-152.5 318.5,-122.5 437.5,-122.5 437.5,-152.5"/>
<text text-anchor="start" x="326.5" y="-140.5" font-family="Helvetica,sans-Serif" font-size="10.00">proto::FieldContainer</text>
<text text-anchor="middle" x="378" y="-129.5" font-family="Helvetica,sans-Serif" font-size="10.00">::for_each_type</text>
</a>
</g>
</g>
<!-- Node5&#45;&gt;Node6 -->
<g id="edge5_Node000005_Node000006" class="edge">
<title>Node5&#45;&gt;Node6</title>
<g id="a_edge5_Node000005_Node000006"><a xlink:title=" ">
<path fill="none" stroke="#63b8ff" d="M266.31,-137.5C279.85,-137.5 294.37,-137.5 308.29,-137.5"/>
<polygon fill="#63b8ff" stroke="#63b8ff" points="308.3,-141 318.3,-137.5 308.3,-134 308.3,-141"/>
</a>
</g>
</g>
<!-- Node7 -->
<g id="Node000007" class="node">
<title>Node7</title>
<g id="a_Node000007"><a xlink:href="../../d5/d09/classproto_1_1FieldContainer.html#a47927806803e31410e7e5bf48e7d50b2" target="_top" xlink:title="Helper to apply a callable to each field in the tuple (implementation).">
<polygon fill="white" stroke="#666666" points="606,-152.5 487,-152.5 487,-122.5 606,-122.5 606,-152.5"/>
<text text-anchor="start" x="495" y="-140.5" font-family="Helvetica,sans-Serif" font-size="10.00">proto::FieldContainer</text>
<text text-anchor="middle" x="546.5" y="-129.5" font-family="Helvetica,sans-Serif" font-size="10.00">::for_each_type_impl</text>
</a>
</g>
</g>
<!-- Node6&#45;&gt;Node7 -->
<g id="edge6_Node000006_Node000007" class="edge">
<title>Node6&#45;&gt;Node7</title>
<g id="a_edge6_Node000006_Node000007"><a xlink:title=" ">
<path fill="none" stroke="#63b8ff" d="M437.7,-137.5C450.26,-137.5 463.64,-137.5 476.54,-137.5"/>
<polygon fill="#63b8ff" stroke="#63b8ff" points="476.77,-141 486.77,-137.5 476.77,-134 476.77,-141"/>
</a>
</g>
</g>
<!-- Node10 -->
<g id="Node000010" class="node">
<title>Node10</title>
<g id="a_Node000010"><a xlink:href="../../d6/d58/classCustomSpan.html#adf665d2b306d731b0ae135ed3f328531" target="_top" xlink:title=" ">
<polygon fill="white" stroke="#666666" points="451,-56 305,-56 305,-37 451,-37 451,-56"/>
<text text-anchor="middle" x="378" y="-44" font-family="Helvetica,sans-Serif" font-size="10.00">CustomSpan::CustomSpan</text>
</a>
</g>
</g>
<!-- Node9&#45;&gt;Node10 -->
<g id="edge9_Node000009_Node000010" class="edge">
<title>Node9&#45;&gt;Node10</title>
<g id="a_edge9_Node000009_Node000010"><a xlink:title=" ">
<path fill="none" stroke="#63b8ff" d="M269.17,-46.5C277.47,-46.5 286.09,-46.5 294.68,-46.5"/>
<polygon fill="#63b8ff" stroke="#63b8ff" points="294.72,-50 304.72,-46.5 294.72,-43 294.72,-50"/>
</a>
</g>
</g>
</g>
</svg>
