<?xml version="1.0" encoding="UTF-8" standalone="no"?>
<!DOCTYPE svg PUBLIC "-//W3C//DTD SVG 1.1//EN"
 "http://www.w3.org/Graphics/SVG/1.1/DTD/svg11.dtd">
<!-- Generated by graphviz version 14.0.1 (20251006.0113)
 -->
<!-- Title: proto::lacte::LacteHostProtocol::get Pages: 1 -->
<svg width="367pt" height="284pt"
 viewBox="0.00 0.00 367.00 284.00" xmlns="http://www.w3.org/2000/svg" xmlns:xlink="http://www.w3.org/1999/xlink">
<g id="graph0" class="graph" transform="scale(1 1) rotate(0) translate(4 279.5)">
<title>proto::lacte::LacteHostProtocol::get</title>
<!-- Node1 -->
<g id="Node000001" class="node">
<title>Node1</title>
<g id="a_Node000001"><a xlink:title=" ">
<polygon fill="#999999" stroke="#666666" points="359,-146.88 187.75,-146.88 187.75,-127.62 359,-127.62 359,-146.88"/>
<text xml:space="preserve" text-anchor="middle" x="273.38" y="-133.38" font-family="Helvetica,sans-Serif" font-size="10.00">proto::lacte::LacteHostProtocol::get</text>
</a>
</g>
</g>
<!-- Node2 -->
<g id="Node000002" class="node">
<title>Node2</title>
<g id="a_Node000002"><a xlink:href="../../d6/dd3/classproto_1_1lacte_1_1_lacte_host_protocol.html#af956203f98e365e127142084fbcc2e0e" target="_top" xlink:title=" ">
<polygon fill="white" stroke="#666666" points="151.75,-275.5 0,-275.5 0,-245 151.75,-245 151.75,-275.5"/>
<text xml:space="preserve" text-anchor="start" x="8" y="-262" font-family="Helvetica,sans-Serif" font-size="10.00">proto::lacte::LacteHostProtocol</text>
<text xml:space="preserve" text-anchor="middle" x="75.88" y="-250.75" font-family="Helvetica,sans-Serif" font-size="10.00">::get_info</text>
</a>
</g>
</g>
<!-- Node1&#45;&gt;Node2 -->
<g id="edge1_Node000001_Node000002" class="edge">
<title>Node1&#45;&gt;Node2</title>
<g id="a_edge1_Node000001_Node000002"><a xlink:title=" ">
<path fill="none" stroke="#63b8ff" d="M254.49,-155.33C232.19,-176.98 192.07,-213.1 151.75,-235.25 145.38,-238.75 138.44,-241.87 131.44,-244.62"/>
<polygon fill="#63b8ff" stroke="#63b8ff" points="256.92,-157.86 261.57,-148.34 252,-152.87 256.92,-157.86"/>
</a>
</g>
</g>
<!-- Node3 -->
<g id="Node000003" class="node">
<title>Node3</title>
<g id="a_Node000003"><a xlink:href="../../d6/dd3/classproto_1_1lacte_1_1_lacte_host_protocol.html#a8c12ff5726f58db9831b13382a0e2456" target="_top" xlink:title=" ">
<polygon fill="white" stroke="#666666" points="151.75,-226.5 0,-226.5 0,-196 151.75,-196 151.75,-226.5"/>
<text xml:space="preserve" text-anchor="start" x="8" y="-213" font-family="Helvetica,sans-Serif" font-size="10.00">proto::lacte::LacteHostProtocol</text>
<text xml:space="preserve" text-anchor="middle" x="75.88" y="-201.75" font-family="Helvetica,sans-Serif" font-size="10.00">::get_rfid</text>
</a>
</g>
</g>
<!-- Node1&#45;&gt;Node3 -->
<g id="edge2_Node000001_Node000003" class="edge">
<title>Node1&#45;&gt;Node3</title>
<g id="a_edge2_Node000001_Node000003"><a xlink:title=" ">
<path fill="none" stroke="#63b8ff" d="M238.6,-151.64C214.54,-161.73 181.35,-175.31 151.75,-186.25 143.27,-189.39 134.18,-192.57 125.37,-195.56"/>
<polygon fill="#63b8ff" stroke="#63b8ff" points="239.72,-154.97 247.58,-147.86 237,-148.52 239.72,-154.97"/>
</a>
</g>
</g>
<!-- Node4 -->
<g id="Node000004" class="node">
<title>Node4</title>
<g id="a_Node000004"><a xlink:href="../../d6/dd3/classproto_1_1lacte_1_1_lacte_host_protocol.html#a4a03daefcb8a0ca173c5c1006d55c83f" target="_top" xlink:title=" ">
<polygon fill="white" stroke="#666666" points="151.75,-177.5 0,-177.5 0,-147 151.75,-147 151.75,-177.5"/>
<text xml:space="preserve" text-anchor="start" x="8" y="-164" font-family="Helvetica,sans-Serif" font-size="10.00">proto::lacte::LacteHostProtocol</text>
<text xml:space="preserve" text-anchor="middle" x="75.88" y="-152.75" font-family="Helvetica,sans-Serif" font-size="10.00">::get_rfid_data</text>
</a>
</g>
</g>
<!-- Node1&#45;&gt;Node4 -->
<g id="edge3_Node000001_Node000004" class="edge">
<title>Node1&#45;&gt;Node4</title>
<g id="a_edge3_Node000001_Node000004"><a xlink:title=" ">
<path fill="none" stroke="#63b8ff" d="M182.12,-148.79C172.04,-150.08 161.86,-151.38 152,-152.64"/>
<polygon fill="#63b8ff" stroke="#63b8ff" points="182.44,-152.28 191.92,-147.54 181.56,-145.34 182.44,-152.28"/>
</a>
</g>
</g>
<!-- Node5 -->
<g id="Node000005" class="node">
<title>Node5</title>
<g id="a_Node000005"><a xlink:href="../../d6/dd3/classproto_1_1lacte_1_1_lacte_host_protocol.html#a5138dda64478785bb9a49d03ecf55805" target="_top" xlink:title=" ">
<polygon fill="white" stroke="#666666" points="151.75,-128.5 0,-128.5 0,-98 151.75,-98 151.75,-128.5"/>
<text xml:space="preserve" text-anchor="start" x="8" y="-115" font-family="Helvetica,sans-Serif" font-size="10.00">proto::lacte::LacteHostProtocol</text>
<text xml:space="preserve" text-anchor="middle" x="75.88" y="-103.75" font-family="Helvetica,sans-Serif" font-size="10.00">::get_uid</text>
</a>
</g>
</g>
<!-- Node1&#45;&gt;Node5 -->
<g id="edge4_Node000001_Node000005" class="edge">
<title>Node1&#45;&gt;Node5</title>
<g id="a_edge4_Node000001_Node000005"><a xlink:title=" ">
<path fill="none" stroke="#63b8ff" d="M178.72,-125.75C169.75,-124.65 160.73,-123.54 151.97,-122.47"/>
<polygon fill="#63b8ff" stroke="#63b8ff" points="178.18,-129.21 188.53,-126.96 179.03,-122.26 178.18,-129.21"/>
</a>
</g>
</g>
<!-- Node6 -->
<g id="Node000006" class="node">
<title>Node6</title>
<g id="a_Node000006"><a xlink:href="../../d6/dd3/classproto_1_1lacte_1_1_lacte_host_protocol.html#aebf52854ab0837d9e79a47412a1fb476" target="_top" xlink:title=" ">
<polygon fill="white" stroke="#666666" points="151.75,-79.5 0,-79.5 0,-49 151.75,-49 151.75,-79.5"/>
<text xml:space="preserve" text-anchor="start" x="8" y="-66" font-family="Helvetica,sans-Serif" font-size="10.00">proto::lacte::LacteHostProtocol</text>
<text xml:space="preserve" text-anchor="middle" x="75.88" y="-54.75" font-family="Helvetica,sans-Serif" font-size="10.00">::get_version</text>
</a>
</g>
</g>
<!-- Node1&#45;&gt;Node6 -->
<g id="edge5_Node000001_Node000006" class="edge">
<title>Node1&#45;&gt;Node6</title>
<g id="a_edge5_Node000001_Node000006"><a xlink:title=" ">
<path fill="none" stroke="#63b8ff" d="M238.13,-123.02C214.09,-113.19 181.12,-99.99 151.75,-89.25 143.25,-86.14 134.16,-82.98 125.35,-79.99"/>
<polygon fill="#63b8ff" stroke="#63b8ff" points="236.52,-126.15 247.1,-126.71 239.18,-119.67 236.52,-126.15"/>
</a>
</g>
</g>
<!-- Node7 -->
<g id="Node000007" class="node">
<title>Node7</title>
<g id="a_Node000007"><a xlink:href="../../d6/dd3/classproto_1_1lacte_1_1_lacte_host_protocol.html#a60104e61b4a82a461c6c25a9c7c6703c" target="_top" xlink:title=" ">
<polygon fill="white" stroke="#666666" points="151.75,-30.5 0,-30.5 0,0 151.75,0 151.75,-30.5"/>
<text xml:space="preserve" text-anchor="start" x="8" y="-17" font-family="Helvetica,sans-Serif" font-size="10.00">proto::lacte::LacteHostProtocol</text>
<text xml:space="preserve" text-anchor="middle" x="75.88" y="-5.75" font-family="Helvetica,sans-Serif" font-size="10.00">::restart</text>
</a>
</g>
</g>
<!-- Node1&#45;&gt;Node7 -->
<g id="edge6_Node000001_Node000007" class="edge">
<title>Node1&#45;&gt;Node7</title>
<g id="a_edge6_Node000001_Node000007"><a xlink:title=" ">
<path fill="none" stroke="#63b8ff" d="M254.46,-119.37C232.12,-97.95 191.97,-62.21 151.75,-40.25 145.37,-36.77 138.43,-33.66 131.43,-30.91"/>
<polygon fill="#63b8ff" stroke="#63b8ff" points="251.94,-121.8 261.54,-126.28 256.83,-116.79 251.94,-121.8"/>
</a>
</g>
</g>
</g>
</svg>
