<?xml version="1.0" encoding="UTF-8" standalone="no"?>
<!DOCTYPE svg PUBLIC "-//W3C//DTD SVG 1.1//EN"
 "http://www.w3.org/Graphics/SVG/1.1/DTD/svg11.dtd">
<!-- Generated by graphviz version 14.0.1 (20251006.0113)
 -->
<!-- Title: proto::lacte::LacteHostProtocol::get_rfid_data Pages: 1 -->
<svg width="523pt" height="82pt"
 viewBox="0.00 0.00 523.00 82.00" xmlns="http://www.w3.org/2000/svg" xmlns:xlink="http://www.w3.org/1999/xlink">
<g id="graph0" class="graph" transform="scale(1 1) rotate(0) translate(4 78.25)">
<title>proto::lacte::LacteHostProtocol::get_rfid_data</title>
<!-- Node1 -->
<g id="Node000001" class="node">
<title>Node1</title>
<g id="a_Node000001"><a xlink:title=" ">
<polygon fill="#999999" stroke="#666666" points="151.75,-42.88 0,-42.88 0,-12.37 151.75,-12.37 151.75,-42.88"/>
<text xml:space="preserve" text-anchor="start" x="8" y="-29.38" font-family="Helvetica,sans-Serif" font-size="10.00">proto::lacte::LacteHostProtocol</text>
<text xml:space="preserve" text-anchor="middle" x="75.88" y="-18.12" font-family="Helvetica,sans-Serif" font-size="10.00">::get_rfid_data</text>
</a>
</g>
</g>
<!-- Node2 -->
<g id="Node000002" class="node">
<title>Node2</title>
<g id="a_Node000002"><a xlink:href="../../d6/dd3/classproto_1_1lacte_1_1_lacte_host_protocol.html#a3222d318f611eae10e718af657624701" target="_top" xlink:title=" ">
<polygon fill="white" stroke="#666666" points="359,-37.25 187.75,-37.25 187.75,-18 359,-18 359,-37.25"/>
<text xml:space="preserve" text-anchor="middle" x="273.38" y="-23.75" font-family="Helvetica,sans-Serif" font-size="10.00">proto::lacte::LacteHostProtocol::get</text>
</a>
</g>
</g>
<!-- Node1&#45;&gt;Node2 -->
<g id="edge1_Node000001_Node000002" class="edge">
<title>Node1&#45;&gt;Node2</title>
<g id="a_edge1_Node000001_Node000002"><a xlink:title=" ">
<path fill="none" stroke="#63b8ff" d="M152.18,-27.62C160,-27.62 168.03,-27.62 176.04,-27.62"/>
<polygon fill="#63b8ff" stroke="#63b8ff" points="175.83,-31.13 185.83,-27.63 175.83,-24.13 175.83,-31.13"/>
</a>
</g>
</g>
<!-- Node3 -->
<g id="Node000003" class="node">
<title>Node3</title>
<g id="a_Node000003"><a xlink:href="../../d8/d8f/namespaceproto_1_1meta.html#a5236c42cda218e31c60084fee50aecdc" target="_top" xlink:title=" ">
<polygon fill="white" stroke="#666666" points="514.5,-56.25 395,-56.25 395,-37 514.5,-37 514.5,-56.25"/>
<text xml:space="preserve" text-anchor="middle" x="454.75" y="-42.75" font-family="Helvetica,sans-Serif" font-size="10.00">proto::meta::get_named</text>
</a>
</g>
</g>
<!-- Node2&#45;&gt;Node3 -->
<g id="edge2_Node000002_Node000003" class="edge">
<title>Node2&#45;&gt;Node3</title>
<g id="a_edge2_Node000002_Node000003"><a xlink:title=" ">
<path fill="none" stroke="#63b8ff" d="M359.33,-36.62C367.37,-37.47 375.45,-38.33 383.32,-39.16"/>
<polygon fill="#63b8ff" stroke="#63b8ff" points="382.86,-42.64 393.17,-40.21 383.6,-35.67 382.86,-42.64"/>
</a>
</g>
</g>
<!-- Node4 -->
<g id="Node000004" class="node">
<title>Node4</title>
<g id="a_Node000004"><a xlink:href="../../d6/dca/namespaceproto.html#a9c21019704e7c51307682a22ccd4a6d3" target="_top" xlink:title="Helper to create a FieldInfo with type/size deduction.">
<polygon fill="white" stroke="#666666" points="510.75,-19.25 398.75,-19.25 398.75,0 510.75,0 510.75,-19.25"/>
<text xml:space="preserve" text-anchor="middle" x="454.75" y="-5.75" font-family="Helvetica,sans-Serif" font-size="10.00">proto::make_field_info</text>
</a>
</g>
</g>
<!-- Node2&#45;&gt;Node4 -->
<g id="edge4_Node000002_Node000004" class="edge">
<title>Node2&#45;&gt;Node4</title>
<g id="a_edge4_Node000002_Node000004"><a xlink:title=" ">
<path fill="none" stroke="#63b8ff" d="M359.33,-19.1C368.63,-18.17 377.99,-17.23 387.03,-16.32"/>
<polygon fill="#63b8ff" stroke="#63b8ff" points="387.15,-19.83 396.75,-15.34 386.45,-12.86 387.15,-19.83"/>
</a>
</g>
</g>
<!-- Node3&#45;&gt;Node3 -->
<g id="edge3_Node000003_Node000003" class="edge">
<title>Node3&#45;&gt;Node3</title>
<g id="a_edge3_Node000003_Node000003"><a xlink:title=" ">
<path fill="none" stroke="#63b8ff" d="M426.35,-56.54C413.4,-65.15 422.87,-74.25 454.75,-74.25 473.18,-74.25 484.12,-71.21 487.57,-66.98"/>
<polygon fill="#63b8ff" stroke="#63b8ff" points="490.86,-65.77 483.74,-57.93 484.41,-68.5 490.86,-65.77"/>
</a>
</g>
</g>
</g>
</svg>
