<?xml version="1.0" encoding="UTF-8" standalone="no"?>
<!DOCTYPE svg PUBLIC "-//W3C//DTD SVG 1.1//EN"
 "http://www.w3.org/Graphics/SVG/1.1/DTD/svg11.dtd">
<!-- Generated by graphviz version 14.0.1 (20251006.0113)
 -->
<!-- Title: proto::lacte::ErrorFlags::ErrorFlags Pages: 1 -->
<svg width="276pt" height="137pt"
 viewBox="0.00 0.00 276.00 137.00" xmlns="http://www.w3.org/2000/svg" xmlns:xlink="http://www.w3.org/1999/xlink">
<g id="graph0" class="graph" transform="scale(1 1) rotate(0) translate(4 132.5)">
<title>proto::lacte::ErrorFlags::ErrorFlags</title>
<!-- Node1 -->
<g id="Node000001" class="node">
<title>Node1</title>
<g id="a_Node000001"><a xlink:title=" ">
<polygon fill="#999999" stroke="#666666" points="267.5,-79.5 151.75,-79.5 151.75,-49 267.5,-49 267.5,-79.5"/>
<text xml:space="preserve" text-anchor="start" x="159.75" y="-66" font-family="Helvetica,sans-Serif" font-size="10.00">proto::lacte::ErrorFlags</text>
<text xml:space="preserve" text-anchor="middle" x="209.62" y="-54.75" font-family="Helvetica,sans-Serif" font-size="10.00">::ErrorFlags</text>
</a>
</g>
</g>
<!-- Node2 -->
<g id="Node000002" class="node">
<title>Node2</title>
<g id="a_Node000002"><a xlink:href="../../d9/d72/classproto_1_1lacte_1_1_error_flags.html#a4b43f258eeee23dad1996e2122f5248c" target="_top" xlink:title=" ">
<polygon fill="white" stroke="#666666" points="115.75,-128.5 0,-128.5 0,-98 115.75,-98 115.75,-128.5"/>
<text xml:space="preserve" text-anchor="start" x="8" y="-115" font-family="Helvetica,sans-Serif" font-size="10.00">proto::lacte::ErrorFlags</text>
<text xml:space="preserve" text-anchor="middle" x="57.88" y="-103.75" font-family="Helvetica,sans-Serif" font-size="10.00">::from_raw</text>
</a>
</g>
</g>
<!-- Node1&#45;&gt;Node2 -->
<g id="edge1_Node000001_Node000002" class="edge">
<title>Node1&#45;&gt;Node2</title>
<g id="a_edge1_Node000001_Node000002"><a xlink:title=" ">
<path fill="none" stroke="#63b8ff" d="M150.11,-83.4C135.83,-88.07 120.72,-93.01 106.99,-97.51"/>
<polygon fill="#63b8ff" stroke="#63b8ff" points="150.98,-86.8 159.39,-80.36 148.8,-80.14 150.98,-86.8"/>
</a>
</g>
</g>
<!-- Node3 -->
<g id="Node000003" class="node">
<title>Node3</title>
<g id="a_Node000003"><a xlink:href="../../d9/d72/classproto_1_1lacte_1_1_error_flags.html#a22cf9df62f3d444e4bf02320d03dbdcc" target="_top" xlink:title=" ">
<polygon fill="white" stroke="#666666" points="115.75,-79.5 0,-79.5 0,-49 115.75,-49 115.75,-79.5"/>
<text xml:space="preserve" text-anchor="start" x="8" y="-66" font-family="Helvetica,sans-Serif" font-size="10.00">proto::lacte::ErrorFlags</text>
<text xml:space="preserve" text-anchor="middle" x="57.88" y="-54.75" font-family="Helvetica,sans-Serif" font-size="10.00">::operator!=</text>
</a>
</g>
</g>
<!-- Node1&#45;&gt;Node3 -->
<g id="edge2_Node000001_Node000003" class="edge">
<title>Node1&#45;&gt;Node3</title>
<g id="a_edge2_Node000001_Node000003"><a xlink:title=" ">
<path fill="none" stroke="#63b8ff" d="M140.16,-64.25C131.99,-64.25 123.73,-64.25 115.76,-64.25"/>
<polygon fill="#63b8ff" stroke="#63b8ff" points="140.07,-67.75 150.07,-64.25 140.07,-60.75 140.07,-67.75"/>
</a>
</g>
</g>
<!-- Node4 -->
<g id="Node000004" class="node">
<title>Node4</title>
<g id="a_Node000004"><a xlink:href="../../d9/d72/classproto_1_1lacte_1_1_error_flags.html#aa92198f332bcc5b94053f9238f9cffb5" target="_top" xlink:title=" ">
<polygon fill="white" stroke="#666666" points="115.75,-30.5 0,-30.5 0,0 115.75,0 115.75,-30.5"/>
<text xml:space="preserve" text-anchor="start" x="8" y="-17" font-family="Helvetica,sans-Serif" font-size="10.00">proto::lacte::ErrorFlags</text>
<text xml:space="preserve" text-anchor="middle" x="57.88" y="-5.75" font-family="Helvetica,sans-Serif" font-size="10.00">::operator==</text>
</a>
</g>
</g>
<!-- Node1&#45;&gt;Node4 -->
<g id="edge3_Node000001_Node000004" class="edge">
<title>Node1&#45;&gt;Node4</title>
<g id="a_edge3_Node000001_Node000004"><a xlink:title=" ">
<path fill="none" stroke="#63b8ff" d="M150.11,-45.1C135.83,-40.43 120.72,-35.49 106.99,-30.99"/>
<polygon fill="#63b8ff" stroke="#63b8ff" points="148.8,-48.36 159.39,-48.14 150.98,-41.7 148.8,-48.36"/>
</a>
</g>
</g>
</g>
</svg>
