<?xml version="1.0" encoding="UTF-8" standalone="no"?>
<!DOCTYPE svg PUBLIC "-//W3C//DTD SVG 1.1//EN"
 "http://www.w3.org/Graphics/SVG/1.1/DTD/svg11.dtd">
<!-- Generated by graphviz version 14.0.1 (20251006.0113)
 -->
<!-- Title: proto::lacte::ErrorFlags::has Pages: 1 -->
<svg width="452pt" height="333pt"
 viewBox="0.00 0.00 452.00 333.00" xmlns="http://www.w3.org/2000/svg" xmlns:xlink="http://www.w3.org/1999/xlink">
<g id="graph0" class="graph" transform="scale(1 1) rotate(0) translate(4 328.5)">
<title>proto::lacte::ErrorFlags::has</title>
<!-- Node1 -->
<g id="Node000001" class="node">
<title>Node1</title>
<g id="a_Node000001"><a xlink:title=" ">
<polygon fill="#999999" stroke="#666666" points="444,-146.88 306.5,-146.88 306.5,-127.62 444,-127.62 444,-146.88"/>
<text xml:space="preserve" text-anchor="middle" x="375.25" y="-133.38" font-family="Helvetica,sans-Serif" font-size="10.00">proto::lacte::ErrorFlags::has</text>
</a>
</g>
</g>
<!-- Node2 -->
<g id="Node000002" class="node">
<title>Node2</title>
<g id="a_Node000002"><a xlink:href="../../d4/d4b/classproto_1_1lacte_1_1_board_error_diff.html#a9226218083c549061b1bf6d55baae0f5" target="_top" xlink:title=" ">
<polygon fill="white" stroke="#666666" points="270.5,-177.5 153.25,-177.5 153.25,-147 270.5,-147 270.5,-177.5"/>
<text xml:space="preserve" text-anchor="start" x="161.25" y="-164" font-family="Helvetica,sans-Serif" font-size="10.00">proto::lacte::BoardError</text>
<text xml:space="preserve" text-anchor="middle" x="211.88" y="-152.75" font-family="Helvetica,sans-Serif" font-size="10.00">Diff::BoardErrorDiff</text>
</a>
</g>
</g>
<!-- Node1&#45;&gt;Node2 -->
<g id="edge1_Node000001_Node000002" class="edge">
<title>Node1&#45;&gt;Node2</title>
<g id="a_edge1_Node000001_Node000002"><a xlink:title=" ">
<path fill="none" stroke="#63b8ff" d="M297.98,-149.07C288.82,-150.48 279.59,-151.92 270.75,-153.28"/>
<polygon fill="#63b8ff" stroke="#63b8ff" points="298.24,-152.57 307.58,-147.58 297.16,-145.65 298.24,-152.57"/>
</a>
</g>
</g>
<!-- Node10 -->
<g id="Node000010" class="node">
<title>Node10</title>
<g id="a_Node000010"><a xlink:href="../../d9/d72/classproto_1_1lacte_1_1_error_flags.html#a02d6289796f35e3491b51103a705b459" target="_top" xlink:title=" ">
<polygon fill="white" stroke="#666666" points="269.75,-128.5 154,-128.5 154,-98 269.75,-98 269.75,-128.5"/>
<text xml:space="preserve" text-anchor="start" x="162" y="-115" font-family="Helvetica,sans-Serif" font-size="10.00">proto::lacte::ErrorFlags</text>
<text xml:space="preserve" text-anchor="middle" x="211.88" y="-103.75" font-family="Helvetica,sans-Serif" font-size="10.00">::list</text>
</a>
</g>
</g>
<!-- Node1&#45;&gt;Node10 -->
<g id="edge9_Node000001_Node000010" class="edge">
<title>Node1&#45;&gt;Node10</title>
<g id="a_edge9_Node000001_Node000010"><a xlink:title=" ">
<path fill="none" stroke="#63b8ff" d="M294.89,-125.45C286.51,-124.2 278.11,-122.95 270.05,-121.75"/>
<polygon fill="#63b8ff" stroke="#63b8ff" points="294.38,-128.91 304.78,-126.92 295.41,-121.99 294.38,-128.91"/>
</a>
</g>
</g>
<!-- Node3 -->
<g id="Node000003" class="node">
<title>Node3</title>
<g id="a_Node000003"><a xlink:href="../../d4/d4b/classproto_1_1lacte_1_1_board_error_diff.html#ac9a7534e72159d7d0dfc0c5f82c8d1bf" target="_top" xlink:title=" ">
<polygon fill="white" stroke="#666666" points="117.25,-324.5 0,-324.5 0,-294 117.25,-294 117.25,-324.5"/>
<text xml:space="preserve" text-anchor="start" x="8" y="-311" font-family="Helvetica,sans-Serif" font-size="10.00">proto::lacte::BoardError</text>
<text xml:space="preserve" text-anchor="middle" x="58.62" y="-299.75" font-family="Helvetica,sans-Serif" font-size="10.00">Diff::BoardErrorDiff</text>
</a>
</g>
</g>
<!-- Node2&#45;&gt;Node3 -->
<g id="edge2_Node000002_Node000003" class="edge">
<title>Node2&#45;&gt;Node3</title>
<g id="a_edge2_Node000002_Node000003"><a xlink:title=" ">
<path fill="none" stroke="#63b8ff" d="M196.72,-187.65C180.55,-214.71 151.81,-257.27 117.25,-284.25 112.78,-287.74 107.75,-290.84 102.57,-293.57"/>
<polygon fill="#63b8ff" stroke="#63b8ff" points="199.71,-189.48 201.72,-179.08 193.66,-185.96 199.71,-189.48"/>
</a>
</g>
</g>
<!-- Node4 -->
<g id="Node000004" class="node">
<title>Node4</title>
<g id="a_Node000004"><a xlink:href="../../d4/d4b/classproto_1_1lacte_1_1_board_error_diff.html#a9ea0242ee1aa502ce3b9d8a2194f78d5" target="_top" xlink:title=" ">
<polygon fill="white" stroke="#666666" points="117.25,-275.5 0,-275.5 0,-245 117.25,-245 117.25,-275.5"/>
<text xml:space="preserve" text-anchor="start" x="8" y="-262" font-family="Helvetica,sans-Serif" font-size="10.00">proto::lacte::BoardError</text>
<text xml:space="preserve" text-anchor="middle" x="58.62" y="-250.75" font-family="Helvetica,sans-Serif" font-size="10.00">Diff::BoardErrorDiff</text>
</a>
</g>
</g>
<!-- Node2&#45;&gt;Node4 -->
<g id="edge3_Node000002_Node000004" class="edge">
<title>Node2&#45;&gt;Node4</title>
<g id="a_edge3_Node000002_Node000004"><a xlink:title=" ">
<path fill="none" stroke="#63b8ff" d="M185.27,-185.11C167.13,-200.55 141.77,-220.69 117.25,-235.25 111.62,-238.59 105.47,-241.74 99.34,-244.6"/>
<polygon fill="#63b8ff" stroke="#63b8ff" points="187.13,-188.12 192.41,-178.94 182.55,-182.83 187.13,-188.12"/>
</a>
</g>
</g>
<!-- Node5 -->
<g id="Node000005" class="node">
<title>Node5</title>
<g id="a_Node000005"><a xlink:href="../../d4/d4b/classproto_1_1lacte_1_1_board_error_diff.html#a03b59eda85a9cc7200bb23108cc7aa16" target="_top" xlink:title=" ">
<polygon fill="white" stroke="#666666" points="117.25,-226.5 0,-226.5 0,-196 117.25,-196 117.25,-226.5"/>
<text xml:space="preserve" text-anchor="start" x="8" y="-213" font-family="Helvetica,sans-Serif" font-size="10.00">proto::lacte::BoardError</text>
<text xml:space="preserve" text-anchor="middle" x="58.62" y="-201.75" font-family="Helvetica,sans-Serif" font-size="10.00">Diff::operator!=</text>
</a>
</g>
</g>
<!-- Node2&#45;&gt;Node5 -->
<g id="edge4_Node000002_Node000005" class="edge">
<title>Node2&#45;&gt;Node5</title>
<g id="a_edge4_Node000002_Node000005"><a xlink:title=" ">
<path fill="none" stroke="#63b8ff" d="M151.77,-181.4C137.35,-186.07 122.09,-191.01 108.22,-195.51"/>
<polygon fill="#63b8ff" stroke="#63b8ff" points="152.73,-184.77 161.16,-178.36 150.57,-178.11 152.73,-184.77"/>
</a>
</g>
</g>
<!-- Node6 -->
<g id="Node000006" class="node">
<title>Node6</title>
<g id="a_Node000006"><a xlink:href="../../d4/d4b/classproto_1_1lacte_1_1_board_error_diff.html#ab48f0e028b6e0e73a9f17446bf4f930c" target="_top" xlink:title=" ">
<polygon fill="white" stroke="#666666" points="117.25,-177.5 0,-177.5 0,-147 117.25,-147 117.25,-177.5"/>
<text xml:space="preserve" text-anchor="start" x="8" y="-164" font-family="Helvetica,sans-Serif" font-size="10.00">proto::lacte::BoardError</text>
<text xml:space="preserve" text-anchor="middle" x="58.62" y="-152.75" font-family="Helvetica,sans-Serif" font-size="10.00">Diff::operator&lt;&lt;</text>
</a>
</g>
</g>
<!-- Node2&#45;&gt;Node6 -->
<g id="edge5_Node000002_Node000006" class="edge">
<title>Node2&#45;&gt;Node6</title>
<g id="a_edge5_Node000002_Node000006"><a xlink:title=" ">
<path fill="none" stroke="#63b8ff" d="M141.48,-162.25C133.38,-162.25 125.18,-162.25 117.26,-162.25"/>
<polygon fill="#63b8ff" stroke="#63b8ff" points="141.32,-165.75 151.32,-162.25 141.32,-158.75 141.32,-165.75"/>
</a>
</g>
</g>
<!-- Node7 -->
<g id="Node000007" class="node">
<title>Node7</title>
<g id="a_Node000007"><a xlink:href="../../d4/d4b/classproto_1_1lacte_1_1_board_error_diff.html#af59e81b998a9a2fbf26748f7a0444ccd" target="_top" xlink:title=" ">
<polygon fill="white" stroke="#666666" points="117.25,-128.5 0,-128.5 0,-98 117.25,-98 117.25,-128.5"/>
<text xml:space="preserve" text-anchor="start" x="8" y="-115" font-family="Helvetica,sans-Serif" font-size="10.00">proto::lacte::BoardError</text>
<text xml:space="preserve" text-anchor="middle" x="58.62" y="-103.75" font-family="Helvetica,sans-Serif" font-size="10.00">Diff::operator=</text>
</a>
</g>
</g>
<!-- Node2&#45;&gt;Node7 -->
<g id="edge6_Node000002_Node000007" class="edge">
<title>Node2&#45;&gt;Node7</title>
<g id="a_edge6_Node000002_Node000007"><a xlink:title=" ">
<path fill="none" stroke="#63b8ff" d="M151.77,-143.1C137.35,-138.43 122.09,-133.49 108.22,-128.99"/>
<polygon fill="#63b8ff" stroke="#63b8ff" points="150.57,-146.39 161.16,-146.14 152.73,-139.73 150.57,-146.39"/>
</a>
</g>
</g>
<!-- Node8 -->
<g id="Node000008" class="node">
<title>Node8</title>
<g id="a_Node000008"><a xlink:href="../../d4/d4b/classproto_1_1lacte_1_1_board_error_diff.html#ac06812f97204ddbfb993ed22c26221e0" target="_top" xlink:title=" ">
<polygon fill="white" stroke="#666666" points="117.25,-79.5 0,-79.5 0,-49 117.25,-49 117.25,-79.5"/>
<text xml:space="preserve" text-anchor="start" x="8" y="-66" font-family="Helvetica,sans-Serif" font-size="10.00">proto::lacte::BoardError</text>
<text xml:space="preserve" text-anchor="middle" x="58.62" y="-54.75" font-family="Helvetica,sans-Serif" font-size="10.00">Diff::operator=</text>
</a>
</g>
</g>
<!-- Node2&#45;&gt;Node8 -->
<g id="edge7_Node000002_Node000008" class="edge">
<title>Node2&#45;&gt;Node8</title>
<g id="a_edge7_Node000002_Node000008"><a xlink:title=" ">
<path fill="none" stroke="#63b8ff" d="M158.02,-140.73C156.38,-139.62 154.78,-138.46 153.25,-137.25 132.32,-120.73 138.18,-105.77 117.25,-89.25 112.8,-85.74 107.78,-82.62 102.6,-79.88"/>
<polygon fill="#63b8ff" stroke="#63b8ff" points="156.21,-143.73 166.6,-145.84 159.8,-137.72 156.21,-143.73"/>
</a>
</g>
</g>
<!-- Node9 -->
<g id="Node000009" class="node">
<title>Node9</title>
<g id="a_Node000009"><a xlink:href="../../d4/d4b/classproto_1_1lacte_1_1_board_error_diff.html#a1b4ae3f56b747d577134b75f2c606024" target="_top" xlink:title=" ">
<polygon fill="white" stroke="#666666" points="117.25,-30.5 0,-30.5 0,0 117.25,0 117.25,-30.5"/>
<text xml:space="preserve" text-anchor="start" x="8" y="-17" font-family="Helvetica,sans-Serif" font-size="10.00">proto::lacte::BoardError</text>
<text xml:space="preserve" text-anchor="middle" x="58.62" y="-5.75" font-family="Helvetica,sans-Serif" font-size="10.00">Diff::operator==</text>
</a>
</g>
</g>
<!-- Node2&#45;&gt;Node9 -->
<g id="edge8_Node000002_Node000009" class="edge">
<title>Node2&#45;&gt;Node9</title>
<g id="a_edge8_Node000002_Node000009"><a xlink:title=" ">
<path fill="none" stroke="#63b8ff" d="M155.89,-139.83C154.97,-139 154.09,-138.14 153.25,-137.25 121.62,-103.87 148.88,-73.63 117.25,-40.25 113.87,-36.69 109.91,-33.61 105.66,-30.94"/>
<polygon fill="#63b8ff" stroke="#63b8ff" points="153.54,-142.44 163.63,-145.65 157.74,-136.84 153.54,-142.44"/>
</a>
</g>
</g>
</g>
</svg>
