<?xml version="1.0" encoding="UTF-8" standalone="no"?>
<!DOCTYPE svg PUBLIC "-//W3C//DTD SVG 1.1//EN"
 "http://www.w3.org/Graphics/SVG/1.1/DTD/svg11.dtd">
<!-- Generated by graphviz version 14.0.1 (20251006.0113)
 -->
<!-- Title: proto::lacte::ErrorFlags::ErrorFlags Pages: 1 -->
<svg width="426pt" height="64pt"
 viewBox="0.00 0.00 426.00 64.00" xmlns="http://www.w3.org/2000/svg" xmlns:xlink="http://www.w3.org/1999/xlink">
<g id="graph0" class="graph" transform="scale(1 1) rotate(0) translate(4 60.25)">
<title>proto::lacte::ErrorFlags::ErrorFlags</title>
<!-- Node1 -->
<g id="Node000001" class="node">
<title>Node1</title>
<g id="a_Node000001"><a xlink:title=" ">
<polygon fill="#999999" stroke="#666666" points="115.75,-42.88 0,-42.88 0,-12.37 115.75,-12.37 115.75,-42.88"/>
<text xml:space="preserve" text-anchor="start" x="8" y="-29.38" font-family="Helvetica,sans-Serif" font-size="10.00">proto::lacte::ErrorFlags</text>
<text xml:space="preserve" text-anchor="middle" x="57.88" y="-18.12" font-family="Helvetica,sans-Serif" font-size="10.00">::ErrorFlags</text>
</a>
</g>
</g>
<!-- Node2 -->
<g id="Node000002" class="node">
<title>Node2</title>
<g id="a_Node000002"><a xlink:href="../../d9/d72/classproto_1_1lacte_1_1_error_flags.html#aeb541042b66e0772797a12b143543936" target="_top" xlink:title=" ">
<polygon fill="white" stroke="#666666" points="287,-56.25 151.75,-56.25 151.75,-37 287,-37 287,-56.25"/>
<text xml:space="preserve" text-anchor="middle" x="219.38" y="-42.75" font-family="Helvetica,sans-Serif" font-size="10.00">proto::lacte::ErrorFlags::set</text>
</a>
</g>
</g>
<!-- Node1&#45;&gt;Node2 -->
<g id="edge1_Node000001_Node000002" class="edge">
<title>Node1&#45;&gt;Node2</title>
<g id="a_edge1_Node000001_Node000002"><a xlink:title=" ">
<path fill="none" stroke="#63b8ff" d="M116.01,-34.43C123.78,-35.36 131.87,-36.32 139.95,-37.28"/>
<polygon fill="#63b8ff" stroke="#63b8ff" points="139.46,-40.75 149.81,-38.46 140.29,-33.8 139.46,-40.75"/>
</a>
</g>
</g>
<!-- Node4 -->
<g id="Node000004" class="node">
<title>Node4</title>
<g id="a_Node000004"><a xlink:href="../../d3/d81/namespaceproto_1_1lacte.html#a34226b80fd523b012a1977cb0bdea8d2" target="_top" xlink:title=" ">
<polygon fill="white" stroke="#666666" points="273.5,-19.25 165.25,-19.25 165.25,0 273.5,0 273.5,-19.25"/>
<text xml:space="preserve" text-anchor="middle" x="219.38" y="-5.75" font-family="Helvetica,sans-Serif" font-size="10.00">proto::lacte::to_string</text>
</a>
</g>
</g>
<!-- Node1&#45;&gt;Node4 -->
<g id="edge3_Node000001_Node000004" class="edge">
<title>Node1&#45;&gt;Node4</title>
<g id="a_edge3_Node000001_Node000004"><a xlink:title=" ">
<path fill="none" stroke="#63b8ff" d="M116.01,-21.18C128.19,-19.8 141.14,-18.34 153.58,-16.94"/>
<polygon fill="#63b8ff" stroke="#63b8ff" points="153.79,-20.44 163.33,-15.84 153,-13.48 153.79,-20.44"/>
</a>
</g>
</g>
<!-- Node3 -->
<g id="Node000003" class="node">
<title>Node3</title>
<g id="a_Node000003"><a xlink:href="../../d3/d81/namespaceproto_1_1lacte.html#a99c9dae032d5ed58f9ff6e24ed0da8e0" target="_top" xlink:title=" ">
<polygon fill="white" stroke="#666666" points="417.75,-56.25 323,-56.25 323,-37 417.75,-37 417.75,-56.25"/>
<text xml:space="preserve" text-anchor="middle" x="370.38" y="-42.75" font-family="Helvetica,sans-Serif" font-size="10.00">proto::lacte::mask</text>
</a>
</g>
</g>
<!-- Node2&#45;&gt;Node3 -->
<g id="edge2_Node000002_Node000003" class="edge">
<title>Node2&#45;&gt;Node3</title>
<g id="a_edge2_Node000002_Node000003"><a xlink:title=" ">
<path fill="none" stroke="#63b8ff" d="M287.47,-46.62C295.46,-46.62 303.56,-46.62 311.41,-46.62"/>
<polygon fill="#63b8ff" stroke="#63b8ff" points="311.17,-50.13 321.17,-46.63 311.17,-43.13 311.17,-50.13"/>
</a>
</g>
</g>
</g>
</svg>
