<?xml version="1.0" encoding="UTF-8" standalone="no"?>
<!DOCTYPE svg PUBLIC "-//W3C//DTD SVG 1.1//EN"
 "http://www.w3.org/Graphics/SVG/1.1/DTD/svg11.dtd">
<!-- Generated by graphviz version 2.43.0 (0)
 -->
<!-- Title: proto::FieldContainer&lt; Fields, TCrc &gt; Pages: 1 -->
<svg width="344pt" height="560pt"
 viewBox="0.00 0.00 344.00 560.00" xmlns="http://www.w3.org/2000/svg" xmlns:xlink="http://www.w3.org/1999/xlink">
<g id="graph0" class="graph" transform="scale(1 1) rotate(0) translate(4 556)">
<title>proto::FieldContainer&lt; Fields, TCrc &gt;</title>
<!-- Node1 -->
<g id="Node000001" class="node">
<title>Node1</title>
<g id="a_Node000001"><a xlink:title="Generic container for protocol fields with CRC and debug support.">
<polygon fill="#999999" stroke="#666666" points="119,-271 0,-271 0,-241 119,-241 119,-271"/>
<text text-anchor="start" x="8" y="-259" font-family="Helvetica,sans-Serif" font-size="10.00">proto::FieldContainer</text>
<text text-anchor="middle" x="59.5" y="-248" font-family="Helvetica,sans-Serif" font-size="10.00">&lt; Fields, TCrc &gt;</text>
</a>
</g>
</g>
<!-- Node2 -->
<g id="Node000002" class="node">
<title>Node2</title>
<g id="a_Node000002"><a xlink:href="../../d0/d29/classproto_1_1RxContainer.html" target="_top" xlink:title=" ">
<polygon fill="white" stroke="#666666" points="311,-552 180,-552 180,-500 311,-500 311,-552"/>
<text text-anchor="start" x="188" y="-540" font-family="Helvetica,sans-Serif" font-size="10.00">proto::RxContainer</text>
<text text-anchor="start" x="188" y="-529" font-family="Helvetica,sans-Serif" font-size="10.00">&lt; exoAtlantPacket&lt; RX</text>
<text text-anchor="start" x="188" y="-518" font-family="Helvetica,sans-Serif" font-size="10.00">_BASE &gt;::packet_fields,</text>
<text text-anchor="middle" x="245.5" y="-507" font-family="Helvetica,sans-Serif" font-size="10.00"> custom_crc &gt;</text>
</a>
</g>
</g>
<!-- Node1&#45;&gt;Node2 -->
<g id="edge1_Node000001_Node000002" class="edge">
<title>Node1&#45;&gt;Node2</title>
<g id="a_edge1_Node000001_Node000002"><a xlink:title=" ">
<path fill="none" stroke="#63b8ff" d="M63.96,-281.2C71.73,-328.57 94.86,-431.43 155,-491 162.11,-498.04 170.81,-503.71 179.95,-508.25"/>
<polygon fill="#63b8ff" stroke="#63b8ff" points="67.4,-280.54 62.41,-271.19 60.48,-281.61 67.4,-280.54"/>
</a>
</g>
</g>
<!-- Node3 -->
<g id="Node000003" class="node">
<title>Node3</title>
<g id="a_Node000003"><a xlink:href="../../d0/d29/classproto_1_1RxContainer.html" target="_top" xlink:title=" ">
<polygon fill="white" stroke="#666666" points="336,-481.5 155,-481.5 155,-440.5 336,-440.5 336,-481.5"/>
<text text-anchor="start" x="163" y="-469.5" font-family="Helvetica,sans-Serif" font-size="10.00">proto::RxContainer</text>
<text text-anchor="start" x="163" y="-458.5" font-family="Helvetica,sans-Serif" font-size="10.00">&lt; HostPacket&lt; RX_BASE</text>
<text text-anchor="middle" x="245.5" y="-447.5" font-family="Helvetica,sans-Serif" font-size="10.00"> &gt;::packet_fields, Crc16Modbus &gt;</text>
</a>
</g>
</g>
<!-- Node1&#45;&gt;Node3 -->
<g id="edge2_Node000001_Node000003" class="edge">
<title>Node1&#45;&gt;Node3</title>
<g id="a_edge2_Node000001_Node000003"><a xlink:title=" ">
<path fill="none" stroke="#63b8ff" d="M67.32,-280.97C78.98,-319.01 106.33,-391.36 155,-432 158.76,-435.14 162.87,-437.94 167.19,-440.44"/>
<polygon fill="#63b8ff" stroke="#63b8ff" points="70.63,-279.8 64.44,-271.2 63.91,-281.78 70.63,-279.8"/>
</a>
</g>
</g>
<!-- Node4 -->
<g id="Node000004" class="node">
<title>Node4</title>
<g id="a_Node000004"><a xlink:href="../../d0/d29/classproto_1_1RxContainer.html" target="_top" xlink:title=" ">
<polygon fill="white" stroke="#666666" points="336,-422.5 155,-422.5 155,-381.5 336,-381.5 336,-422.5"/>
<text text-anchor="start" x="163" y="-410.5" font-family="Helvetica,sans-Serif" font-size="10.00">proto::RxContainer</text>
<text text-anchor="start" x="163" y="-399.5" font-family="Helvetica,sans-Serif" font-size="10.00">&lt; BoardPacket&lt; RX_BASE</text>
<text text-anchor="middle" x="245.5" y="-388.5" font-family="Helvetica,sans-Serif" font-size="10.00"> &gt;::packet_fields, Crc16Modbus &gt;</text>
</a>
</g>
</g>
<!-- Node1&#45;&gt;Node4 -->
<g id="edge3_Node000001_Node000004" class="edge">
<title>Node1&#45;&gt;Node4</title>
<g id="a_edge3_Node000001_Node000004"><a xlink:title=" ">
<path fill="none" stroke="#63b8ff" d="M74.28,-280C90.45,-306.15 119.61,-347.52 155,-372 160.12,-375.54 165.69,-378.7 171.47,-381.5"/>
<polygon fill="#63b8ff" stroke="#63b8ff" points="77.08,-277.87 68.92,-271.11 71.09,-281.48 77.08,-277.87"/>
</a>
</g>
</g>
<!-- Node5 -->
<g id="Node000005" class="node">
<title>Node5</title>
<g id="a_Node000005"><a xlink:href="../../d0/d29/classproto_1_1RxContainer.html" target="_top" xlink:title=" ">
<polygon fill="white" stroke="#666666" points="306,-363 185,-363 185,-333 306,-333 306,-363"/>
<text text-anchor="start" x="193" y="-351" font-family="Helvetica,sans-Serif" font-size="10.00">proto::RxContainer</text>
<text text-anchor="middle" x="245.5" y="-340" font-family="Helvetica,sans-Serif" font-size="10.00">&lt; RxFields, CrcSoft &gt;</text>
</a>
</g>
</g>
<!-- Node1&#45;&gt;Node5 -->
<g id="edge4_Node000001_Node000005" class="edge">
<title>Node1&#45;&gt;Node5</title>
<g id="a_edge4_Node000001_Node000005"><a xlink:title=" ">
<path fill="none" stroke="#63b8ff" d="M85.19,-277.61C103.39,-292.54 129.34,-311.83 155,-324 164.3,-328.41 174.55,-332.12 184.68,-335.2"/>
<polygon fill="#63b8ff" stroke="#63b8ff" points="87.32,-274.83 77.4,-271.1 82.83,-280.2 87.32,-274.83"/>
</a>
</g>
</g>
<!-- Node6 -->
<g id="Node000006" class="node">
<title>Node6</title>
<g id="a_Node000006"><a xlink:href="../../d4/dd2/classproto_1_1TxContainer.html" target="_top" xlink:title=" ">
<polygon fill="white" stroke="#666666" points="311,-315 180,-315 180,-263 311,-263 311,-315"/>
<text text-anchor="start" x="188" y="-303" font-family="Helvetica,sans-Serif" font-size="10.00">proto::TxContainer</text>
<text text-anchor="start" x="188" y="-292" font-family="Helvetica,sans-Serif" font-size="10.00">&lt; exoAtlantPacket&lt; TX</text>
<text text-anchor="start" x="188" y="-281" font-family="Helvetica,sans-Serif" font-size="10.00">_BASE &gt;::packet_fields,</text>
<text text-anchor="middle" x="245.5" y="-270" font-family="Helvetica,sans-Serif" font-size="10.00"> custom_crc &gt;</text>
</a>
</g>
</g>
<!-- Node1&#45;&gt;Node6 -->
<g id="edge5_Node000001_Node000006" class="edge">
<title>Node1&#45;&gt;Node6</title>
<g id="a_edge5_Node000001_Node000006"><a xlink:title=" ">
<path fill="none" stroke="#63b8ff" d="M129.38,-268.35C145.95,-271.33 163.6,-274.49 179.96,-277.42"/>
<polygon fill="#63b8ff" stroke="#63b8ff" points="129.69,-264.85 119.22,-266.53 128.45,-271.74 129.69,-264.85"/>
</a>
</g>
</g>
<!-- Node7 -->
<g id="Node000007" class="node">
<title>Node7</title>
<g id="a_Node000007"><a xlink:href="../../d4/dd2/classproto_1_1TxContainer.html" target="_top" xlink:title=" ">
<polygon fill="white" stroke="#666666" points="336,-244.5 155,-244.5 155,-203.5 336,-203.5 336,-244.5"/>
<text text-anchor="start" x="163" y="-232.5" font-family="Helvetica,sans-Serif" font-size="10.00">proto::TxContainer</text>
<text text-anchor="start" x="163" y="-221.5" font-family="Helvetica,sans-Serif" font-size="10.00">&lt; BoardPacket&lt; TX_BASE</text>
<text text-anchor="middle" x="245.5" y="-210.5" font-family="Helvetica,sans-Serif" font-size="10.00"> &gt;::packet_fields, Crc16Modbus &gt;</text>
</a>
</g>
</g>
<!-- Node1&#45;&gt;Node7 -->
<g id="edge6_Node000001_Node000007" class="edge">
<title>Node1&#45;&gt;Node7</title>
<g id="a_edge6_Node000001_Node000007"><a xlink:title=" ">
<path fill="none" stroke="#63b8ff" d="M129.25,-244.04C137.6,-242.59 146.22,-241.09 154.81,-239.6"/>
<polygon fill="#63b8ff" stroke="#63b8ff" points="128.48,-240.63 119.22,-245.79 129.68,-247.52 128.48,-240.63"/>
</a>
</g>
</g>
<!-- Node8 -->
<g id="Node000008" class="node">
<title>Node8</title>
<g id="a_Node000008"><a xlink:href="../../d4/dd2/classproto_1_1TxContainer.html" target="_top" xlink:title=" ">
<polygon fill="white" stroke="#666666" points="336,-185.5 155,-185.5 155,-144.5 336,-144.5 336,-185.5"/>
<text text-anchor="start" x="163" y="-173.5" font-family="Helvetica,sans-Serif" font-size="10.00">proto::TxContainer</text>
<text text-anchor="start" x="163" y="-162.5" font-family="Helvetica,sans-Serif" font-size="10.00">&lt; HostPacket&lt; TX_BASE</text>
<text text-anchor="middle" x="245.5" y="-151.5" font-family="Helvetica,sans-Serif" font-size="10.00"> &gt;::packet_fields, Crc16Modbus &gt;</text>
</a>
</g>
</g>
<!-- Node1&#45;&gt;Node8 -->
<g id="edge7_Node000001_Node000008" class="edge">
<title>Node1&#45;&gt;Node8</title>
<g id="a_edge7_Node000001_Node000008"><a xlink:title=" ">
<path fill="none" stroke="#63b8ff" d="M89.04,-234.89C107.25,-222.12 131.71,-206.2 155,-195 161.94,-191.66 169.35,-188.54 176.82,-185.66"/>
<polygon fill="#63b8ff" stroke="#63b8ff" points="86.76,-232.22 80.64,-240.87 90.82,-237.92 86.76,-232.22"/>
</a>
</g>
</g>
<!-- Node9 -->
<g id="Node000009" class="node">
<title>Node9</title>
<g id="a_Node000009"><a xlink:href="../../d4/dd2/classproto_1_1TxContainer.html" target="_top" xlink:title=" ">
<polygon fill="white" stroke="#666666" points="305.5,-126 185.5,-126 185.5,-96 305.5,-96 305.5,-126"/>
<text text-anchor="start" x="193.5" y="-114" font-family="Helvetica,sans-Serif" font-size="10.00">proto::TxContainer</text>
<text text-anchor="middle" x="245.5" y="-103" font-family="Helvetica,sans-Serif" font-size="10.00">&lt; TxFields, CrcSoft &gt;</text>
</a>
</g>
</g>
<!-- Node1&#45;&gt;Node9 -->
<g id="edge8_Node000001_Node000009" class="edge">
<title>Node1&#45;&gt;Node9</title>
<g id="a_edge8_Node000001_Node000009"><a xlink:title=" ">
<path fill="none" stroke="#63b8ff" d="M73.13,-232.05C88.76,-204.76 117.9,-160.74 155,-136 164.13,-129.91 174.72,-125.3 185.36,-121.8"/>
<polygon fill="#63b8ff" stroke="#63b8ff" points="69.99,-230.51 68.18,-240.95 76.1,-233.92 69.99,-230.51"/>
</a>
</g>
</g>
<!-- Node10 -->
<g id="Node000010" class="node">
<title>Node10</title>
<g id="a_Node000010"><a xlink:href="../../d0/d29/classproto_1_1RxContainer.html" target="_top" xlink:title="Incremental parser for protocol frames based on field prototypes.">
<polygon fill="white" stroke="#666666" points="299.5,-78 191.5,-78 191.5,-48 299.5,-48 299.5,-78"/>
<text text-anchor="start" x="199.5" y="-66" font-family="Helvetica,sans-Serif" font-size="10.00">proto::RxContainer</text>
<text text-anchor="middle" x="245.5" y="-55" font-family="Helvetica,sans-Serif" font-size="10.00">&lt; Fields, TCrc &gt;</text>
</a>
</g>
</g>
<!-- Node1&#45;&gt;Node10 -->
<g id="edge9_Node000001_Node000010" class="edge">
<title>Node1&#45;&gt;Node10</title>
<g id="a_edge9_Node000001_Node000010"><a xlink:title=" ">
<path fill="none" stroke="#63b8ff" d="M67.6,-230.96C79.45,-193.82 106.84,-124.49 155,-87 165.41,-78.9 178.33,-73.52 191.09,-69.96"/>
<polygon fill="#63b8ff" stroke="#63b8ff" points="64.12,-230.37 64.54,-240.96 70.82,-232.42 64.12,-230.37"/>
</a>
</g>
</g>
<!-- Node11 -->
<g id="Node000011" class="node">
<title>Node11</title>
<g id="a_Node000011"><a xlink:href="../../d4/dd2/classproto_1_1TxContainer.html" target="_top" xlink:title=" ">
<polygon fill="white" stroke="#666666" points="299,-30 192,-30 192,0 299,0 299,-30"/>
<text text-anchor="start" x="200" y="-18" font-family="Helvetica,sans-Serif" font-size="10.00">proto::TxContainer</text>
<text text-anchor="middle" x="245.5" y="-7" font-family="Helvetica,sans-Serif" font-size="10.00">&lt; Fields, TCrc &gt;</text>
</a>
</g>
</g>
<!-- Node1&#45;&gt;Node11 -->
<g id="edge10_Node000001_Node000011" class="edge">
<title>Node1&#45;&gt;Node11</title>
<g id="a_edge10_Node000001_Node000011"><a xlink:title=" ">
<path fill="none" stroke="#63b8ff" d="M64.22,-230.84C72.27,-185.52 95.62,-90.14 155,-39 165.36,-30.08 178.71,-24.43 191.92,-20.87"/>
<polygon fill="#63b8ff" stroke="#63b8ff" points="60.76,-230.28 62.57,-240.72 67.67,-231.44 60.76,-230.28"/>
</a>
</g>
</g>
</g>
</svg>
