<?xml version="1.0" encoding="UTF-8" standalone="no"?>
<!DOCTYPE svg PUBLIC "-//W3C//DTD SVG 1.1//EN"
 "http://www.w3.org/Graphics/SVG/1.1/DTD/svg11.dtd">
<!-- Generated by graphviz version 2.43.0 (0)
 -->
<!-- Title: FieldContainer.hpp Pages: 1 -->
<svg width="973pt" height="258pt"
 viewBox="0.00 0.00 972.94 258.00" xmlns="http://www.w3.org/2000/svg" xmlns:xlink="http://www.w3.org/1999/xlink">
<g id="graph0" class="graph" transform="scale(1 1) rotate(0) translate(4 254)">
<title>FieldContainer.hpp</title>
<!-- Node1 -->
<g id="Node000001" class="node">
<title>Node1</title>
<g id="a_Node000001"><a xlink:title="Defines the FieldContainer class template, a generic container for protocol fields.">
<polygon fill="#999999" stroke="#666666" points="220.44,-250 113.44,-250 113.44,-231 220.44,-231 220.44,-250"/>
<text text-anchor="middle" x="166.94" y="-238" font-family="Helvetica,sans-Serif" font-size="10.00">FieldContainer.hpp</text>
</a>
</g>
</g>
<!-- Node2 -->
<g id="Node000002" class="node">
<title>Node2</title>
<g id="a_Node000002"><a xlink:title=" ">
<polygon fill="#e0e0e0" stroke="#999999" points="42.44,-74 1.44,-74 1.44,-55 42.44,-55 42.44,-74"/>
<text text-anchor="middle" x="21.94" y="-62" font-family="Helvetica,sans-Serif" font-size="10.00">tuple</text>
</a>
</g>
</g>
<!-- Node1&#45;&gt;Node2 -->
<g id="edge1_Node000001_Node000002" class="edge">
<title>Node1&#45;&gt;Node2</title>
<g id="a_edge1_Node000001_Node000002"><a xlink:title=" ">
<path fill="none" stroke="#63b8ff" d="M113.58,-230.94C74.45,-223.44 26.1,-211.21 13.94,-195 -10.65,-162.24 3.73,-110.67 14.12,-83.55"/>
<polygon fill="#63b8ff" stroke="#63b8ff" points="17.42,-84.73 17.95,-74.14 10.94,-82.09 17.42,-84.73"/>
</a>
</g>
</g>
<!-- Node3 -->
<g id="Node000003" class="node">
<title>Node3</title>
<g id="a_Node000003"><a xlink:title=" ">
<polygon fill="#e0e0e0" stroke="#999999" points="281.44,-74 212.44,-74 212.44,-55 281.44,-55 281.44,-74"/>
<text text-anchor="middle" x="246.94" y="-62" font-family="Helvetica,sans-Serif" font-size="10.00">type_traits</text>
</a>
</g>
</g>
<!-- Node1&#45;&gt;Node3 -->
<g id="edge2_Node000001_Node000003" class="edge">
<title>Node1&#45;&gt;Node3</title>
<g id="a_edge2_Node000001_Node000003"><a xlink:title=" ">
<path fill="none" stroke="#63b8ff" d="M113.41,-231.5C61.95,-221.49 -4.17,-201.12 23.94,-165 63.92,-113.62 107.5,-157.7 165.94,-129 190.84,-116.77 215.32,-96.02 230.74,-81.58"/>
<polygon fill="#63b8ff" stroke="#63b8ff" points="233.53,-83.75 238.32,-74.3 228.68,-78.71 233.53,-83.75"/>
</a>
</g>
</g>
<!-- Node4 -->
<g id="Node000004" class="node">
<title>Node4</title>
<g id="a_Node000004"><a xlink:title=" ">
<polygon fill="#e0e0e0" stroke="#999999" points="126.44,-189.5 33.44,-189.5 33.44,-170.5 126.44,-170.5 126.44,-189.5"/>
<text text-anchor="middle" x="79.94" y="-177.5" font-family="Helvetica,sans-Serif" font-size="10.00">unordered_map</text>
</a>
</g>
</g>
<!-- Node1&#45;&gt;Node4 -->
<g id="edge3_Node000001_Node000004" class="edge">
<title>Node1&#45;&gt;Node4</title>
<g id="a_edge3_Node000001_Node000004"><a xlink:title=" ">
<path fill="none" stroke="#63b8ff" d="M154.1,-230.87C140.22,-221.54 117.87,-206.51 101.33,-195.38"/>
<polygon fill="#63b8ff" stroke="#63b8ff" points="103.08,-192.34 92.83,-189.67 99.17,-198.15 103.08,-192.34"/>
</a>
</g>
</g>
<!-- Node5 -->
<g id="Node000005" class="node">
<title>Node5</title>
<g id="a_Node000005"><a xlink:title=" ">
<polygon fill="#e0e0e0" stroke="#999999" points="189.44,-189.5 144.44,-189.5 144.44,-170.5 189.44,-170.5 189.44,-189.5"/>
<text text-anchor="middle" x="166.94" y="-177.5" font-family="Helvetica,sans-Serif" font-size="10.00">utility</text>
</a>
</g>
</g>
<!-- Node1&#45;&gt;Node5 -->
<g id="edge4_Node000001_Node000005" class="edge">
<title>Node1&#45;&gt;Node5</title>
<g id="a_edge4_Node000001_Node000005"><a xlink:title=" ">
<path fill="none" stroke="#63b8ff" d="M166.94,-230.87C166.94,-222.75 166.94,-210.31 166.94,-199.89"/>
<polygon fill="#63b8ff" stroke="#63b8ff" points="170.44,-199.67 166.94,-189.67 163.44,-199.67 170.44,-199.67"/>
</a>
</g>
</g>
<!-- Node6 -->
<g id="Node000006" class="node">
<title>Node6</title>
<g id="a_Node000006"><a xlink:title=" ">
<polygon fill="#e0e0e0" stroke="#999999" points="317.94,-195 207.94,-195 207.94,-165 317.94,-165 317.94,-195"/>
<text text-anchor="start" x="215.94" y="-183" font-family="Helvetica,sans-Serif" font-size="10.00">libraries/crc/crcSoft</text>
<text text-anchor="middle" x="262.94" y="-172" font-family="Helvetica,sans-Serif" font-size="10.00">/CrcSoft.hpp</text>
</a>
</g>
</g>
<!-- Node1&#45;&gt;Node6 -->
<g id="edge5_Node000001_Node000006" class="edge">
<title>Node1&#45;&gt;Node6</title>
<g id="a_edge5_Node000001_Node000006"><a xlink:title=" ">
<path fill="none" stroke="#63b8ff" d="M181.1,-230.87C194.13,-222.93 213.92,-210.87 230.77,-200.6"/>
<polygon fill="#63b8ff" stroke="#63b8ff" points="233.06,-203.31 239.77,-195.11 229.41,-197.33 233.06,-203.31"/>
</a>
</g>
</g>
<!-- Node7 -->
<g id="Node000007" class="node">
<title>Node7</title>
<g id="a_Node000007"><a xlink:href="../../d7/d91/DataField_8hpp.html" target="_top" xlink:title="Variant DATA field that maps protocol IDs to payload types at compile time.">
<polygon fill="white" stroke="#666666" points="499.94,-189.5 335.94,-189.5 335.94,-170.5 499.94,-170.5 499.94,-189.5"/>
<text text-anchor="middle" x="417.94" y="-177.5" font-family="Helvetica,sans-Serif" font-size="10.00">prototypes/field/DataField.hpp</text>
</a>
</g>
</g>
<!-- Node1&#45;&gt;Node7 -->
<g id="edge6_Node000001_Node000007" class="edge">
<title>Node1&#45;&gt;Node7</title>
<g id="a_edge6_Node000001_Node000007"><a xlink:title=" ">
<path fill="none" stroke="#63b8ff" d="M203.43,-230.99C247.86,-220.64 322.95,-203.14 371.47,-191.83"/>
<polygon fill="#63b8ff" stroke="#63b8ff" points="372.45,-195.2 381.39,-189.52 370.86,-188.38 372.45,-195.2"/>
</a>
</g>
</g>
<!-- Node13 -->
<g id="Node000013" class="node">
<title>Node13</title>
<g id="a_Node000013"><a xlink:href="../../df/db6/FieldPrototype_8hpp.html" target="_top" xlink:title="FieldPrototype template for describing and handling protocol fields.">
<polygon fill="white" stroke="#666666" points="619.94,-129 431.94,-129 431.94,-110 619.94,-110 619.94,-129"/>
<text text-anchor="middle" x="525.94" y="-117" font-family="Helvetica,sans-Serif" font-size="10.00">prototypes/field/FieldPrototype.hpp</text>
</a>
</g>
</g>
<!-- Node1&#45;&gt;Node13 -->
<g id="edge32_Node000001_Node000013" class="edge">
<title>Node1&#45;&gt;Node13</title>
<g id="a_edge32_Node000001_Node000013"><a xlink:title=" ">
<path fill="none" stroke="#63b8ff" d="M220.77,-239.74C306.3,-238.96 467.79,-232.41 508.94,-195 524.17,-181.15 527.18,-156.71 527.19,-139.62"/>
<polygon fill="#63b8ff" stroke="#63b8ff" points="530.67,-139.05 526.83,-129.17 523.68,-139.29 530.67,-139.05"/>
</a>
</g>
</g>
<!-- Node7&#45;&gt;Node2 -->
<g id="edge8_Node000007_Node000002" class="edge">
<title>Node7&#45;&gt;Node2</title>
<g id="a_edge8_Node000007_Node000002"><a xlink:title=" ">
<path fill="none" stroke="#63b8ff" d="M364.08,-170.46C351.88,-168.6 338.97,-166.68 326.94,-165 263.5,-156.13 89.82,-170.4 40.94,-129 28.05,-118.09 23.69,-98.82 22.32,-84.36"/>
<polygon fill="#63b8ff" stroke="#63b8ff" points="25.8,-83.84 21.76,-74.04 18.81,-84.22 25.8,-83.84"/>
</a>
</g>
</g>
<!-- Node7&#45;&gt;Node3 -->
<g id="edge9_Node000007_Node000003" class="edge">
<title>Node7&#45;&gt;Node3</title>
<g id="a_edge9_Node000007_Node000003"><a xlink:title=" ">
<path fill="none" stroke="#63b8ff" d="M405.08,-170.47C375.99,-151.16 304.84,-103.93 268.73,-79.96"/>
<polygon fill="#63b8ff" stroke="#63b8ff" points="270.21,-76.74 259.94,-74.13 266.33,-82.58 270.21,-76.74"/>
</a>
</g>
</g>
<!-- Node8 -->
<g id="Node000008" class="node">
<title>Node8</title>
<g id="a_Node000008"><a xlink:title=" ">
<polygon fill="#e0e0e0" stroke="#999999" points="416.94,-74 366.94,-74 366.94,-55 416.94,-55 416.94,-74"/>
<text text-anchor="middle" x="391.94" y="-62" font-family="Helvetica,sans-Serif" font-size="10.00">cstring</text>
</a>
</g>
</g>
<!-- Node7&#45;&gt;Node8 -->
<g id="edge7_Node000007_Node000008" class="edge">
<title>Node7&#45;&gt;Node8</title>
<g id="a_edge7_Node000007_Node000008"><a xlink:title=" ">
<path fill="none" stroke="#63b8ff" d="M415.98,-170.47C411.8,-152.23 401.92,-109.07 396.21,-84.14"/>
<polygon fill="#63b8ff" stroke="#63b8ff" points="399.56,-83.1 393.91,-74.13 392.73,-84.66 399.56,-83.1"/>
</a>
</g>
</g>
<!-- Node9 -->
<g id="Node000009" class="node">
<title>Node9</title>
<g id="a_Node000009"><a xlink:title=" ">
<polygon fill="#e0e0e0" stroke="#999999" points="348.44,-74 301.44,-74 301.44,-55 348.44,-55 348.44,-74"/>
<text text-anchor="middle" x="324.94" y="-62" font-family="Helvetica,sans-Serif" font-size="10.00">vector</text>
</a>
</g>
</g>
<!-- Node7&#45;&gt;Node9 -->
<g id="edge10_Node000007_Node000009" class="edge">
<title>Node7&#45;&gt;Node9</title>
<g id="a_edge10_Node000007_Node000009"><a xlink:title=" ">
<path fill="none" stroke="#63b8ff" d="M410.95,-170.47C395.6,-151.74 358.71,-106.72 338.59,-82.16"/>
<polygon fill="#63b8ff" stroke="#63b8ff" points="341.05,-79.65 332.01,-74.13 335.64,-84.08 341.05,-79.65"/>
</a>
</g>
</g>
<!-- Node10 -->
<g id="Node000010" class="node">
<title>Node10</title>
<g id="a_Node000010"><a xlink:href="../../d7/d38/UniqueVariant_8hpp.html" target="_top" xlink:title=" ">
<polygon fill="white" stroke="#666666" points="157.44,-129 50.44,-129 50.44,-110 157.44,-110 157.44,-129"/>
<text text-anchor="middle" x="103.94" y="-117" font-family="Helvetica,sans-Serif" font-size="10.00">UniqueVariant.hpp</text>
</a>
</g>
</g>
<!-- Node7&#45;&gt;Node10 -->
<g id="edge11_Node000007_Node000010" class="edge">
<title>Node7&#45;&gt;Node10</title>
<g id="a_edge11_Node000007_Node000010"><a xlink:title=" ">
<path fill="none" stroke="#63b8ff" d="M372.28,-170.49C316,-160.01 220.4,-142.2 159.8,-130.91"/>
<polygon fill="#63b8ff" stroke="#63b8ff" points="160.12,-127.41 149.65,-129.02 158.84,-134.29 160.12,-127.41"/>
</a>
</g>
</g>
<!-- Node7&#45;&gt;Node13 -->
<g id="edge17_Node000007_Node000013" class="edge">
<title>Node7&#45;&gt;Node13</title>
<g id="a_edge17_Node000007_Node000013"><a xlink:title=" ">
<path fill="none" stroke="#63b8ff" d="M433.87,-170.37C451.58,-160.78 480.4,-145.17 501.08,-133.97"/>
<polygon fill="#63b8ff" stroke="#63b8ff" points="502.81,-137.01 509.94,-129.17 499.48,-130.85 502.81,-137.01"/>
</a>
</g>
</g>
<!-- Node10&#45;&gt;Node2 -->
<g id="edge13_Node000010_Node000002" class="edge">
<title>Node10&#45;&gt;Node2</title>
<g id="a_edge13_Node000010_Node000002"><a xlink:title=" ">
<path fill="none" stroke="#63b8ff" d="M90.76,-109.98C78.16,-101.84 58.93,-89.41 44,-79.76"/>
<polygon fill="#63b8ff" stroke="#63b8ff" points="45.65,-76.66 35.35,-74.17 41.85,-82.54 45.65,-76.66"/>
</a>
</g>
</g>
<!-- Node10&#45;&gt;Node3 -->
<g id="edge14_Node000010_Node000003" class="edge">
<title>Node10&#45;&gt;Node3</title>
<g id="a_edge14_Node000010_Node000003"><a xlink:title=" ">
<path fill="none" stroke="#63b8ff" d="M126.91,-109.98C150.43,-101.27 187.22,-87.63 213.87,-77.75"/>
<polygon fill="#63b8ff" stroke="#63b8ff" points="215.38,-80.93 223.54,-74.17 212.95,-74.36 215.38,-80.93"/>
</a>
</g>
</g>
<!-- Node10&#45;&gt;Node9 -->
<g id="edge16_Node000010_Node000009" class="edge">
<title>Node10&#45;&gt;Node9</title>
<g id="a_edge16_Node000010_Node000009"><a xlink:title=" ">
<path fill="none" stroke="#63b8ff" d="M139.95,-109.92C177.43,-100.99 237.81,-86.57 289.94,-74 290.39,-73.89 290.85,-73.78 291.31,-73.67"/>
<polygon fill="#63b8ff" stroke="#63b8ff" points="292.32,-77.03 301.22,-71.27 290.67,-70.22 292.32,-77.03"/>
</a>
</g>
</g>
<!-- Node11 -->
<g id="Node000011" class="node">
<title>Node11</title>
<g id="a_Node000011"><a xlink:title=" ">
<polygon fill="#e0e0e0" stroke="#999999" points="121.44,-74 68.44,-74 68.44,-55 121.44,-55 121.44,-74"/>
<text text-anchor="middle" x="94.94" y="-62" font-family="Helvetica,sans-Serif" font-size="10.00">cstddef</text>
</a>
</g>
</g>
<!-- Node10&#45;&gt;Node11 -->
<g id="edge12_Node000010_Node000011" class="edge">
<title>Node10&#45;&gt;Node11</title>
<g id="a_edge12_Node000010_Node000011"><a xlink:title=" ">
<path fill="none" stroke="#63b8ff" d="M102.45,-109.75C101.27,-102.8 99.58,-92.85 98.1,-84.13"/>
<polygon fill="#63b8ff" stroke="#63b8ff" points="101.52,-83.36 96.39,-74.09 94.62,-84.53 101.52,-83.36"/>
</a>
</g>
</g>
<!-- Node12 -->
<g id="Node000012" class="node">
<title>Node12</title>
<g id="a_Node000012"><a xlink:title=" ">
<polygon fill="#e0e0e0" stroke="#999999" points="190.44,-74 139.44,-74 139.44,-55 190.44,-55 190.44,-74"/>
<text text-anchor="middle" x="164.94" y="-62" font-family="Helvetica,sans-Serif" font-size="10.00">variant</text>
</a>
</g>
</g>
<!-- Node10&#45;&gt;Node12 -->
<g id="edge15_Node000010_Node000012" class="edge">
<title>Node10&#45;&gt;Node12</title>
<g id="a_edge15_Node000010_Node000012"><a xlink:title=" ">
<path fill="none" stroke="#63b8ff" d="M113.74,-109.98C122.75,-102.15 136.34,-90.34 147.25,-80.86"/>
<polygon fill="#63b8ff" stroke="#63b8ff" points="149.7,-83.37 154.96,-74.17 145.11,-78.09 149.7,-83.37"/>
</a>
</g>
</g>
<!-- Node13&#45;&gt;Node3 -->
<g id="edge25_Node000013_Node000003" class="edge">
<title>Node13&#45;&gt;Node3</title>
<g id="a_edge25_Node000013_Node000003"><a xlink:title=" ">
<path fill="none" stroke="#63b8ff" d="M481.11,-109.98C428.98,-100.08 343.45,-83.83 291.45,-73.96"/>
<polygon fill="#63b8ff" stroke="#63b8ff" points="291.99,-70.5 281.52,-72.07 290.69,-77.37 291.99,-70.5"/>
</a>
</g>
</g>
<!-- Node13&#45;&gt;Node8 -->
<g id="edge19_Node000013_Node000008" class="edge">
<title>Node13&#45;&gt;Node8</title>
<g id="a_edge19_Node000013_Node000008"><a xlink:title=" ">
<path fill="none" stroke="#63b8ff" d="M504.41,-109.98C482.46,-101.3 448.19,-87.75 423.25,-77.88"/>
<polygon fill="#63b8ff" stroke="#63b8ff" points="424.44,-74.59 413.86,-74.17 421.87,-81.1 424.44,-74.59"/>
</a>
</g>
</g>
<!-- Node13&#45;&gt;Node9 -->
<g id="edge26_Node000013_Node000009" class="edge">
<title>Node13&#45;&gt;Node9</title>
<g id="a_edge26_Node000013_Node000009"><a xlink:title=" ">
<path fill="none" stroke="#63b8ff" d="M493.64,-109.98C456.62,-100.22 396.21,-84.29 358.61,-74.38"/>
<polygon fill="#63b8ff" stroke="#63b8ff" points="359.22,-70.92 348.65,-71.75 357.43,-77.69 359.22,-70.92"/>
</a>
</g>
</g>
<!-- Node14 -->
<g id="Node000014" class="node">
<title>Node14</title>
<g id="a_Node000014"><a xlink:title=" ">
<polygon fill="#e0e0e0" stroke="#999999" points="826.94,-19 776.94,-19 776.94,0 826.94,0 826.94,-19"/>
<text text-anchor="middle" x="801.94" y="-7" font-family="Helvetica,sans-Serif" font-size="10.00">cstdint</text>
</a>
</g>
</g>
<!-- Node13&#45;&gt;Node14 -->
<g id="edge18_Node000013_Node000014" class="edge">
<title>Node13&#45;&gt;Node14</title>
<g id="a_edge18_Node000013_Node000014"><a xlink:title=" ">
<path fill="none" stroke="#63b8ff" d="M620.04,-112.88C683.94,-107.14 761.01,-95.83 784.94,-74 797.18,-62.83 801,-43.91 802.02,-29.62"/>
<polygon fill="#63b8ff" stroke="#63b8ff" points="805.52,-29.49 802.34,-19.38 798.53,-29.27 805.52,-29.49"/>
</a>
</g>
</g>
<!-- Node15 -->
<g id="Node000015" class="node">
<title>Node15</title>
<g id="a_Node000015"><a xlink:title=" ">
<polygon fill="#e0e0e0" stroke="#999999" points="886.94,-74 830.94,-74 830.94,-55 886.94,-55 886.94,-74"/>
<text text-anchor="middle" x="858.94" y="-62" font-family="Helvetica,sans-Serif" font-size="10.00">iomanip</text>
</a>
</g>
</g>
<!-- Node13&#45;&gt;Node15 -->
<g id="edge20_Node000013_Node000015" class="edge">
<title>Node13&#45;&gt;Node15</title>
<g id="a_edge20_Node000013_Node000015"><a xlink:title=" ">
<path fill="none" stroke="#63b8ff" d="M587.39,-109.98C646.38,-101.59 737.93,-88.03 816.94,-74 818.04,-73.8 819.15,-73.6 820.27,-73.4"/>
<polygon fill="#63b8ff" stroke="#63b8ff" points="821.34,-76.76 830.51,-71.45 820.03,-69.88 821.34,-76.76"/>
</a>
</g>
</g>
<!-- Node16 -->
<g id="Node000016" class="node">
<title>Node16</title>
<g id="a_Node000016"><a xlink:title=" ">
<polygon fill="#e0e0e0" stroke="#999999" points="964.94,-74 904.94,-74 904.94,-55 964.94,-55 964.94,-74"/>
<text text-anchor="middle" x="934.94" y="-62" font-family="Helvetica,sans-Serif" font-size="10.00">iostream</text>
</a>
</g>
</g>
<!-- Node13&#45;&gt;Node16 -->
<g id="edge21_Node000013_Node000016" class="edge">
<title>Node13&#45;&gt;Node16</title>
<g id="a_edge21_Node000013_Node000016"><a xlink:title=" ">
<path fill="none" stroke="#63b8ff" d="M617.14,-109.97C689.82,-102.6 794.36,-90.75 894.74,-74.06"/>
<polygon fill="#63b8ff" stroke="#63b8ff" points="895.48,-77.48 904.76,-72.37 894.32,-70.58 895.48,-77.48"/>
</a>
</g>
</g>
<!-- Node17 -->
<g id="Node000017" class="node">
<title>Node17</title>
<g id="a_Node000017"><a xlink:title=" ">
<polygon fill="#e0e0e0" stroke="#999999" points="478.94,-74 434.94,-74 434.94,-55 478.94,-55 478.94,-74"/>
<text text-anchor="middle" x="456.94" y="-62" font-family="Helvetica,sans-Serif" font-size="10.00">limits</text>
</a>
</g>
</g>
<!-- Node13&#45;&gt;Node17 -->
<g id="edge22_Node000013_Node000017" class="edge">
<title>Node13&#45;&gt;Node17</title>
<g id="a_edge22_Node000013_Node000017"><a xlink:title=" ">
<path fill="none" stroke="#63b8ff" d="M514.85,-109.98C504.45,-102 488.68,-89.88 476.21,-80.31"/>
<polygon fill="#63b8ff" stroke="#63b8ff" points="478.29,-77.49 468.22,-74.17 474.02,-83.04 478.29,-77.49"/>
</a>
</g>
</g>
<!-- Node18 -->
<g id="Node000018" class="node">
<title>Node18</title>
<g id="a_Node000018"><a xlink:title=" ">
<polygon fill="#e0e0e0" stroke="#999999" points="552.94,-74 496.94,-74 496.94,-55 552.94,-55 552.94,-74"/>
<text text-anchor="middle" x="524.94" y="-62" font-family="Helvetica,sans-Serif" font-size="10.00">sstream</text>
</a>
</g>
</g>
<!-- Node13&#45;&gt;Node18 -->
<g id="edge23_Node000013_Node000018" class="edge">
<title>Node13&#45;&gt;Node18</title>
<g id="a_edge23_Node000013_Node000018"><a xlink:title=" ">
<path fill="none" stroke="#63b8ff" d="M525.77,-109.75C525.64,-102.8 525.45,-92.85 525.29,-84.13"/>
<polygon fill="#63b8ff" stroke="#63b8ff" points="528.79,-84.02 525.1,-74.09 521.79,-84.15 528.79,-84.02"/>
</a>
</g>
</g>
<!-- Node19 -->
<g id="Node000019" class="node">
<title>Node19</title>
<g id="a_Node000019"><a xlink:title=" ">
<polygon fill="#e0e0e0" stroke="#999999" points="620.44,-19 547.44,-19 547.44,0 620.44,0 620.44,-19"/>
<text text-anchor="middle" x="583.94" y="-7" font-family="Helvetica,sans-Serif" font-size="10.00">string_view</text>
</a>
</g>
</g>
<!-- Node13&#45;&gt;Node19 -->
<g id="edge24_Node000013_Node000019" class="edge">
<title>Node13&#45;&gt;Node19</title>
<g id="a_edge24_Node000013_Node000019"><a xlink:title=" ">
<path fill="none" stroke="#63b8ff" d="M534.37,-109.96C542.39,-101.46 554.31,-87.73 561.94,-74 569.9,-59.66 575.75,-41.91 579.41,-28.83"/>
<polygon fill="#63b8ff" stroke="#63b8ff" points="582.81,-29.67 581.97,-19.11 576.04,-27.89 582.81,-29.67"/>
</a>
</g>
</g>
<!-- Node20 -->
<g id="Node000020" class="node">
<title>Node20</title>
<g id="a_Node000020"><a xlink:href="../../d4/d9e/FieldFlags_8hpp.html" target="_top" xlink:title="Common enums and utilities for protocol field names and flags.">
<polygon fill="white" stroke="#666666" points="775.44,-74 608.44,-74 608.44,-55 775.44,-55 775.44,-74"/>
<text text-anchor="middle" x="691.94" y="-62" font-family="Helvetica,sans-Serif" font-size="10.00">prototypes/field/FieldFlags.hpp</text>
</a>
</g>
</g>
<!-- Node13&#45;&gt;Node20 -->
<g id="edge27_Node000013_Node000020" class="edge">
<title>Node13&#45;&gt;Node20</title>
<g id="a_edge27_Node000013_Node000020"><a xlink:title=" ">
<path fill="none" stroke="#63b8ff" d="M552.61,-109.98C580.48,-101.09 624.39,-87.07 655.46,-77.15"/>
<polygon fill="#63b8ff" stroke="#63b8ff" points="656.59,-80.46 665.06,-74.08 654.47,-73.79 656.59,-80.46"/>
</a>
</g>
</g>
<!-- Node20&#45;&gt;Node14 -->
<g id="edge29_Node000020_Node000014" class="edge">
<title>Node20&#45;&gt;Node14</title>
<g id="a_edge29_Node000020_Node000014"><a xlink:title=" ">
<path fill="none" stroke="#63b8ff" d="M709.61,-54.98C727.23,-46.5 754.51,-33.35 774.86,-23.54"/>
<polygon fill="#63b8ff" stroke="#63b8ff" points="776.45,-26.66 783.94,-19.17 773.41,-20.36 776.45,-26.66"/>
</a>
</g>
</g>
<!-- Node20&#45;&gt;Node19 -->
<g id="edge31_Node000020_Node000019" class="edge">
<title>Node20&#45;&gt;Node19</title>
<g id="a_edge31_Node000020_Node000019"><a xlink:title=" ">
<path fill="none" stroke="#63b8ff" d="M674.58,-54.98C657.37,-46.54 630.74,-33.47 610.79,-23.68"/>
<polygon fill="#63b8ff" stroke="#63b8ff" points="612.12,-20.43 601.6,-19.17 609.04,-26.72 612.12,-20.43"/>
</a>
</g>
</g>
<!-- Node21 -->
<g id="Node000021" class="node">
<title>Node21</title>
<g id="a_Node000021"><a xlink:title=" ">
<polygon fill="#e0e0e0" stroke="#999999" points="681.94,-19 639.94,-19 639.94,0 681.94,0 681.94,-19"/>
<text text-anchor="middle" x="660.94" y="-7" font-family="Helvetica,sans-Serif" font-size="10.00">array</text>
</a>
</g>
</g>
<!-- Node20&#45;&gt;Node21 -->
<g id="edge28_Node000020_Node000021" class="edge">
<title>Node20&#45;&gt;Node21</title>
<g id="a_edge28_Node000020_Node000021"><a xlink:title=" ">
<path fill="none" stroke="#63b8ff" d="M686.82,-54.75C682.57,-47.49 676.41,-36.95 671.16,-27.98"/>
<polygon fill="#63b8ff" stroke="#63b8ff" points="674.03,-25.95 665.96,-19.09 667.99,-29.49 674.03,-25.95"/>
</a>
</g>
</g>
<!-- Node22 -->
<g id="Node000022" class="node">
<title>Node22</title>
<g id="a_Node000022"><a xlink:title=" ">
<polygon fill="#e0e0e0" stroke="#999999" points="757.44,-19 700.44,-19 700.44,0 757.44,0 757.44,-19"/>
<text text-anchor="middle" x="728.94" y="-7" font-family="Helvetica,sans-Serif" font-size="10.00">ostream</text>
</a>
</g>
</g>
<!-- Node20&#45;&gt;Node22 -->
<g id="edge30_Node000020_Node000022" class="edge">
<title>Node20&#45;&gt;Node22</title>
<g id="a_edge30_Node000020_Node000022"><a xlink:title=" ">
<path fill="none" stroke="#63b8ff" d="M698.05,-54.75C703.22,-47.34 710.78,-36.5 717.13,-27.41"/>
<polygon fill="#63b8ff" stroke="#63b8ff" points="720.09,-29.29 722.94,-19.09 714.35,-25.29 720.09,-29.29"/>
</a>
</g>
</g>
</g>
</svg>
