<?xml version="1.0" encoding="UTF-8" standalone="no"?>
<!DOCTYPE svg PUBLIC "-//W3C//DTD SVG 1.1//EN"
 "http://www.w3.org/Graphics/SVG/1.1/DTD/svg11.dtd">
<!-- Generated by graphviz version 14.0.1 (20251006.0113)
 -->
<!-- Title: MachineSnType.hpp Pages: 1 -->
<svg width="458pt" height="138pt"
 viewBox="0.00 0.00 458.00 138.00" xmlns="http://www.w3.org/2000/svg" xmlns:xlink="http://www.w3.org/1999/xlink">
<g id="graph0" class="graph" transform="scale(1 1) rotate(0) translate(4 133.75)">
<title>MachineSnType.hpp</title>
<!-- Node1 -->
<g id="Node000001" class="node">
<title>Node1</title>
<g id="a_Node000001"><a xlink:title=" ">
<polygon fill="#999999" stroke="#666666" points="263.12,-129.75 158.62,-129.75 158.62,-110.5 263.12,-110.5 263.12,-129.75"/>
<text xml:space="preserve" text-anchor="middle" x="210.88" y="-116.25" font-family="Helvetica,sans-Serif" font-size="10.00">MachineSnType.hpp</text>
</a>
</g>
</g>
<!-- Node2 -->
<g id="Node000002" class="node">
<title>Node2</title>
<g id="a_Node000002"><a xlink:href="../../dd/d07/_helpers_8hpp.html" target="_top" xlink:title=" ">
<polygon fill="white" stroke="#666666" points="245.12,-74.5 176.62,-74.5 176.62,-55.25 245.12,-55.25 245.12,-74.5"/>
<text xml:space="preserve" text-anchor="middle" x="210.88" y="-61" font-family="Helvetica,sans-Serif" font-size="10.00">Helpers.hpp</text>
</a>
</g>
</g>
<!-- Node1&#45;&gt;Node2 -->
<g id="edge1_Node000001_Node000002" class="edge">
<title>Node1&#45;&gt;Node2</title>
<g id="a_edge1_Node000001_Node000002"><a xlink:title=" ">
<path fill="none" stroke="#63b8ff" d="M210.88,-110.33C210.88,-103.82 210.88,-94.67 210.88,-86.37"/>
<polygon fill="#63b8ff" stroke="#63b8ff" points="214.38,-86.37 210.88,-76.37 207.38,-86.37 214.38,-86.37"/>
</a>
</g>
</g>
<!-- Node3 -->
<g id="Node000003" class="node">
<title>Node3</title>
<g id="a_Node000003"><a xlink:title=" ">
<polygon fill="#e0e0e0" stroke="#999999" points="37.75,-19.25 0,-19.25 0,0 37.75,0 37.75,-19.25"/>
<text xml:space="preserve" text-anchor="middle" x="18.88" y="-5.75" font-family="Helvetica,sans-Serif" font-size="10.00">array</text>
</a>
</g>
</g>
<!-- Node2&#45;&gt;Node3 -->
<g id="edge2_Node000002_Node000003" class="edge">
<title>Node2&#45;&gt;Node3</title>
<g id="a_edge2_Node000002_Node000003"><a xlink:title=" ">
<path fill="none" stroke="#63b8ff" d="M176.23,-54.8C145.24,-46.61 98.34,-34.02 49.02,-19.8"/>
<polygon fill="#63b8ff" stroke="#63b8ff" points="50.16,-16.49 39.58,-17.07 48.21,-23.21 50.16,-16.49"/>
</a>
</g>
</g>
<!-- Node4 -->
<g id="Node000004" class="node">
<title>Node4</title>
<g id="a_Node000004"><a xlink:title=" ">
<polygon fill="#e0e0e0" stroke="#999999" points="104,-19.25 55.75,-19.25 55.75,0 104,0 104,-19.25"/>
<text xml:space="preserve" text-anchor="middle" x="79.88" y="-5.75" font-family="Helvetica,sans-Serif" font-size="10.00">cstddef</text>
</a>
</g>
</g>
<!-- Node2&#45;&gt;Node4 -->
<g id="edge3_Node000002_Node000004" class="edge">
<title>Node2&#45;&gt;Node4</title>
<g id="a_edge3_Node000002_Node000004"><a xlink:title=" ">
<path fill="none" stroke="#63b8ff" d="M188.65,-54.84C167.86,-46.39 136.53,-33.65 112.82,-24.02"/>
<polygon fill="#63b8ff" stroke="#63b8ff" points="114.19,-20.8 103.61,-20.27 111.55,-27.28 114.19,-20.8"/>
</a>
</g>
</g>
<!-- Node5 -->
<g id="Node000005" class="node">
<title>Node5</title>
<g id="a_Node000005"><a xlink:title=" ">
<polygon fill="#e0e0e0" stroke="#999999" points="167.5,-19.25 122.25,-19.25 122.25,0 167.5,0 167.5,-19.25"/>
<text xml:space="preserve" text-anchor="middle" x="144.88" y="-5.75" font-family="Helvetica,sans-Serif" font-size="10.00">cstdint</text>
</a>
</g>
</g>
<!-- Node2&#45;&gt;Node5 -->
<g id="edge4_Node000002_Node000005" class="edge">
<title>Node2&#45;&gt;Node5</title>
<g id="a_edge4_Node000002_Node000005"><a xlink:title=" ">
<path fill="none" stroke="#63b8ff" d="M199.68,-54.84C190.14,-47.15 176.2,-35.9 164.77,-26.68"/>
<polygon fill="#63b8ff" stroke="#63b8ff" points="167.06,-24.03 157.08,-20.48 162.67,-29.48 167.06,-24.03"/>
</a>
</g>
</g>
<!-- Node6 -->
<g id="Node000006" class="node">
<title>Node6</title>
<g id="a_Node000006"><a xlink:title=" ">
<polygon fill="#e0e0e0" stroke="#999999" points="235.75,-19.25 186,-19.25 186,0 235.75,0 235.75,-19.25"/>
<text xml:space="preserve" text-anchor="middle" x="210.88" y="-5.75" font-family="Helvetica,sans-Serif" font-size="10.00">iomanip</text>
</a>
</g>
</g>
<!-- Node2&#45;&gt;Node6 -->
<g id="edge5_Node000002_Node000006" class="edge">
<title>Node2&#45;&gt;Node6</title>
<g id="a_edge5_Node000002_Node000006"><a xlink:title=" ">
<path fill="none" stroke="#63b8ff" d="M210.88,-55.08C210.88,-48.57 210.88,-39.42 210.88,-31.12"/>
<polygon fill="#63b8ff" stroke="#63b8ff" points="214.38,-31.12 210.88,-21.12 207.38,-31.12 214.38,-31.12"/>
</a>
</g>
</g>
<!-- Node7 -->
<g id="Node000007" class="node">
<title>Node7</title>
<g id="a_Node000007"><a xlink:title=" ">
<polygon fill="#e0e0e0" stroke="#999999" points="307.62,-19.25 254.12,-19.25 254.12,0 307.62,0 307.62,-19.25"/>
<text xml:space="preserve" text-anchor="middle" x="280.88" y="-5.75" font-family="Helvetica,sans-Serif" font-size="10.00">iostream</text>
</a>
</g>
</g>
<!-- Node2&#45;&gt;Node7 -->
<g id="edge6_Node000002_Node000007" class="edge">
<title>Node2&#45;&gt;Node7</title>
<g id="a_edge6_Node000002_Node000007"><a xlink:title=" ">
<path fill="none" stroke="#63b8ff" d="M222.75,-54.84C232.97,-47.07 247.95,-35.67 260.14,-26.4"/>
<polygon fill="#63b8ff" stroke="#63b8ff" points="262.13,-29.28 267.97,-20.44 257.89,-23.71 262.13,-29.28"/>
</a>
</g>
</g>
<!-- Node8 -->
<g id="Node000008" class="node">
<title>Node8</title>
<g id="a_Node000008"><a xlink:title=" ">
<polygon fill="#e0e0e0" stroke="#999999" points="365.88,-19.25 325.88,-19.25 325.88,0 365.88,0 365.88,-19.25"/>
<text xml:space="preserve" text-anchor="middle" x="345.88" y="-5.75" font-family="Helvetica,sans-Serif" font-size="10.00">string</text>
</a>
</g>
</g>
<!-- Node2&#45;&gt;Node8 -->
<g id="edge7_Node000002_Node000008" class="edge">
<title>Node2&#45;&gt;Node8</title>
<g id="a_edge7_Node000002_Node000008"><a xlink:title=" ">
<path fill="none" stroke="#63b8ff" d="M233.78,-54.84C256.09,-46.04 290.16,-32.6 314.89,-22.85"/>
<polygon fill="#63b8ff" stroke="#63b8ff" points="316.09,-26.14 324.11,-19.21 313.52,-19.62 316.09,-26.14"/>
</a>
</g>
</g>
<!-- Node9 -->
<g id="Node000009" class="node">
<title>Node9</title>
<g id="a_Node000009"><a xlink:title=" ">
<polygon fill="#e0e0e0" stroke="#999999" points="449.62,-19.25 384.12,-19.25 384.12,0 449.62,0 449.62,-19.25"/>
<text xml:space="preserve" text-anchor="middle" x="416.88" y="-5.75" font-family="Helvetica,sans-Serif" font-size="10.00">string_view</text>
</a>
</g>
</g>
<!-- Node2&#45;&gt;Node9 -->
<g id="edge8_Node000002_Node000009" class="edge">
<title>Node2&#45;&gt;Node9</title>
<g id="a_edge8_Node000002_Node000009"><a xlink:title=" ">
<path fill="none" stroke="#63b8ff" d="M245.35,-54.96C280.38,-45.91 334.76,-31.85 372.87,-22"/>
<polygon fill="#63b8ff" stroke="#63b8ff" points="373.38,-25.48 382.18,-19.59 371.63,-18.71 373.38,-25.48"/>
</a>
</g>
</g>
</g>
</svg>
