<?xml version="1.0" encoding="UTF-8" standalone="no"?>
<!DOCTYPE svg PUBLIC "-//W3C//DTD SVG 1.1//EN"
 "http://www.w3.org/Graphics/SVG/1.1/DTD/svg11.dtd">
<!-- Generated by graphviz version 2.43.0 (0)
 -->
<!-- Title: proto::exoAtlant::custom_crc::calc Pages: 1 -->
<svg width="335pt" height="101pt"
 viewBox="0.00 0.00 335.00 101.00" xmlns="http://www.w3.org/2000/svg" xmlns:xlink="http://www.w3.org/1999/xlink">
<g id="graph0" class="graph" transform="scale(1 1) rotate(0) translate(4 97)">
<title>proto::exoAtlant::custom_crc::calc</title>
<!-- Node1 -->
<g id="Node000001" class="node">
<title>Node1</title>
<g id="a_Node000001"><a xlink:title=" ">
<polygon fill="#999999" stroke="#666666" points="137,-61.5 0,-61.5 0,-31.5 137,-31.5 137,-61.5"/>
<text text-anchor="start" x="8" y="-49.5" font-family="Helvetica,sans-Serif" font-size="10.00">proto::exoAtlant::custom</text>
<text text-anchor="middle" x="68.5" y="-38.5" font-family="Helvetica,sans-Serif" font-size="10.00">_crc::calc</text>
</a>
</g>
</g>
<!-- Node2 -->
<g id="Node000002" class="node">
<title>Node2</title>
<g id="a_Node000002"><a xlink:href="../../d2/d5a/namespaceproto_1_1exoAtlant.html#adaf4fbf582aa68e7aecc443ae131034d" target="_top" xlink:title=" ">
<polygon fill="white" stroke="#666666" points="327,-93 173,-93 173,-74 327,-74 327,-93"/>
<text text-anchor="middle" x="250" y="-81" font-family="Helvetica,sans-Serif" font-size="10.00">proto::exoAtlant::CRC32_get</text>
</a>
</g>
</g>
<!-- Node1&#45;&gt;Node2 -->
<g id="edge1_Node000001_Node000002" class="edge">
<title>Node1&#45;&gt;Node2</title>
<g id="a_edge1_Node000001_Node000002"><a xlink:title=" ">
<path fill="none" stroke="#63b8ff" d="M137.11,-60.44C155.38,-64.2 174.97,-68.24 192.56,-71.87"/>
<polygon fill="#63b8ff" stroke="#63b8ff" points="192.16,-75.36 202.66,-73.95 193.58,-68.5 192.16,-75.36"/>
</a>
</g>
</g>
<!-- Node3 -->
<g id="Node000003" class="node">
<title>Node3</title>
<g id="a_Node000003"><a xlink:href="../../d6/d58/classCustomSpan.html#aa94cafb45950ce4dbcf4e57f6c22615a" target="_top" xlink:title=" ">
<polygon fill="white" stroke="#666666" points="303,-56 197,-56 197,-37 303,-37 303,-56"/>
<text text-anchor="middle" x="250" y="-44" font-family="Helvetica,sans-Serif" font-size="10.00">CustomSpan::data</text>
</a>
</g>
</g>
<!-- Node1&#45;&gt;Node3 -->
<g id="edge2_Node000001_Node000003" class="edge">
<title>Node1&#45;&gt;Node3</title>
<g id="a_edge2_Node000001_Node000003"><a xlink:title=" ">
<path fill="none" stroke="#63b8ff" d="M137.11,-46.5C153.33,-46.5 170.58,-46.5 186.56,-46.5"/>
<polygon fill="#63b8ff" stroke="#63b8ff" points="186.85,-50 196.85,-46.5 186.85,-43 186.85,-50"/>
</a>
</g>
</g>
<!-- Node4 -->
<g id="Node000004" class="node">
<title>Node4</title>
<g id="a_Node000004"><a xlink:href="../../d6/d58/classCustomSpan.html#a7612ff42bfc672d97414e1e3ddc391b9" target="_top" xlink:title=" ">
<polygon fill="white" stroke="#666666" points="302,-19 198,-19 198,0 302,0 302,-19"/>
<text text-anchor="middle" x="250" y="-7" font-family="Helvetica,sans-Serif" font-size="10.00">CustomSpan::size</text>
</a>
</g>
</g>
<!-- Node1&#45;&gt;Node4 -->
<g id="edge3_Node000001_Node000004" class="edge">
<title>Node1&#45;&gt;Node4</title>
<g id="a_edge3_Node000001_Node000004"><a xlink:title=" ">
<path fill="none" stroke="#63b8ff" d="M137.11,-32.56C155.38,-28.8 174.97,-24.76 192.56,-21.13"/>
<polygon fill="#63b8ff" stroke="#63b8ff" points="193.58,-24.5 202.66,-19.05 192.16,-17.64 193.58,-24.5"/>
</a>
</g>
</g>
</g>
</svg>
