<?xml version="1.0" encoding="UTF-8" standalone="no"?>
<!DOCTYPE svg PUBLIC "-//W3C//DTD SVG 1.1//EN"
 "http://www.w3.org/Graphics/SVG/1.1/DTD/svg11.dtd">
<!-- Generated by graphviz version 14.0.1 (20251006.0113)
 -->
<!-- Title: proto::lacte::VirtualBoard::VirtualBoard Pages: 1 -->
<svg width="288pt" height="119pt"
 viewBox="0.00 0.00 288.00 119.00" xmlns="http://www.w3.org/2000/svg" xmlns:xlink="http://www.w3.org/1999/xlink">

<svg id="main" version="1.1" xmlns="http://www.w3.org/2000/svg" xmlns:xlink="http://www.w3.org/1999/xlink" xml:space="preserve">

<style type="text/css"><![CDATA[
.node, .edge {opacity: 0.7;}
.node.selected, .edge.selected {opacity: 1;}
.edge:hover path { stroke: red; }
.edge:hover polygon { stroke: red; fill: red; }
]]></style>
<script type="application/ecmascript" xlink:href="../../svg.min.js"/>
<svg id="graph" class="graph">
<g id="graph0" class="graph" transform="scale(1 1) rotate(0) translate(4 115.25)">
<title>proto::lacte::VirtualBoard::VirtualBoard</title>
<!-- Node1 -->
<g id="Node000001" class="node">
<title>Node1</title>
<g id="a_Node000001"><a xlink:title=" ">
<polygon fill="#999999" stroke="#666666" points="124,-61.88 0,-61.88 0,-31.38 124,-31.38 124,-61.88"/>
<text xml:space="preserve" text-anchor="start" x="8" y="-48.38" font-family="Helvetica,sans-Serif" font-size="10.00">proto::lacte::VirtualBoard</text>
<text xml:space="preserve" text-anchor="middle" x="62" y="-37.12" font-family="Helvetica,sans-Serif" font-size="10.00">::VirtualBoard</text>
</a>
</g>
</g>
<!-- Node2 -->
<g id="Node000002" class="node">
<title>Node2</title>
<g id="a_Node000002"><a xlink:href="../../d8/d30/class_custom_span.html#aa94cafb45950ce4dbcf4e57f6c22615a" target="_top" xlink:title=" ">
<polygon fill="white" stroke="#666666" points="268.62,-111.25 170.88,-111.25 170.88,-92 268.62,-92 268.62,-111.25"/>
<text xml:space="preserve" text-anchor="middle" x="219.75" y="-97.75" font-family="Helvetica,sans-Serif" font-size="10.00">CustomSpan::data</text>
</a>
</g>
</g>
<!-- Node1&#45;&gt;Node2 -->
<g id="edge1_Node000001_Node000002" class="edge">
<title>Node1&#45;&gt;Node2</title>
<g id="a_edge1_Node000001_Node000002"><a xlink:title=" ">
<path fill="none" stroke="#63b8ff" d="M102.42,-62.35C119.96,-69.17 140.91,-77.07 160,-83.62 164.43,-85.15 169.06,-86.67 173.7,-88.16"/>
<polygon fill="#63b8ff" stroke="#63b8ff" points="172.42,-91.43 183.01,-91.09 174.52,-84.75 172.42,-91.43"/>
</a>
</g>
</g>
<!-- Node3 -->
<g id="Node000003" class="node">
<title>Node3</title>
<g id="a_Node000003"><a xlink:href="../../d8/d8f/namespaceproto_1_1meta.html#a5236c42cda218e31c60084fee50aecdc" target="_top" xlink:title=" ">
<polygon fill="white" stroke="#666666" points="279.5,-56.25 160,-56.25 160,-37 279.5,-37 279.5,-56.25"/>
<text xml:space="preserve" text-anchor="middle" x="219.75" y="-42.75" font-family="Helvetica,sans-Serif" font-size="10.00">proto::meta::get_named</text>
</a>
</g>
</g>
<!-- Node1&#45;&gt;Node3 -->
<g id="edge2_Node000001_Node000003" class="edge">
<title>Node1&#45;&gt;Node3</title>
<g id="a_edge2_Node000001_Node000003"><a xlink:title=" ">
<path fill="none" stroke="#63b8ff" d="M124.11,-46.62C132.05,-46.62 140.22,-46.62 148.3,-46.62"/>
<polygon fill="#63b8ff" stroke="#63b8ff" points="148.09,-50.13 158.09,-46.63 148.09,-43.13 148.09,-50.13"/>
</a>
</g>
</g>
<!-- Node4 -->
<g id="Node000004" class="node">
<title>Node4</title>
<g id="a_Node000004"><a xlink:href="../../d8/d30/class_custom_span.html#a7612ff42bfc672d97414e1e3ddc391b9" target="_top" xlink:title=" ">
<polygon fill="white" stroke="#666666" points="268.25,-19.25 171.25,-19.25 171.25,0 268.25,0 268.25,-19.25"/>
<text xml:space="preserve" text-anchor="middle" x="219.75" y="-5.75" font-family="Helvetica,sans-Serif" font-size="10.00">CustomSpan::size</text>
</a>
</g>
</g>
<!-- Node1&#45;&gt;Node4 -->
<g id="edge4_Node000001_Node000004" class="edge">
<title>Node1&#45;&gt;Node4</title>
<g id="a_edge4_Node000001_Node000004"><a xlink:title=" ">
<path fill="none" stroke="#63b8ff" d="M124.11,-32.11C137.83,-28.85 152.27,-25.42 165.63,-22.24"/>
<polygon fill="#63b8ff" stroke="#63b8ff" points="166.16,-25.72 175.08,-20 164.54,-18.9 166.16,-25.72"/>
</a>
</g>
</g>
<!-- Node3&#45;&gt;Node3 -->
<g id="edge3_Node000003_Node000003" class="edge">
<title>Node3&#45;&gt;Node3</title>
<g id="a_edge3_Node000003_Node000003"><a xlink:title=" ">
<path fill="none" stroke="#63b8ff" d="M195.05,-56.54C183.79,-65.15 192.02,-74.25 219.75,-74.25 235.35,-74.25 244.78,-71.37 248.04,-67.32"/>
<polygon fill="#63b8ff" stroke="#63b8ff" points="251.41,-66.36 244.92,-57.97 244.76,-68.57 251.41,-66.36"/>
</a>
</g>
</g>
</g>
</svg>
</svg>

<style type='text/css'>
<![CDATA[
[data-mouse-over-selected='false'] { opacity: 0.7; }
[data-mouse-over-selected='true']  { opacity: 1.0; }
]]>
</style>
<script type="application/ecmascript"><![CDATA[
document.addEventListener('DOMContentLoaded', (event) => {
  highlightEdges();
  highlightAdjacentNodes();
});
]]></script>
</svg>
