<?xml version="1.0" encoding="UTF-8" standalone="no"?>
<!DOCTYPE svg PUBLIC "-//W3C//DTD SVG 1.1//EN"
 "http://www.w3.org/Graphics/SVG/1.1/DTD/svg11.dtd">
<!-- Generated by graphviz version 2.43.0 (0)
 -->
<!-- Title: proto::ProtocolNoSysEndpoint&lt; RxFields, TxFields, Crc &gt; Pages: 1 -->
<svg width="268pt" height="259pt"
 viewBox="0.00 0.00 267.50 259.00" xmlns="http://www.w3.org/2000/svg" xmlns:xlink="http://www.w3.org/1999/xlink">
<g id="graph0" class="graph" transform="scale(1 1) rotate(0) translate(4 255)">
<title>proto::ProtocolNoSysEndpoint&lt; RxFields, TxFields, Crc &gt;</title>
<!-- Node1 -->
<g id="Node000001" class="node">
<title>Node1</title>
<g id="a_Node000001"><a xlink:title="Protocol endpoint base for protocol implementations.">
<polygon fill="#999999" stroke="#666666" points="210,-30 49,-30 49,0 210,0 210,-30"/>
<text text-anchor="start" x="57" y="-18" font-family="Helvetica,sans-Serif" font-size="10.00">proto::ProtocolNoSysEndpoint</text>
<text text-anchor="middle" x="129.5" y="-7" font-family="Helvetica,sans-Serif" font-size="10.00">&lt; RxFields, TxFields, Crc &gt;</text>
</a>
</g>
</g>
<!-- Node2 -->
<g id="Node000002" class="node">
<title>Node2</title>
<g id="a_Node000002"><a xlink:href="../../d0/d29/classproto_1_1RxContainer.html" target="_top" xlink:title=" ">
<polygon fill="white" stroke="#666666" points="121,-107 0,-107 0,-77 121,-77 121,-107"/>
<text text-anchor="start" x="8" y="-95" font-family="Helvetica,sans-Serif" font-size="10.00">proto::RxContainer</text>
<text text-anchor="middle" x="60.5" y="-84" font-family="Helvetica,sans-Serif" font-size="10.00">&lt; RxFields, CrcSoft &gt;</text>
</a>
</g>
</g>
<!-- Node2&#45;&gt;Node1 -->
<g id="edge1_Node000001_Node000002" class="edge">
<title>Node2&#45;&gt;Node1</title>
<g id="a_edge1_Node000001_Node000002"><a xlink:title=" ">
<path fill="none" stroke="#9a32cd" stroke-dasharray="5,2" d="M80.32,-69.46C91.98,-56.79 106.38,-41.13 116.58,-30.04"/>
<polygon fill="#9a32cd" stroke="#9a32cd" points="77.67,-67.16 73.48,-76.89 82.82,-71.9 77.67,-67.16"/>
</a>
</g>
<text text-anchor="middle" x="113.5" y="-51" font-family="Helvetica,sans-Serif" font-size="10.00" fill="grey"> m_rx</text>
</g>
<!-- Node3 -->
<g id="Node000003" class="node">
<title>Node3</title>
<g id="a_Node000003"><a xlink:href="../../d5/d09/classproto_1_1FieldContainer.html" target="_top" xlink:title="Generic container for protocol fields with CRC and debug support.">
<polygon fill="white" stroke="#666666" points="121,-174 2,-174 2,-144 121,-144 121,-174"/>
<text text-anchor="start" x="10" y="-162" font-family="Helvetica,sans-Serif" font-size="10.00">proto::FieldContainer</text>
<text text-anchor="middle" x="61.5" y="-151" font-family="Helvetica,sans-Serif" font-size="10.00">&lt; Fields, TCrc &gt;</text>
</a>
</g>
</g>
<!-- Node3&#45;&gt;Node2 -->
<g id="edge2_Node000002_Node000003" class="edge">
<title>Node3&#45;&gt;Node2</title>
<g id="a_edge2_Node000002_Node000003"><a xlink:title=" ">
<path fill="none" stroke="#63b8ff" d="M61.12,-133.61C60.99,-124.65 60.84,-114.82 60.72,-107.08"/>
<polygon fill="#63b8ff" stroke="#63b8ff" points="57.63,-133.95 61.28,-143.9 64.63,-133.84 57.63,-133.95"/>
</a>
</g>
</g>
<!-- Node4 -->
<g id="Node000004" class="node">
<title>Node4</title>
<g id="a_Node000004"><a xlink:href="../../d6/df7/structproto_1_1TransformToFieldsTuple.html" target="_top" xlink:title=" ">
<polygon fill="white" stroke="#666666" points="197.5,-251 61.5,-251 61.5,-221 197.5,-221 197.5,-251"/>
<text text-anchor="start" x="69.5" y="-239" font-family="Helvetica,sans-Serif" font-size="10.00">proto::TransformToFields</text>
<text text-anchor="middle" x="129.5" y="-228" font-family="Helvetica,sans-Serif" font-size="10.00">Tuple&lt; Fields &gt;</text>
</a>
</g>
</g>
<!-- Node4&#45;&gt;Node3 -->
<g id="edge3_Node000003_Node000004" class="edge">
<title>Node4&#45;&gt;Node3</title>
<g id="a_edge3_Node000003_Node000004"><a xlink:title=" ">
<path fill="none" stroke="#9a32cd" stroke-dasharray="5,2" d="M109.97,-213.46C98.48,-200.79 84.28,-185.13 74.23,-174.04"/>
<polygon fill="#9a32cd" stroke="#9a32cd" points="107.4,-215.84 116.71,-220.89 112.59,-211.13 107.4,-215.84"/>
</a>
</g>
<text text-anchor="middle" x="123" y="-195" font-family="Helvetica,sans-Serif" font-size="10.00" fill="grey"> m_fields</text>
</g>
<!-- Node6 -->
<g id="Node000006" class="node">
<title>Node6</title>
<g id="a_Node000006"><a xlink:href="../../d5/d09/classproto_1_1FieldContainer.html" target="_top" xlink:title="Generic container for protocol fields with CRC and debug support.">
<polygon fill="white" stroke="#666666" points="258,-174 139,-174 139,-144 258,-144 258,-174"/>
<text text-anchor="start" x="147" y="-162" font-family="Helvetica,sans-Serif" font-size="10.00">proto::FieldContainer</text>
<text text-anchor="middle" x="198.5" y="-151" font-family="Helvetica,sans-Serif" font-size="10.00">&lt; Fields, TCrc &gt;</text>
</a>
</g>
</g>
<!-- Node4&#45;&gt;Node6 -->
<g id="edge6_Node000006_Node000004" class="edge">
<title>Node4&#45;&gt;Node6</title>
<g id="a_edge6_Node000006_Node000004"><a xlink:title=" ">
<path fill="none" stroke="#9a32cd" stroke-dasharray="5,2" d="M149.32,-213.46C160.98,-200.79 175.38,-185.13 185.58,-174.04"/>
<polygon fill="#9a32cd" stroke="#9a32cd" points="146.67,-211.16 142.48,-220.89 151.82,-215.9 146.67,-211.16"/>
</a>
</g>
<text text-anchor="middle" x="191" y="-195" font-family="Helvetica,sans-Serif" font-size="10.00" fill="grey"> m_fields</text>
</g>
<!-- Node5 -->
<g id="Node000005" class="node">
<title>Node5</title>
<g id="a_Node000005"><a xlink:href="../../d4/dd2/classproto_1_1TxContainer.html" target="_top" xlink:title=" ">
<polygon fill="white" stroke="#666666" points="259.5,-107 139.5,-107 139.5,-77 259.5,-77 259.5,-107"/>
<text text-anchor="start" x="147.5" y="-95" font-family="Helvetica,sans-Serif" font-size="10.00">proto::TxContainer</text>
<text text-anchor="middle" x="199.5" y="-84" font-family="Helvetica,sans-Serif" font-size="10.00">&lt; TxFields, CrcSoft &gt;</text>
</a>
</g>
</g>
<!-- Node5&#45;&gt;Node1 -->
<g id="edge4_Node000001_Node000005" class="edge">
<title>Node5&#45;&gt;Node1</title>
<g id="a_edge4_Node000001_Node000005"><a xlink:title=" ">
<path fill="none" stroke="#9a32cd" stroke-dasharray="5,2" d="M179.39,-69.46C167.57,-56.79 152.96,-41.13 142.61,-30.04"/>
<polygon fill="#9a32cd" stroke="#9a32cd" points="176.95,-71.97 186.33,-76.89 182.07,-67.19 176.95,-71.97"/>
</a>
</g>
<text text-anchor="middle" x="183.5" y="-51" font-family="Helvetica,sans-Serif" font-size="10.00" fill="grey"> m_tx</text>
</g>
<!-- Node6&#45;&gt;Node5 -->
<g id="edge5_Node000005_Node000006" class="edge">
<title>Node6&#45;&gt;Node5</title>
<g id="a_edge5_Node000005_Node000006"><a xlink:title=" ">
<path fill="none" stroke="#63b8ff" d="M198.88,-133.61C199.01,-124.65 199.16,-114.82 199.28,-107.08"/>
<polygon fill="#63b8ff" stroke="#63b8ff" points="195.37,-133.84 198.72,-143.9 202.37,-133.95 195.37,-133.84"/>
</a>
</g>
</g>
</g>
</svg>
