<?xml version="1.0" encoding="UTF-8" standalone="no"?>
<!DOCTYPE svg PUBLIC "-//W3C//DTD SVG 1.1//EN"
 "http://www.w3.org/Graphics/SVG/1.1/DTD/svg11.dtd">
<!-- Generated by graphviz version 2.43.0 (0)
 -->
<!-- Title: proto::RxContainer::RxContainer Pages: 1 -->
<svg width="581pt" height="230pt"
 viewBox="0.00 0.00 581.00 230.00" xmlns="http://www.w3.org/2000/svg" xmlns:xlink="http://www.w3.org/1999/xlink">
<g id="graph0" class="graph" transform="scale(1 1) rotate(0) translate(4 226)">
<title>proto::RxContainer::RxContainer</title>
<!-- Node1 -->
<g id="Node000001" class="node">
<title>Node1</title>
<g id="a_Node000001"><a xlink:title="Constructs an RxContainer and auto&#45;binds default matchers for standard fields.">
<polygon fill="#999999" stroke="#666666" points="108,-126 0,-126 0,-96 108,-96 108,-126"/>
<text text-anchor="start" x="8" y="-114" font-family="Helvetica,sans-Serif" font-size="10.00">proto::RxContainer</text>
<text text-anchor="middle" x="54" y="-103" font-family="Helvetica,sans-Serif" font-size="10.00">::RxContainer</text>
</a>
</g>
</g>
<!-- Node2 -->
<g id="Node000002" class="node">
<title>Node2</title>
<g id="a_Node000002"><a xlink:href="../../d0/d29/classproto_1_1RxContainer.html#a88837b69f589085a0e6ae59464afbd3d" target="_top" xlink:title="Validates anti&#45;length (ALEN) against LEN (bitwise NOT).">
<polygon fill="white" stroke="#666666" points="257.5,-222 149.5,-222 149.5,-192 257.5,-192 257.5,-222"/>
<text text-anchor="start" x="157.5" y="-210" font-family="Helvetica,sans-Serif" font-size="10.00">proto::RxContainer</text>
<text text-anchor="middle" x="203.5" y="-199" font-family="Helvetica,sans-Serif" font-size="10.00">::check_alen</text>
</a>
</g>
</g>
<!-- Node1&#45;&gt;Node2 -->
<g id="edge1_Node000001_Node000002" class="edge">
<title>Node1&#45;&gt;Node2</title>
<g id="a_edge1_Node000001_Node000002"><a xlink:title=" ">
<path fill="none" stroke="#63b8ff" d="M70.67,-126.07C87.67,-141.82 116.13,-166.49 144,-183 146.65,-184.57 149.43,-186.09 152.27,-187.54"/>
<polygon fill="#63b8ff" stroke="#63b8ff" points="150.95,-190.79 161.48,-191.96 153.98,-184.48 150.95,-190.79"/>
</a>
</g>
</g>
<!-- Node3 -->
<g id="Node000003" class="node">
<title>Node3</title>
<g id="a_Node000003"><a xlink:href="../../d0/d29/classproto_1_1RxContainer.html#a32164b9bb4d7aafb36c279431ae3ba83" target="_top" xlink:title="Computes CRC over fields flagged IS_IN_CRC and compares it with CRC_FIELD.">
<polygon fill="white" stroke="#666666" points="257.5,-174 149.5,-174 149.5,-144 257.5,-144 257.5,-174"/>
<text text-anchor="start" x="157.5" y="-162" font-family="Helvetica,sans-Serif" font-size="10.00">proto::RxContainer</text>
<text text-anchor="middle" x="203.5" y="-151" font-family="Helvetica,sans-Serif" font-size="10.00">::check_crc</text>
</a>
</g>
</g>
<!-- Node1&#45;&gt;Node3 -->
<g id="edge2_Node000001_Node000003" class="edge">
<title>Node1&#45;&gt;Node3</title>
<g id="a_edge2_Node000001_Node000003"><a xlink:title=" ">
<path fill="none" stroke="#63b8ff" d="M101.27,-126.06C115.68,-130.75 131.73,-135.97 146.73,-140.85"/>
<polygon fill="#63b8ff" stroke="#63b8ff" points="145.81,-144.23 156.4,-144 147.97,-137.57 145.81,-144.23"/>
</a>
</g>
</g>
<!-- Node5 -->
<g id="Node000005" class="node">
<title>Node5</title>
<g id="a_Node000005"><a xlink:href="../../d0/d29/classproto_1_1RxContainer.html#a58f4d018e6ad3926d73a38eb8895b18e" target="_top" xlink:title="Updates DATA_FIELD alternative by received TYPE_FIELD and validates its expected size.">
<polygon fill="white" stroke="#666666" points="257.5,-126 149.5,-126 149.5,-96 257.5,-96 257.5,-126"/>
<text text-anchor="start" x="157.5" y="-114" font-family="Helvetica,sans-Serif" font-size="10.00">proto::RxContainer</text>
<text text-anchor="middle" x="203.5" y="-103" font-family="Helvetica,sans-Serif" font-size="10.00">::check_type</text>
</a>
</g>
</g>
<!-- Node1&#45;&gt;Node5 -->
<g id="edge4_Node000001_Node000005" class="edge">
<title>Node1&#45;&gt;Node5</title>
<g id="a_edge4_Node000001_Node000005"><a xlink:title=" ">
<path fill="none" stroke="#63b8ff" d="M108.25,-111C118.28,-111 128.85,-111 139.15,-111"/>
<polygon fill="#63b8ff" stroke="#63b8ff" points="139.33,-114.5 149.33,-111 139.33,-107.5 139.33,-114.5"/>
</a>
</g>
</g>
<!-- Node6 -->
<g id="Node000006" class="node">
<title>Node6</title>
<g id="a_Node000006"><a xlink:href="../../d5/d09/classproto_1_1FieldContainer.html#a44b086a546a434a9ba804d3081559d29" target="_top" xlink:title="Reset all fields, CRC, and internal state to defaults.">
<polygon fill="white" stroke="#666666" points="263,-78 144,-78 144,-48 263,-48 263,-78"/>
<text text-anchor="start" x="152" y="-66" font-family="Helvetica,sans-Serif" font-size="10.00">proto::FieldContainer</text>
<text text-anchor="middle" x="203.5" y="-55" font-family="Helvetica,sans-Serif" font-size="10.00">::reset</text>
</a>
</g>
</g>
<!-- Node1&#45;&gt;Node6 -->
<g id="edge5_Node000001_Node000006" class="edge">
<title>Node1&#45;&gt;Node6</title>
<g id="a_edge5_Node000001_Node000006"><a xlink:title=" ">
<path fill="none" stroke="#63b8ff" d="M101.27,-95.94C115.68,-91.25 131.73,-86.03 146.73,-81.15"/>
<polygon fill="#63b8ff" stroke="#63b8ff" points="147.97,-84.43 156.4,-78 145.81,-77.77 147.97,-84.43"/>
</a>
</g>
</g>
<!-- Node9 -->
<g id="Node000009" class="node">
<title>Node9</title>
<g id="a_Node000009"><a xlink:href="../../d0/d29/classproto_1_1RxContainer.html#a1d6da44ba10df67547d25eb435059666" target="_top" xlink:title="Adjusts DATA_FIELD size based on LEN_FIELD and sizes of fields marked IS_IN_LEN.">
<polygon fill="white" stroke="#666666" points="257.5,-30 149.5,-30 149.5,0 257.5,0 257.5,-30"/>
<text text-anchor="start" x="157.5" y="-18" font-family="Helvetica,sans-Serif" font-size="10.00">proto::RxContainer</text>
<text text-anchor="middle" x="203.5" y="-7" font-family="Helvetica,sans-Serif" font-size="10.00">::set_data_len</text>
</a>
</g>
</g>
<!-- Node1&#45;&gt;Node9 -->
<g id="edge8_Node000001_Node000009" class="edge">
<title>Node1&#45;&gt;Node9</title>
<g id="a_edge8_Node000001_Node000009"><a xlink:title=" ">
<path fill="none" stroke="#63b8ff" d="M70.67,-95.93C87.67,-80.18 116.13,-55.51 144,-39 146.65,-37.43 149.43,-35.91 152.27,-34.46"/>
<polygon fill="#63b8ff" stroke="#63b8ff" points="153.98,-37.52 161.48,-30.04 150.95,-31.21 153.98,-37.52"/>
</a>
</g>
</g>
<!-- Node4 -->
<g id="Node000004" class="node">
<title>Node4</title>
<g id="a_Node000004"><a xlink:href="../../d6/dca/namespaceproto.html#aecb8f5d93c1910cff7a2844f50eb98d5" target="_top" xlink:title="Generic flag check helper.">
<polygon fill="white" stroke="#666666" points="403,-168.5 314,-168.5 314,-149.5 403,-149.5 403,-168.5"/>
<text text-anchor="middle" x="358.5" y="-156.5" font-family="Helvetica,sans-Serif" font-size="10.00">proto::has_flag</text>
</a>
</g>
</g>
<!-- Node3&#45;&gt;Node4 -->
<g id="edge3_Node000003_Node000004" class="edge">
<title>Node3&#45;&gt;Node4</title>
<g id="a_edge3_Node000003_Node000004"><a xlink:title=" ">
<path fill="none" stroke="#63b8ff" d="M257.58,-159C272.45,-159 288.62,-159 303.54,-159"/>
<polygon fill="#63b8ff" stroke="#63b8ff" points="303.63,-162.5 313.63,-159 303.63,-155.5 303.63,-162.5"/>
</a>
</g>
</g>
<!-- Node7 -->
<g id="Node000007" class="node">
<title>Node7</title>
<g id="a_Node000007"><a xlink:href="../../d5/d09/classproto_1_1FieldContainer.html#ad87097e46757f1f4d2ead100ef965f1e" target="_top" xlink:title="Apply a callable to each field in the container.">
<polygon fill="white" stroke="#666666" points="418,-78 299,-78 299,-48 418,-48 418,-78"/>
<text text-anchor="start" x="307" y="-66" font-family="Helvetica,sans-Serif" font-size="10.00">proto::FieldContainer</text>
<text text-anchor="middle" x="358.5" y="-55" font-family="Helvetica,sans-Serif" font-size="10.00">::for_each_type</text>
</a>
</g>
</g>
<!-- Node6&#45;&gt;Node7 -->
<g id="edge6_Node000006_Node000007" class="edge">
<title>Node6&#45;&gt;Node7</title>
<g id="a_edge6_Node000006_Node000007"><a xlink:title=" ">
<path fill="none" stroke="#63b8ff" d="M263.22,-63C271.54,-63 280.17,-63 288.67,-63"/>
<polygon fill="#63b8ff" stroke="#63b8ff" points="288.94,-66.5 298.94,-63 288.94,-59.5 288.94,-66.5"/>
</a>
</g>
</g>
<!-- Node8 -->
<g id="Node000008" class="node">
<title>Node8</title>
<g id="a_Node000008"><a xlink:href="../../d5/d09/classproto_1_1FieldContainer.html#a47927806803e31410e7e5bf48e7d50b2" target="_top" xlink:title="Helper to apply a callable to each field in the tuple (implementation).">
<polygon fill="white" stroke="#666666" points="573,-78 454,-78 454,-48 573,-48 573,-78"/>
<text text-anchor="start" x="462" y="-66" font-family="Helvetica,sans-Serif" font-size="10.00">proto::FieldContainer</text>
<text text-anchor="middle" x="513.5" y="-55" font-family="Helvetica,sans-Serif" font-size="10.00">::for_each_type_impl</text>
</a>
</g>
</g>
<!-- Node7&#45;&gt;Node8 -->
<g id="edge7_Node000007_Node000008" class="edge">
<title>Node7&#45;&gt;Node8</title>
<g id="a_edge7_Node000007_Node000008"><a xlink:title=" ">
<path fill="none" stroke="#63b8ff" d="M418.22,-63C426.54,-63 435.17,-63 443.67,-63"/>
<polygon fill="#63b8ff" stroke="#63b8ff" points="443.94,-66.5 453.94,-63 443.94,-59.5 443.94,-66.5"/>
</a>
</g>
</g>
</g>
</svg>
