<?xml version="1.0" encoding="UTF-8" standalone="no"?>
<!DOCTYPE svg PUBLIC "-//W3C//DTD SVG 1.1//EN"
 "http://www.w3.org/Graphics/SVG/1.1/DTD/svg11.dtd">
<!-- Generated by graphviz version 2.43.0 (0)
 -->
<!-- Title: proto::RxContainer::static_for_index Pages: 1 -->
<svg width="443pt" height="86pt"
 viewBox="0.00 0.00 443.00 86.00" xmlns="http://www.w3.org/2000/svg" xmlns:xlink="http://www.w3.org/1999/xlink">
<g id="graph0" class="graph" transform="scale(1 1) rotate(0) translate(4 82)">
<title>proto::RxContainer::static_for_index</title>
<!-- Node1 -->
<g id="Node000001" class="node">
<title>Node1</title>
<g id="a_Node000001"><a xlink:title="Compile&#45;time unrolled dispatcher that calls a functor for a runtime field index.">
<polygon fill="#999999" stroke="#666666" points="435,-54 327,-54 327,-24 435,-24 435,-54"/>
<text text-anchor="start" x="335" y="-42" font-family="Helvetica,sans-Serif" font-size="10.00">proto::RxContainer</text>
<text text-anchor="middle" x="381" y="-31" font-family="Helvetica,sans-Serif" font-size="10.00">::static_for_index</text>
</a>
</g>
</g>
<!-- Node2 -->
<g id="Node000002" class="node">
<title>Node2</title>
<g id="a_Node000002"><a xlink:href="../../d0/d29/classproto_1_1RxContainer.html#a62f66f4bc347105478aba5bffd14796f" target="_top" xlink:title="Feeds a chunk of bytes to the parser and advances internal state.">
<polygon fill="white" stroke="#666666" points="291,-54 183,-54 183,-24 291,-24 291,-54"/>
<text text-anchor="start" x="191" y="-42" font-family="Helvetica,sans-Serif" font-size="10.00">proto::RxContainer</text>
<text text-anchor="middle" x="237" y="-31" font-family="Helvetica,sans-Serif" font-size="10.00">::fill</text>
</a>
</g>
</g>
<!-- Node1&#45;&gt;Node2 -->
<g id="edge1_Node000001_Node000002" class="edge">
<title>Node1&#45;&gt;Node2</title>
<g id="a_edge1_Node000001_Node000002"><a xlink:title=" ">
<path fill="none" stroke="#63b8ff" d="M316.48,-39C308,-39 299.38,-39 291.11,-39"/>
<polygon fill="#63b8ff" stroke="#63b8ff" points="316.72,-42.5 326.72,-39 316.72,-35.5 316.72,-42.5"/>
</a>
</g>
</g>
<!-- Node3 -->
<g id="Node000003" class="node">
<title>Node3</title>
<g id="a_Node000003"><a xlink:href="../../d4/d66/classproto_1_1exoAtlant_1_1ExoAtlantProtocol__.html#ab292d3fc1828c447d3e9d654aff5fcda" target="_top" xlink:title="Разбор входящего блока данных">
<polygon fill="white" stroke="#666666" points="147,-78 0,-78 0,-48 147,-48 147,-78"/>
<text text-anchor="start" x="8" y="-66" font-family="Helvetica,sans-Serif" font-size="10.00">proto::exoAtlant::ExoAtlant</text>
<text text-anchor="middle" x="73.5" y="-55" font-family="Helvetica,sans-Serif" font-size="10.00">Protocol_::parse</text>
</a>
</g>
</g>
<!-- Node2&#45;&gt;Node3 -->
<g id="edge2_Node000002_Node000003" class="edge">
<title>Node2&#45;&gt;Node3</title>
<g id="a_edge2_Node000002_Node000003"><a xlink:title=" ">
<path fill="none" stroke="#63b8ff" d="M172.61,-48.42C164.23,-49.66 155.6,-50.95 147.08,-52.21"/>
<polygon fill="#63b8ff" stroke="#63b8ff" points="173.29,-51.86 182.67,-46.93 172.27,-44.93 173.29,-51.86"/>
</a>
</g>
</g>
<!-- Node4 -->
<g id="Node000004" class="node">
<title>Node4</title>
<g id="a_Node000004"><a xlink:href="../../d6/dc5/classproto_1_1ProtocolEndpoint.html#adf613bd3ee363704002a992199be43f1" target="_top" xlink:title="Wire the endpoint to external RX and TX interfaces.">
<polygon fill="white" stroke="#666666" points="139,-30 8,-30 8,0 139,0 139,-30"/>
<text text-anchor="start" x="16" y="-18" font-family="Helvetica,sans-Serif" font-size="10.00">proto::ProtocolEndpoint</text>
<text text-anchor="middle" x="73.5" y="-7" font-family="Helvetica,sans-Serif" font-size="10.00">::set_interfaces</text>
</a>
</g>
</g>
<!-- Node2&#45;&gt;Node4 -->
<g id="edge3_Node000002_Node000004" class="edge">
<title>Node2&#45;&gt;Node4</title>
<g id="a_edge3_Node000002_Node000004"><a xlink:title=" ">
<path fill="none" stroke="#63b8ff" d="M172.67,-29.59C161.62,-27.95 150.1,-26.24 139.02,-24.59"/>
<polygon fill="#63b8ff" stroke="#63b8ff" points="172.27,-33.07 182.67,-31.07 173.29,-26.14 172.27,-33.07"/>
</a>
</g>
</g>
</g>
</svg>
