<?xml version="1.0" encoding="UTF-8" standalone="no"?>
<!DOCTYPE svg PUBLIC "-//W3C//DTD SVG 1.1//EN"
 "http://www.w3.org/Graphics/SVG/1.1/DTD/svg11.dtd">
<!-- Generated by graphviz version 2.43.0 (0)
 -->
<!-- Title: RxContainer.hpp Pages: 1 -->
<!--zoomable 324 -->

<svg id="main" version="1.1" xmlns="http://www.w3.org/2000/svg" xmlns:xlink="http://www.w3.org/1999/xlink" xml:space="preserve" onload="init(evt)">
<style type="text/css"><![CDATA[
.node, .edge {opacity: 0.7;}
.node.selected, .edge.selected {opacity: 1;}
.edge:hover path { stroke: red; }
.edge:hover polygon { stroke: red; fill: red; }
]]></style>

<defs>
  <circle id="rim" cx="0" cy="0" r="7"/>
  <circle id="rim2" cx="0" cy="0" r="3.5"/>
  <g id="zoomPlus">
    <use xlink:href="#rim" fill="#404040"><set attributeName="fill" to="#808080" begin="zoomplus.mouseover" end="zoomplus.mouseout"/></use>
    <path d="M-4,0h8M0,-4v8" fill="none" stroke="white" stroke-width="1.5" pointer-events="none"/>
  </g>
  <g id="zoomMin">
    <use xlink:href="#rim" fill="#404040"><set attributeName="fill" to="#808080" begin="zoomminus.mouseover" end="zoomminus.mouseout"/></use>
    <path d="M-4,0h8" fill="none" stroke="white" stroke-width="1.5" pointer-events="none"/>
  </g>
  <g id="arrowUp" transform="translate(30 24)">
    <use xlink:href="#rim"/>
    <path pointer-events="none" fill="none" stroke="white" stroke-width="1.5" d="M0,-3.0v7 M-2.5,-0.5L0,-3.0L2.5,-0.5"/>
  </g>
  <g id="arrowRight" transform="rotate(90) translate(36 -43)">
    <use xlink:href="#rim"/>
    <path pointer-events="none" fill="none" stroke="white" stroke-width="1.5" d="M0,-3.0v7 M-2.5,-0.5L0,-3.0L2.5,-0.5"/>
  </g>
  <g id="arrowDown" transform="rotate(180) translate(-30 -48)">
    <use xlink:href="#rim"/>
    <path pointer-events="none" fill="none" stroke="white" stroke-width="1.5" d="M0,-3.0v7 M-2.5,-0.5L0,-3.0L2.5,-0.5"/>
  </g>
  <g id="arrowLeft" transform="rotate(270) translate(-36 17)">
    <use xlink:href="#rim"/>
    <path pointer-events="none" fill="none" stroke="white" stroke-width="1.5" d="M0,-3.0v7 M-2.5,-0.5L0,-3.0L2.5,-0.5"/>
  </g>
  <g id="resetDef">
    <use xlink:href="#rim2" fill="#404040"><set attributeName="fill" to="#808080" begin="reset.mouseover" end="reset.mouseout"/></use>
  </g>
</defs>
<script type="application/ecmascript">
var viewWidth = 1139;
var viewHeight = 324;
var sectionId = 'dynsection-0';
</script>
<script type="application/ecmascript" xlink:href="../../svg.min.js"/>
<svg id="graph" class="graph">
<g id="viewport">
<title>RxContainer.hpp</title>
<!-- Node1 -->
<g id="Node000001" class="node">
<title>Node1</title>
<g id="a_Node000001"><a xlink:title="Stateful frame parsing container that incrementally matches and fills protocol fields from a byte str...">
<polygon fill="#999999" stroke="#666666" points="649.5,-316 552.5,-316 552.5,-297 649.5,-297 649.5,-316"/>
<text text-anchor="middle" x="601" y="-304" font-family="Helvetica,sans-Serif" font-size="10.00">RxContainer.hpp</text>
</a>
</g>
</g>
<!-- Node2 -->
<g id="Node000002" class="node">
<title>Node2</title>
<g id="a_Node000002"><a xlink:title=" ">
<polygon fill="#e0e0e0" stroke="#999999" points="64,-255.5 0,-255.5 0,-236.5 64,-236.5 64,-255.5"/>
<text text-anchor="middle" x="32" y="-243.5" font-family="Helvetica,sans-Serif" font-size="10.00">algorithm</text>
</a>
</g>
</g>
<!-- Node1&#45;&gt;Node2 -->
<g id="edge1_Node000001_Node000002" class="edge">
<title>Node1&#45;&gt;Node2</title>
<g id="a_edge1_Node000001_Node000002"><a xlink:title=" ">
<path fill="none" stroke="#63b8ff" d="M552.38,-305.36C458.63,-304.22 246.77,-297.41 73,-261 69.93,-260.36 66.78,-259.55 63.65,-258.66"/>
<polygon fill="#63b8ff" stroke="#63b8ff" points="64.44,-255.24 53.85,-255.57 62.34,-261.91 64.44,-255.24"/>
</a>
</g>
</g>
<!-- Node3 -->
<g id="Node000003" class="node">
<title>Node3</title>
<g id="a_Node000003"><a xlink:title=" ">
<polygon fill="#e0e0e0" stroke="#999999" points="1131,-74 1081,-74 1081,-55 1131,-55 1131,-74"/>
<text text-anchor="middle" x="1106" y="-62" font-family="Helvetica,sans-Serif" font-size="10.00">cstring</text>
</a>
</g>
</g>
<!-- Node1&#45;&gt;Node3 -->
<g id="edge2_Node000001_Node000003" class="edge">
<title>Node1&#45;&gt;Node3</title>
<g id="a_edge2_Node000001_Node000003"><a xlink:title=" ">
<path fill="none" stroke="#63b8ff" d="M623.67,-296.93C669.88,-279.27 778.04,-236.94 866,-195 947.25,-156.26 1040.19,-103.64 1082.64,-79.12"/>
<polygon fill="#63b8ff" stroke="#63b8ff" points="1084.48,-82.1 1091.38,-74.05 1080.97,-76.04 1084.48,-82.1"/>
</a>
</g>
</g>
<!-- Node4 -->
<g id="Node000004" class="node">
<title>Node4</title>
<g id="a_Node000004"><a xlink:title=" ">
<polygon fill="#e0e0e0" stroke="#999999" points="998.5,-255.5 933.5,-255.5 933.5,-236.5 998.5,-236.5 998.5,-255.5"/>
<text text-anchor="middle" x="966" y="-243.5" font-family="Helvetica,sans-Serif" font-size="10.00">functional</text>
</a>
</g>
</g>
<!-- Node1&#45;&gt;Node4 -->
<g id="edge3_Node000001_Node000004" class="edge">
<title>Node1&#45;&gt;Node4</title>
<g id="a_edge3_Node000001_Node000004"><a xlink:title=" ">
<path fill="none" stroke="#63b8ff" d="M649.62,-300.99C712.35,-294.66 824.63,-281.54 919,-261 922.62,-260.21 926.38,-259.29 930.11,-258.29"/>
<polygon fill="#63b8ff" stroke="#63b8ff" points="931.16,-261.63 939.83,-255.55 929.26,-254.9 931.16,-261.63"/>
</a>
</g>
</g>
<!-- Node5 -->
<g id="Node000005" class="node">
<title>Node5</title>
<g id="a_Node000005"><a xlink:title=" ">
<polygon fill="#e0e0e0" stroke="#999999" points="1075,-255.5 1017,-255.5 1017,-236.5 1075,-236.5 1075,-255.5"/>
<text text-anchor="middle" x="1046" y="-243.5" font-family="Helvetica,sans-Serif" font-size="10.00">memory</text>
</a>
</g>
</g>
<!-- Node1&#45;&gt;Node5 -->
<g id="edge4_Node000001_Node000005" class="edge">
<title>Node1&#45;&gt;Node5</title>
<g id="a_edge4_Node000001_Node000005"><a xlink:title=" ">
<path fill="none" stroke="#63b8ff" d="M649.57,-304.01C726.55,-300.8 880.86,-290.9 1008,-261 1010.52,-260.41 1013.09,-259.7 1015.66,-258.92"/>
<polygon fill="#63b8ff" stroke="#63b8ff" points="1017.02,-262.15 1025.37,-255.64 1014.78,-255.52 1017.02,-262.15"/>
</a>
</g>
</g>
<!-- Node6 -->
<g id="Node000006" class="node">
<title>Node6</title>
<g id="a_Node000006"><a xlink:title=" ">
<polygon fill="#e0e0e0" stroke="#999999" points="284.5,-74 243.5,-74 243.5,-55 284.5,-55 284.5,-74"/>
<text text-anchor="middle" x="264" y="-62" font-family="Helvetica,sans-Serif" font-size="10.00">tuple</text>
</a>
</g>
</g>
<!-- Node1&#45;&gt;Node6 -->
<g id="edge5_Node000001_Node000006" class="edge">
<title>Node1&#45;&gt;Node6</title>
<g id="a_edge5_Node000001_Node000006"><a xlink:title=" ">
<path fill="none" stroke="#63b8ff" d="M552.47,-300.98C485.28,-292.19 364.18,-266.83 293,-195 263.5,-165.23 261.28,-112.37 262.47,-84.27"/>
<polygon fill="#63b8ff" stroke="#63b8ff" points="265.97,-84.39 263.09,-74.19 258.98,-83.96 265.97,-84.39"/>
</a>
</g>
</g>
<!-- Node7 -->
<g id="Node000007" class="node">
<title>Node7</title>
<g id="a_Node000007"><a xlink:href="../../d1/dcf/CustomSpan_8hpp.html" target="_top" xlink:title=" ">
<polygon fill="white" stroke="#666666" points="181.5,-255.5 82.5,-255.5 82.5,-236.5 181.5,-236.5 181.5,-255.5"/>
<text text-anchor="middle" x="132" y="-243.5" font-family="Helvetica,sans-Serif" font-size="10.00">CustomSpan.hpp</text>
</a>
</g>
</g>
<!-- Node1&#45;&gt;Node7 -->
<g id="edge6_Node000001_Node000007" class="edge">
<title>Node1&#45;&gt;Node7</title>
<g id="a_edge6_Node000001_Node000007"><a xlink:title=" ">
<path fill="none" stroke="#63b8ff" d="M552.46,-301.84C476.22,-295.71 323.92,-281.96 196,-261 190.1,-260.03 183.93,-258.87 177.85,-257.64"/>
<polygon fill="#63b8ff" stroke="#63b8ff" points="178.26,-254.15 167.75,-255.52 176.82,-261 178.26,-254.15"/>
</a>
</g>
</g>
<!-- Node10 -->
<g id="Node000010" class="node">
<title>Node10</title>
<g id="a_Node000010"><a xlink:href="../../d8/daa/FieldContainer_8hpp.html" target="_top" xlink:title="Defines the FieldContainer class template, a generic container for protocol fields.">
<polygon fill="white" stroke="#666666" points="660,-261 542,-261 542,-231 660,-231 660,-261"/>
<text text-anchor="start" x="550" y="-249" font-family="Helvetica,sans-Serif" font-size="10.00">prototypes/container</text>
<text text-anchor="middle" x="601" y="-238" font-family="Helvetica,sans-Serif" font-size="10.00">/FieldContainer.hpp</text>
</a>
</g>
</g>
<!-- Node1&#45;&gt;Node10 -->
<g id="edge9_Node000001_Node000010" class="edge">
<title>Node1&#45;&gt;Node10</title>
<g id="a_edge9_Node000001_Node000010"><a xlink:title=" ">
<path fill="none" stroke="#63b8ff" d="M601,-296.87C601,-290.11 601,-280.35 601,-271.26"/>
<polygon fill="#63b8ff" stroke="#63b8ff" points="604.5,-271.11 601,-261.11 597.5,-271.11 604.5,-271.11"/>
</a>
</g>
</g>
<!-- Node8 -->
<g id="Node000008" class="node">
<title>Node8</title>
<g id="a_Node000008"><a xlink:title=" ">
<polygon fill="#e0e0e0" stroke="#999999" points="182,-189.5 130,-189.5 130,-170.5 182,-170.5 182,-189.5"/>
<text text-anchor="middle" x="156" y="-177.5" font-family="Helvetica,sans-Serif" font-size="10.00">cassert</text>
</a>
</g>
</g>
<!-- Node7&#45;&gt;Node8 -->
<g id="edge7_Node000007_Node000008" class="edge">
<title>Node7&#45;&gt;Node8</title>
<g id="a_edge7_Node000007_Node000008"><a xlink:title=" ">
<path fill="none" stroke="#63b8ff" d="M135.24,-236.37C138.76,-226.97 144.5,-211.67 149.05,-199.53"/>
<polygon fill="#63b8ff" stroke="#63b8ff" points="152.43,-200.5 152.66,-189.91 145.87,-198.04 152.43,-200.5"/>
</a>
</g>
</g>
<!-- Node9 -->
<g id="Node000009" class="node">
<title>Node9</title>
<g id="a_Node000009"><a xlink:title=" ">
<polygon fill="#e0e0e0" stroke="#999999" points="185.5,-74 132.5,-74 132.5,-55 185.5,-55 185.5,-74"/>
<text text-anchor="middle" x="159" y="-62" font-family="Helvetica,sans-Serif" font-size="10.00">cstddef</text>
</a>
</g>
</g>
<!-- Node7&#45;&gt;Node9 -->
<g id="edge8_Node000007_Node000009" class="edge">
<title>Node7&#45;&gt;Node9</title>
<g id="a_edge8_Node000007_Node000009"><a xlink:title=" ">
<path fill="none" stroke="#63b8ff" d="M129.47,-236.24C126.75,-226.34 122.59,-209.67 121,-195 119.56,-181.74 118.58,-178.11 121,-165 126.49,-135.25 140.48,-102.89 149.87,-83.4"/>
<polygon fill="#63b8ff" stroke="#63b8ff" points="153.11,-84.75 154.4,-74.24 146.83,-81.64 153.11,-84.75"/>
</a>
</g>
</g>
<!-- Node10&#45;&gt;Node6 -->
<g id="edge10_Node000010_Node000006" class="edge">
<title>Node10&#45;&gt;Node6</title>
<g id="a_edge10_Node000010_Node000006"><a xlink:title=" ">
<path fill="none" stroke="#63b8ff" d="M541.88,-239.99C471.58,-233.06 359.4,-218.67 325,-195 287.22,-169.01 272.21,-113.21 266.78,-84.08"/>
<polygon fill="#63b8ff" stroke="#63b8ff" points="270.19,-83.3 265.09,-74.02 263.29,-84.46 270.19,-83.3"/>
</a>
</g>
</g>
<!-- Node11 -->
<g id="Node000011" class="node">
<title>Node11</title>
<g id="a_Node000011"><a xlink:title=" ">
<polygon fill="#e0e0e0" stroke="#999999" points="514.5,-74 445.5,-74 445.5,-55 514.5,-55 514.5,-74"/>
<text text-anchor="middle" x="480" y="-62" font-family="Helvetica,sans-Serif" font-size="10.00">type_traits</text>
</a>
</g>
</g>
<!-- Node10&#45;&gt;Node11 -->
<g id="edge11_Node000010_Node000011" class="edge">
<title>Node10&#45;&gt;Node11</title>
<g id="a_edge11_Node000010_Node000011"><a xlink:title=" ">
<path fill="none" stroke="#63b8ff" d="M581.94,-231C570.24,-221.72 555.54,-208.76 545,-195 517.58,-159.19 496.68,-110.02 486.62,-83.77"/>
<polygon fill="#63b8ff" stroke="#63b8ff" points="489.87,-82.46 483.09,-74.32 483.31,-84.91 489.87,-82.46"/>
</a>
</g>
</g>
<!-- Node12 -->
<g id="Node000012" class="node">
<title>Node12</title>
<g id="a_Node000012"><a xlink:title=" ">
<polygon fill="#e0e0e0" stroke="#999999" points="647.5,-189.5 554.5,-189.5 554.5,-170.5 647.5,-170.5 647.5,-189.5"/>
<text text-anchor="middle" x="601" y="-177.5" font-family="Helvetica,sans-Serif" font-size="10.00">unordered_map</text>
</a>
</g>
</g>
<!-- Node10&#45;&gt;Node12 -->
<g id="edge12_Node000010_Node000012" class="edge">
<title>Node10&#45;&gt;Node12</title>
<g id="a_edge12_Node000010_Node000012"><a xlink:title=" ">
<path fill="none" stroke="#63b8ff" d="M601,-230.8C601,-221.7 601,-209.79 601,-199.9"/>
<polygon fill="#63b8ff" stroke="#63b8ff" points="604.5,-199.84 601,-189.84 597.5,-199.84 604.5,-199.84"/>
</a>
</g>
</g>
<!-- Node13 -->
<g id="Node000013" class="node">
<title>Node13</title>
<g id="a_Node000013"><a xlink:title=" ">
<polygon fill="#e0e0e0" stroke="#999999" points="710.5,-189.5 665.5,-189.5 665.5,-170.5 710.5,-170.5 710.5,-189.5"/>
<text text-anchor="middle" x="688" y="-177.5" font-family="Helvetica,sans-Serif" font-size="10.00">utility</text>
</a>
</g>
</g>
<!-- Node10&#45;&gt;Node13 -->
<g id="edge13_Node000010_Node000013" class="edge">
<title>Node10&#45;&gt;Node13</title>
<g id="a_edge13_Node000010_Node000013"><a xlink:title=" ">
<path fill="none" stroke="#63b8ff" d="M620.31,-230.8C634.49,-220.37 653.69,-206.24 668.02,-195.69"/>
<polygon fill="#63b8ff" stroke="#63b8ff" points="670.25,-198.4 676.23,-189.66 666.1,-192.76 670.25,-198.4"/>
</a>
</g>
</g>
<!-- Node14 -->
<g id="Node000014" class="node">
<title>Node14</title>
<g id="a_Node000014"><a xlink:title=" ">
<polygon fill="#e0e0e0" stroke="#999999" points="839,-195 729,-195 729,-165 839,-165 839,-195"/>
<text text-anchor="start" x="737" y="-183" font-family="Helvetica,sans-Serif" font-size="10.00">libraries/crc/crcSoft</text>
<text text-anchor="middle" x="784" y="-172" font-family="Helvetica,sans-Serif" font-size="10.00">/CrcSoft.hpp</text>
</a>
</g>
</g>
<!-- Node10&#45;&gt;Node14 -->
<g id="edge14_Node000010_Node000014" class="edge">
<title>Node10&#45;&gt;Node14</title>
<g id="a_edge14_Node000010_Node000014"><a xlink:title=" ">
<path fill="none" stroke="#63b8ff" d="M641.16,-230.95C668.57,-221.37 705.08,-208.6 734.32,-198.37"/>
<polygon fill="#63b8ff" stroke="#63b8ff" points="735.65,-201.62 743.93,-195.01 733.34,-195.01 735.65,-201.62"/>
</a>
</g>
</g>
<!-- Node15 -->
<g id="Node000015" class="node">
<title>Node15</title>
<g id="a_Node000015"><a xlink:href="../../d7/d91/DataField_8hpp.html" target="_top" xlink:title="Variant DATA field that maps protocol IDs to payload types at compile time.">
<polygon fill="white" stroke="#666666" points="498,-189.5 334,-189.5 334,-170.5 498,-170.5 498,-189.5"/>
<text text-anchor="middle" x="416" y="-177.5" font-family="Helvetica,sans-Serif" font-size="10.00">prototypes/field/DataField.hpp</text>
</a>
</g>
</g>
<!-- Node10&#45;&gt;Node15 -->
<g id="edge15_Node000010_Node000015" class="edge">
<title>Node10&#45;&gt;Node15</title>
<g id="a_edge15_Node000010_Node000015"><a xlink:title=" ">
<path fill="none" stroke="#63b8ff" d="M560.4,-230.95C527.39,-219.53 481.33,-203.6 450.18,-192.82"/>
<polygon fill="#63b8ff" stroke="#63b8ff" points="451.22,-189.48 440.62,-189.52 448.93,-196.09 451.22,-189.48"/>
</a>
</g>
</g>
<!-- Node19 -->
<g id="Node000019" class="node">
<title>Node19</title>
<g id="a_Node000019"><a xlink:href="../../df/db6/FieldPrototype_8hpp.html" target="_top" xlink:title="FieldPrototype template for describing and handling protocol fields.">
<polygon fill="white" stroke="#666666" points="812,-129 624,-129 624,-110 812,-110 812,-129"/>
<text text-anchor="middle" x="718" y="-117" font-family="Helvetica,sans-Serif" font-size="10.00">prototypes/field/FieldPrototype.hpp</text>
</a>
</g>
</g>
<!-- Node10&#45;&gt;Node19 -->
<g id="edge41_Node000010_Node000019" class="edge">
<title>Node10&#45;&gt;Node19</title>
<g id="a_edge41_Node000010_Node000019"><a xlink:title=" ">
<path fill="none" stroke="#63b8ff" d="M660.25,-241.42C725.63,-236.09 824.73,-223.45 848,-195 873.62,-163.67 820.08,-142.91 774.14,-131.43"/>
<polygon fill="#63b8ff" stroke="#63b8ff" points="774.72,-127.98 764.18,-129.06 773.1,-134.78 774.72,-127.98"/>
</a>
</g>
</g>
<!-- Node15&#45;&gt;Node3 -->
<g id="edge16_Node000015_Node000003" class="edge">
<title>Node15&#45;&gt;Node3</title>
<g id="a_edge16_Node000015_Node000003"><a xlink:title=" ">
<path fill="none" stroke="#63b8ff" d="M489.58,-170.49C597.49,-157.93 789.33,-135.22 821,-129 852.63,-122.79 859.61,-117.35 891,-110 968.15,-91.92 990.84,-92.24 1070.77,-74.41"/>
<polygon fill="#63b8ff" stroke="#63b8ff" points="1071.83,-77.76 1080.81,-72.15 1070.29,-70.93 1071.83,-77.76"/>
</a>
</g>
</g>
<!-- Node15&#45;&gt;Node6 -->
<g id="edge17_Node000015_Node000006" class="edge">
<title>Node15&#45;&gt;Node6</title>
<g id="a_edge17_Node000015_Node000006"><a xlink:title=" ">
<path fill="none" stroke="#63b8ff" d="M385.09,-170.38C361.21,-162.56 328.39,-149.12 305,-129 290.27,-116.33 278.86,-97.07 271.86,-83.09"/>
<polygon fill="#63b8ff" stroke="#63b8ff" points="275.01,-81.55 267.56,-74.01 268.68,-84.54 275.01,-81.55"/>
</a>
</g>
</g>
<!-- Node15&#45;&gt;Node11 -->
<g id="edge18_Node000015_Node000011" class="edge">
<title>Node15&#45;&gt;Node11</title>
<g id="a_edge18_Node000015_Node000011"><a xlink:title=" ">
<path fill="none" stroke="#63b8ff" d="M421.19,-170.18C427.04,-160.22 436.8,-143.5 445,-129 453.7,-113.61 463.39,-95.99 470.36,-83.23"/>
<polygon fill="#63b8ff" stroke="#63b8ff" points="473.59,-84.62 475.3,-74.16 467.45,-81.27 473.59,-84.62"/>
</a>
</g>
</g>
<!-- Node16 -->
<g id="Node000016" class="node">
<title>Node16</title>
<g id="a_Node000016"><a xlink:title=" ">
<polygon fill="#e0e0e0" stroke="#999999" points="427.5,-74 380.5,-74 380.5,-55 427.5,-55 427.5,-74"/>
<text text-anchor="middle" x="404" y="-62" font-family="Helvetica,sans-Serif" font-size="10.00">vector</text>
</a>
</g>
</g>
<!-- Node15&#45;&gt;Node16 -->
<g id="edge19_Node000015_Node000016" class="edge">
<title>Node15&#45;&gt;Node16</title>
<g id="a_edge19_Node000015_Node000016"><a xlink:title=" ">
<path fill="none" stroke="#63b8ff" d="M420.29,-170.42C426.28,-157.29 435.81,-131.47 430,-110 427.34,-100.19 421.93,-90.33 416.72,-82.39"/>
<polygon fill="#63b8ff" stroke="#63b8ff" points="419.5,-80.25 410.89,-74.07 413.77,-84.27 419.5,-80.25"/>
</a>
</g>
</g>
<!-- Node17 -->
<g id="Node000017" class="node">
<title>Node17</title>
<g id="a_Node000017"><a xlink:href="../../d7/d38/UniqueVariant_8hpp.html" target="_top" xlink:title=" ">
<polygon fill="white" stroke="#666666" points="421.5,-129 314.5,-129 314.5,-110 421.5,-110 421.5,-129"/>
<text text-anchor="middle" x="368" y="-117" font-family="Helvetica,sans-Serif" font-size="10.00">UniqueVariant.hpp</text>
</a>
</g>
</g>
<!-- Node15&#45;&gt;Node17 -->
<g id="edge20_Node000015_Node000017" class="edge">
<title>Node15&#45;&gt;Node17</title>
<g id="a_edge20_Node000015_Node000017"><a xlink:title=" ">
<path fill="none" stroke="#63b8ff" d="M408.92,-170.37C401.76,-161.64 390.51,-147.93 381.61,-137.09"/>
<polygon fill="#63b8ff" stroke="#63b8ff" points="384.16,-134.68 375.11,-129.17 378.75,-139.12 384.16,-134.68"/>
</a>
</g>
</g>
<!-- Node15&#45;&gt;Node19 -->
<g id="edge26_Node000015_Node000019" class="edge">
<title>Node15&#45;&gt;Node19</title>
<g id="a_edge26_Node000015_Node000019"><a xlink:title=" ">
<path fill="none" stroke="#63b8ff" d="M459.91,-170.49C513.93,-160.03 605.61,-142.27 663.91,-130.98"/>
<polygon fill="#63b8ff" stroke="#63b8ff" points="664.88,-134.35 674.03,-129.02 663.55,-127.48 664.88,-134.35"/>
</a>
</g>
</g>
<!-- Node17&#45;&gt;Node6 -->
<g id="edge22_Node000017_Node000006" class="edge">
<title>Node17&#45;&gt;Node6</title>
<g id="a_edge22_Node000017_Node000006"><a xlink:title=" ">
<path fill="none" stroke="#63b8ff" d="M351.29,-109.98C334.79,-101.57 309.3,-88.59 290.12,-78.81"/>
<polygon fill="#63b8ff" stroke="#63b8ff" points="291.51,-75.59 281.01,-74.17 288.33,-81.83 291.51,-75.59"/>
</a>
</g>
</g>
<!-- Node17&#45;&gt;Node9 -->
<g id="edge21_Node000017_Node000009" class="edge">
<title>Node17&#45;&gt;Node9</title>
<g id="a_edge21_Node000017_Node000009"><a xlink:title=" ">
<path fill="none" stroke="#63b8ff" d="M334.42,-109.98C296.39,-100.34 234.64,-84.68 195.46,-74.75"/>
<polygon fill="#63b8ff" stroke="#63b8ff" points="196.09,-71.29 185.53,-72.23 194.37,-78.08 196.09,-71.29"/>
</a>
</g>
</g>
<!-- Node17&#45;&gt;Node11 -->
<g id="edge23_Node000017_Node000011" class="edge">
<title>Node17&#45;&gt;Node11</title>
<g id="a_edge23_Node000017_Node000011"><a xlink:title=" ">
<path fill="none" stroke="#63b8ff" d="M385.99,-109.98C403.93,-101.5 431.72,-88.35 452.43,-78.54"/>
<polygon fill="#63b8ff" stroke="#63b8ff" points="454.14,-81.61 461.68,-74.17 451.14,-75.28 454.14,-81.61"/>
</a>
</g>
</g>
<!-- Node17&#45;&gt;Node16 -->
<g id="edge25_Node000017_Node000016" class="edge">
<title>Node17&#45;&gt;Node16</title>
<g id="a_edge25_Node000017_Node000016"><a xlink:title=" ">
<path fill="none" stroke="#63b8ff" d="M373.94,-109.75C378.98,-102.34 386.34,-91.5 392.51,-82.41"/>
<polygon fill="#63b8ff" stroke="#63b8ff" points="395.44,-84.33 398.17,-74.09 389.65,-80.39 395.44,-84.33"/>
</a>
</g>
</g>
<!-- Node18 -->
<g id="Node000018" class="node">
<title>Node18</title>
<g id="a_Node000018"><a xlink:title=" ">
<polygon fill="#e0e0e0" stroke="#999999" points="362.5,-74 311.5,-74 311.5,-55 362.5,-55 362.5,-74"/>
<text text-anchor="middle" x="337" y="-62" font-family="Helvetica,sans-Serif" font-size="10.00">variant</text>
</a>
</g>
</g>
<!-- Node17&#45;&gt;Node18 -->
<g id="edge24_Node000017_Node000018" class="edge">
<title>Node17&#45;&gt;Node18</title>
<g id="a_edge24_Node000017_Node000018"><a xlink:title=" ">
<path fill="none" stroke="#63b8ff" d="M362.88,-109.75C358.64,-102.49 352.47,-91.95 347.22,-82.98"/>
<polygon fill="#63b8ff" stroke="#63b8ff" points="350.09,-80.95 342.02,-74.09 344.05,-84.49 350.09,-80.95"/>
</a>
</g>
</g>
<!-- Node19&#45;&gt;Node3 -->
<g id="edge28_Node000019_Node000003" class="edge">
<title>Node19&#45;&gt;Node3</title>
<g id="a_edge28_Node000019_Node000003"><a xlink:title=" ">
<path fill="none" stroke="#63b8ff" d="M812.31,-109.98C881.62,-102.95 978.22,-91.56 1070.75,-74.25"/>
<polygon fill="#63b8ff" stroke="#63b8ff" points="1071.68,-77.63 1080.85,-72.33 1070.37,-70.76 1071.68,-77.63"/>
</a>
</g>
</g>
<!-- Node19&#45;&gt;Node11 -->
<g id="edge34_Node000019_Node000011" class="edge">
<title>Node19&#45;&gt;Node11</title>
<g id="a_edge34_Node000019_Node000011"><a xlink:title=" ">
<path fill="none" stroke="#63b8ff" d="M679.76,-109.98C637.46,-100.56 569.38,-85.4 524.66,-75.45"/>
<polygon fill="#63b8ff" stroke="#63b8ff" points="525.18,-71.98 514.66,-73.22 523.66,-78.81 525.18,-71.98"/>
</a>
</g>
</g>
<!-- Node19&#45;&gt;Node16 -->
<g id="edge35_Node000019_Node000016" class="edge">
<title>Node19&#45;&gt;Node16</title>
<g id="a_edge35_Node000019_Node000016"><a xlink:title=" ">
<path fill="none" stroke="#63b8ff" d="M651.55,-109.99C596.53,-102.49 516.15,-90.49 437.75,-74.2"/>
<polygon fill="#63b8ff" stroke="#63b8ff" points="438.21,-70.72 427.7,-72.09 436.77,-77.57 438.21,-70.72"/>
</a>
</g>
</g>
<!-- Node20 -->
<g id="Node000020" class="node">
<title>Node20</title>
<g id="a_Node000020"><a xlink:title=" ">
<polygon fill="#e0e0e0" stroke="#999999" points="853,-19 803,-19 803,0 853,0 853,-19"/>
<text text-anchor="middle" x="828" y="-7" font-family="Helvetica,sans-Serif" font-size="10.00">cstdint</text>
</a>
</g>
</g>
<!-- Node19&#45;&gt;Node20 -->
<g id="edge27_Node000019_Node000020" class="edge">
<title>Node19&#45;&gt;Node20</title>
<g id="a_edge27_Node000019_Node000020"><a xlink:title=" ">
<path fill="none" stroke="#63b8ff" d="M753.07,-109.95C773.09,-103.33 797.1,-92.14 812,-74 822.26,-61.51 826.06,-43.3 827.41,-29.59"/>
<polygon fill="#63b8ff" stroke="#63b8ff" points="830.92,-29.54 828.05,-19.34 823.93,-29.1 830.92,-29.54"/>
</a>
</g>
</g>
<!-- Node21 -->
<g id="Node000021" class="node">
<title>Node21</title>
<g id="a_Node000021"><a xlink:title=" ">
<polygon fill="#e0e0e0" stroke="#999999" points="589,-74 533,-74 533,-55 589,-55 589,-74"/>
<text text-anchor="middle" x="561" y="-62" font-family="Helvetica,sans-Serif" font-size="10.00">iomanip</text>
</a>
</g>
</g>
<!-- Node19&#45;&gt;Node21 -->
<g id="edge29_Node000019_Node000021" class="edge">
<title>Node19&#45;&gt;Node21</title>
<g id="a_edge29_Node000019_Node000021"><a xlink:title=" ">
<path fill="none" stroke="#63b8ff" d="M692.78,-109.98C666.64,-101.16 625.6,-87.31 596.27,-77.41"/>
<polygon fill="#63b8ff" stroke="#63b8ff" points="597.02,-73.96 586.42,-74.08 594.78,-80.6 597.02,-73.96"/>
</a>
</g>
</g>
<!-- Node22 -->
<g id="Node000022" class="node">
<title>Node22</title>
<g id="a_Node000022"><a xlink:title=" ">
<polygon fill="#e0e0e0" stroke="#999999" points="667,-74 607,-74 607,-55 667,-55 667,-74"/>
<text text-anchor="middle" x="637" y="-62" font-family="Helvetica,sans-Serif" font-size="10.00">iostream</text>
</a>
</g>
</g>
<!-- Node19&#45;&gt;Node22 -->
<g id="edge30_Node000019_Node000022" class="edge">
<title>Node19&#45;&gt;Node22</title>
<g id="a_edge30_Node000019_Node000022"><a xlink:title=" ">
<path fill="none" stroke="#63b8ff" d="M704.99,-109.98C692.54,-101.84 673.54,-89.41 658.79,-79.76"/>
<polygon fill="#63b8ff" stroke="#63b8ff" points="660.54,-76.72 650.25,-74.17 656.7,-82.57 660.54,-76.72"/>
</a>
</g>
</g>
<!-- Node23 -->
<g id="Node000023" class="node">
<title>Node23</title>
<g id="a_Node000023"><a xlink:title=" ">
<polygon fill="#e0e0e0" stroke="#999999" points="729,-74 685,-74 685,-55 729,-55 729,-74"/>
<text text-anchor="middle" x="707" y="-62" font-family="Helvetica,sans-Serif" font-size="10.00">limits</text>
</a>
</g>
</g>
<!-- Node19&#45;&gt;Node23 -->
<g id="edge31_Node000019_Node000023" class="edge">
<title>Node19&#45;&gt;Node23</title>
<g id="a_edge31_Node000019_Node000023"><a xlink:title=" ">
<path fill="none" stroke="#63b8ff" d="M716.18,-109.75C714.74,-102.8 712.68,-92.85 710.87,-84.13"/>
<polygon fill="#63b8ff" stroke="#63b8ff" points="714.24,-83.17 708.78,-74.09 707.39,-84.59 714.24,-83.17"/>
</a>
</g>
</g>
<!-- Node24 -->
<g id="Node000024" class="node">
<title>Node24</title>
<g id="a_Node000024"><a xlink:title=" ">
<polygon fill="#e0e0e0" stroke="#999999" points="803,-74 747,-74 747,-55 803,-55 803,-74"/>
<text text-anchor="middle" x="775" y="-62" font-family="Helvetica,sans-Serif" font-size="10.00">sstream</text>
</a>
</g>
</g>
<!-- Node19&#45;&gt;Node24 -->
<g id="edge32_Node000019_Node000024" class="edge">
<title>Node19&#45;&gt;Node24</title>
<g id="a_edge32_Node000019_Node000024"><a xlink:title=" ">
<path fill="none" stroke="#63b8ff" d="M727.16,-109.98C735.5,-102.23 748.03,-90.58 758.18,-81.14"/>
<polygon fill="#63b8ff" stroke="#63b8ff" points="760.74,-83.54 765.68,-74.17 755.97,-78.42 760.74,-83.54"/>
</a>
</g>
</g>
<!-- Node25 -->
<g id="Node000025" class="node">
<title>Node25</title>
<g id="a_Node000025"><a xlink:title=" ">
<polygon fill="#e0e0e0" stroke="#999999" points="944.5,-19 871.5,-19 871.5,0 944.5,0 944.5,-19"/>
<text text-anchor="middle" x="908" y="-7" font-family="Helvetica,sans-Serif" font-size="10.00">string_view</text>
</a>
</g>
</g>
<!-- Node19&#45;&gt;Node25 -->
<g id="edge33_Node000019_Node000025" class="edge">
<title>Node19&#45;&gt;Node25</title>
<g id="a_edge33_Node000019_Node000025"><a xlink:title=" ">
<path fill="none" stroke="#63b8ff" d="M747.3,-109.97C771.06,-102.38 804.94,-90.01 832,-74 854.73,-60.56 877.53,-40.39 892.15,-26.41"/>
<polygon fill="#63b8ff" stroke="#63b8ff" points="894.66,-28.85 899.37,-19.36 889.77,-23.84 894.66,-28.85"/>
</a>
</g>
</g>
<!-- Node26 -->
<g id="Node000026" class="node">
<title>Node26</title>
<g id="a_Node000026"><a xlink:href="../../d4/d9e/FieldFlags_8hpp.html" target="_top" xlink:title="Common enums and utilities for protocol field names and flags.">
<polygon fill="white" stroke="#666666" points="1063.5,-74 896.5,-74 896.5,-55 1063.5,-55 1063.5,-74"/>
<text text-anchor="middle" x="980" y="-62" font-family="Helvetica,sans-Serif" font-size="10.00">prototypes/field/FieldFlags.hpp</text>
</a>
</g>
</g>
<!-- Node19&#45;&gt;Node26 -->
<g id="edge36_Node000019_Node000026" class="edge">
<title>Node19&#45;&gt;Node26</title>
<g id="a_edge36_Node000019_Node000026"><a xlink:title=" ">
<path fill="none" stroke="#63b8ff" d="M760.09,-109.98C805.7,-100.76 878.52,-86.03 927.75,-76.07"/>
<polygon fill="#63b8ff" stroke="#63b8ff" points="928.47,-79.5 937.58,-74.08 927.08,-72.63 928.47,-79.5"/>
</a>
</g>
</g>
<!-- Node26&#45;&gt;Node20 -->
<g id="edge38_Node000026_Node000020" class="edge">
<title>Node26&#45;&gt;Node20</title>
<g id="a_edge38_Node000026_Node000020"><a xlink:title=" ">
<path fill="none" stroke="#63b8ff" d="M955.58,-54.98C930.28,-46.16 890.55,-32.31 862.14,-22.41"/>
<polygon fill="#63b8ff" stroke="#63b8ff" points="863.21,-19.07 852.61,-19.08 860.9,-25.68 863.21,-19.07"/>
</a>
</g>
</g>
<!-- Node26&#45;&gt;Node25 -->
<g id="edge40_Node000026_Node000025" class="edge">
<title>Node26&#45;&gt;Node25</title>
<g id="a_edge40_Node000026_Node000025"><a xlink:title=" ">
<path fill="none" stroke="#63b8ff" d="M968.43,-54.98C957.58,-47 941.12,-34.88 928.12,-25.31"/>
<polygon fill="#63b8ff" stroke="#63b8ff" points="929.91,-22.28 919.78,-19.17 925.76,-27.92 929.91,-22.28"/>
</a>
</g>
</g>
<!-- Node27 -->
<g id="Node000027" class="node">
<title>Node27</title>
<g id="a_Node000027"><a xlink:title=" ">
<polygon fill="#e0e0e0" stroke="#999999" points="1005,-19 963,-19 963,0 1005,0 1005,-19"/>
<text text-anchor="middle" x="984" y="-7" font-family="Helvetica,sans-Serif" font-size="10.00">array</text>
</a>
</g>
</g>
<!-- Node26&#45;&gt;Node27 -->
<g id="edge37_Node000026_Node000027" class="edge">
<title>Node26&#45;&gt;Node27</title>
<g id="a_edge37_Node000026_Node000027"><a xlink:title=" ">
<path fill="none" stroke="#63b8ff" d="M980.66,-54.75C981.18,-47.8 981.94,-37.85 982.59,-29.13"/>
<polygon fill="#63b8ff" stroke="#63b8ff" points="986.09,-29.32 983.35,-19.09 979.11,-28.8 986.09,-29.32"/>
</a>
</g>
</g>
<!-- Node28 -->
<g id="Node000028" class="node">
<title>Node28</title>
<g id="a_Node000028"><a xlink:title=" ">
<polygon fill="#e0e0e0" stroke="#999999" points="1080.5,-19 1023.5,-19 1023.5,0 1080.5,0 1080.5,-19"/>
<text text-anchor="middle" x="1052" y="-7" font-family="Helvetica,sans-Serif" font-size="10.00">ostream</text>
</a>
</g>
</g>
<!-- Node26&#45;&gt;Node28 -->
<g id="edge39_Node000026_Node000028" class="edge">
<title>Node26&#45;&gt;Node28</title>
<g id="a_edge39_Node000026_Node000028"><a xlink:title=" ">
<path fill="none" stroke="#63b8ff" d="M991.57,-54.98C1002.42,-47 1018.88,-34.88 1031.88,-25.31"/>
<polygon fill="#63b8ff" stroke="#63b8ff" points="1034.24,-27.92 1040.22,-19.17 1030.09,-22.28 1034.24,-27.92"/>
</a>
</g>
</g>
</g>
</svg>

<g id="navigator" transform="translate(0 0)" fill="#404254">
  <rect fill="#f2f5e9" fill-opacity="0.5" stroke="#606060" stroke-width=".5" x="0" y="0" width="60" height="60"/>
  <use id="zoomplus" xlink:href="#zoomPlus" x="17" y="9" onmousedown="handleZoom(evt,'in')"/>
  <use id="zoomminus" xlink:href="#zoomMin" x="42" y="9" onmousedown="handleZoom(evt,'out')"/>
  <use id="reset" xlink:href="#resetDef" x="30" y="36" onmousedown="handleReset()"/>
   <use id="arrowup" xlink:href="#arrowUp" x="0" y="0" onmousedown="handlePan(0,-1)"/>
  <use id="arrowright" xlink:href="#arrowRight" x="0" y="0" onmousedown="handlePan(1,0)"/>
  <use id="arrowdown" xlink:href="#arrowDown" x="0" y="0" onmousedown="handlePan(0,1)"/>
  <use id="arrowleft" xlink:href="#arrowLeft" x="0" y="0" onmousedown="handlePan(-1,0)"/>
</g>
<svg viewBox="0 0 15 15" width="100%" height="30px" preserveAspectRatio="xMaxYMin meet">
 <g id="arrow_out" transform="scale(0.3 0.3)">
  <a xlink:href="RxContainer_8hpp__incl_org.svg" target="_base">
   <rect id="button" ry="5" rx="5" y="6" x="6" height="38" width="38"
        fill="#f2f5e9" fill-opacity="0.5" stroke="#606060" stroke-width="1.0"/>
   <path id="arrow"
     d="M 11.500037,31.436501 C 11.940474,20.09759 22.043105,11.32322 32.158766,21.979434 L 37.068811,17.246167 C 37.068811,17.246167 37.088388,32 37.088388,32 L 22.160133,31.978069 C 22.160133,31.978069 26.997745,27.140456 26.997745,27.140456 C 18.528582,18.264221 13.291696,25.230495 11.500037,31.436501 z"
     style="fill:#404040;"/>
  </a>
 </g>
</svg>

<style type='text/css'>
<![CDATA[
[data-mouse-over-selected='false'] { opacity: 0.7; }
[data-mouse-over-selected='true']  { opacity: 1.0; }
]]>
</style>
<script type="application/ecmascript"><![CDATA[
document.addEventListener('DOMContentLoaded', (event) => {
  highlightEdges();
  highlightAdjacentNodes();
});
]]></script>
</svg>
