<?xml version="1.0" encoding="UTF-8" standalone="no"?>
<!DOCTYPE svg PUBLIC "-//W3C//DTD SVG 1.1//EN"
 "http://www.w3.org/Graphics/SVG/1.1/DTD/svg11.dtd">
<!-- Generated by graphviz version 2.43.0 (0)
 -->
<!-- Title: proto::exoAtlant::ExoAtlantProtocol_::serialize Pages: 1 -->
<svg width="385pt" height="145pt"
 viewBox="0.00 0.00 385.00 145.00" xmlns="http://www.w3.org/2000/svg" xmlns:xlink="http://www.w3.org/1999/xlink">
<g id="graph0" class="graph" transform="scale(1 1) rotate(0) translate(4 141)">
<title>proto::exoAtlant::ExoAtlantProtocol_::serialize</title>
<!-- Node1 -->
<g id="Node000001" class="node">
<title>Node1</title>
<g id="a_Node000001"><a xlink:title="Сериализация исходящего блока данных">
<polygon fill="#999999" stroke="#666666" points="147,-83.5 0,-83.5 0,-53.5 147,-53.5 147,-83.5"/>
<text text-anchor="start" x="8" y="-71.5" font-family="Helvetica,sans-Serif" font-size="10.00">proto::exoAtlant::ExoAtlant</text>
<text text-anchor="middle" x="73.5" y="-60.5" font-family="Helvetica,sans-Serif" font-size="10.00">Protocol_::serialize</text>
</a>
</g>
</g>
<!-- Node2 -->
<g id="Node000002" class="node">
<title>Node2</title>
<g id="a_Node000002"><a xlink:href="../../d6/d58/classCustomSpan.html#aa94cafb45950ce4dbcf4e57f6c22615a" target="_top" xlink:title=" ">
<polygon fill="white" stroke="#666666" points="333,-137 227,-137 227,-118 333,-118 333,-137"/>
<text text-anchor="middle" x="280" y="-125" font-family="Helvetica,sans-Serif" font-size="10.00">CustomSpan::data</text>
</a>
</g>
</g>
<!-- Node1&#45;&gt;Node2 -->
<g id="edge1_Node000001_Node000002" class="edge">
<title>Node1&#45;&gt;Node2</title>
<g id="a_edge1_Node000001_Node000002"><a xlink:title=" ">
<path fill="none" stroke="#63b8ff" d="M109.65,-83.58C130.63,-92.13 157.99,-102.49 183,-109.5 193.86,-112.54 205.56,-115.22 216.92,-117.52"/>
<polygon fill="#63b8ff" stroke="#63b8ff" points="216.32,-120.96 226.8,-119.44 217.65,-114.09 216.32,-120.96"/>
</a>
</g>
</g>
<!-- Node3 -->
<g id="Node000003" class="node">
<title>Node3</title>
<g id="a_Node000003"><a xlink:href="../../d3/d19/classproto_1_1ProtocolNoSysEndpoint.html#a0edc938ab2c7d12ca9defdf25ab767b8" target="_top" xlink:title=" ">
<polygon fill="white" stroke="#666666" points="377,-100 183,-100 183,-37 377,-37 377,-100"/>
<text text-anchor="start" x="191" y="-88" font-family="Helvetica,sans-Serif" font-size="10.00">proto::ProtocolNoSysEndpoint</text>
<text text-anchor="start" x="191" y="-77" font-family="Helvetica,sans-Serif" font-size="10.00">&lt; exoAtlantPacket&lt; RX_BASE</text>
<text text-anchor="start" x="191" y="-66" font-family="Helvetica,sans-Serif" font-size="10.00"> &gt;::packet_fields, exoAtlantPacket</text>
<text text-anchor="start" x="191" y="-55" font-family="Helvetica,sans-Serif" font-size="10.00">&lt; TX_BASE &gt;::packet_fields, custom</text>
<text text-anchor="middle" x="280" y="-44" font-family="Helvetica,sans-Serif" font-size="10.00">_crc &gt;::send</text>
</a>
</g>
</g>
<!-- Node1&#45;&gt;Node3 -->
<g id="edge2_Node000001_Node000003" class="edge">
<title>Node1&#45;&gt;Node3</title>
<g id="a_edge2_Node000001_Node000003"><a xlink:title=" ">
<path fill="none" stroke="#63b8ff" d="M147.17,-68.5C155.51,-68.5 164.13,-68.5 172.79,-68.5"/>
<polygon fill="#63b8ff" stroke="#63b8ff" points="172.96,-72 182.96,-68.5 172.96,-65 172.96,-72"/>
</a>
</g>
</g>
<!-- Node4 -->
<g id="Node000004" class="node">
<title>Node4</title>
<g id="a_Node000004"><a xlink:href="../../d6/d58/classCustomSpan.html#a7612ff42bfc672d97414e1e3ddc391b9" target="_top" xlink:title=" ">
<polygon fill="white" stroke="#666666" points="332,-19 228,-19 228,0 332,0 332,-19"/>
<text text-anchor="middle" x="280" y="-7" font-family="Helvetica,sans-Serif" font-size="10.00">CustomSpan::size</text>
</a>
</g>
</g>
<!-- Node1&#45;&gt;Node4 -->
<g id="edge3_Node000001_Node000004" class="edge">
<title>Node1&#45;&gt;Node4</title>
<g id="a_edge3_Node000001_Node000004"><a xlink:title=" ">
<path fill="none" stroke="#63b8ff" d="M111.18,-53.33C131.99,-45.15 158.65,-35.35 183,-28.5 194.13,-25.37 206.13,-22.56 217.75,-20.12"/>
<polygon fill="#63b8ff" stroke="#63b8ff" points="218.72,-23.49 227.83,-18.08 217.33,-16.63 218.72,-23.49"/>
</a>
</g>
</g>
</g>
</svg>
