<?xml version="1.0" encoding="UTF-8" standalone="no"?>
<!DOCTYPE svg PUBLIC "-//W3C//DTD SVG 1.1//EN"
 "http://www.w3.org/Graphics/SVG/1.1/DTD/svg11.dtd">
<!-- Generated by graphviz version 2.43.0 (0)
 -->
<!-- Title: Graphical Class Hierarchy Pages: 1 -->
<svg width="292pt" height="108pt"
 viewBox="0.00 0.00 292.00 108.00" xmlns="http://www.w3.org/2000/svg" xmlns:xlink="http://www.w3.org/1999/xlink">
<g id="graph0" class="graph" transform="scale(1 1) rotate(0) translate(4 104)">
<title>Graphical Class Hierarchy</title>
<!-- Node0 -->
<g id="Node000000" class="node">
<title>Node0</title>
<g id="a_Node000000"><a xlink:title=" ">
<polygon fill="#e0e0e0" stroke="#999999" points="122,-59 0,-59 0,-40 122,-40 122,-59"/>
<text text-anchor="middle" x="61" y="-47" font-family="Helvetica,sans-Serif" font-size="10.00">std::integral_constant</text>
</a>
</g>
</g>
<!-- Node1 -->
<g id="Node000001" class="node">
<title>Node1</title>
<g id="a_Node000001"><a xlink:href="d1/d28/structproto_1_1meta_1_1tl__index__of_3_01TypeList_3_01T_00_01Ts_8_8_8_01_4_00_01T_01_4.html" target="_top" xlink:title=" ">
<polygon fill="white" stroke="#666666" points="283.5,-100 158.5,-100 158.5,-59 283.5,-59 283.5,-100"/>
<text text-anchor="start" x="166.5" y="-88" font-family="Helvetica,sans-Serif" font-size="10.00">proto::meta::tl_index</text>
<text text-anchor="start" x="166.5" y="-77" font-family="Helvetica,sans-Serif" font-size="10.00">_of&lt; TypeList&lt; T, Ts...</text>
<text text-anchor="middle" x="221" y="-66" font-family="Helvetica,sans-Serif" font-size="10.00"> &gt;, T &gt;</text>
</a>
</g>
</g>
<!-- Node0&#45;&gt;Node1 -->
<g id="edge20_Node000000_Node000001" class="edge">
<title>Node0&#45;&gt;Node1</title>
<g id="a_edge20_Node000000_Node000001"><a xlink:title=" ">
<path fill="none" stroke="#63b8ff" d="M122.58,-61C134.32,-63.23 146.65,-65.57 158.43,-67.81"/>
<polygon fill="#63b8ff" stroke="#63b8ff" points="122.9,-57.5 112.43,-59.07 121.6,-64.38 122.9,-57.5"/>
</a>
</g>
</g>
<!-- Node2 -->
<g id="Node000002" class="node">
<title>Node2</title>
<g id="a_Node000002"><a xlink:href="d7/d30/structproto_1_1meta_1_1tl__index__of_3_01TypeList_3_01U_00_01Ts_8_8_8_01_4_00_01T_01_4.html" target="_top" xlink:title=" ">
<polygon fill="white" stroke="#666666" points="284,-41 158,-41 158,0 284,0 284,-41"/>
<text text-anchor="start" x="166" y="-29" font-family="Helvetica,sans-Serif" font-size="10.00">proto::meta::tl_index</text>
<text text-anchor="start" x="166" y="-18" font-family="Helvetica,sans-Serif" font-size="10.00">_of&lt; TypeList&lt; U, Ts...</text>
<text text-anchor="middle" x="221" y="-7" font-family="Helvetica,sans-Serif" font-size="10.00"> &gt;, T &gt;</text>
</a>
</g>
</g>
<!-- Node0&#45;&gt;Node2 -->
<g id="edge21_Node000000_Node000002" class="edge">
<title>Node0&#45;&gt;Node2</title>
<g id="a_edge21_Node000000_Node000002"><a xlink:title=" ">
<path fill="none" stroke="#63b8ff" d="M124.22,-38.08C135.32,-36.04 146.9,-33.92 158,-31.88"/>
<polygon fill="#63b8ff" stroke="#63b8ff" points="123.38,-34.68 114.17,-39.92 124.64,-41.56 123.38,-34.68"/>
</a>
</g>
</g>
</g>
</svg>
