<?xml version="1.0" encoding="UTF-8" standalone="no"?>
<!DOCTYPE svg PUBLIC "-//W3C//DTD SVG 1.1//EN"
 "http://www.w3.org/Graphics/SVG/1.1/DTD/svg11.dtd">
<!-- Generated by graphviz version 2.43.0 (0)
 -->
<!-- Title: Graphical Class Hierarchy Pages: 1 -->
<svg width="293pt" height="168pt"
 viewBox="0.00 0.00 293.00 167.50" xmlns="http://www.w3.org/2000/svg" xmlns:xlink="http://www.w3.org/1999/xlink">
<g id="graph0" class="graph" transform="scale(1 1) rotate(0) translate(4 163.5)">
<title>Graphical Class Hierarchy</title>
<!-- Node0 -->
<g id="Node000000" class="node">
<title>Node0</title>
<g id="a_Node000000"><a xlink:title=" ">
<polygon fill="#e0e0e0" stroke="#999999" points="89,-72.5 0,-72.5 0,-53.5 89,-53.5 89,-72.5"/>
<text text-anchor="middle" x="44.5" y="-60.5" font-family="Helvetica,sans-Serif" font-size="10.00">std::false_type</text>
</a>
</g>
</g>
<!-- Node1 -->
<g id="Node000001" class="node">
<title>Node1</title>
<g id="a_Node000001"><a xlink:href="db/d28/structproto_1_1FieldPrototype_1_1IsStdVector.html" target="_top" xlink:title=" ">
<polygon fill="white" stroke="#666666" points="285,-159.5 125,-159.5 125,-96.5 285,-96.5 285,-159.5"/>
<text text-anchor="start" x="133" y="-147.5" font-family="Helvetica,sans-Serif" font-size="10.00">proto::FieldPrototype</text>
<text text-anchor="start" x="133" y="-136.5" font-family="Helvetica,sans-Serif" font-size="10.00">&lt; NAME_, TYPE_, BASE</text>
<text text-anchor="start" x="133" y="-125.5" font-family="Helvetica,sans-Serif" font-size="10.00">_, FLAGS_, MAX_SIZE, SIZE,</text>
<text text-anchor="start" x="133" y="-114.5" font-family="Helvetica,sans-Serif" font-size="10.00"> CONST_VALUE_, MATCHER &gt;</text>
<text text-anchor="middle" x="205" y="-103.5" font-family="Helvetica,sans-Serif" font-size="10.00">::IsStdVector&lt; class &gt;</text>
</a>
</g>
</g>
<!-- Node0&#45;&gt;Node1 -->
<g id="edge17_Node000000_Node000001" class="edge">
<title>Node0&#45;&gt;Node1</title>
<g id="a_edge17_Node000000_Node000001"><a xlink:title=" ">
<path fill="none" stroke="#63b8ff" d="M78.23,-76.42C92.51,-82.28 109.9,-89.41 127.15,-96.48"/>
<polygon fill="#63b8ff" stroke="#63b8ff" points="79.47,-73.15 68.89,-72.59 76.81,-79.62 79.47,-73.15"/>
</a>
</g>
</g>
<!-- Node2 -->
<g id="Node000002" class="node">
<title>Node2</title>
<g id="a_Node000002"><a xlink:href="da/da9/structproto_1_1IsDataFieldPrototype.html" target="_top" xlink:title="Trait to detect DataFieldPrototype types.">
<polygon fill="white" stroke="#666666" points="280,-78 130,-78 130,-48 280,-48 280,-78"/>
<text text-anchor="start" x="138" y="-66" font-family="Helvetica,sans-Serif" font-size="10.00">proto::IsDataFieldPrototype</text>
<text text-anchor="middle" x="205" y="-55" font-family="Helvetica,sans-Serif" font-size="10.00">&lt; T, typename &gt;</text>
</a>
</g>
</g>
<!-- Node0&#45;&gt;Node2 -->
<g id="edge18_Node000000_Node000002" class="edge">
<title>Node0&#45;&gt;Node2</title>
<g id="a_edge18_Node000000_Node000002"><a xlink:title=" ">
<path fill="none" stroke="#63b8ff" d="M99.28,-63C109.17,-63 119.64,-63 129.99,-63"/>
<polygon fill="#63b8ff" stroke="#63b8ff" points="99.23,-59.5 89.23,-63 99.23,-66.5 99.23,-59.5"/>
</a>
</g>
</g>
<!-- Node3 -->
<g id="Node000003" class="node">
<title>Node3</title>
<g id="a_Node000003"><a xlink:href="db/d95/structproto_1_1meta_1_1tl__contains_3_01TypeList_3_4_00_01T_01_4.html" target="_top" xlink:title=" ">
<polygon fill="white" stroke="#666666" points="271.5,-30 138.5,-30 138.5,0 271.5,0 271.5,-30"/>
<text text-anchor="start" x="146.5" y="-18" font-family="Helvetica,sans-Serif" font-size="10.00">proto::meta::tl_contains</text>
<text text-anchor="middle" x="205" y="-7" font-family="Helvetica,sans-Serif" font-size="10.00">&lt; TypeList&lt;&gt;, T &gt;</text>
</a>
</g>
</g>
<!-- Node0&#45;&gt;Node3 -->
<g id="edge19_Node000000_Node000003" class="edge">
<title>Node0&#45;&gt;Node3</title>
<g id="a_edge19_Node000000_Node000003"><a xlink:title=" ">
<path fill="none" stroke="#63b8ff" d="M86.92,-50.46C107.54,-44.21 132.61,-36.62 154.26,-30.06"/>
<polygon fill="#63b8ff" stroke="#63b8ff" points="85.75,-47.15 77.19,-53.4 87.78,-53.85 85.75,-47.15"/>
</a>
</g>
</g>
</g>
</svg>
