<?xml version="1.0" encoding="UTF-8" standalone="no"?>
<!DOCTYPE svg PUBLIC "-//W3C//DTD SVG 1.1//EN"
 "http://www.w3.org/Graphics/SVG/1.1/DTD/svg11.dtd">
<!-- Generated by graphviz version 2.43.0 (0)
 -->
<!-- Title: Graphical Class Hierarchy Pages: 1 -->
<svg width="302pt" height="212pt"
 viewBox="0.00 0.00 302.00 212.00" xmlns="http://www.w3.org/2000/svg" xmlns:xlink="http://www.w3.org/1999/xlink">
<g id="graph0" class="graph" transform="scale(1 1) rotate(0) translate(4 208)">
<title>Graphical Class Hierarchy</title>
<!-- Node0 -->
<g id="Node000000" class="node">
<title>Node0</title>
<g id="a_Node000000"><a xlink:title=" ">
<polygon fill="#e0e0e0" stroke="#999999" points="84,-89.5 0,-89.5 0,-70.5 84,-70.5 84,-89.5"/>
<text text-anchor="middle" x="42" y="-77.5" font-family="Helvetica,sans-Serif" font-size="10.00">std::true_type</text>
</a>
</g>
</g>
<!-- Node1 -->
<g id="Node000001" class="node">
<title>Node1</title>
<g id="a_Node000001"><a xlink:href="d6/d3f/structproto_1_1FieldPrototype_1_1IsStdVector_3_01std_1_1vector_3_01U_00_01A_01_4_01_4.html" target="_top" xlink:title=" ">
<polygon fill="white" stroke="#666666" points="287,-204 127,-204 127,-130 287,-130 287,-204"/>
<text text-anchor="start" x="135" y="-192" font-family="Helvetica,sans-Serif" font-size="10.00">proto::FieldPrototype</text>
<text text-anchor="start" x="135" y="-181" font-family="Helvetica,sans-Serif" font-size="10.00">&lt; NAME_, TYPE_, BASE</text>
<text text-anchor="start" x="135" y="-170" font-family="Helvetica,sans-Serif" font-size="10.00">_, FLAGS_, MAX_SIZE, SIZE,</text>
<text text-anchor="start" x="135" y="-159" font-family="Helvetica,sans-Serif" font-size="10.00"> CONST_VALUE_, MATCHER &gt;</text>
<text text-anchor="start" x="135" y="-148" font-family="Helvetica,sans-Serif" font-size="10.00">::IsStdVector&lt; std::vector</text>
<text text-anchor="middle" x="207" y="-137" font-family="Helvetica,sans-Serif" font-size="10.00">&lt; U, A &gt; &gt;</text>
</a>
</g>
</g>
<!-- Node0&#45;&gt;Node1 -->
<g id="edge22_Node000000_Node000001" class="edge">
<title>Node0&#45;&gt;Node1</title>
<g id="a_edge22_Node000000_Node000001"><a xlink:title=" ">
<path fill="none" stroke="#63b8ff" d="M69.92,-94.37C88.1,-104.07 112.99,-117.36 136.52,-129.91"/>
<polygon fill="#63b8ff" stroke="#63b8ff" points="71.54,-91.26 61.07,-89.64 68.24,-97.44 71.54,-91.26"/>
</a>
</g>
</g>
<!-- Node2 -->
<g id="Node000002" class="node">
<title>Node2</title>
<g id="a_Node000002"><a xlink:href="d6/d4f/structproto_1_1IsDataFieldPrototype_3_01T_00_01std_1_1void__t_3_01decltype_07std_1_1remove__cv__6f0f04b2e30fbb93b5e802d2373c777f.html" target="_top" xlink:title=" ">
<polygon fill="white" stroke="#666666" points="294,-111.5 120,-111.5 120,-48.5 294,-48.5 294,-111.5"/>
<text text-anchor="start" x="128" y="-99.5" font-family="Helvetica,sans-Serif" font-size="10.00">proto::IsDataFieldPrototype</text>
<text text-anchor="start" x="128" y="-88.5" font-family="Helvetica,sans-Serif" font-size="10.00">&lt; T, std::void_t&lt; decltype</text>
<text text-anchor="start" x="128" y="-77.5" font-family="Helvetica,sans-Serif" font-size="10.00">(std::remove_cv_t&lt; std::remove</text>
<text text-anchor="start" x="128" y="-66.5" font-family="Helvetica,sans-Serif" font-size="10.00">_reference_t&lt; T &gt; &gt;::IS_DATA</text>
<text text-anchor="middle" x="207" y="-55.5" font-family="Helvetica,sans-Serif" font-size="10.00">_FIELD)&gt; &gt;</text>
</a>
</g>
</g>
<!-- Node0&#45;&gt;Node2 -->
<g id="edge23_Node000000_Node000002" class="edge">
<title>Node0&#45;&gt;Node2</title>
<g id="a_edge23_Node000000_Node000002"><a xlink:title=" ">
<path fill="none" stroke="#63b8ff" d="M94.19,-80C102.35,-80 110.99,-80 119.7,-80"/>
<polygon fill="#63b8ff" stroke="#63b8ff" points="94.13,-76.5 84.13,-80 94.13,-83.5 94.13,-76.5"/>
</a>
</g>
</g>
<!-- Node3 -->
<g id="Node000003" class="node">
<title>Node3</title>
<g id="a_Node000003"><a xlink:href="da/d65/structproto_1_1meta_1_1tl__contains_3_01TypeList_3_01T_00_01Ts_8_8_8_01_4_00_01T_01_4.html" target="_top" xlink:title=" ">
<polygon fill="white" stroke="#666666" points="279,-30 135,-30 135,0 279,0 279,-30"/>
<text text-anchor="start" x="143" y="-18" font-family="Helvetica,sans-Serif" font-size="10.00">proto::meta::tl_contains</text>
<text text-anchor="middle" x="207" y="-7" font-family="Helvetica,sans-Serif" font-size="10.00">&lt; TypeList&lt; T, Ts... &gt;, T &gt;</text>
</a>
</g>
</g>
<!-- Node0&#45;&gt;Node3 -->
<g id="edge24_Node000000_Node000003" class="edge">
<title>Node0&#45;&gt;Node3</title>
<g id="a_edge24_Node000000_Node000003"><a xlink:title=" ">
<path fill="none" stroke="#63b8ff" d="M68.09,-65.37C82.86,-57.17 102.1,-47.17 120,-40 128.95,-36.42 138.61,-33.1 148.11,-30.14"/>
<polygon fill="#63b8ff" stroke="#63b8ff" points="66.07,-62.49 59.08,-70.46 69.51,-68.59 66.07,-62.49"/>
</a>
</g>
</g>
</g>
</svg>
