<?xml version="1.0" encoding="UTF-8" standalone="no"?>
<!DOCTYPE svg PUBLIC "-//W3C//DTD SVG 1.1//EN"
 "http://www.w3.org/Graphics/SVG/1.1/DTD/svg11.dtd">
<!-- Generated by graphviz version 14.0.1 (20251006.0113)
 -->
<!-- Title: proto::lacte::to_string Pages: 1 -->
<svg width="270pt" height="285pt"
 viewBox="0.00 0.00 270.00 285.00" xmlns="http://www.w3.org/2000/svg" xmlns:xlink="http://www.w3.org/1999/xlink">

<svg id="main" version="1.1" xmlns="http://www.w3.org/2000/svg" xmlns:xlink="http://www.w3.org/1999/xlink" xml:space="preserve">

<style type="text/css"><![CDATA[
.node, .edge {opacity: 0.7;}
.node.selected, .edge.selected {opacity: 1;}
.edge:hover path { stroke: red; }
.edge:hover polygon { stroke: red; fill: red; }
]]></style>
<script type="application/ecmascript" xlink:href="../../svg.min.js"/>
<svg id="graph" class="graph">
<g id="graph0" class="graph" transform="scale(1 1) rotate(0) translate(4 280.88)">
<title>proto::lacte::to_string</title>
<!-- Node1 -->
<g id="Node000001" class="node">
<title>Node1</title>
<g id="a_Node000001"><a xlink:title=" ">
<polygon fill="#999999" stroke="#666666" points="262.25,-142.25 154,-142.25 154,-123 262.25,-123 262.25,-142.25"/>
<text xml:space="preserve" text-anchor="middle" x="208.12" y="-128.75" font-family="Helvetica,sans-Serif" font-size="10.00">proto::lacte::to_string</text>
</a>
</g>
</g>
<!-- Node2 -->
<g id="Node000002" class="node">
<title>Node2</title>
<g id="a_Node000002"><a xlink:href="../../d4/d4b/classproto_1_1lacte_1_1_board_error_diff.html#a1b09cf1bdc3afff7281a9ac43080d1b6" target="_top" xlink:title=" ">
<polygon fill="white" stroke="#666666" points="117.62,-276.88 0.38,-276.88 0.38,-246.38 117.62,-246.38 117.62,-276.88"/>
<text xml:space="preserve" text-anchor="start" x="8.38" y="-263.38" font-family="Helvetica,sans-Serif" font-size="10.00">proto::lacte::BoardError</text>
<text xml:space="preserve" text-anchor="middle" x="59" y="-252.12" font-family="Helvetica,sans-Serif" font-size="10.00">Diff::BoardErrorDiff</text>
</a>
</g>
</g>
<!-- Node1&#45;&gt;Node2 -->
<g id="edge1_Node000001_Node000002" class="edge">
<title>Node1&#45;&gt;Node2</title>
<g id="a_edge1_Node000001_Node000002"><a xlink:title=" ">
<path fill="none" stroke="#63b8ff" d="M194.72,-151.85C179.16,-174.68 150.55,-212.66 118,-236.62 113.32,-240.07 108.09,-243.16 102.74,-245.9"/>
<polygon fill="#63b8ff" stroke="#63b8ff" points="197.46,-154.06 200.08,-143.79 191.63,-150.18 197.46,-154.06"/>
</a>
</g>
</g>
<!-- Node3 -->
<g id="Node000003" class="node">
<title>Node3</title>
<g id="a_Node000003"><a xlink:href="../../d9/d72/classproto_1_1lacte_1_1_error_flags.html#a3c88af0107e585bc7464246ee93cc10b" target="_top" xlink:title=" ">
<polygon fill="white" stroke="#666666" points="116.88,-227.88 1.12,-227.88 1.12,-197.38 116.88,-197.38 116.88,-227.88"/>
<text xml:space="preserve" text-anchor="start" x="9.12" y="-214.38" font-family="Helvetica,sans-Serif" font-size="10.00">proto::lacte::ErrorFlags</text>
<text xml:space="preserve" text-anchor="middle" x="59" y="-203.12" font-family="Helvetica,sans-Serif" font-size="10.00">::ErrorFlags</text>
</a>
</g>
</g>
<!-- Node1&#45;&gt;Node3 -->
<g id="edge2_Node000001_Node000003" class="edge">
<title>Node1&#45;&gt;Node3</title>
<g id="a_edge2_Node000001_Node000003"><a xlink:title=" ">
<path fill="none" stroke="#63b8ff" d="M183.29,-149.15C165.7,-160.95 140.94,-176.78 118,-188.62 112.38,-191.52 106.34,-194.34 100.34,-196.97"/>
<polygon fill="#63b8ff" stroke="#63b8ff" points="185.19,-152.09 191.5,-143.57 181.26,-146.3 185.19,-152.09"/>
</a>
</g>
</g>
<!-- Node4 -->
<g id="Node000004" class="node">
<title>Node4</title>
<g id="a_Node000004"><a xlink:href="../../d3/d81/namespaceproto_1_1lacte.html#ab3e200cb44eff7d1a0c43991f9345cec" target="_top" xlink:title=" ">
<polygon fill="white" stroke="#666666" points="118,-179.25 0,-179.25 0,-160 118,-160 118,-179.25"/>
<text xml:space="preserve" text-anchor="middle" x="59" y="-165.75" font-family="Helvetica,sans-Serif" font-size="10.00">proto::lacte::operator&lt;&lt;</text>
</a>
</g>
</g>
<!-- Node1&#45;&gt;Node4 -->
<g id="edge3_Node000001_Node000004" class="edge">
<title>Node1&#45;&gt;Node4</title>
<g id="a_edge3_Node000001_Node000004"><a xlink:title=" ">
<path fill="none" stroke="#63b8ff" d="M155.87,-145.52C137.61,-150.11 117.34,-155.2 100.15,-159.53"/>
<polygon fill="#63b8ff" stroke="#63b8ff" points="156.61,-148.94 165.45,-143.1 154.9,-142.15 156.61,-148.94"/>
</a>
</g>
</g>
<!-- Node5 -->
<g id="Node000005" class="node">
<title>Node5</title>
<g id="a_Node000005"><a xlink:href="../../d3/d81/namespaceproto_1_1lacte.html#a8e059adc76ca059dc745bb461ab1a734" target="_top" xlink:title=" ">
<polygon fill="white" stroke="#666666" points="118,-142.25 0,-142.25 0,-123 118,-123 118,-142.25"/>
<text xml:space="preserve" text-anchor="middle" x="59" y="-128.75" font-family="Helvetica,sans-Serif" font-size="10.00">proto::lacte::operator&lt;&lt;</text>
</a>
</g>
</g>
<!-- Node1&#45;&gt;Node5 -->
<g id="edge4_Node000001_Node000005" class="edge">
<title>Node1&#45;&gt;Node5</title>
<g id="a_edge4_Node000001_Node000005"><a xlink:title=" ">
<path fill="none" stroke="#63b8ff" d="M142.17,-132.62C134.28,-132.62 126.25,-132.62 118.46,-132.62"/>
<polygon fill="#63b8ff" stroke="#63b8ff" points="142.08,-136.13 152.08,-132.63 142.08,-129.13 142.08,-136.13"/>
</a>
</g>
</g>
<!-- Node6 -->
<g id="Node000006" class="node">
<title>Node6</title>
<g id="a_Node000006"><a xlink:href="../../d3/d81/namespaceproto_1_1lacte.html#ade4b9a3162f7661c9b74f3c5dbbdd36a" target="_top" xlink:title=" ">
<polygon fill="white" stroke="#666666" points="118,-105.25 0,-105.25 0,-86 118,-86 118,-105.25"/>
<text xml:space="preserve" text-anchor="middle" x="59" y="-91.75" font-family="Helvetica,sans-Serif" font-size="10.00">proto::lacte::operator&lt;&lt;</text>
</a>
</g>
</g>
<!-- Node1&#45;&gt;Node6 -->
<g id="edge5_Node000001_Node000006" class="edge">
<title>Node1&#45;&gt;Node6</title>
<g id="a_edge5_Node000001_Node000006"><a xlink:title=" ">
<path fill="none" stroke="#63b8ff" d="M155.87,-119.73C137.61,-115.14 117.34,-110.05 100.15,-105.72"/>
<polygon fill="#63b8ff" stroke="#63b8ff" points="154.9,-123.1 165.45,-122.15 156.61,-116.31 154.9,-123.1"/>
</a>
</g>
</g>
<!-- Node7 -->
<g id="Node000007" class="node">
<title>Node7</title>
<g id="a_Node000007"><a xlink:href="../../d4/d4b/classproto_1_1lacte_1_1_board_error_diff.html#a49e688b8233e2046f0d3e2fcc267ad7c" target="_top" xlink:title=" ">
<polygon fill="white" stroke="#666666" points="117.62,-67.88 0.38,-67.88 0.38,-37.38 117.62,-37.38 117.62,-67.88"/>
<text xml:space="preserve" text-anchor="start" x="8.38" y="-54.38" font-family="Helvetica,sans-Serif" font-size="10.00">proto::lacte::BoardError</text>
<text xml:space="preserve" text-anchor="middle" x="59" y="-43.12" font-family="Helvetica,sans-Serif" font-size="10.00">Diff::to_string</text>
</a>
</g>
</g>
<!-- Node1&#45;&gt;Node7 -->
<g id="edge6_Node000001_Node000007" class="edge">
<title>Node1&#45;&gt;Node7</title>
<g id="a_edge6_Node000001_Node000007"><a xlink:title=" ">
<path fill="none" stroke="#63b8ff" d="M183.29,-116.1C165.7,-104.3 140.94,-88.47 118,-76.62 112.38,-73.73 106.34,-70.91 100.34,-68.28"/>
<polygon fill="#63b8ff" stroke="#63b8ff" points="181.26,-118.95 191.5,-121.68 185.19,-113.16 181.26,-118.95"/>
</a>
</g>
</g>
<!-- Node8 -->
<g id="Node000008" class="node">
<title>Node8</title>
<g id="a_Node000008"><a xlink:href="../../d3/d81/namespaceproto_1_1lacte.html#a87e4fa5e1440887689d672fc4d876b9d" target="_top" xlink:title=" ">
<polygon fill="white" stroke="#666666" points="113.12,-19.25 4.88,-19.25 4.88,0 113.12,0 113.12,-19.25"/>
<text xml:space="preserve" text-anchor="middle" x="59" y="-5.75" font-family="Helvetica,sans-Serif" font-size="10.00">proto::lacte::to_string</text>
</a>
</g>
</g>
<!-- Node1&#45;&gt;Node8 -->
<g id="edge7_Node000001_Node000008" class="edge">
<title>Node1&#45;&gt;Node8</title>
<g id="a_edge7_Node000001_Node000008"><a xlink:title=" ">
<path fill="none" stroke="#63b8ff" d="M195.31,-113.25C180.16,-89.96 151.77,-51.21 118,-28.62 112.63,-25.03 106.52,-22.07 100.34,-19.65"/>
<polygon fill="#63b8ff" stroke="#63b8ff" points="192.2,-114.89 200.5,-121.47 198.12,-111.15 192.2,-114.89"/>
</a>
</g>
</g>
</g>
</svg>
</svg>

<style type='text/css'>
<![CDATA[
[data-mouse-over-selected='false'] { opacity: 0.7; }
[data-mouse-over-selected='true']  { opacity: 1.0; }
]]>
</style>
<script type="application/ecmascript"><![CDATA[
document.addEventListener('DOMContentLoaded', (event) => {
  highlightEdges();
  highlightAdjacentNodes();
});
]]></script>
</svg>
