<?xml version="1.0" encoding="UTF-8" standalone="no"?>
<!DOCTYPE svg PUBLIC "-//W3C//DTD SVG 1.1//EN"
 "http://www.w3.org/Graphics/SVG/1.1/DTD/svg11.dtd">
<!-- Generated by graphviz version 14.0.1 (20251006.0113)
 -->
<!-- Title: proto::lacte::parse_uint_sv Pages: 1 -->
<svg width="276pt" height="529pt"
 viewBox="0.00 0.00 276.00 529.00" xmlns="http://www.w3.org/2000/svg" xmlns:xlink="http://www.w3.org/1999/xlink">
<g id="graph0" class="graph" transform="scale(1 1) rotate(0) translate(4 524.5)">
<title>proto::lacte::parse_uint_sv</title>
<!-- Node1 -->
<g id="Node000001" class="node">
<title>Node1</title>
<g id="a_Node000001"><a xlink:title=" ">
<polygon fill="#999999" stroke="#666666" points="268.25,-275.5 173.5,-275.5 173.5,-245 268.25,-245 268.25,-275.5"/>
<text xml:space="preserve" text-anchor="start" x="181.5" y="-262" font-family="Helvetica,sans-Serif" font-size="10.00">proto::lacte::parse</text>
<text xml:space="preserve" text-anchor="middle" x="220.88" y="-250.75" font-family="Helvetica,sans-Serif" font-size="10.00">_uint_sv</text>
</a>
</g>
</g>
<!-- Node2 -->
<g id="Node000002" class="node">
<title>Node2</title>
<g id="a_Node000002"><a xlink:href="../../de/d0a/structproto_1_1lacte_1_1_activation_time.html#ade9b8772ddc9ad463c280ac3f751ed85" target="_top" xlink:title=" ">
<polygon fill="white" stroke="#666666" points="125.88,-520.5 11.62,-520.5 11.62,-490 125.88,-490 125.88,-520.5"/>
<text xml:space="preserve" text-anchor="start" x="19.62" y="-507" font-family="Helvetica,sans-Serif" font-size="10.00">proto::lacte::Activation</text>
<text xml:space="preserve" text-anchor="middle" x="68.75" y="-495.75" font-family="Helvetica,sans-Serif" font-size="10.00">Time::ActivationTime</text>
</a>
</g>
</g>
<!-- Node1&#45;&gt;Node2 -->
<g id="edge1_Node000001_Node000002" class="edge">
<title>Node1&#45;&gt;Node2</title>
<g id="a_edge1_Node000001_Node000002"><a xlink:title=" ">
<path fill="none" stroke="#63b8ff" d="M217.01,-287.28C210.75,-333.08 191.78,-426.23 137.5,-480.25 133.86,-483.88 129.64,-486.98 125.13,-489.64"/>
<polygon fill="#63b8ff" stroke="#63b8ff" points="220.47,-287.8 218.24,-277.44 213.52,-286.93 220.47,-287.8"/>
</a>
</g>
</g>
<!-- Node3 -->
<g id="Node000003" class="node">
<title>Node3</title>
<g id="a_Node000003"><a xlink:href="../../d9/d0c/structproto_1_1lacte_1_1_drink_counter.html#a25a0408b9029224deae1f35cbcb4c97e" target="_top" xlink:title=" ">
<polygon fill="white" stroke="#666666" points="133,-471.5 4.5,-471.5 4.5,-441 133,-441 133,-471.5"/>
<text xml:space="preserve" text-anchor="start" x="12.5" y="-458" font-family="Helvetica,sans-Serif" font-size="10.00">proto::lacte::DrinkCounter</text>
<text xml:space="preserve" text-anchor="middle" x="68.75" y="-446.75" font-family="Helvetica,sans-Serif" font-size="10.00">::DrinkCounter</text>
</a>
</g>
</g>
<!-- Node1&#45;&gt;Node3 -->
<g id="edge2_Node000001_Node000003" class="edge">
<title>Node1&#45;&gt;Node3</title>
<g id="a_edge2_Node000001_Node000003"><a xlink:title=" ">
<path fill="none" stroke="#63b8ff" d="M213.79,-286.8C203.95,-324.04 181.07,-391.65 137.5,-431.25 133.51,-434.88 128.95,-437.99 124.12,-440.66"/>
<polygon fill="#63b8ff" stroke="#63b8ff" points="217.13,-287.87 216.17,-277.32 210.34,-286.16 217.13,-287.87"/>
</a>
</g>
</g>
<!-- Node4 -->
<g id="Node000004" class="node">
<title>Node4</title>
<g id="a_Node000004"><a xlink:href="../../d0/d28/structproto_1_1lacte_1_1_lacte_id.html#a2152a76aeb6e567ded2cf96dfb05a669" target="_top" xlink:title=" ">
<polygon fill="white" stroke="#666666" points="120.25,-422.5 17.25,-422.5 17.25,-392 120.25,-392 120.25,-422.5"/>
<text xml:space="preserve" text-anchor="start" x="25.25" y="-409" font-family="Helvetica,sans-Serif" font-size="10.00">proto::lacte::LacteId</text>
<text xml:space="preserve" text-anchor="middle" x="68.75" y="-397.75" font-family="Helvetica,sans-Serif" font-size="10.00">::LacteId</text>
</a>
</g>
</g>
<!-- Node1&#45;&gt;Node4 -->
<g id="edge3_Node000001_Node000004" class="edge">
<title>Node1&#45;&gt;Node4</title>
<g id="a_edge3_Node000001_Node000004"><a xlink:title=" ">
<path fill="none" stroke="#63b8ff" d="M208.47,-285.99C195.11,-313.4 170.55,-356.32 137.5,-382.25 132.37,-386.27 126.53,-389.69 120.48,-392.59"/>
<polygon fill="#63b8ff" stroke="#63b8ff" points="211.61,-287.54 212.7,-277 205.27,-284.56 211.61,-287.54"/>
</a>
</g>
</g>
<!-- Node5 -->
<g id="Node000005" class="node">
<title>Node5</title>
<g id="a_Node000005"><a xlink:href="../../d7/d8d/structproto_1_1lacte_1_1_lacte_sn.html#abf986bb0d8f5d47093b328ceeddcbdd4" target="_top" xlink:title=" ">
<polygon fill="white" stroke="#666666" points="122.12,-373.5 15.38,-373.5 15.38,-343 122.12,-343 122.12,-373.5"/>
<text xml:space="preserve" text-anchor="start" x="23.38" y="-360" font-family="Helvetica,sans-Serif" font-size="10.00">proto::lacte::LacteSn</text>
<text xml:space="preserve" text-anchor="middle" x="68.75" y="-348.75" font-family="Helvetica,sans-Serif" font-size="10.00">::LacteSn</text>
</a>
</g>
</g>
<!-- Node1&#45;&gt;Node5 -->
<g id="edge4_Node000001_Node000005" class="edge">
<title>Node1&#45;&gt;Node5</title>
<g id="a_edge4_Node000001_Node000005"><a xlink:title=" ">
<path fill="none" stroke="#63b8ff" d="M197.77,-284.01C182.15,-299.69 160.05,-319.75 137.5,-333.25 131.69,-336.73 125.32,-339.85 118.88,-342.61"/>
<polygon fill="#63b8ff" stroke="#63b8ff" points="200.22,-286.51 204.69,-276.9 195.2,-281.63 200.22,-286.51"/>
</a>
</g>
</g>
<!-- Node6 -->
<g id="Node000006" class="node">
<title>Node6</title>
<g id="a_Node000006"><a xlink:href="../../d8/d8a/structproto_1_1lacte_1_1_machine_sn.html#a8cbef160ab13397b51bd9500b504b114" target="_top" xlink:title=" ">
<polygon fill="white" stroke="#666666" points="128.5,-324.5 9,-324.5 9,-294 128.5,-294 128.5,-324.5"/>
<text xml:space="preserve" text-anchor="start" x="17" y="-311" font-family="Helvetica,sans-Serif" font-size="10.00">proto::lacte::MachineSn</text>
<text xml:space="preserve" text-anchor="middle" x="68.75" y="-299.75" font-family="Helvetica,sans-Serif" font-size="10.00">::MachineSn</text>
</a>
</g>
</g>
<!-- Node1&#45;&gt;Node6 -->
<g id="edge5_Node000001_Node000006" class="edge">
<title>Node1&#45;&gt;Node6</title>
<g id="a_edge5_Node000001_Node000006"><a xlink:title=" ">
<path fill="none" stroke="#63b8ff" d="M162.67,-278.92C147.92,-283.74 132.19,-288.87 117.95,-293.52"/>
<polygon fill="#63b8ff" stroke="#63b8ff" points="163.34,-282.39 171.76,-275.95 161.17,-275.73 163.34,-282.39"/>
</a>
</g>
</g>
<!-- Node7 -->
<g id="Node000007" class="node">
<title>Node7</title>
<g id="a_Node000007"><a xlink:href="../../df/dd7/structproto_1_1lacte_1_1_magic_word.html#afc7d90ff56595bf4e86246220adc87be" target="_top" xlink:title=" ">
<polygon fill="white" stroke="#666666" points="128.5,-275.5 9,-275.5 9,-245 128.5,-245 128.5,-275.5"/>
<text xml:space="preserve" text-anchor="start" x="17" y="-262" font-family="Helvetica,sans-Serif" font-size="10.00">proto::lacte::MagicWord</text>
<text xml:space="preserve" text-anchor="middle" x="68.75" y="-250.75" font-family="Helvetica,sans-Serif" font-size="10.00">::MagicWord</text>
</a>
</g>
</g>
<!-- Node1&#45;&gt;Node7 -->
<g id="edge6_Node000001_Node000007" class="edge">
<title>Node1&#45;&gt;Node7</title>
<g id="a_edge6_Node000001_Node000007"><a xlink:title=" ">
<path fill="none" stroke="#63b8ff" d="M161.73,-260.25C150.95,-260.25 139.68,-260.25 128.86,-260.25"/>
<polygon fill="#63b8ff" stroke="#63b8ff" points="161.68,-263.75 171.68,-260.25 161.68,-256.75 161.68,-263.75"/>
</a>
</g>
</g>
<!-- Node8 -->
<g id="Node000008" class="node">
<title>Node8</title>
<g id="a_Node000008"><a xlink:href="../../d6/deb/structproto_1_1lacte_1_1_prod_date.html#a5aa15ecf2a28bb424d87457071d33dca" target="_top" xlink:title=" ">
<polygon fill="white" stroke="#666666" points="124.75,-226.5 12.75,-226.5 12.75,-196 124.75,-196 124.75,-226.5"/>
<text xml:space="preserve" text-anchor="start" x="20.75" y="-213" font-family="Helvetica,sans-Serif" font-size="10.00">proto::lacte::ProdDate</text>
<text xml:space="preserve" text-anchor="middle" x="68.75" y="-201.75" font-family="Helvetica,sans-Serif" font-size="10.00">::ProdDate</text>
</a>
</g>
</g>
<!-- Node1&#45;&gt;Node8 -->
<g id="edge7_Node000001_Node000008" class="edge">
<title>Node1&#45;&gt;Node8</title>
<g id="a_edge7_Node000001_Node000008"><a xlink:title=" ">
<path fill="none" stroke="#63b8ff" d="M162.67,-241.58C147.92,-236.76 132.19,-231.63 117.95,-226.98"/>
<polygon fill="#63b8ff" stroke="#63b8ff" points="161.17,-244.77 171.76,-244.55 163.34,-238.11 161.17,-244.77"/>
</a>
</g>
</g>
<!-- Node9 -->
<g id="Node000009" class="node">
<title>Node9</title>
<g id="a_Node000009"><a xlink:href="../../d9/d99/structproto_1_1lacte_1_1_product_shelf_life.html#ae16e9a3a1e685ce474fd870090b4f1b5" target="_top" xlink:title=" ">
<polygon fill="white" stroke="#666666" points="132.25,-177.5 5.25,-177.5 5.25,-147 132.25,-147 132.25,-177.5"/>
<text xml:space="preserve" text-anchor="start" x="13.25" y="-164" font-family="Helvetica,sans-Serif" font-size="10.00">proto::lacte::ProductShelf</text>
<text xml:space="preserve" text-anchor="middle" x="68.75" y="-152.75" font-family="Helvetica,sans-Serif" font-size="10.00">Life::ProductShelfLife</text>
</a>
</g>
</g>
<!-- Node1&#45;&gt;Node9 -->
<g id="edge8_Node000001_Node000009" class="edge">
<title>Node1&#45;&gt;Node9</title>
<g id="a_edge8_Node000001_Node000009"><a xlink:title=" ">
<path fill="none" stroke="#63b8ff" d="M197.77,-236.49C182.15,-220.81 160.05,-200.75 137.5,-187.25 131.69,-183.77 125.32,-180.65 118.88,-177.89"/>
<polygon fill="#63b8ff" stroke="#63b8ff" points="195.2,-238.87 204.69,-243.6 200.22,-233.99 195.2,-238.87"/>
</a>
</g>
</g>
<!-- Node10 -->
<g id="Node000010" class="node">
<title>Node10</title>
<g id="a_Node000010"><a xlink:href="../../df/d79/structproto_1_1lacte_1_1_product_volume.html#a5f80165d79df6e9601122add8217b984" target="_top" xlink:title=" ">
<polygon fill="white" stroke="#666666" points="137.5,-128.5 0,-128.5 0,-98 137.5,-98 137.5,-128.5"/>
<text xml:space="preserve" text-anchor="start" x="8" y="-115" font-family="Helvetica,sans-Serif" font-size="10.00">proto::lacte::ProductVolume</text>
<text xml:space="preserve" text-anchor="middle" x="68.75" y="-103.75" font-family="Helvetica,sans-Serif" font-size="10.00">::ProductVolume</text>
</a>
</g>
</g>
<!-- Node1&#45;&gt;Node10 -->
<g id="edge9_Node000001_Node000010" class="edge">
<title>Node1&#45;&gt;Node10</title>
<g id="a_edge9_Node000001_Node000010"><a xlink:title=" ">
<path fill="none" stroke="#63b8ff" d="M208.47,-234.51C195.11,-207.1 170.55,-164.18 137.5,-138.25 132.96,-134.69 127.87,-131.6 122.56,-128.93"/>
<polygon fill="#63b8ff" stroke="#63b8ff" points="205.27,-235.94 212.7,-243.5 211.61,-232.96 205.27,-235.94"/>
</a>
</g>
</g>
<!-- Node11 -->
<g id="Node000011" class="node">
<title>Node11</title>
<g id="a_Node000011"><a xlink:href="../../dc/dc4/structproto_1_1lacte_1_1_time_counter.html#a1af21128c8e5a9d7d9059e804ed361ac" target="_top" xlink:title=" ">
<polygon fill="white" stroke="#666666" points="132.25,-79.5 5.25,-79.5 5.25,-49 132.25,-49 132.25,-79.5"/>
<text xml:space="preserve" text-anchor="start" x="13.25" y="-66" font-family="Helvetica,sans-Serif" font-size="10.00">proto::lacte::TimeCounter</text>
<text xml:space="preserve" text-anchor="middle" x="68.75" y="-54.75" font-family="Helvetica,sans-Serif" font-size="10.00">::TimeCounter</text>
</a>
</g>
</g>
<!-- Node1&#45;&gt;Node11 -->
<g id="edge10_Node000001_Node000011" class="edge">
<title>Node1&#45;&gt;Node11</title>
<g id="a_edge10_Node000001_Node000011"><a xlink:title=" ">
<path fill="none" stroke="#63b8ff" d="M213.79,-233.7C203.95,-196.46 181.07,-128.85 137.5,-89.25 133.51,-85.62 128.95,-82.51 124.12,-79.84"/>
<polygon fill="#63b8ff" stroke="#63b8ff" points="210.34,-234.34 216.17,-243.18 217.13,-232.63 210.34,-234.34"/>
</a>
</g>
</g>
<!-- Node12 -->
<g id="Node000012" class="node">
<title>Node12</title>
<g id="a_Node000012"><a xlink:href="../../d1/d60/structproto_1_1lacte_1_1_usage_time.html#a6481277125b16dcce69451a90fe94325" target="_top" xlink:title=" ">
<polygon fill="white" stroke="#666666" points="129.25,-30.5 8.25,-30.5 8.25,0 129.25,0 129.25,-30.5"/>
<text xml:space="preserve" text-anchor="start" x="16.25" y="-17" font-family="Helvetica,sans-Serif" font-size="10.00">proto::lacte::UsageTime</text>
<text xml:space="preserve" text-anchor="middle" x="68.75" y="-5.75" font-family="Helvetica,sans-Serif" font-size="10.00">::UsageTime</text>
</a>
</g>
</g>
<!-- Node1&#45;&gt;Node12 -->
<g id="edge11_Node000001_Node000012" class="edge">
<title>Node1&#45;&gt;Node12</title>
<g id="a_edge11_Node000001_Node000012"><a xlink:title=" ">
<path fill="none" stroke="#63b8ff" d="M217.01,-233.22C210.75,-187.42 191.78,-94.27 137.5,-40.25 133.86,-36.62 129.64,-33.52 125.13,-30.86"/>
<polygon fill="#63b8ff" stroke="#63b8ff" points="213.52,-233.57 218.24,-243.06 220.47,-232.7 213.52,-233.57"/>
</a>
</g>
</g>
</g>
</svg>
