<?xml version="1.0" encoding="UTF-8" standalone="no"?>
<!DOCTYPE svg PUBLIC "-//W3C//DTD SVG 1.1//EN"
 "http://www.w3.org/Graphics/SVG/1.1/DTD/svg11.dtd">
<!-- Generated by graphviz version 14.0.1 (20251006.0113)
 -->
<!-- Title: proto::lacte::mask Pages: 1 -->
<!--zoomable 333 -->

<svg id="main" version="1.1" xmlns="http://www.w3.org/2000/svg" xmlns:xlink="http://www.w3.org/1999/xlink" xml:space="preserve" onload="init(evt)">

<style type="text/css"><![CDATA[
.node, .edge {opacity: 0.7;}
.node.selected, .edge.selected {opacity: 1;}
.edge:hover path { stroke: red; }
.edge:hover polygon { stroke: red; fill: red; }
]]></style>

<defs>
  <circle id="rim" cx="0" cy="0" r="7"/>
  <circle id="rim2" cx="0" cy="0" r="3.5"/>
  <g id="zoomPlus">
    <use xlink:href="#rim" fill="#404040"><set attributeName="fill" to="#808080" begin="zoomplus.mouseover" end="zoomplus.mouseout"/></use>
    <path d="M-4,0h8M0,-4v8" fill="none" stroke="white" stroke-width="1.5" pointer-events="none"/>
  </g>
  <g id="zoomMin">
    <use xlink:href="#rim" fill="#404040"><set attributeName="fill" to="#808080" begin="zoomminus.mouseover" end="zoomminus.mouseout"/></use>
    <path d="M-4,0h8" fill="none" stroke="white" stroke-width="1.5" pointer-events="none"/>
  </g>
  <g id="arrowUp" transform="translate(30 24)">
    <use xlink:href="#rim"/>
    <path pointer-events="none" fill="none" stroke="white" stroke-width="1.5" d="M0,-3.0v7 M-2.5,-0.5L0,-3.0L2.5,-0.5"/>
  </g>
  <g id="arrowRight" transform="rotate(90) translate(36 -43)">
    <use xlink:href="#rim"/>
    <path pointer-events="none" fill="none" stroke="white" stroke-width="1.5" d="M0,-3.0v7 M-2.5,-0.5L0,-3.0L2.5,-0.5"/>
  </g>
  <g id="arrowDown" transform="rotate(180) translate(-30 -48)">
    <use xlink:href="#rim"/>
    <path pointer-events="none" fill="none" stroke="white" stroke-width="1.5" d="M0,-3.0v7 M-2.5,-0.5L0,-3.0L2.5,-0.5"/>
  </g>
  <g id="arrowLeft" transform="rotate(270) translate(-36 17)">
    <use xlink:href="#rim"/>
    <path pointer-events="none" fill="none" stroke="white" stroke-width="1.5" d="M0,-3.0v7 M-2.5,-0.5L0,-3.0L2.5,-0.5"/>
  </g>
  <g id="resetDef">
    <use xlink:href="#rim2" fill="#404040"><set attributeName="fill" to="#808080" begin="reset.mouseover" end="reset.mouseout"/></use>
  </g>
</defs>
<script type="application/ecmascript">
var viewWidth = 583;
var viewHeight = 333;
var sectionId = 'dynsection-0';
</script>
<script type="application/ecmascript" xlink:href="../../svg.min.js"/>
<svg id="graph" class="graph">
<g id="viewport">
<title>proto::lacte::mask</title>
<!-- Node1 -->
<g id="Node000001" class="node">
<title>Node1</title>
<g id="a_Node000001"><a xlink:title=" ">
<polygon fill="#999999" stroke="#666666" points="574.75,-143.88 480,-143.88 480,-124.62 574.75,-124.62 574.75,-143.88"/>
<text xml:space="preserve" text-anchor="middle" x="527.38" y="-130.38" font-family="Helvetica,sans-Serif" font-size="10.00">proto::lacte::mask</text>
</a>
</g>
</g>
<!-- Node2 -->
<g id="Node000002" class="node">
<title>Node2</title>
<g id="a_Node000002"><a xlink:href="../../d9/d72/classproto_1_1lacte_1_1_error_flags.html#a673ced74210ef0494d223cf63576d00c" target="_top" xlink:title=" ">
<polygon fill="white" stroke="#666666" points="433.12,-220.5 317.38,-220.5 317.38,-190 433.12,-190 433.12,-220.5"/>
<text xml:space="preserve" text-anchor="start" x="325.38" y="-207" font-family="Helvetica,sans-Serif" font-size="10.00">proto::lacte::ErrorFlags</text>
<text xml:space="preserve" text-anchor="middle" x="375.25" y="-195.75" font-family="Helvetica,sans-Serif" font-size="10.00">::clear</text>
</a>
</g>
</g>
<!-- Node1&#45;&gt;Node2 -->
<g id="edge1_Node000001_Node000002" class="edge">
<title>Node1&#45;&gt;Node2</title>
<g id="a_edge1_Node000001_Node000002"><a xlink:title=" ">
<path fill="none" stroke="#63b8ff" d="M500.37,-150.15C484.42,-159.55 463.41,-171.32 444,-180.25 436.94,-183.5 429.32,-186.64 421.84,-189.54"/>
<polygon fill="#63b8ff" stroke="#63b8ff" points="501.96,-153.28 508.75,-145.14 498.37,-147.27 501.96,-153.28"/>
</a>
</g>
</g>
<!-- Node3 -->
<g id="Node000003" class="node">
<title>Node3</title>
<g id="a_Node000003"><a xlink:href="../../d9/d72/classproto_1_1lacte_1_1_error_flags.html#a54a712a770dac1742b2d9963e48609be" target="_top" xlink:title=" ">
<polygon fill="white" stroke="#666666" points="433.12,-171.5 317.38,-171.5 317.38,-141 433.12,-141 433.12,-171.5"/>
<text xml:space="preserve" text-anchor="start" x="325.38" y="-158" font-family="Helvetica,sans-Serif" font-size="10.00">proto::lacte::ErrorFlags</text>
<text xml:space="preserve" text-anchor="middle" x="375.25" y="-146.75" font-family="Helvetica,sans-Serif" font-size="10.00">::ErrorFlags</text>
</a>
</g>
</g>
<!-- Node1&#45;&gt;Node3 -->
<g id="edge2_Node000001_Node000003" class="edge">
<title>Node1&#45;&gt;Node3</title>
<g id="a_edge2_Node000001_Node000003"><a xlink:title=" ">
<path fill="none" stroke="#63b8ff" d="M468.45,-142.74C456.97,-144.42 444.93,-146.19 433.47,-147.86"/>
<polygon fill="#63b8ff" stroke="#63b8ff" points="468.81,-146.22 478.2,-141.31 467.8,-139.3 468.81,-146.22"/>
</a>
</g>
</g>
<!-- Node4 -->
<g id="Node000004" class="node">
<title>Node4</title>
<g id="a_Node000004"><a xlink:href="../../d9/d72/classproto_1_1lacte_1_1_error_flags.html#a2dba95c61487cddca6e661194467606d" target="_top" xlink:title=" ">
<polygon fill="white" stroke="#666666" points="444,-122.88 306.5,-122.88 306.5,-103.62 444,-103.62 444,-122.88"/>
<text xml:space="preserve" text-anchor="middle" x="375.25" y="-109.38" font-family="Helvetica,sans-Serif" font-size="10.00">proto::lacte::ErrorFlags::has</text>
</a>
</g>
</g>
<!-- Node1&#45;&gt;Node4 -->
<g id="edge3_Node000001_Node000004" class="edge">
<title>Node1&#45;&gt;Node4</title>
<g id="a_edge3_Node000001_Node000004"><a xlink:title=" ">
<path fill="none" stroke="#63b8ff" d="M468.41,-126.14C460.54,-125.04 452.41,-123.9 444.39,-122.78"/>
<polygon fill="#63b8ff" stroke="#63b8ff" points="467.81,-129.59 478.2,-127.51 468.78,-122.66 467.81,-129.59"/>
</a>
</g>
</g>
<!-- Node14 -->
<g id="Node000014" class="node">
<title>Node14</title>
<g id="a_Node000014"><a xlink:href="../../d9/d72/classproto_1_1lacte_1_1_error_flags.html#aeb541042b66e0772797a12b143543936" target="_top" xlink:title=" ">
<polygon fill="white" stroke="#666666" points="442.88,-79.88 307.62,-79.88 307.62,-60.62 442.88,-60.62 442.88,-79.88"/>
<text xml:space="preserve" text-anchor="middle" x="375.25" y="-66.38" font-family="Helvetica,sans-Serif" font-size="10.00">proto::lacte::ErrorFlags::set</text>
</a>
</g>
</g>
<!-- Node1&#45;&gt;Node14 -->
<g id="edge13_Node000001_Node000014" class="edge">
<title>Node1&#45;&gt;Node14</title>
<g id="a_edge13_Node000001_Node000014"><a xlink:title=" ">
<path fill="none" stroke="#63b8ff" d="M497.26,-119.13C481.66,-111.28 461.99,-101.78 444,-94.25 432.03,-89.24 418.6,-84.34 406.88,-80.29"/>
<polygon fill="#63b8ff" stroke="#63b8ff" points="495.5,-122.16 506,-123.57 498.67,-115.92 495.5,-122.16"/>
</a>
</g>
</g>
<!-- Node5 -->
<g id="Node000005" class="node">
<title>Node5</title>
<g id="a_Node000005"><a xlink:href="../../d4/d4b/classproto_1_1lacte_1_1_board_error_diff.html#a9226218083c549061b1bf6d55baae0f5" target="_top" xlink:title=" ">
<polygon fill="white" stroke="#666666" points="270.5,-177.5 153.25,-177.5 153.25,-147 270.5,-147 270.5,-177.5"/>
<text xml:space="preserve" text-anchor="start" x="161.25" y="-164" font-family="Helvetica,sans-Serif" font-size="10.00">proto::lacte::BoardError</text>
<text xml:space="preserve" text-anchor="middle" x="211.88" y="-152.75" font-family="Helvetica,sans-Serif" font-size="10.00">Diff::BoardErrorDiff</text>
</a>
</g>
</g>
<!-- Node4&#45;&gt;Node5 -->
<g id="edge4_Node000004_Node000005" class="edge">
<title>Node4&#45;&gt;Node5</title>
<g id="a_edge4_Node000004_Node000005"><a xlink:title=" ">
<path fill="none" stroke="#63b8ff" d="M326.24,-126.48C319.6,-128.38 312.87,-130.34 306.5,-132.25 291.46,-136.77 275.14,-141.91 260.4,-146.65"/>
<polygon fill="#63b8ff" stroke="#63b8ff" points="327.13,-129.86 335.8,-123.77 325.23,-123.13 327.13,-129.86"/>
</a>
</g>
</g>
<!-- Node13 -->
<g id="Node000013" class="node">
<title>Node13</title>
<g id="a_Node000013"><a xlink:href="../../d9/d72/classproto_1_1lacte_1_1_error_flags.html#a02d6289796f35e3491b51103a705b459" target="_top" xlink:title=" ">
<polygon fill="white" stroke="#666666" points="269.75,-128.5 154,-128.5 154,-98 269.75,-98 269.75,-128.5"/>
<text xml:space="preserve" text-anchor="start" x="162" y="-115" font-family="Helvetica,sans-Serif" font-size="10.00">proto::lacte::ErrorFlags</text>
<text xml:space="preserve" text-anchor="middle" x="211.88" y="-103.75" font-family="Helvetica,sans-Serif" font-size="10.00">::list</text>
</a>
</g>
</g>
<!-- Node4&#45;&gt;Node13 -->
<g id="edge12_Node000004_Node000013" class="edge">
<title>Node4&#45;&gt;Node13</title>
<g id="a_edge12_Node000004_Node000013"><a xlink:title=" ">
<path fill="none" stroke="#63b8ff" d="M294.89,-113.25C286.51,-113.25 278.11,-113.25 270.05,-113.25"/>
<polygon fill="#63b8ff" stroke="#63b8ff" points="294.77,-116.75 304.77,-113.25 294.77,-109.75 294.77,-116.75"/>
</a>
</g>
</g>
<!-- Node6 -->
<g id="Node000006" class="node">
<title>Node6</title>
<g id="a_Node000006"><a xlink:href="../../d4/d4b/classproto_1_1lacte_1_1_board_error_diff.html#ac9a7534e72159d7d0dfc0c5f82c8d1bf" target="_top" xlink:title=" ">
<polygon fill="white" stroke="#666666" points="117.25,-324.5 0,-324.5 0,-294 117.25,-294 117.25,-324.5"/>
<text xml:space="preserve" text-anchor="start" x="8" y="-311" font-family="Helvetica,sans-Serif" font-size="10.00">proto::lacte::BoardError</text>
<text xml:space="preserve" text-anchor="middle" x="58.62" y="-299.75" font-family="Helvetica,sans-Serif" font-size="10.00">Diff::BoardErrorDiff</text>
</a>
</g>
</g>
<!-- Node5&#45;&gt;Node6 -->
<g id="edge5_Node000005_Node000006" class="edge">
<title>Node5&#45;&gt;Node6</title>
<g id="a_edge5_Node000005_Node000006"><a xlink:title=" ">
<path fill="none" stroke="#63b8ff" d="M196.72,-187.65C180.55,-214.71 151.81,-257.27 117.25,-284.25 112.78,-287.74 107.75,-290.84 102.57,-293.57"/>
<polygon fill="#63b8ff" stroke="#63b8ff" points="199.71,-189.48 201.72,-179.08 193.66,-185.96 199.71,-189.48"/>
</a>
</g>
</g>
<!-- Node7 -->
<g id="Node000007" class="node">
<title>Node7</title>
<g id="a_Node000007"><a xlink:href="../../d4/d4b/classproto_1_1lacte_1_1_board_error_diff.html#a9ea0242ee1aa502ce3b9d8a2194f78d5" target="_top" xlink:title=" ">
<polygon fill="white" stroke="#666666" points="117.25,-275.5 0,-275.5 0,-245 117.25,-245 117.25,-275.5"/>
<text xml:space="preserve" text-anchor="start" x="8" y="-262" font-family="Helvetica,sans-Serif" font-size="10.00">proto::lacte::BoardError</text>
<text xml:space="preserve" text-anchor="middle" x="58.62" y="-250.75" font-family="Helvetica,sans-Serif" font-size="10.00">Diff::BoardErrorDiff</text>
</a>
</g>
</g>
<!-- Node5&#45;&gt;Node7 -->
<g id="edge6_Node000005_Node000007" class="edge">
<title>Node5&#45;&gt;Node7</title>
<g id="a_edge6_Node000005_Node000007"><a xlink:title=" ">
<path fill="none" stroke="#63b8ff" d="M185.27,-185.11C167.13,-200.55 141.77,-220.69 117.25,-235.25 111.62,-238.59 105.47,-241.74 99.34,-244.6"/>
<polygon fill="#63b8ff" stroke="#63b8ff" points="187.13,-188.12 192.41,-178.94 182.55,-182.83 187.13,-188.12"/>
</a>
</g>
</g>
<!-- Node8 -->
<g id="Node000008" class="node">
<title>Node8</title>
<g id="a_Node000008"><a xlink:href="../../d4/d4b/classproto_1_1lacte_1_1_board_error_diff.html#a03b59eda85a9cc7200bb23108cc7aa16" target="_top" xlink:title=" ">
<polygon fill="white" stroke="#666666" points="117.25,-226.5 0,-226.5 0,-196 117.25,-196 117.25,-226.5"/>
<text xml:space="preserve" text-anchor="start" x="8" y="-213" font-family="Helvetica,sans-Serif" font-size="10.00">proto::lacte::BoardError</text>
<text xml:space="preserve" text-anchor="middle" x="58.62" y="-201.75" font-family="Helvetica,sans-Serif" font-size="10.00">Diff::operator!=</text>
</a>
</g>
</g>
<!-- Node5&#45;&gt;Node8 -->
<g id="edge7_Node000005_Node000008" class="edge">
<title>Node5&#45;&gt;Node8</title>
<g id="a_edge7_Node000005_Node000008"><a xlink:title=" ">
<path fill="none" stroke="#63b8ff" d="M151.77,-181.4C137.35,-186.07 122.09,-191.01 108.22,-195.51"/>
<polygon fill="#63b8ff" stroke="#63b8ff" points="152.73,-184.77 161.16,-178.36 150.57,-178.11 152.73,-184.77"/>
</a>
</g>
</g>
<!-- Node9 -->
<g id="Node000009" class="node">
<title>Node9</title>
<g id="a_Node000009"><a xlink:href="../../d4/d4b/classproto_1_1lacte_1_1_board_error_diff.html#ab48f0e028b6e0e73a9f17446bf4f930c" target="_top" xlink:title=" ">
<polygon fill="white" stroke="#666666" points="117.25,-177.5 0,-177.5 0,-147 117.25,-147 117.25,-177.5"/>
<text xml:space="preserve" text-anchor="start" x="8" y="-164" font-family="Helvetica,sans-Serif" font-size="10.00">proto::lacte::BoardError</text>
<text xml:space="preserve" text-anchor="middle" x="58.62" y="-152.75" font-family="Helvetica,sans-Serif" font-size="10.00">Diff::operator&lt;&lt;</text>
</a>
</g>
</g>
<!-- Node5&#45;&gt;Node9 -->
<g id="edge8_Node000005_Node000009" class="edge">
<title>Node5&#45;&gt;Node9</title>
<g id="a_edge8_Node000005_Node000009"><a xlink:title=" ">
<path fill="none" stroke="#63b8ff" d="M141.48,-162.25C133.38,-162.25 125.18,-162.25 117.26,-162.25"/>
<polygon fill="#63b8ff" stroke="#63b8ff" points="141.32,-165.75 151.32,-162.25 141.32,-158.75 141.32,-165.75"/>
</a>
</g>
</g>
<!-- Node10 -->
<g id="Node000010" class="node">
<title>Node10</title>
<g id="a_Node000010"><a xlink:href="../../d4/d4b/classproto_1_1lacte_1_1_board_error_diff.html#af59e81b998a9a2fbf26748f7a0444ccd" target="_top" xlink:title=" ">
<polygon fill="white" stroke="#666666" points="117.25,-128.5 0,-128.5 0,-98 117.25,-98 117.25,-128.5"/>
<text xml:space="preserve" text-anchor="start" x="8" y="-115" font-family="Helvetica,sans-Serif" font-size="10.00">proto::lacte::BoardError</text>
<text xml:space="preserve" text-anchor="middle" x="58.62" y="-103.75" font-family="Helvetica,sans-Serif" font-size="10.00">Diff::operator=</text>
</a>
</g>
</g>
<!-- Node5&#45;&gt;Node10 -->
<g id="edge9_Node000005_Node000010" class="edge">
<title>Node5&#45;&gt;Node10</title>
<g id="a_edge9_Node000005_Node000010"><a xlink:title=" ">
<path fill="none" stroke="#63b8ff" d="M151.77,-143.1C137.35,-138.43 122.09,-133.49 108.22,-128.99"/>
<polygon fill="#63b8ff" stroke="#63b8ff" points="150.57,-146.39 161.16,-146.14 152.73,-139.73 150.57,-146.39"/>
</a>
</g>
</g>
<!-- Node11 -->
<g id="Node000011" class="node">
<title>Node11</title>
<g id="a_Node000011"><a xlink:href="../../d4/d4b/classproto_1_1lacte_1_1_board_error_diff.html#ac06812f97204ddbfb993ed22c26221e0" target="_top" xlink:title=" ">
<polygon fill="white" stroke="#666666" points="117.25,-79.5 0,-79.5 0,-49 117.25,-49 117.25,-79.5"/>
<text xml:space="preserve" text-anchor="start" x="8" y="-66" font-family="Helvetica,sans-Serif" font-size="10.00">proto::lacte::BoardError</text>
<text xml:space="preserve" text-anchor="middle" x="58.62" y="-54.75" font-family="Helvetica,sans-Serif" font-size="10.00">Diff::operator=</text>
</a>
</g>
</g>
<!-- Node5&#45;&gt;Node11 -->
<g id="edge10_Node000005_Node000011" class="edge">
<title>Node5&#45;&gt;Node11</title>
<g id="a_edge10_Node000005_Node000011"><a xlink:title=" ">
<path fill="none" stroke="#63b8ff" d="M158.02,-140.73C156.38,-139.62 154.78,-138.46 153.25,-137.25 132.32,-120.73 138.18,-105.77 117.25,-89.25 112.8,-85.74 107.78,-82.62 102.6,-79.88"/>
<polygon fill="#63b8ff" stroke="#63b8ff" points="156.21,-143.73 166.6,-145.84 159.8,-137.72 156.21,-143.73"/>
</a>
</g>
</g>
<!-- Node12 -->
<g id="Node000012" class="node">
<title>Node12</title>
<g id="a_Node000012"><a xlink:href="../../d4/d4b/classproto_1_1lacte_1_1_board_error_diff.html#a1b4ae3f56b747d577134b75f2c606024" target="_top" xlink:title=" ">
<polygon fill="white" stroke="#666666" points="117.25,-30.5 0,-30.5 0,0 117.25,0 117.25,-30.5"/>
<text xml:space="preserve" text-anchor="start" x="8" y="-17" font-family="Helvetica,sans-Serif" font-size="10.00">proto::lacte::BoardError</text>
<text xml:space="preserve" text-anchor="middle" x="58.62" y="-5.75" font-family="Helvetica,sans-Serif" font-size="10.00">Diff::operator==</text>
</a>
</g>
</g>
<!-- Node5&#45;&gt;Node12 -->
<g id="edge11_Node000005_Node000012" class="edge">
<title>Node5&#45;&gt;Node12</title>
<g id="a_edge11_Node000005_Node000012"><a xlink:title=" ">
<path fill="none" stroke="#63b8ff" d="M155.89,-139.83C154.97,-139 154.09,-138.14 153.25,-137.25 121.62,-103.87 148.88,-73.63 117.25,-40.25 113.87,-36.69 109.91,-33.61 105.66,-30.94"/>
<polygon fill="#63b8ff" stroke="#63b8ff" points="153.54,-142.44 163.63,-145.65 157.74,-136.84 153.54,-142.44"/>
</a>
</g>
</g>
<!-- Node15 -->
<g id="Node000015" class="node">
<title>Node15</title>
<g id="a_Node000015"><a xlink:href="../../d9/d72/classproto_1_1lacte_1_1_error_flags.html#a3c88af0107e585bc7464246ee93cc10b" target="_top" xlink:title=" ">
<polygon fill="white" stroke="#666666" points="269.75,-79.5 154,-79.5 154,-49 269.75,-49 269.75,-79.5"/>
<text xml:space="preserve" text-anchor="start" x="162" y="-66" font-family="Helvetica,sans-Serif" font-size="10.00">proto::lacte::ErrorFlags</text>
<text xml:space="preserve" text-anchor="middle" x="211.88" y="-54.75" font-family="Helvetica,sans-Serif" font-size="10.00">::ErrorFlags</text>
</a>
</g>
</g>
<!-- Node14&#45;&gt;Node15 -->
<g id="edge14_Node000014_Node000015" class="edge">
<title>Node14&#45;&gt;Node15</title>
<g id="a_edge14_Node000014_Node000015"><a xlink:title=" ">
<path fill="none" stroke="#63b8ff" d="M295.89,-67.34C287.23,-67.01 278.53,-66.69 270.2,-66.38"/>
<polygon fill="#63b8ff" stroke="#63b8ff" points="295.58,-70.83 305.7,-67.7 295.84,-63.83 295.58,-70.83"/>
</a>
</g>
</g>
</g>
</svg>

<g id="navigator" transform="translate(0 0)" fill="#404254">
  <rect fill="#f2f5e9" fill-opacity="0.5" stroke="#606060" stroke-width=".5" x="0" y="0" width="60" height="60"/>
  <use id="zoomplus" xlink:href="#zoomPlus" x="17" y="9" onmousedown="handleZoom(evt,'in')"/>
  <use id="zoomminus" xlink:href="#zoomMin" x="42" y="9" onmousedown="handleZoom(evt,'out')"/>
  <use id="reset" xlink:href="#resetDef" x="30" y="36" onmousedown="handleReset()"/>
   <use id="arrowup" xlink:href="#arrowUp" x="0" y="0" onmousedown="handlePan(0,-1)"/>
  <use id="arrowright" xlink:href="#arrowRight" x="0" y="0" onmousedown="handlePan(1,0)"/>
  <use id="arrowdown" xlink:href="#arrowDown" x="0" y="0" onmousedown="handlePan(0,1)"/>
  <use id="arrowleft" xlink:href="#arrowLeft" x="0" y="0" onmousedown="handlePan(-1,0)"/>
</g>
<svg viewBox="0 0 15 15" width="100%" height="30px" preserveAspectRatio="xMaxYMin meet">
 <g id="arrow_out" transform="scale(0.3 0.3)">
  <a xlink:href="namespaceproto_1_1lacte_a99c9dae032d5ed58f9ff6e24ed0da8e0_icgraph_org.svg" target="_base">
   <rect id="button" ry="5" rx="5" y="6" x="6" height="38" width="38"
        fill="#f2f5e9" fill-opacity="0.5" stroke="#606060" stroke-width="1.0"/>
   <path id="arrow"
     d="M 11.500037,31.436501 C 11.940474,20.09759 22.043105,11.32322 32.158766,21.979434 L 37.068811,17.246167 C 37.068811,17.246167 37.088388,32 37.088388,32 L 22.160133,31.978069 C 22.160133,31.978069 26.997745,27.140456 26.997745,27.140456 C 18.528582,18.264221 13.291696,25.230495 11.500037,31.436501 z"
     style="fill:#404040;"/>
  </a>
 </g>
</svg>

<style type='text/css'>
<![CDATA[
[data-mouse-over-selected='false'] { opacity: 0.7; }
[data-mouse-over-selected='true']  { opacity: 1.0; }
]]>
</style>
<script type="application/ecmascript"><![CDATA[
document.addEventListener('DOMContentLoaded', (event) => {
  highlightEdges();
  highlightAdjacentNodes();
});
]]></script>
</svg>
