<?xml version="1.0" encoding="UTF-8" standalone="no"?>
<!DOCTYPE svg PUBLIC "-//W3C//DTD SVG 1.1//EN"
 "http://www.w3.org/Graphics/SVG/1.1/DTD/svg11.dtd">
<!-- Generated by graphviz version 14.0.1 (20251006.0113)
 -->
<!-- Title: proto::lacte::print_bytes Pages: 1 -->
<svg width="451pt" height="137pt"
 viewBox="0.00 0.00 451.00 137.00" xmlns="http://www.w3.org/2000/svg" xmlns:xlink="http://www.w3.org/1999/xlink">
<g id="graph0" class="graph" transform="scale(1 1) rotate(0) translate(4 132.5)">
<title>proto::lacte::print_bytes</title>
<!-- Node1 -->
<g id="Node000001" class="node">
<title>Node1</title>
<g id="a_Node000001"><a xlink:title=" ">
<polygon fill="#999999" stroke="#666666" points="442.5,-79.5 353,-79.5 353,-49 442.5,-49 442.5,-79.5"/>
<text xml:space="preserve" text-anchor="start" x="361" y="-66" font-family="Helvetica,sans-Serif" font-size="10.00">proto::lacte::print</text>
<text xml:space="preserve" text-anchor="middle" x="397.75" y="-54.75" font-family="Helvetica,sans-Serif" font-size="10.00">_bytes</text>
</a>
</g>
</g>
<!-- Node2 -->
<g id="Node000002" class="node">
<title>Node2</title>
<g id="a_Node000002"><a xlink:href="../../d6/d9b/structproto_1_1lacte_1_1_u_i_d_packet_type.html#ade1dbb4272aa98ddadd840d9356e1efa" target="_top" xlink:title=" ">
<polygon fill="white" stroke="#666666" points="317,-128.5 176.5,-128.5 176.5,-98 317,-98 317,-128.5"/>
<text xml:space="preserve" text-anchor="start" x="184.5" y="-115" font-family="Helvetica,sans-Serif" font-size="10.00">proto::lacte::UIDPacketType</text>
<text xml:space="preserve" text-anchor="middle" x="246.75" y="-103.75" font-family="Helvetica,sans-Serif" font-size="10.00">::operator&lt;&lt;</text>
</a>
</g>
</g>
<!-- Node1&#45;&gt;Node2 -->
<g id="edge1_Node000001_Node000002" class="edge">
<title>Node1&#45;&gt;Node2</title>
<g id="a_edge1_Node000001_Node000002"><a xlink:title=" ">
<path fill="none" stroke="#63b8ff" d="M342,-82.26C326.75,-87.27 310.31,-92.68 295.5,-97.55"/>
<polygon fill="#63b8ff" stroke="#63b8ff" points="343.01,-85.61 351.41,-79.16 340.82,-78.96 343.01,-85.61"/>
</a>
</g>
</g>
<!-- Node3 -->
<g id="Node000003" class="node">
<title>Node3</title>
<g id="a_Node000003"><a xlink:href="../../da/dbe/structproto_1_1lacte_1_1_mcu_uid.html#a090bb8d96a5464b43391eeace187e992" target="_top" xlink:title=" ">
<polygon fill="white" stroke="#666666" points="299,-79.5 194.5,-79.5 194.5,-49 299,-49 299,-79.5"/>
<text xml:space="preserve" text-anchor="start" x="202.5" y="-66" font-family="Helvetica,sans-Serif" font-size="10.00">proto::lacte::McuUid</text>
<text xml:space="preserve" text-anchor="middle" x="246.75" y="-54.75" font-family="Helvetica,sans-Serif" font-size="10.00">::to_string</text>
</a>
</g>
</g>
<!-- Node1&#45;&gt;Node3 -->
<g id="edge2_Node000001_Node000003" class="edge">
<title>Node1&#45;&gt;Node3</title>
<g id="a_edge2_Node000001_Node000003"><a xlink:title=" ">
<path fill="none" stroke="#63b8ff" d="M341.55,-64.25C327.78,-64.25 313.07,-64.25 299.48,-64.25"/>
<polygon fill="#63b8ff" stroke="#63b8ff" points="341.34,-67.75 351.34,-64.25 341.34,-60.75 341.34,-67.75"/>
</a>
</g>
</g>
<!-- Node5 -->
<g id="Node000005" class="node">
<title>Node5</title>
<g id="a_Node000005"><a xlink:href="../../d6/d9b/structproto_1_1lacte_1_1_u_i_d_packet_type.html#a68b1882859464bd7d06a28de085e09fa" target="_top" xlink:title=" ">
<polygon fill="white" stroke="#666666" points="317,-30.5 176.5,-30.5 176.5,0 317,0 317,-30.5"/>
<text xml:space="preserve" text-anchor="start" x="184.5" y="-17" font-family="Helvetica,sans-Serif" font-size="10.00">proto::lacte::UIDPacketType</text>
<text xml:space="preserve" text-anchor="middle" x="246.75" y="-5.75" font-family="Helvetica,sans-Serif" font-size="10.00">::to_string</text>
</a>
</g>
</g>
<!-- Node1&#45;&gt;Node5 -->
<g id="edge4_Node000001_Node000005" class="edge">
<title>Node1&#45;&gt;Node5</title>
<g id="a_edge4_Node000001_Node000005"><a xlink:title=" ">
<path fill="none" stroke="#63b8ff" d="M342,-46.24C326.75,-41.23 310.31,-35.82 295.5,-30.95"/>
<polygon fill="#63b8ff" stroke="#63b8ff" points="340.82,-49.54 351.41,-49.34 343.01,-42.89 340.82,-49.54"/>
</a>
</g>
</g>
<!-- Node4 -->
<g id="Node000004" class="node">
<title>Node4</title>
<g id="a_Node000004"><a xlink:href="../../da/dbe/structproto_1_1lacte_1_1_mcu_uid.html#aa27b889f5d35a148814842b192a20ad0" target="_top" xlink:title=" ">
<polygon fill="white" stroke="#666666" points="122.5,-79.5 18,-79.5 18,-49 122.5,-49 122.5,-79.5"/>
<text xml:space="preserve" text-anchor="start" x="26" y="-66" font-family="Helvetica,sans-Serif" font-size="10.00">proto::lacte::McuUid</text>
<text xml:space="preserve" text-anchor="middle" x="70.25" y="-54.75" font-family="Helvetica,sans-Serif" font-size="10.00">::string</text>
</a>
</g>
</g>
<!-- Node3&#45;&gt;Node4 -->
<g id="edge3_Node000003_Node000004" class="edge">
<title>Node3&#45;&gt;Node4</title>
<g id="a_edge3_Node000003_Node000004"><a xlink:title=" ">
<path fill="none" stroke="#63b8ff" d="M182.98,-64.25C163.27,-64.25 141.74,-64.25 122.9,-64.25"/>
<polygon fill="#63b8ff" stroke="#63b8ff" points="182.82,-67.75 192.82,-64.25 182.82,-60.75 182.82,-67.75"/>
</a>
</g>
</g>
<!-- Node6 -->
<g id="Node000006" class="node">
<title>Node6</title>
<g id="a_Node000006"><a xlink:href="../../d6/d9b/structproto_1_1lacte_1_1_u_i_d_packet_type.html#a87e1a05c3d72700088fba024008e164e" target="_top" xlink:title=" ">
<polygon fill="white" stroke="#666666" points="140.5,-30.5 0,-30.5 0,0 140.5,0 140.5,-30.5"/>
<text xml:space="preserve" text-anchor="start" x="8" y="-17" font-family="Helvetica,sans-Serif" font-size="10.00">proto::lacte::UIDPacketType</text>
<text xml:space="preserve" text-anchor="middle" x="70.25" y="-5.75" font-family="Helvetica,sans-Serif" font-size="10.00">::string</text>
</a>
</g>
</g>
<!-- Node5&#45;&gt;Node6 -->
<g id="edge5_Node000005_Node000006" class="edge">
<title>Node5&#45;&gt;Node6</title>
<g id="a_edge5_Node000005_Node000006"><a xlink:title=" ">
<path fill="none" stroke="#63b8ff" d="M164.52,-15.25C156.61,-15.25 148.64,-15.25 140.86,-15.25"/>
<polygon fill="#63b8ff" stroke="#63b8ff" points="164.52,-18.75 174.52,-15.25 164.52,-11.75 164.52,-18.75"/>
</a>
</g>
</g>
</g>
</svg>
