<?xml version="1.0" encoding="UTF-8" standalone="no"?>
<!DOCTYPE svg PUBLIC "-//W3C//DTD SVG 1.1//EN"
 "http://www.w3.org/Graphics/SVG/1.1/DTD/svg11.dtd">
<!-- Generated by graphviz version 14.0.1 (20251006.0113)
 -->
<!-- Title: NamedTuple.hpp Pages: 1 -->
<svg width="232pt" height="138pt"
 viewBox="0.00 0.00 232.00 138.00" xmlns="http://www.w3.org/2000/svg" xmlns:xlink="http://www.w3.org/1999/xlink">
<g id="graph0" class="graph" transform="scale(1 1) rotate(0) translate(4 133.75)">
<title>NamedTuple.hpp</title>
<!-- Node1 -->
<g id="Node000001" class="node">
<title>Node1</title>
<g id="a_Node000001"><a xlink:title=" ">
<polygon fill="#999999" stroke="#666666" points="152.5,-129.75 62.25,-129.75 62.25,-110.5 152.5,-110.5 152.5,-129.75"/>
<text xml:space="preserve" text-anchor="middle" x="107.38" y="-116.25" font-family="Helvetica,sans-Serif" font-size="10.00">NamedTuple.hpp</text>
</a>
</g>
</g>
<!-- Node2 -->
<g id="Node000002" class="node">
<title>Node2</title>
<g id="a_Node000002"><a xlink:href="../../dc/d95/_lacte_protocol_8hpp.html" target="_top" xlink:title=" ">
<polygon fill="white" stroke="#666666" points="94.75,-74.5 0,-74.5 0,-55.25 94.75,-55.25 94.75,-74.5"/>
<text xml:space="preserve" text-anchor="middle" x="47.38" y="-61" font-family="Helvetica,sans-Serif" font-size="10.00">LacteProtocol.hpp</text>
</a>
</g>
</g>
<!-- Node1&#45;&gt;Node2 -->
<g id="edge1_Node000001_Node000002" class="edge">
<title>Node1&#45;&gt;Node2</title>
<g id="a_edge1_Node000001_Node000002"><a xlink:title=" ">
<path fill="none" stroke="#63b8ff" d="M88.8,-102.64C78.44,-93.44 65.94,-82.35 57.4,-74.77"/>
<polygon fill="#63b8ff" stroke="#63b8ff" points="86.26,-105.07 96.06,-109.09 90.91,-99.83 86.26,-105.07"/>
</a>
</g>
</g>
<!-- Node4 -->
<g id="Node000004" class="node">
<title>Node4</title>
<g id="a_Node000004"><a xlink:href="../../d5/d46/exo_atlant_protocol_8hpp.html" target="_top" xlink:title=" ">
<polygon fill="white" stroke="#666666" points="224.38,-74.5 112.38,-74.5 112.38,-55.25 224.38,-55.25 224.38,-74.5"/>
<text xml:space="preserve" text-anchor="middle" x="168.38" y="-61" font-family="Helvetica,sans-Serif" font-size="10.00">exoAtlantProtocol.hpp</text>
</a>
</g>
</g>
<!-- Node1&#45;&gt;Node4 -->
<g id="edge3_Node000001_Node000004" class="edge">
<title>Node1&#45;&gt;Node4</title>
<g id="a_edge3_Node000001_Node000004"><a xlink:title=" ">
<path fill="none" stroke="#63b8ff" d="M126.26,-102.64C136.8,-93.44 149.5,-82.35 158.18,-74.77"/>
<polygon fill="#63b8ff" stroke="#63b8ff" points="124.09,-99.88 118.86,-109.1 128.7,-105.16 124.09,-99.88"/>
</a>
</g>
</g>
<!-- Node3 -->
<g id="Node000003" class="node">
<title>Node3</title>
<g id="a_Node000003"><a xlink:href="../../db/dc5/_virtual_board_8hpp.html" target="_top" xlink:title=" ">
<polygon fill="white" stroke="#666666" points="91.38,-19.25 3.38,-19.25 3.38,0 91.38,0 91.38,-19.25"/>
<text xml:space="preserve" text-anchor="middle" x="47.38" y="-5.75" font-family="Helvetica,sans-Serif" font-size="10.00">VirtualBoard.hpp</text>
</a>
</g>
</g>
<!-- Node2&#45;&gt;Node3 -->
<g id="edge2_Node000002_Node000003" class="edge">
<title>Node2&#45;&gt;Node3</title>
<g id="a_edge2_Node000002_Node000003"><a xlink:title=" ">
<path fill="none" stroke="#63b8ff" d="M47.38,-43.63C47.38,-35.34 47.38,-26.17 47.38,-19.61"/>
<polygon fill="#63b8ff" stroke="#63b8ff" points="43.88,-43.57 47.38,-53.57 50.88,-43.57 43.88,-43.57"/>
</a>
</g>
</g>
</g>
</svg>
