<?xml version="1.0" encoding="UTF-8" standalone="no"?>
<!DOCTYPE svg PUBLIC "-//W3C//DTD SVG 1.1//EN"
 "http://www.w3.org/Graphics/SVG/1.1/DTD/svg11.dtd">
<!-- Generated by graphviz version 14.0.1 (20251006.0113)
 -->
<!-- Title: proto::TxContainer::reset Pages: 1 -->
<svg width="450pt" height="65pt"
 viewBox="0.00 0.00 450.00 65.00" xmlns="http://www.w3.org/2000/svg" xmlns:xlink="http://www.w3.org/1999/xlink">
<g id="graph0" class="graph" transform="scale(1 1) rotate(0) translate(4 61.12)">
<title>proto::TxContainer::reset</title>
<!-- Node1 -->
<g id="Node000001" class="node">
<title>Node1</title>
<g id="a_Node000001"><a xlink:title="Reset the internal state of the container and its fields.">
<polygon fill="#999999" stroke="#666666" points="441.75,-51.5 344.75,-51.5 344.75,-21 441.75,-21 441.75,-51.5"/>
<text xml:space="preserve" text-anchor="start" x="352.75" y="-38" font-family="Helvetica,sans-Serif" font-size="10.00">proto::TxContainer</text>
<text xml:space="preserve" text-anchor="middle" x="393.25" y="-26.75" font-family="Helvetica,sans-Serif" font-size="10.00">::reset</text>
</a>
</g>
</g>
<!-- Node2 -->
<g id="Node000002" class="node">
<title>Node2</title>
<g id="a_Node000002"><a xlink:href="../../da/dd6/classproto_1_1_tx_container.html#a4636ad0f62ff172c7a74231bc9757985" target="_top" xlink:title=" ">
<polygon fill="white" stroke="#666666" points="120.25,-57.12 0,-57.12 0,-15.38 120.25,-15.38 120.25,-57.12"/>
<text xml:space="preserve" text-anchor="start" x="8" y="-43.62" font-family="Helvetica,sans-Serif" font-size="10.00">proto::TxContainer</text>
<text xml:space="preserve" text-anchor="start" x="8" y="-32.38" font-family="Helvetica,sans-Serif" font-size="10.00">&lt; TxFields, Crc &gt;::send</text>
<text xml:space="preserve" text-anchor="middle" x="60.12" y="-21.12" font-family="Helvetica,sans-Serif" font-size="10.00">_packet</text>
</a>
</g>
</g>
<!-- Node1&#45;&gt;Node2 -->
<g id="edge1_Node000001_Node000002" class="edge">
<title>Node1&#45;&gt;Node2</title>
<g id="a_edge1_Node000001_Node000002"><a xlink:title=" ">
<path fill="none" stroke="#63b8ff" d="M333.13,-38.64C324.94,-38.89 316.64,-39.11 308.75,-39.25 240.98,-40.47 224.02,-40.32 156.25,-39.25 144.77,-39.07 132.51,-38.77 120.74,-38.42"/>
<polygon fill="#63b8ff" stroke="#63b8ff" points="333.18,-42.14 343.06,-38.31 332.95,-35.14 333.18,-42.14"/>
</a>
</g>
</g>
<!-- Node3 -->
<g id="Node000003" class="node">
<title>Node3</title>
<g id="a_Node000003"><a xlink:href="../../da/dd6/classproto_1_1_tx_container.html#ae65bae4fd4431a2c7b96d4ec7723a1cc" target="_top" xlink:title=" ">
<polygon fill="white" stroke="#666666" points="308.75,-30.5 156.25,-30.5 156.25,0 308.75,0 308.75,-30.5"/>
<text xml:space="preserve" text-anchor="start" x="164.25" y="-17" font-family="Helvetica,sans-Serif" font-size="10.00">proto::TxContainer</text>
<text xml:space="preserve" text-anchor="middle" x="232.5" y="-5.75" font-family="Helvetica,sans-Serif" font-size="10.00">&lt; TxFields, Crc &gt;::TxContainer</text>
</a>
</g>
</g>
<!-- Node1&#45;&gt;Node3 -->
<g id="edge2_Node000001_Node000003" class="edge">
<title>Node1&#45;&gt;Node3</title>
<g id="a_edge2_Node000001_Node000003"><a xlink:title=" ">
<path fill="none" stroke="#63b8ff" d="M333.27,-28.45C325.36,-27.4 317.16,-26.32 309.01,-25.24"/>
<polygon fill="#63b8ff" stroke="#63b8ff" points="332.75,-31.91 343.12,-29.75 333.66,-24.97 332.75,-31.91"/>
</a>
</g>
</g>
<!-- Node3&#45;&gt;Node2 -->
<g id="edge3_Node000003_Node000002" class="edge">
<title>Node3&#45;&gt;Node2</title>
<g id="a_edge3_Node000003_Node000002"><a xlink:title=" ">
<path fill="none" stroke="#63b8ff" d="M144.38,-25.99C136.3,-26.98 128.25,-27.98 120.51,-28.93"/>
<polygon fill="#63b8ff" stroke="#63b8ff" points="144.78,-29.47 154.28,-24.77 143.92,-22.52 144.78,-29.47"/>
</a>
</g>
</g>
</g>
</svg>
