<?xml version="1.0" encoding="UTF-8" standalone="no"?>
<!DOCTYPE svg PUBLIC "-//W3C//DTD SVG 1.1//EN"
 "http://www.w3.org/Graphics/SVG/1.1/DTD/svg11.dtd">
<!-- Generated by graphviz version 2.43.0 (0)
 -->
<!-- Title: proto::lacte::VirtualBoard::VirtualBoard Pages: 1 -->
<svg width="289pt" height="64pt"
 viewBox="0.00 0.00 289.00 64.00" xmlns="http://www.w3.org/2000/svg" xmlns:xlink="http://www.w3.org/1999/xlink">
<g id="graph0" class="graph" transform="scale(1 1) rotate(0) translate(4 60)">
<title>proto::lacte::VirtualBoard::VirtualBoard</title>
<!-- Node1 -->
<g id="Node000001" class="node">
<title>Node1</title>
<g id="a_Node000001"><a xlink:title=" ">
<polygon fill="#999999" stroke="#666666" points="139,-42.5 0,-42.5 0,-12.5 139,-12.5 139,-42.5"/>
<text text-anchor="start" x="8" y="-30.5" font-family="Helvetica,sans-Serif" font-size="10.00">proto::lacte::VirtualBoard</text>
<text text-anchor="middle" x="69.5" y="-19.5" font-family="Helvetica,sans-Serif" font-size="10.00">::VirtualBoard</text>
</a>
</g>
</g>
<!-- Node2 -->
<g id="Node000002" class="node">
<title>Node2</title>
<g id="a_Node000002"><a xlink:href="../../d6/d58/classCustomSpan.html#aa94cafb45950ce4dbcf4e57f6c22615a" target="_top" xlink:title=" ">
<polygon fill="white" stroke="#666666" points="281,-56 175,-56 175,-37 281,-37 281,-56"/>
<text text-anchor="middle" x="228" y="-44" font-family="Helvetica,sans-Serif" font-size="10.00">CustomSpan::data</text>
</a>
</g>
</g>
<!-- Node1&#45;&gt;Node2 -->
<g id="edge1_Node000001_Node000002" class="edge">
<title>Node1&#45;&gt;Node2</title>
<g id="a_edge1_Node000001_Node000002"><a xlink:title=" ">
<path fill="none" stroke="#63b8ff" d="M139.14,-35.83C147.67,-36.87 156.35,-37.92 164.77,-38.94"/>
<polygon fill="#63b8ff" stroke="#63b8ff" points="164.53,-42.44 174.88,-40.17 165.38,-35.49 164.53,-42.44"/>
</a>
</g>
</g>
<!-- Node3 -->
<g id="Node000003" class="node">
<title>Node3</title>
<g id="a_Node000003"><a xlink:href="../../d6/d58/classCustomSpan.html#a7612ff42bfc672d97414e1e3ddc391b9" target="_top" xlink:title=" ">
<polygon fill="white" stroke="#666666" points="280,-19 176,-19 176,0 280,0 280,-19"/>
<text text-anchor="middle" x="228" y="-7" font-family="Helvetica,sans-Serif" font-size="10.00">CustomSpan::size</text>
</a>
</g>
</g>
<!-- Node1&#45;&gt;Node3 -->
<g id="edge2_Node000001_Node000003" class="edge">
<title>Node1&#45;&gt;Node3</title>
<g id="a_edge2_Node000001_Node000003"><a xlink:title=" ">
<path fill="none" stroke="#63b8ff" d="M139.14,-19.6C148,-18.59 157.02,-17.55 165.74,-16.55"/>
<polygon fill="#63b8ff" stroke="#63b8ff" points="166.29,-20.01 175.82,-15.39 165.49,-13.05 166.29,-20.01"/>
</a>
</g>
</g>
</g>
</svg>
