<?xml version="1.0" encoding="UTF-8" standalone="no"?>
<!DOCTYPE svg PUBLIC "-//W3C//DTD SVG 1.1//EN"
 "http://www.w3.org/Graphics/SVG/1.1/DTD/svg11.dtd">
<!-- Generated by graphviz version 2.43.0 (0)
 -->
<!-- Title: TxContainer.hpp Pages: 1 -->
<svg width="1370pt" height="324pt"
 viewBox="0.00 0.00 1370.00 324.00" xmlns="http://www.w3.org/2000/svg" xmlns:xlink="http://www.w3.org/1999/xlink">
<g id="graph0" class="graph" transform="scale(1 1) rotate(0) translate(4 320)">
<title>TxContainer.hpp</title>
<!-- Node1 -->
<g id="Node000001" class="node">
<title>Node1</title>
<g id="a_Node000001"><a xlink:title="TX&#45;side container that builds protocol frames from a set of fields.">
<polygon fill="#999999" stroke="#666666" points="505,-316 409,-316 409,-297 505,-297 505,-316"/>
<text text-anchor="middle" x="457" y="-304" font-family="Helvetica,sans-Serif" font-size="10.00">TxContainer.hpp</text>
</a>
</g>
</g>
<!-- Node2 -->
<g id="Node000002" class="node">
<title>Node2</title>
<g id="a_Node000002"><a xlink:title=" ">
<polygon fill="#e0e0e0" stroke="#999999" points="64,-255.5 0,-255.5 0,-236.5 64,-236.5 64,-255.5"/>
<text text-anchor="middle" x="32" y="-243.5" font-family="Helvetica,sans-Serif" font-size="10.00">algorithm</text>
</a>
</g>
</g>
<!-- Node1&#45;&gt;Node2 -->
<g id="edge1_Node000001_Node000002" class="edge">
<title>Node1&#45;&gt;Node2</title>
<g id="a_edge1_Node000001_Node000002"><a xlink:title=" ">
<path fill="none" stroke="#63b8ff" d="M408.99,-302.62C336.62,-297.66 195.54,-285.58 78,-261 74.35,-260.24 70.58,-259.32 66.84,-258.31"/>
<polygon fill="#63b8ff" stroke="#63b8ff" points="67.67,-254.91 57.1,-255.52 65.75,-261.64 67.67,-254.91"/>
</a>
</g>
</g>
<!-- Node3 -->
<g id="Node000003" class="node">
<title>Node3</title>
<g id="a_Node000003"><a xlink:title=" ">
<polygon fill="#e0e0e0" stroke="#999999" points="288.5,-74 247.5,-74 247.5,-55 288.5,-55 288.5,-74"/>
<text text-anchor="middle" x="268" y="-62" font-family="Helvetica,sans-Serif" font-size="10.00">tuple</text>
</a>
</g>
</g>
<!-- Node1&#45;&gt;Node3 -->
<g id="edge2_Node000001_Node000003" class="edge">
<title>Node1&#45;&gt;Node3</title>
<g id="a_edge2_Node000001_Node000003"><a xlink:title=" ">
<path fill="none" stroke="#63b8ff" d="M408.74,-304.02C338.79,-298.96 211.24,-278.13 153,-195 146.57,-185.82 143.78,-124.67 154,-110 172.76,-83.07 210.4,-72.43 237.29,-68.24"/>
<polygon fill="#63b8ff" stroke="#63b8ff" points="237.92,-71.68 247.37,-66.88 236.99,-64.75 237.92,-71.68"/>
</a>
</g>
</g>
<!-- Node4 -->
<g id="Node000004" class="node">
<title>Node4</title>
<g id="a_Node000004"><a xlink:title=" ">
<polygon fill="#e0e0e0" stroke="#999999" points="540.5,-74 471.5,-74 471.5,-55 540.5,-55 540.5,-74"/>
<text text-anchor="middle" x="506" y="-62" font-family="Helvetica,sans-Serif" font-size="10.00">type_traits</text>
</a>
</g>
</g>
<!-- Node1&#45;&gt;Node4 -->
<g id="edge3_Node000001_Node000004" class="edge">
<title>Node1&#45;&gt;Node4</title>
<g id="a_edge3_Node000001_Node000004"><a xlink:title=" ">
<path fill="none" stroke="#63b8ff" d="M489.1,-296.94C532.56,-283.42 608.42,-252.56 641,-195 647.57,-183.4 648.67,-175.91 641,-165 613.84,-126.35 576.94,-159.66 541,-129 526.96,-117.02 517.52,-97.93 512.02,-83.81"/>
<polygon fill="#63b8ff" stroke="#63b8ff" points="515.23,-82.41 508.57,-74.18 508.64,-84.77 515.23,-82.41"/>
</a>
</g>
</g>
<!-- Node5 -->
<g id="Node000005" class="node">
<title>Node5</title>
<g id="a_Node000005"><a xlink:href="../../d1/dcf/CustomSpan_8hpp.html" target="_top" xlink:title=" ">
<polygon fill="white" stroke="#666666" points="1007.5,-189.5 908.5,-189.5 908.5,-170.5 1007.5,-170.5 1007.5,-189.5"/>
<text text-anchor="middle" x="958" y="-177.5" font-family="Helvetica,sans-Serif" font-size="10.00">CustomSpan.hpp</text>
</a>
</g>
</g>
<!-- Node1&#45;&gt;Node5 -->
<g id="edge4_Node000001_Node000005" class="edge">
<title>Node1&#45;&gt;Node5</title>
<g id="a_edge4_Node000001_Node000005"><a xlink:title=" ">
<path fill="none" stroke="#63b8ff" d="M503.78,-296.92C547.88,-288.59 615.7,-275.17 674,-261 763.08,-239.35 866.41,-208.87 920.53,-192.49"/>
<polygon fill="#63b8ff" stroke="#63b8ff" points="921.81,-195.76 930.36,-189.51 919.78,-189.06 921.81,-195.76"/>
</a>
</g>
</g>
<!-- Node8 -->
<g id="Node000008" class="node">
<title>Node8</title>
<g id="a_Node000008"><a xlink:href="../../d7/d79/Interface_8hpp.html" target="_top" xlink:title=" ">
<polygon fill="white" stroke="#666666" points="1129.5,-255.5 1048.5,-255.5 1048.5,-236.5 1129.5,-236.5 1129.5,-255.5"/>
<text text-anchor="middle" x="1089" y="-243.5" font-family="Helvetica,sans-Serif" font-size="10.00">Interface.hpp</text>
</a>
</g>
</g>
<!-- Node1&#45;&gt;Node8 -->
<g id="edge7_Node000001_Node000008" class="edge">
<title>Node1&#45;&gt;Node8</title>
<g id="a_edge7_Node000001_Node000008"><a xlink:title=" ">
<path fill="none" stroke="#63b8ff" d="M505.02,-301.05C621.6,-290.26 918.75,-262.76 1038.17,-251.7"/>
<polygon fill="#63b8ff" stroke="#63b8ff" points="1038.52,-255.19 1048.15,-250.78 1037.87,-248.22 1038.52,-255.19"/>
</a>
</g>
</g>
<!-- Node13 -->
<g id="Node000013" class="node">
<title>Node13</title>
<g id="a_Node000013"><a xlink:href="../../d8/daa/FieldContainer_8hpp.html" target="_top" xlink:title="Defines the FieldContainer class template, a generic container for protocol fields.">
<polygon fill="white" stroke="#666666" points="516,-261 398,-261 398,-231 516,-231 516,-261"/>
<text text-anchor="start" x="406" y="-249" font-family="Helvetica,sans-Serif" font-size="10.00">prototypes/container</text>
<text text-anchor="middle" x="457" y="-238" font-family="Helvetica,sans-Serif" font-size="10.00">/FieldContainer.hpp</text>
</a>
</g>
</g>
<!-- Node1&#45;&gt;Node13 -->
<g id="edge13_Node000001_Node000013" class="edge">
<title>Node1&#45;&gt;Node13</title>
<g id="a_edge13_Node000001_Node000013"><a xlink:title=" ">
<path fill="none" stroke="#63b8ff" d="M457,-296.87C457,-290.11 457,-280.35 457,-271.26"/>
<polygon fill="#63b8ff" stroke="#63b8ff" points="460.5,-271.11 457,-261.11 453.5,-271.11 460.5,-271.11"/>
</a>
</g>
</g>
<!-- Node32 -->
<g id="Node000032" class="node">
<title>Node32</title>
<g id="a_Node000032"><a xlink:href="../../d7/d50/FieldInfo_8hpp.html" target="_top" xlink:title="Helpers and utilities for compile&#45;time field metadata and tuple processing.">
<polygon fill="white" stroke="#666666" points="354.5,-189.5 195.5,-189.5 195.5,-170.5 354.5,-170.5 354.5,-189.5"/>
<text text-anchor="middle" x="275" y="-177.5" font-family="Helvetica,sans-Serif" font-size="10.00">prototypes/field/FieldInfo.hpp</text>
</a>
</g>
</g>
<!-- Node1&#45;&gt;Node32 -->
<g id="edge46_Node000001_Node000032" class="edge">
<title>Node1&#45;&gt;Node32</title>
<g id="a_edge46_Node000001_Node000032"><a xlink:title=" ">
<path fill="none" stroke="#63b8ff" d="M443.63,-296.93C429.85,-288.06 407.8,-273.74 389,-261 355.78,-238.48 317.72,-211.54 295.06,-195.37"/>
<polygon fill="#63b8ff" stroke="#63b8ff" points="297.06,-192.5 286.89,-189.54 292.99,-198.2 297.06,-192.5"/>
</a>
</g>
</g>
<!-- Node6 -->
<g id="Node000006" class="node">
<title>Node6</title>
<g id="a_Node000006"><a xlink:title=" ">
<polygon fill="#e0e0e0" stroke="#999999" points="1075,-129 1023,-129 1023,-110 1075,-110 1075,-129"/>
<text text-anchor="middle" x="1049" y="-117" font-family="Helvetica,sans-Serif" font-size="10.00">cassert</text>
</a>
</g>
</g>
<!-- Node5&#45;&gt;Node6 -->
<g id="edge5_Node000005_Node000006" class="edge">
<title>Node5&#45;&gt;Node6</title>
<g id="a_edge5_Node000005_Node000006"><a xlink:title=" ">
<path fill="none" stroke="#63b8ff" d="M971.43,-170.37C986.08,-160.95 1009.76,-145.73 1027.1,-134.58"/>
<polygon fill="#63b8ff" stroke="#63b8ff" points="1029,-137.52 1035.52,-129.17 1025.21,-131.63 1029,-137.52"/>
</a>
</g>
</g>
<!-- Node7 -->
<g id="Node000007" class="node">
<title>Node7</title>
<g id="a_Node000007"><a xlink:title=" ">
<polygon fill="#e0e0e0" stroke="#999999" points="680.5,-74 627.5,-74 627.5,-55 680.5,-55 680.5,-74"/>
<text text-anchor="middle" x="654" y="-62" font-family="Helvetica,sans-Serif" font-size="10.00">cstddef</text>
</a>
</g>
</g>
<!-- Node5&#45;&gt;Node7 -->
<g id="edge6_Node000005_Node000007" class="edge">
<title>Node5&#45;&gt;Node7</title>
<g id="a_edge6_Node000005_Node000007"><a xlink:title=" ">
<path fill="none" stroke="#63b8ff" d="M930.43,-170.44C900.19,-160.91 850.32,-144.76 808,-129 763.98,-112.61 713.83,-91.46 683.04,-78.18"/>
<polygon fill="#63b8ff" stroke="#63b8ff" points="684.33,-74.92 673.76,-74.16 681.55,-81.35 684.33,-74.92"/>
</a>
</g>
</g>
<!-- Node8&#45;&gt;Node5 -->
<g id="edge12_Node000008_Node000005" class="edge">
<title>Node8&#45;&gt;Node5</title>
<g id="a_edge12_Node000008_Node000005"><a xlink:title=" ">
<path fill="none" stroke="#63b8ff" d="M1071.33,-236.37C1049.16,-225.54 1010.92,-206.85 985.05,-194.22"/>
<polygon fill="#63b8ff" stroke="#63b8ff" points="986.33,-190.94 975.81,-189.7 983.25,-197.23 986.33,-190.94"/>
</a>
</g>
</g>
<!-- Node9 -->
<g id="Node000009" class="node">
<title>Node9</title>
<g id="a_Node000009"><a xlink:title=" ">
<polygon fill="#e0e0e0" stroke="#999999" points="1076,-189.5 1026,-189.5 1026,-170.5 1076,-170.5 1076,-189.5"/>
<text text-anchor="middle" x="1051" y="-177.5" font-family="Helvetica,sans-Serif" font-size="10.00">chrono</text>
</a>
</g>
</g>
<!-- Node8&#45;&gt;Node9 -->
<g id="edge8_Node000008_Node000009" class="edge">
<title>Node8&#45;&gt;Node9</title>
<g id="a_edge8_Node000008_Node000009"><a xlink:title=" ">
<path fill="none" stroke="#63b8ff" d="M1083.88,-236.37C1078.18,-226.78 1068.84,-211.05 1061.57,-198.8"/>
<polygon fill="#63b8ff" stroke="#63b8ff" points="1064.4,-196.72 1056.29,-189.91 1058.38,-200.29 1064.4,-196.72"/>
</a>
</g>
</g>
<!-- Node10 -->
<g id="Node000010" class="node">
<title>Node10</title>
<g id="a_Node000010"><a xlink:title=" ">
<polygon fill="#e0e0e0" stroke="#999999" points="1159.5,-189.5 1094.5,-189.5 1094.5,-170.5 1159.5,-170.5 1159.5,-189.5"/>
<text text-anchor="middle" x="1127" y="-177.5" font-family="Helvetica,sans-Serif" font-size="10.00">functional</text>
</a>
</g>
</g>
<!-- Node8&#45;&gt;Node10 -->
<g id="edge9_Node000008_Node000010" class="edge">
<title>Node8&#45;&gt;Node10</title>
<g id="a_edge9_Node000008_Node000010"><a xlink:title=" ">
<path fill="none" stroke="#63b8ff" d="M1094.12,-236.37C1099.82,-226.78 1109.16,-211.05 1116.43,-198.8"/>
<polygon fill="#63b8ff" stroke="#63b8ff" points="1119.62,-200.29 1121.71,-189.91 1113.6,-196.72 1119.62,-200.29"/>
</a>
</g>
</g>
<!-- Node11 -->
<g id="Node000011" class="node">
<title>Node11</title>
<g id="a_Node000011"><a xlink:title=" ">
<polygon fill="#e0e0e0" stroke="#999999" points="1236,-189.5 1178,-189.5 1178,-170.5 1236,-170.5 1236,-189.5"/>
<text text-anchor="middle" x="1207" y="-177.5" font-family="Helvetica,sans-Serif" font-size="10.00">memory</text>
</a>
</g>
</g>
<!-- Node8&#45;&gt;Node11 -->
<g id="edge10_Node000008_Node000011" class="edge">
<title>Node8&#45;&gt;Node11</title>
<g id="a_edge10_Node000008_Node000011"><a xlink:title=" ">
<path fill="none" stroke="#63b8ff" d="M1104.91,-236.37C1124.71,-225.63 1158.73,-207.18 1182.01,-194.55"/>
<polygon fill="#63b8ff" stroke="#63b8ff" points="1183.84,-197.54 1190.96,-189.7 1180.5,-191.39 1183.84,-197.54"/>
</a>
</g>
</g>
<!-- Node12 -->
<g id="Node000012" class="node">
<title>Node12</title>
<g id="a_Node000012"><a xlink:title=" ">
<polygon fill="#e0e0e0" stroke="#999999" points="1298,-189.5 1254,-189.5 1254,-170.5 1298,-170.5 1298,-189.5"/>
<text text-anchor="middle" x="1276" y="-177.5" font-family="Helvetica,sans-Serif" font-size="10.00">string</text>
</a>
</g>
</g>
<!-- Node8&#45;&gt;Node12 -->
<g id="edge11_Node000008_Node000012" class="edge">
<title>Node8&#45;&gt;Node12</title>
<g id="a_edge11_Node000008_Node000012"><a xlink:title=" ">
<path fill="none" stroke="#63b8ff" d="M1119.26,-236.42C1150.95,-227.17 1202,-211.54 1245,-195 1246.18,-194.55 1247.38,-194.07 1248.58,-193.58"/>
<polygon fill="#63b8ff" stroke="#63b8ff" points="1249.97,-196.79 1257.79,-189.64 1247.22,-190.36 1249.97,-196.79"/>
</a>
</g>
</g>
<!-- Node13&#45;&gt;Node3 -->
<g id="edge14_Node000013_Node000003" class="edge">
<title>Node13&#45;&gt;Node3</title>
<g id="a_edge14_Node000013_Node000003"><a xlink:title=" ">
<path fill="none" stroke="#63b8ff" d="M397.85,-242.45C324.6,-237.98 205.82,-226.05 176,-195 149.69,-167.6 146.25,-141.82 167,-110 182.5,-86.23 213.86,-75.07 237.55,-69.89"/>
<polygon fill="#63b8ff" stroke="#63b8ff" points="238.34,-73.3 247.49,-67.95 237,-66.43 238.34,-73.3"/>
</a>
</g>
</g>
<!-- Node13&#45;&gt;Node4 -->
<g id="edge15_Node000013_Node000004" class="edge">
<title>Node13&#45;&gt;Node4</title>
<g id="a_edge15_Node000013_Node000004"><a xlink:title=" ">
<path fill="none" stroke="#63b8ff" d="M433.94,-230.92C422,-222.21 408.58,-209.87 402,-195 396.61,-182.81 396.76,-177.26 402,-165 418.26,-126.93 457.03,-96.47 482.36,-79.71"/>
<polygon fill="#63b8ff" stroke="#63b8ff" points="484.49,-82.5 491.02,-74.16 480.71,-76.61 484.49,-82.5"/>
</a>
</g>
</g>
<!-- Node14 -->
<g id="Node000014" class="node">
<title>Node14</title>
<g id="a_Node000014"><a xlink:title=" ">
<polygon fill="#e0e0e0" stroke="#999999" points="503.5,-189.5 410.5,-189.5 410.5,-170.5 503.5,-170.5 503.5,-189.5"/>
<text text-anchor="middle" x="457" y="-177.5" font-family="Helvetica,sans-Serif" font-size="10.00">unordered_map</text>
</a>
</g>
</g>
<!-- Node13&#45;&gt;Node14 -->
<g id="edge16_Node000013_Node000014" class="edge">
<title>Node13&#45;&gt;Node14</title>
<g id="a_edge16_Node000013_Node000014"><a xlink:title=" ">
<path fill="none" stroke="#63b8ff" d="M457,-230.8C457,-221.7 457,-209.79 457,-199.9"/>
<polygon fill="#63b8ff" stroke="#63b8ff" points="460.5,-199.84 457,-189.84 453.5,-199.84 460.5,-199.84"/>
</a>
</g>
</g>
<!-- Node15 -->
<g id="Node000015" class="node">
<title>Node15</title>
<g id="a_Node000015"><a xlink:title=" ">
<polygon fill="#e0e0e0" stroke="#999999" points="221.5,-129 176.5,-129 176.5,-110 221.5,-110 221.5,-129"/>
<text text-anchor="middle" x="199" y="-117" font-family="Helvetica,sans-Serif" font-size="10.00">utility</text>
</a>
</g>
</g>
<!-- Node13&#45;&gt;Node15 -->
<g id="edge17_Node000013_Node000015" class="edge">
<title>Node13&#45;&gt;Node15</title>
<g id="a_edge17_Node000013_Node000015"><a xlink:title=" ">
<path fill="none" stroke="#63b8ff" d="M397.96,-242.6C326.74,-238.32 213.29,-226.61 187,-195 173.96,-179.32 181.22,-155.16 188.91,-138.63"/>
<polygon fill="#63b8ff" stroke="#63b8ff" points="192.15,-139.97 193.58,-129.47 185.92,-136.79 192.15,-139.97"/>
</a>
</g>
</g>
<!-- Node16 -->
<g id="Node000016" class="node">
<title>Node16</title>
<g id="a_Node000016"><a xlink:title=" ">
<polygon fill="#e0e0e0" stroke="#999999" points="632,-195 522,-195 522,-165 632,-165 632,-195"/>
<text text-anchor="start" x="530" y="-183" font-family="Helvetica,sans-Serif" font-size="10.00">libraries/crc/crcSoft</text>
<text text-anchor="middle" x="577" y="-172" font-family="Helvetica,sans-Serif" font-size="10.00">/CrcSoft.hpp</text>
</a>
</g>
</g>
<!-- Node13&#45;&gt;Node16 -->
<g id="edge18_Node000013_Node000016" class="edge">
<title>Node13&#45;&gt;Node16</title>
<g id="a_edge18_Node000013_Node000016"><a xlink:title=" ">
<path fill="none" stroke="#63b8ff" d="M483.33,-230.95C500.53,-221.78 523.18,-209.71 541.89,-199.72"/>
<polygon fill="#63b8ff" stroke="#63b8ff" points="543.55,-202.81 550.73,-195.01 540.26,-196.63 543.55,-202.81"/>
</a>
</g>
</g>
<!-- Node17 -->
<g id="Node000017" class="node">
<title>Node17</title>
<g id="a_Node000017"><a xlink:href="../../d7/d91/DataField_8hpp.html" target="_top" xlink:title="Variant DATA field that maps protocol IDs to payload types at compile time.">
<polygon fill="white" stroke="#666666" points="852,-189.5 688,-189.5 688,-170.5 852,-170.5 852,-189.5"/>
<text text-anchor="middle" x="770" y="-177.5" font-family="Helvetica,sans-Serif" font-size="10.00">prototypes/field/DataField.hpp</text>
</a>
</g>
</g>
<!-- Node13&#45;&gt;Node17 -->
<g id="edge19_Node000013_Node000017" class="edge">
<title>Node13&#45;&gt;Node17</title>
<g id="a_edge19_Node000013_Node000017"><a xlink:title=" ">
<path fill="none" stroke="#63b8ff" d="M516.24,-232.89C574.47,-220.98 662.46,-202.99 718.04,-191.62"/>
<polygon fill="#63b8ff" stroke="#63b8ff" points="718.93,-195.02 728.03,-189.58 717.53,-188.16 718.93,-195.02"/>
</a>
</g>
</g>
<!-- Node22 -->
<g id="Node000022" class="node">
<title>Node22</title>
<g id="a_Node000022"><a xlink:href="../../df/db6/FieldPrototype_8hpp.html" target="_top" xlink:title="FieldPrototype template for describing and handling protocol fields.">
<polygon fill="white" stroke="#666666" points="1005,-129 817,-129 817,-110 1005,-110 1005,-129"/>
<text text-anchor="middle" x="911" y="-117" font-family="Helvetica,sans-Serif" font-size="10.00">prototypes/field/FieldPrototype.hpp</text>
</a>
</g>
</g>
<!-- Node13&#45;&gt;Node22 -->
<g id="edge45_Node000013_Node000022" class="edge">
<title>Node13&#45;&gt;Node22</title>
<g id="a_edge45_Node000013_Node000022"><a xlink:title=" ">
<path fill="none" stroke="#63b8ff" d="M516.17,-243.63C614.08,-240.4 804.56,-229.71 861,-195 882.1,-182.02 896.27,-156.43 903.99,-138.89"/>
<polygon fill="#63b8ff" stroke="#63b8ff" points="907.41,-139.78 907.96,-129.2 900.93,-137.13 907.41,-139.78"/>
</a>
</g>
</g>
<!-- Node17&#45;&gt;Node3 -->
<g id="edge21_Node000017_Node000003" class="edge">
<title>Node17&#45;&gt;Node3</title>
<g id="a_edge21_Node000017_Node000003"><a xlink:title=" ">
<path fill="none" stroke="#63b8ff" d="M730.25,-170.49C684.55,-160.67 607.29,-143.95 541,-129 452.81,-109.12 348.84,-84.65 298.44,-72.72"/>
<polygon fill="#63b8ff" stroke="#63b8ff" points="299.06,-69.27 288.53,-70.37 297.45,-76.09 299.06,-69.27"/>
</a>
</g>
</g>
<!-- Node17&#45;&gt;Node4 -->
<g id="edge22_Node000017_Node000004" class="edge">
<title>Node17&#45;&gt;Node4</title>
<g id="a_edge22_Node000017_Node000004"><a xlink:title=" ">
<path fill="none" stroke="#63b8ff" d="M723.48,-170.45C672.69,-160.59 595.11,-143.83 569,-129 548.42,-117.31 530.02,-97.04 518.5,-82.55"/>
<polygon fill="#63b8ff" stroke="#63b8ff" points="521.11,-80.2 512.25,-74.39 515.56,-84.46 521.11,-80.2"/>
</a>
</g>
</g>
<!-- Node18 -->
<g id="Node000018" class="node">
<title>Node18</title>
<g id="a_Node000018"><a xlink:title=" ">
<polygon fill="#e0e0e0" stroke="#999999" points="814,-74 764,-74 764,-55 814,-55 814,-74"/>
<text text-anchor="middle" x="789" y="-62" font-family="Helvetica,sans-Serif" font-size="10.00">cstring</text>
</a>
</g>
</g>
<!-- Node17&#45;&gt;Node18 -->
<g id="edge20_Node000017_Node000018" class="edge">
<title>Node17&#45;&gt;Node18</title>
<g id="a_edge20_Node000017_Node000018"><a xlink:title=" ">
<path fill="none" stroke="#63b8ff" d="M771.43,-170.47C774.48,-152.23 781.71,-109.07 785.88,-84.14"/>
<polygon fill="#63b8ff" stroke="#63b8ff" points="789.36,-84.57 787.56,-74.13 782.45,-83.41 789.36,-84.57"/>
</a>
</g>
</g>
<!-- Node19 -->
<g id="Node000019" class="node">
<title>Node19</title>
<g id="a_Node000019"><a xlink:title=" ">
<polygon fill="#e0e0e0" stroke="#999999" points="745.5,-74 698.5,-74 698.5,-55 745.5,-55 745.5,-74"/>
<text text-anchor="middle" x="722" y="-62" font-family="Helvetica,sans-Serif" font-size="10.00">vector</text>
</a>
</g>
</g>
<!-- Node17&#45;&gt;Node19 -->
<g id="edge23_Node000017_Node000019" class="edge">
<title>Node17&#45;&gt;Node19</title>
<g id="a_edge23_Node000017_Node000019"><a xlink:title=" ">
<path fill="none" stroke="#63b8ff" d="M766.39,-170.47C758.61,-152.06 740.1,-108.29 729.6,-83.48"/>
<polygon fill="#63b8ff" stroke="#63b8ff" points="732.77,-81.98 725.65,-74.13 726.32,-84.7 732.77,-81.98"/>
</a>
</g>
</g>
<!-- Node20 -->
<g id="Node000020" class="node">
<title>Node20</title>
<g id="a_Node000020"><a xlink:href="../../d7/d38/UniqueVariant_8hpp.html" target="_top" xlink:title=" ">
<polygon fill="white" stroke="#666666" points="684.5,-129 577.5,-129 577.5,-110 684.5,-110 684.5,-129"/>
<text text-anchor="middle" x="631" y="-117" font-family="Helvetica,sans-Serif" font-size="10.00">UniqueVariant.hpp</text>
</a>
</g>
</g>
<!-- Node17&#45;&gt;Node20 -->
<g id="edge24_Node000017_Node000020" class="edge">
<title>Node17&#45;&gt;Node20</title>
<g id="a_edge24_Node000017_Node000020"><a xlink:title=" ">
<path fill="none" stroke="#63b8ff" d="M749.79,-170.49C726.32,-160.62 687.39,-144.23 660.54,-132.93"/>
<polygon fill="#63b8ff" stroke="#63b8ff" points="661.81,-129.67 651.24,-129.02 659.1,-136.12 661.81,-129.67"/>
</a>
</g>
</g>
<!-- Node17&#45;&gt;Node22 -->
<g id="edge30_Node000017_Node000022" class="edge">
<title>Node17&#45;&gt;Node22</title>
<g id="a_edge30_Node000017_Node000022"><a xlink:title=" ">
<path fill="none" stroke="#63b8ff" d="M790.5,-170.49C814.31,-160.62 853.79,-144.23 881.04,-132.93"/>
<polygon fill="#63b8ff" stroke="#63b8ff" points="882.58,-136.08 890.47,-129.02 879.89,-129.62 882.58,-136.08"/>
</a>
</g>
</g>
<!-- Node20&#45;&gt;Node3 -->
<g id="edge26_Node000020_Node000003" class="edge">
<title>Node20&#45;&gt;Node3</title>
<g id="a_edge26_Node000020_Node000003"><a xlink:title=" ">
<path fill="none" stroke="#63b8ff" d="M577.44,-110.68C500.42,-99.43 360.85,-79.06 298.97,-70.02"/>
<polygon fill="#63b8ff" stroke="#63b8ff" points="299.1,-66.5 288.7,-68.52 298.09,-73.43 299.1,-66.5"/>
</a>
</g>
</g>
<!-- Node20&#45;&gt;Node4 -->
<g id="edge27_Node000020_Node000004" class="edge">
<title>Node20&#45;&gt;Node4</title>
<g id="a_edge27_Node000020_Node000004"><a xlink:title=" ">
<path fill="none" stroke="#63b8ff" d="M610.92,-109.98C590.63,-101.38 559.04,-87.99 535.83,-78.15"/>
<polygon fill="#63b8ff" stroke="#63b8ff" points="537.02,-74.85 526.45,-74.17 534.29,-81.3 537.02,-74.85"/>
</a>
</g>
</g>
<!-- Node20&#45;&gt;Node7 -->
<g id="edge25_Node000020_Node000007" class="edge">
<title>Node20&#45;&gt;Node7</title>
<g id="a_edge25_Node000020_Node000007"><a xlink:title=" ">
<path fill="none" stroke="#63b8ff" d="M634.8,-109.75C637.91,-102.57 642.42,-92.18 646.29,-83.27"/>
<polygon fill="#63b8ff" stroke="#63b8ff" points="649.5,-84.66 650.27,-74.09 643.08,-81.87 649.5,-84.66"/>
</a>
</g>
</g>
<!-- Node20&#45;&gt;Node19 -->
<g id="edge29_Node000020_Node000019" class="edge">
<title>Node20&#45;&gt;Node19</title>
<g id="a_edge29_Node000020_Node000019"><a xlink:title=" ">
<path fill="none" stroke="#63b8ff" d="M645.62,-109.98C659.86,-101.69 681.75,-88.94 698.45,-79.22"/>
<polygon fill="#63b8ff" stroke="#63b8ff" points="700.23,-82.23 707.11,-74.17 696.71,-76.18 700.23,-82.23"/>
</a>
</g>
</g>
<!-- Node21 -->
<g id="Node000021" class="node">
<title>Node21</title>
<g id="a_Node000021"><a xlink:title=" ">
<polygon fill="#e0e0e0" stroke="#999999" points="609.5,-74 558.5,-74 558.5,-55 609.5,-55 609.5,-74"/>
<text text-anchor="middle" x="584" y="-62" font-family="Helvetica,sans-Serif" font-size="10.00">variant</text>
</a>
</g>
</g>
<!-- Node20&#45;&gt;Node21 -->
<g id="edge28_Node000020_Node000021" class="edge">
<title>Node20&#45;&gt;Node21</title>
<g id="a_edge28_Node000020_Node000021"><a xlink:title=" ">
<path fill="none" stroke="#63b8ff" d="M623.24,-109.75C616.53,-102.18 606.66,-91.05 598.49,-81.84"/>
<polygon fill="#63b8ff" stroke="#63b8ff" points="600.87,-79.25 591.62,-74.09 595.63,-83.89 600.87,-79.25"/>
</a>
</g>
</g>
<!-- Node22&#45;&gt;Node4 -->
<g id="edge38_Node000022_Node000004" class="edge">
<title>Node22&#45;&gt;Node4</title>
<g id="a_edge38_Node000022_Node000004"><a xlink:title=" ">
<path fill="none" stroke="#63b8ff" d="M828.69,-109.97C757.74,-102.25 652.33,-89.89 550.69,-74"/>
<polygon fill="#63b8ff" stroke="#63b8ff" points="550.97,-70.5 540.55,-72.4 549.88,-77.42 550.97,-70.5"/>
</a>
</g>
</g>
<!-- Node22&#45;&gt;Node18 -->
<g id="edge32_Node000022_Node000018" class="edge">
<title>Node22&#45;&gt;Node18</title>
<g id="a_edge32_Node000022_Node000018"><a xlink:title=" ">
<path fill="none" stroke="#63b8ff" d="M891.4,-109.98C871.68,-101.42 841.05,-88.11 818.42,-78.28"/>
<polygon fill="#63b8ff" stroke="#63b8ff" points="819.52,-74.94 808.96,-74.17 816.74,-81.37 819.52,-74.94"/>
</a>
</g>
</g>
<!-- Node22&#45;&gt;Node19 -->
<g id="edge39_Node000022_Node000019" class="edge">
<title>Node22&#45;&gt;Node19</title>
<g id="a_edge39_Node000022_Node000019"><a xlink:title=" ">
<path fill="none" stroke="#63b8ff" d="M880.63,-109.98C846.44,-100.4 791.05,-84.86 755.59,-74.92"/>
<polygon fill="#63b8ff" stroke="#63b8ff" points="756.28,-71.48 745.71,-72.15 754.39,-78.22 756.28,-71.48"/>
</a>
</g>
</g>
<!-- Node23 -->
<g id="Node000023" class="node">
<title>Node23</title>
<g id="a_Node000023"><a xlink:title=" ">
<polygon fill="#e0e0e0" stroke="#999999" points="1269,-19 1219,-19 1219,0 1269,0 1269,-19"/>
<text text-anchor="middle" x="1244" y="-7" font-family="Helvetica,sans-Serif" font-size="10.00">cstdint</text>
</a>
</g>
</g>
<!-- Node22&#45;&gt;Node23 -->
<g id="edge31_Node000022_Node000023" class="edge">
<title>Node22&#45;&gt;Node23</title>
<g id="a_edge31_Node000022_Node000023"><a xlink:title=" ">
<path fill="none" stroke="#63b8ff" d="M999.4,-109.97C1098.5,-99.98 1246.58,-83.58 1255,-74 1265.94,-61.56 1260.54,-42.27 1254.05,-28.21"/>
<polygon fill="#63b8ff" stroke="#63b8ff" points="1257.04,-26.36 1249.35,-19.07 1250.81,-29.57 1257.04,-26.36"/>
</a>
</g>
</g>
<!-- Node24 -->
<g id="Node000024" class="node">
<title>Node24</title>
<g id="a_Node000024"><a xlink:title=" ">
<polygon fill="#e0e0e0" stroke="#999999" points="1246,-74 1190,-74 1190,-55 1246,-55 1246,-74"/>
<text text-anchor="middle" x="1218" y="-62" font-family="Helvetica,sans-Serif" font-size="10.00">iomanip</text>
</a>
</g>
</g>
<!-- Node22&#45;&gt;Node24 -->
<g id="edge33_Node000022_Node000024" class="edge">
<title>Node22&#45;&gt;Node24</title>
<g id="a_edge33_Node000022_Node000024"><a xlink:title=" ">
<path fill="none" stroke="#63b8ff" d="M970.16,-109.99C1022.94,-102.12 1102.56,-89.59 1179.84,-74.34"/>
<polygon fill="#63b8ff" stroke="#63b8ff" points="1180.62,-77.75 1189.74,-72.37 1179.25,-70.89 1180.62,-77.75"/>
</a>
</g>
</g>
<!-- Node25 -->
<g id="Node000025" class="node">
<title>Node25</title>
<g id="a_Node000025"><a xlink:title=" ">
<polygon fill="#e0e0e0" stroke="#999999" points="1362,-74 1302,-74 1302,-55 1362,-55 1362,-74"/>
<text text-anchor="middle" x="1332" y="-62" font-family="Helvetica,sans-Serif" font-size="10.00">iostream</text>
</a>
</g>
</g>
<!-- Node22&#45;&gt;Node25 -->
<g id="edge34_Node000022_Node000025" class="edge">
<title>Node22&#45;&gt;Node25</title>
<g id="a_edge34_Node000022_Node000025"><a xlink:title=" ">
<path fill="none" stroke="#63b8ff" d="M998.85,-109.97C1075.42,-102.1 1189.34,-89.33 1288,-74 1289.25,-73.81 1290.53,-73.6 1291.81,-73.39"/>
<polygon fill="#63b8ff" stroke="#63b8ff" points="1292.51,-76.82 1301.75,-71.65 1291.3,-69.92 1292.51,-76.82"/>
</a>
</g>
</g>
<!-- Node26 -->
<g id="Node000026" class="node">
<title>Node26</title>
<g id="a_Node000026"><a xlink:title=" ">
<polygon fill="#e0e0e0" stroke="#999999" points="950,-74 906,-74 906,-55 950,-55 950,-74"/>
<text text-anchor="middle" x="928" y="-62" font-family="Helvetica,sans-Serif" font-size="10.00">limits</text>
</a>
</g>
</g>
<!-- Node22&#45;&gt;Node26 -->
<g id="edge35_Node000022_Node000026" class="edge">
<title>Node22&#45;&gt;Node26</title>
<g id="a_edge35_Node000022_Node000026"><a xlink:title=" ">
<path fill="none" stroke="#63b8ff" d="M913.81,-109.75C916.06,-102.72 919.3,-92.62 922.12,-83.84"/>
<polygon fill="#63b8ff" stroke="#63b8ff" points="925.52,-84.68 925.25,-74.09 918.86,-82.54 925.52,-84.68"/>
</a>
</g>
</g>
<!-- Node27 -->
<g id="Node000027" class="node">
<title>Node27</title>
<g id="a_Node000027"><a xlink:title=" ">
<polygon fill="#e0e0e0" stroke="#999999" points="888,-74 832,-74 832,-55 888,-55 888,-74"/>
<text text-anchor="middle" x="860" y="-62" font-family="Helvetica,sans-Serif" font-size="10.00">sstream</text>
</a>
</g>
</g>
<!-- Node22&#45;&gt;Node27 -->
<g id="edge36_Node000022_Node000027" class="edge">
<title>Node22&#45;&gt;Node27</title>
<g id="a_edge36_Node000022_Node000027"><a xlink:title=" ">
<path fill="none" stroke="#63b8ff" d="M902.58,-109.75C895.23,-102.11 884.37,-90.82 875.46,-81.56"/>
<polygon fill="#63b8ff" stroke="#63b8ff" points="877.72,-78.87 868.26,-74.09 872.68,-83.72 877.72,-78.87"/>
</a>
</g>
</g>
<!-- Node28 -->
<g id="Node000028" class="node">
<title>Node28</title>
<g id="a_Node000028"><a xlink:title=" ">
<polygon fill="#e0e0e0" stroke="#999999" points="1028.5,-19 955.5,-19 955.5,0 1028.5,0 1028.5,-19"/>
<text text-anchor="middle" x="992" y="-7" font-family="Helvetica,sans-Serif" font-size="10.00">string_view</text>
</a>
</g>
</g>
<!-- Node22&#45;&gt;Node28 -->
<g id="edge37_Node000022_Node000028" class="edge">
<title>Node22&#45;&gt;Node28</title>
<g id="a_edge37_Node000022_Node000028"><a xlink:title=" ">
<path fill="none" stroke="#63b8ff" d="M922.33,-109.89C932.78,-101.54 948.25,-88.1 959,-74 969.7,-59.97 978.68,-41.96 984.56,-28.71"/>
<polygon fill="#63b8ff" stroke="#63b8ff" points="987.89,-29.84 988.59,-19.26 981.45,-27.09 987.89,-29.84"/>
</a>
</g>
</g>
<!-- Node29 -->
<g id="Node000029" class="node">
<title>Node29</title>
<g id="a_Node000029"><a xlink:href="../../d4/d9e/FieldFlags_8hpp.html" target="_top" xlink:title="Common enums and utilities for protocol field names and flags.">
<polygon fill="white" stroke="#666666" points="1172.5,-74 1005.5,-74 1005.5,-55 1172.5,-55 1172.5,-74"/>
<text text-anchor="middle" x="1089" y="-62" font-family="Helvetica,sans-Serif" font-size="10.00">prototypes/field/FieldFlags.hpp</text>
</a>
</g>
</g>
<!-- Node22&#45;&gt;Node29 -->
<g id="edge40_Node000022_Node000029" class="edge">
<title>Node22&#45;&gt;Node29</title>
<g id="a_edge40_Node000022_Node000029"><a xlink:title=" ">
<path fill="none" stroke="#63b8ff" d="M939.6,-109.98C969.61,-101.05 1016.98,-86.94 1050.32,-77.02"/>
<polygon fill="#63b8ff" stroke="#63b8ff" points="1051.59,-80.29 1060.18,-74.08 1049.59,-73.58 1051.59,-80.29"/>
</a>
</g>
</g>
<!-- Node29&#45;&gt;Node23 -->
<g id="edge42_Node000029_Node000023" class="edge">
<title>Node29&#45;&gt;Node23</title>
<g id="a_edge42_Node000029_Node000023"><a xlink:title=" ">
<path fill="none" stroke="#63b8ff" d="M1113.9,-54.98C1139.7,-46.16 1180.22,-32.31 1209.18,-22.41"/>
<polygon fill="#63b8ff" stroke="#63b8ff" points="1210.57,-25.63 1218.9,-19.08 1208.31,-19.01 1210.57,-25.63"/>
</a>
</g>
</g>
<!-- Node29&#45;&gt;Node28 -->
<g id="edge44_Node000029_Node000028" class="edge">
<title>Node29&#45;&gt;Node28</title>
<g id="a_edge44_Node000029_Node000028"><a xlink:title=" ">
<path fill="none" stroke="#63b8ff" d="M1073.42,-54.98C1058.23,-46.69 1034.9,-33.94 1017.1,-24.22"/>
<polygon fill="#63b8ff" stroke="#63b8ff" points="1018.32,-20.89 1007.87,-19.17 1014.97,-27.04 1018.32,-20.89"/>
</a>
</g>
</g>
<!-- Node30 -->
<g id="Node000030" class="node">
<title>Node30</title>
<g id="a_Node000030"><a xlink:title=" ">
<polygon fill="#e0e0e0" stroke="#999999" points="1171,-19 1129,-19 1129,0 1171,0 1171,-19"/>
<text text-anchor="middle" x="1150" y="-7" font-family="Helvetica,sans-Serif" font-size="10.00">array</text>
</a>
</g>
</g>
<!-- Node29&#45;&gt;Node30 -->
<g id="edge41_Node000029_Node000030" class="edge">
<title>Node29&#45;&gt;Node30</title>
<g id="a_edge41_Node000029_Node000030"><a xlink:title=" ">
<path fill="none" stroke="#63b8ff" d="M1098.8,-54.98C1107.82,-47.15 1121.41,-35.34 1132.32,-25.86"/>
<polygon fill="#63b8ff" stroke="#63b8ff" points="1134.77,-28.37 1140.02,-19.17 1130.18,-23.09 1134.77,-28.37"/>
</a>
</g>
</g>
<!-- Node31 -->
<g id="Node000031" class="node">
<title>Node31</title>
<g id="a_Node000031"><a xlink:title=" ">
<polygon fill="#e0e0e0" stroke="#999999" points="1110.5,-19 1053.5,-19 1053.5,0 1110.5,0 1110.5,-19"/>
<text text-anchor="middle" x="1082" y="-7" font-family="Helvetica,sans-Serif" font-size="10.00">ostream</text>
</a>
</g>
</g>
<!-- Node29&#45;&gt;Node31 -->
<g id="edge43_Node000029_Node000031" class="edge">
<title>Node29&#45;&gt;Node31</title>
<g id="a_edge43_Node000029_Node000031"><a xlink:title=" ">
<path fill="none" stroke="#63b8ff" d="M1087.84,-54.75C1086.93,-47.8 1085.61,-37.85 1084.46,-29.13"/>
<polygon fill="#63b8ff" stroke="#63b8ff" points="1087.91,-28.54 1083.13,-19.09 1080.97,-29.46 1087.91,-28.54"/>
</a>
</g>
</g>
<!-- Node32&#45;&gt;Node3 -->
<g id="edge47_Node000032_Node000003" class="edge">
<title>Node32&#45;&gt;Node3</title>
<g id="a_edge47_Node000032_Node000003"><a xlink:title=" ">
<path fill="none" stroke="#63b8ff" d="M274.47,-170.47C273.35,-152.23 270.69,-109.07 269.15,-84.14"/>
<polygon fill="#63b8ff" stroke="#63b8ff" points="272.64,-83.9 268.53,-74.13 265.65,-84.33 272.64,-83.9"/>
</a>
</g>
</g>
<!-- Node32&#45;&gt;Node4 -->
<g id="edge48_Node000032_Node000004" class="edge">
<title>Node32&#45;&gt;Node4</title>
<g id="a_edge48_Node000032_Node000004"><a xlink:title=" ">
<path fill="none" stroke="#63b8ff" d="M284.34,-170.41C300.36,-156.09 334.57,-127.2 368,-110 397.71,-94.72 433.7,-83.32 461.47,-75.89"/>
<polygon fill="#63b8ff" stroke="#63b8ff" points="462.51,-79.24 471.31,-73.33 460.75,-72.46 462.51,-79.24"/>
</a>
</g>
</g>
<!-- Node32&#45;&gt;Node15 -->
<g id="edge49_Node000032_Node000015" class="edge">
<title>Node32&#45;&gt;Node15</title>
<g id="a_edge49_Node000032_Node000015"><a xlink:title=" ">
<path fill="none" stroke="#63b8ff" d="M263.79,-170.37C251.89,-161.21 232.86,-146.56 218.49,-135.51"/>
<polygon fill="#63b8ff" stroke="#63b8ff" points="220.32,-132.49 210.26,-129.17 216.05,-138.04 220.32,-132.49"/>
</a>
</g>
</g>
<!-- Node32&#45;&gt;Node22 -->
<g id="edge50_Node000032_Node000022" class="edge">
<title>Node32&#45;&gt;Node22</title>
<g id="a_edge50_Node000032_Node000022"><a xlink:title=" ">
<path fill="none" stroke="#63b8ff" d="M349.85,-170.46C366.98,-168.59 385.11,-166.67 402,-165 541.89,-151.18 703.64,-137.41 806.58,-128.94"/>
<polygon fill="#63b8ff" stroke="#63b8ff" points="806.98,-132.41 816.66,-128.11 806.41,-125.44 806.98,-132.41"/>
</a>
</g>
</g>
</g>
</svg>
