<?xml version="1.0" encoding="UTF-8" standalone="no"?>
<!DOCTYPE svg PUBLIC "-//W3C//DTD SVG 1.1//EN"
 "http://www.w3.org/Graphics/SVG/1.1/DTD/svg11.dtd">
<!-- Generated by graphviz version 2.43.0 (0)
 -->
<!-- Title: proto::to_string Pages: 1 -->
<svg width="451pt" height="134pt"
 viewBox="0.00 0.00 451.00 134.00" xmlns="http://www.w3.org/2000/svg" xmlns:xlink="http://www.w3.org/1999/xlink">
<g id="graph0" class="graph" transform="scale(1 1) rotate(0) translate(4 130)">
<title>proto::to_string</title>
<!-- Node1 -->
<g id="Node000001" class="node">
<title>Node1</title>
<g id="a_Node000001"><a xlink:title="Convert FieldName enum to string.">
<polygon fill="#999999" stroke="#666666" points="443,-48.5 352,-48.5 352,-29.5 443,-29.5 443,-48.5"/>
<text text-anchor="middle" x="397.5" y="-36.5" font-family="Helvetica,sans-Serif" font-size="10.00">proto::to_string</text>
</a>
</g>
</g>
<!-- Node2 -->
<g id="Node000002" class="node">
<title>Node2</title>
<g id="a_Node000002"><a xlink:href="../../d0/d29/classproto_1_1RxContainer.html#a62f66f4bc347105478aba5bffd14796f" target="_top" xlink:title="Feeds a chunk of bytes to the parser and advances internal state.">
<polygon fill="white" stroke="#666666" points="310.5,-78 202.5,-78 202.5,-48 310.5,-48 310.5,-78"/>
<text text-anchor="start" x="210.5" y="-66" font-family="Helvetica,sans-Serif" font-size="10.00">proto::RxContainer</text>
<text text-anchor="middle" x="256.5" y="-55" font-family="Helvetica,sans-Serif" font-size="10.00">::fill</text>
</a>
</g>
</g>
<!-- Node1&#45;&gt;Node2 -->
<g id="edge1_Node000001_Node000002" class="edge">
<title>Node1&#45;&gt;Node2</title>
<g id="a_edge1_Node000001_Node000002"><a xlink:title=" ">
<path fill="none" stroke="#63b8ff" d="M341.78,-48.45C331.62,-50.2 321.02,-52.03 310.9,-53.78"/>
<polygon fill="#63b8ff" stroke="#63b8ff" points="342.5,-51.88 351.75,-46.73 341.3,-44.98 342.5,-51.88"/>
</a>
</g>
</g>
<!-- Node6 -->
<g id="Node000006" class="node">
<title>Node6</title>
<g id="a_Node000006"><a xlink:href="../../dc/d80/classproto_1_1FieldPrototype.html#a9b5a4fda6ecadbf8c3f5e17e1c360cfe" target="_top" xlink:title="Print field contents in a table format.">
<polygon fill="white" stroke="#666666" points="316,-30 197,-30 197,0 316,0 316,-30"/>
<text text-anchor="start" x="205" y="-18" font-family="Helvetica,sans-Serif" font-size="10.00">proto::FieldPrototype</text>
<text text-anchor="middle" x="256.5" y="-7" font-family="Helvetica,sans-Serif" font-size="10.00">::print</text>
</a>
</g>
</g>
<!-- Node1&#45;&gt;Node6 -->
<g id="edge5_Node000001_Node000006" class="edge">
<title>Node1&#45;&gt;Node6</title>
<g id="a_edge5_Node000001_Node000006"><a xlink:title=" ">
<path fill="none" stroke="#63b8ff" d="M341.69,-29.54C333.3,-28.09 324.6,-26.59 316.12,-25.12"/>
<polygon fill="#63b8ff" stroke="#63b8ff" points="341.3,-33.02 351.75,-31.27 342.5,-26.12 341.3,-33.02"/>
</a>
</g>
</g>
<!-- Node3 -->
<g id="Node000003" class="node">
<title>Node3</title>
<g id="a_Node000003"><a xlink:href="../../d4/d66/classproto_1_1exoAtlant_1_1ExoAtlantProtocol__.html#ab292d3fc1828c447d3e9d654aff5fcda" target="_top" xlink:title="Разбор входящего блока данных">
<polygon fill="white" stroke="#666666" points="154,-126 7,-126 7,-96 154,-96 154,-126"/>
<text text-anchor="start" x="15" y="-114" font-family="Helvetica,sans-Serif" font-size="10.00">proto::exoAtlant::ExoAtlant</text>
<text text-anchor="middle" x="80.5" y="-103" font-family="Helvetica,sans-Serif" font-size="10.00">Protocol_::parse</text>
</a>
</g>
</g>
<!-- Node2&#45;&gt;Node3 -->
<g id="edge2_Node000002_Node000003" class="edge">
<title>Node2&#45;&gt;Node3</title>
<g id="a_edge2_Node000002_Node000003"><a xlink:title=" ">
<path fill="none" stroke="#63b8ff" d="M192.56,-80.36C174.09,-85.46 154.04,-90.99 136.13,-95.93"/>
<polygon fill="#63b8ff" stroke="#63b8ff" points="193.64,-83.7 202.35,-77.66 191.78,-76.95 193.64,-83.7"/>
</a>
</g>
</g>
<!-- Node4 -->
<g id="Node000004" class="node">
<title>Node4</title>
<g id="a_Node000004"><a xlink:href="../../d3/d19/classproto_1_1ProtocolNoSysEndpoint.html#ab30ab8459d9984e0548be53972e4f498" target="_top" xlink:title=" ">
<polygon fill="white" stroke="#666666" points="161,-78 0,-78 0,-48 161,-48 161,-78"/>
<text text-anchor="start" x="8" y="-66" font-family="Helvetica,sans-Serif" font-size="10.00">proto::ProtocolNoSysEndpoint</text>
<text text-anchor="middle" x="80.5" y="-55" font-family="Helvetica,sans-Serif" font-size="10.00">::receive</text>
</a>
</g>
</g>
<!-- Node2&#45;&gt;Node4 -->
<g id="edge3_Node000002_Node000004" class="edge">
<title>Node2&#45;&gt;Node4</title>
<g id="a_edge3_Node000002_Node000004"><a xlink:title=" ">
<path fill="none" stroke="#63b8ff" d="M192.09,-63C182.06,-63 171.58,-63 161.24,-63"/>
<polygon fill="#63b8ff" stroke="#63b8ff" points="192.35,-66.5 202.35,-63 192.35,-59.5 192.35,-66.5"/>
</a>
</g>
</g>
<!-- Node5 -->
<g id="Node000005" class="node">
<title>Node5</title>
<g id="a_Node000005"><a xlink:href="../../d6/dc5/classproto_1_1ProtocolEndpoint.html#adf613bd3ee363704002a992199be43f1" target="_top" xlink:title="Wire the endpoint to external RX and TX interfaces.">
<polygon fill="white" stroke="#666666" points="146,-30 15,-30 15,0 146,0 146,-30"/>
<text text-anchor="start" x="23" y="-18" font-family="Helvetica,sans-Serif" font-size="10.00">proto::ProtocolEndpoint</text>
<text text-anchor="middle" x="80.5" y="-7" font-family="Helvetica,sans-Serif" font-size="10.00">::set_interfaces</text>
</a>
</g>
</g>
<!-- Node2&#45;&gt;Node5 -->
<g id="edge4_Node000002_Node000005" class="edge">
<title>Node2&#45;&gt;Node5</title>
<g id="a_edge4_Node000002_Node000005"><a xlink:title=" ">
<path fill="none" stroke="#63b8ff" d="M192.56,-45.64C174.09,-40.54 154.04,-35.01 136.13,-30.07"/>
<polygon fill="#63b8ff" stroke="#63b8ff" points="191.78,-49.05 202.35,-48.34 193.64,-42.3 191.78,-49.05"/>
</a>
</g>
</g>
</g>
</svg>
