<?xml version="1.0" encoding="UTF-8" standalone="no"?>
<!DOCTYPE svg PUBLIC "-//W3C//DTD SVG 1.1//EN"
 "http://www.w3.org/Graphics/SVG/1.1/DTD/svg11.dtd">
<!-- Generated by graphviz version 2.43.0 (0)
 -->
<!-- Title: proto::lacte::McuUid::to_string Pages: 1 -->
<svg width="265pt" height="76pt"
 viewBox="0.00 0.00 265.00 75.50" xmlns="http://www.w3.org/2000/svg" xmlns:xlink="http://www.w3.org/1999/xlink">
<g id="graph0" class="graph" transform="scale(1 1) rotate(0) translate(4 71.5)">
<title>proto::lacte::McuUid::to_string</title>
<!-- Node1 -->
<g id="Node000001" class="node">
<title>Node1</title>
<g id="a_Node000001"><a xlink:title=" ">
<polygon fill="#999999" stroke="#666666" points="115,-51 0,-51 0,-21 115,-21 115,-51"/>
<text text-anchor="start" x="8" y="-39" font-family="Helvetica,sans-Serif" font-size="10.00">proto::lacte::McuUid</text>
<text text-anchor="middle" x="57.5" y="-28" font-family="Helvetica,sans-Serif" font-size="10.00">::to_string</text>
</a>
</g>
</g>
<!-- Node2 -->
<g id="Node000002" class="node">
<title>Node2</title>
<g id="a_Node000002"><a xlink:href="../../d6/d58/classCustomSpan.html#aa94cafb45950ce4dbcf4e57f6c22615a" target="_top" xlink:title=" ">
<polygon fill="white" stroke="#666666" points="257,-67.5 151,-67.5 151,-48.5 257,-48.5 257,-67.5"/>
<text text-anchor="middle" x="204" y="-55.5" font-family="Helvetica,sans-Serif" font-size="10.00">CustomSpan::data</text>
</a>
</g>
</g>
<!-- Node1&#45;&gt;Node2 -->
<g id="edge1_Node000001_Node000002" class="edge">
<title>Node1&#45;&gt;Node2</title>
<g id="a_edge1_Node000001_Node000002"><a xlink:title=" ">
<path fill="none" stroke="#63b8ff" d="M115.2,-44.63C123.51,-45.9 132.12,-47.21 140.55,-48.49"/>
<polygon fill="#63b8ff" stroke="#63b8ff" points="140.29,-51.99 150.71,-50.04 141.35,-45.07 140.29,-51.99"/>
</a>
</g>
</g>
<!-- Node3 -->
<g id="Node000003" class="node">
<title>Node3</title>
<g id="a_Node000003"><a xlink:href="../../d3/d81/namespaceproto_1_1lacte.html#a91cec79e780cbbd26e1c83b74e572779" target="_top" xlink:title=" ">
<polygon fill="white" stroke="#666666" points="254.5,-30 153.5,-30 153.5,0 254.5,0 254.5,-30"/>
<text text-anchor="start" x="161.5" y="-18" font-family="Helvetica,sans-Serif" font-size="10.00">proto::lacte::print</text>
<text text-anchor="middle" x="204" y="-7" font-family="Helvetica,sans-Serif" font-size="10.00">_bytes</text>
</a>
</g>
</g>
<!-- Node1&#45;&gt;Node3 -->
<g id="edge2_Node000001_Node000003" class="edge">
<title>Node1&#45;&gt;Node3</title>
<g id="a_edge2_Node000001_Node000003"><a xlink:title=" ">
<path fill="none" stroke="#63b8ff" d="M115.2,-27.76C124.49,-26.41 134.14,-25.01 143.49,-23.65"/>
<polygon fill="#63b8ff" stroke="#63b8ff" points="144.11,-27.1 153.5,-22.19 143.1,-20.17 144.11,-27.1"/>
</a>
</g>
</g>
</g>
</svg>
