<?xml version="1.0" encoding="UTF-8" standalone="no"?>
<!DOCTYPE svg PUBLIC "-//W3C//DTD SVG 1.1//EN"
 "http://www.w3.org/Graphics/SVG/1.1/DTD/svg11.dtd">
<!-- Generated by graphviz version 2.43.0 (0)
 -->
<!-- Title: proto::exoAtlant::custom_crc::append Pages: 1 -->
<svg width="508pt" height="101pt"
 viewBox="0.00 0.00 508.00 101.00" xmlns="http://www.w3.org/2000/svg" xmlns:xlink="http://www.w3.org/1999/xlink">
<g id="graph0" class="graph" transform="scale(1 1) rotate(0) translate(4 97)">
<title>proto::exoAtlant::custom_crc::append</title>
<!-- Node1 -->
<g id="Node000001" class="node">
<title>Node1</title>
<g id="a_Node000001"><a xlink:title=" ">
<polygon fill="#999999" stroke="#666666" points="137,-61.5 0,-61.5 0,-31.5 137,-31.5 137,-61.5"/>
<text text-anchor="start" x="8" y="-49.5" font-family="Helvetica,sans-Serif" font-size="10.00">proto::exoAtlant::custom</text>
<text text-anchor="middle" x="68.5" y="-38.5" font-family="Helvetica,sans-Serif" font-size="10.00">_crc::append</text>
</a>
</g>
</g>
<!-- Node2 -->
<g id="Node000002" class="node">
<title>Node2</title>
<g id="a_Node000002"><a xlink:href="../../d3/d8e/classproto_1_1exoAtlant_1_1custom__crc.html#abdb60ccb2a8458235949a0118b263bd7" target="_top" xlink:title=" ">
<polygon fill="white" stroke="#666666" points="310,-61.5 173,-61.5 173,-31.5 310,-31.5 310,-61.5"/>
<text text-anchor="start" x="181" y="-49.5" font-family="Helvetica,sans-Serif" font-size="10.00">proto::exoAtlant::custom</text>
<text text-anchor="middle" x="241.5" y="-38.5" font-family="Helvetica,sans-Serif" font-size="10.00">_crc::calc</text>
</a>
</g>
</g>
<!-- Node1&#45;&gt;Node2 -->
<g id="edge1_Node000001_Node000002" class="edge">
<title>Node1&#45;&gt;Node2</title>
<g id="a_edge1_Node000001_Node000002"><a xlink:title=" ">
<path fill="none" stroke="#63b8ff" d="M137.08,-46.5C145.54,-46.5 154.24,-46.5 162.83,-46.5"/>
<polygon fill="#63b8ff" stroke="#63b8ff" points="162.85,-50 172.85,-46.5 162.85,-43 162.85,-50"/>
</a>
</g>
</g>
<!-- Node3 -->
<g id="Node000003" class="node">
<title>Node3</title>
<g id="a_Node000003"><a xlink:href="../../d2/d5a/namespaceproto_1_1exoAtlant.html#adaf4fbf582aa68e7aecc443ae131034d" target="_top" xlink:title=" ">
<polygon fill="white" stroke="#666666" points="500,-93 346,-93 346,-74 500,-74 500,-93"/>
<text text-anchor="middle" x="423" y="-81" font-family="Helvetica,sans-Serif" font-size="10.00">proto::exoAtlant::CRC32_get</text>
</a>
</g>
</g>
<!-- Node2&#45;&gt;Node3 -->
<g id="edge2_Node000002_Node000003" class="edge">
<title>Node2&#45;&gt;Node3</title>
<g id="a_edge2_Node000002_Node000003"><a xlink:title=" ">
<path fill="none" stroke="#63b8ff" d="M310.11,-60.44C328.38,-64.2 347.97,-68.24 365.56,-71.87"/>
<polygon fill="#63b8ff" stroke="#63b8ff" points="365.16,-75.36 375.66,-73.95 366.58,-68.5 365.16,-75.36"/>
</a>
</g>
</g>
<!-- Node4 -->
<g id="Node000004" class="node">
<title>Node4</title>
<g id="a_Node000004"><a xlink:href="../../d6/d58/classCustomSpan.html#aa94cafb45950ce4dbcf4e57f6c22615a" target="_top" xlink:title=" ">
<polygon fill="white" stroke="#666666" points="476,-56 370,-56 370,-37 476,-37 476,-56"/>
<text text-anchor="middle" x="423" y="-44" font-family="Helvetica,sans-Serif" font-size="10.00">CustomSpan::data</text>
</a>
</g>
</g>
<!-- Node2&#45;&gt;Node4 -->
<g id="edge3_Node000002_Node000004" class="edge">
<title>Node2&#45;&gt;Node4</title>
<g id="a_edge3_Node000002_Node000004"><a xlink:title=" ">
<path fill="none" stroke="#63b8ff" d="M310.11,-46.5C326.33,-46.5 343.58,-46.5 359.56,-46.5"/>
<polygon fill="#63b8ff" stroke="#63b8ff" points="359.85,-50 369.85,-46.5 359.85,-43 359.85,-50"/>
</a>
</g>
</g>
<!-- Node5 -->
<g id="Node000005" class="node">
<title>Node5</title>
<g id="a_Node000005"><a xlink:href="../../d6/d58/classCustomSpan.html#a7612ff42bfc672d97414e1e3ddc391b9" target="_top" xlink:title=" ">
<polygon fill="white" stroke="#666666" points="475,-19 371,-19 371,0 475,0 475,-19"/>
<text text-anchor="middle" x="423" y="-7" font-family="Helvetica,sans-Serif" font-size="10.00">CustomSpan::size</text>
</a>
</g>
</g>
<!-- Node2&#45;&gt;Node5 -->
<g id="edge4_Node000002_Node000005" class="edge">
<title>Node2&#45;&gt;Node5</title>
<g id="a_edge4_Node000002_Node000005"><a xlink:title=" ">
<path fill="none" stroke="#63b8ff" d="M310.11,-32.56C328.38,-28.8 347.97,-24.76 365.56,-21.13"/>
<polygon fill="#63b8ff" stroke="#63b8ff" points="366.58,-24.5 375.66,-19.05 365.16,-17.64 366.58,-24.5"/>
</a>
</g>
</g>
</g>
</svg>
