<?xml version="1.0" encoding="UTF-8" standalone="no"?>
<!DOCTYPE svg PUBLIC "-//W3C//DTD SVG 1.1//EN"
 "http://www.w3.org/Graphics/SVG/1.1/DTD/svg11.dtd">
<!-- Generated by graphviz version 14.0.1 (20251006.0113)
 -->
<!-- Title: TxContainer.hpp Pages: 1 -->
<!--zoomable 260 -->

<svg id="main" version="1.1" xmlns="http://www.w3.org/2000/svg" xmlns:xlink="http://www.w3.org/1999/xlink" xml:space="preserve" onload="init(evt)">

<style type="text/css"><![CDATA[
.node, .edge {opacity: 0.7;}
.node.selected, .edge.selected {opacity: 1;}
.edge:hover path { stroke: red; }
.edge:hover polygon { stroke: red; fill: red; }
]]></style>

<defs>
  <circle id="rim" cx="0" cy="0" r="7"/>
  <circle id="rim2" cx="0" cy="0" r="3.5"/>
  <g id="zoomPlus">
    <use xlink:href="#rim" fill="#404040"><set attributeName="fill" to="#808080" begin="zoomplus.mouseover" end="zoomplus.mouseout"/></use>
    <path d="M-4,0h8M0,-4v8" fill="none" stroke="white" stroke-width="1.5" pointer-events="none"/>
  </g>
  <g id="zoomMin">
    <use xlink:href="#rim" fill="#404040"><set attributeName="fill" to="#808080" begin="zoomminus.mouseover" end="zoomminus.mouseout"/></use>
    <path d="M-4,0h8" fill="none" stroke="white" stroke-width="1.5" pointer-events="none"/>
  </g>
  <g id="arrowUp" transform="translate(30 24)">
    <use xlink:href="#rim"/>
    <path pointer-events="none" fill="none" stroke="white" stroke-width="1.5" d="M0,-3.0v7 M-2.5,-0.5L0,-3.0L2.5,-0.5"/>
  </g>
  <g id="arrowRight" transform="rotate(90) translate(36 -43)">
    <use xlink:href="#rim"/>
    <path pointer-events="none" fill="none" stroke="white" stroke-width="1.5" d="M0,-3.0v7 M-2.5,-0.5L0,-3.0L2.5,-0.5"/>
  </g>
  <g id="arrowDown" transform="rotate(180) translate(-30 -48)">
    <use xlink:href="#rim"/>
    <path pointer-events="none" fill="none" stroke="white" stroke-width="1.5" d="M0,-3.0v7 M-2.5,-0.5L0,-3.0L2.5,-0.5"/>
  </g>
  <g id="arrowLeft" transform="rotate(270) translate(-36 17)">
    <use xlink:href="#rim"/>
    <path pointer-events="none" fill="none" stroke="white" stroke-width="1.5" d="M0,-3.0v7 M-2.5,-0.5L0,-3.0L2.5,-0.5"/>
  </g>
  <g id="resetDef">
    <use xlink:href="#rim2" fill="#404040"><set attributeName="fill" to="#808080" begin="reset.mouseover" end="reset.mouseout"/></use>
  </g>
</defs>
<script type="application/ecmascript">
var viewWidth = 864;
var viewHeight = 260;
var sectionId = 'dynsection-0';
</script>
<script type="application/ecmascript" xlink:href="../../svg.min.js"/>
<svg id="graph" class="graph">
<g id="viewport">
<title>TxContainer.hpp</title>
<!-- Node1 -->
<g id="Node000001" class="node">
<title>Node1</title>
<g id="a_Node000001"><a xlink:title="TX&#45;side container that builds protocol frames from a set of fields.">
<polygon fill="#999999" stroke="#666666" points="440.5,-251.5 353.25,-251.5 353.25,-232.25 440.5,-232.25 440.5,-251.5"/>
<text xml:space="preserve" text-anchor="middle" x="396.88" y="-238" font-family="Helvetica,sans-Serif" font-size="10.00">TxContainer.hpp</text>
</a>
</g>
</g>
<!-- Node2 -->
<g id="Node000002" class="node">
<title>Node2</title>
<g id="a_Node000002"><a xlink:title=" ">
<polygon fill="#e0e0e0" stroke="#999999" points="167.75,-190.62 112,-190.62 112,-171.38 167.75,-171.38 167.75,-190.62"/>
<text xml:space="preserve" text-anchor="middle" x="139.88" y="-177.12" font-family="Helvetica,sans-Serif" font-size="10.00">algorithm</text>
</a>
</g>
</g>
<!-- Node1&#45;&gt;Node2 -->
<g id="edge1_Node000001_Node000002" class="edge">
<title>Node1&#45;&gt;Node2</title>
<g id="a_edge1_Node000001_Node000002"><a xlink:title=" ">
<path fill="none" stroke="#63b8ff" d="M352.85,-233.37C309.13,-225.53 240.36,-212.18 181.88,-196.25 179.9,-195.71 177.88,-195.13 175.85,-194.52"/>
<polygon fill="#63b8ff" stroke="#63b8ff" points="177.07,-191.24 166.48,-191.55 174.96,-197.91 177.07,-191.24"/>
</a>
</g>
</g>
<!-- Node3 -->
<g id="Node000003" class="node">
<title>Node3</title>
<g id="a_Node000003"><a xlink:title=" ">
<polygon fill="#e0e0e0" stroke="#999999" points="415.38,-129.75 378.38,-129.75 378.38,-110.5 415.38,-110.5 415.38,-129.75"/>
<text xml:space="preserve" text-anchor="middle" x="396.88" y="-116.25" font-family="Helvetica,sans-Serif" font-size="10.00">tuple</text>
</a>
</g>
</g>
<!-- Node1&#45;&gt;Node3 -->
<g id="edge2_Node000001_Node000003" class="edge">
<title>Node1&#45;&gt;Node3</title>
<g id="a_edge2_Node000001_Node000003"><a xlink:title=" ">
<path fill="none" stroke="#63b8ff" d="M396.88,-231.87C396.88,-212.8 396.88,-167.91 396.88,-141.51"/>
<polygon fill="#63b8ff" stroke="#63b8ff" points="400.38,-141.74 396.88,-131.74 393.38,-141.74 400.38,-141.74"/>
</a>
</g>
</g>
<!-- Node4 -->
<g id="Node000004" class="node">
<title>Node4</title>
<g id="a_Node000004"><a xlink:title=" ">
<polygon fill="#e0e0e0" stroke="#999999" points="855.75,-74.5 794,-74.5 794,-55.25 855.75,-55.25 855.75,-74.5"/>
<text xml:space="preserve" text-anchor="middle" x="824.88" y="-61" font-family="Helvetica,sans-Serif" font-size="10.00">type_traits</text>
</a>
</g>
</g>
<!-- Node1&#45;&gt;Node4 -->
<g id="edge3_Node000001_Node000004" class="edge">
<title>Node1&#45;&gt;Node4</title>
<g id="a_edge3_Node000001_Node000004"><a xlink:title=" ">
<path fill="none" stroke="#63b8ff" d="M440.73,-238.23C514.94,-233.14 661.64,-220.33 706.88,-196.25 756.58,-169.8 795.91,-113.79 814.02,-84.54"/>
<polygon fill="#63b8ff" stroke="#63b8ff" points="816.97,-86.43 819.12,-76.06 810.97,-82.83 816.97,-86.43"/>
</a>
</g>
</g>
<!-- Node5 -->
<g id="Node000005" class="node">
<title>Node5</title>
<g id="a_Node000005"><a xlink:href="../../de/ddc/_custom_span_8hpp.html" target="_top" xlink:title=" ">
<polygon fill="white" stroke="#666666" points="91.75,-129.75 0,-129.75 0,-110.5 91.75,-110.5 91.75,-129.75"/>
<text xml:space="preserve" text-anchor="middle" x="45.88" y="-116.25" font-family="Helvetica,sans-Serif" font-size="10.00">CustomSpan.hpp</text>
</a>
</g>
</g>
<!-- Node1&#45;&gt;Node5 -->
<g id="edge4_Node000001_Node000005" class="edge">
<title>Node1&#45;&gt;Node5</title>
<g id="a_edge4_Node000001_Node000005"><a xlink:title=" ">
<path fill="none" stroke="#63b8ff" d="M353.06,-235.36C315.26,-229.39 259.97,-217.7 215.88,-196.25 196.09,-186.63 196.23,-176.22 176.88,-165.75 150.83,-151.66 119.5,-140.79 94,-133.31"/>
<polygon fill="#63b8ff" stroke="#63b8ff" points="95.14,-129.99 84.56,-130.62 93.22,-136.73 95.14,-129.99"/>
</a>
</g>
</g>
<!-- Node8 -->
<g id="Node000008" class="node">
<title>Node8</title>
<g id="a_Node000008"><a xlink:href="../../dc/dba/_interface_8hpp.html" target="_top" xlink:title=" ">
<polygon fill="white" stroke="#666666" points="297.38,-190.62 224.38,-190.62 224.38,-171.38 297.38,-171.38 297.38,-190.62"/>
<text xml:space="preserve" text-anchor="middle" x="260.88" y="-177.12" font-family="Helvetica,sans-Serif" font-size="10.00">Interface.hpp</text>
</a>
</g>
</g>
<!-- Node1&#45;&gt;Node8 -->
<g id="edge7_Node000001_Node000008" class="edge">
<title>Node1&#45;&gt;Node8</title>
<g id="a_edge7_Node000001_Node000008"><a xlink:title=" ">
<path fill="none" stroke="#63b8ff" d="M375.92,-231.8C353.5,-222.1 317.68,-206.59 291.96,-195.46"/>
<polygon fill="#63b8ff" stroke="#63b8ff" points="293.58,-192.35 283.02,-191.59 290.8,-198.77 293.58,-192.35"/>
</a>
</g>
</g>
<!-- Node13 -->
<g id="Node000013" class="node">
<title>Node13</title>
<g id="a_Node000013"><a xlink:href="../../d8/dd8/_field_container_8hpp.html" target="_top" xlink:title=" ">
<polygon fill="white" stroke="#666666" points="698.12,-196.25 593.62,-196.25 593.62,-165.75 698.12,-165.75 698.12,-196.25"/>
<text xml:space="preserve" text-anchor="start" x="601.62" y="-182.75" font-family="Helvetica,sans-Serif" font-size="10.00">prototypes/container</text>
<text xml:space="preserve" text-anchor="middle" x="645.88" y="-171.5" font-family="Helvetica,sans-Serif" font-size="10.00">/FieldContainer.hpp</text>
</a>
</g>
</g>
<!-- Node1&#45;&gt;Node13 -->
<g id="edge13_Node000001_Node000013" class="edge">
<title>Node1&#45;&gt;Node13</title>
<g id="a_edge13_Node000001_Node000013"><a xlink:title=" ">
<path fill="none" stroke="#63b8ff" d="M435.24,-231.8C474.3,-222.57 535.57,-208.08 581.98,-197.11"/>
<polygon fill="#63b8ff" stroke="#63b8ff" points="582.73,-200.53 591.66,-194.82 581.12,-193.71 582.73,-200.53"/>
</a>
</g>
</g>
<!-- Node14 -->
<g id="Node000014" class="node">
<title>Node14</title>
<g id="a_Node000014"><a xlink:href="../../d0/d22/_field_info_8hpp.html" target="_top" xlink:title="Helpers and utilities for compile&#45;time field metadata and tuple processing.">
<polygon fill="white" stroke="#666666" points="575.88,-190.62 433.88,-190.62 433.88,-171.38 575.88,-171.38 575.88,-190.62"/>
<text xml:space="preserve" text-anchor="middle" x="504.88" y="-177.12" font-family="Helvetica,sans-Serif" font-size="10.00">prototypes/field/FieldInfo.hpp</text>
</a>
</g>
</g>
<!-- Node1&#45;&gt;Node14 -->
<g id="edge14_Node000001_Node000014" class="edge">
<title>Node1&#45;&gt;Node14</title>
<g id="a_edge14_Node000001_Node000014"><a xlink:title=" ">
<path fill="none" stroke="#63b8ff" d="M413.28,-231.93C430.56,-222.51 458.05,-207.52 478.41,-196.43"/>
<polygon fill="#63b8ff" stroke="#63b8ff" points="479.88,-199.61 486.99,-191.75 476.53,-193.46 479.88,-199.61"/>
</a>
</g>
</g>
<!-- Node6 -->
<g id="Node000006" class="node">
<title>Node6</title>
<g id="a_Node000006"><a xlink:title=" ">
<polygon fill="#e0e0e0" stroke="#999999" points="57,-74.5 8.75,-74.5 8.75,-55.25 57,-55.25 57,-74.5"/>
<text xml:space="preserve" text-anchor="middle" x="32.88" y="-61" font-family="Helvetica,sans-Serif" font-size="10.00">cassert</text>
</a>
</g>
</g>
<!-- Node5&#45;&gt;Node6 -->
<g id="edge5_Node000005_Node000006" class="edge">
<title>Node5&#45;&gt;Node6</title>
<g id="a_edge5_Node000005_Node000006"><a xlink:title=" ">
<path fill="none" stroke="#63b8ff" d="M43.73,-110.33C42.1,-103.67 39.8,-94.24 37.73,-85.78"/>
<polygon fill="#63b8ff" stroke="#63b8ff" points="41.2,-85.21 35.43,-76.33 34.4,-86.87 41.2,-85.21"/>
</a>
</g>
</g>
<!-- Node7 -->
<g id="Node000007" class="node">
<title>Node7</title>
<g id="a_Node000007"><a xlink:title=" ">
<polygon fill="#e0e0e0" stroke="#999999" points="123,-74.5 74.75,-74.5 74.75,-55.25 123,-55.25 123,-74.5"/>
<text xml:space="preserve" text-anchor="middle" x="98.88" y="-61" font-family="Helvetica,sans-Serif" font-size="10.00">cstddef</text>
</a>
</g>
</g>
<!-- Node5&#45;&gt;Node7 -->
<g id="edge6_Node000005_Node000007" class="edge">
<title>Node5&#45;&gt;Node7</title>
<g id="a_edge6_Node000005_Node000007"><a xlink:title=" ">
<path fill="none" stroke="#63b8ff" d="M54.63,-110.33C62.02,-102.9 72.84,-92.04 81.92,-82.91"/>
<polygon fill="#63b8ff" stroke="#63b8ff" points="84.29,-85.49 88.87,-75.93 79.33,-80.55 84.29,-85.49"/>
</a>
</g>
</g>
<!-- Node8&#45;&gt;Node5 -->
<g id="edge12_Node000008_Node000005" class="edge">
<title>Node8&#45;&gt;Node5</title>
<g id="a_edge12_Node000008_Node000005"><a xlink:title=" ">
<path fill="none" stroke="#63b8ff" d="M228.51,-170.92C222.32,-169.2 215.9,-167.41 209.88,-165.75 169.54,-154.63 123.58,-142.14 90.6,-133.21"/>
<polygon fill="#63b8ff" stroke="#63b8ff" points="91.53,-129.83 80.96,-130.6 89.7,-136.59 91.53,-129.83"/>
</a>
</g>
</g>
<!-- Node9 -->
<g id="Node000009" class="node">
<title>Node9</title>
<g id="a_Node000009"><a xlink:title=" ">
<polygon fill="#e0e0e0" stroke="#999999" points="283.5,-129.75 238.25,-129.75 238.25,-110.5 283.5,-110.5 283.5,-129.75"/>
<text xml:space="preserve" text-anchor="middle" x="260.88" y="-116.25" font-family="Helvetica,sans-Serif" font-size="10.00">chrono</text>
</a>
</g>
</g>
<!-- Node8&#45;&gt;Node9 -->
<g id="edge8_Node000008_Node000009" class="edge">
<title>Node8&#45;&gt;Node9</title>
<g id="a_edge8_Node000008_Node000009"><a xlink:title=" ">
<path fill="none" stroke="#63b8ff" d="M260.88,-171.06C260.88,-163.28 260.88,-151.7 260.88,-141.66"/>
<polygon fill="#63b8ff" stroke="#63b8ff" points="264.38,-141.66 260.88,-131.66 257.38,-141.66 264.38,-141.66"/>
</a>
</g>
</g>
<!-- Node10 -->
<g id="Node000010" class="node">
<title>Node10</title>
<g id="a_Node000010"><a xlink:title=" ">
<polygon fill="#e0e0e0" stroke="#999999" points="359.88,-129.75 301.88,-129.75 301.88,-110.5 359.88,-110.5 359.88,-129.75"/>
<text xml:space="preserve" text-anchor="middle" x="330.88" y="-116.25" font-family="Helvetica,sans-Serif" font-size="10.00">functional</text>
</a>
</g>
</g>
<!-- Node8&#45;&gt;Node10 -->
<g id="edge9_Node000008_Node000010" class="edge">
<title>Node8&#45;&gt;Node10</title>
<g id="a_edge9_Node000008_Node000010"><a xlink:title=" ">
<path fill="none" stroke="#63b8ff" d="M271.51,-171.06C282.09,-162.15 298.59,-148.28 311.5,-137.42"/>
<polygon fill="#63b8ff" stroke="#63b8ff" points="313.58,-140.24 318.99,-131.13 309.08,-134.88 313.58,-140.24"/>
</a>
</g>
</g>
<!-- Node11 -->
<g id="Node000011" class="node">
<title>Node11</title>
<g id="a_Node000011"><a xlink:title=" ">
<polygon fill="#e0e0e0" stroke="#999999" points="161.5,-129.75 110.25,-129.75 110.25,-110.5 161.5,-110.5 161.5,-129.75"/>
<text xml:space="preserve" text-anchor="middle" x="135.88" y="-116.25" font-family="Helvetica,sans-Serif" font-size="10.00">memory</text>
</a>
</g>
</g>
<!-- Node8&#45;&gt;Node11 -->
<g id="edge10_Node000008_Node000011" class="edge">
<title>Node8&#45;&gt;Node11</title>
<g id="a_edge10_Node000008_Node000011"><a xlink:title=" ">
<path fill="none" stroke="#63b8ff" d="M241.62,-170.93C221.19,-161.31 188.67,-145.99 165.08,-134.88"/>
<polygon fill="#63b8ff" stroke="#63b8ff" points="166.86,-131.85 156.32,-130.75 163.87,-138.18 166.86,-131.85"/>
</a>
</g>
</g>
<!-- Node12 -->
<g id="Node000012" class="node">
<title>Node12</title>
<g id="a_Node000012"><a xlink:title=" ">
<polygon fill="#e0e0e0" stroke="#999999" points="219.88,-129.75 179.88,-129.75 179.88,-110.5 219.88,-110.5 219.88,-129.75"/>
<text xml:space="preserve" text-anchor="middle" x="199.88" y="-116.25" font-family="Helvetica,sans-Serif" font-size="10.00">string</text>
</a>
</g>
</g>
<!-- Node8&#45;&gt;Node12 -->
<g id="edge11_Node000008_Node000012" class="edge">
<title>Node8&#45;&gt;Node12</title>
<g id="a_edge11_Node000008_Node000012"><a xlink:title=" ">
<path fill="none" stroke="#63b8ff" d="M251.61,-171.06C242.56,-162.33 228.57,-148.82 217.41,-138.05"/>
<polygon fill="#63b8ff" stroke="#63b8ff" points="219.94,-135.63 210.32,-131.2 215.08,-140.67 219.94,-135.63"/>
</a>
</g>
</g>
<!-- Node14&#45;&gt;Node3 -->
<g id="edge15_Node000014_Node000003" class="edge">
<title>Node14&#45;&gt;Node3</title>
<g id="a_edge15_Node000014_Node000003"><a xlink:title=" ">
<path fill="none" stroke="#63b8ff" d="M488.47,-171.06C471.19,-161.63 443.7,-146.65 423.34,-135.55"/>
<polygon fill="#63b8ff" stroke="#63b8ff" points="425.22,-132.59 414.76,-130.88 421.87,-138.73 425.22,-132.59"/>
</a>
</g>
</g>
<!-- Node14&#45;&gt;Node4 -->
<g id="edge16_Node000014_Node000004" class="edge">
<title>Node14&#45;&gt;Node4</title>
<g id="a_edge16_Node000014_Node000004"><a xlink:title=" ">
<path fill="none" stroke="#63b8ff" d="M536.8,-170.95C569.66,-161.44 622.22,-145.67 666.88,-129.75 711.5,-113.84 762.11,-92.84 793.77,-79.35"/>
<polygon fill="#63b8ff" stroke="#63b8ff" points="794.93,-82.66 802.74,-75.5 792.17,-76.22 794.93,-82.66"/>
</a>
</g>
</g>
<!-- Node15 -->
<g id="Node000015" class="node">
<title>Node15</title>
<g id="a_Node000015"><a xlink:title=" ">
<polygon fill="#e0e0e0" stroke="#999999" points="657.5,-129.75 618.25,-129.75 618.25,-110.5 657.5,-110.5 657.5,-129.75"/>
<text xml:space="preserve" text-anchor="middle" x="637.88" y="-116.25" font-family="Helvetica,sans-Serif" font-size="10.00">utility</text>
</a>
</g>
</g>
<!-- Node14&#45;&gt;Node15 -->
<g id="edge17_Node000014_Node000015" class="edge">
<title>Node14&#45;&gt;Node15</title>
<g id="a_edge17_Node000014_Node000015"><a xlink:title=" ">
<path fill="none" stroke="#63b8ff" d="M525.36,-170.93C547.33,-161.21 582.42,-145.67 607.57,-134.54"/>
<polygon fill="#63b8ff" stroke="#63b8ff" points="608.9,-137.78 616.63,-130.53 606.07,-131.38 608.9,-137.78"/>
</a>
</g>
</g>
<!-- Node16 -->
<g id="Node000016" class="node">
<title>Node16</title>
<g id="a_Node000016"><a xlink:href="../../d3/d6e/_field_prototype_8hpp.html" target="_top" xlink:title="FieldPrototype template for describing and handling protocol fields.">
<polygon fill="white" stroke="#666666" points="600.62,-129.75 433.12,-129.75 433.12,-110.5 600.62,-110.5 600.62,-129.75"/>
<text xml:space="preserve" text-anchor="middle" x="516.88" y="-116.25" font-family="Helvetica,sans-Serif" font-size="10.00">prototypes/field/FieldPrototype.hpp</text>
</a>
</g>
</g>
<!-- Node14&#45;&gt;Node16 -->
<g id="edge18_Node000014_Node000016" class="edge">
<title>Node14&#45;&gt;Node16</title>
<g id="a_edge18_Node000014_Node000016"><a xlink:title=" ">
<path fill="none" stroke="#63b8ff" d="M506.7,-171.06C508.3,-163.19 510.69,-151.45 512.76,-141.32"/>
<polygon fill="#63b8ff" stroke="#63b8ff" points="516.17,-142.13 514.73,-131.63 509.31,-140.73 516.17,-142.13"/>
</a>
</g>
</g>
<!-- Node16&#45;&gt;Node4 -->
<g id="edge26_Node000016_Node000004" class="edge">
<title>Node16&#45;&gt;Node4</title>
<g id="a_edge26_Node000016_Node000004"><a xlink:title=" ">
<path fill="none" stroke="#63b8ff" d="M572.6,-110.02C625.88,-101.24 708.44,-87.41 779.88,-74.5 780.87,-74.32 781.87,-74.14 782.89,-73.95"/>
<polygon fill="#63b8ff" stroke="#63b8ff" points="783.23,-77.45 792.42,-72.18 781.95,-70.57 783.23,-77.45"/>
</a>
</g>
</g>
<!-- Node17 -->
<g id="Node000017" class="node">
<title>Node17</title>
<g id="a_Node000017"><a xlink:title=" ">
<polygon fill="#e0e0e0" stroke="#999999" points="777.5,-19.25 732.25,-19.25 732.25,0 777.5,0 777.5,-19.25"/>
<text xml:space="preserve" text-anchor="middle" x="754.88" y="-5.75" font-family="Helvetica,sans-Serif" font-size="10.00">cstdint</text>
</a>
</g>
</g>
<!-- Node16&#45;&gt;Node17 -->
<g id="edge19_Node000016_Node000017" class="edge">
<title>Node16&#45;&gt;Node17</title>
<g id="a_edge19_Node000016_Node000017"><a xlink:title=" ">
<path fill="none" stroke="#63b8ff" d="M584.96,-110.02C648.7,-100.84 735.76,-86.38 746.88,-74.5 757.63,-63 758.97,-44.81 758,-30.78"/>
<polygon fill="#63b8ff" stroke="#63b8ff" points="761.48,-30.4 756.84,-20.88 754.53,-31.22 761.48,-30.4"/>
</a>
</g>
</g>
<!-- Node18 -->
<g id="Node000018" class="node">
<title>Node18</title>
<g id="a_Node000018"><a xlink:title=" ">
<polygon fill="#e0e0e0" stroke="#999999" points="204.5,-74.5 159.25,-74.5 159.25,-55.25 204.5,-55.25 204.5,-74.5"/>
<text xml:space="preserve" text-anchor="middle" x="181.88" y="-61" font-family="Helvetica,sans-Serif" font-size="10.00">cstring</text>
</a>
</g>
</g>
<!-- Node16&#45;&gt;Node18 -->
<g id="edge20_Node000016_Node000018" class="edge">
<title>Node16&#45;&gt;Node18</title>
<g id="a_edge20_Node000016_Node000018"><a xlink:title=" ">
<path fill="none" stroke="#63b8ff" d="M437.64,-110.03C378.88,-102.7 296.66,-91.19 215.76,-74.67"/>
<polygon fill="#63b8ff" stroke="#63b8ff" points="216.85,-71.33 206.35,-72.73 215.43,-78.18 216.85,-71.33"/>
</a>
</g>
</g>
<!-- Node19 -->
<g id="Node000019" class="node">
<title>Node19</title>
<g id="a_Node000019"><a xlink:title=" ">
<polygon fill="#e0e0e0" stroke="#999999" points="272.75,-74.5 223,-74.5 223,-55.25 272.75,-55.25 272.75,-74.5"/>
<text xml:space="preserve" text-anchor="middle" x="247.88" y="-61" font-family="Helvetica,sans-Serif" font-size="10.00">iomanip</text>
</a>
</g>
</g>
<!-- Node16&#45;&gt;Node19 -->
<g id="edge21_Node000016_Node000019" class="edge">
<title>Node16&#45;&gt;Node19</title>
<g id="a_edge21_Node000016_Node000019"><a xlink:title=" ">
<path fill="none" stroke="#63b8ff" d="M463.95,-110.02C418.72,-102.03 351.65,-89.68 284.33,-74.94"/>
<polygon fill="#63b8ff" stroke="#63b8ff" points="285.08,-71.52 274.56,-72.78 283.57,-78.35 285.08,-71.52"/>
</a>
</g>
</g>
<!-- Node20 -->
<g id="Node000020" class="node">
<title>Node20</title>
<g id="a_Node000020"><a xlink:title=" ">
<polygon fill="#e0e0e0" stroke="#999999" points="344.62,-74.5 291.12,-74.5 291.12,-55.25 344.62,-55.25 344.62,-74.5"/>
<text xml:space="preserve" text-anchor="middle" x="317.88" y="-61" font-family="Helvetica,sans-Serif" font-size="10.00">iostream</text>
</a>
</g>
</g>
<!-- Node16&#45;&gt;Node20 -->
<g id="edge22_Node000016_Node000020" class="edge">
<title>Node16&#45;&gt;Node20</title>
<g id="a_edge22_Node000016_Node000020"><a xlink:title=" ">
<path fill="none" stroke="#63b8ff" d="M483.12,-110.09C447.84,-100.65 392.62,-85.88 355.85,-76.04"/>
<polygon fill="#63b8ff" stroke="#63b8ff" points="357.1,-72.75 346.53,-73.54 355.29,-79.51 357.1,-72.75"/>
</a>
</g>
</g>
<!-- Node21 -->
<g id="Node000021" class="node">
<title>Node21</title>
<g id="a_Node000021"><a xlink:title=" ">
<polygon fill="#e0e0e0" stroke="#999999" points="401.5,-74.5 362.25,-74.5 362.25,-55.25 401.5,-55.25 401.5,-74.5"/>
<text xml:space="preserve" text-anchor="middle" x="381.88" y="-61" font-family="Helvetica,sans-Serif" font-size="10.00">limits</text>
</a>
</g>
</g>
<!-- Node16&#45;&gt;Node21 -->
<g id="edge23_Node000016_Node000021" class="edge">
<title>Node16&#45;&gt;Node21</title>
<g id="a_edge23_Node000016_Node000021"><a xlink:title=" ">
<path fill="none" stroke="#63b8ff" d="M493.97,-110.09C471.53,-101.24 437.19,-87.69 412.43,-77.93"/>
<polygon fill="#63b8ff" stroke="#63b8ff" points="413.8,-74.7 403.21,-74.29 411.23,-81.22 413.8,-74.7"/>
</a>
</g>
</g>
<!-- Node22 -->
<g id="Node000022" class="node">
<title>Node22</title>
<g id="a_Node000022"><a xlink:title=" ">
<polygon fill="#e0e0e0" stroke="#999999" points="470.5,-74.5 419.25,-74.5 419.25,-55.25 470.5,-55.25 470.5,-74.5"/>
<text xml:space="preserve" text-anchor="middle" x="444.88" y="-61" font-family="Helvetica,sans-Serif" font-size="10.00">sstream</text>
</a>
</g>
</g>
<!-- Node16&#45;&gt;Node22 -->
<g id="edge24_Node000016_Node000022" class="edge">
<title>Node16&#45;&gt;Node22</title>
<g id="a_edge24_Node000016_Node000022"><a xlink:title=" ">
<path fill="none" stroke="#63b8ff" d="M504.66,-110.09C494.05,-102.24 478.44,-90.7 465.83,-81.37"/>
<polygon fill="#63b8ff" stroke="#63b8ff" points="468.25,-78.81 458.13,-75.67 464.08,-84.44 468.25,-78.81"/>
</a>
</g>
</g>
<!-- Node23 -->
<g id="Node000023" class="node">
<title>Node23</title>
<g id="a_Node000023"><a xlink:title=" ">
<polygon fill="#e0e0e0" stroke="#999999" points="555.62,-19.25 490.12,-19.25 490.12,0 555.62,0 555.62,-19.25"/>
<text xml:space="preserve" text-anchor="middle" x="522.88" y="-5.75" font-family="Helvetica,sans-Serif" font-size="10.00">string_view</text>
</a>
</g>
</g>
<!-- Node16&#45;&gt;Node23 -->
<g id="edge25_Node000016_Node000023" class="edge">
<title>Node16&#45;&gt;Node23</title>
<g id="a_edge25_Node000016_Node000023"><a xlink:title=" ">
<path fill="none" stroke="#63b8ff" d="M516.99,-110.02C517.19,-97.62 517.7,-74.74 518.88,-55.25 519.36,-47.29 520.09,-38.55 520.8,-30.93"/>
<polygon fill="#63b8ff" stroke="#63b8ff" points="524.28,-31.3 521.78,-21.01 517.32,-30.62 524.28,-31.3"/>
</a>
</g>
</g>
<!-- Node24 -->
<g id="Node000024" class="node">
<title>Node24</title>
<g id="a_Node000024"><a xlink:title=" ">
<polygon fill="#e0e0e0" stroke="#999999" points="570.38,-74.5 527.38,-74.5 527.38,-55.25 570.38,-55.25 570.38,-74.5"/>
<text xml:space="preserve" text-anchor="middle" x="548.88" y="-61" font-family="Helvetica,sans-Serif" font-size="10.00">vector</text>
</a>
</g>
</g>
<!-- Node16&#45;&gt;Node24 -->
<g id="edge27_Node000016_Node000024" class="edge">
<title>Node16&#45;&gt;Node24</title>
<g id="a_edge27_Node000016_Node000024"><a xlink:title=" ">
<path fill="none" stroke="#63b8ff" d="M522.16,-110.33C526.35,-103.36 532.35,-93.37 537.61,-84.62"/>
<polygon fill="#63b8ff" stroke="#63b8ff" points="540.55,-86.53 542.7,-76.16 534.55,-82.93 540.55,-86.53"/>
</a>
</g>
</g>
<!-- Node25 -->
<g id="Node000025" class="node">
<title>Node25</title>
<g id="a_Node000025"><a xlink:href="../../d8/d46/_field_flags_8hpp.html" target="_top" xlink:title="Common enums and utilities for protocol field names and flags.">
<polygon fill="white" stroke="#666666" points="737.62,-74.5 588.12,-74.5 588.12,-55.25 737.62,-55.25 737.62,-74.5"/>
<text xml:space="preserve" text-anchor="middle" x="662.88" y="-61" font-family="Helvetica,sans-Serif" font-size="10.00">prototypes/field/FieldFlags.hpp</text>
</a>
</g>
</g>
<!-- Node16&#45;&gt;Node25 -->
<g id="edge28_Node000016_Node000025" class="edge">
<title>Node16&#45;&gt;Node25</title>
<g id="a_edge28_Node000016_Node000025"><a xlink:title=" ">
<path fill="none" stroke="#63b8ff" d="M541.64,-110.09C565.13,-101.52 600.69,-88.56 627.23,-78.88"/>
<polygon fill="#63b8ff" stroke="#63b8ff" points="628.37,-82.19 636.56,-75.47 625.97,-75.61 628.37,-82.19"/>
</a>
</g>
</g>
<!-- Node25&#45;&gt;Node17 -->
<g id="edge30_Node000025_Node000017" class="edge">
<title>Node25&#45;&gt;Node17</title>
<g id="a_edge30_Node000025_Node000017"><a xlink:title=" ">
<path fill="none" stroke="#63b8ff" d="M678.48,-54.84C692.49,-46.73 713.31,-34.68 729.68,-25.21"/>
<polygon fill="#63b8ff" stroke="#63b8ff" points="730.98,-28.5 737.88,-20.46 727.47,-22.44 730.98,-28.5"/>
</a>
</g>
</g>
<!-- Node25&#45;&gt;Node23 -->
<g id="edge32_Node000025_Node000023" class="edge">
<title>Node25&#45;&gt;Node23</title>
<g id="a_edge32_Node000025_Node000023"><a xlink:title=" ">
<path fill="none" stroke="#63b8ff" d="M639.13,-54.84C616.7,-46.31 582.81,-33.42 557.4,-23.76"/>
<polygon fill="#63b8ff" stroke="#63b8ff" points="558.75,-20.52 548.16,-20.24 556.26,-27.07 558.75,-20.52"/>
</a>
</g>
</g>
<!-- Node26 -->
<g id="Node000026" class="node">
<title>Node26</title>
<g id="a_Node000026"><a xlink:title=" ">
<polygon fill="#e0e0e0" stroke="#999999" points="692.75,-19.25 655,-19.25 655,0 692.75,0 692.75,-19.25"/>
<text xml:space="preserve" text-anchor="middle" x="673.88" y="-5.75" font-family="Helvetica,sans-Serif" font-size="10.00">array</text>
</a>
</g>
</g>
<!-- Node25&#45;&gt;Node26 -->
<g id="edge29_Node000025_Node000026" class="edge">
<title>Node25&#45;&gt;Node26</title>
<g id="a_edge29_Node000025_Node000026"><a xlink:title=" ">
<path fill="none" stroke="#63b8ff" d="M664.69,-55.08C666.05,-48.49 667.97,-39.21 669.7,-30.82"/>
<polygon fill="#63b8ff" stroke="#63b8ff" points="673.12,-31.59 671.71,-21.09 666.26,-30.18 673.12,-31.59"/>
</a>
</g>
</g>
<!-- Node27 -->
<g id="Node000027" class="node">
<title>Node27</title>
<g id="a_Node000027"><a xlink:title=" ">
<polygon fill="#e0e0e0" stroke="#999999" points="636.5,-19.25 585.25,-19.25 585.25,0 636.5,0 636.5,-19.25"/>
<text xml:space="preserve" text-anchor="middle" x="610.88" y="-5.75" font-family="Helvetica,sans-Serif" font-size="10.00">ostream</text>
</a>
</g>
</g>
<!-- Node25&#45;&gt;Node27 -->
<g id="edge31_Node000025_Node000027" class="edge">
<title>Node25&#45;&gt;Node27</title>
<g id="a_edge31_Node000025_Node000027"><a xlink:title=" ">
<path fill="none" stroke="#63b8ff" d="M654.29,-55.08C647.03,-47.65 636.42,-36.79 627.51,-27.66"/>
<polygon fill="#63b8ff" stroke="#63b8ff" points="630.2,-25.4 620.71,-20.69 625.19,-30.29 630.2,-25.4"/>
</a>
</g>
</g>
</g>
</svg>

<g id="navigator" transform="translate(0 0)" fill="#404254">
  <rect fill="#f2f5e9" fill-opacity="0.5" stroke="#606060" stroke-width=".5" x="0" y="0" width="60" height="60"/>
  <use id="zoomplus" xlink:href="#zoomPlus" x="17" y="9" onmousedown="handleZoom(evt,'in')"/>
  <use id="zoomminus" xlink:href="#zoomMin" x="42" y="9" onmousedown="handleZoom(evt,'out')"/>
  <use id="reset" xlink:href="#resetDef" x="30" y="36" onmousedown="handleReset()"/>
   <use id="arrowup" xlink:href="#arrowUp" x="0" y="0" onmousedown="handlePan(0,-1)"/>
  <use id="arrowright" xlink:href="#arrowRight" x="0" y="0" onmousedown="handlePan(1,0)"/>
  <use id="arrowdown" xlink:href="#arrowDown" x="0" y="0" onmousedown="handlePan(0,1)"/>
  <use id="arrowleft" xlink:href="#arrowLeft" x="0" y="0" onmousedown="handlePan(-1,0)"/>
</g>
<svg viewBox="0 0 15 15" width="100%" height="30px" preserveAspectRatio="xMaxYMin meet">
 <g id="arrow_out" transform="scale(0.3 0.3)">
  <a xlink:href="_tx_container_8hpp__incl_org.svg" target="_base">
   <rect id="button" ry="5" rx="5" y="6" x="6" height="38" width="38"
        fill="#f2f5e9" fill-opacity="0.5" stroke="#606060" stroke-width="1.0"/>
   <path id="arrow"
     d="M 11.500037,31.436501 C 11.940474,20.09759 22.043105,11.32322 32.158766,21.979434 L 37.068811,17.246167 C 37.068811,17.246167 37.088388,32 37.088388,32 L 22.160133,31.978069 C 22.160133,31.978069 26.997745,27.140456 26.997745,27.140456 C 18.528582,18.264221 13.291696,25.230495 11.500037,31.436501 z"
     style="fill:#404040;"/>
  </a>
 </g>
</svg>

<style type='text/css'>
<![CDATA[
[data-mouse-over-selected='false'] { opacity: 0.7; }
[data-mouse-over-selected='true']  { opacity: 1.0; }
]]>
</style>
<script type="application/ecmascript"><![CDATA[
document.addEventListener('DOMContentLoaded', (event) => {
  highlightEdges();
  highlightAdjacentNodes();
});
]]></script>
</svg>
