<?xml version="1.0" encoding="UTF-8" standalone="no"?>
<!DOCTYPE svg PUBLIC "-//W3C//DTD SVG 1.1//EN"
 "http://www.w3.org/Graphics/SVG/1.1/DTD/svg11.dtd">
<!-- Generated by graphviz version 14.0.1 (20251006.0113)
 -->
<!-- Title: FieldFlags.hpp Pages: 1 -->
<svg width="262pt" height="83pt"
 viewBox="0.00 0.00 262.00 83.00" xmlns="http://www.w3.org/2000/svg" xmlns:xlink="http://www.w3.org/1999/xlink">
<g id="graph0" class="graph" transform="scale(1 1) rotate(0) translate(4 78.5)">
<title>FieldFlags.hpp</title>
<!-- Node1 -->
<g id="Node000001" class="node">
<title>Node1</title>
<g id="a_Node000001"><a xlink:title="Common enums and utilities for protocol field names and flags.">
<polygon fill="#999999" stroke="#666666" points="151.75,-74.5 72,-74.5 72,-55.25 151.75,-55.25 151.75,-74.5"/>
<text xml:space="preserve" text-anchor="middle" x="111.88" y="-61" font-family="Helvetica,sans-Serif" font-size="10.00">FieldFlags.hpp</text>
</a>
</g>
</g>
<!-- Node2 -->
<g id="Node000002" class="node">
<title>Node2</title>
<g id="a_Node000002"><a xlink:title=" ">
<polygon fill="#e0e0e0" stroke="#999999" points="37.75,-19.25 0,-19.25 0,0 37.75,0 37.75,-19.25"/>
<text xml:space="preserve" text-anchor="middle" x="18.88" y="-5.75" font-family="Helvetica,sans-Serif" font-size="10.00">array</text>
</a>
</g>
</g>
<!-- Node1&#45;&gt;Node2 -->
<g id="edge1_Node000001_Node000002" class="edge">
<title>Node1&#45;&gt;Node2</title>
<g id="a_edge1_Node000001_Node000002"><a xlink:title=" ">
<path fill="none" stroke="#63b8ff" d="M96.1,-54.84C81.94,-46.73 60.89,-34.68 44.35,-25.21"/>
<polygon fill="#63b8ff" stroke="#63b8ff" points="46.46,-22.39 36.04,-20.45 42.98,-28.46 46.46,-22.39"/>
</a>
</g>
</g>
<!-- Node3 -->
<g id="Node000003" class="node">
<title>Node3</title>
<g id="a_Node000003"><a xlink:title=" ">
<polygon fill="#e0e0e0" stroke="#999999" points="101.5,-19.25 56.25,-19.25 56.25,0 101.5,0 101.5,-19.25"/>
<text xml:space="preserve" text-anchor="middle" x="78.88" y="-5.75" font-family="Helvetica,sans-Serif" font-size="10.00">cstdint</text>
</a>
</g>
</g>
<!-- Node1&#45;&gt;Node3 -->
<g id="edge2_Node000001_Node000003" class="edge">
<title>Node1&#45;&gt;Node3</title>
<g id="a_edge2_Node000001_Node000003"><a xlink:title=" ">
<path fill="none" stroke="#63b8ff" d="M106.43,-55.08C102.1,-48.11 95.91,-38.12 90.49,-29.37"/>
<polygon fill="#63b8ff" stroke="#63b8ff" points="93.48,-27.55 85.24,-20.9 87.53,-31.24 93.48,-27.55"/>
</a>
</g>
</g>
<!-- Node4 -->
<g id="Node000004" class="node">
<title>Node4</title>
<g id="a_Node000004"><a xlink:title=" ">
<polygon fill="#e0e0e0" stroke="#999999" points="170.5,-19.25 119.25,-19.25 119.25,0 170.5,0 170.5,-19.25"/>
<text xml:space="preserve" text-anchor="middle" x="144.88" y="-5.75" font-family="Helvetica,sans-Serif" font-size="10.00">ostream</text>
</a>
</g>
</g>
<!-- Node1&#45;&gt;Node4 -->
<g id="edge3_Node000001_Node000004" class="edge">
<title>Node1&#45;&gt;Node4</title>
<g id="a_edge3_Node000001_Node000004"><a xlink:title=" ">
<path fill="none" stroke="#63b8ff" d="M117.32,-55.08C121.65,-48.11 127.84,-38.12 133.26,-29.37"/>
<polygon fill="#63b8ff" stroke="#63b8ff" points="136.22,-31.24 138.51,-20.9 130.27,-27.55 136.22,-31.24"/>
</a>
</g>
</g>
<!-- Node5 -->
<g id="Node000005" class="node">
<title>Node5</title>
<g id="a_Node000005"><a xlink:title=" ">
<polygon fill="#e0e0e0" stroke="#999999" points="253.62,-19.25 188.12,-19.25 188.12,0 253.62,0 253.62,-19.25"/>
<text xml:space="preserve" text-anchor="middle" x="220.88" y="-5.75" font-family="Helvetica,sans-Serif" font-size="10.00">string_view</text>
</a>
</g>
</g>
<!-- Node1&#45;&gt;Node5 -->
<g id="edge4_Node000001_Node000005" class="edge">
<title>Node1&#45;&gt;Node5</title>
<g id="a_edge4_Node000001_Node000005"><a xlink:title=" ">
<path fill="none" stroke="#63b8ff" d="M130.37,-54.84C147.28,-46.58 172.56,-34.23 192.11,-24.68"/>
<polygon fill="#63b8ff" stroke="#63b8ff" points="193.49,-27.9 200.93,-20.37 190.41,-21.61 193.49,-27.9"/>
</a>
</g>
</g>
</g>
</svg>
