<?xml version="1.0" encoding="UTF-8" standalone="no"?>
<!DOCTYPE svg PUBLIC "-//W3C//DTD SVG 1.1//EN"
 "http://www.w3.org/Graphics/SVG/1.1/DTD/svg11.dtd">
<!-- Generated by graphviz version 14.0.1 (20251006.0113)
 -->
<!-- Title: FieldFlags.hpp Pages: 1 -->
<svg width="383pt" height="414pt"
 viewBox="0.00 0.00 383.00 414.00" xmlns="http://www.w3.org/2000/svg" xmlns:xlink="http://www.w3.org/1999/xlink">
<g id="graph0" class="graph" transform="scale(1 1) rotate(0) translate(4 410)">
<title>FieldFlags.hpp</title>
<!-- Node1 -->
<g id="Node000001" class="node">
<title>Node1</title>
<g id="a_Node000001"><a xlink:title="Common enums and utilities for protocol field names and flags.">
<polygon fill="#999999" stroke="#666666" points="255.38,-406 175.62,-406 175.62,-386.75 255.38,-386.75 255.38,-406"/>
<text xml:space="preserve" text-anchor="middle" x="215.5" y="-392.5" font-family="Helvetica,sans-Serif" font-size="10.00">FieldFlags.hpp</text>
</a>
</g>
</g>
<!-- Node2 -->
<g id="Node000002" class="node">
<title>Node2</title>
<g id="a_Node000002"><a xlink:href="../../d3/d6e/_field_prototype_8hpp.html" target="_top" xlink:title="FieldPrototype template for describing and handling protocol fields.">
<polygon fill="white" stroke="#666666" points="264.38,-350.75 166.62,-350.75 166.62,-331.5 264.38,-331.5 264.38,-350.75"/>
<text xml:space="preserve" text-anchor="middle" x="215.5" y="-337.25" font-family="Helvetica,sans-Serif" font-size="10.00">FieldPrototype.hpp</text>
</a>
</g>
</g>
<!-- Node1&#45;&gt;Node2 -->
<g id="edge1_Node000001_Node000002" class="edge">
<title>Node1&#45;&gt;Node2</title>
<g id="a_edge1_Node000001_Node000002"><a xlink:title=" ">
<path fill="none" stroke="#63b8ff" d="M215.5,-375.13C215.5,-366.84 215.5,-357.67 215.5,-351.11"/>
<polygon fill="#63b8ff" stroke="#63b8ff" points="212,-375.07 215.5,-385.07 219,-375.07 212,-375.07"/>
</a>
</g>
</g>
<!-- Node3 -->
<g id="Node000003" class="node">
<title>Node3</title>
<g id="a_Node000003"><a xlink:href="../../d8/df5/_data_field_8hpp.html" target="_top" xlink:title="Variant DATA field that maps protocol IDs to payload types at compile time.">
<polygon fill="white" stroke="#666666" points="160.88,-295.5 84.12,-295.5 84.12,-276.25 160.88,-276.25 160.88,-295.5"/>
<text xml:space="preserve" text-anchor="middle" x="122.5" y="-282" font-family="Helvetica,sans-Serif" font-size="10.00">DataField.hpp</text>
</a>
</g>
</g>
<!-- Node2&#45;&gt;Node3 -->
<g id="edge2_Node000002_Node000003" class="edge">
<title>Node2&#45;&gt;Node3</title>
<g id="a_edge2_Node000002_Node000003"><a xlink:title=" ">
<path fill="none" stroke="#63b8ff" d="M190.12,-325.59C173.59,-316.13 152.54,-304.08 138.35,-295.95"/>
<polygon fill="#63b8ff" stroke="#63b8ff" points="187.99,-328.41 198.41,-330.34 191.47,-322.33 187.99,-328.41"/>
</a>
</g>
</g>
<!-- Node4 -->
<g id="Node000004" class="node">
<title>Node4</title>
<g id="a_Node000004"><a xlink:href="../../d0/d22/_field_info_8hpp.html" target="_top" xlink:title="Helpers and utilities for compile&#45;time field metadata and tuple processing.">
<polygon fill="white" stroke="#666666" points="251.62,-295.5 179.38,-295.5 179.38,-276.25 251.62,-276.25 251.62,-295.5"/>
<text xml:space="preserve" text-anchor="middle" x="215.5" y="-282" font-family="Helvetica,sans-Serif" font-size="10.00">FieldInfo.hpp</text>
</a>
</g>
</g>
<!-- Node2&#45;&gt;Node4 -->
<g id="edge3_Node000002_Node000004" class="edge">
<title>Node2&#45;&gt;Node4</title>
<g id="a_edge3_Node000002_Node000004"><a xlink:title=" ">
<path fill="none" stroke="#63b8ff" d="M215.5,-319.88C215.5,-311.59 215.5,-302.42 215.5,-295.86"/>
<polygon fill="#63b8ff" stroke="#63b8ff" points="212,-319.82 215.5,-329.82 219,-319.82 212,-319.82"/>
</a>
</g>
</g>
<!-- Node12 -->
<g id="Node000012" class="node">
<title>Node12</title>
<g id="a_Node000012"><a xlink:href="../../d6/d6e/_named_tuple_8hpp.html" target="_top" xlink:title=" ">
<polygon fill="white" stroke="#666666" points="374.62,-185 284.38,-185 284.38,-165.75 374.62,-165.75 374.62,-185"/>
<text xml:space="preserve" text-anchor="middle" x="329.5" y="-171.5" font-family="Helvetica,sans-Serif" font-size="10.00">NamedTuple.hpp</text>
</a>
</g>
</g>
<!-- Node2&#45;&gt;Node12 -->
<g id="edge12_Node000002_Node000012" class="edge">
<title>Node2&#45;&gt;Node12</title>
<g id="a_edge12_Node000002_Node000012"><a xlink:title=" ">
<path fill="none" stroke="#63b8ff" d="M234.21,-323.7C242.77,-315.68 252.72,-305.58 260.5,-295.5 289.85,-257.47 315.65,-205.72 325.38,-185.24"/>
<polygon fill="#63b8ff" stroke="#63b8ff" points="232.09,-320.9 227.05,-330.22 236.8,-326.07 232.09,-320.9"/>
</a>
</g>
</g>
<!-- Node5 -->
<g id="Node000005" class="node">
<title>Node5</title>
<g id="a_Node000005"><a xlink:href="../../d7/d5d/_tx_container_8hpp.html" target="_top" xlink:title="TX&#45;side container that builds protocol frames from a set of fields.">
<polygon fill="white" stroke="#666666" points="240.12,-240.25 152.88,-240.25 152.88,-221 240.12,-221 240.12,-240.25"/>
<text xml:space="preserve" text-anchor="middle" x="196.5" y="-226.75" font-family="Helvetica,sans-Serif" font-size="10.00">TxContainer.hpp</text>
</a>
</g>
</g>
<!-- Node4&#45;&gt;Node5 -->
<g id="edge4_Node000004_Node000005" class="edge">
<title>Node4&#45;&gt;Node5</title>
<g id="a_edge4_Node000004_Node000005"><a xlink:title=" ">
<path fill="none" stroke="#63b8ff" d="M208.59,-265.5C205.55,-256.99 202.13,-247.4 199.71,-240.61"/>
<polygon fill="#63b8ff" stroke="#63b8ff" points="205.2,-266.41 211.85,-274.66 211.79,-264.06 205.2,-266.41"/>
</a>
</g>
</g>
<!-- Node6 -->
<g id="Node000006" class="node">
<title>Node6</title>
<g id="a_Node000006"><a xlink:href="../../dd/d7f/_protocol_endpoint_8hpp.html" target="_top" xlink:title="Base endpoint class for protocol implementations.">
<polygon fill="white" stroke="#666666" points="109,-185 0,-185 0,-165.75 109,-165.75 109,-185"/>
<text xml:space="preserve" text-anchor="middle" x="54.5" y="-171.5" font-family="Helvetica,sans-Serif" font-size="10.00">ProtocolEndpoint.hpp</text>
</a>
</g>
</g>
<!-- Node5&#45;&gt;Node6 -->
<g id="edge5_Node000005_Node000006" class="edge">
<title>Node5&#45;&gt;Node6</title>
<g id="a_edge5_Node000005_Node000006"><a xlink:title=" ">
<path fill="none" stroke="#63b8ff" d="M161.96,-216.67C136.18,-207 101.59,-194.04 78.71,-185.45"/>
<polygon fill="#63b8ff" stroke="#63b8ff" points="160.4,-219.83 170.99,-220.06 162.86,-213.27 160.4,-219.83"/>
</a>
</g>
</g>
<!-- Node10 -->
<g id="Node000010" class="node">
<title>Node10</title>
<g id="a_Node000010"><a xlink:href="../../dc/d1e/_protocol_no_sys_endpoint_8hpp.html" target="_top" xlink:title=" ">
<polygon fill="white" stroke="#666666" points="266,-185 127,-185 127,-165.75 266,-165.75 266,-185"/>
<text xml:space="preserve" text-anchor="middle" x="196.5" y="-171.5" font-family="Helvetica,sans-Serif" font-size="10.00">ProtocolNoSysEndpoint.hpp</text>
</a>
</g>
</g>
<!-- Node5&#45;&gt;Node10 -->
<g id="edge10_Node000005_Node000010" class="edge">
<title>Node5&#45;&gt;Node10</title>
<g id="a_edge10_Node000005_Node000010"><a xlink:title=" ">
<path fill="none" stroke="#63b8ff" d="M196.5,-209.38C196.5,-201.09 196.5,-191.92 196.5,-185.36"/>
<polygon fill="#63b8ff" stroke="#63b8ff" points="193,-209.32 196.5,-219.32 200,-209.32 193,-209.32"/>
</a>
</g>
</g>
<!-- Node7 -->
<g id="Node000007" class="node">
<title>Node7</title>
<g id="a_Node000007"><a xlink:href="../../dc/d95/_lacte_protocol_8hpp.html" target="_top" xlink:title=" ">
<polygon fill="white" stroke="#666666" points="150.88,-74.5 56.12,-74.5 56.12,-55.25 150.88,-55.25 150.88,-74.5"/>
<text xml:space="preserve" text-anchor="middle" x="103.5" y="-61" font-family="Helvetica,sans-Serif" font-size="10.00">LacteProtocol.hpp</text>
</a>
</g>
</g>
<!-- Node6&#45;&gt;Node7 -->
<g id="edge6_Node000006_Node000007" class="edge">
<title>Node6&#45;&gt;Node7</title>
<g id="a_edge6_Node000006_Node000007"><a xlink:title=" ">
<path fill="none" stroke="#63b8ff" d="M37.95,-156.86C27.64,-143.73 17.84,-125.53 26.5,-110.5 36.61,-92.96 56.53,-81.69 73.58,-74.86"/>
<polygon fill="#63b8ff" stroke="#63b8ff" points="35.13,-158.95 44.3,-164.25 40.44,-154.39 35.13,-158.95"/>
</a>
</g>
</g>
<!-- Node9 -->
<g id="Node000009" class="node">
<title>Node9</title>
<g id="a_Node000009"><a xlink:href="../../d8/df0/_lacte_protocol_prototype_8hpp.html" target="_top" xlink:title=" ">
<polygon fill="white" stroke="#666666" points="171.88,-129.75 35.12,-129.75 35.12,-110.5 171.88,-110.5 171.88,-129.75"/>
<text xml:space="preserve" text-anchor="middle" x="103.5" y="-116.25" font-family="Helvetica,sans-Serif" font-size="10.00">LacteProtocolPrototype.hpp</text>
</a>
</g>
</g>
<!-- Node6&#45;&gt;Node9 -->
<g id="edge8_Node000006_Node000009" class="edge">
<title>Node6&#45;&gt;Node9</title>
<g id="a_edge8_Node000006_Node000009"><a xlink:title=" ">
<path fill="none" stroke="#63b8ff" d="M70.22,-157.29C78.54,-148.25 88.41,-137.52 95.23,-130.11"/>
<polygon fill="#63b8ff" stroke="#63b8ff" points="67.81,-154.74 63.62,-164.47 72.96,-159.48 67.81,-154.74"/>
</a>
</g>
</g>
<!-- Node8 -->
<g id="Node000008" class="node">
<title>Node8</title>
<g id="a_Node000008"><a xlink:href="../../db/dc5/_virtual_board_8hpp.html" target="_top" xlink:title=" ">
<polygon fill="white" stroke="#666666" points="147.5,-19.25 59.5,-19.25 59.5,0 147.5,0 147.5,-19.25"/>
<text xml:space="preserve" text-anchor="middle" x="103.5" y="-5.75" font-family="Helvetica,sans-Serif" font-size="10.00">VirtualBoard.hpp</text>
</a>
</g>
</g>
<!-- Node7&#45;&gt;Node8 -->
<g id="edge7_Node000007_Node000008" class="edge">
<title>Node7&#45;&gt;Node8</title>
<g id="a_edge7_Node000007_Node000008"><a xlink:title=" ">
<path fill="none" stroke="#63b8ff" d="M103.5,-43.63C103.5,-35.34 103.5,-26.17 103.5,-19.61"/>
<polygon fill="#63b8ff" stroke="#63b8ff" points="100,-43.57 103.5,-53.57 107,-43.57 100,-43.57"/>
</a>
</g>
</g>
<!-- Node9&#45;&gt;Node7 -->
<g id="edge9_Node000009_Node000007" class="edge">
<title>Node9&#45;&gt;Node7</title>
<g id="a_edge9_Node000009_Node000007"><a xlink:title=" ">
<path fill="none" stroke="#63b8ff" d="M103.5,-98.88C103.5,-90.59 103.5,-81.42 103.5,-74.86"/>
<polygon fill="#63b8ff" stroke="#63b8ff" points="100,-98.82 103.5,-108.82 107,-98.82 100,-98.82"/>
</a>
</g>
</g>
<!-- Node11 -->
<g id="Node000011" class="node">
<title>Node11</title>
<g id="a_Node000011"><a xlink:href="../../d5/d46/exo_atlant_protocol_8hpp.html" target="_top" xlink:title=" ">
<polygon fill="white" stroke="#666666" points="301.5,-129.75 189.5,-129.75 189.5,-110.5 301.5,-110.5 301.5,-129.75"/>
<text xml:space="preserve" text-anchor="middle" x="245.5" y="-116.25" font-family="Helvetica,sans-Serif" font-size="10.00">exoAtlantProtocol.hpp</text>
</a>
</g>
</g>
<!-- Node10&#45;&gt;Node11 -->
<g id="edge11_Node000010_Node000011" class="edge">
<title>Node10&#45;&gt;Node11</title>
<g id="a_edge11_Node000010_Node000011"><a xlink:title=" ">
<path fill="none" stroke="#63b8ff" d="M212.22,-157.29C220.54,-148.25 230.41,-137.52 237.23,-130.11"/>
<polygon fill="#63b8ff" stroke="#63b8ff" points="209.81,-154.74 205.62,-164.47 214.96,-159.48 209.81,-154.74"/>
</a>
</g>
</g>
<!-- Node12&#45;&gt;Node7 -->
<g id="edge13_Node000012_Node000007" class="edge">
<title>Node12&#45;&gt;Node7</title>
<g id="a_edge13_Node000012_Node000007"><a xlink:title=" ">
<path fill="none" stroke="#63b8ff" d="M328.73,-154.39C327.1,-140.18 322.58,-121.69 310.5,-110.5 287.71,-89.39 204.8,-76.71 151.07,-70.52"/>
<polygon fill="#63b8ff" stroke="#63b8ff" points="325.22,-154.26 329.43,-163.98 332.2,-153.75 325.22,-154.26"/>
</a>
</g>
</g>
<!-- Node12&#45;&gt;Node11 -->
<g id="edge14_Node000012_Node000011" class="edge">
<title>Node12&#45;&gt;Node11</title>
<g id="a_edge14_Node000012_Node000011"><a xlink:title=" ">
<path fill="none" stroke="#63b8ff" d="M305.73,-159.3C290.93,-149.92 272.39,-138.17 259.82,-130.2"/>
<polygon fill="#63b8ff" stroke="#63b8ff" points="303.65,-162.13 313.97,-164.53 307.4,-156.22 303.65,-162.13"/>
</a>
</g>
</g>
</g>
</svg>
