<?xml version="1.0" encoding="UTF-8" standalone="no"?>
<!DOCTYPE svg PUBLIC "-//W3C//DTD SVG 1.1//EN"
 "http://www.w3.org/Graphics/SVG/1.1/DTD/svg11.dtd">
<!-- Generated by graphviz version 14.0.1 (20251006.0113)
 -->
<!-- Title: RfidDataTypes.hpp Pages: 1 -->
<svg width="1712pt" height="193pt"
 viewBox="0.00 0.00 1712.00 193.00" xmlns="http://www.w3.org/2000/svg" xmlns:xlink="http://www.w3.org/1999/xlink">
<g id="graph0" class="graph" transform="scale(1 1) rotate(0) translate(4 189)">
<title>RfidDataTypes.hpp</title>
<!-- Node1 -->
<g id="Node000001" class="node">
<title>Node1</title>
<g id="a_Node000001"><a xlink:title=" ">
<polygon fill="#999999" stroke="#666666" points="1078.62,-185 978.62,-185 978.62,-165.75 1078.62,-165.75 1078.62,-185"/>
<text xml:space="preserve" text-anchor="middle" x="1028.62" y="-171.5" font-family="Helvetica,sans-Serif" font-size="10.00">RfidDataTypes.hpp</text>
</a>
</g>
</g>
<!-- Node2 -->
<g id="Node000002" class="node">
<title>Node2</title>
<g id="a_Node000002"><a xlink:title=" ">
<polygon fill="#e0e0e0" stroke="#999999" points="45.25,-129.75 0,-129.75 0,-110.5 45.25,-110.5 45.25,-129.75"/>
<text xml:space="preserve" text-anchor="middle" x="22.62" y="-116.25" font-family="Helvetica,sans-Serif" font-size="10.00">cctype</text>
</a>
</g>
</g>
<!-- Node1&#45;&gt;Node2 -->
<g id="edge1_Node000001_Node000002" class="edge">
<title>Node1&#45;&gt;Node2</title>
<g id="a_edge1_Node000001_Node000002"><a xlink:title=" ">
<path fill="none" stroke="#63b8ff" d="M978.19,-173.57C808.17,-170.62 256.02,-159.11 56.72,-129.84"/>
<polygon fill="#63b8ff" stroke="#63b8ff" points="57.43,-126.41 47.02,-128.35 56.37,-133.33 57.43,-126.41"/>
</a>
</g>
</g>
<!-- Node3 -->
<g id="Node000003" class="node">
<title>Node3</title>
<g id="a_Node000003"><a xlink:title=" ">
<polygon fill="#e0e0e0" stroke="#999999" points="1303.25,-19.25 1258,-19.25 1258,0 1303.25,0 1303.25,-19.25"/>
<text xml:space="preserve" text-anchor="middle" x="1280.62" y="-5.75" font-family="Helvetica,sans-Serif" font-size="10.00">cstdint</text>
</a>
</g>
</g>
<!-- Node1&#45;&gt;Node3 -->
<g id="edge2_Node000001_Node000003" class="edge">
<title>Node1&#45;&gt;Node3</title>
<g id="a_edge2_Node000001_Node000003"><a xlink:title=" ">
<path fill="none" stroke="#63b8ff" d="M1078.7,-173.98C1122.1,-171.29 1184.66,-161.54 1228.62,-129.75 1260.99,-106.35 1273.46,-58.38 1278.07,-30.98"/>
<polygon fill="#63b8ff" stroke="#63b8ff" points="1281.52,-31.6 1279.5,-21.2 1274.59,-30.58 1281.52,-31.6"/>
</a>
</g>
</g>
<!-- Node4 -->
<g id="Node000004" class="node">
<title>Node4</title>
<g id="a_Node000004"><a xlink:title=" ">
<polygon fill="#e0e0e0" stroke="#999999" points="1068.25,-74.5 1023,-74.5 1023,-55.25 1068.25,-55.25 1068.25,-74.5"/>
<text xml:space="preserve" text-anchor="middle" x="1045.62" y="-61" font-family="Helvetica,sans-Serif" font-size="10.00">cstring</text>
</a>
</g>
</g>
<!-- Node1&#45;&gt;Node4 -->
<g id="edge3_Node000001_Node000004" class="edge">
<title>Node1&#45;&gt;Node4</title>
<g id="a_edge3_Node000001_Node000004"><a xlink:title=" ">
<path fill="none" stroke="#63b8ff" d="M1033.41,-165.46C1037.84,-156.67 1044.11,-142.71 1046.62,-129.75 1049.45,-115.22 1049.05,-98.47 1048.03,-85.77"/>
<polygon fill="#63b8ff" stroke="#63b8ff" points="1051.55,-85.75 1047.05,-76.16 1044.58,-86.46 1051.55,-85.75"/>
</a>
</g>
</g>
<!-- Node5 -->
<g id="Node000005" class="node">
<title>Node5</title>
<g id="a_Node000005"><a xlink:title=" ">
<polygon fill="#e0e0e0" stroke="#999999" points="1252.25,-74.5 1201,-74.5 1201,-55.25 1252.25,-55.25 1252.25,-74.5"/>
<text xml:space="preserve" text-anchor="middle" x="1226.62" y="-61" font-family="Helvetica,sans-Serif" font-size="10.00">ostream</text>
</a>
</g>
</g>
<!-- Node1&#45;&gt;Node5 -->
<g id="edge4_Node000001_Node000005" class="edge">
<title>Node1&#45;&gt;Node5</title>
<g id="a_edge4_Node000001_Node000005"><a xlink:title=" ">
<path fill="none" stroke="#63b8ff" d="M1079.09,-167.61C1125.67,-160.38 1190.3,-147.5 1208.62,-129.75 1220.28,-118.46 1224.56,-100.25 1226.05,-86.16"/>
<polygon fill="#63b8ff" stroke="#63b8ff" points="1229.54,-86.4 1226.67,-76.2 1222.56,-85.96 1229.54,-86.4"/>
</a>
</g>
</g>
<!-- Node6 -->
<g id="Node000006" class="node">
<title>Node6</title>
<g id="a_Node000006"><a xlink:title=" ">
<polygon fill="#e0e0e0" stroke="#999999" points="1376.62,-19.25 1336.62,-19.25 1336.62,0 1376.62,0 1376.62,-19.25"/>
<text xml:space="preserve" text-anchor="middle" x="1356.62" y="-5.75" font-family="Helvetica,sans-Serif" font-size="10.00">string</text>
</a>
</g>
</g>
<!-- Node1&#45;&gt;Node6 -->
<g id="edge5_Node000001_Node000006" class="edge">
<title>Node1&#45;&gt;Node6</title>
<g id="a_edge5_Node000001_Node000006"><a xlink:title=" ">
<path fill="none" stroke="#63b8ff" d="M1078.92,-174.76C1224.1,-175.34 1636.13,-173.13 1676.62,-129.75 1698.18,-106.66 1672.93,-73.75 1646.62,-55.25 1625.7,-40.53 1459.05,-21.43 1388.26,-13.89"/>
<polygon fill="#63b8ff" stroke="#63b8ff" points="1388.8,-10.43 1378.49,-12.86 1388.06,-17.39 1388.8,-10.43"/>
</a>
</g>
</g>
<!-- Node7 -->
<g id="Node000007" class="node">
<title>Node7</title>
<g id="a_Node000007"><a xlink:title=" ">
<polygon fill="#e0e0e0" stroke="#999999" points="1522.38,-19.25 1456.88,-19.25 1456.88,0 1522.38,0 1522.38,-19.25"/>
<text xml:space="preserve" text-anchor="middle" x="1489.62" y="-5.75" font-family="Helvetica,sans-Serif" font-size="10.00">string_view</text>
</a>
</g>
</g>
<!-- Node1&#45;&gt;Node7 -->
<g id="edge6_Node000001_Node000007" class="edge">
<title>Node1&#45;&gt;Node7</title>
<g id="a_edge6_Node000001_Node000007"><a xlink:title=" ">
<path fill="none" stroke="#63b8ff" d="M1078.99,-174.86C1227,-175.76 1652.85,-174.42 1694.62,-129.75 1707.77,-115.7 1708.1,-79.83 1684.62,-55.25 1664.26,-33.93 1585.14,-21.26 1534.16,-15.15"/>
<polygon fill="#63b8ff" stroke="#63b8ff" points="1534.64,-11.68 1524.3,-14.01 1533.83,-18.63 1534.64,-11.68"/>
</a>
</g>
</g>
<!-- Node8 -->
<g id="Node000008" class="node">
<title>Node8</title>
<g id="a_Node000008"><a xlink:href="../../d3/d89/_activation_time_type_8hpp.html" target="_top" xlink:title=" ">
<polygon fill="white" stroke="#666666" points="184.12,-129.75 63.12,-129.75 63.12,-110.5 184.12,-110.5 184.12,-129.75"/>
<text xml:space="preserve" text-anchor="middle" x="123.62" y="-116.25" font-family="Helvetica,sans-Serif" font-size="10.00">ActivationTimeType.hpp</text>
</a>
</g>
</g>
<!-- Node1&#45;&gt;Node8 -->
<g id="edge7_Node000001_Node000008" class="edge">
<title>Node1&#45;&gt;Node8</title>
<g id="a_edge7_Node000001_Node000008"><a xlink:title=" ">
<path fill="none" stroke="#63b8ff" d="M978.6,-172.94C850.29,-169.01 498.85,-156.56 195.77,-129.97"/>
<polygon fill="#63b8ff" stroke="#63b8ff" points="196.33,-126.51 186.06,-129.11 195.71,-133.48 196.33,-126.51"/>
</a>
</g>
</g>
<!-- Node14 -->
<g id="Node000014" class="node">
<title>Node14</title>
<g id="a_Node000014"><a xlink:href="../../d6/d0f/_drink_counter_type_8hpp.html" target="_top" xlink:title=" ">
<polygon fill="white" stroke="#666666" points="315.38,-129.75 201.88,-129.75 201.88,-110.5 315.38,-110.5 315.38,-129.75"/>
<text xml:space="preserve" text-anchor="middle" x="258.62" y="-116.25" font-family="Helvetica,sans-Serif" font-size="10.00">DrinkCounterType.hpp</text>
</a>
</g>
</g>
<!-- Node1&#45;&gt;Node14 -->
<g id="edge16_Node000001_Node000014" class="edge">
<title>Node1&#45;&gt;Node14</title>
<g id="a_edge16_Node000001_Node000014"><a xlink:title=" ">
<path fill="none" stroke="#63b8ff" d="M978.17,-172.33C864.13,-167.47 577.58,-153.85 326.99,-129.91"/>
<polygon fill="#63b8ff" stroke="#63b8ff" points="327.63,-126.46 317.34,-128.98 326.96,-133.43 327.63,-126.46"/>
</a>
</g>
</g>
<!-- Node15 -->
<g id="Node000015" class="node">
<title>Node15</title>
<g id="a_Node000015"><a xlink:href="../../de/df3/_lacte_id_type_8hpp.html" target="_top" xlink:title=" ">
<polygon fill="white" stroke="#666666" points="1381.62,-129.75 1293.62,-129.75 1293.62,-110.5 1381.62,-110.5 1381.62,-129.75"/>
<text xml:space="preserve" text-anchor="middle" x="1337.62" y="-116.25" font-family="Helvetica,sans-Serif" font-size="10.00">LacteIdType.hpp</text>
</a>
</g>
</g>
<!-- Node1&#45;&gt;Node15 -->
<g id="edge18_Node000001_Node000015" class="edge">
<title>Node1&#45;&gt;Node15</title>
<g id="a_edge18_Node000001_Node000015"><a xlink:title=" ">
<path fill="none" stroke="#63b8ff" d="M1078.96,-165.7C1134.75,-156.09 1224.47,-140.63 1282.22,-130.67"/>
<polygon fill="#63b8ff" stroke="#63b8ff" points="1282.58,-134.16 1291.84,-129.02 1281.39,-127.27 1282.58,-134.16"/>
</a>
</g>
</g>
<!-- Node17 -->
<g id="Node000017" class="node">
<title>Node17</title>
<g id="a_Node000017"><a xlink:href="../../d5/d3b/_lacte_sn_type_8hpp.html" target="_top" xlink:title=" ">
<polygon fill="white" stroke="#666666" points="425.5,-129.75 333.75,-129.75 333.75,-110.5 425.5,-110.5 425.5,-129.75"/>
<text xml:space="preserve" text-anchor="middle" x="379.62" y="-116.25" font-family="Helvetica,sans-Serif" font-size="10.00">LacteSnType.hpp</text>
</a>
</g>
</g>
<!-- Node1&#45;&gt;Node17 -->
<g id="edge24_Node000001_Node000017" class="edge">
<title>Node1&#45;&gt;Node17</title>
<g id="a_edge24_Node000001_Node000017"><a xlink:title=" ">
<path fill="none" stroke="#63b8ff" d="M978.43,-171.97C877.82,-166.86 644.11,-153.5 437.19,-129.95"/>
<polygon fill="#63b8ff" stroke="#63b8ff" points="437.64,-126.48 427.31,-128.82 436.84,-133.44 437.64,-126.48"/>
</a>
</g>
</g>
<!-- Node18 -->
<g id="Node000018" class="node">
<title>Node18</title>
<g id="a_Node000018"><a xlink:href="../../db/da8/_machine_sn_type_8hpp.html" target="_top" xlink:title=" ">
<polygon fill="white" stroke="#666666" points="547.88,-129.75 443.38,-129.75 443.38,-110.5 547.88,-110.5 547.88,-129.75"/>
<text xml:space="preserve" text-anchor="middle" x="495.62" y="-116.25" font-family="Helvetica,sans-Serif" font-size="10.00">MachineSnType.hpp</text>
</a>
</g>
</g>
<!-- Node1&#45;&gt;Node18 -->
<g id="edge26_Node000001_Node000018" class="edge">
<title>Node1&#45;&gt;Node18</title>
<g id="a_edge26_Node000001_Node000018"><a xlink:title=" ">
<path fill="none" stroke="#63b8ff" d="M978.36,-170.34C894.09,-163.42 718.7,-148.33 559.33,-129.9"/>
<polygon fill="#63b8ff" stroke="#63b8ff" points="560.21,-126.48 549.87,-128.8 559.4,-133.43 560.21,-126.48"/>
</a>
</g>
</g>
<!-- Node19 -->
<g id="Node000019" class="node">
<title>Node19</title>
<g id="a_Node000019"><a xlink:href="../../d9/d16/_magic_word_type_8hpp.html" target="_top" xlink:title=" ">
<polygon fill="white" stroke="#666666" points="670.88,-129.75 566.38,-129.75 566.38,-110.5 670.88,-110.5 670.88,-129.75"/>
<text xml:space="preserve" text-anchor="middle" x="618.62" y="-116.25" font-family="Helvetica,sans-Serif" font-size="10.00">MagicWordType.hpp</text>
</a>
</g>
</g>
<!-- Node1&#45;&gt;Node19 -->
<g id="edge28_Node000001_Node000019" class="edge">
<title>Node1&#45;&gt;Node19</title>
<g id="a_edge28_Node000001_Node000019"><a xlink:title=" ">
<path fill="none" stroke="#63b8ff" d="M978.18,-168.08C912.64,-159.86 794.37,-144.9 682.23,-129.95"/>
<polygon fill="#63b8ff" stroke="#63b8ff" points="682.93,-126.51 672.55,-128.66 682,-133.45 682.93,-126.51"/>
</a>
</g>
</g>
<!-- Node20 -->
<g id="Node000020" class="node">
<title>Node20</title>
<g id="a_Node000020"><a xlink:href="../../d9/dae/_mcu_uid_type_8hpp.html" target="_top" xlink:title=" ">
<polygon fill="white" stroke="#666666" points="1037.38,-129.75 947.88,-129.75 947.88,-110.5 1037.38,-110.5 1037.38,-129.75"/>
<text xml:space="preserve" text-anchor="middle" x="992.62" y="-116.25" font-family="Helvetica,sans-Serif" font-size="10.00">McuUidType.hpp</text>
</a>
</g>
</g>
<!-- Node1&#45;&gt;Node20 -->
<g id="edge30_Node000001_Node000020" class="edge">
<title>Node1&#45;&gt;Node20</title>
<g id="a_edge30_Node000001_Node000020"><a xlink:title=" ">
<path fill="none" stroke="#63b8ff" d="M1022.68,-165.58C1017.91,-158.53 1011.06,-148.4 1005.1,-139.58"/>
<polygon fill="#63b8ff" stroke="#63b8ff" points="1008.05,-137.69 999.55,-131.36 1002.25,-141.61 1008.05,-137.69"/>
</a>
</g>
</g>
<!-- Node22 -->
<g id="Node000022" class="node">
<title>Node22</title>
<g id="a_Node000022"><a xlink:href="../../d1/d5c/_product_date_type_8hpp.html" target="_top" xlink:title=" ">
<polygon fill="white" stroke="#666666" points="799.88,-129.75 689.38,-129.75 689.38,-110.5 799.88,-110.5 799.88,-129.75"/>
<text xml:space="preserve" text-anchor="middle" x="744.62" y="-116.25" font-family="Helvetica,sans-Serif" font-size="10.00">ProductDateType.hpp</text>
</a>
</g>
</g>
<!-- Node1&#45;&gt;Node22 -->
<g id="edge38_Node000001_Node000022" class="edge">
<title>Node1&#45;&gt;Node22</title>
<g id="a_edge38_Node000001_Node000022"><a xlink:title=" ">
<path fill="none" stroke="#63b8ff" d="M980.13,-165.28C931.42,-156.15 856.29,-142.06 804.04,-132.26"/>
<polygon fill="#63b8ff" stroke="#63b8ff" points="804.88,-128.86 794.41,-130.46 803.59,-135.74 804.88,-128.86"/>
</a>
</g>
</g>
<!-- Node23 -->
<g id="Node000023" class="node">
<title>Node23</title>
<g id="a_Node000023"><a xlink:href="../../d1/d08/_product_shelf_life_type_8hpp.html" target="_top" xlink:title=" ">
<polygon fill="white" stroke="#666666" points="1667.5,-129.75 1539.75,-129.75 1539.75,-110.5 1667.5,-110.5 1667.5,-129.75"/>
<text xml:space="preserve" text-anchor="middle" x="1603.62" y="-116.25" font-family="Helvetica,sans-Serif" font-size="10.00">ProductShelfLifeType.hpp</text>
</a>
</g>
</g>
<!-- Node1&#45;&gt;Node23 -->
<g id="edge40_Node000001_Node000023" class="edge">
<title>Node1&#45;&gt;Node23</title>
<g id="a_edge40_Node000001_Node000023"><a xlink:title=" ">
<path fill="none" stroke="#63b8ff" d="M1078.9,-170.39C1167.41,-163.27 1357.1,-147.54 1528.29,-129.96"/>
<polygon fill="#63b8ff" stroke="#63b8ff" points="1528.45,-133.47 1538.04,-128.96 1527.73,-126.5 1528.45,-133.47"/>
</a>
</g>
</g>
<!-- Node24 -->
<g id="Node000024" class="node">
<title>Node24</title>
<g id="a_Node000024"><a xlink:href="../../dd/d73/_product_volume_type_8hpp.html" target="_top" xlink:title=" ">
<polygon fill="white" stroke="#666666" points="1521.88,-129.75 1399.38,-129.75 1399.38,-110.5 1521.88,-110.5 1521.88,-129.75"/>
<text xml:space="preserve" text-anchor="middle" x="1460.62" y="-116.25" font-family="Helvetica,sans-Serif" font-size="10.00">ProductVolumeType.hpp</text>
</a>
</g>
</g>
<!-- Node1&#45;&gt;Node24 -->
<g id="edge46_Node000001_Node000024" class="edge">
<title>Node1&#45;&gt;Node24</title>
<g id="a_edge46_Node000001_Node000024"><a xlink:title=" ">
<path fill="none" stroke="#63b8ff" d="M1079.03,-168.16C1155.25,-158.77 1300.25,-140.89 1387.9,-130.09"/>
<polygon fill="#63b8ff" stroke="#63b8ff" points="1388.09,-133.59 1397.59,-128.9 1387.23,-126.65 1388.09,-133.59"/>
</a>
</g>
</g>
<!-- Node25 -->
<g id="Node000025" class="node">
<title>Node25</title>
<g id="a_Node000025"><a xlink:href="../../d8/dc4/_time_counter_type_8hpp.html" target="_top" xlink:title=" ">
<polygon fill="white" stroke="#666666" points="929.62,-129.75 817.62,-129.75 817.62,-110.5 929.62,-110.5 929.62,-129.75"/>
<text xml:space="preserve" text-anchor="middle" x="873.62" y="-116.25" font-family="Helvetica,sans-Serif" font-size="10.00">TimeCounterType.hpp</text>
</a>
</g>
</g>
<!-- Node1&#45;&gt;Node25 -->
<g id="edge52_Node000001_Node000025" class="edge">
<title>Node1&#45;&gt;Node25</title>
<g id="a_edge52_Node000001_Node000025"><a xlink:title=" ">
<path fill="none" stroke="#63b8ff" d="M1002.33,-165.34C977.17,-156.7 938.97,-143.57 910.72,-133.87"/>
<polygon fill="#63b8ff" stroke="#63b8ff" points="912.07,-130.63 901.48,-130.69 909.8,-137.25 912.07,-130.63"/>
</a>
</g>
</g>
<!-- Node26 -->
<g id="Node000026" class="node">
<title>Node26</title>
<g id="a_Node000026"><a xlink:href="../../d9/d8d/_usage_time_type_8hpp.html" target="_top" xlink:title=" ">
<polygon fill="white" stroke="#666666" points="1199.62,-129.75 1093.62,-129.75 1093.62,-110.5 1199.62,-110.5 1199.62,-129.75"/>
<text xml:space="preserve" text-anchor="middle" x="1146.62" y="-116.25" font-family="Helvetica,sans-Serif" font-size="10.00">UsageTimeType.hpp</text>
</a>
</g>
</g>
<!-- Node1&#45;&gt;Node26 -->
<g id="edge54_Node000001_Node000026" class="edge">
<title>Node1&#45;&gt;Node26</title>
<g id="a_edge54_Node000001_Node000026"><a xlink:title=" ">
<path fill="none" stroke="#63b8ff" d="M1048.64,-165.34C1067.12,-157 1094.83,-144.5 1116.07,-134.91"/>
<polygon fill="#63b8ff" stroke="#63b8ff" points="1117.45,-138.13 1125.13,-130.83 1114.58,-131.75 1117.45,-138.13"/>
</a>
</g>
</g>
<!-- Node9 -->
<g id="Node000009" class="node">
<title>Node9</title>
<g id="a_Node000009"><a xlink:href="../../dd/d07/_helpers_8hpp.html" target="_top" xlink:title=" ">
<polygon fill="white" stroke="#666666" points="778.88,-74.5 710.38,-74.5 710.38,-55.25 778.88,-55.25 778.88,-74.5"/>
<text xml:space="preserve" text-anchor="middle" x="744.62" y="-61" font-family="Helvetica,sans-Serif" font-size="10.00">Helpers.hpp</text>
</a>
</g>
</g>
<!-- Node8&#45;&gt;Node9 -->
<g id="edge8_Node000008_Node000009" class="edge">
<title>Node8&#45;&gt;Node9</title>
<g id="a_edge8_Node000008_Node000009"><a xlink:title=" ">
<path fill="none" stroke="#63b8ff" d="M184.56,-111.36C187.29,-111.06 189.98,-110.77 192.62,-110.5 379.96,-91.23 603.78,-75.32 698.58,-68.91"/>
<polygon fill="#63b8ff" stroke="#63b8ff" points="698.77,-72.41 708.51,-68.25 698.3,-65.43 698.77,-72.41"/>
</a>
</g>
</g>
<!-- Node9&#45;&gt;Node3 -->
<g id="edge11_Node000009_Node000003" class="edge">
<title>Node9&#45;&gt;Node3</title>
<g id="a_edge11_Node000009_Node000003"><a xlink:title=" ">
<path fill="none" stroke="#63b8ff" d="M778.97,-60.46C875.69,-50.85 1149.58,-23.64 1246.29,-14.04"/>
<polygon fill="#63b8ff" stroke="#63b8ff" points="1246.59,-17.52 1256.19,-13.05 1245.89,-10.56 1246.59,-17.52"/>
</a>
</g>
</g>
<!-- Node9&#45;&gt;Node6 -->
<g id="edge14_Node000009_Node000006" class="edge">
<title>Node9&#45;&gt;Node6</title>
<g id="a_edge14_Node000009_Node000006"><a xlink:title=" ">
<path fill="none" stroke="#63b8ff" d="M779.13,-61.27C898.2,-52.29 1286.1,-22.88 1312.62,-19.25 1316.8,-18.68 1321.19,-17.96 1325.5,-17.19"/>
<polygon fill="#63b8ff" stroke="#63b8ff" points="1325.91,-20.67 1335.07,-15.35 1324.59,-13.8 1325.91,-20.67"/>
</a>
</g>
</g>
<!-- Node9&#45;&gt;Node7 -->
<g id="edge15_Node000009_Node000007" class="edge">
<title>Node9&#45;&gt;Node7</title>
<g id="a_edge15_Node000009_Node000007"><a xlink:title=" ">
<path fill="none" stroke="#63b8ff" d="M779.25,-61.33C802.99,-59.6 835.21,-57.26 863.62,-55.25 1095.6,-38.84 1153.74,-36.86 1385.62,-19.25 1405.13,-17.77 1426.68,-16 1445.09,-14.46"/>
<polygon fill="#63b8ff" stroke="#63b8ff" points="1445.2,-17.96 1454.87,-13.63 1444.61,-10.98 1445.2,-17.96"/>
</a>
</g>
</g>
<!-- Node10 -->
<g id="Node000010" class="node">
<title>Node10</title>
<g id="a_Node000010"><a xlink:title=" ">
<polygon fill="#e0e0e0" stroke="#999999" points="814.5,-19.25 776.75,-19.25 776.75,0 814.5,0 814.5,-19.25"/>
<text xml:space="preserve" text-anchor="middle" x="795.62" y="-5.75" font-family="Helvetica,sans-Serif" font-size="10.00">array</text>
</a>
</g>
</g>
<!-- Node9&#45;&gt;Node10 -->
<g id="edge9_Node000009_Node000010" class="edge">
<title>Node9&#45;&gt;Node10</title>
<g id="a_edge9_Node000009_Node000010"><a xlink:title=" ">
<path fill="none" stroke="#63b8ff" d="M753.05,-55.08C760.16,-47.65 770.57,-36.79 779.31,-27.66"/>
<polygon fill="#63b8ff" stroke="#63b8ff" points="781.58,-30.35 785.97,-20.7 776.53,-25.5 781.58,-30.35"/>
</a>
</g>
</g>
<!-- Node11 -->
<g id="Node000011" class="node">
<title>Node11</title>
<g id="a_Node000011"><a xlink:title=" ">
<polygon fill="#e0e0e0" stroke="#999999" points="880.75,-19.25 832.5,-19.25 832.5,0 880.75,0 880.75,-19.25"/>
<text xml:space="preserve" text-anchor="middle" x="856.62" y="-5.75" font-family="Helvetica,sans-Serif" font-size="10.00">cstddef</text>
</a>
</g>
</g>
<!-- Node9&#45;&gt;Node11 -->
<g id="edge10_Node000009_Node000011" class="edge">
<title>Node9&#45;&gt;Node11</title>
<g id="a_edge10_Node000009_Node000011"><a xlink:title=" ">
<path fill="none" stroke="#63b8ff" d="M763.62,-54.84C781.08,-46.54 807.22,-34.11 827.35,-24.54"/>
<polygon fill="#63b8ff" stroke="#63b8ff" points="828.64,-27.81 836.17,-20.35 825.63,-21.49 828.64,-27.81"/>
</a>
</g>
</g>
<!-- Node12 -->
<g id="Node000012" class="node">
<title>Node12</title>
<g id="a_Node000012"><a xlink:title=" ">
<polygon fill="#e0e0e0" stroke="#999999" points="758.5,-19.25 708.75,-19.25 708.75,0 758.5,0 758.5,-19.25"/>
<text xml:space="preserve" text-anchor="middle" x="733.62" y="-5.75" font-family="Helvetica,sans-Serif" font-size="10.00">iomanip</text>
</a>
</g>
</g>
<!-- Node9&#45;&gt;Node12 -->
<g id="edge12_Node000009_Node000012" class="edge">
<title>Node9&#45;&gt;Node12</title>
<g id="a_edge12_Node000009_Node000012"><a xlink:title=" ">
<path fill="none" stroke="#63b8ff" d="M742.81,-55.08C741.45,-48.49 739.53,-39.21 737.8,-30.82"/>
<polygon fill="#63b8ff" stroke="#63b8ff" points="741.24,-30.18 735.79,-21.09 734.38,-31.59 741.24,-30.18"/>
</a>
</g>
</g>
<!-- Node13 -->
<g id="Node000013" class="node">
<title>Node13</title>
<g id="a_Node000013"><a xlink:title=" ">
<polygon fill="#e0e0e0" stroke="#999999" points="690.38,-19.25 636.88,-19.25 636.88,0 690.38,0 690.38,-19.25"/>
<text xml:space="preserve" text-anchor="middle" x="663.62" y="-5.75" font-family="Helvetica,sans-Serif" font-size="10.00">iostream</text>
</a>
</g>
</g>
<!-- Node9&#45;&gt;Node13 -->
<g id="edge13_Node000009_Node000013" class="edge">
<title>Node9&#45;&gt;Node13</title>
<g id="a_edge13_Node000009_Node000013"><a xlink:title=" ">
<path fill="none" stroke="#63b8ff" d="M730.88,-54.84C718.9,-46.96 701.25,-35.36 687.04,-26.02"/>
<polygon fill="#63b8ff" stroke="#63b8ff" points="688.98,-23.1 678.7,-20.53 685.13,-28.95 688.98,-23.1"/>
</a>
</g>
</g>
<!-- Node14&#45;&gt;Node9 -->
<g id="edge17_Node000014_Node000009" class="edge">
<title>Node14&#45;&gt;Node9</title>
<g id="a_edge17_Node000014_Node000009"><a xlink:title=" ">
<path fill="none" stroke="#63b8ff" d="M315.85,-111.56C318.82,-111.2 321.76,-110.84 324.62,-110.5 460.55,-94.4 621.56,-78.05 698.8,-70.38"/>
<polygon fill="#63b8ff" stroke="#63b8ff" points="698.91,-73.89 708.51,-69.42 698.22,-66.92 698.91,-73.89"/>
</a>
</g>
</g>
<!-- Node15&#45;&gt;Node3 -->
<g id="edge19_Node000015_Node000003" class="edge">
<title>Node15&#45;&gt;Node3</title>
<g id="a_edge19_Node000015_Node000003"><a xlink:title=" ">
<path fill="none" stroke="#63b8ff" d="M1332.96,-110.25C1323.73,-92.68 1302.97,-53.16 1290.55,-29.52"/>
<polygon fill="#63b8ff" stroke="#63b8ff" points="1293.81,-28.19 1286.06,-20.97 1287.61,-31.45 1293.81,-28.19"/>
</a>
</g>
</g>
<!-- Node15&#45;&gt;Node6 -->
<g id="edge21_Node000015_Node000006" class="edge">
<title>Node15&#45;&gt;Node6</title>
<g id="a_edge21_Node000015_Node000006"><a xlink:title=" ">
<path fill="none" stroke="#63b8ff" d="M1339.18,-110.25C1342.2,-93 1348.93,-54.58 1353.09,-30.81"/>
<polygon fill="#63b8ff" stroke="#63b8ff" points="1356.51,-31.57 1354.79,-21.12 1349.62,-30.36 1356.51,-31.57"/>
</a>
</g>
</g>
<!-- Node15&#45;&gt;Node7 -->
<g id="edge22_Node000015_Node000007" class="edge">
<title>Node15&#45;&gt;Node7</title>
<g id="a_edge22_Node000015_Node000007"><a xlink:title=" ">
<path fill="none" stroke="#63b8ff" d="M1350.32,-110.06C1376.32,-91.51 1435.85,-49.01 1468.03,-26.04"/>
<polygon fill="#63b8ff" stroke="#63b8ff" points="1469.73,-29.12 1475.84,-20.47 1465.67,-23.43 1469.73,-29.12"/>
</a>
</g>
</g>
<!-- Node15&#45;&gt;Node9 -->
<g id="edge23_Node000015_Node000009" class="edge">
<title>Node15&#45;&gt;Node9</title>
<g id="a_edge23_Node000015_Node000009"><a xlink:title=" ">
<path fill="none" stroke="#63b8ff" d="M1293.54,-115.17C1184.25,-105.35 901.64,-79.97 790.5,-69.99"/>
<polygon fill="#63b8ff" stroke="#63b8ff" points="790.83,-66.51 780.55,-69.1 790.2,-73.48 790.83,-66.51"/>
</a>
</g>
</g>
<!-- Node16 -->
<g id="Node000016" class="node">
<title>Node16</title>
<g id="a_Node000016"><a xlink:title=" ">
<polygon fill="#e0e0e0" stroke="#999999" points="1588.25,-74.5 1537,-74.5 1537,-55.25 1588.25,-55.25 1588.25,-74.5"/>
<text xml:space="preserve" text-anchor="middle" x="1562.62" y="-61" font-family="Helvetica,sans-Serif" font-size="10.00">sstream</text>
</a>
</g>
</g>
<!-- Node15&#45;&gt;Node16 -->
<g id="edge20_Node000015_Node000016" class="edge">
<title>Node15&#45;&gt;Node16</title>
<g id="a_edge20_Node000015_Node000016"><a xlink:title=" ">
<path fill="none" stroke="#63b8ff" d="M1376.05,-110.03C1417.83,-100.14 1484.16,-84.44 1525.45,-74.67"/>
<polygon fill="#63b8ff" stroke="#63b8ff" points="1526.25,-78.08 1535.17,-72.37 1524.64,-71.27 1526.25,-78.08"/>
</a>
</g>
</g>
<!-- Node17&#45;&gt;Node9 -->
<g id="edge25_Node000017_Node000009" class="edge">
<title>Node17&#45;&gt;Node9</title>
<g id="a_edge25_Node000017_Node000009"><a xlink:title=" ">
<path fill="none" stroke="#63b8ff" d="M425.83,-111.84C428.81,-111.38 431.76,-110.93 434.62,-110.5 528.58,-96.37 638.7,-80.74 699.15,-72.24"/>
<polygon fill="#63b8ff" stroke="#63b8ff" points="699.28,-75.75 708.7,-70.9 698.31,-68.82 699.28,-75.75"/>
</a>
</g>
</g>
<!-- Node18&#45;&gt;Node9 -->
<g id="edge27_Node000018_Node000009" class="edge">
<title>Node18&#45;&gt;Node9</title>
<g id="a_edge27_Node000018_Node000009"><a xlink:title=" ">
<path fill="none" stroke="#63b8ff" d="M538.15,-110.03C582.84,-100.47 652.89,-85.49 698.79,-75.68"/>
<polygon fill="#63b8ff" stroke="#63b8ff" points="699.38,-79.13 708.43,-73.62 697.92,-72.28 699.38,-79.13"/>
</a>
</g>
</g>
<!-- Node19&#45;&gt;Node9 -->
<g id="edge29_Node000019_Node000009" class="edge">
<title>Node19&#45;&gt;Node9</title>
<g id="a_edge29_Node000019_Node000009"><a xlink:title=" ">
<path fill="none" stroke="#63b8ff" d="M640,-110.09C659.91,-101.68 689.86,-89.02 712.63,-79.4"/>
<polygon fill="#63b8ff" stroke="#63b8ff" points="713.9,-82.66 721.75,-75.54 711.18,-76.21 713.9,-82.66"/>
</a>
</g>
</g>
<!-- Node20&#45;&gt;Node3 -->
<g id="edge34_Node000020_Node000003" class="edge">
<title>Node20&#45;&gt;Node3</title>
<g id="a_edge34_Node000020_Node000003"><a xlink:title=" ">
<path fill="none" stroke="#63b8ff" d="M986.84,-110.1C978.94,-96.53 967.21,-70.8 980.62,-55.25 1014.59,-15.86 1174.81,-10.69 1246.18,-10.38"/>
<polygon fill="#63b8ff" stroke="#63b8ff" points="1246.13,-13.88 1256.12,-10.37 1246.12,-6.88 1246.13,-13.88"/>
</a>
</g>
</g>
<!-- Node20&#45;&gt;Node4 -->
<g id="edge35_Node000020_Node000004" class="edge">
<title>Node20&#45;&gt;Node4</title>
<g id="a_edge35_Node000020_Node000004"><a xlink:title=" ">
<path fill="none" stroke="#63b8ff" d="M1001.38,-110.33C1008.77,-102.9 1019.59,-92.04 1028.67,-82.91"/>
<polygon fill="#63b8ff" stroke="#63b8ff" points="1031.04,-85.49 1035.62,-75.93 1026.08,-80.55 1031.04,-85.49"/>
</a>
</g>
</g>
<!-- Node20&#45;&gt;Node6 -->
<g id="edge36_Node000020_Node000006" class="edge">
<title>Node20&#45;&gt;Node6</title>
<g id="a_edge36_Node000020_Node000006"><a xlink:title=" ">
<path fill="none" stroke="#63b8ff" d="M992.73,-110.04C993.43,-95.91 997.01,-68.86 1013.62,-55.25 1065.39,-12.83 1246.52,-29.69 1312.62,-19.25 1316.79,-18.59 1321.17,-17.83 1325.47,-17.03"/>
<polygon fill="#63b8ff" stroke="#63b8ff" points="1325.89,-20.51 1335.04,-15.18 1324.56,-13.64 1325.89,-20.51"/>
</a>
</g>
</g>
<!-- Node20&#45;&gt;Node9 -->
<g id="edge37_Node000020_Node000009" class="edge">
<title>Node20&#45;&gt;Node9</title>
<g id="a_edge37_Node000020_Node000009"><a xlink:title=" ">
<path fill="none" stroke="#63b8ff" d="M950.27,-110.03C905.76,-100.47 835.99,-85.49 790.28,-75.68"/>
<polygon fill="#63b8ff" stroke="#63b8ff" points="791.19,-72.29 780.68,-73.62 789.72,-79.14 791.19,-72.29"/>
</a>
</g>
</g>
<!-- Node20&#45;&gt;Node10 -->
<g id="edge32_Node000020_Node000010" class="edge">
<title>Node20&#45;&gt;Node10</title>
<g id="a_edge32_Node000020_Node000010"><a xlink:title=" ">
<path fill="none" stroke="#63b8ff" d="M947.67,-111.42C918.55,-104.92 880.75,-93.53 851.62,-74.5 833.35,-62.56 817.48,-43.06 807.35,-28.75"/>
<polygon fill="#63b8ff" stroke="#63b8ff" points="810.39,-26.99 801.88,-20.67 804.59,-30.91 810.39,-26.99"/>
</a>
</g>
</g>
<!-- Node20&#45;&gt;Node11 -->
<g id="edge33_Node000020_Node000011" class="edge">
<title>Node20&#45;&gt;Node11</title>
<g id="a_edge33_Node000020_Node000011"><a xlink:title=" ">
<path fill="none" stroke="#63b8ff" d="M951.94,-110.07C918.51,-101.76 874.89,-88.62 863.62,-74.5 853.93,-62.35 852.72,-44.5 853.62,-30.76"/>
<polygon fill="#63b8ff" stroke="#63b8ff" points="857.07,-31.4 854.7,-21.08 850.11,-30.63 857.07,-31.4"/>
</a>
</g>
</g>
<!-- Node21 -->
<g id="Node000021" class="node">
<title>Node21</title>
<g id="a_Node000021"><a xlink:title=" ">
<polygon fill="#e0e0e0" stroke="#999999" points="928.5,-74.5 872.75,-74.5 872.75,-55.25 928.5,-55.25 928.5,-74.5"/>
<text xml:space="preserve" text-anchor="middle" x="900.62" y="-61" font-family="Helvetica,sans-Serif" font-size="10.00">algorithm</text>
</a>
</g>
</g>
<!-- Node20&#45;&gt;Node21 -->
<g id="edge31_Node000020_Node000021" class="edge">
<title>Node20&#45;&gt;Node21</title>
<g id="a_edge31_Node000020_Node000021"><a xlink:title=" ">
<path fill="none" stroke="#63b8ff" d="M977.02,-110.09C963.01,-101.98 942.19,-89.93 925.82,-80.46"/>
<polygon fill="#63b8ff" stroke="#63b8ff" points="928.03,-77.69 917.62,-75.71 924.52,-83.75 928.03,-77.69"/>
</a>
</g>
</g>
<!-- Node22&#45;&gt;Node9 -->
<g id="edge39_Node000022_Node000009" class="edge">
<title>Node22&#45;&gt;Node9</title>
<g id="a_edge39_Node000022_Node000009"><a xlink:title=" ">
<path fill="none" stroke="#63b8ff" d="M744.62,-110.33C744.62,-103.82 744.62,-94.67 744.62,-86.37"/>
<polygon fill="#63b8ff" stroke="#63b8ff" points="748.13,-86.37 744.63,-76.37 741.13,-86.37 748.13,-86.37"/>
</a>
</g>
</g>
<!-- Node23&#45;&gt;Node3 -->
<g id="edge41_Node000023_Node000003" class="edge">
<title>Node23&#45;&gt;Node3</title>
<g id="a_edge41_Node000023_Node000003"><a xlink:title=" ">
<path fill="none" stroke="#63b8ff" d="M1605.84,-110.31C1608.72,-96.56 1611.83,-70.02 1597.62,-55.25 1555.66,-11.62 1387.41,-28.72 1327.62,-19.25 1323.45,-18.59 1319.07,-17.85 1314.73,-17.09"/>
<polygon fill="#63b8ff" stroke="#63b8ff" points="1315.49,-13.67 1305.03,-15.33 1314.24,-20.55 1315.49,-13.67"/>
</a>
</g>
</g>
<!-- Node23&#45;&gt;Node6 -->
<g id="edge43_Node000023_Node000006" class="edge">
<title>Node23&#45;&gt;Node6</title>
<g id="a_edge43_Node000023_Node000006"><a xlink:title=" ">
<path fill="none" stroke="#63b8ff" d="M1612.65,-110.38C1625.18,-97.19 1644.82,-71.94 1630.62,-55.25 1615.05,-36.94 1457.32,-20.06 1388.48,-13.51"/>
<polygon fill="#63b8ff" stroke="#63b8ff" points="1388.88,-10.03 1378.59,-12.58 1388.22,-17 1388.88,-10.03"/>
</a>
</g>
</g>
<!-- Node23&#45;&gt;Node7 -->
<g id="edge44_Node000023_Node000007" class="edge">
<title>Node23&#45;&gt;Node7</title>
<g id="a_edge44_Node000023_Node000007"><a xlink:title=" ">
<path fill="none" stroke="#63b8ff" d="M1625.01,-110.14C1649.87,-98.41 1685.48,-76.82 1668.62,-55.25 1652.18,-34.21 1581.21,-21.64 1533.73,-15.44"/>
<polygon fill="#63b8ff" stroke="#63b8ff" points="1534.36,-11.99 1524.01,-14.22 1533.49,-18.94 1534.36,-11.99"/>
</a>
</g>
</g>
<!-- Node23&#45;&gt;Node9 -->
<g id="edge45_Node000023_Node000009" class="edge">
<title>Node23&#45;&gt;Node9</title>
<g id="a_edge45_Node000023_Node000009"><a xlink:title=" ">
<path fill="none" stroke="#63b8ff" d="M1539.55,-111.32C1536.54,-111.03 1533.55,-110.75 1530.62,-110.5 1234.84,-85.07 1159.91,-93.23 863.62,-74.5 839.53,-72.98 812.71,-71.05 790.64,-69.41"/>
<polygon fill="#63b8ff" stroke="#63b8ff" points="790.98,-65.92 780.75,-68.67 790.46,-72.91 790.98,-65.92"/>
</a>
</g>
</g>
<!-- Node23&#45;&gt;Node16 -->
<g id="edge42_Node000023_Node000016" class="edge">
<title>Node23&#45;&gt;Node16</title>
<g id="a_edge42_Node000023_Node000016"><a xlink:title=" ">
<path fill="none" stroke="#63b8ff" d="M1596.85,-110.33C1591.31,-103.13 1583.28,-92.71 1576.4,-83.76"/>
<polygon fill="#63b8ff" stroke="#63b8ff" points="1579.34,-81.85 1570.47,-76.06 1573.79,-86.12 1579.34,-81.85"/>
</a>
</g>
</g>
<!-- Node24&#45;&gt;Node3 -->
<g id="edge47_Node000024_Node000003" class="edge">
<title>Node24&#45;&gt;Node3</title>
<g id="a_edge47_Node000024_Node000003"><a xlink:title=" ">
<path fill="none" stroke="#63b8ff" d="M1445.59,-110.06C1414.62,-91.39 1343.45,-48.49 1305.5,-25.62"/>
<polygon fill="#63b8ff" stroke="#63b8ff" points="1307.41,-22.69 1297.04,-20.52 1303.8,-28.68 1307.41,-22.69"/>
</a>
</g>
</g>
<!-- Node24&#45;&gt;Node6 -->
<g id="edge49_Node000024_Node000006" class="edge">
<title>Node24&#45;&gt;Node6</title>
<g id="a_edge49_Node000024_Node000006"><a xlink:title=" ">
<path fill="none" stroke="#63b8ff" d="M1454.03,-110.03C1444.59,-97.24 1426.39,-73.48 1408.62,-55.25 1398.81,-45.18 1386.97,-34.89 1377.07,-26.74"/>
<polygon fill="#63b8ff" stroke="#63b8ff" points="1379.46,-24.16 1369.48,-20.6 1375.06,-29.61 1379.46,-24.16"/>
</a>
</g>
</g>
<!-- Node24&#45;&gt;Node7 -->
<g id="edge50_Node000024_Node000007" class="edge">
<title>Node24&#45;&gt;Node7</title>
<g id="a_edge50_Node000024_Node000007"><a xlink:title=" ">
<path fill="none" stroke="#63b8ff" d="M1466.98,-110.04C1472.69,-101.36 1480.76,-87.67 1484.62,-74.5 1488.81,-60.25 1489.99,-43.49 1490.16,-30.72"/>
<polygon fill="#63b8ff" stroke="#63b8ff" points="1493.66,-30.99 1490.08,-21.02 1486.66,-31.05 1493.66,-30.99"/>
</a>
</g>
</g>
<!-- Node24&#45;&gt;Node9 -->
<g id="edge51_Node000024_Node000009" class="edge">
<title>Node24&#45;&gt;Node9</title>
<g id="a_edge51_Node000024_Node000009"><a xlink:title=" ">
<path fill="none" stroke="#63b8ff" d="M1399.19,-111.36C1396.29,-111.06 1393.43,-110.77 1390.62,-110.5 1156.92,-88.14 1097.81,-90.99 863.62,-74.5 839.54,-72.8 812.72,-70.87 790.65,-69.26"/>
<polygon fill="#63b8ff" stroke="#63b8ff" points="790.99,-65.77 780.76,-68.53 790.48,-72.75 790.99,-65.77"/>
</a>
</g>
</g>
<!-- Node24&#45;&gt;Node16 -->
<g id="edge48_Node000024_Node000016" class="edge">
<title>Node24&#45;&gt;Node16</title>
<g id="a_edge48_Node000024_Node000016"><a xlink:title=" ">
<path fill="none" stroke="#63b8ff" d="M1477.93,-110.09C1493.61,-101.91 1516.98,-89.71 1535.2,-80.19"/>
<polygon fill="#63b8ff" stroke="#63b8ff" points="1536.65,-83.38 1543.9,-75.65 1533.41,-77.18 1536.65,-83.38"/>
</a>
</g>
</g>
<!-- Node25&#45;&gt;Node9 -->
<g id="edge53_Node000025_Node000009" class="edge">
<title>Node25&#45;&gt;Node9</title>
<g id="a_edge53_Node000025_Node000009"><a xlink:title=" ">
<path fill="none" stroke="#63b8ff" d="M851.74,-110.09C831.26,-101.64 800.41,-88.9 777.07,-79.27"/>
<polygon fill="#63b8ff" stroke="#63b8ff" points="778.59,-76.11 768.01,-75.53 775.92,-82.58 778.59,-76.11"/>
</a>
</g>
</g>
<!-- Node26&#45;&gt;Node3 -->
<g id="edge55_Node000026_Node000003" class="edge">
<title>Node26&#45;&gt;Node3</title>
<g id="a_edge55_Node000026_Node000003"><a xlink:title=" ">
<path fill="none" stroke="#63b8ff" d="M1137.67,-110.12C1125.74,-97.02 1107.59,-72.41 1120.62,-55.25 1135.77,-35.31 1204,-21.88 1246.32,-15.31"/>
<polygon fill="#63b8ff" stroke="#63b8ff" points="1246.64,-18.81 1256.01,-13.87 1245.6,-11.88 1246.64,-18.81"/>
</a>
</g>
</g>
<!-- Node26&#45;&gt;Node5 -->
<g id="edge56_Node000026_Node000005" class="edge">
<title>Node26&#45;&gt;Node5</title>
<g id="a_edge56_Node000026_Node000005"><a xlink:title=" ">
<path fill="none" stroke="#63b8ff" d="M1160.2,-110.09C1172.03,-102.21 1189.46,-90.61 1203.5,-81.27"/>
<polygon fill="#63b8ff" stroke="#63b8ff" points="1205.34,-84.25 1211.73,-75.79 1201.46,-78.42 1205.34,-84.25"/>
</a>
</g>
</g>
<!-- Node26&#45;&gt;Node6 -->
<g id="edge57_Node000026_Node000006" class="edge">
<title>Node26&#45;&gt;Node6</title>
<g id="a_edge57_Node000026_Node000006"><a xlink:title=" ">
<path fill="none" stroke="#63b8ff" d="M1145.52,-110.36C1144.32,-96.65 1144.21,-70.19 1158.62,-55.25 1164.44,-49.23 1270.75,-27.55 1325.13,-16.78"/>
<polygon fill="#63b8ff" stroke="#63b8ff" points="1325.59,-20.26 1334.72,-14.89 1324.23,-13.39 1325.59,-20.26"/>
</a>
</g>
</g>
<!-- Node26&#45;&gt;Node7 -->
<g id="edge58_Node000026_Node000007" class="edge">
<title>Node26&#45;&gt;Node7</title>
<g id="a_edge58_Node000026_Node000007"><a xlink:title=" ">
<path fill="none" stroke="#63b8ff" d="M1150.06,-110.38C1156.13,-96.21 1170.15,-68.5 1191.62,-55.25 1212.82,-42.17 1367.45,-23.85 1445.21,-15.33"/>
<polygon fill="#63b8ff" stroke="#63b8ff" points="1445.49,-18.82 1455.05,-14.26 1444.73,-11.86 1445.49,-18.82"/>
</a>
</g>
</g>
<!-- Node26&#45;&gt;Node9 -->
<g id="edge59_Node000026_Node000009" class="edge">
<title>Node26&#45;&gt;Node9</title>
<g id="a_edge59_Node000026_Node000009"><a xlink:title=" ">
<path fill="none" stroke="#63b8ff" d="M1093.24,-112.05C1013.77,-101.53 865.69,-81.91 790.69,-71.98"/>
<polygon fill="#63b8ff" stroke="#63b8ff" points="791.18,-68.51 780.8,-70.67 790.26,-75.45 791.18,-68.51"/>
</a>
</g>
</g>
</g>
</svg>
