<?xml version="1.0" encoding="UTF-8" standalone="no"?>
<!DOCTYPE svg PUBLIC "-//W3C//DTD SVG 1.1//EN"
 "http://www.w3.org/Graphics/SVG/1.1/DTD/svg11.dtd">
<!-- Generated by graphviz version 2.43.0 (0)
 -->
<!-- Title: CustomSpan::empty Pages: 1 -->
<svg width="479pt" height="167pt"
 viewBox="0.00 0.00 479.00 167.00" xmlns="http://www.w3.org/2000/svg" xmlns:xlink="http://www.w3.org/1999/xlink">

<svg id="main" version="1.1" xmlns="http://www.w3.org/2000/svg" xmlns:xlink="http://www.w3.org/1999/xlink" xml:space="preserve" onload="init(evt)">
<style type="text/css"><![CDATA[
.node, .edge {opacity: 0.7;}
.node.selected, .edge.selected {opacity: 1;}
.edge:hover path { stroke: red; }
.edge:hover polygon { stroke: red; fill: red; }
]]></style>
<script type="application/ecmascript" xlink:href="../../svg.min.js"/>
<svg id="graph" class="graph">
<g id="graph0" class="graph" transform="scale(1 1) rotate(0) translate(4 163)">
<title>CustomSpan::empty</title>
<!-- Node1 -->
<g id="Node000001" class="node">
<title>Node1</title>
<g id="a_Node000001"><a xlink:title=" ">
<polygon fill="#999999" stroke="#666666" points="471,-88.5 355,-88.5 355,-69.5 471,-69.5 471,-88.5"/>
<text text-anchor="middle" x="413" y="-76.5" font-family="Helvetica,sans-Serif" font-size="10.00">CustomSpan::empty</text>
</a>
</g>
</g>
<!-- Node2 -->
<g id="Node000002" class="node">
<title>Node2</title>
<g id="a_Node000002"><a xlink:href="../../d0/d29/classproto_1_1RxContainer.html#a62f66f4bc347105478aba5bffd14796f" target="_top" xlink:title="Feeds a chunk of bytes to the parser and advances internal state.">
<polygon fill="white" stroke="#666666" points="305,-116 197,-116 197,-86 305,-86 305,-116"/>
<text text-anchor="start" x="205" y="-104" font-family="Helvetica,sans-Serif" font-size="10.00">proto::RxContainer</text>
<text text-anchor="middle" x="251" y="-93" font-family="Helvetica,sans-Serif" font-size="10.00">::fill</text>
</a>
</g>
</g>
<!-- Node1&#45;&gt;Node2 -->
<g id="edge1_Node000001_Node000002" class="edge">
<title>Node1&#45;&gt;Node2</title>
<g id="a_edge1_Node000001_Node000002"><a xlink:title=" ">
<path fill="none" stroke="#63b8ff" d="M344.71,-88.25C331.51,-90.07 317.84,-91.95 305.18,-93.69"/>
<polygon fill="#63b8ff" stroke="#63b8ff" points="345.26,-91.71 354.69,-86.88 344.3,-84.78 345.26,-91.71"/>
</a>
</g>
</g>
<!-- Node3 -->
<g id="Node000003" class="node">
<title>Node3</title>
<g id="a_Node000003"><a xlink:href="../../d4/d66/classproto_1_1exoAtlant_1_1ExoAtlantProtocol__.html#ab292d3fc1828c447d3e9d654aff5fcda" target="_top" xlink:title="Разбор входящего блока данных">
<polygon fill="white" stroke="#666666" points="147,-159 0,-159 0,-129 147,-129 147,-159"/>
<text text-anchor="start" x="8" y="-147" font-family="Helvetica,sans-Serif" font-size="10.00">proto::exoAtlant::ExoAtlant</text>
<text text-anchor="middle" x="73.5" y="-136" font-family="Helvetica,sans-Serif" font-size="10.00">Protocol_::parse</text>
</a>
</g>
</g>
<!-- Node1&#45;&gt;Node3 -->
<g id="edge5_Node000001_Node000003" class="edge">
<title>Node1&#45;&gt;Node3</title>
<g id="a_edge5_Node000001_Node000003"><a xlink:title=" ">
<path fill="none" stroke="#63b8ff" d="M388.5,-93.78C370.28,-104.44 343.99,-118.12 319,-125 262.66,-140.5 196.45,-144.84 147.15,-145.53"/>
<polygon fill="#63b8ff" stroke="#63b8ff" points="390.47,-96.68 397.25,-88.53 386.87,-90.67 390.47,-96.68"/>
</a>
</g>
</g>
<!-- Node5 -->
<g id="Node000005" class="node">
<title>Node5</title>
<g id="a_Node000005"><a xlink:href="../../d3/d81/namespaceproto_1_1lacte.html#a8e059adc76ca059dc745bb461ab1a734" target="_top" xlink:title=" ">
<polygon fill="white" stroke="#666666" points="319,-67.5 183,-67.5 183,-48.5 319,-48.5 319,-67.5"/>
<text text-anchor="middle" x="251" y="-55.5" font-family="Helvetica,sans-Serif" font-size="10.00">proto::lacte::operator&lt;&lt;</text>
</a>
</g>
</g>
<!-- Node1&#45;&gt;Node5 -->
<g id="edge4_Node000001_Node000005" class="edge">
<title>Node1&#45;&gt;Node5</title>
<g id="a_edge4_Node000001_Node000005"><a xlink:title=" ">
<path fill="none" stroke="#63b8ff" d="M344.59,-70.15C336.21,-69.05 327.65,-67.93 319.27,-66.83"/>
<polygon fill="#63b8ff" stroke="#63b8ff" points="344.32,-73.65 354.69,-71.48 345.23,-66.71 344.32,-73.65"/>
</a>
</g>
</g>
<!-- Node6 -->
<g id="Node000006" class="node">
<title>Node6</title>
<g id="a_Node000006"><a xlink:href="../../d6/dc5/classproto_1_1ProtocolEndpoint.html#af1e4aec725ab34fe336f3dc40bbae6aa" target="_top" xlink:title="Construct endpoint and install a permanent RX callback that snapshots the last frame&#39;s type code.">
<polygon fill="white" stroke="#666666" points="316.5,-30 185.5,-30 185.5,0 316.5,0 316.5,-30"/>
<text text-anchor="start" x="193.5" y="-18" font-family="Helvetica,sans-Serif" font-size="10.00">proto::ProtocolEndpoint</text>
<text text-anchor="middle" x="251" y="-7" font-family="Helvetica,sans-Serif" font-size="10.00">::ProtocolEndpoint</text>
</a>
</g>
</g>
<!-- Node1&#45;&gt;Node6 -->
<g id="edge6_Node000001_Node000006" class="edge">
<title>Node1&#45;&gt;Node6</title>
<g id="a_edge6_Node000001_Node000006"><a xlink:title=" ">
<path fill="none" stroke="#63b8ff" d="M381.31,-65.23C363.27,-57.28 339.97,-47.26 319,-39 311.41,-36.01 303.28,-32.97 295.4,-30.1"/>
<polygon fill="#63b8ff" stroke="#63b8ff" points="380.17,-68.55 390.73,-69.4 383.01,-62.15 380.17,-68.55"/>
</a>
</g>
</g>
<!-- Node2&#45;&gt;Node3 -->
<g id="edge2_Node000002_Node000003" class="edge">
<title>Node2&#45;&gt;Node3</title>
<g id="a_edge2_Node000002_Node000003"><a xlink:title=" ">
<path fill="none" stroke="#63b8ff" d="M186.72,-116.5C170.12,-120.57 152.25,-124.95 135.76,-128.99"/>
<polygon fill="#63b8ff" stroke="#63b8ff" points="187.99,-119.8 196.87,-114.02 186.32,-113 187.99,-119.8"/>
</a>
</g>
</g>
<!-- Node4 -->
<g id="Node000004" class="node">
<title>Node4</title>
<g id="a_Node000004"><a xlink:href="../../d6/dc5/classproto_1_1ProtocolEndpoint.html#adf613bd3ee363704002a992199be43f1" target="_top" xlink:title="Wire the endpoint to external RX and TX interfaces.">
<polygon fill="white" stroke="#666666" points="139,-111 8,-111 8,-81 139,-81 139,-111"/>
<text text-anchor="start" x="16" y="-99" font-family="Helvetica,sans-Serif" font-size="10.00">proto::ProtocolEndpoint</text>
<text text-anchor="middle" x="73.5" y="-88" font-family="Helvetica,sans-Serif" font-size="10.00">::set_interfaces</text>
</a>
</g>
</g>
<!-- Node2&#45;&gt;Node4 -->
<g id="edge3_Node000002_Node000004" class="edge">
<title>Node2&#45;&gt;Node4</title>
<g id="a_edge3_Node000002_Node000004"><a xlink:title=" ">
<path fill="none" stroke="#63b8ff" d="M186.43,-99.19C171.07,-98.75 154.64,-98.28 139.22,-97.84"/>
<polygon fill="#63b8ff" stroke="#63b8ff" points="186.77,-102.7 196.87,-99.49 186.97,-95.7 186.77,-102.7"/>
</a>
</g>
</g>
</g>
</svg>
</svg>

<style type='text/css'>
<![CDATA[
[data-mouse-over-selected='false'] { opacity: 0.7; }
[data-mouse-over-selected='true']  { opacity: 1.0; }
]]>
</style>
<script type="application/ecmascript"><![CDATA[
document.addEventListener('DOMContentLoaded', (event) => {
  highlightEdges();
  highlightAdjacentNodes();
});
]]></script>
</svg>
