<?xml version="1.0" encoding="UTF-8" standalone="no"?>
<!DOCTYPE svg PUBLIC "-//W3C//DTD SVG 1.1//EN"
 "http://www.w3.org/Graphics/SVG/1.1/DTD/svg11.dtd">
<!-- Generated by graphviz version 2.43.0 (0)
 -->
<!-- Title: CustomSpan::begin Pages: 1 -->
<svg width="466pt" height="206pt"
 viewBox="0.00 0.00 466.00 206.00" xmlns="http://www.w3.org/2000/svg" xmlns:xlink="http://www.w3.org/1999/xlink">
<g id="graph0" class="graph" transform="scale(1 1) rotate(0) translate(4 202)">
<title>CustomSpan::begin</title>
<!-- Node1 -->
<g id="Node000001" class="node">
<title>Node1</title>
<g id="a_Node000001"><a xlink:title=" ">
<polygon fill="#999999" stroke="#666666" points="458,-96.5 347,-96.5 347,-77.5 458,-77.5 458,-96.5"/>
<text text-anchor="middle" x="402.5" y="-84.5" font-family="Helvetica,sans-Serif" font-size="10.00">CustomSpan::begin</text>
</a>
</g>
</g>
<!-- Node2 -->
<g id="Node000002" class="node">
<title>Node2</title>
<g id="a_Node000002"><a xlink:href="../../d0/d29/classproto_1_1RxContainer.html#a62f66f4bc347105478aba5bffd14796f" target="_top" xlink:title="Feeds a chunk of bytes to the parser and advances internal state.">
<polygon fill="white" stroke="#666666" points="301,-174 193,-174 193,-144 301,-144 301,-174"/>
<text text-anchor="start" x="201" y="-162" font-family="Helvetica,sans-Serif" font-size="10.00">proto::RxContainer</text>
<text text-anchor="middle" x="247" y="-151" font-family="Helvetica,sans-Serif" font-size="10.00">::fill</text>
</a>
</g>
</g>
<!-- Node1&#45;&gt;Node2 -->
<g id="edge1_Node000001_Node000002" class="edge">
<title>Node1&#45;&gt;Node2</title>
<g id="a_edge1_Node000001_Node000002"><a xlink:title=" ">
<path fill="none" stroke="#63b8ff" d="M375.61,-101.83C357.74,-111.8 333.28,-124.9 311,-135 304.18,-138.09 296.83,-141.14 289.64,-143.97"/>
<polygon fill="#63b8ff" stroke="#63b8ff" points="377.8,-104.61 384.8,-96.66 374.37,-98.51 377.8,-104.61"/>
</a>
</g>
</g>
<!-- Node5 -->
<g id="Node000005" class="node">
<title>Node5</title>
<g id="a_Node000005"><a xlink:href="../../da/d22/structproto_1_1lacte_1_1InfoPacketType.html#a48de98880b0ac61f172c6212e61e0915" target="_top" xlink:title=" ">
<polygon fill="white" stroke="#666666" points="311,-126 183,-126 183,-96 311,-96 311,-126"/>
<text text-anchor="start" x="191" y="-114" font-family="Helvetica,sans-Serif" font-size="10.00">proto::lacte::InfoPacket</text>
<text text-anchor="middle" x="247" y="-103" font-family="Helvetica,sans-Serif" font-size="10.00">Type::InfoPacketType</text>
</a>
</g>
</g>
<!-- Node1&#45;&gt;Node5 -->
<g id="edge4_Node000001_Node000005" class="edge">
<title>Node1&#45;&gt;Node5</title>
<g id="a_edge4_Node000001_Node000005"><a xlink:title=" ">
<path fill="none" stroke="#63b8ff" d="M336.98,-97.09C328.39,-98.43 319.59,-99.81 311.02,-101.15"/>
<polygon fill="#63b8ff" stroke="#63b8ff" points="337.61,-100.53 346.95,-95.53 336.53,-93.62 337.61,-100.53"/>
</a>
</g>
</g>
<!-- Node6 -->
<g id="Node000006" class="node">
<title>Node6</title>
<g id="a_Node000006"><a xlink:href="../../de/d3d/structproto_1_1lacte_1_1McuUid.html#aef74a9b6ed04daf8b88229f901643d0d" target="_top" xlink:title=" ">
<polygon fill="white" stroke="#666666" points="304.5,-78 189.5,-78 189.5,-48 304.5,-48 304.5,-78"/>
<text text-anchor="start" x="197.5" y="-66" font-family="Helvetica,sans-Serif" font-size="10.00">proto::lacte::McuUid</text>
<text text-anchor="middle" x="247" y="-55" font-family="Helvetica,sans-Serif" font-size="10.00">::McuUid</text>
</a>
</g>
</g>
<!-- Node1&#45;&gt;Node6 -->
<g id="edge5_Node000001_Node000006" class="edge">
<title>Node1&#45;&gt;Node6</title>
<g id="a_edge5_Node000001_Node000006"><a xlink:title=" ">
<path fill="none" stroke="#63b8ff" d="M336.84,-76.89C326.17,-75.22 315.17,-73.5 304.71,-71.87"/>
<polygon fill="#63b8ff" stroke="#63b8ff" points="336.53,-80.38 346.95,-78.47 337.61,-73.47 336.53,-80.38"/>
</a>
</g>
</g>
<!-- Node7 -->
<g id="Node000007" class="node">
<title>Node7</title>
<g id="a_Node000007"><a xlink:href="../../d3/d81/namespaceproto_1_1lacte.html#a1ea4387b238442615d817d3f07b5160e" target="_top" xlink:title=" ">
<polygon fill="white" stroke="#666666" points="299.5,-30 194.5,-30 194.5,0 299.5,0 299.5,-30"/>
<text text-anchor="start" x="202.5" y="-18" font-family="Helvetica,sans-Serif" font-size="10.00">proto::lacte::parse</text>
<text text-anchor="middle" x="247" y="-7" font-family="Helvetica,sans-Serif" font-size="10.00">_hex_bytes_fill</text>
</a>
</g>
</g>
<!-- Node1&#45;&gt;Node7 -->
<g id="edge6_Node000001_Node000007" class="edge">
<title>Node1&#45;&gt;Node7</title>
<g id="a_edge6_Node000001_Node000007"><a xlink:title=" ">
<path fill="none" stroke="#63b8ff" d="M375.61,-72.17C357.74,-62.2 333.28,-49.1 311,-39 304.18,-35.91 296.83,-32.86 289.64,-30.03"/>
<polygon fill="#63b8ff" stroke="#63b8ff" points="374.37,-75.49 384.8,-77.34 377.8,-69.39 374.37,-75.49"/>
</a>
</g>
</g>
<!-- Node3 -->
<g id="Node000003" class="node">
<title>Node3</title>
<g id="a_Node000003"><a xlink:href="../../d4/d66/classproto_1_1exoAtlant_1_1ExoAtlantProtocol__.html#ab292d3fc1828c447d3e9d654aff5fcda" target="_top" xlink:title="Разбор входящего блока данных">
<polygon fill="white" stroke="#666666" points="147,-198 0,-198 0,-168 147,-168 147,-198"/>
<text text-anchor="start" x="8" y="-186" font-family="Helvetica,sans-Serif" font-size="10.00">proto::exoAtlant::ExoAtlant</text>
<text text-anchor="middle" x="73.5" y="-175" font-family="Helvetica,sans-Serif" font-size="10.00">Protocol_::parse</text>
</a>
</g>
</g>
<!-- Node2&#45;&gt;Node3 -->
<g id="edge2_Node000002_Node000003" class="edge">
<title>Node2&#45;&gt;Node3</title>
<g id="a_edge2_Node000002_Node000003"><a xlink:title=" ">
<path fill="none" stroke="#63b8ff" d="M182.65,-167.86C171.05,-169.49 158.86,-171.2 147.01,-172.85"/>
<polygon fill="#63b8ff" stroke="#63b8ff" points="183.26,-171.31 192.68,-166.46 182.29,-164.38 183.26,-171.31"/>
</a>
</g>
</g>
<!-- Node4 -->
<g id="Node000004" class="node">
<title>Node4</title>
<g id="a_Node000004"><a xlink:href="../../d6/dc5/classproto_1_1ProtocolEndpoint.html#adf613bd3ee363704002a992199be43f1" target="_top" xlink:title="Wire the endpoint to external RX and TX interfaces.">
<polygon fill="white" stroke="#666666" points="139,-150 8,-150 8,-120 139,-120 139,-150"/>
<text text-anchor="start" x="16" y="-138" font-family="Helvetica,sans-Serif" font-size="10.00">proto::ProtocolEndpoint</text>
<text text-anchor="middle" x="73.5" y="-127" font-family="Helvetica,sans-Serif" font-size="10.00">::set_interfaces</text>
</a>
</g>
</g>
<!-- Node2&#45;&gt;Node4 -->
<g id="edge3_Node000002_Node000004" class="edge">
<title>Node2&#45;&gt;Node4</title>
<g id="a_edge3_Node000002_Node000004"><a xlink:title=" ">
<path fill="none" stroke="#63b8ff" d="M182.56,-150.12C168.43,-148.15 153.44,-146.05 139.25,-144.06"/>
<polygon fill="#63b8ff" stroke="#63b8ff" points="182.29,-153.62 192.68,-151.54 183.26,-146.69 182.29,-153.62"/>
</a>
</g>
</g>
<!-- Node8 -->
<g id="Node000008" class="node">
<title>Node8</title>
<g id="a_Node000008"><a xlink:href="../../de/d3d/structproto_1_1lacte_1_1McuUid.html#a5cfbdeb412b3611c734e66dfa22dd3be" target="_top" xlink:title=" ">
<polygon fill="white" stroke="#666666" points="131,-30 16,-30 16,0 131,0 131,-30"/>
<text text-anchor="start" x="24" y="-18" font-family="Helvetica,sans-Serif" font-size="10.00">proto::lacte::McuUid</text>
<text text-anchor="middle" x="73.5" y="-7" font-family="Helvetica,sans-Serif" font-size="10.00">::McuUid</text>
</a>
</g>
</g>
<!-- Node7&#45;&gt;Node8 -->
<g id="edge7_Node000007_Node000008" class="edge">
<title>Node7&#45;&gt;Node8</title>
<g id="a_edge7_Node000007_Node000008"><a xlink:title=" ">
<path fill="none" stroke="#63b8ff" d="M184.07,-15C166.75,-15 148.02,-15 131.02,-15"/>
<polygon fill="#63b8ff" stroke="#63b8ff" points="184.08,-18.5 194.08,-15 184.08,-11.5 184.08,-18.5"/>
</a>
</g>
</g>
</g>
</svg>
