<?xml version="1.0" encoding="UTF-8" standalone="no"?>
<!DOCTYPE svg PUBLIC "-//W3C//DTD SVG 1.1//EN"
 "http://www.w3.org/Graphics/SVG/1.1/DTD/svg11.dtd">
<!-- Generated by graphviz version 2.43.0 (0)
 -->
<!-- Title: CustomSpan::size Pages: 1 -->
<!--zoomable 662 -->

<svg id="main" version="1.1" xmlns="http://www.w3.org/2000/svg" xmlns:xlink="http://www.w3.org/1999/xlink" xml:space="preserve" onload="init(evt)">
<style type="text/css"><![CDATA[
.node, .edge {opacity: 0.7;}
.node.selected, .edge.selected {opacity: 1;}
.edge:hover path { stroke: red; }
.edge:hover polygon { stroke: red; fill: red; }
]]></style>

<defs>
  <circle id="rim" cx="0" cy="0" r="7"/>
  <circle id="rim2" cx="0" cy="0" r="3.5"/>
  <g id="zoomPlus">
    <use xlink:href="#rim" fill="#404040"><set attributeName="fill" to="#808080" begin="zoomplus.mouseover" end="zoomplus.mouseout"/></use>
    <path d="M-4,0h8M0,-4v8" fill="none" stroke="white" stroke-width="1.5" pointer-events="none"/>
  </g>
  <g id="zoomMin">
    <use xlink:href="#rim" fill="#404040"><set attributeName="fill" to="#808080" begin="zoomminus.mouseover" end="zoomminus.mouseout"/></use>
    <path d="M-4,0h8" fill="none" stroke="white" stroke-width="1.5" pointer-events="none"/>
  </g>
  <g id="arrowUp" transform="translate(30 24)">
    <use xlink:href="#rim"/>
    <path pointer-events="none" fill="none" stroke="white" stroke-width="1.5" d="M0,-3.0v7 M-2.5,-0.5L0,-3.0L2.5,-0.5"/>
  </g>
  <g id="arrowRight" transform="rotate(90) translate(36 -43)">
    <use xlink:href="#rim"/>
    <path pointer-events="none" fill="none" stroke="white" stroke-width="1.5" d="M0,-3.0v7 M-2.5,-0.5L0,-3.0L2.5,-0.5"/>
  </g>
  <g id="arrowDown" transform="rotate(180) translate(-30 -48)">
    <use xlink:href="#rim"/>
    <path pointer-events="none" fill="none" stroke="white" stroke-width="1.5" d="M0,-3.0v7 M-2.5,-0.5L0,-3.0L2.5,-0.5"/>
  </g>
  <g id="arrowLeft" transform="rotate(270) translate(-36 17)">
    <use xlink:href="#rim"/>
    <path pointer-events="none" fill="none" stroke="white" stroke-width="1.5" d="M0,-3.0v7 M-2.5,-0.5L0,-3.0L2.5,-0.5"/>
  </g>
  <g id="resetDef">
    <use xlink:href="#rim2" fill="#404040"><set attributeName="fill" to="#808080" begin="reset.mouseover" end="reset.mouseout"/></use>
  </g>
</defs>
<script type="application/ecmascript">
var viewWidth = 483;
var viewHeight = 662;
var sectionId = 'dynsection-5';
</script>
<script type="application/ecmascript" xlink:href="../../svg.min.js"/>
<svg id="graph" class="graph">
<g id="viewport">
<title>CustomSpan::size</title>
<!-- Node1 -->
<g id="Node000001" class="node">
<title>Node1</title>
<g id="a_Node000001"><a xlink:title=" ">
<polygon fill="#999999" stroke="#666666" points="475,-408.5 371,-408.5 371,-389.5 475,-389.5 475,-408.5"/>
<text text-anchor="middle" x="423" y="-396.5" font-family="Helvetica,sans-Serif" font-size="10.00">CustomSpan::size</text>
</a>
</g>
</g>
<!-- Node2 -->
<g id="Node000002" class="node">
<title>Node2</title>
<g id="a_Node000002"><a xlink:href="../../db/d30/classproto_1_1lacte_1_1LacteBoardProtocol.html#adb308fed1049363915a9e6ba22fce84a" target="_top" xlink:title=" ">
<polygon fill="white" stroke="#666666" points="328,-654 195,-654 195,-624 328,-624 328,-654"/>
<text text-anchor="start" x="203" y="-642" font-family="Helvetica,sans-Serif" font-size="10.00">proto::lacte::LacteBoard</text>
<text text-anchor="middle" x="261.5" y="-631" font-family="Helvetica,sans-Serif" font-size="10.00">Protocol::answer</text>
</a>
</g>
</g>
<!-- Node1&#45;&gt;Node2 -->
<g id="edge1_Node000001_Node000002" class="edge">
<title>Node1&#45;&gt;Node2</title>
<g id="a_edge1_Node000001_Node000002"><a xlink:title=" ">
<path fill="none" stroke="#63b8ff" d="M419.6,-418.89C413.46,-461.1 393.32,-560.25 335,-615 331.33,-618.45 327.15,-621.4 322.69,-623.93"/>
<polygon fill="#63b8ff" stroke="#63b8ff" points="423.09,-419.17 420.95,-408.8 416.16,-418.24 423.09,-419.17"/>
</a>
</g>
</g>
<!-- Node3 -->
<g id="Node000003" class="node">
<title>Node3</title>
<g id="a_Node000003"><a xlink:href="../../d3/d8e/classproto_1_1exoAtlant_1_1custom__crc.html#abdb60ccb2a8458235949a0118b263bd7" target="_top" xlink:title=" ">
<polygon fill="white" stroke="#666666" points="330,-606 193,-606 193,-576 330,-576 330,-606"/>
<text text-anchor="start" x="201" y="-594" font-family="Helvetica,sans-Serif" font-size="10.00">proto::exoAtlant::custom</text>
<text text-anchor="middle" x="261.5" y="-583" font-family="Helvetica,sans-Serif" font-size="10.00">_crc::calc</text>
</a>
</g>
</g>
<!-- Node1&#45;&gt;Node3 -->
<g id="edge2_Node000001_Node000003" class="edge">
<title>Node1&#45;&gt;Node3</title>
<g id="a_edge2_Node000001_Node000003"><a xlink:title=" ">
<path fill="none" stroke="#63b8ff" d="M417.16,-418.45C407.51,-453.27 382.57,-526.41 335,-567 330.97,-570.44 326.42,-573.39 321.63,-575.93"/>
<polygon fill="#63b8ff" stroke="#63b8ff" points="420.6,-419.14 419.77,-408.58 413.83,-417.35 420.6,-419.14"/>
</a>
</g>
</g>
<!-- Node5 -->
<g id="Node000005" class="node">
<title>Node5</title>
<g id="a_Node000005"><a xlink:href="../../d0/d29/classproto_1_1RxContainer.html#a13af162783447e92a0e44e240a775deb" target="_top" xlink:title="Reads bytes for a specific field, validates const values and copies into the frame buffer.">
<polygon fill="white" stroke="#666666" points="315.5,-558 207.5,-558 207.5,-528 315.5,-528 315.5,-558"/>
<text text-anchor="start" x="215.5" y="-546" font-family="Helvetica,sans-Serif" font-size="10.00">proto::RxContainer</text>
<text text-anchor="middle" x="261.5" y="-535" font-family="Helvetica,sans-Serif" font-size="10.00">::fill_fields</text>
</a>
</g>
</g>
<!-- Node1&#45;&gt;Node5 -->
<g id="edge4_Node000001_Node000005" class="edge">
<title>Node1&#45;&gt;Node5</title>
<g id="a_edge4_Node000001_Node000005"><a xlink:title=" ">
<path fill="none" stroke="#63b8ff" d="M413.06,-417.95C399.69,-444.33 372.04,-491.91 335,-519 329.11,-523.31 322.41,-526.87 315.51,-529.81"/>
<polygon fill="#63b8ff" stroke="#63b8ff" points="416.35,-419.19 417.62,-408.67 410.07,-416.1 416.35,-419.19"/>
</a>
</g>
</g>
<!-- Node6 -->
<g id="Node000006" class="node">
<title>Node6</title>
<g id="a_Node000006"><a xlink:href="../../de/d3d/structproto_1_1lacte_1_1McuUid.html#aef74a9b6ed04daf8b88229f901643d0d" target="_top" xlink:title=" ">
<polygon fill="white" stroke="#666666" points="319,-510 204,-510 204,-480 319,-480 319,-510"/>
<text text-anchor="start" x="212" y="-498" font-family="Helvetica,sans-Serif" font-size="10.00">proto::lacte::McuUid</text>
<text text-anchor="middle" x="261.5" y="-487" font-family="Helvetica,sans-Serif" font-size="10.00">::McuUid</text>
</a>
</g>
</g>
<!-- Node1&#45;&gt;Node6 -->
<g id="edge5_Node000001_Node000006" class="edge">
<title>Node1&#45;&gt;Node6</title>
<g id="a_edge5_Node000001_Node000006"><a xlink:title=" ">
<path fill="none" stroke="#63b8ff" d="M405.47,-415.94C388.93,-432.05 362.12,-455.99 335,-471 328.97,-474.34 322.39,-477.31 315.75,-479.93"/>
<polygon fill="#63b8ff" stroke="#63b8ff" points="408.09,-418.27 412.72,-408.74 403.16,-413.31 408.09,-418.27"/>
</a>
</g>
</g>
<!-- Node7 -->
<g id="Node000007" class="node">
<title>Node7</title>
<g id="a_Node000007"><a xlink:href="../../df/d26/structproto_1_1exoAtlant_1_1pkt__desc__t.html#ac1a6790d42e7c52591638dc1c6a34b34" target="_top" xlink:title=" ">
<polygon fill="white" stroke="#666666" points="320,-462 203,-462 203,-432 320,-432 320,-462"/>
<text text-anchor="start" x="211" y="-450" font-family="Helvetica,sans-Serif" font-size="10.00">proto::exoAtlant::pkt</text>
<text text-anchor="middle" x="261.5" y="-439" font-family="Helvetica,sans-Serif" font-size="10.00">_desc_t::operator==</text>
</a>
</g>
</g>
<!-- Node1&#45;&gt;Node7 -->
<g id="edge6_Node000001_Node000007" class="edge">
<title>Node1&#45;&gt;Node7</title>
<g id="a_edge6_Node000001_Node000007"><a xlink:title=" ">
<path fill="none" stroke="#63b8ff" d="M380.32,-411.54C359.57,-417.79 334.34,-425.38 312.55,-431.94"/>
<polygon fill="#63b8ff" stroke="#63b8ff" points="381.54,-414.83 390.11,-408.6 379.52,-408.13 381.54,-414.83"/>
</a>
</g>
</g>
<!-- Node8 -->
<g id="Node000008" class="node">
<title>Node8</title>
<g id="a_Node000008"><a xlink:href="../../d4/d66/classproto_1_1exoAtlant_1_1ExoAtlantProtocol__.html#ab292d3fc1828c447d3e9d654aff5fcda" target="_top" xlink:title="Разбор входящего блока данных">
<polygon fill="white" stroke="#666666" points="335,-414 188,-414 188,-384 335,-384 335,-414"/>
<text text-anchor="start" x="196" y="-402" font-family="Helvetica,sans-Serif" font-size="10.00">proto::exoAtlant::ExoAtlant</text>
<text text-anchor="middle" x="261.5" y="-391" font-family="Helvetica,sans-Serif" font-size="10.00">Protocol_::parse</text>
</a>
</g>
</g>
<!-- Node1&#45;&gt;Node8 -->
<g id="edge7_Node000001_Node000008" class="edge">
<title>Node1&#45;&gt;Node8</title>
<g id="a_edge7_Node000001_Node000008"><a xlink:title=" ">
<path fill="none" stroke="#63b8ff" d="M360.4,-399C352.16,-399 343.65,-399 335.24,-399"/>
<polygon fill="#63b8ff" stroke="#63b8ff" points="360.66,-402.5 370.66,-399 360.66,-395.5 360.66,-402.5"/>
</a>
</g>
</g>
<!-- Node9 -->
<g id="Node000009" class="node">
<title>Node9</title>
<g id="a_Node000009"><a xlink:href="../../d3/d81/namespaceproto_1_1lacte.html#a1ea4387b238442615d817d3f07b5160e" target="_top" xlink:title=" ">
<polygon fill="white" stroke="#666666" points="314,-366 209,-366 209,-336 314,-336 314,-366"/>
<text text-anchor="start" x="217" y="-354" font-family="Helvetica,sans-Serif" font-size="10.00">proto::lacte::parse</text>
<text text-anchor="middle" x="261.5" y="-343" font-family="Helvetica,sans-Serif" font-size="10.00">_hex_bytes_fill</text>
</a>
</g>
</g>
<!-- Node1&#45;&gt;Node9 -->
<g id="edge8_Node000001_Node000009" class="edge">
<title>Node1&#45;&gt;Node9</title>
<g id="a_edge8_Node000001_Node000009"><a xlink:title=" ">
<path fill="none" stroke="#63b8ff" d="M380.32,-386.46C359.57,-380.21 334.34,-372.62 312.55,-366.06"/>
<polygon fill="#63b8ff" stroke="#63b8ff" points="379.52,-389.87 390.11,-389.4 381.54,-383.17 379.52,-389.87"/>
</a>
</g>
</g>
<!-- Node11 -->
<g id="Node000011" class="node">
<title>Node11</title>
<g id="a_Node000011"><a xlink:href="../../d3/d81/namespaceproto_1_1lacte.html#a0d7742c2bb9b4857128ae945a05923b9" target="_top" xlink:title=" ">
<polygon fill="white" stroke="#666666" points="314,-318 209,-318 209,-288 314,-288 314,-318"/>
<text text-anchor="start" x="217" y="-306" font-family="Helvetica,sans-Serif" font-size="10.00">proto::lacte::parse</text>
<text text-anchor="middle" x="261.5" y="-295" font-family="Helvetica,sans-Serif" font-size="10.00">_uint_sv</text>
</a>
</g>
</g>
<!-- Node1&#45;&gt;Node11 -->
<g id="edge10_Node000001_Node000011" class="edge">
<title>Node1&#45;&gt;Node11</title>
<g id="a_edge10_Node000001_Node000011"><a xlink:title=" ">
<path fill="none" stroke="#63b8ff" d="M405.47,-382.06C388.93,-365.95 362.12,-342.01 335,-327 328.5,-323.4 321.38,-320.23 314.22,-317.47"/>
<polygon fill="#63b8ff" stroke="#63b8ff" points="403.16,-384.69 412.72,-389.26 408.09,-379.73 403.16,-384.69"/>
</a>
</g>
</g>
<!-- Node23 -->
<g id="Node000023" class="node">
<title>Node23</title>
<g id="a_Node000023"><a xlink:href="../../df/dc6/structproto_1_1lacte_1_1RFIDNumberType.html#a1fb030763f3659ee450e3990dda6a219" target="_top" xlink:title=" ">
<polygon fill="white" stroke="#666666" points="331.5,-270 191.5,-270 191.5,-240 331.5,-240 331.5,-270"/>
<text text-anchor="start" x="199.5" y="-258" font-family="Helvetica,sans-Serif" font-size="10.00">proto::lacte::RFIDNumber</text>
<text text-anchor="middle" x="261.5" y="-247" font-family="Helvetica,sans-Serif" font-size="10.00">Type::RFIDNumberType</text>
</a>
</g>
</g>
<!-- Node1&#45;&gt;Node23 -->
<g id="edge22_Node000001_Node000023" class="edge">
<title>Node1&#45;&gt;Node23</title>
<g id="a_edge22_Node000001_Node000023"><a xlink:title=" ">
<path fill="none" stroke="#63b8ff" d="M413.06,-380.05C399.69,-353.67 372.04,-306.09 335,-279 330.29,-275.56 325.06,-272.59 319.62,-270.03"/>
<polygon fill="#63b8ff" stroke="#63b8ff" points="410.07,-381.9 417.62,-389.33 416.35,-378.81 410.07,-381.9"/>
</a>
</g>
</g>
<!-- Node24 -->
<g id="Node000024" class="node">
<title>Node24</title>
<g id="a_Node000024"><a xlink:href="../../d4/d66/classproto_1_1exoAtlant_1_1ExoAtlantProtocol__.html#ac9dd8408999d03d57dadb02ff647d93a" target="_top" xlink:title="Сериализация исходящего блока данных">
<polygon fill="white" stroke="#666666" points="335,-222 188,-222 188,-192 335,-192 335,-222"/>
<text text-anchor="start" x="196" y="-210" font-family="Helvetica,sans-Serif" font-size="10.00">proto::exoAtlant::ExoAtlant</text>
<text text-anchor="middle" x="261.5" y="-199" font-family="Helvetica,sans-Serif" font-size="10.00">Protocol_::serialize</text>
</a>
</g>
</g>
<!-- Node1&#45;&gt;Node24 -->
<g id="edge23_Node000001_Node000024" class="edge">
<title>Node1&#45;&gt;Node24</title>
<g id="a_edge23_Node000001_Node000024"><a xlink:title=" ">
<path fill="none" stroke="#63b8ff" d="M417.16,-379.55C407.51,-344.73 382.57,-271.59 335,-231 330.97,-227.56 326.42,-224.61 321.63,-222.07"/>
<polygon fill="#63b8ff" stroke="#63b8ff" points="413.83,-380.65 419.77,-389.42 420.6,-378.86 413.83,-380.65"/>
</a>
</g>
</g>
<!-- Node25 -->
<g id="Node000025" class="node">
<title>Node25</title>
<g id="a_Node000025"><a xlink:href="../../d3/d67/classproto_1_1lacte_1_1VirtualBoard.html#ac7d2f1bb5331ad701afe7589a718c6ac" target="_top" xlink:title=" ">
<polygon fill="white" stroke="#666666" points="331,-174 192,-174 192,-144 331,-144 331,-174"/>
<text text-anchor="start" x="200" y="-162" font-family="Helvetica,sans-Serif" font-size="10.00">proto::lacte::VirtualBoard</text>
<text text-anchor="middle" x="261.5" y="-151" font-family="Helvetica,sans-Serif" font-size="10.00">::VirtualBoard</text>
</a>
</g>
</g>
<!-- Node1&#45;&gt;Node25 -->
<g id="edge24_Node000001_Node000025" class="edge">
<title>Node1&#45;&gt;Node25</title>
<g id="a_edge24_Node000001_Node000025"><a xlink:title=" ">
<path fill="none" stroke="#63b8ff" d="M419.6,-379.11C413.46,-336.9 393.32,-237.75 335,-183 331.33,-179.55 327.15,-176.6 322.69,-174.07"/>
<polygon fill="#63b8ff" stroke="#63b8ff" points="416.16,-379.76 420.95,-389.2 423.09,-378.83 416.16,-379.76"/>
</a>
</g>
</g>
<!-- Node4 -->
<g id="Node000004" class="node">
<title>Node4</title>
<g id="a_Node000004"><a xlink:href="../../d3/d8e/classproto_1_1exoAtlant_1_1custom__crc.html#a6053931165b4edbaf85ba5eee3839076" target="_top" xlink:title=" ">
<polygon fill="white" stroke="#666666" points="144.5,-606 7.5,-606 7.5,-576 144.5,-576 144.5,-606"/>
<text text-anchor="start" x="15.5" y="-594" font-family="Helvetica,sans-Serif" font-size="10.00">proto::exoAtlant::custom</text>
<text text-anchor="middle" x="76" y="-583" font-family="Helvetica,sans-Serif" font-size="10.00">_crc::append</text>
</a>
</g>
</g>
<!-- Node3&#45;&gt;Node4 -->
<g id="edge3_Node000003_Node000004" class="edge">
<title>Node3&#45;&gt;Node4</title>
<g id="a_edge3_Node000003_Node000004"><a xlink:title=" ">
<path fill="none" stroke="#63b8ff" d="M182.88,-591C170.19,-591 157.13,-591 144.71,-591"/>
<polygon fill="#63b8ff" stroke="#63b8ff" points="182.95,-594.5 192.95,-591 182.95,-587.5 182.95,-594.5"/>
</a>
</g>
</g>
<!-- Node10 -->
<g id="Node000010" class="node">
<title>Node10</title>
<g id="a_Node000010"><a xlink:href="../../de/d3d/structproto_1_1lacte_1_1McuUid.html#a5cfbdeb412b3611c734e66dfa22dd3be" target="_top" xlink:title=" ">
<polygon fill="white" stroke="#666666" points="133.5,-558 18.5,-558 18.5,-528 133.5,-528 133.5,-558"/>
<text text-anchor="start" x="26.5" y="-546" font-family="Helvetica,sans-Serif" font-size="10.00">proto::lacte::McuUid</text>
<text text-anchor="middle" x="76" y="-535" font-family="Helvetica,sans-Serif" font-size="10.00">::McuUid</text>
</a>
</g>
</g>
<!-- Node9&#45;&gt;Node10 -->
<g id="edge9_Node000009_Node000010" class="edge">
<title>Node9&#45;&gt;Node10</title>
<g id="a_edge9_Node000009_Node000010"><a xlink:title=" ">
<path fill="none" stroke="#63b8ff" d="M199.57,-365.66C195.31,-368.28 191.37,-371.36 188,-375 143.13,-423.36 197.11,-470.87 152,-519 146.86,-524.49 140.46,-528.72 133.59,-531.99"/>
<polygon fill="#63b8ff" stroke="#63b8ff" points="201.44,-368.63 208.7,-360.91 198.21,-362.42 201.44,-368.63"/>
</a>
</g>
</g>
<!-- Node12 -->
<g id="Node000012" class="node">
<title>Node12</title>
<g id="a_Node000012"><a xlink:href="../../da/d99/structproto_1_1lacte_1_1ActivationTime.html#ade9b8772ddc9ad463c280ac3f751ed85" target="_top" xlink:title=" ">
<polygon fill="white" stroke="#666666" points="140,-510 12,-510 12,-480 140,-480 140,-510"/>
<text text-anchor="start" x="20" y="-498" font-family="Helvetica,sans-Serif" font-size="10.00">proto::lacte::Activation</text>
<text text-anchor="middle" x="76" y="-487" font-family="Helvetica,sans-Serif" font-size="10.00">Time::ActivationTime</text>
</a>
</g>
</g>
<!-- Node11&#45;&gt;Node12 -->
<g id="edge11_Node000011_Node000012" class="edge">
<title>Node11&#45;&gt;Node12</title>
<g id="a_edge11_Node000011_Node000012"><a xlink:title=" ">
<path fill="none" stroke="#63b8ff" d="M199.57,-317.66C195.31,-320.28 191.37,-323.36 188,-327 143.13,-375.36 197.11,-422.87 152,-471 148.54,-474.69 144.51,-477.82 140.16,-480.46"/>
<polygon fill="#63b8ff" stroke="#63b8ff" points="201.44,-320.63 208.7,-312.91 198.21,-314.42 201.44,-320.63"/>
</a>
</g>
</g>
<!-- Node13 -->
<g id="Node000013" class="node">
<title>Node13</title>
<g id="a_Node000013"><a xlink:href="../../d9/d59/structproto_1_1lacte_1_1DrinkCounter.html#a25a0408b9029224deae1f35cbcb4c97e" target="_top" xlink:title=" ">
<polygon fill="white" stroke="#666666" points="147.5,-462 4.5,-462 4.5,-432 147.5,-432 147.5,-462"/>
<text text-anchor="start" x="12.5" y="-450" font-family="Helvetica,sans-Serif" font-size="10.00">proto::lacte::DrinkCounter</text>
<text text-anchor="middle" x="76" y="-439" font-family="Helvetica,sans-Serif" font-size="10.00">::DrinkCounter</text>
</a>
</g>
</g>
<!-- Node11&#45;&gt;Node13 -->
<g id="edge12_Node000011_Node000013" class="edge">
<title>Node11&#45;&gt;Node13</title>
<g id="a_edge12_Node000011_Node000013"><a xlink:title=" ">
<path fill="none" stroke="#63b8ff" d="M199.8,-318.21C195.52,-320.71 191.52,-323.62 188,-327 155.15,-358.59 185,-391.58 152,-423 148.44,-426.39 144.39,-429.31 140.07,-431.81"/>
<polygon fill="#63b8ff" stroke="#63b8ff" points="201.54,-321.26 208.91,-313.64 198.4,-315 201.54,-321.26"/>
</a>
</g>
</g>
<!-- Node14 -->
<g id="Node000014" class="node">
<title>Node14</title>
<g id="a_Node000014"><a xlink:href="../../d3/dec/structproto_1_1lacte_1_1LacteId.html#a2152a76aeb6e567ded2cf96dfb05a669" target="_top" xlink:title=" ">
<polygon fill="white" stroke="#666666" points="132.5,-414 19.5,-414 19.5,-384 132.5,-384 132.5,-414"/>
<text text-anchor="start" x="27.5" y="-402" font-family="Helvetica,sans-Serif" font-size="10.00">proto::lacte::LacteId</text>
<text text-anchor="middle" x="76" y="-391" font-family="Helvetica,sans-Serif" font-size="10.00">::LacteId</text>
</a>
</g>
</g>
<!-- Node11&#45;&gt;Node14 -->
<g id="edge13_Node000011_Node000014" class="edge">
<title>Node11&#45;&gt;Node14</title>
<g id="a_edge13_Node000011_Node000014"><a xlink:title=" ">
<path fill="none" stroke="#63b8ff" d="M199.58,-319.99C195.52,-322.08 191.61,-324.4 188,-327 166.35,-342.57 173.73,-359.54 152,-375 146.1,-379.2 139.42,-382.69 132.55,-385.59"/>
<polygon fill="#63b8ff" stroke="#63b8ff" points="201.06,-323.16 208.68,-315.8 198.13,-316.81 201.06,-323.16"/>
</a>
</g>
</g>
<!-- Node15 -->
<g id="Node000015" class="node">
<title>Node15</title>
<g id="a_Node000015"><a xlink:href="../../db/daa/structproto_1_1lacte_1_1LacteSn.html#abf986bb0d8f5d47093b328ceeddcbdd4" target="_top" xlink:title=" ">
<polygon fill="white" stroke="#666666" points="134,-366 18,-366 18,-336 134,-336 134,-366"/>
<text text-anchor="start" x="26" y="-354" font-family="Helvetica,sans-Serif" font-size="10.00">proto::lacte::LacteSn</text>
<text text-anchor="middle" x="76" y="-343" font-family="Helvetica,sans-Serif" font-size="10.00">::LacteSn</text>
</a>
</g>
</g>
<!-- Node11&#45;&gt;Node15 -->
<g id="edge14_Node000011_Node000015" class="edge">
<title>Node11&#45;&gt;Node15</title>
<g id="a_edge14_Node000011_Node000015"><a xlink:title=" ">
<path fill="none" stroke="#63b8ff" d="M199.11,-319.06C178.09,-324.56 154.67,-330.68 134.01,-336.09"/>
<polygon fill="#63b8ff" stroke="#63b8ff" points="200.11,-322.42 208.9,-316.5 198.34,-315.64 200.11,-322.42"/>
</a>
</g>
</g>
<!-- Node16 -->
<g id="Node000016" class="node">
<title>Node16</title>
<g id="a_Node000016"><a xlink:href="../../d7/d46/structproto_1_1lacte_1_1MachineSn.html#a8cbef160ab13397b51bd9500b504b114" target="_top" xlink:title=" ">
<polygon fill="white" stroke="#666666" points="141.5,-318 10.5,-318 10.5,-288 141.5,-288 141.5,-318"/>
<text text-anchor="start" x="18.5" y="-306" font-family="Helvetica,sans-Serif" font-size="10.00">proto::lacte::MachineSn</text>
<text text-anchor="middle" x="76" y="-295" font-family="Helvetica,sans-Serif" font-size="10.00">::MachineSn</text>
</a>
</g>
</g>
<!-- Node11&#45;&gt;Node16 -->
<g id="edge15_Node000011_Node000016" class="edge">
<title>Node11&#45;&gt;Node16</title>
<g id="a_edge15_Node000011_Node000016"><a xlink:title=" ">
<path fill="none" stroke="#63b8ff" d="M198.88,-303C180.46,-303 160.23,-303 141.63,-303"/>
<polygon fill="#63b8ff" stroke="#63b8ff" points="198.9,-306.5 208.9,-303 198.9,-299.5 198.9,-306.5"/>
</a>
</g>
</g>
<!-- Node17 -->
<g id="Node000017" class="node">
<title>Node17</title>
<g id="a_Node000017"><a xlink:href="../../d6/dbf/structproto_1_1lacte_1_1MagicWord.html#afc7d90ff56595bf4e86246220adc87be" target="_top" xlink:title=" ">
<polygon fill="white" stroke="#666666" points="142,-270 10,-270 10,-240 142,-240 142,-270"/>
<text text-anchor="start" x="18" y="-258" font-family="Helvetica,sans-Serif" font-size="10.00">proto::lacte::MagicWord</text>
<text text-anchor="middle" x="76" y="-247" font-family="Helvetica,sans-Serif" font-size="10.00">::MagicWord</text>
</a>
</g>
</g>
<!-- Node11&#45;&gt;Node17 -->
<g id="edge16_Node000011_Node000017" class="edge">
<title>Node11&#45;&gt;Node17</title>
<g id="a_edge16_Node000011_Node000017"><a xlink:title=" ">
<path fill="none" stroke="#63b8ff" d="M199.2,-286.97C178.38,-281.52 155.19,-275.45 134.67,-270.08"/>
<polygon fill="#63b8ff" stroke="#63b8ff" points="198.34,-290.36 208.9,-289.5 200.11,-283.58 198.34,-290.36"/>
</a>
</g>
</g>
<!-- Node18 -->
<g id="Node000018" class="node">
<title>Node18</title>
<g id="a_Node000018"><a xlink:href="../../dc/d74/structproto_1_1lacte_1_1ProdDate.html#a5aa15ecf2a28bb424d87457071d33dca" target="_top" xlink:title=" ">
<polygon fill="white" stroke="#666666" points="137.5,-222 14.5,-222 14.5,-192 137.5,-192 137.5,-222"/>
<text text-anchor="start" x="22.5" y="-210" font-family="Helvetica,sans-Serif" font-size="10.00">proto::lacte::ProdDate</text>
<text text-anchor="middle" x="76" y="-199" font-family="Helvetica,sans-Serif" font-size="10.00">::ProdDate</text>
</a>
</g>
</g>
<!-- Node11&#45;&gt;Node18 -->
<g id="edge17_Node000011_Node000018" class="edge">
<title>Node11&#45;&gt;Node18</title>
<g id="a_edge17_Node000011_Node000018"><a xlink:title=" ">
<path fill="none" stroke="#63b8ff" d="M199.58,-286.01C195.52,-283.92 191.61,-281.6 188,-279 166.35,-263.43 173.73,-246.46 152,-231 147.21,-227.59 141.91,-224.65 136.42,-222.12"/>
<polygon fill="#63b8ff" stroke="#63b8ff" points="198.13,-289.19 208.68,-290.2 201.06,-282.84 198.13,-289.19"/>
</a>
</g>
</g>
<!-- Node19 -->
<g id="Node000019" class="node">
<title>Node19</title>
<g id="a_Node000019"><a xlink:href="../../d1/df0/structproto_1_1lacte_1_1ProductShelfLife.html#ae16e9a3a1e685ce474fd870090b4f1b5" target="_top" xlink:title=" ">
<polygon fill="white" stroke="#666666" points="146,-174 6,-174 6,-144 146,-144 146,-174"/>
<text text-anchor="start" x="14" y="-162" font-family="Helvetica,sans-Serif" font-size="10.00">proto::lacte::ProductShelf</text>
<text text-anchor="middle" x="76" y="-151" font-family="Helvetica,sans-Serif" font-size="10.00">Life::ProductShelfLife</text>
</a>
</g>
</g>
<!-- Node11&#45;&gt;Node19 -->
<g id="edge18_Node000011_Node000019" class="edge">
<title>Node11&#45;&gt;Node19</title>
<g id="a_edge18_Node000011_Node000019"><a xlink:title=" ">
<path fill="none" stroke="#63b8ff" d="M199.8,-287.79C195.52,-285.29 191.52,-282.38 188,-279 155.15,-247.41 185,-214.42 152,-183 148.44,-179.61 144.39,-176.69 140.07,-174.19"/>
<polygon fill="#63b8ff" stroke="#63b8ff" points="198.4,-291 208.91,-292.36 201.54,-284.74 198.4,-291"/>
</a>
</g>
</g>
<!-- Node20 -->
<g id="Node000020" class="node">
<title>Node20</title>
<g id="a_Node000020"><a xlink:href="../../d2/da1/structproto_1_1lacte_1_1ProductVolume.html#a5f80165d79df6e9601122add8217b984" target="_top" xlink:title=" ">
<polygon fill="white" stroke="#666666" points="152,-126 0,-126 0,-96 152,-96 152,-126"/>
<text text-anchor="start" x="8" y="-114" font-family="Helvetica,sans-Serif" font-size="10.00">proto::lacte::ProductVolume</text>
<text text-anchor="middle" x="76" y="-103" font-family="Helvetica,sans-Serif" font-size="10.00">::ProductVolume</text>
</a>
</g>
</g>
<!-- Node11&#45;&gt;Node20 -->
<g id="edge19_Node000011_Node000020" class="edge">
<title>Node11&#45;&gt;Node20</title>
<g id="a_edge19_Node000011_Node000020"><a xlink:title=" ">
<path fill="none" stroke="#63b8ff" d="M199.57,-288.34C195.31,-285.72 191.37,-282.64 188,-279 143.13,-230.64 197.11,-183.13 152,-135 148.82,-131.61 145.16,-128.69 141.21,-126.19"/>
<polygon fill="#63b8ff" stroke="#63b8ff" points="198.21,-291.58 208.7,-293.09 201.44,-285.37 198.21,-291.58"/>
</a>
</g>
</g>
<!-- Node21 -->
<g id="Node000021" class="node">
<title>Node21</title>
<g id="a_Node000021"><a xlink:href="../../df/dbe/structproto_1_1lacte_1_1TimeCounter.html#a1af21128c8e5a9d7d9059e804ed361ac" target="_top" xlink:title=" ">
<polygon fill="white" stroke="#666666" points="146.5,-78 5.5,-78 5.5,-48 146.5,-48 146.5,-78"/>
<text text-anchor="start" x="13.5" y="-66" font-family="Helvetica,sans-Serif" font-size="10.00">proto::lacte::TimeCounter</text>
<text text-anchor="middle" x="76" y="-55" font-family="Helvetica,sans-Serif" font-size="10.00">::TimeCounter</text>
</a>
</g>
</g>
<!-- Node11&#45;&gt;Node21 -->
<g id="edge20_Node000011_Node000021" class="edge">
<title>Node11&#45;&gt;Node21</title>
<g id="a_edge20_Node000011_Node000021"><a xlink:title=" ">
<path fill="none" stroke="#63b8ff" d="M199.87,-288.89C195.45,-286.16 191.4,-282.89 188,-279 130.87,-213.63 209.46,-152.09 152,-87 149.01,-83.62 145.55,-80.71 141.79,-78.21"/>
<polygon fill="#63b8ff" stroke="#63b8ff" points="198.27,-292.01 208.75,-293.53 201.51,-285.8 198.27,-292.01"/>
</a>
</g>
</g>
<!-- Node22 -->
<g id="Node000022" class="node">
<title>Node22</title>
<g id="a_Node000022"><a xlink:href="../../d9/d77/structproto_1_1lacte_1_1UsageTime.html#a6481277125b16dcce69451a90fe94325" target="_top" xlink:title=" ">
<polygon fill="white" stroke="#666666" points="143,-30 9,-30 9,0 143,0 143,-30"/>
<text text-anchor="start" x="17" y="-18" font-family="Helvetica,sans-Serif" font-size="10.00">proto::lacte::UsageTime</text>
<text text-anchor="middle" x="76" y="-7" font-family="Helvetica,sans-Serif" font-size="10.00">::UsageTime</text>
</a>
</g>
</g>
<!-- Node11&#45;&gt;Node22 -->
<g id="edge21_Node000011_Node000022" class="edge">
<title>Node11&#45;&gt;Node22</title>
<g id="a_edge21_Node000011_Node000022"><a xlink:title=" ">
<path fill="none" stroke="#63b8ff" d="M199.92,-289.16C195.46,-286.36 191.38,-283.02 188,-279 118.51,-196.5 221.9,-121.15 152,-39 149.08,-35.56 145.66,-32.61 141.93,-30.08"/>
<polygon fill="#63b8ff" stroke="#63b8ff" points="198.44,-292.33 208.92,-293.86 201.68,-286.13 198.44,-292.33"/>
</a>
</g>
</g>
</g>
</svg>

<g id="navigator" transform="translate(0 0)" fill="#404254">
  <rect fill="#f2f5e9" fill-opacity="0.5" stroke="#606060" stroke-width=".5" x="0" y="0" width="60" height="60"/>
  <use id="zoomplus" xlink:href="#zoomPlus" x="17" y="9" onmousedown="handleZoom(evt,'in')"/>
  <use id="zoomminus" xlink:href="#zoomMin" x="42" y="9" onmousedown="handleZoom(evt,'out')"/>
  <use id="reset" xlink:href="#resetDef" x="30" y="36" onmousedown="handleReset()"/>
   <use id="arrowup" xlink:href="#arrowUp" x="0" y="0" onmousedown="handlePan(0,-1)"/>
  <use id="arrowright" xlink:href="#arrowRight" x="0" y="0" onmousedown="handlePan(1,0)"/>
  <use id="arrowdown" xlink:href="#arrowDown" x="0" y="0" onmousedown="handlePan(0,1)"/>
  <use id="arrowleft" xlink:href="#arrowLeft" x="0" y="0" onmousedown="handlePan(-1,0)"/>
</g>
<svg viewBox="0 0 15 15" width="100%" height="30px" preserveAspectRatio="xMaxYMin meet">
 <g id="arrow_out" transform="scale(0.3 0.3)">
  <a xlink:href="classCustomSpan_a7612ff42bfc672d97414e1e3ddc391b9_icgraph_org.svg" target="_base">
   <rect id="button" ry="5" rx="5" y="6" x="6" height="38" width="38"
        fill="#f2f5e9" fill-opacity="0.5" stroke="#606060" stroke-width="1.0"/>
   <path id="arrow"
     d="M 11.500037,31.436501 C 11.940474,20.09759 22.043105,11.32322 32.158766,21.979434 L 37.068811,17.246167 C 37.068811,17.246167 37.088388,32 37.088388,32 L 22.160133,31.978069 C 22.160133,31.978069 26.997745,27.140456 26.997745,27.140456 C 18.528582,18.264221 13.291696,25.230495 11.500037,31.436501 z"
     style="fill:#404040;"/>
  </a>
 </g>
</svg>

<style type='text/css'>
<![CDATA[
[data-mouse-over-selected='false'] { opacity: 0.7; }
[data-mouse-over-selected='true']  { opacity: 1.0; }
]]>
</style>
<script type="application/ecmascript"><![CDATA[
document.addEventListener('DOMContentLoaded', (event) => {
  highlightEdges();
  highlightAdjacentNodes();
});
]]></script>
</svg>
