<?xml version="1.0" encoding="UTF-8" standalone="no"?>
<!DOCTYPE svg PUBLIC "-//W3C//DTD SVG 1.1//EN"
 "http://www.w3.org/Graphics/SVG/1.1/DTD/svg11.dtd">
<!-- Generated by graphviz version 2.43.0 (0)
 -->
<!-- Title: CustomSpan::data Pages: 1 -->
<!--zoomable 844 -->

<svg id="main" version="1.1" xmlns="http://www.w3.org/2000/svg" xmlns:xlink="http://www.w3.org/1999/xlink" xml:space="preserve" onload="init(evt)">
<style type="text/css"><![CDATA[
.node, .edge {opacity: 0.7;}
.node.selected, .edge.selected {opacity: 1;}
.edge:hover path { stroke: red; }
.edge:hover polygon { stroke: red; fill: red; }
]]></style>

<defs>
  <circle id="rim" cx="0" cy="0" r="7"/>
  <circle id="rim2" cx="0" cy="0" r="3.5"/>
  <g id="zoomPlus">
    <use xlink:href="#rim" fill="#404040"><set attributeName="fill" to="#808080" begin="zoomplus.mouseover" end="zoomplus.mouseout"/></use>
    <path d="M-4,0h8M0,-4v8" fill="none" stroke="white" stroke-width="1.5" pointer-events="none"/>
  </g>
  <g id="zoomMin">
    <use xlink:href="#rim" fill="#404040"><set attributeName="fill" to="#808080" begin="zoomminus.mouseover" end="zoomminus.mouseout"/></use>
    <path d="M-4,0h8" fill="none" stroke="white" stroke-width="1.5" pointer-events="none"/>
  </g>
  <g id="arrowUp" transform="translate(30 24)">
    <use xlink:href="#rim"/>
    <path pointer-events="none" fill="none" stroke="white" stroke-width="1.5" d="M0,-3.0v7 M-2.5,-0.5L0,-3.0L2.5,-0.5"/>
  </g>
  <g id="arrowRight" transform="rotate(90) translate(36 -43)">
    <use xlink:href="#rim"/>
    <path pointer-events="none" fill="none" stroke="white" stroke-width="1.5" d="M0,-3.0v7 M-2.5,-0.5L0,-3.0L2.5,-0.5"/>
  </g>
  <g id="arrowDown" transform="rotate(180) translate(-30 -48)">
    <use xlink:href="#rim"/>
    <path pointer-events="none" fill="none" stroke="white" stroke-width="1.5" d="M0,-3.0v7 M-2.5,-0.5L0,-3.0L2.5,-0.5"/>
  </g>
  <g id="arrowLeft" transform="rotate(270) translate(-36 17)">
    <use xlink:href="#rim"/>
    <path pointer-events="none" fill="none" stroke="white" stroke-width="1.5" d="M0,-3.0v7 M-2.5,-0.5L0,-3.0L2.5,-0.5"/>
  </g>
  <g id="resetDef">
    <use xlink:href="#rim2" fill="#404040"><set attributeName="fill" to="#808080" begin="reset.mouseover" end="reset.mouseout"/></use>
  </g>
</defs>
<script type="application/ecmascript">
var viewWidth = 470;
var viewHeight = 844;
var sectionId = 'dynsection-2';
</script>
<script type="application/ecmascript" xlink:href="../../svg.min.js"/>
<svg id="graph" class="graph">
<g id="viewport">
<title>CustomSpan::data</title>
<!-- Node1 -->
<g id="Node000001" class="node">
<title>Node1</title>
<g id="a_Node000001"><a xlink:title=" ">
<polygon fill="#999999" stroke="#666666" points="462,-422.5 356,-422.5 356,-403.5 462,-403.5 462,-422.5"/>
<text text-anchor="middle" x="409" y="-410.5" font-family="Helvetica,sans-Serif" font-size="10.00">CustomSpan::data</text>
</a>
</g>
</g>
<!-- Node2 -->
<g id="Node000002" class="node">
<title>Node2</title>
<g id="a_Node000002"><a xlink:href="../../db/d30/classproto_1_1lacte_1_1LacteBoardProtocol.html#adb308fed1049363915a9e6ba22fce84a" target="_top" xlink:title=" ">
<polygon fill="white" stroke="#666666" points="313,-836 180,-836 180,-806 313,-806 313,-836"/>
<text text-anchor="start" x="188" y="-824" font-family="Helvetica,sans-Serif" font-size="10.00">proto::lacte::LacteBoard</text>
<text text-anchor="middle" x="246.5" y="-813" font-family="Helvetica,sans-Serif" font-size="10.00">Protocol::answer</text>
</a>
</g>
</g>
<!-- Node1&#45;&gt;Node2 -->
<g id="edge1_Node000001_Node000002" class="edge">
<title>Node1&#45;&gt;Node2</title>
<g id="a_edge1_Node000001_Node000002"><a xlink:title=" ">
<path fill="none" stroke="#63b8ff" d="M406.01,-432.81C398.55,-503.49 370.03,-742.01 320,-797 316.88,-800.43 313.25,-803.38 309.32,-805.9"/>
<polygon fill="#63b8ff" stroke="#63b8ff" points="409.52,-432.93 407.06,-422.63 402.56,-432.21 409.52,-432.93"/>
</a>
</g>
</g>
<!-- Node3 -->
<g id="Node000003" class="node">
<title>Node3</title>
<g id="a_Node000003"><a xlink:href="../../d3/d8e/classproto_1_1exoAtlant_1_1custom__crc.html#abdb60ccb2a8458235949a0118b263bd7" target="_top" xlink:title=" ">
<polygon fill="white" stroke="#666666" points="315,-788 178,-788 178,-758 315,-758 315,-788"/>
<text text-anchor="start" x="186" y="-776" font-family="Helvetica,sans-Serif" font-size="10.00">proto::exoAtlant::custom</text>
<text text-anchor="middle" x="246.5" y="-765" font-family="Helvetica,sans-Serif" font-size="10.00">_crc::calc</text>
</a>
</g>
</g>
<!-- Node1&#45;&gt;Node3 -->
<g id="edge2_Node000001_Node000003" class="edge">
<title>Node1&#45;&gt;Node3</title>
<g id="a_edge2_Node000001_Node000003"><a xlink:title=" ">
<path fill="none" stroke="#63b8ff" d="M405.32,-432.81C396.16,-497.6 364.28,-701.82 320,-749 316.82,-752.38 313.16,-755.29 309.21,-757.79"/>
<polygon fill="#63b8ff" stroke="#63b8ff" points="408.81,-433.09 406.72,-422.71 401.88,-432.13 408.81,-433.09"/>
</a>
</g>
</g>
<!-- Node5 -->
<g id="Node000005" class="node">
<title>Node5</title>
<g id="a_Node000005"><a xlink:href="../../d0/d29/classproto_1_1RxContainer.html#a13af162783447e92a0e44e240a775deb" target="_top" xlink:title="Reads bytes for a specific field, validates const values and copies into the frame buffer.">
<polygon fill="white" stroke="#666666" points="300.5,-740 192.5,-740 192.5,-710 300.5,-710 300.5,-740"/>
<text text-anchor="start" x="200.5" y="-728" font-family="Helvetica,sans-Serif" font-size="10.00">proto::RxContainer</text>
<text text-anchor="middle" x="246.5" y="-717" font-family="Helvetica,sans-Serif" font-size="10.00">::fill_fields</text>
</a>
</g>
</g>
<!-- Node1&#45;&gt;Node5 -->
<g id="edge4_Node000001_Node000005" class="edge">
<title>Node1&#45;&gt;Node5</title>
<g id="a_edge4_Node000001_Node000005"><a xlink:title=" ">
<path fill="none" stroke="#63b8ff" d="M407.85,-432.91C406.38,-484.52 395.24,-624 320,-701 314.53,-706.59 307.74,-710.89 300.51,-714.18"/>
<polygon fill="#63b8ff" stroke="#63b8ff" points="411.35,-432.83 408.05,-422.77 404.36,-432.7 411.35,-432.83"/>
</a>
</g>
</g>
<!-- Node6 -->
<g id="Node000006" class="node">
<title>Node6</title>
<g id="a_Node000006"><a xlink:href="../../dc/d80/classproto_1_1FieldPrototype.html#a5abddde95e0d6b00673ed0740b0c931e" target="_top" xlink:title="Return a value copy of the field content.">
<polygon fill="white" stroke="#666666" points="306,-692 187,-692 187,-662 306,-662 306,-692"/>
<text text-anchor="start" x="195" y="-680" font-family="Helvetica,sans-Serif" font-size="10.00">proto::FieldPrototype</text>
<text text-anchor="middle" x="246.5" y="-669" font-family="Helvetica,sans-Serif" font-size="10.00">::get_copy</text>
</a>
</g>
</g>
<!-- Node1&#45;&gt;Node6 -->
<g id="edge5_Node000001_Node000006" class="edge">
<title>Node1&#45;&gt;Node6</title>
<g id="a_edge5_Node000001_Node000006"><a xlink:title=" ">
<path fill="none" stroke="#63b8ff" d="M406.43,-432.9C401.77,-478.41 384.06,-590.94 320,-653 315.91,-656.97 311.14,-660.28 306.05,-663.04"/>
<polygon fill="#63b8ff" stroke="#63b8ff" points="409.92,-433.12 407.35,-422.84 402.95,-432.48 409.92,-433.12"/>
</a>
</g>
</g>
<!-- Node7 -->
<g id="Node000007" class="node">
<title>Node7</title>
<g id="a_Node000007"><a xlink:href="../../de/d3d/structproto_1_1lacte_1_1McuUid.html#aef74a9b6ed04daf8b88229f901643d0d" target="_top" xlink:title=" ">
<polygon fill="white" stroke="#666666" points="304,-644 189,-644 189,-614 304,-614 304,-644"/>
<text text-anchor="start" x="197" y="-632" font-family="Helvetica,sans-Serif" font-size="10.00">proto::lacte::McuUid</text>
<text text-anchor="middle" x="246.5" y="-621" font-family="Helvetica,sans-Serif" font-size="10.00">::McuUid</text>
</a>
</g>
</g>
<!-- Node1&#45;&gt;Node7 -->
<g id="edge6_Node000001_Node000007" class="edge">
<title>Node1&#45;&gt;Node7</title>
<g id="a_edge6_Node000001_Node000007"><a xlink:title=" ">
<path fill="none" stroke="#63b8ff" d="M404.44,-432.52C396.39,-471.07 373.2,-557.35 320,-605 315.36,-609.16 309.98,-612.6 304.28,-615.44"/>
<polygon fill="#63b8ff" stroke="#63b8ff" points="407.9,-433.07 406.39,-422.58 401.03,-431.72 407.9,-433.07"/>
</a>
</g>
</g>
<!-- Node8 -->
<g id="Node000008" class="node">
<title>Node8</title>
<g id="a_Node000008"><a xlink:href="../../de/d3d/structproto_1_1lacte_1_1McuUid.html#a5cfbdeb412b3611c734e66dfa22dd3be" target="_top" xlink:title=" ">
<polygon fill="white" stroke="#666666" points="304,-596 189,-596 189,-566 304,-566 304,-596"/>
<text text-anchor="start" x="197" y="-584" font-family="Helvetica,sans-Serif" font-size="10.00">proto::lacte::McuUid</text>
<text text-anchor="middle" x="246.5" y="-573" font-family="Helvetica,sans-Serif" font-size="10.00">::McuUid</text>
</a>
</g>
</g>
<!-- Node1&#45;&gt;Node8 -->
<g id="edge7_Node000001_Node000008" class="edge">
<title>Node1&#45;&gt;Node8</title>
<g id="a_edge7_Node000001_Node000008"><a xlink:title=" ">
<path fill="none" stroke="#63b8ff" d="M401.28,-432.22C389.55,-463 362.49,-523.27 320,-557 315.22,-560.79 309.82,-564 304.18,-566.7"/>
<polygon fill="#63b8ff" stroke="#63b8ff" points="404.63,-433.26 404.78,-422.66 398.05,-430.85 404.63,-433.26"/>
</a>
</g>
</g>
<!-- Node9 -->
<g id="Node000009" class="node">
<title>Node9</title>
<g id="a_Node000009"><a xlink:href="../../df/dc6/structproto_1_1lacte_1_1RFIDNumberType.html#ab9031f5e3636bfd90514b8ea2d4dbb14" target="_top" xlink:title=" ">
<polygon fill="white" stroke="#666666" points="316.5,-548 176.5,-548 176.5,-518 316.5,-518 316.5,-548"/>
<text text-anchor="start" x="184.5" y="-536" font-family="Helvetica,sans-Serif" font-size="10.00">proto::lacte::RFIDNumber</text>
<text text-anchor="middle" x="246.5" y="-525" font-family="Helvetica,sans-Serif" font-size="10.00">Type::operator!=</text>
</a>
</g>
</g>
<!-- Node1&#45;&gt;Node9 -->
<g id="edge8_Node000001_Node000009" class="edge">
<title>Node1&#45;&gt;Node9</title>
<g id="a_edge8_Node000001_Node000009"><a xlink:title=" ">
<path fill="none" stroke="#63b8ff" d="M395.97,-430.92C380.7,-452.38 352.39,-488.04 320,-509 314.77,-512.39 309.01,-515.34 303.1,-517.9"/>
<polygon fill="#63b8ff" stroke="#63b8ff" points="398.87,-432.89 401.7,-422.68 393.12,-428.89 398.87,-432.89"/>
</a>
</g>
</g>
<!-- Node10 -->
<g id="Node000010" class="node">
<title>Node10</title>
<g id="a_Node000010"><a xlink:href="../../de/d3d/structproto_1_1lacte_1_1McuUid.html#ac0342485ad900912b2ecc7975d8b3622" target="_top" xlink:title=" ">
<polygon fill="white" stroke="#666666" points="304,-500 189,-500 189,-470 304,-470 304,-500"/>
<text text-anchor="start" x="197" y="-488" font-family="Helvetica,sans-Serif" font-size="10.00">proto::lacte::McuUid</text>
<text text-anchor="middle" x="246.5" y="-477" font-family="Helvetica,sans-Serif" font-size="10.00">::operator==</text>
</a>
</g>
</g>
<!-- Node1&#45;&gt;Node10 -->
<g id="edge9_Node000001_Node000010" class="edge">
<title>Node1&#45;&gt;Node10</title>
<g id="a_edge9_Node000001_Node000010"><a xlink:title=" ">
<path fill="none" stroke="#63b8ff" d="M383.64,-427.83C366.3,-438 342.22,-451.35 320,-461 312.7,-464.17 304.84,-467.17 297.09,-469.91"/>
<polygon fill="#63b8ff" stroke="#63b8ff" points="385.72,-430.67 392.53,-422.55 382.15,-424.65 385.72,-430.67"/>
</a>
</g>
</g>
<!-- Node11 -->
<g id="Node000011" class="node">
<title>Node11</title>
<g id="a_Node000011"><a xlink:href="../../da/db7/structproto_1_1exoAtlant_1_1Packet1.html#a2eac3c87b853a766b269f674a5c0fb41" target="_top" xlink:title=" ">
<polygon fill="white" stroke="#666666" points="315.5,-452 177.5,-452 177.5,-422 315.5,-422 315.5,-452"/>
<text text-anchor="start" x="185.5" y="-440" font-family="Helvetica,sans-Serif" font-size="10.00">proto::exoAtlant::Packet1</text>
<text text-anchor="middle" x="246.5" y="-429" font-family="Helvetica,sans-Serif" font-size="10.00">::operator==</text>
</a>
</g>
</g>
<!-- Node1&#45;&gt;Node11 -->
<g id="edge10_Node000001_Node000011" class="edge">
<title>Node1&#45;&gt;Node11</title>
<g id="a_edge10_Node000001_Node000011"><a xlink:title=" ">
<path fill="none" stroke="#63b8ff" d="M345.79,-422.3C335.93,-423.78 325.7,-425.31 315.72,-426.8"/>
<polygon fill="#63b8ff" stroke="#63b8ff" points="346.52,-425.73 355.89,-420.79 345.48,-418.81 346.52,-425.73"/>
</a>
</g>
</g>
<!-- Node12 -->
<g id="Node000012" class="node">
<title>Node12</title>
<g id="a_Node000012"><a xlink:href="../../df/da0/structproto_1_1exoAtlant_1_1Packet2.html#ae14a299622cb9fe5ab6a2560f2c0307a" target="_top" xlink:title=" ">
<polygon fill="white" stroke="#666666" points="315.5,-404 177.5,-404 177.5,-374 315.5,-374 315.5,-404"/>
<text text-anchor="start" x="185.5" y="-392" font-family="Helvetica,sans-Serif" font-size="10.00">proto::exoAtlant::Packet2</text>
<text text-anchor="middle" x="246.5" y="-381" font-family="Helvetica,sans-Serif" font-size="10.00">::operator==</text>
</a>
</g>
</g>
<!-- Node1&#45;&gt;Node12 -->
<g id="edge11_Node000001_Node000012" class="edge">
<title>Node1&#45;&gt;Node12</title>
<g id="a_edge11_Node000001_Node000012"><a xlink:title=" ">
<path fill="none" stroke="#63b8ff" d="M345.79,-403.7C335.93,-402.22 325.7,-400.69 315.72,-399.2"/>
<polygon fill="#63b8ff" stroke="#63b8ff" points="345.48,-407.19 355.89,-405.21 346.52,-400.27 345.48,-407.19"/>
</a>
</g>
</g>
<!-- Node13 -->
<g id="Node000013" class="node">
<title>Node13</title>
<g id="a_Node000013"><a xlink:href="../../d9/db4/structproto_1_1exoAtlant_1_1Packet3.html#aba22684cd216f50ec8fe742a8990c023" target="_top" xlink:title=" ">
<polygon fill="white" stroke="#666666" points="315.5,-356 177.5,-356 177.5,-326 315.5,-326 315.5,-356"/>
<text text-anchor="start" x="185.5" y="-344" font-family="Helvetica,sans-Serif" font-size="10.00">proto::exoAtlant::Packet3</text>
<text text-anchor="middle" x="246.5" y="-333" font-family="Helvetica,sans-Serif" font-size="10.00">::operator==</text>
</a>
</g>
</g>
<!-- Node1&#45;&gt;Node13 -->
<g id="edge12_Node000001_Node000013" class="edge">
<title>Node1&#45;&gt;Node13</title>
<g id="a_edge12_Node000001_Node000013"><a xlink:title=" ">
<path fill="none" stroke="#63b8ff" d="M383.64,-398.17C366.3,-388 342.22,-374.65 320,-365 312.7,-361.83 304.84,-358.83 297.09,-356.09"/>
<polygon fill="#63b8ff" stroke="#63b8ff" points="382.15,-401.35 392.53,-403.45 385.72,-395.33 382.15,-401.35"/>
</a>
</g>
</g>
<!-- Node14 -->
<g id="Node000014" class="node">
<title>Node14</title>
<g id="a_Node000014"><a xlink:href="../../df/d26/structproto_1_1exoAtlant_1_1pkt__desc__t.html#ac1a6790d42e7c52591638dc1c6a34b34" target="_top" xlink:title=" ">
<polygon fill="white" stroke="#666666" points="305,-308 188,-308 188,-278 305,-278 305,-308"/>
<text text-anchor="start" x="196" y="-296" font-family="Helvetica,sans-Serif" font-size="10.00">proto::exoAtlant::pkt</text>
<text text-anchor="middle" x="246.5" y="-285" font-family="Helvetica,sans-Serif" font-size="10.00">_desc_t::operator==</text>
</a>
</g>
</g>
<!-- Node1&#45;&gt;Node14 -->
<g id="edge13_Node000001_Node000014" class="edge">
<title>Node1&#45;&gt;Node14</title>
<g id="a_edge13_Node000001_Node000014"><a xlink:title=" ">
<path fill="none" stroke="#63b8ff" d="M395.97,-395.08C380.7,-373.62 352.39,-337.96 320,-317 314.77,-313.61 309.01,-310.66 303.1,-308.1"/>
<polygon fill="#63b8ff" stroke="#63b8ff" points="393.12,-397.11 401.7,-403.32 398.87,-393.11 393.12,-397.11"/>
</a>
</g>
</g>
<!-- Node15 -->
<g id="Node000015" class="node">
<title>Node15</title>
<g id="a_Node000015"><a xlink:href="../../df/dc6/structproto_1_1lacte_1_1RFIDNumberType.html#a51d4aa760be7bb7af1c1e9df4f3c3e99" target="_top" xlink:title=" ">
<polygon fill="white" stroke="#666666" points="316.5,-260 176.5,-260 176.5,-230 316.5,-230 316.5,-260"/>
<text text-anchor="start" x="184.5" y="-248" font-family="Helvetica,sans-Serif" font-size="10.00">proto::lacte::RFIDNumber</text>
<text text-anchor="middle" x="246.5" y="-237" font-family="Helvetica,sans-Serif" font-size="10.00">Type::operator==</text>
</a>
</g>
</g>
<!-- Node1&#45;&gt;Node15 -->
<g id="edge14_Node000001_Node000015" class="edge">
<title>Node1&#45;&gt;Node15</title>
<g id="a_edge14_Node000001_Node000015"><a xlink:title=" ">
<path fill="none" stroke="#63b8ff" d="M401.28,-393.78C389.55,-363 362.49,-302.73 320,-269 315.64,-265.54 310.76,-262.57 305.64,-260.02"/>
<polygon fill="#63b8ff" stroke="#63b8ff" points="398.05,-395.15 404.78,-403.34 404.63,-392.74 398.05,-395.15"/>
</a>
</g>
</g>
<!-- Node16 -->
<g id="Node000016" class="node">
<title>Node16</title>
<g id="a_Node000016"><a xlink:href="../../d4/d66/classproto_1_1exoAtlant_1_1ExoAtlantProtocol__.html#ab292d3fc1828c447d3e9d654aff5fcda" target="_top" xlink:title="Разбор входящего блока данных">
<polygon fill="white" stroke="#666666" points="320,-212 173,-212 173,-182 320,-182 320,-212"/>
<text text-anchor="start" x="181" y="-200" font-family="Helvetica,sans-Serif" font-size="10.00">proto::exoAtlant::ExoAtlant</text>
<text text-anchor="middle" x="246.5" y="-189" font-family="Helvetica,sans-Serif" font-size="10.00">Protocol_::parse</text>
</a>
</g>
</g>
<!-- Node1&#45;&gt;Node16 -->
<g id="edge15_Node000001_Node000016" class="edge">
<title>Node1&#45;&gt;Node16</title>
<g id="a_edge15_Node000001_Node000016"><a xlink:title=" ">
<path fill="none" stroke="#63b8ff" d="M404.44,-393.48C396.39,-354.93 373.2,-268.65 320,-221 316.15,-217.55 311.79,-214.59 307.16,-212.06"/>
<polygon fill="#63b8ff" stroke="#63b8ff" points="401.03,-394.28 406.39,-403.42 407.9,-392.93 401.03,-394.28"/>
</a>
</g>
</g>
<!-- Node17 -->
<g id="Node000017" class="node">
<title>Node17</title>
<g id="a_Node000017"><a xlink:href="../../d3/d81/namespaceproto_1_1lacte.html#a2a4c83d18286989fd879740cca6c52ca" target="_top" xlink:title=" ">
<polygon fill="white" stroke="#666666" points="304,-163.5 189,-163.5 189,-144.5 304,-144.5 304,-163.5"/>
<text text-anchor="middle" x="246.5" y="-151.5" font-family="Helvetica,sans-Serif" font-size="10.00">proto::lacte::print_ts</text>
</a>
</g>
</g>
<!-- Node1&#45;&gt;Node17 -->
<g id="edge16_Node000001_Node000017" class="edge">
<title>Node1&#45;&gt;Node17</title>
<g id="a_edge16_Node000001_Node000017"><a xlink:title=" ">
<path fill="none" stroke="#63b8ff" d="M406.7,-392.81C402.61,-346.7 385.99,-233 320,-173 315.38,-168.8 309.94,-165.5 304.16,-162.93"/>
<polygon fill="#63b8ff" stroke="#63b8ff" points="403.23,-393.31 407.49,-403.01 410.2,-392.77 403.23,-393.31"/>
</a>
</g>
</g>
<!-- Node18 -->
<g id="Node000018" class="node">
<title>Node18</title>
<g id="a_Node000018"><a xlink:href="../../d4/d66/classproto_1_1exoAtlant_1_1ExoAtlantProtocol__.html#ac9dd8408999d03d57dadb02ff647d93a" target="_top" xlink:title="Сериализация исходящего блока данных">
<polygon fill="white" stroke="#666666" points="320,-126 173,-126 173,-96 320,-96 320,-126"/>
<text text-anchor="start" x="181" y="-114" font-family="Helvetica,sans-Serif" font-size="10.00">proto::exoAtlant::ExoAtlant</text>
<text text-anchor="middle" x="246.5" y="-103" font-family="Helvetica,sans-Serif" font-size="10.00">Protocol_::serialize</text>
</a>
</g>
</g>
<!-- Node1&#45;&gt;Node18 -->
<g id="edge17_Node000001_Node000018" class="edge">
<title>Node1&#45;&gt;Node18</title>
<g id="a_edge17_Node000001_Node000018"><a xlink:title=" ">
<path fill="none" stroke="#63b8ff" d="M407.52,-393.24C405.22,-343.16 392.25,-210.04 320,-136 316.19,-132.09 311.74,-128.8 306.95,-126.01"/>
<polygon fill="#63b8ff" stroke="#63b8ff" points="404.02,-393.49 407.88,-403.36 411.02,-393.24 404.02,-393.49"/>
</a>
</g>
</g>
<!-- Node19 -->
<g id="Node000019" class="node">
<title>Node19</title>
<g id="a_Node000019"><a xlink:href="../../de/d3d/structproto_1_1lacte_1_1McuUid.html#a090bb8d96a5464b43391eeace187e992" target="_top" xlink:title=" ">
<polygon fill="white" stroke="#666666" points="304,-78 189,-78 189,-48 304,-48 304,-78"/>
<text text-anchor="start" x="197" y="-66" font-family="Helvetica,sans-Serif" font-size="10.00">proto::lacte::McuUid</text>
<text text-anchor="middle" x="246.5" y="-55" font-family="Helvetica,sans-Serif" font-size="10.00">::to_string</text>
</a>
</g>
</g>
<!-- Node1&#45;&gt;Node19 -->
<g id="edge18_Node000001_Node000019" class="edge">
<title>Node1&#45;&gt;Node19</title>
<g id="a_edge18_Node000001_Node000019"><a xlink:title=" ">
<path fill="none" stroke="#63b8ff" d="M408.7,-393.17C409.57,-337.17 404.23,-176.08 320,-87 315.54,-82.28 310.13,-78.49 304.29,-75.44"/>
<polygon fill="#63b8ff" stroke="#63b8ff" points="405.19,-393.38 408.45,-403.46 412.19,-393.55 405.19,-393.38"/>
</a>
</g>
</g>
<!-- Node21 -->
<g id="Node000021" class="node">
<title>Node21</title>
<g id="a_Node000021"><a xlink:href="../../d3/d67/classproto_1_1lacte_1_1VirtualBoard.html#ac7d2f1bb5331ad701afe7589a718c6ac" target="_top" xlink:title=" ">
<polygon fill="white" stroke="#666666" points="316,-30 177,-30 177,0 316,0 316,-30"/>
<text text-anchor="start" x="185" y="-18" font-family="Helvetica,sans-Serif" font-size="10.00">proto::lacte::VirtualBoard</text>
<text text-anchor="middle" x="246.5" y="-7" font-family="Helvetica,sans-Serif" font-size="10.00">::VirtualBoard</text>
</a>
</g>
</g>
<!-- Node1&#45;&gt;Node21 -->
<g id="edge20_Node000001_Node000021" class="edge">
<title>Node1&#45;&gt;Node21</title>
<g id="a_edge20_Node000001_Node000021"><a xlink:title=" ">
<path fill="none" stroke="#63b8ff" d="M405.89,-393.25C398.1,-323.83 368.84,-92.37 320,-39 316.87,-35.58 313.24,-32.64 309.3,-30.12"/>
<polygon fill="#63b8ff" stroke="#63b8ff" points="402.42,-393.72 406.99,-403.28 409.38,-392.95 402.42,-393.72"/>
</a>
</g>
</g>
<!-- Node4 -->
<g id="Node000004" class="node">
<title>Node4</title>
<g id="a_Node000004"><a xlink:href="../../d3/d8e/classproto_1_1exoAtlant_1_1custom__crc.html#a6053931165b4edbaf85ba5eee3839076" target="_top" xlink:title=" ">
<polygon fill="white" stroke="#666666" points="137,-788 0,-788 0,-758 137,-758 137,-788"/>
<text text-anchor="start" x="8" y="-776" font-family="Helvetica,sans-Serif" font-size="10.00">proto::exoAtlant::custom</text>
<text text-anchor="middle" x="68.5" y="-765" font-family="Helvetica,sans-Serif" font-size="10.00">_crc::append</text>
</a>
</g>
</g>
<!-- Node3&#45;&gt;Node4 -->
<g id="edge3_Node000003_Node000004" class="edge">
<title>Node3&#45;&gt;Node4</title>
<g id="a_edge3_Node000003_Node000004"><a xlink:title=" ">
<path fill="none" stroke="#63b8ff" d="M167.82,-773C157.6,-773 147.19,-773 137.15,-773"/>
<polygon fill="#63b8ff" stroke="#63b8ff" points="167.96,-776.5 177.96,-773 167.96,-769.5 167.96,-776.5"/>
</a>
</g>
</g>
<!-- Node20 -->
<g id="Node000020" class="node">
<title>Node20</title>
<g id="a_Node000020"><a xlink:href="../../de/d3d/structproto_1_1lacte_1_1McuUid.html#aa27b889f5d35a148814842b192a20ad0" target="_top" xlink:title=" ">
<polygon fill="white" stroke="#666666" points="126,-78 11,-78 11,-48 126,-48 126,-78"/>
<text text-anchor="start" x="19" y="-66" font-family="Helvetica,sans-Serif" font-size="10.00">proto::lacte::McuUid</text>
<text text-anchor="middle" x="68.5" y="-55" font-family="Helvetica,sans-Serif" font-size="10.00">::string</text>
</a>
</g>
</g>
<!-- Node19&#45;&gt;Node20 -->
<g id="edge19_Node000019_Node000020" class="edge">
<title>Node19&#45;&gt;Node20</title>
<g id="a_edge19_Node000019_Node000020"><a xlink:title=" ">
<path fill="none" stroke="#63b8ff" d="M178.77,-63C161.4,-63 142.84,-63 126.05,-63"/>
<polygon fill="#63b8ff" stroke="#63b8ff" points="178.84,-66.5 188.84,-63 178.84,-59.5 178.84,-66.5"/>
</a>
</g>
</g>
</g>
</svg>

<g id="navigator" transform="translate(0 0)" fill="#404254">
  <rect fill="#f2f5e9" fill-opacity="0.5" stroke="#606060" stroke-width=".5" x="0" y="0" width="60" height="60"/>
  <use id="zoomplus" xlink:href="#zoomPlus" x="17" y="9" onmousedown="handleZoom(evt,'in')"/>
  <use id="zoomminus" xlink:href="#zoomMin" x="42" y="9" onmousedown="handleZoom(evt,'out')"/>
  <use id="reset" xlink:href="#resetDef" x="30" y="36" onmousedown="handleReset()"/>
   <use id="arrowup" xlink:href="#arrowUp" x="0" y="0" onmousedown="handlePan(0,-1)"/>
  <use id="arrowright" xlink:href="#arrowRight" x="0" y="0" onmousedown="handlePan(1,0)"/>
  <use id="arrowdown" xlink:href="#arrowDown" x="0" y="0" onmousedown="handlePan(0,1)"/>
  <use id="arrowleft" xlink:href="#arrowLeft" x="0" y="0" onmousedown="handlePan(-1,0)"/>
</g>
<svg viewBox="0 0 15 15" width="100%" height="30px" preserveAspectRatio="xMaxYMin meet">
 <g id="arrow_out" transform="scale(0.3 0.3)">
  <a xlink:href="classCustomSpan_aa94cafb45950ce4dbcf4e57f6c22615a_icgraph_org.svg" target="_base">
   <rect id="button" ry="5" rx="5" y="6" x="6" height="38" width="38"
        fill="#f2f5e9" fill-opacity="0.5" stroke="#606060" stroke-width="1.0"/>
   <path id="arrow"
     d="M 11.500037,31.436501 C 11.940474,20.09759 22.043105,11.32322 32.158766,21.979434 L 37.068811,17.246167 C 37.068811,17.246167 37.088388,32 37.088388,32 L 22.160133,31.978069 C 22.160133,31.978069 26.997745,27.140456 26.997745,27.140456 C 18.528582,18.264221 13.291696,25.230495 11.500037,31.436501 z"
     style="fill:#404040;"/>
  </a>
 </g>
</svg>

<style type='text/css'>
<![CDATA[
[data-mouse-over-selected='false'] { opacity: 0.7; }
[data-mouse-over-selected='true']  { opacity: 1.0; }
]]>
</style>
<script type="application/ecmascript"><![CDATA[
document.addEventListener('DOMContentLoaded', (event) => {
  highlightEdges();
  highlightAdjacentNodes();
});
]]></script>
</svg>
