<?xml version="1.0" encoding="UTF-8" standalone="no"?>
<!DOCTYPE svg PUBLIC "-//W3C//DTD SVG 1.1//EN"
 "http://www.w3.org/Graphics/SVG/1.1/DTD/svg11.dtd">
<!-- Generated by graphviz version 2.43.0 (0)
 -->
<!-- Title: proto::FieldContainer::set_debug Pages: 1 -->
<svg width="521pt" height="86pt"
 viewBox="0.00 0.00 521.00 86.00" xmlns="http://www.w3.org/2000/svg" xmlns:xlink="http://www.w3.org/1999/xlink">
<g id="graph0" class="graph" transform="scale(1 1) rotate(0) translate(4 82)">
<title>proto::FieldContainer::set_debug</title>
<!-- Node1 -->
<g id="Node000001" class="node">
<title>Node1</title>
<g id="a_Node000001"><a xlink:title="Enable or disable debug mode for the container and its fields.">
<polygon fill="#999999" stroke="#666666" points="513,-54 394,-54 394,-24 513,-24 513,-54"/>
<text text-anchor="start" x="402" y="-42" font-family="Helvetica,sans-Serif" font-size="10.00">proto::FieldContainer</text>
<text text-anchor="middle" x="453.5" y="-31" font-family="Helvetica,sans-Serif" font-size="10.00">::set_debug</text>
</a>
</g>
</g>
<!-- Node2 -->
<g id="Node000002" class="node">
<title>Node2</title>
<g id="a_Node000002"><a xlink:href="../../d3/d19/classproto_1_1ProtocolNoSysEndpoint.html#a1ed722d6da57cc7b70c48e032aecfd1f" target="_top" xlink:title=" ">
<polygon fill="white" stroke="#666666" points="358,-78 197,-78 197,-48 358,-48 358,-78"/>
<text text-anchor="start" x="205" y="-66" font-family="Helvetica,sans-Serif" font-size="10.00">proto::ProtocolNoSysEndpoint</text>
<text text-anchor="middle" x="277.5" y="-55" font-family="Helvetica,sans-Serif" font-size="10.00">::set_debug</text>
</a>
</g>
</g>
<!-- Node1&#45;&gt;Node2 -->
<g id="edge1_Node000001_Node000002" class="edge">
<title>Node1&#45;&gt;Node2</title>
<g id="a_edge1_Node000001_Node000002"><a xlink:title=" ">
<path fill="none" stroke="#63b8ff" d="M383.51,-48.52C375.14,-49.67 366.53,-50.86 358.02,-52.03"/>
<polygon fill="#63b8ff" stroke="#63b8ff" points="384.16,-51.96 393.59,-47.13 383.21,-45.02 384.16,-51.96"/>
</a>
</g>
</g>
<!-- Node4 -->
<g id="Node000004" class="node">
<title>Node4</title>
<g id="a_Node000004"><a xlink:href="../../d6/dc5/classproto_1_1ProtocolEndpoint.html#ac9f00178274a409fceacb8e6379d391f" target="_top" xlink:title=" ">
<polygon fill="white" stroke="#666666" points="343,-30 212,-30 212,0 343,0 343,-30"/>
<text text-anchor="start" x="220" y="-18" font-family="Helvetica,sans-Serif" font-size="10.00">proto::ProtocolEndpoint</text>
<text text-anchor="middle" x="277.5" y="-7" font-family="Helvetica,sans-Serif" font-size="10.00">::set_debug</text>
</a>
</g>
</g>
<!-- Node1&#45;&gt;Node4 -->
<g id="edge3_Node000001_Node000004" class="edge">
<title>Node1&#45;&gt;Node4</title>
<g id="a_edge3_Node000001_Node000004"><a xlink:title=" ">
<path fill="none" stroke="#63b8ff" d="M383.52,-29.49C370.17,-27.64 356.22,-25.72 343.02,-23.9"/>
<polygon fill="#63b8ff" stroke="#63b8ff" points="383.21,-32.98 393.59,-30.87 384.16,-26.04 383.21,-32.98"/>
</a>
</g>
</g>
<!-- Node3 -->
<g id="Node000003" class="node">
<title>Node3</title>
<g id="a_Node000003"><a xlink:href="../../d3/d19/classproto_1_1ProtocolNoSysEndpoint.html#a4d52b9d808999b178d1b4fdd789d4678" target="_top" xlink:title="Construct endpoint and install a permanent RX callback that snapshots the last frame&#39;s type code.">
<polygon fill="white" stroke="#666666" points="161,-78 0,-78 0,-48 161,-48 161,-78"/>
<text text-anchor="start" x="8" y="-66" font-family="Helvetica,sans-Serif" font-size="10.00">proto::ProtocolNoSysEndpoint</text>
<text text-anchor="middle" x="80.5" y="-55" font-family="Helvetica,sans-Serif" font-size="10.00">::ProtocolNoSysEndpoint</text>
</a>
</g>
</g>
<!-- Node2&#45;&gt;Node3 -->
<g id="edge2_Node000002_Node000003" class="edge">
<title>Node2&#45;&gt;Node3</title>
<g id="a_edge2_Node000002_Node000003"><a xlink:title=" ">
<path fill="none" stroke="#63b8ff" d="M186.88,-63C178.3,-63 169.64,-63 161.16,-63"/>
<polygon fill="#63b8ff" stroke="#63b8ff" points="186.9,-66.5 196.9,-63 186.9,-59.5 186.9,-66.5"/>
</a>
</g>
</g>
<!-- Node5 -->
<g id="Node000005" class="node">
<title>Node5</title>
<g id="a_Node000005"><a xlink:href="../../d6/dc5/classproto_1_1ProtocolEndpoint.html#af1e4aec725ab34fe336f3dc40bbae6aa" target="_top" xlink:title="Construct endpoint and install a permanent RX callback that snapshots the last frame&#39;s type code.">
<polygon fill="white" stroke="#666666" points="146,-30 15,-30 15,0 146,0 146,-30"/>
<text text-anchor="start" x="23" y="-18" font-family="Helvetica,sans-Serif" font-size="10.00">proto::ProtocolEndpoint</text>
<text text-anchor="middle" x="80.5" y="-7" font-family="Helvetica,sans-Serif" font-size="10.00">::ProtocolEndpoint</text>
</a>
</g>
</g>
<!-- Node4&#45;&gt;Node5 -->
<g id="edge4_Node000004_Node000005" class="edge">
<title>Node4&#45;&gt;Node5</title>
<g id="a_edge4_Node000004_Node000005"><a xlink:title=" ">
<path fill="none" stroke="#63b8ff" d="M201.81,-15C183.52,-15 164.1,-15 146.32,-15"/>
<polygon fill="#63b8ff" stroke="#63b8ff" points="201.84,-18.5 211.84,-15 201.84,-11.5 201.84,-18.5"/>
</a>
</g>
</g>
</g>
</svg>
