<?xml version="1.0" encoding="UTF-8" standalone="no"?>
<!DOCTYPE svg PUBLIC "-//W3C//DTD SVG 1.1//EN"
 "http://www.w3.org/Graphics/SVG/1.1/DTD/svg11.dtd">
<!-- Generated by graphviz version 2.43.0 (0)
 -->
<!-- Title: proto::FieldContainer::for_each_type_impl Pages: 1 -->
<svg width="1000pt" height="206pt"
 viewBox="0.00 0.00 1000.00 206.00" xmlns="http://www.w3.org/2000/svg" xmlns:xlink="http://www.w3.org/1999/xlink">
<g id="graph0" class="graph" transform="scale(1 1) rotate(0) translate(4 202)">
<title>proto::FieldContainer::for_each_type_impl</title>
<!-- Node1 -->
<g id="Node000001" class="node">
<title>Node1</title>
<g id="a_Node000001"><a xlink:title="Helper to apply a callable to each field in the tuple (implementation).">
<polygon fill="#999999" stroke="#666666" points="992,-102 873,-102 873,-72 992,-72 992,-102"/>
<text text-anchor="start" x="881" y="-90" font-family="Helvetica,sans-Serif" font-size="10.00">proto::FieldContainer</text>
<text text-anchor="middle" x="932.5" y="-79" font-family="Helvetica,sans-Serif" font-size="10.00">::for_each_type_impl</text>
</a>
</g>
</g>
<!-- Node2 -->
<g id="Node000002" class="node">
<title>Node2</title>
<g id="a_Node000002"><a xlink:href="../../d5/d09/classproto_1_1FieldContainer.html#ad87097e46757f1f4d2ead100ef965f1e" target="_top" xlink:title="Apply a callable to each field in the container.">
<polygon fill="white" stroke="#666666" points="837,-102 718,-102 718,-72 837,-72 837,-102"/>
<text text-anchor="start" x="726" y="-90" font-family="Helvetica,sans-Serif" font-size="10.00">proto::FieldContainer</text>
<text text-anchor="middle" x="777.5" y="-79" font-family="Helvetica,sans-Serif" font-size="10.00">::for_each_type</text>
</a>
</g>
</g>
<!-- Node1&#45;&gt;Node2 -->
<g id="edge1_Node000001_Node000002" class="edge">
<title>Node1&#45;&gt;Node2</title>
<g id="a_edge1_Node000001_Node000002"><a xlink:title=" ">
<path fill="none" stroke="#63b8ff" d="M862.51,-87C854.01,-87 845.38,-87 837.06,-87"/>
<polygon fill="#63b8ff" stroke="#63b8ff" points="862.78,-90.5 872.78,-87 862.78,-83.5 862.78,-90.5"/>
</a>
</g>
</g>
<!-- Node3 -->
<g id="Node000003" class="node">
<title>Node3</title>
<g id="a_Node000003"><a xlink:href="../../d5/d09/classproto_1_1FieldContainer.html#a44b086a546a434a9ba804d3081559d29" target="_top" xlink:title="Reset all fields, CRC, and internal state to defaults.">
<polygon fill="white" stroke="#666666" points="682,-102 563,-102 563,-72 682,-72 682,-102"/>
<text text-anchor="start" x="571" y="-90" font-family="Helvetica,sans-Serif" font-size="10.00">proto::FieldContainer</text>
<text text-anchor="middle" x="622.5" y="-79" font-family="Helvetica,sans-Serif" font-size="10.00">::reset</text>
</a>
</g>
</g>
<!-- Node2&#45;&gt;Node3 -->
<g id="edge2_Node000002_Node000003" class="edge">
<title>Node2&#45;&gt;Node3</title>
<g id="a_edge2_Node000002_Node000003"><a xlink:title=" ">
<path fill="none" stroke="#63b8ff" d="M707.51,-87C699.01,-87 690.38,-87 682.06,-87"/>
<polygon fill="#63b8ff" stroke="#63b8ff" points="707.78,-90.5 717.78,-87 707.78,-83.5 707.78,-90.5"/>
</a>
</g>
</g>
<!-- Node4 -->
<g id="Node000004" class="node">
<title>Node4</title>
<g id="a_Node000004"><a xlink:href="../../d0/d29/classproto_1_1RxContainer.html#a62f66f4bc347105478aba5bffd14796f" target="_top" xlink:title="Feeds a chunk of bytes to the parser and advances internal state.">
<polygon fill="white" stroke="#666666" points="507.5,-174 399.5,-174 399.5,-144 507.5,-144 507.5,-174"/>
<text text-anchor="start" x="407.5" y="-162" font-family="Helvetica,sans-Serif" font-size="10.00">proto::RxContainer</text>
<text text-anchor="middle" x="453.5" y="-151" font-family="Helvetica,sans-Serif" font-size="10.00">::fill</text>
</a>
</g>
</g>
<!-- Node3&#45;&gt;Node4 -->
<g id="edge3_Node000003_Node000004" class="edge">
<title>Node3&#45;&gt;Node4</title>
<g id="a_edge3_Node000003_Node000004"><a xlink:title=" ">
<path fill="none" stroke="#63b8ff" d="M585.12,-107.09C567.8,-116.24 546.63,-126.82 527,-135 519.41,-138.16 511.25,-141.2 503.23,-143.99"/>
<polygon fill="#63b8ff" stroke="#63b8ff" points="587.14,-109.99 594.31,-102.19 583.84,-103.81 587.14,-109.99"/>
</a>
</g>
</g>
<!-- Node7 -->
<g id="Node000007" class="node">
<title>Node7</title>
<g id="a_Node000007"><a xlink:href="../../d4/d66/classproto_1_1exoAtlant_1_1ExoAtlantProtocol__.html#a98f8963b76c80c7846389fab7aa76bab" target="_top" xlink:title="Сброс состояния парсера">
<polygon fill="white" stroke="#666666" points="527,-126 380,-126 380,-96 527,-96 527,-126"/>
<text text-anchor="start" x="388" y="-114" font-family="Helvetica,sans-Serif" font-size="10.00">proto::exoAtlant::ExoAtlant</text>
<text text-anchor="middle" x="453.5" y="-103" font-family="Helvetica,sans-Serif" font-size="10.00">Protocol_::reset</text>
</a>
</g>
</g>
<!-- Node3&#45;&gt;Node7 -->
<g id="edge6_Node000003_Node000007" class="edge">
<title>Node3&#45;&gt;Node7</title>
<g id="a_edge6_Node000003_Node000007"><a xlink:title=" ">
<path fill="none" stroke="#63b8ff" d="M552.54,-96.91C544.17,-98.11 535.61,-99.34 527.19,-100.55"/>
<polygon fill="#63b8ff" stroke="#63b8ff" points="553.22,-100.35 562.62,-95.46 552.23,-93.42 553.22,-100.35"/>
</a>
</g>
</g>
<!-- Node8 -->
<g id="Node000008" class="node">
<title>Node8</title>
<g id="a_Node000008"><a xlink:href="../../d4/dd2/classproto_1_1TxContainer.html#a4b5b6b72f53c218e00d1c3b576c2e439" target="_top" xlink:title="Reset the internal state of the container and its fields.">
<polygon fill="white" stroke="#666666" points="507,-78 400,-78 400,-48 507,-48 507,-78"/>
<text text-anchor="start" x="408" y="-66" font-family="Helvetica,sans-Serif" font-size="10.00">proto::TxContainer</text>
<text text-anchor="middle" x="453.5" y="-55" font-family="Helvetica,sans-Serif" font-size="10.00">::reset</text>
</a>
</g>
</g>
<!-- Node3&#45;&gt;Node8 -->
<g id="edge7_Node000003_Node000008" class="edge">
<title>Node3&#45;&gt;Node8</title>
<g id="a_edge7_Node000003_Node000008"><a xlink:title=" ">
<path fill="none" stroke="#63b8ff" d="M552.71,-77.11C537.44,-74.92 521.5,-72.63 507.01,-70.55"/>
<polygon fill="#63b8ff" stroke="#63b8ff" points="552.23,-80.58 562.62,-78.54 553.22,-73.65 552.23,-80.58"/>
</a>
</g>
</g>
<!-- Node14 -->
<g id="Node000014" class="node">
<title>Node14</title>
<g id="a_Node000014"><a xlink:href="../../d0/d29/classproto_1_1RxContainer.html#a03bd1068d065c680d72c9c2c2cf9ebee" target="_top" xlink:title="Constructs an RxContainer and auto&#45;binds default matchers for standard fields.">
<polygon fill="white" stroke="#666666" points="507.5,-30 399.5,-30 399.5,0 507.5,0 507.5,-30"/>
<text text-anchor="start" x="407.5" y="-18" font-family="Helvetica,sans-Serif" font-size="10.00">proto::RxContainer</text>
<text text-anchor="middle" x="453.5" y="-7" font-family="Helvetica,sans-Serif" font-size="10.00">::RxContainer</text>
</a>
</g>
</g>
<!-- Node3&#45;&gt;Node14 -->
<g id="edge13_Node000003_Node000014" class="edge">
<title>Node3&#45;&gt;Node14</title>
<g id="a_edge13_Node000003_Node000014"><a xlink:title=" ">
<path fill="none" stroke="#63b8ff" d="M585.12,-66.91C567.8,-57.76 546.63,-47.18 527,-39 519.41,-35.84 511.25,-32.8 503.23,-30.01"/>
<polygon fill="#63b8ff" stroke="#63b8ff" points="583.84,-70.19 594.31,-71.81 587.14,-64.01 583.84,-70.19"/>
</a>
</g>
</g>
<!-- Node5 -->
<g id="Node000005" class="node">
<title>Node5</title>
<g id="a_Node000005"><a xlink:href="../../d4/d66/classproto_1_1exoAtlant_1_1ExoAtlantProtocol__.html#ab292d3fc1828c447d3e9d654aff5fcda" target="_top" xlink:title="Разбор входящего блока данных">
<polygon fill="white" stroke="#666666" points="344,-198 197,-198 197,-168 344,-168 344,-198"/>
<text text-anchor="start" x="205" y="-186" font-family="Helvetica,sans-Serif" font-size="10.00">proto::exoAtlant::ExoAtlant</text>
<text text-anchor="middle" x="270.5" y="-175" font-family="Helvetica,sans-Serif" font-size="10.00">Protocol_::parse</text>
</a>
</g>
</g>
<!-- Node4&#45;&gt;Node5 -->
<g id="edge4_Node000004_Node000005" class="edge">
<title>Node4&#45;&gt;Node5</title>
<g id="a_edge4_Node000004_Node000005"><a xlink:title=" ">
<path fill="none" stroke="#63b8ff" d="M388.87,-167.44C374.44,-169.35 359.01,-171.4 344.23,-173.36"/>
<polygon fill="#63b8ff" stroke="#63b8ff" points="389.72,-170.86 399.17,-166.07 388.8,-163.92 389.72,-170.86"/>
</a>
</g>
</g>
<!-- Node6 -->
<g id="Node000006" class="node">
<title>Node6</title>
<g id="a_Node000006"><a xlink:href="../../d6/dc5/classproto_1_1ProtocolEndpoint.html#adf613bd3ee363704002a992199be43f1" target="_top" xlink:title="Wire the endpoint to external RX and TX interfaces.">
<polygon fill="white" stroke="#666666" points="336,-150 205,-150 205,-120 336,-120 336,-150"/>
<text text-anchor="start" x="213" y="-138" font-family="Helvetica,sans-Serif" font-size="10.00">proto::ProtocolEndpoint</text>
<text text-anchor="middle" x="270.5" y="-127" font-family="Helvetica,sans-Serif" font-size="10.00">::set_interfaces</text>
</a>
</g>
</g>
<!-- Node4&#45;&gt;Node6 -->
<g id="edge5_Node000004_Node000006" class="edge">
<title>Node4&#45;&gt;Node6</title>
<g id="a_edge5_Node000004_Node000006"><a xlink:title=" ">
<path fill="none" stroke="#63b8ff" d="M388.78,-150.55C371.77,-148.3 353.37,-145.86 336.29,-143.59"/>
<polygon fill="#63b8ff" stroke="#63b8ff" points="388.8,-154.08 399.17,-151.93 389.72,-147.14 388.8,-154.08"/>
</a>
</g>
</g>
<!-- Node9 -->
<g id="Node000009" class="node">
<title>Node9</title>
<g id="a_Node000009"><a xlink:href="../../d4/dd2/classproto_1_1TxContainer.html#a4636ad0f62ff172c7a74231bc9757985" target="_top" xlink:title="Build and send a packet, setting field values from a pack of FieldInfo.">
<polygon fill="white" stroke="#666666" points="324,-78 217,-78 217,-48 324,-48 324,-78"/>
<text text-anchor="start" x="225" y="-66" font-family="Helvetica,sans-Serif" font-size="10.00">proto::TxContainer</text>
<text text-anchor="middle" x="270.5" y="-55" font-family="Helvetica,sans-Serif" font-size="10.00">::send_packet</text>
</a>
</g>
</g>
<!-- Node8&#45;&gt;Node9 -->
<g id="edge8_Node000008_Node000009" class="edge">
<title>Node8&#45;&gt;Node9</title>
<g id="a_edge8_Node000008_Node000009"><a xlink:title=" ">
<path fill="none" stroke="#63b8ff" d="M389.4,-63C368.07,-63 344.51,-63 324.09,-63"/>
<polygon fill="#63b8ff" stroke="#63b8ff" points="389.66,-66.5 399.66,-63 389.66,-59.5 389.66,-66.5"/>
</a>
</g>
</g>
<!-- Node13 -->
<g id="Node000013" class="node">
<title>Node13</title>
<g id="a_Node000013"><a xlink:href="../../d4/dd2/classproto_1_1TxContainer.html#ae65bae4fd4431a2c7b96d4ec7723a1cc" target="_top" xlink:title="Binds default matchers to LEN/ALEN/CRC (if those fields exist) and performs an initial Reset().">
<polygon fill="white" stroke="#666666" points="324,-30 217,-30 217,0 324,0 324,-30"/>
<text text-anchor="start" x="225" y="-18" font-family="Helvetica,sans-Serif" font-size="10.00">proto::TxContainer</text>
<text text-anchor="middle" x="270.5" y="-7" font-family="Helvetica,sans-Serif" font-size="10.00">::TxContainer</text>
</a>
</g>
</g>
<!-- Node8&#45;&gt;Node13 -->
<g id="edge12_Node000008_Node000013" class="edge">
<title>Node8&#45;&gt;Node13</title>
<g id="a_edge12_Node000008_Node000013"><a xlink:title=" ">
<path fill="none" stroke="#63b8ff" d="M389.98,-46.42C368.5,-40.72 344.7,-34.41 324.09,-28.95"/>
<polygon fill="#63b8ff" stroke="#63b8ff" points="389.1,-49.81 399.66,-48.99 390.89,-43.04 389.1,-49.81"/>
</a>
</g>
</g>
<!-- Node10 -->
<g id="Node000010" class="node">
<title>Node10</title>
<g id="a_Node000010"><a xlink:href="../../d6/dc5/classproto_1_1ProtocolEndpoint.html#a5807ea4b27b179c2b19f43643fcc2d59" target="_top" xlink:title=" ">
<polygon fill="white" stroke="#666666" points="146,-126 15,-126 15,-96 146,-96 146,-126"/>
<text text-anchor="start" x="23" y="-114" font-family="Helvetica,sans-Serif" font-size="10.00">proto::ProtocolEndpoint</text>
<text text-anchor="middle" x="80.5" y="-103" font-family="Helvetica,sans-Serif" font-size="10.00">::request</text>
</a>
</g>
</g>
<!-- Node9&#45;&gt;Node10 -->
<g id="edge9_Node000009_Node000010" class="edge">
<title>Node9&#45;&gt;Node10</title>
<g id="a_edge9_Node000009_Node000010"><a xlink:title=" ">
<path fill="none" stroke="#63b8ff" d="M207.19,-78.91C185.67,-84.4 161.63,-90.54 140.39,-95.96"/>
<polygon fill="#63b8ff" stroke="#63b8ff" points="208.06,-82.3 216.88,-76.43 206.33,-75.52 208.06,-82.3"/>
</a>
</g>
</g>
<!-- Node11 -->
<g id="Node000011" class="node">
<title>Node11</title>
<g id="a_Node000011"><a xlink:href="../../d6/dc5/classproto_1_1ProtocolEndpoint.html#abfed28efa8dd14d2e45f194493e5816f" target="_top" xlink:title=" ">
<polygon fill="white" stroke="#666666" points="146,-78 15,-78 15,-48 146,-48 146,-78"/>
<text text-anchor="start" x="23" y="-66" font-family="Helvetica,sans-Serif" font-size="10.00">proto::ProtocolEndpoint</text>
<text text-anchor="middle" x="80.5" y="-55" font-family="Helvetica,sans-Serif" font-size="10.00">::send</text>
</a>
</g>
</g>
<!-- Node9&#45;&gt;Node11 -->
<g id="edge10_Node000009_Node000011" class="edge">
<title>Node9&#45;&gt;Node11</title>
<g id="a_edge10_Node000009_Node000011"><a xlink:title=" ">
<path fill="none" stroke="#63b8ff" d="M206.61,-63C187.17,-63 165.72,-63 146.16,-63"/>
<polygon fill="#63b8ff" stroke="#63b8ff" points="206.88,-66.5 216.88,-63 206.88,-59.5 206.88,-66.5"/>
</a>
</g>
</g>
<!-- Node12 -->
<g id="Node000012" class="node">
<title>Node12</title>
<g id="a_Node000012"><a xlink:href="../../d3/d19/classproto_1_1ProtocolNoSysEndpoint.html#a0edc938ab2c7d12ca9defdf25ab767b8" target="_top" xlink:title=" ">
<polygon fill="white" stroke="#666666" points="161,-30 0,-30 0,0 161,0 161,-30"/>
<text text-anchor="start" x="8" y="-18" font-family="Helvetica,sans-Serif" font-size="10.00">proto::ProtocolNoSysEndpoint</text>
<text text-anchor="middle" x="80.5" y="-7" font-family="Helvetica,sans-Serif" font-size="10.00">::send</text>
</a>
</g>
</g>
<!-- Node9&#45;&gt;Node12 -->
<g id="edge11_Node000009_Node000012" class="edge">
<title>Node9&#45;&gt;Node12</title>
<g id="a_edge11_Node000009_Node000012"><a xlink:title=" ">
<path fill="none" stroke="#63b8ff" d="M207.19,-47.09C185.67,-41.6 161.63,-35.46 140.39,-30.04"/>
<polygon fill="#63b8ff" stroke="#63b8ff" points="206.33,-50.48 216.88,-49.57 208.06,-43.7 206.33,-50.48"/>
</a>
</g>
</g>
</g>
</svg>
