<?xml version="1.0" encoding="UTF-8" standalone="no"?>
<!DOCTYPE svg PUBLIC "-//W3C//DTD SVG 1.1//EN"
 "http://www.w3.org/Graphics/SVG/1.1/DTD/svg11.dtd">
<!-- Generated by graphviz version 14.0.1 (20251006.0113)
 -->
<!-- Title: proto::meta::get_named Pages: 1 -->
<svg width="523pt" height="290pt"
 viewBox="0.00 0.00 523.00 290.00" xmlns="http://www.w3.org/2000/svg" xmlns:xlink="http://www.w3.org/1999/xlink">
<g id="graph0" class="graph" transform="scale(1 1) rotate(0) translate(4 285.5)">
<title>proto::meta::get_named</title>
<!-- Node1 -->
<g id="Node000001" class="node">
<title>Node1</title>
<g id="a_Node000001"><a xlink:title=" ">
<polygon fill="#999999" stroke="#666666" points="514.5,-94.88 395,-94.88 395,-75.62 514.5,-75.62 514.5,-94.88"/>
<text xml:space="preserve" text-anchor="middle" x="454.75" y="-81.38" font-family="Helvetica,sans-Serif" font-size="10.00">proto::meta::get_named</text>
</a>
</g>
</g>
<!-- Node1&#45;&gt;Node1 -->
<g id="edge9_Node000001_Node000001" class="edge">
<title>Node1&#45;&gt;Node1</title>
<g id="a_edge9_Node000001_Node000001"><a xlink:title=" ">
<path fill="none" stroke="#63b8ff" d="M487.57,-105.6C484.12,-109.83 473.18,-112.88 454.75,-112.88 422.87,-112.88 413.4,-103.77 426.35,-95.16"/>
<polygon fill="#63b8ff" stroke="#63b8ff" points="490.86,-104.4 483.74,-96.56 484.41,-107.13 490.86,-104.4"/>
</a>
</g>
</g>
<!-- Node2 -->
<g id="Node000002" class="node">
<title>Node2</title>
<g id="a_Node000002"><a xlink:href="../../d6/dd3/classproto_1_1lacte_1_1_lacte_host_protocol.html#a3222d318f611eae10e718af657624701" target="_top" xlink:title=" ">
<polygon fill="white" stroke="#666666" points="359,-153.88 187.75,-153.88 187.75,-134.62 359,-134.62 359,-153.88"/>
<text xml:space="preserve" text-anchor="middle" x="273.38" y="-140.38" font-family="Helvetica,sans-Serif" font-size="10.00">proto::lacte::LacteHostProtocol::get</text>
</a>
</g>
</g>
<!-- Node1&#45;&gt;Node2 -->
<g id="edge1_Node000001_Node000002" class="edge">
<title>Node1&#45;&gt;Node2</title>
<g id="a_edge1_Node000001_Node000002"><a xlink:title=" ">
<path fill="none" stroke="#63b8ff" d="M423.53,-100.16C405.21,-108.74 381.16,-119.18 359,-126.25 349.56,-129.26 339.36,-131.92 329.42,-134.2"/>
<polygon fill="#63b8ff" stroke="#63b8ff" points="424.98,-103.35 432.5,-95.89 421.97,-97.03 424.98,-103.35"/>
</a>
</g>
</g>
<!-- Node9 -->
<g id="Node000009" class="node">
<title>Node9</title>
<g id="a_Node000009"><a xlink:href="../../d8/d8f/namespaceproto_1_1meta.html#a2a8ae2e89afda121684319a7f62f7121" target="_top" xlink:title=" ">
<polygon fill="white" stroke="#666666" points="333.12,-116.88 213.62,-116.88 213.62,-97.62 333.12,-97.62 333.12,-116.88"/>
<text xml:space="preserve" text-anchor="middle" x="273.38" y="-103.38" font-family="Helvetica,sans-Serif" font-size="10.00">proto::meta::get_named</text>
</a>
</g>
</g>
<!-- Node1&#45;&gt;Node9 -->
<g id="edge8_Node000001_Node000009" class="edge">
<title>Node1&#45;&gt;Node9</title>
<g id="a_edge8_Node000001_Node000009"><a xlink:title=" ">
<path fill="none" stroke="#63b8ff" d="M383.29,-93.89C366.83,-95.91 349.46,-98.04 333.54,-99.99"/>
<polygon fill="#63b8ff" stroke="#63b8ff" points="383.52,-97.39 393.02,-92.7 382.66,-90.44 383.52,-97.39"/>
</a>
</g>
</g>
<!-- Node10 -->
<g id="Node000010" class="node">
<title>Node10</title>
<g id="a_Node000010"><a xlink:href="../../d3/d9e/classproto_1_1exo_atlant_1_1_exo_atlant_protocol__.html#ab292d3fc1828c447d3e9d654aff5fcda" target="_top" xlink:title="Разбор входящего блока данных">
<polygon fill="white" stroke="#666666" points="340.25,-79.5 206.5,-79.5 206.5,-49 340.25,-49 340.25,-79.5"/>
<text xml:space="preserve" text-anchor="start" x="214.5" y="-66" font-family="Helvetica,sans-Serif" font-size="10.00">proto::exoAtlant::ExoAtlant</text>
<text xml:space="preserve" text-anchor="middle" x="273.38" y="-54.75" font-family="Helvetica,sans-Serif" font-size="10.00">Protocol_::parse</text>
</a>
</g>
</g>
<!-- Node1&#45;&gt;Node10 -->
<g id="edge10_Node000001_Node000010" class="edge">
<title>Node1&#45;&gt;Node10</title>
<g id="a_edge10_Node000001_Node000010"><a xlink:title=" ">
<path fill="none" stroke="#63b8ff" d="M383.41,-77.01C369.34,-75.37 354.6,-73.64 340.67,-72.01"/>
<polygon fill="#63b8ff" stroke="#63b8ff" points="382.68,-80.45 393.02,-78.14 383.49,-73.5 382.68,-80.45"/>
</a>
</g>
</g>
<!-- Node11 -->
<g id="Node000011" class="node">
<title>Node11</title>
<g id="a_Node000011"><a xlink:href="../../d5/dd5/classproto_1_1lacte_1_1_virtual_board.html#ac7d2f1bb5331ad701afe7589a718c6ac" target="_top" xlink:title=" ">
<polygon fill="white" stroke="#666666" points="335.38,-30.5 211.38,-30.5 211.38,0 335.38,0 335.38,-30.5"/>
<text xml:space="preserve" text-anchor="start" x="219.38" y="-17" font-family="Helvetica,sans-Serif" font-size="10.00">proto::lacte::VirtualBoard</text>
<text xml:space="preserve" text-anchor="middle" x="273.38" y="-5.75" font-family="Helvetica,sans-Serif" font-size="10.00">::VirtualBoard</text>
</a>
</g>
</g>
<!-- Node1&#45;&gt;Node11 -->
<g id="edge11_Node000001_Node000011" class="edge">
<title>Node1&#45;&gt;Node11</title>
<g id="a_edge11_Node000001_Node000011"><a xlink:title=" ">
<path fill="none" stroke="#63b8ff" d="M424.78,-70.04C406.28,-60.7 381.61,-48.9 359,-40.25 350.41,-36.97 341.21,-33.85 332.14,-31"/>
<polygon fill="#63b8ff" stroke="#63b8ff" points="423.05,-73.09 433.55,-74.53 426.24,-66.86 423.05,-73.09"/>
</a>
</g>
</g>
<!-- Node3 -->
<g id="Node000003" class="node">
<title>Node3</title>
<g id="a_Node000003"><a xlink:href="../../d6/dd3/classproto_1_1lacte_1_1_lacte_host_protocol.html#af956203f98e365e127142084fbcc2e0e" target="_top" xlink:title=" ">
<polygon fill="white" stroke="#666666" points="151.75,-281.5 0,-281.5 0,-251 151.75,-251 151.75,-281.5"/>
<text xml:space="preserve" text-anchor="start" x="8" y="-268" font-family="Helvetica,sans-Serif" font-size="10.00">proto::lacte::LacteHostProtocol</text>
<text xml:space="preserve" text-anchor="middle" x="75.88" y="-256.75" font-family="Helvetica,sans-Serif" font-size="10.00">::get_info</text>
</a>
</g>
</g>
<!-- Node2&#45;&gt;Node3 -->
<g id="edge2_Node000002_Node000003" class="edge">
<title>Node2&#45;&gt;Node3</title>
<g id="a_edge2_Node000002_Node000003"><a xlink:title=" ">
<path fill="none" stroke="#63b8ff" d="M254.46,-162.13C232.12,-183.55 191.97,-219.29 151.75,-241.25 145.37,-244.73 138.43,-247.84 131.43,-250.59"/>
<polygon fill="#63b8ff" stroke="#63b8ff" points="256.83,-164.71 261.54,-155.22 251.94,-159.7 256.83,-164.71"/>
</a>
</g>
</g>
<!-- Node4 -->
<g id="Node000004" class="node">
<title>Node4</title>
<g id="a_Node000004"><a xlink:href="../../d6/dd3/classproto_1_1lacte_1_1_lacte_host_protocol.html#a8c12ff5726f58db9831b13382a0e2456" target="_top" xlink:title=" ">
<polygon fill="white" stroke="#666666" points="151.75,-232.5 0,-232.5 0,-202 151.75,-202 151.75,-232.5"/>
<text xml:space="preserve" text-anchor="start" x="8" y="-219" font-family="Helvetica,sans-Serif" font-size="10.00">proto::lacte::LacteHostProtocol</text>
<text xml:space="preserve" text-anchor="middle" x="75.88" y="-207.75" font-family="Helvetica,sans-Serif" font-size="10.00">::get_rfid</text>
</a>
</g>
</g>
<!-- Node2&#45;&gt;Node4 -->
<g id="edge3_Node000002_Node000004" class="edge">
<title>Node2&#45;&gt;Node4</title>
<g id="a_edge3_Node000002_Node000004"><a xlink:title=" ">
<path fill="none" stroke="#63b8ff" d="M238.13,-158.48C214.09,-168.31 181.12,-181.51 151.75,-192.25 143.25,-195.36 134.16,-198.52 125.35,-201.51"/>
<polygon fill="#63b8ff" stroke="#63b8ff" points="239.18,-161.83 247.1,-154.79 236.52,-155.35 239.18,-161.83"/>
</a>
</g>
</g>
<!-- Node5 -->
<g id="Node000005" class="node">
<title>Node5</title>
<g id="a_Node000005"><a xlink:href="../../d6/dd3/classproto_1_1lacte_1_1_lacte_host_protocol.html#a4a03daefcb8a0ca173c5c1006d55c83f" target="_top" xlink:title=" ">
<polygon fill="white" stroke="#666666" points="151.75,-183.5 0,-183.5 0,-153 151.75,-153 151.75,-183.5"/>
<text xml:space="preserve" text-anchor="start" x="8" y="-170" font-family="Helvetica,sans-Serif" font-size="10.00">proto::lacte::LacteHostProtocol</text>
<text xml:space="preserve" text-anchor="middle" x="75.88" y="-158.75" font-family="Helvetica,sans-Serif" font-size="10.00">::get_rfid_data</text>
</a>
</g>
</g>
<!-- Node2&#45;&gt;Node5 -->
<g id="edge4_Node000002_Node000005" class="edge">
<title>Node2&#45;&gt;Node5</title>
<g id="a_edge4_Node000002_Node000005"><a xlink:title=" ">
<path fill="none" stroke="#63b8ff" d="M178.72,-155.75C169.75,-156.85 160.73,-157.96 151.97,-159.03"/>
<polygon fill="#63b8ff" stroke="#63b8ff" points="179.03,-159.24 188.53,-154.54 178.18,-152.29 179.03,-159.24"/>
</a>
</g>
</g>
<!-- Node6 -->
<g id="Node000006" class="node">
<title>Node6</title>
<g id="a_Node000006"><a xlink:href="../../d6/dd3/classproto_1_1lacte_1_1_lacte_host_protocol.html#a5138dda64478785bb9a49d03ecf55805" target="_top" xlink:title=" ">
<polygon fill="white" stroke="#666666" points="151.75,-134.5 0,-134.5 0,-104 151.75,-104 151.75,-134.5"/>
<text xml:space="preserve" text-anchor="start" x="8" y="-121" font-family="Helvetica,sans-Serif" font-size="10.00">proto::lacte::LacteHostProtocol</text>
<text xml:space="preserve" text-anchor="middle" x="75.88" y="-109.75" font-family="Helvetica,sans-Serif" font-size="10.00">::get_uid</text>
</a>
</g>
</g>
<!-- Node2&#45;&gt;Node6 -->
<g id="edge5_Node000002_Node000006" class="edge">
<title>Node2&#45;&gt;Node6</title>
<g id="a_edge5_Node000002_Node000006"><a xlink:title=" ">
<path fill="none" stroke="#63b8ff" d="M182.12,-132.71C172.04,-131.42 161.86,-130.12 152,-128.86"/>
<polygon fill="#63b8ff" stroke="#63b8ff" points="181.56,-136.16 191.92,-133.96 182.44,-129.22 181.56,-136.16"/>
</a>
</g>
</g>
<!-- Node7 -->
<g id="Node000007" class="node">
<title>Node7</title>
<g id="a_Node000007"><a xlink:href="../../d6/dd3/classproto_1_1lacte_1_1_lacte_host_protocol.html#aebf52854ab0837d9e79a47412a1fb476" target="_top" xlink:title=" ">
<polygon fill="white" stroke="#666666" points="151.75,-85.5 0,-85.5 0,-55 151.75,-55 151.75,-85.5"/>
<text xml:space="preserve" text-anchor="start" x="8" y="-72" font-family="Helvetica,sans-Serif" font-size="10.00">proto::lacte::LacteHostProtocol</text>
<text xml:space="preserve" text-anchor="middle" x="75.88" y="-60.75" font-family="Helvetica,sans-Serif" font-size="10.00">::get_version</text>
</a>
</g>
</g>
<!-- Node2&#45;&gt;Node7 -->
<g id="edge6_Node000002_Node000007" class="edge">
<title>Node2&#45;&gt;Node7</title>
<g id="a_edge6_Node000002_Node000007"><a xlink:title=" ">
<path fill="none" stroke="#63b8ff" d="M197.48,-130.52C194.14,-129.22 190.88,-127.8 187.75,-126.25 168.83,-116.87 170.11,-105.68 151.75,-95.25 145.55,-91.73 138.79,-88.61 131.93,-85.87"/>
<polygon fill="#63b8ff" stroke="#63b8ff" points="196.33,-133.82 206.92,-133.76 198.6,-127.2 196.33,-133.82"/>
</a>
</g>
</g>
<!-- Node8 -->
<g id="Node000008" class="node">
<title>Node8</title>
<g id="a_Node000008"><a xlink:href="../../d6/dd3/classproto_1_1lacte_1_1_lacte_host_protocol.html#a60104e61b4a82a461c6c25a9c7c6703c" target="_top" xlink:title=" ">
<polygon fill="white" stroke="#666666" points="151.75,-36.5 0,-36.5 0,-6 151.75,-6 151.75,-36.5"/>
<text xml:space="preserve" text-anchor="start" x="8" y="-23" font-family="Helvetica,sans-Serif" font-size="10.00">proto::lacte::LacteHostProtocol</text>
<text xml:space="preserve" text-anchor="middle" x="75.88" y="-11.75" font-family="Helvetica,sans-Serif" font-size="10.00">::restart</text>
</a>
</g>
</g>
<!-- Node2&#45;&gt;Node8 -->
<g id="edge7_Node000002_Node000008" class="edge">
<title>Node2&#45;&gt;Node8</title>
<g id="a_edge7_Node000002_Node000008"><a xlink:title=" ">
<path fill="none" stroke="#63b8ff" d="M190.72,-128.49C189.7,-127.77 188.71,-127.03 187.75,-126.25 157.4,-101.77 180.67,-72.4 151.75,-46.25 147.79,-42.67 143.29,-39.59 138.52,-36.96"/>
<polygon fill="#63b8ff" stroke="#63b8ff" points="188.68,-131.36 199.08,-133.39 192.22,-125.32 188.68,-131.36"/>
</a>
</g>
</g>
</g>
</svg>
