<?xml version="1.0" encoding="UTF-8" standalone="no"?>
<!DOCTYPE svg PUBLIC "-//W3C//DTD SVG 1.1//EN"
 "http://www.w3.org/Graphics/SVG/1.1/DTD/svg11.dtd">
<!-- Generated by graphviz version 14.0.1 (20251006.0113)
 -->
<!-- Title: proto::lacte::InfoPacketType Pages: 1 -->
<svg width="292pt" height="100pt"
 viewBox="0.00 0.00 292.00 100.00" xmlns="http://www.w3.org/2000/svg" xmlns:xlink="http://www.w3.org/1999/xlink">
<g id="graph0" class="graph" transform="scale(1 1) rotate(0) translate(4 95.75)">
<title>proto::lacte::InfoPacketType</title>
<!-- Node1 -->
<g id="Node000001" class="node">
<title>Node1</title>
<g id="a_Node000001"><a xlink:title=" ">
<polygon fill="#999999" stroke="#666666" points="202.38,-19.25 63.38,-19.25 63.38,0 202.38,0 202.38,-19.25"/>
<text xml:space="preserve" text-anchor="middle" x="132.88" y="-5.75" font-family="Helvetica,sans-Serif" font-size="10.00">proto::lacte::InfoPacketType</text>
</a>
</g>
</g>
<!-- Node2 -->
<g id="Node000002" class="node">
<title>Node2</title>
<g id="a_Node000002"><a xlink:href="../../d9/d72/classproto_1_1lacte_1_1_error_flags.html" target="_top" xlink:title=" ">
<polygon fill="white" stroke="#666666" points="115.75,-91.75 0,-91.75 0,-72.5 115.75,-72.5 115.75,-91.75"/>
<text xml:space="preserve" text-anchor="middle" x="57.88" y="-78.25" font-family="Helvetica,sans-Serif" font-size="10.00">proto::lacte::ErrorFlags</text>
</a>
</g>
</g>
<!-- Node2&#45;&gt;Node1 -->
<g id="edge1_Node000001_Node000002" class="edge">
<title>Node2&#45;&gt;Node1</title>
<g id="a_edge1_Node000001_Node000002"><a xlink:title=" ">
<path fill="none" stroke="#9a32cd" stroke-dasharray="5,2" d="M75.35,-64.7C90.26,-50.68 111.14,-31.05 123.22,-19.7"/>
<polygon fill="#9a32cd" stroke="#9a32cd" points="73.37,-61.76 68.48,-71.16 78.16,-66.86 73.37,-61.76"/>
</a>
</g>
<text xml:space="preserve" text-anchor="start" x="107.3" y="-42" font-family="Helvetica,sans-Serif" font-size="10.00" fill="grey">m_errors</text>
</g>
<!-- Node3 -->
<g id="Node000003" class="node">
<title>Node3</title>
<g id="a_Node000003"><a xlink:href="../../df/d1b/structproto_1_1lacte_1_1_r_f_i_d_number_type.html" target="_top" xlink:title=" ">
<polygon fill="white" stroke="#666666" points="284,-91.75 133.75,-91.75 133.75,-72.5 284,-72.5 284,-91.75"/>
<text xml:space="preserve" text-anchor="middle" x="208.88" y="-78.25" font-family="Helvetica,sans-Serif" font-size="10.00">proto::lacte::RFIDNumberType</text>
</a>
</g>
</g>
<!-- Node3&#45;&gt;Node1 -->
<g id="edge2_Node000001_Node000003" class="edge">
<title>Node3&#45;&gt;Node1</title>
<g id="a_edge2_Node000001_Node000003"><a xlink:title=" ">
<path fill="none" stroke="#9a32cd" stroke-dasharray="5,2" d="M191.17,-64.7C176.06,-50.68 154.9,-31.05 142.66,-19.7"/>
<polygon fill="#9a32cd" stroke="#9a32cd" points="188.43,-66.93 198.14,-71.17 193.19,-61.8 188.43,-66.93"/>
</a>
</g>
<text xml:space="preserve" text-anchor="start" x="182.92" y="-42" font-family="Helvetica,sans-Serif" font-size="10.00" fill="grey">m_rfid</text>
</g>
</g>
</svg>
