<?xml version="1.0" encoding="UTF-8" standalone="no"?>
<!DOCTYPE svg PUBLIC "-//W3C//DTD SVG 1.1//EN"
 "http://www.w3.org/Graphics/SVG/1.1/DTD/svg11.dtd">
<!-- Generated by graphviz version 2.43.0 (0)
 -->
<!-- Title: proto::lacte::print_bytes Pages: 1 -->
<svg width="481pt" height="86pt"
 viewBox="0.00 0.00 481.00 86.00" xmlns="http://www.w3.org/2000/svg" xmlns:xlink="http://www.w3.org/1999/xlink">

<svg id="main" version="1.1" xmlns="http://www.w3.org/2000/svg" xmlns:xlink="http://www.w3.org/1999/xlink" xml:space="preserve" onload="init(evt)">
<style type="text/css"><![CDATA[
.node, .edge {opacity: 0.7;}
.node.selected, .edge.selected {opacity: 1;}
.edge:hover path { stroke: red; }
.edge:hover polygon { stroke: red; fill: red; }
]]></style>
<script type="application/ecmascript" xlink:href="../../svg.min.js"/>
<svg id="graph" class="graph">
<g id="graph0" class="graph" transform="scale(1 1) rotate(0) translate(4 82)">
<title>proto::lacte::print_bytes</title>
<!-- Node1 -->
<g id="Node000001" class="node">
<title>Node1</title>
<g id="a_Node000001"><a xlink:title=" ">
<polygon fill="#999999" stroke="#666666" points="473,-54 372,-54 372,-24 473,-24 473,-54"/>
<text text-anchor="start" x="380" y="-42" font-family="Helvetica,sans-Serif" font-size="10.00">proto::lacte::print</text>
<text text-anchor="middle" x="422.5" y="-31" font-family="Helvetica,sans-Serif" font-size="10.00">_bytes</text>
</a>
</g>
</g>
<!-- Node2 -->
<g id="Node000002" class="node">
<title>Node2</title>
<g id="a_Node000002"><a xlink:href="../../de/d3d/structproto_1_1lacte_1_1McuUid.html#a090bb8d96a5464b43391eeace187e992" target="_top" xlink:title=" ">
<polygon fill="white" stroke="#666666" points="318.5,-78 203.5,-78 203.5,-48 318.5,-48 318.5,-78"/>
<text text-anchor="start" x="211.5" y="-66" font-family="Helvetica,sans-Serif" font-size="10.00">proto::lacte::McuUid</text>
<text text-anchor="middle" x="261" y="-55" font-family="Helvetica,sans-Serif" font-size="10.00">::to_string</text>
</a>
</g>
</g>
<!-- Node1&#45;&gt;Node2 -->
<g id="edge1_Node000001_Node000002" class="edge">
<title>Node1&#45;&gt;Node2</title>
<g id="a_edge1_Node000001_Node000002"><a xlink:title=" ">
<path fill="none" stroke="#63b8ff" d="M361.78,-47.99C347.61,-50.12 332.55,-52.39 318.53,-54.49"/>
<polygon fill="#63b8ff" stroke="#63b8ff" points="362.54,-51.41 371.91,-46.46 361.5,-44.49 362.54,-51.41"/>
</a>
</g>
</g>
<!-- Node4 -->
<g id="Node000004" class="node">
<title>Node4</title>
<g id="a_Node000004"><a xlink:href="../../dd/dda/structproto_1_1lacte_1_1UIDPacketType.html#a68b1882859464bd7d06a28de085e09fa" target="_top" xlink:title=" ">
<polygon fill="white" stroke="#666666" points="336,-30 186,-30 186,0 336,0 336,-30"/>
<text text-anchor="start" x="194" y="-18" font-family="Helvetica,sans-Serif" font-size="10.00">proto::lacte::UIDPacketType</text>
<text text-anchor="middle" x="261" y="-7" font-family="Helvetica,sans-Serif" font-size="10.00">::to_string</text>
</a>
</g>
</g>
<!-- Node1&#45;&gt;Node4 -->
<g id="edge3_Node000001_Node000004" class="edge">
<title>Node1&#45;&gt;Node4</title>
<g id="a_edge3_Node000001_Node000004"><a xlink:title=" ">
<path fill="none" stroke="#63b8ff" d="M361.86,-30.03C353.48,-28.76 344.77,-27.45 336.15,-26.16"/>
<polygon fill="#63b8ff" stroke="#63b8ff" points="361.5,-33.51 371.91,-31.54 362.54,-26.59 361.5,-33.51"/>
</a>
</g>
</g>
<!-- Node3 -->
<g id="Node000003" class="node">
<title>Node3</title>
<g id="a_Node000003"><a xlink:href="../../de/d3d/structproto_1_1lacte_1_1McuUid.html#aa27b889f5d35a148814842b192a20ad0" target="_top" xlink:title=" ">
<polygon fill="white" stroke="#666666" points="132.5,-78 17.5,-78 17.5,-48 132.5,-48 132.5,-78"/>
<text text-anchor="start" x="25.5" y="-66" font-family="Helvetica,sans-Serif" font-size="10.00">proto::lacte::McuUid</text>
<text text-anchor="middle" x="75" y="-55" font-family="Helvetica,sans-Serif" font-size="10.00">::string</text>
</a>
</g>
</g>
<!-- Node2&#45;&gt;Node3 -->
<g id="edge2_Node000002_Node000003" class="edge">
<title>Node2&#45;&gt;Node3</title>
<g id="a_edge2_Node000002_Node000003"><a xlink:title=" ">
<path fill="none" stroke="#63b8ff" d="M193.08,-63C173.21,-63 151.66,-63 132.52,-63"/>
<polygon fill="#63b8ff" stroke="#63b8ff" points="193.29,-66.5 203.29,-63 193.29,-59.5 193.29,-66.5"/>
</a>
</g>
</g>
<!-- Node5 -->
<g id="Node000005" class="node">
<title>Node5</title>
<g id="a_Node000005"><a xlink:href="../../dd/dda/structproto_1_1lacte_1_1UIDPacketType.html#a87e1a05c3d72700088fba024008e164e" target="_top" xlink:title=" ">
<polygon fill="white" stroke="#666666" points="150,-30 0,-30 0,0 150,0 150,-30"/>
<text text-anchor="start" x="8" y="-18" font-family="Helvetica,sans-Serif" font-size="10.00">proto::lacte::UIDPacketType</text>
<text text-anchor="middle" x="75" y="-7" font-family="Helvetica,sans-Serif" font-size="10.00">::string</text>
</a>
</g>
</g>
<!-- Node4&#45;&gt;Node5 -->
<g id="edge4_Node000004_Node000005" class="edge">
<title>Node4&#45;&gt;Node5</title>
<g id="a_edge4_Node000004_Node000005"><a xlink:title=" ">
<path fill="none" stroke="#63b8ff" d="M175.93,-15C167.35,-15 158.66,-15 150.19,-15"/>
<polygon fill="#63b8ff" stroke="#63b8ff" points="175.96,-18.5 185.96,-15 175.96,-11.5 175.96,-18.5"/>
</a>
</g>
</g>
</g>
</svg>
</svg>

<style type='text/css'>
<![CDATA[
[data-mouse-over-selected='false'] { opacity: 0.7; }
[data-mouse-over-selected='true']  { opacity: 1.0; }
]]>
</style>
<script type="application/ecmascript"><![CDATA[
document.addEventListener('DOMContentLoaded', (event) => {
  highlightEdges();
  highlightAdjacentNodes();
});
]]></script>
</svg>
