<?xml version="1.0" encoding="UTF-8" standalone="no"?>
<!DOCTYPE svg PUBLIC "-//W3C//DTD SVG 1.1//EN"
 "http://www.w3.org/Graphics/SVG/1.1/DTD/svg11.dtd">
<!-- Generated by graphviz version 2.43.0 (0)
 -->
<!-- Title: proto::lacte::mask Pages: 1 -->
<svg width="464pt" height="126pt"
 viewBox="0.00 0.00 464.00 126.00" xmlns="http://www.w3.org/2000/svg" xmlns:xlink="http://www.w3.org/1999/xlink">

<svg id="main" version="1.1" xmlns="http://www.w3.org/2000/svg" xmlns:xlink="http://www.w3.org/1999/xlink" xml:space="preserve" onload="init(evt)">
<style type="text/css"><![CDATA[
.node, .edge {opacity: 0.7;}
.node.selected, .edge.selected {opacity: 1;}
.edge:hover path { stroke: red; }
.edge:hover polygon { stroke: red; fill: red; }
]]></style>
<script type="application/ecmascript" xlink:href="../../svg.min.js"/>
<svg id="graph" class="graph">
<g id="graph0" class="graph" transform="scale(1 1) rotate(0) translate(4 122)">
<title>proto::lacte::mask</title>
<!-- Node1 -->
<g id="Node000001" class="node">
<title>Node1</title>
<g id="a_Node000001"><a xlink:title=" ">
<polygon fill="#999999" stroke="#666666" points="456,-69.5 351,-69.5 351,-50.5 456,-50.5 456,-69.5"/>
<text text-anchor="middle" x="403.5" y="-57.5" font-family="Helvetica,sans-Serif" font-size="10.00">proto::lacte::mask</text>
</a>
</g>
</g>
<!-- Node2 -->
<g id="Node000002" class="node">
<title>Node2</title>
<g id="a_Node000002"><a xlink:href="../../d9/db4/classproto_1_1lacte_1_1ErrorFlags.html#a54a712a770dac1742b2d9963e48609be" target="_top" xlink:title=" ">
<polygon fill="white" stroke="#666666" points="303.5,-118 175.5,-118 175.5,-88 303.5,-88 303.5,-118"/>
<text text-anchor="start" x="183.5" y="-106" font-family="Helvetica,sans-Serif" font-size="10.00">proto::lacte::ErrorFlags</text>
<text text-anchor="middle" x="239.5" y="-95" font-family="Helvetica,sans-Serif" font-size="10.00">::ErrorFlags</text>
</a>
</g>
</g>
<!-- Node1&#45;&gt;Node2 -->
<g id="edge1_Node000001_Node000002" class="edge">
<title>Node1&#45;&gt;Node2</title>
<g id="a_edge1_Node000001_Node000002"><a xlink:title=" ">
<path fill="none" stroke="#63b8ff" d="M356.86,-72.12C338.28,-77.05 316.6,-82.8 297.04,-87.99"/>
<polygon fill="#63b8ff" stroke="#63b8ff" points="357.78,-75.49 366.55,-69.54 355.98,-68.73 357.78,-75.49"/>
</a>
</g>
</g>
<!-- Node3 -->
<g id="Node000003" class="node">
<title>Node3</title>
<g id="a_Node000003"><a xlink:href="../../d9/db4/classproto_1_1lacte_1_1ErrorFlags.html#a2dba95c61487cddca6e661194467606d" target="_top" xlink:title=" ">
<polygon fill="white" stroke="#666666" points="315,-69.5 164,-69.5 164,-50.5 315,-50.5 315,-69.5"/>
<text text-anchor="middle" x="239.5" y="-57.5" font-family="Helvetica,sans-Serif" font-size="10.00">proto::lacte::ErrorFlags::has</text>
</a>
</g>
</g>
<!-- Node1&#45;&gt;Node3 -->
<g id="edge2_Node000001_Node000003" class="edge">
<title>Node1&#45;&gt;Node3</title>
<g id="a_edge2_Node000001_Node000003"><a xlink:title=" ">
<path fill="none" stroke="#63b8ff" d="M340.72,-60C332.32,-60 323.63,-60 315.03,-60"/>
<polygon fill="#63b8ff" stroke="#63b8ff" points="340.8,-63.5 350.8,-60 340.8,-56.5 340.8,-63.5"/>
</a>
</g>
</g>
<!-- Node5 -->
<g id="Node000005" class="node">
<title>Node5</title>
<g id="a_Node000005"><a xlink:href="../../d9/db4/classproto_1_1lacte_1_1ErrorFlags.html#aeb541042b66e0772797a12b143543936" target="_top" xlink:title=" ">
<polygon fill="white" stroke="#666666" points="314,-29.5 165,-29.5 165,-10.5 314,-10.5 314,-29.5"/>
<text text-anchor="middle" x="239.5" y="-17.5" font-family="Helvetica,sans-Serif" font-size="10.00">proto::lacte::ErrorFlags::set</text>
</a>
</g>
</g>
<!-- Node1&#45;&gt;Node5 -->
<g id="edge4_Node000001_Node000005" class="edge">
<title>Node1&#45;&gt;Node5</title>
<g id="a_edge4_Node000001_Node000005"><a xlink:title=" ">
<path fill="none" stroke="#63b8ff" d="M353.74,-47.96C329.8,-42.05 301.37,-35.03 278.99,-29.5"/>
<polygon fill="#63b8ff" stroke="#63b8ff" points="353.15,-51.42 363.7,-50.42 354.83,-44.62 353.15,-51.42"/>
</a>
</g>
</g>
<!-- Node4 -->
<g id="Node000004" class="node">
<title>Node4</title>
<g id="a_Node000004"><a xlink:href="../../d9/db4/classproto_1_1lacte_1_1ErrorFlags.html#a02d6289796f35e3491b51103a705b459" target="_top" xlink:title=" ">
<polygon fill="white" stroke="#666666" points="128,-78 0,-78 0,-48 128,-48 128,-78"/>
<text text-anchor="start" x="8" y="-66" font-family="Helvetica,sans-Serif" font-size="10.00">proto::lacte::ErrorFlags</text>
<text text-anchor="middle" x="64" y="-55" font-family="Helvetica,sans-Serif" font-size="10.00">::list</text>
</a>
</g>
</g>
<!-- Node3&#45;&gt;Node4 -->
<g id="edge3_Node000003_Node000004" class="edge">
<title>Node3&#45;&gt;Node4</title>
<g id="a_edge3_Node000003_Node000004"><a xlink:title=" ">
<path fill="none" stroke="#63b8ff" d="M153.79,-61.46C145.13,-61.61 136.45,-61.76 128.08,-61.91"/>
<polygon fill="#63b8ff" stroke="#63b8ff" points="153.98,-64.96 163.91,-61.29 153.85,-57.96 153.98,-64.96"/>
</a>
</g>
</g>
<!-- Node6 -->
<g id="Node000006" class="node">
<title>Node6</title>
<g id="a_Node000006"><a xlink:href="../../d9/db4/classproto_1_1lacte_1_1ErrorFlags.html#a3c88af0107e585bc7464246ee93cc10b" target="_top" xlink:title=" ">
<polygon fill="white" stroke="#666666" points="128,-30 0,-30 0,0 128,0 128,-30"/>
<text text-anchor="start" x="8" y="-18" font-family="Helvetica,sans-Serif" font-size="10.00">proto::lacte::ErrorFlags</text>
<text text-anchor="middle" x="64" y="-7" font-family="Helvetica,sans-Serif" font-size="10.00">::ErrorFlags</text>
</a>
</g>
</g>
<!-- Node5&#45;&gt;Node6 -->
<g id="edge5_Node000005_Node000006" class="edge">
<title>Node5&#45;&gt;Node6</title>
<g id="a_edge5_Node000005_Node000006"><a xlink:title=" ">
<path fill="none" stroke="#63b8ff" d="M154.78,-17.59C145.77,-17.33 136.71,-17.07 128,-16.82"/>
<polygon fill="#63b8ff" stroke="#63b8ff" points="154.82,-21.09 164.92,-17.88 155.03,-14.09 154.82,-21.09"/>
</a>
</g>
</g>
</g>
</svg>
</svg>

<style type='text/css'>
<![CDATA[
[data-mouse-over-selected='false'] { opacity: 0.7; }
[data-mouse-over-selected='true']  { opacity: 1.0; }
]]>
</style>
<script type="application/ecmascript"><![CDATA[
document.addEventListener('DOMContentLoaded', (event) => {
  highlightEdges();
  highlightAdjacentNodes();
});
]]></script>
</svg>
