<?xml version="1.0" encoding="UTF-8" standalone="no"?>
<!DOCTYPE svg PUBLIC "-//W3C//DTD SVG 1.1//EN"
 "http://www.w3.org/Graphics/SVG/1.1/DTD/svg11.dtd">
<!-- Generated by graphviz version 2.43.0 (0)
 -->
<!-- Title: proto::lacte::to_string Pages: 1 -->
<svg width="301pt" height="284pt"
 viewBox="0.00 0.00 301.00 283.50" xmlns="http://www.w3.org/2000/svg" xmlns:xlink="http://www.w3.org/1999/xlink">
<g id="graph0" class="graph" transform="scale(1 1) rotate(0) translate(4 279.5)">
<title>proto::lacte::to_string</title>
<!-- Node1 -->
<g id="Node000001" class="node">
<title>Node1</title>
<g id="a_Node000001"><a xlink:title=" ">
<polygon fill="#999999" stroke="#666666" points="293,-142 172,-142 172,-123 293,-123 293,-142"/>
<text text-anchor="middle" x="232.5" y="-130" font-family="Helvetica,sans-Serif" font-size="10.00">proto::lacte::to_string</text>
</a>
</g>
</g>
<!-- Node2 -->
<g id="Node000002" class="node">
<title>Node2</title>
<g id="a_Node000002"><a xlink:href="../../db/db3/classproto_1_1lacte_1_1BoardErrorDiff.html#a1b09cf1bdc3afff7281a9ac43080d1b6" target="_top" xlink:title=" ">
<polygon fill="white" stroke="#666666" points="133,-275.5 3,-275.5 3,-245.5 133,-245.5 133,-275.5"/>
<text text-anchor="start" x="11" y="-263.5" font-family="Helvetica,sans-Serif" font-size="10.00">proto::lacte::BoardError</text>
<text text-anchor="middle" x="68" y="-252.5" font-family="Helvetica,sans-Serif" font-size="10.00">Diff::BoardErrorDiff</text>
</a>
</g>
</g>
<!-- Node1&#45;&gt;Node2 -->
<g id="edge1_Node000001_Node000002" class="edge">
<title>Node1&#45;&gt;Node2</title>
<g id="a_edge1_Node000001_Node000002"><a xlink:title=" ">
<path fill="none" stroke="#63b8ff" d="M219.08,-150.75C202.58,-173.73 171.36,-213.03 136,-236.5 130.96,-239.85 125.39,-242.79 119.68,-245.37"/>
<polygon fill="#63b8ff" stroke="#63b8ff" points="222.15,-152.47 225.03,-142.27 216.42,-148.44 222.15,-152.47"/>
</a>
</g>
</g>
<!-- Node3 -->
<g id="Node000003" class="node">
<title>Node3</title>
<g id="a_Node000003"><a xlink:href="../../d9/db4/classproto_1_1lacte_1_1ErrorFlags.html#a3c88af0107e585bc7464246ee93cc10b" target="_top" xlink:title=" ">
<polygon fill="white" stroke="#666666" points="132,-227.5 4,-227.5 4,-197.5 132,-197.5 132,-227.5"/>
<text text-anchor="start" x="12" y="-215.5" font-family="Helvetica,sans-Serif" font-size="10.00">proto::lacte::ErrorFlags</text>
<text text-anchor="middle" x="68" y="-204.5" font-family="Helvetica,sans-Serif" font-size="10.00">::ErrorFlags</text>
</a>
</g>
</g>
<!-- Node1&#45;&gt;Node3 -->
<g id="edge2_Node000001_Node000003" class="edge">
<title>Node1&#45;&gt;Node3</title>
<g id="a_edge2_Node000001_Node000003"><a xlink:title=" ">
<path fill="none" stroke="#63b8ff" d="M208.54,-147.61C189.59,-159.66 161.74,-176.47 136,-188.5 129.17,-191.69 121.79,-194.72 114.52,-197.49"/>
<polygon fill="#63b8ff" stroke="#63b8ff" points="210.56,-150.47 217.08,-142.11 206.77,-144.58 210.56,-150.47"/>
</a>
</g>
</g>
<!-- Node4 -->
<g id="Node000004" class="node">
<title>Node4</title>
<g id="a_Node000004"><a xlink:href="../../d3/d81/namespaceproto_1_1lacte.html#ab3e200cb44eff7d1a0c43991f9345cec" target="_top" xlink:title=" ">
<polygon fill="white" stroke="#666666" points="136,-179 0,-179 0,-160 136,-160 136,-179"/>
<text text-anchor="middle" x="68" y="-167" font-family="Helvetica,sans-Serif" font-size="10.00">proto::lacte::operator&lt;&lt;</text>
</a>
</g>
</g>
<!-- Node1&#45;&gt;Node4 -->
<g id="edge3_Node000001_Node000004" class="edge">
<title>Node1&#45;&gt;Node4</title>
<g id="a_edge3_Node000001_Node000004"><a xlink:title=" ">
<path fill="none" stroke="#63b8ff" d="M179.73,-144.29C157.54,-149.34 131.97,-155.16 110.99,-159.94"/>
<polygon fill="#63b8ff" stroke="#63b8ff" points="180.68,-147.66 189.65,-142.03 179.12,-140.84 180.68,-147.66"/>
</a>
</g>
</g>
<!-- Node5 -->
<g id="Node000005" class="node">
<title>Node5</title>
<g id="a_Node000005"><a xlink:href="../../d3/d81/namespaceproto_1_1lacte.html#a8e059adc76ca059dc745bb461ab1a734" target="_top" xlink:title=" ">
<polygon fill="white" stroke="#666666" points="136,-142 0,-142 0,-123 136,-123 136,-142"/>
<text text-anchor="middle" x="68" y="-130" font-family="Helvetica,sans-Serif" font-size="10.00">proto::lacte::operator&lt;&lt;</text>
</a>
</g>
</g>
<!-- Node1&#45;&gt;Node5 -->
<g id="edge4_Node000001_Node000005" class="edge">
<title>Node1&#45;&gt;Node5</title>
<g id="a_edge4_Node000001_Node000005"><a xlink:title=" ">
<path fill="none" stroke="#63b8ff" d="M161.73,-132.5C153.28,-132.5 144.67,-132.5 136.27,-132.5"/>
<polygon fill="#63b8ff" stroke="#63b8ff" points="161.91,-136 171.91,-132.5 161.91,-129 161.91,-136"/>
</a>
</g>
</g>
<!-- Node6 -->
<g id="Node000006" class="node">
<title>Node6</title>
<g id="a_Node000006"><a xlink:href="../../d3/d81/namespaceproto_1_1lacte.html#ade4b9a3162f7661c9b74f3c5dbbdd36a" target="_top" xlink:title=" ">
<polygon fill="white" stroke="#666666" points="136,-105 0,-105 0,-86 136,-86 136,-105"/>
<text text-anchor="middle" x="68" y="-93" font-family="Helvetica,sans-Serif" font-size="10.00">proto::lacte::operator&lt;&lt;</text>
</a>
</g>
</g>
<!-- Node1&#45;&gt;Node6 -->
<g id="edge5_Node000001_Node000006" class="edge">
<title>Node1&#45;&gt;Node6</title>
<g id="a_edge5_Node000001_Node000006"><a xlink:title=" ">
<path fill="none" stroke="#63b8ff" d="M179.73,-120.71C157.54,-115.66 131.97,-109.84 110.99,-105.06"/>
<polygon fill="#63b8ff" stroke="#63b8ff" points="179.12,-124.16 189.65,-122.97 180.68,-117.34 179.12,-124.16"/>
</a>
</g>
</g>
<!-- Node7 -->
<g id="Node000007" class="node">
<title>Node7</title>
<g id="a_Node000007"><a xlink:href="../../db/db3/classproto_1_1lacte_1_1BoardErrorDiff.html#a49e688b8233e2046f0d3e2fcc267ad7c" target="_top" xlink:title=" ">
<polygon fill="white" stroke="#666666" points="133,-67.5 3,-67.5 3,-37.5 133,-37.5 133,-67.5"/>
<text text-anchor="start" x="11" y="-55.5" font-family="Helvetica,sans-Serif" font-size="10.00">proto::lacte::BoardError</text>
<text text-anchor="middle" x="68" y="-44.5" font-family="Helvetica,sans-Serif" font-size="10.00">Diff::to_string</text>
</a>
</g>
</g>
<!-- Node1&#45;&gt;Node7 -->
<g id="edge6_Node000001_Node000007" class="edge">
<title>Node1&#45;&gt;Node7</title>
<g id="a_edge6_Node000001_Node000007"><a xlink:title=" ">
<path fill="none" stroke="#63b8ff" d="M208.13,-117.58C189.14,-105.82 161.44,-89.47 136,-77.5 128.59,-74.01 120.54,-70.66 112.68,-67.61"/>
<polygon fill="#63b8ff" stroke="#63b8ff" points="206.36,-120.61 216.7,-122.94 210.08,-114.67 206.36,-120.61"/>
</a>
</g>
</g>
<!-- Node8 -->
<g id="Node000008" class="node">
<title>Node8</title>
<g id="a_Node000008"><a xlink:href="../../d3/d81/namespaceproto_1_1lacte.html#a87e4fa5e1440887689d672fc4d876b9d" target="_top" xlink:title=" ">
<polygon fill="white" stroke="#666666" points="128.5,-19 7.5,-19 7.5,0 128.5,0 128.5,-19"/>
<text text-anchor="middle" x="68" y="-7" font-family="Helvetica,sans-Serif" font-size="10.00">proto::lacte::to_string</text>
</a>
</g>
</g>
<!-- Node1&#45;&gt;Node8 -->
<g id="edge7_Node000001_Node000008" class="edge">
<title>Node1&#45;&gt;Node8</title>
<g id="a_edge7_Node000001_Node000008"><a xlink:title=" ">
<path fill="none" stroke="#63b8ff" d="M219.78,-114.53C203.67,-91.24 172.48,-50.97 136,-28.5 129.72,-24.63 122.63,-21.53 115.47,-19.04"/>
<polygon fill="#63b8ff" stroke="#63b8ff" points="216.88,-116.49 225.38,-122.82 222.69,-112.58 216.88,-116.49"/>
</a>
</g>
</g>
</g>
</svg>
