<?xml version="1.0" encoding="UTF-8" standalone="no"?>
<!DOCTYPE svg PUBLIC "-//W3C//DTD SVG 1.1//EN"
 "http://www.w3.org/Graphics/SVG/1.1/DTD/svg11.dtd">
<!-- Generated by graphviz version 2.43.0 (0)
 -->
<!-- Title: proto::lacte::parse_uint_sv Pages: 1 -->
<svg width="301pt" height="518pt"
 viewBox="0.00 0.00 301.00 518.00" xmlns="http://www.w3.org/2000/svg" xmlns:xlink="http://www.w3.org/1999/xlink">
<g id="graph0" class="graph" transform="scale(1 1) rotate(0) translate(4 514)">
<title>proto::lacte::parse_uint_sv</title>
<!-- Node1 -->
<g id="Node000001" class="node">
<title>Node1</title>
<g id="a_Node000001"><a xlink:title=" ">
<polygon fill="#999999" stroke="#666666" points="293,-270 188,-270 188,-240 293,-240 293,-270"/>
<text text-anchor="start" x="196" y="-258" font-family="Helvetica,sans-Serif" font-size="10.00">proto::lacte::parse</text>
<text text-anchor="middle" x="240.5" y="-247" font-family="Helvetica,sans-Serif" font-size="10.00">_uint_sv</text>
</a>
</g>
</g>
<!-- Node2 -->
<g id="Node000002" class="node">
<title>Node2</title>
<g id="a_Node000002"><a xlink:href="../../da/d99/structproto_1_1lacte_1_1ActivationTime.html#ade9b8772ddc9ad463c280ac3f751ed85" target="_top" xlink:title=" ">
<polygon fill="white" stroke="#666666" points="140,-510 12,-510 12,-480 140,-480 140,-510"/>
<text text-anchor="start" x="20" y="-498" font-family="Helvetica,sans-Serif" font-size="10.00">proto::lacte::Activation</text>
<text text-anchor="middle" x="76" y="-487" font-family="Helvetica,sans-Serif" font-size="10.00">Time::ActivationTime</text>
</a>
</g>
</g>
<!-- Node1&#45;&gt;Node2 -->
<g id="edge1_Node000001_Node000002" class="edge">
<title>Node1&#45;&gt;Node2</title>
<g id="a_edge1_Node000001_Node000002"><a xlink:title=" ">
<path fill="none" stroke="#63b8ff" d="M236.32,-280.03C229.33,-324.76 208.45,-418.64 152,-471 148.29,-474.44 144.09,-477.39 139.61,-479.91"/>
<polygon fill="#63b8ff" stroke="#63b8ff" points="239.8,-280.41 237.78,-270.01 232.88,-279.4 239.8,-280.41"/>
</a>
</g>
</g>
<!-- Node3 -->
<g id="Node000003" class="node">
<title>Node3</title>
<g id="a_Node000003"><a xlink:href="../../d9/d59/structproto_1_1lacte_1_1DrinkCounter.html#a25a0408b9029224deae1f35cbcb4c97e" target="_top" xlink:title=" ">
<polygon fill="white" stroke="#666666" points="147.5,-462 4.5,-462 4.5,-432 147.5,-432 147.5,-462"/>
<text text-anchor="start" x="12.5" y="-450" font-family="Helvetica,sans-Serif" font-size="10.00">proto::lacte::DrinkCounter</text>
<text text-anchor="middle" x="76" y="-439" font-family="Helvetica,sans-Serif" font-size="10.00">::DrinkCounter</text>
</a>
</g>
</g>
<!-- Node1&#45;&gt;Node3 -->
<g id="edge2_Node000001_Node000003" class="edge">
<title>Node1&#45;&gt;Node3</title>
<g id="a_edge2_Node000001_Node000003"><a xlink:title=" ">
<path fill="none" stroke="#63b8ff" d="M233.11,-279.86C222.45,-316.45 197.55,-384.62 152,-423 147.92,-426.44 143.35,-429.38 138.52,-431.91"/>
<polygon fill="#63b8ff" stroke="#63b8ff" points="236.55,-280.58 235.86,-270.01 229.8,-278.7 236.55,-280.58"/>
</a>
</g>
</g>
<!-- Node4 -->
<g id="Node000004" class="node">
<title>Node4</title>
<g id="a_Node000004"><a xlink:href="../../d3/dec/structproto_1_1lacte_1_1LacteId.html#a2152a76aeb6e567ded2cf96dfb05a669" target="_top" xlink:title=" ">
<polygon fill="white" stroke="#666666" points="132.5,-414 19.5,-414 19.5,-384 132.5,-384 132.5,-414"/>
<text text-anchor="start" x="27.5" y="-402" font-family="Helvetica,sans-Serif" font-size="10.00">proto::lacte::LacteId</text>
<text text-anchor="middle" x="76" y="-391" font-family="Helvetica,sans-Serif" font-size="10.00">::LacteId</text>
</a>
</g>
</g>
<!-- Node1&#45;&gt;Node4 -->
<g id="edge3_Node000001_Node000004" class="edge">
<title>Node1&#45;&gt;Node4</title>
<g id="a_edge3_Node000001_Node000004"><a xlink:title=" ">
<path fill="none" stroke="#63b8ff" d="M227.67,-279.51C213.37,-306.65 186.82,-349.87 152,-375 146.12,-379.24 139.47,-382.75 132.6,-385.66"/>
<polygon fill="#63b8ff" stroke="#63b8ff" points="230.94,-280.8 232.38,-270.3 224.71,-277.61 230.94,-280.8"/>
</a>
</g>
</g>
<!-- Node5 -->
<g id="Node000005" class="node">
<title>Node5</title>
<g id="a_Node000005"><a xlink:href="../../db/daa/structproto_1_1lacte_1_1LacteSn.html#abf986bb0d8f5d47093b328ceeddcbdd4" target="_top" xlink:title=" ">
<polygon fill="white" stroke="#666666" points="134,-366 18,-366 18,-336 134,-336 134,-366"/>
<text text-anchor="start" x="26" y="-354" font-family="Helvetica,sans-Serif" font-size="10.00">proto::lacte::LacteSn</text>
<text text-anchor="middle" x="76" y="-343" font-family="Helvetica,sans-Serif" font-size="10.00">::LacteSn</text>
</a>
</g>
</g>
<!-- Node1&#45;&gt;Node5 -->
<g id="edge4_Node000001_Node000005" class="edge">
<title>Node1&#45;&gt;Node5</title>
<g id="a_edge4_Node000001_Node000005"><a xlink:title=" ">
<path fill="none" stroke="#63b8ff" d="M217.11,-277.52C200.4,-293.25 176.34,-313.73 152,-327 145.88,-330.34 139.22,-333.3 132.48,-335.9"/>
<polygon fill="#63b8ff" stroke="#63b8ff" points="219.91,-279.68 224.7,-270.23 215.06,-274.64 219.91,-279.68"/>
</a>
</g>
</g>
<!-- Node6 -->
<g id="Node000006" class="node">
<title>Node6</title>
<g id="a_Node000006"><a xlink:href="../../d7/d46/structproto_1_1lacte_1_1MachineSn.html#a8cbef160ab13397b51bd9500b504b114" target="_top" xlink:title=" ">
<polygon fill="white" stroke="#666666" points="141.5,-318 10.5,-318 10.5,-288 141.5,-288 141.5,-318"/>
<text text-anchor="start" x="18.5" y="-306" font-family="Helvetica,sans-Serif" font-size="10.00">proto::lacte::MachineSn</text>
<text text-anchor="middle" x="76" y="-295" font-family="Helvetica,sans-Serif" font-size="10.00">::MachineSn</text>
</a>
</g>
</g>
<!-- Node1&#45;&gt;Node6 -->
<g id="edge5_Node000001_Node000006" class="edge">
<title>Node1&#45;&gt;Node6</title>
<g id="a_edge5_Node000001_Node000006"><a xlink:title=" ">
<path fill="none" stroke="#63b8ff" d="M178.81,-272.93C162.01,-277.89 143.96,-283.22 127.79,-288"/>
<polygon fill="#63b8ff" stroke="#63b8ff" points="179.93,-276.25 188.53,-270.06 177.95,-269.53 179.93,-276.25"/>
</a>
</g>
</g>
<!-- Node7 -->
<g id="Node000007" class="node">
<title>Node7</title>
<g id="a_Node000007"><a xlink:href="../../d6/dbf/structproto_1_1lacte_1_1MagicWord.html#afc7d90ff56595bf4e86246220adc87be" target="_top" xlink:title=" ">
<polygon fill="white" stroke="#666666" points="142,-270 10,-270 10,-240 142,-240 142,-270"/>
<text text-anchor="start" x="18" y="-258" font-family="Helvetica,sans-Serif" font-size="10.00">proto::lacte::MagicWord</text>
<text text-anchor="middle" x="76" y="-247" font-family="Helvetica,sans-Serif" font-size="10.00">::MagicWord</text>
</a>
</g>
</g>
<!-- Node1&#45;&gt;Node7 -->
<g id="edge6_Node000001_Node000007" class="edge">
<title>Node1&#45;&gt;Node7</title>
<g id="a_edge6_Node000001_Node000007"><a xlink:title=" ">
<path fill="none" stroke="#63b8ff" d="M177.59,-255C165.97,-255 153.78,-255 142.07,-255"/>
<polygon fill="#63b8ff" stroke="#63b8ff" points="177.64,-258.5 187.64,-255 177.64,-251.5 177.64,-258.5"/>
</a>
</g>
</g>
<!-- Node8 -->
<g id="Node000008" class="node">
<title>Node8</title>
<g id="a_Node000008"><a xlink:href="../../dc/d74/structproto_1_1lacte_1_1ProdDate.html#a5aa15ecf2a28bb424d87457071d33dca" target="_top" xlink:title=" ">
<polygon fill="white" stroke="#666666" points="137.5,-222 14.5,-222 14.5,-192 137.5,-192 137.5,-222"/>
<text text-anchor="start" x="22.5" y="-210" font-family="Helvetica,sans-Serif" font-size="10.00">proto::lacte::ProdDate</text>
<text text-anchor="middle" x="76" y="-199" font-family="Helvetica,sans-Serif" font-size="10.00">::ProdDate</text>
</a>
</g>
</g>
<!-- Node1&#45;&gt;Node8 -->
<g id="edge7_Node000001_Node000008" class="edge">
<title>Node1&#45;&gt;Node8</title>
<g id="a_edge7_Node000001_Node000008"><a xlink:title=" ">
<path fill="none" stroke="#63b8ff" d="M178.81,-237.07C162.01,-232.11 143.96,-226.78 127.79,-222"/>
<polygon fill="#63b8ff" stroke="#63b8ff" points="177.95,-240.47 188.53,-239.94 179.93,-233.75 177.95,-240.47"/>
</a>
</g>
</g>
<!-- Node9 -->
<g id="Node000009" class="node">
<title>Node9</title>
<g id="a_Node000009"><a xlink:href="../../d1/df0/structproto_1_1lacte_1_1ProductShelfLife.html#ae16e9a3a1e685ce474fd870090b4f1b5" target="_top" xlink:title=" ">
<polygon fill="white" stroke="#666666" points="146,-174 6,-174 6,-144 146,-144 146,-174"/>
<text text-anchor="start" x="14" y="-162" font-family="Helvetica,sans-Serif" font-size="10.00">proto::lacte::ProductShelf</text>
<text text-anchor="middle" x="76" y="-151" font-family="Helvetica,sans-Serif" font-size="10.00">Life::ProductShelfLife</text>
</a>
</g>
</g>
<!-- Node1&#45;&gt;Node9 -->
<g id="edge8_Node000001_Node000009" class="edge">
<title>Node1&#45;&gt;Node9</title>
<g id="a_edge8_Node000001_Node000009"><a xlink:title=" ">
<path fill="none" stroke="#63b8ff" d="M217.11,-232.48C200.4,-216.75 176.34,-196.27 152,-183 145.88,-179.66 139.22,-176.7 132.48,-174.1"/>
<polygon fill="#63b8ff" stroke="#63b8ff" points="215.06,-235.36 224.7,-239.77 219.91,-230.32 215.06,-235.36"/>
</a>
</g>
</g>
<!-- Node10 -->
<g id="Node000010" class="node">
<title>Node10</title>
<g id="a_Node000010"><a xlink:href="../../d2/da1/structproto_1_1lacte_1_1ProductVolume.html#a5f80165d79df6e9601122add8217b984" target="_top" xlink:title=" ">
<polygon fill="white" stroke="#666666" points="152,-126 0,-126 0,-96 152,-96 152,-126"/>
<text text-anchor="start" x="8" y="-114" font-family="Helvetica,sans-Serif" font-size="10.00">proto::lacte::ProductVolume</text>
<text text-anchor="middle" x="76" y="-103" font-family="Helvetica,sans-Serif" font-size="10.00">::ProductVolume</text>
</a>
</g>
</g>
<!-- Node1&#45;&gt;Node10 -->
<g id="edge9_Node000001_Node000010" class="edge">
<title>Node1&#45;&gt;Node10</title>
<g id="a_edge9_Node000001_Node000010"><a xlink:title=" ">
<path fill="none" stroke="#63b8ff" d="M227.67,-230.49C213.37,-203.35 186.82,-160.13 152,-135 147.23,-131.56 141.95,-128.6 136.46,-126.05"/>
<polygon fill="#63b8ff" stroke="#63b8ff" points="224.71,-232.39 232.38,-239.7 230.94,-229.2 224.71,-232.39"/>
</a>
</g>
</g>
<!-- Node11 -->
<g id="Node000011" class="node">
<title>Node11</title>
<g id="a_Node000011"><a xlink:href="../../df/dbe/structproto_1_1lacte_1_1TimeCounter.html#a1af21128c8e5a9d7d9059e804ed361ac" target="_top" xlink:title=" ">
<polygon fill="white" stroke="#666666" points="146.5,-78 5.5,-78 5.5,-48 146.5,-48 146.5,-78"/>
<text text-anchor="start" x="13.5" y="-66" font-family="Helvetica,sans-Serif" font-size="10.00">proto::lacte::TimeCounter</text>
<text text-anchor="middle" x="76" y="-55" font-family="Helvetica,sans-Serif" font-size="10.00">::TimeCounter</text>
</a>
</g>
</g>
<!-- Node1&#45;&gt;Node11 -->
<g id="edge10_Node000001_Node000011" class="edge">
<title>Node1&#45;&gt;Node11</title>
<g id="a_edge10_Node000001_Node000011"><a xlink:title=" ">
<path fill="none" stroke="#63b8ff" d="M233.11,-230.14C222.45,-193.55 197.55,-125.38 152,-87 147.92,-83.56 143.35,-80.62 138.52,-78.09"/>
<polygon fill="#63b8ff" stroke="#63b8ff" points="229.8,-231.3 235.86,-239.99 236.55,-229.42 229.8,-231.3"/>
</a>
</g>
</g>
<!-- Node12 -->
<g id="Node000012" class="node">
<title>Node12</title>
<g id="a_Node000012"><a xlink:href="../../d9/d77/structproto_1_1lacte_1_1UsageTime.html#a6481277125b16dcce69451a90fe94325" target="_top" xlink:title=" ">
<polygon fill="white" stroke="#666666" points="143,-30 9,-30 9,0 143,0 143,-30"/>
<text text-anchor="start" x="17" y="-18" font-family="Helvetica,sans-Serif" font-size="10.00">proto::lacte::UsageTime</text>
<text text-anchor="middle" x="76" y="-7" font-family="Helvetica,sans-Serif" font-size="10.00">::UsageTime</text>
</a>
</g>
</g>
<!-- Node1&#45;&gt;Node12 -->
<g id="edge11_Node000001_Node000012" class="edge">
<title>Node1&#45;&gt;Node12</title>
<g id="a_edge11_Node000001_Node000012"><a xlink:title=" ">
<path fill="none" stroke="#63b8ff" d="M236.32,-229.97C229.33,-185.24 208.45,-91.36 152,-39 148.29,-35.56 144.09,-32.61 139.61,-30.09"/>
<polygon fill="#63b8ff" stroke="#63b8ff" points="232.88,-230.6 237.78,-239.99 239.8,-229.59 232.88,-230.6"/>
</a>
</g>
</g>
</g>
</svg>
