<?xml version="1.0" encoding="UTF-8" standalone="no"?>
<!DOCTYPE svg PUBLIC "-//W3C//DTD SVG 1.1//EN"
 "http://www.w3.org/Graphics/SVG/1.1/DTD/svg11.dtd">
<!-- Generated by graphviz version 2.43.0 (0)
 -->
<!-- Title: Interface.hpp Pages: 1 -->
<svg width="389pt" height="302pt"
 viewBox="0.00 0.00 389.14 302.00" xmlns="http://www.w3.org/2000/svg" xmlns:xlink="http://www.w3.org/1999/xlink">
<g id="graph0" class="graph" transform="scale(1 1) rotate(0) translate(4 298)">
<title>Interface.hpp</title>
<!-- Node1 -->
<g id="Node000001" class="node">
<title>Node1</title>
<g id="a_Node000001"><a xlink:title=" ">
<polygon fill="#999999" stroke="#666666" points="327.14,-294 246.14,-294 246.14,-275 327.14,-275 327.14,-294"/>
<text text-anchor="middle" x="286.64" y="-282" font-family="Helvetica,sans-Serif" font-size="10.00">Interface.hpp</text>
</a>
</g>
</g>
<!-- Node2 -->
<g id="Node000002" class="node">
<title>Node2</title>
<g id="a_Node000002"><a xlink:href="../../d9/d32/TxContainer_8hpp.html" target="_top" xlink:title="TX&#45;side container that builds protocol frames from a set of fields.">
<polygon fill="white" stroke="#666666" points="281.64,-239 185.64,-239 185.64,-220 281.64,-220 281.64,-239"/>
<text text-anchor="middle" x="233.64" y="-227" font-family="Helvetica,sans-Serif" font-size="10.00">TxContainer.hpp</text>
</a>
</g>
</g>
<!-- Node1&#45;&gt;Node2 -->
<g id="edge1_Node000001_Node000002" class="edge">
<title>Node1&#45;&gt;Node2</title>
<g id="a_edge1_Node000001_Node000002"><a xlink:title=" ">
<path fill="none" stroke="#63b8ff" d="M270.66,-267.52C261.31,-258.18 249.89,-246.75 242.23,-239.09"/>
<polygon fill="#63b8ff" stroke="#63b8ff" points="268.34,-270.15 277.88,-274.75 273.29,-265.2 268.34,-270.15"/>
</a>
</g>
</g>
<!-- Node9 -->
<g id="Node000009" class="node">
<title>Node9</title>
<g id="a_Node000009"><a xlink:href="../../dc/d61/Ymodem_8hpp.html" target="_top" xlink:title=" ">
<polygon fill="white" stroke="#666666" points="381.14,-239 300.14,-239 300.14,-220 381.14,-220 381.14,-239"/>
<text text-anchor="middle" x="340.64" y="-227" font-family="Helvetica,sans-Serif" font-size="10.00">Ymodem.hpp</text>
</a>
</g>
</g>
<!-- Node1&#45;&gt;Node9 -->
<g id="edge9_Node000001_Node000009" class="edge">
<title>Node1&#45;&gt;Node9</title>
<g id="a_edge9_Node000001_Node000009"><a xlink:title=" ">
<path fill="none" stroke="#63b8ff" d="M302.92,-267.52C312.44,-258.18 324.08,-246.75 331.89,-239.09"/>
<polygon fill="#63b8ff" stroke="#63b8ff" points="300.24,-265.25 295.55,-274.75 305.14,-270.24 300.24,-265.25"/>
</a>
</g>
</g>
<!-- Node3 -->
<g id="Node000003" class="node">
<title>Node3</title>
<g id="a_Node000003"><a xlink:href="../../d8/db2/ProtocolEndpoint_8hpp.html" target="_top" xlink:title="Base endpoint class for protocol implementations.">
<polygon fill="white" stroke="#666666" points="142.64,-184 22.64,-184 22.64,-165 142.64,-165 142.64,-184"/>
<text text-anchor="middle" x="82.64" y="-172" font-family="Helvetica,sans-Serif" font-size="10.00">ProtocolEndpoint.hpp</text>
</a>
</g>
</g>
<!-- Node2&#45;&gt;Node3 -->
<g id="edge2_Node000002_Node000003" class="edge">
<title>Node2&#45;&gt;Node3</title>
<g id="a_edge2_Node000002_Node000003"><a xlink:title=" ">
<path fill="none" stroke="#63b8ff" d="M199.59,-216.55C171.55,-206.71 132.45,-192.98 107.34,-184.17"/>
<polygon fill="#63b8ff" stroke="#63b8ff" points="198.78,-219.98 209.38,-219.98 201.1,-213.37 198.78,-219.98"/>
</a>
</g>
</g>
<!-- Node7 -->
<g id="Node000007" class="node">
<title>Node7</title>
<g id="a_Node000007"><a xlink:href="../../dc/dc4/ProtocolNoSysEndpoint_8hpp.html" target="_top" xlink:title=" ">
<polygon fill="white" stroke="#666666" points="312.14,-184 161.14,-184 161.14,-165 312.14,-165 312.14,-184"/>
<text text-anchor="middle" x="236.64" y="-172" font-family="Helvetica,sans-Serif" font-size="10.00">ProtocolNoSysEndpoint.hpp</text>
</a>
</g>
</g>
<!-- Node2&#45;&gt;Node7 -->
<g id="edge7_Node000002_Node000007" class="edge">
<title>Node2&#45;&gt;Node7</title>
<g id="a_edge7_Node000002_Node000007"><a xlink:title=" ">
<path fill="none" stroke="#63b8ff" d="M234.7,-209.66C235.2,-200.93 235.76,-190.99 236.15,-184.09"/>
<polygon fill="#63b8ff" stroke="#63b8ff" points="231.2,-209.57 234.13,-219.75 238.19,-209.96 231.2,-209.57"/>
</a>
</g>
</g>
<!-- Node4 -->
<g id="Node000004" class="node">
<title>Node4</title>
<g id="a_Node000004"><a xlink:href="../../d9/ddb/LacteProtocol_8hpp.html" target="_top" xlink:title=" ">
<polygon fill="white" stroke="#666666" points="140.64,-74 36.64,-74 36.64,-55 140.64,-55 140.64,-74"/>
<text text-anchor="middle" x="88.64" y="-62" font-family="Helvetica,sans-Serif" font-size="10.00">LacteProtocol.hpp</text>
</a>
</g>
</g>
<!-- Node3&#45;&gt;Node4 -->
<g id="edge3_Node000003_Node000004" class="edge">
<title>Node3&#45;&gt;Node4</title>
<g id="a_edge3_Node000003_Node000004"><a xlink:title=" ">
<path fill="none" stroke="#63b8ff" d="M45.51,-161.19C18.95,-150.2 -9.91,-132.39 3.64,-110 14.68,-91.76 35.93,-80.63 54.42,-74.07"/>
<polygon fill="#63b8ff" stroke="#63b8ff" points="44.53,-164.56 55.11,-164.93 47.06,-158.04 44.53,-164.56"/>
</a>
</g>
</g>
<!-- Node6 -->
<g id="Node000006" class="node">
<title>Node6</title>
<g id="a_Node000006"><a xlink:href="../../dd/d58/LacteProtocolPrototype_8hpp.html" target="_top" xlink:title=" ">
<polygon fill="white" stroke="#666666" points="164.14,-129 13.14,-129 13.14,-110 164.14,-110 164.14,-129"/>
<text text-anchor="middle" x="88.64" y="-117" font-family="Helvetica,sans-Serif" font-size="10.00">LacteProtocolPrototype.hpp</text>
</a>
</g>
</g>
<!-- Node3&#45;&gt;Node6 -->
<g id="edge5_Node000003_Node000006" class="edge">
<title>Node3&#45;&gt;Node6</title>
<g id="a_edge5_Node000003_Node000006"><a xlink:title=" ">
<path fill="none" stroke="#63b8ff" d="M84.77,-154.66C85.76,-145.93 86.88,-135.99 87.66,-129.09"/>
<polygon fill="#63b8ff" stroke="#63b8ff" points="81.27,-154.42 83.63,-164.75 88.23,-155.21 81.27,-154.42"/>
</a>
</g>
</g>
<!-- Node5 -->
<g id="Node000005" class="node">
<title>Node5</title>
<g id="a_Node000005"><a xlink:href="../../dc/d80/VirtualBoard_8hpp.html" target="_top" xlink:title=" ">
<polygon fill="white" stroke="#666666" points="137.64,-19 39.64,-19 39.64,0 137.64,0 137.64,-19"/>
<text text-anchor="middle" x="88.64" y="-7" font-family="Helvetica,sans-Serif" font-size="10.00">VirtualBoard.hpp</text>
</a>
</g>
</g>
<!-- Node4&#45;&gt;Node5 -->
<g id="edge4_Node000004_Node000005" class="edge">
<title>Node4&#45;&gt;Node5</title>
<g id="a_edge4_Node000004_Node000005"><a xlink:title=" ">
<path fill="none" stroke="#63b8ff" d="M88.64,-44.66C88.64,-35.93 88.64,-25.99 88.64,-19.09"/>
<polygon fill="#63b8ff" stroke="#63b8ff" points="85.14,-44.75 88.64,-54.75 92.14,-44.75 85.14,-44.75"/>
</a>
</g>
</g>
<!-- Node6&#45;&gt;Node4 -->
<g id="edge6_Node000006_Node000004" class="edge">
<title>Node6&#45;&gt;Node4</title>
<g id="a_edge6_Node000006_Node000004"><a xlink:title=" ">
<path fill="none" stroke="#63b8ff" d="M88.64,-99.66C88.64,-90.93 88.64,-80.99 88.64,-74.09"/>
<polygon fill="#63b8ff" stroke="#63b8ff" points="85.14,-99.75 88.64,-109.75 92.14,-99.75 85.14,-99.75"/>
</a>
</g>
</g>
<!-- Node8 -->
<g id="Node000008" class="node">
<title>Node8</title>
<g id="a_Node000008"><a xlink:href="../../d6/de6/exoAtlantProtocol_8hpp.html" target="_top" xlink:title=" ">
<polygon fill="white" stroke="#666666" points="306.64,-129 182.64,-129 182.64,-110 306.64,-110 306.64,-129"/>
<text text-anchor="middle" x="244.64" y="-117" font-family="Helvetica,sans-Serif" font-size="10.00">exoAtlantProtocol.hpp</text>
</a>
</g>
</g>
<!-- Node7&#45;&gt;Node8 -->
<g id="edge8_Node000007_Node000008" class="edge">
<title>Node7&#45;&gt;Node8</title>
<g id="a_edge8_Node000007_Node000008"><a xlink:title=" ">
<path fill="none" stroke="#63b8ff" d="M239.48,-154.66C240.8,-145.93 242.3,-135.99 243.34,-129.09"/>
<polygon fill="#63b8ff" stroke="#63b8ff" points="235.99,-154.34 237.96,-164.75 242.91,-155.38 235.99,-154.34"/>
</a>
</g>
</g>
<!-- Node9&#45;&gt;Node4 -->
<g id="edge10_Node000009_Node000004" class="edge">
<title>Node9&#45;&gt;Node4</title>
<g id="a_edge10_Node000009_Node000004"><a xlink:title=" ">
<path fill="none" stroke="#63b8ff" d="M342.5,-209.77C343.98,-183.6 342.38,-136.36 315.64,-110 291.43,-86.14 200.01,-74.38 140.83,-69.15"/>
<polygon fill="#63b8ff" stroke="#63b8ff" points="339,-209.63 341.71,-219.87 345.98,-210.17 339,-209.63"/>
</a>
</g>
</g>
</g>
</svg>
