<?xml version="1.0" encoding="UTF-8" standalone="no"?>
<!DOCTYPE svg PUBLIC "-//W3C//DTD SVG 1.1//EN"
 "http://www.w3.org/Graphics/SVG/1.1/DTD/svg11.dtd">
<!-- Generated by graphviz version 2.43.0 (0)
 -->
<!-- Title: RfidDataTypes.hpp Pages: 1 -->
<!--zoomable 203 -->

<svg id="main" version="1.1" xmlns="http://www.w3.org/2000/svg" xmlns:xlink="http://www.w3.org/1999/xlink" xml:space="preserve" onload="init(evt)">
<style type="text/css"><![CDATA[
.node, .edge {opacity: 0.7;}
.node.selected, .edge.selected {opacity: 1;}
.edge:hover path { stroke: red; }
.edge:hover polygon { stroke: red; fill: red; }
]]></style>

<defs>
  <circle id="rim" cx="0" cy="0" r="7"/>
  <circle id="rim2" cx="0" cy="0" r="3.5"/>
  <g id="zoomPlus">
    <use xlink:href="#rim" fill="#404040"><set attributeName="fill" to="#808080" begin="zoomplus.mouseover" end="zoomplus.mouseout"/></use>
    <path d="M-4,0h8M0,-4v8" fill="none" stroke="white" stroke-width="1.5" pointer-events="none"/>
  </g>
  <g id="zoomMin">
    <use xlink:href="#rim" fill="#404040"><set attributeName="fill" to="#808080" begin="zoomminus.mouseover" end="zoomminus.mouseout"/></use>
    <path d="M-4,0h8" fill="none" stroke="white" stroke-width="1.5" pointer-events="none"/>
  </g>
  <g id="arrowUp" transform="translate(30 24)">
    <use xlink:href="#rim"/>
    <path pointer-events="none" fill="none" stroke="white" stroke-width="1.5" d="M0,-3.0v7 M-2.5,-0.5L0,-3.0L2.5,-0.5"/>
  </g>
  <g id="arrowRight" transform="rotate(90) translate(36 -43)">
    <use xlink:href="#rim"/>
    <path pointer-events="none" fill="none" stroke="white" stroke-width="1.5" d="M0,-3.0v7 M-2.5,-0.5L0,-3.0L2.5,-0.5"/>
  </g>
  <g id="arrowDown" transform="rotate(180) translate(-30 -48)">
    <use xlink:href="#rim"/>
    <path pointer-events="none" fill="none" stroke="white" stroke-width="1.5" d="M0,-3.0v7 M-2.5,-0.5L0,-3.0L2.5,-0.5"/>
  </g>
  <g id="arrowLeft" transform="rotate(270) translate(-36 17)">
    <use xlink:href="#rim"/>
    <path pointer-events="none" fill="none" stroke="white" stroke-width="1.5" d="M0,-3.0v7 M-2.5,-0.5L0,-3.0L2.5,-0.5"/>
  </g>
  <g id="resetDef">
    <use xlink:href="#rim2" fill="#404040"><set attributeName="fill" to="#808080" begin="reset.mouseover" end="reset.mouseout"/></use>
  </g>
</defs>
<script type="application/ecmascript">
var viewWidth = 2025;
var viewHeight = 203;
var sectionId = 'dynsection-0';
</script>
<script type="application/ecmascript" xlink:href="../../svg.min.js"/>
<svg id="graph" class="graph">
<g id="viewport">
<title>RfidDataTypes.hpp</title>
<!-- Node1 -->
<g id="Node000001" class="node">
<title>Node1</title>
<g id="a_Node000001"><a xlink:title=" ">
<polygon fill="#999999" stroke="#666666" points="1203,-195 1096,-195 1096,-176 1203,-176 1203,-195"/>
<text text-anchor="middle" x="1149.5" y="-183" font-family="Helvetica,sans-Serif" font-size="10.00">RfidDataTypes.hpp</text>
</a>
</g>
</g>
<!-- Node2 -->
<g id="Node000002" class="node">
<title>Node2</title>
<g id="a_Node000002"><a xlink:title=" ">
<polygon fill="#e0e0e0" stroke="#999999" points="49,-134.5 0,-134.5 0,-115.5 49,-115.5 49,-134.5"/>
<text text-anchor="middle" x="24.5" y="-122.5" font-family="Helvetica,sans-Serif" font-size="10.00">cctype</text>
</a>
</g>
</g>
<!-- Node1&#45;&gt;Node2 -->
<g id="edge1_Node000001_Node000002" class="edge">
<title>Node1&#45;&gt;Node2</title>
<g id="a_edge1_Node000001_Node000002"><a xlink:title=" ">
<path fill="none" stroke="#63b8ff" d="M1095.89,-184.45C905.78,-183.93 264.56,-179.25 63.5,-140 60.49,-139.41 57.4,-138.63 54.34,-137.74"/>
<polygon fill="#63b8ff" stroke="#63b8ff" points="55.41,-134.41 44.82,-134.61 53.22,-141.06 55.41,-134.41"/>
</a>
</g>
</g>
<!-- Node3 -->
<g id="Node000003" class="node">
<title>Node3</title>
<g id="a_Node000003"><a xlink:title=" ">
<polygon fill="#e0e0e0" stroke="#999999" points="519.5,-19 469.5,-19 469.5,0 519.5,0 519.5,-19"/>
<text text-anchor="middle" x="494.5" y="-7" font-family="Helvetica,sans-Serif" font-size="10.00">cstdint</text>
</a>
</g>
</g>
<!-- Node1&#45;&gt;Node3 -->
<g id="edge2_Node000001_Node000003" class="edge">
<title>Node1&#45;&gt;Node3</title>
<g id="a_edge2_Node000001_Node000003"><a xlink:title=" ">
<path fill="none" stroke="#63b8ff" d="M1095.67,-184.27C885.67,-183.1 131.36,-176.37 96.5,-140 -11.75,-27.08 343.52,-12.5 459.28,-10.72"/>
<polygon fill="#63b8ff" stroke="#63b8ff" points="459.44,-14.21 469.4,-10.58 459.35,-7.21 459.44,-14.21"/>
</a>
</g>
</g>
<!-- Node4 -->
<g id="Node000004" class="node">
<title>Node4</title>
<g id="a_Node000004"><a xlink:title=" ">
<polygon fill="#e0e0e0" stroke="#999999" points="1995.5,-74 1945.5,-74 1945.5,-55 1995.5,-55 1995.5,-74"/>
<text text-anchor="middle" x="1970.5" y="-62" font-family="Helvetica,sans-Serif" font-size="10.00">cstring</text>
</a>
</g>
</g>
<!-- Node1&#45;&gt;Node4 -->
<g id="edge3_Node000001_Node000004" class="edge">
<title>Node1&#45;&gt;Node4</title>
<g id="a_edge3_Node000001_Node000004"><a xlink:title=" ">
<path fill="none" stroke="#63b8ff" d="M1203.08,-183.27C1378.15,-179.05 1923.7,-163.99 1952.5,-140 1968.6,-126.59 1971.7,-101.48 1971.71,-84.14"/>
<polygon fill="#63b8ff" stroke="#63b8ff" points="1975.2,-83.95 1971.37,-74.07 1968.21,-84.19 1975.2,-83.95"/>
</a>
</g>
</g>
<!-- Node5 -->
<g id="Node000005" class="node">
<title>Node5</title>
<g id="a_Node000005"><a xlink:title=" ">
<polygon fill="#e0e0e0" stroke="#999999" points="1617,-74 1560,-74 1560,-55 1617,-55 1617,-74"/>
<text text-anchor="middle" x="1588.5" y="-62" font-family="Helvetica,sans-Serif" font-size="10.00">ostream</text>
</a>
</g>
</g>
<!-- Node1&#45;&gt;Node5 -->
<g id="edge4_Node000001_Node000005" class="edge">
<title>Node1&#45;&gt;Node5</title>
<g id="a_edge4_Node000001_Node000005"><a xlink:title=" ">
<path fill="none" stroke="#63b8ff" d="M1203.28,-184.44C1340.46,-183.74 1695.09,-178.22 1730.5,-140 1739.56,-130.22 1738.39,-120.75 1730.5,-110 1724.17,-101.39 1666.69,-85.32 1626.84,-75.03"/>
<polygon fill="#63b8ff" stroke="#63b8ff" points="1627.68,-71.63 1617.12,-72.54 1625.95,-78.41 1627.68,-71.63"/>
</a>
</g>
</g>
<!-- Node6 -->
<g id="Node000006" class="node">
<title>Node6</title>
<g id="a_Node000006"><a xlink:title=" ">
<polygon fill="#e0e0e0" stroke="#999999" points="989.5,-19 945.5,-19 945.5,0 989.5,0 989.5,-19"/>
<text text-anchor="middle" x="967.5" y="-7" font-family="Helvetica,sans-Serif" font-size="10.00">string</text>
</a>
</g>
</g>
<!-- Node1&#45;&gt;Node6 -->
<g id="edge5_Node000001_Node000006" class="edge">
<title>Node1&#45;&gt;Node6</title>
<g id="a_edge5_Node000001_Node000006"><a xlink:title=" ">
<path fill="none" stroke="#63b8ff" d="M1203.11,-184.79C1375.95,-185.3 1911.05,-183.32 1974.5,-140 2007.59,-117.41 2032.32,-83.83 2004.5,-55 1967.07,-16.21 1118.54,-26.6 999.9,-18.27"/>
<polygon fill="#63b8ff" stroke="#63b8ff" points="1000.02,-14.77 989.72,-17.25 999.32,-21.73 1000.02,-14.77"/>
</a>
</g>
</g>
<!-- Node7 -->
<g id="Node000007" class="node">
<title>Node7</title>
<g id="a_Node000007"><a xlink:title=" ">
<polygon fill="#e0e0e0" stroke="#999999" points="1155,-19 1082,-19 1082,0 1155,0 1155,-19"/>
<text text-anchor="middle" x="1118.5" y="-7" font-family="Helvetica,sans-Serif" font-size="10.00">string_view</text>
</a>
</g>
</g>
<!-- Node1&#45;&gt;Node7 -->
<g id="edge6_Node000001_Node000007" class="edge">
<title>Node1&#45;&gt;Node7</title>
<g id="a_edge6_Node000001_Node000007"><a xlink:title=" ">
<path fill="none" stroke="#63b8ff" d="M1203.06,-184.57C1342.93,-184.2 1710.87,-179.46 1747.5,-140 1756.57,-130.23 1754.72,-121.21 1747.5,-110 1731.51,-85.17 1655.1,-62.37 1626.5,-55 1430.27,-4.44 1370.63,-44.41 1165.31,-18.93"/>
<polygon fill="#63b8ff" stroke="#63b8ff" points="1165.47,-15.42 1155.1,-17.62 1164.58,-22.36 1165.47,-15.42"/>
</a>
</g>
</g>
<!-- Node8 -->
<g id="Node000008" class="node">
<title>Node8</title>
<g id="a_Node000008"><a xlink:href="../../dc/d01/ActivationTimeType_8hpp.html" target="_top" xlink:title=" ">
<polygon fill="white" stroke="#666666" points="704,-140 567,-140 567,-110 704,-110 704,-140"/>
<text text-anchor="start" x="575" y="-128" font-family="Helvetica,sans-Serif" font-size="10.00">protocols/lacte/objects</text>
<text text-anchor="middle" x="635.5" y="-117" font-family="Helvetica,sans-Serif" font-size="10.00">/ActivationTimeType.hpp</text>
</a>
</g>
</g>
<!-- Node1&#45;&gt;Node8 -->
<g id="edge7_Node000001_Node000008" class="edge">
<title>Node1&#45;&gt;Node8</title>
<g id="a_edge7_Node000001_Node000008"><a xlink:title=" ">
<path fill="none" stroke="#63b8ff" d="M1095.98,-180.35C1015.53,-173.83 858.41,-159.97 714.68,-140.09"/>
<polygon fill="#63b8ff" stroke="#63b8ff" points="714.75,-136.57 704.36,-138.65 713.78,-143.5 714.75,-136.57"/>
</a>
</g>
</g>
<!-- Node14 -->
<g id="Node000014" class="node">
<title>Node14</title>
<g id="a_Node000014"><a xlink:href="../../de/de6/DrinkCounterType_8hpp.html" target="_top" xlink:title=" ">
<polygon fill="white" stroke="#666666" points="850.5,-140 722.5,-140 722.5,-110 850.5,-110 850.5,-140"/>
<text text-anchor="start" x="730.5" y="-128" font-family="Helvetica,sans-Serif" font-size="10.00">protocols/lacte/objects</text>
<text text-anchor="middle" x="786.5" y="-117" font-family="Helvetica,sans-Serif" font-size="10.00">/DrinkCounterType.hpp</text>
</a>
</g>
</g>
<!-- Node1&#45;&gt;Node14 -->
<g id="edge16_Node000001_Node000014" class="edge">
<title>Node1&#45;&gt;Node14</title>
<g id="a_edge16_Node000001_Node000014"><a xlink:title=" ">
<path fill="none" stroke="#63b8ff" d="M1095.95,-176.89C1039.79,-168.78 948.7,-155.23 860.48,-140.13"/>
<polygon fill="#63b8ff" stroke="#63b8ff" points="861.02,-136.67 850.57,-138.43 859.83,-143.57 861.02,-136.67"/>
</a>
</g>
</g>
<!-- Node15 -->
<g id="Node000015" class="node">
<title>Node15</title>
<g id="a_Node000015"><a xlink:href="../../d7/dcc/LacteIdType_8hpp.html" target="_top" xlink:title=" ">
<polygon fill="white" stroke="#666666" points="549,-140 422,-140 422,-110 549,-110 549,-140"/>
<text text-anchor="start" x="430" y="-128" font-family="Helvetica,sans-Serif" font-size="10.00">protocols/lacte/objects</text>
<text text-anchor="middle" x="485.5" y="-117" font-family="Helvetica,sans-Serif" font-size="10.00">/LacteIdType.hpp</text>
</a>
</g>
</g>
<!-- Node1&#45;&gt;Node15 -->
<g id="edge18_Node000001_Node000015" class="edge">
<title>Node1&#45;&gt;Node15</title>
<g id="a_edge18_Node000001_Node000015"><a xlink:title=" ">
<path fill="none" stroke="#63b8ff" d="M1095.81,-182.57C993.3,-178.43 762.5,-166.9 559.01,-140.1"/>
<polygon fill="#63b8ff" stroke="#63b8ff" points="559.41,-136.62 549.04,-138.77 558.49,-143.56 559.41,-136.62"/>
</a>
</g>
</g>
<!-- Node17 -->
<g id="Node000017" class="node">
<title>Node17</title>
<g id="a_Node000017"><a xlink:href="../../d4/d74/LacteSnType_8hpp.html" target="_top" xlink:title=" ">
<polygon fill="white" stroke="#666666" points="996,-140 869,-140 869,-110 996,-110 996,-140"/>
<text text-anchor="start" x="877" y="-128" font-family="Helvetica,sans-Serif" font-size="10.00">protocols/lacte/objects</text>
<text text-anchor="middle" x="932.5" y="-117" font-family="Helvetica,sans-Serif" font-size="10.00">/LacteSnType.hpp</text>
</a>
</g>
</g>
<!-- Node1&#45;&gt;Node17 -->
<g id="edge24_Node000001_Node000017" class="edge">
<title>Node1&#45;&gt;Node17</title>
<g id="a_edge24_Node000001_Node000017"><a xlink:title=" ">
<path fill="none" stroke="#63b8ff" d="M1117.95,-175.99C1085.69,-167.3 1034.75,-153.57 994.42,-142.69"/>
<polygon fill="#63b8ff" stroke="#63b8ff" points="995.24,-139.29 984.67,-140.06 993.41,-146.05 995.24,-139.29"/>
</a>
</g>
</g>
<!-- Node18 -->
<g id="Node000018" class="node">
<title>Node18</title>
<g id="a_Node000018"><a xlink:href="../../df/d1a/MachineSnType_8hpp.html" target="_top" xlink:title=" ">
<polygon fill="white" stroke="#666666" points="1141,-140 1014,-140 1014,-110 1141,-110 1141,-140"/>
<text text-anchor="start" x="1022" y="-128" font-family="Helvetica,sans-Serif" font-size="10.00">protocols/lacte/objects</text>
<text text-anchor="middle" x="1077.5" y="-117" font-family="Helvetica,sans-Serif" font-size="10.00">/MachineSnType.hpp</text>
</a>
</g>
</g>
<!-- Node1&#45;&gt;Node18 -->
<g id="edge26_Node000001_Node000018" class="edge">
<title>Node1&#45;&gt;Node18</title>
<g id="a_edge26_Node000001_Node000018"><a xlink:title=" ">
<path fill="none" stroke="#63b8ff" d="M1138.88,-175.87C1129.38,-168.15 1115.08,-156.54 1102.68,-146.46"/>
<polygon fill="#63b8ff" stroke="#63b8ff" points="1104.84,-143.7 1094.87,-140.11 1100.43,-149.14 1104.84,-143.7"/>
</a>
</g>
</g>
<!-- Node19 -->
<g id="Node000019" class="node">
<title>Node19</title>
<g id="a_Node000019"><a xlink:href="../../d5/df1/MagicWordType_8hpp.html" target="_top" xlink:title=" ">
<polygon fill="white" stroke="#666666" points="1286,-140 1159,-140 1159,-110 1286,-110 1286,-140"/>
<text text-anchor="start" x="1167" y="-128" font-family="Helvetica,sans-Serif" font-size="10.00">protocols/lacte/objects</text>
<text text-anchor="middle" x="1222.5" y="-117" font-family="Helvetica,sans-Serif" font-size="10.00">/MagicWordType.hpp</text>
</a>
</g>
</g>
<!-- Node1&#45;&gt;Node19 -->
<g id="edge28_Node000001_Node000019" class="edge">
<title>Node1&#45;&gt;Node19</title>
<g id="a_edge28_Node000001_Node000019"><a xlink:title=" ">
<path fill="none" stroke="#63b8ff" d="M1160.27,-175.87C1169.9,-168.15 1184.39,-156.54 1196.97,-146.46"/>
<polygon fill="#63b8ff" stroke="#63b8ff" points="1199.27,-149.1 1204.89,-140.11 1194.89,-143.64 1199.27,-149.1"/>
</a>
</g>
</g>
<!-- Node20 -->
<g id="Node000020" class="node">
<title>Node20</title>
<g id="a_Node000020"><a xlink:href="../../d1/d57/McuUidType_8hpp.html" target="_top" xlink:title=" ">
<polygon fill="white" stroke="#666666" points="1943,-140 1816,-140 1816,-110 1943,-110 1943,-140"/>
<text text-anchor="start" x="1824" y="-128" font-family="Helvetica,sans-Serif" font-size="10.00">protocols/lacte/objects</text>
<text text-anchor="middle" x="1879.5" y="-117" font-family="Helvetica,sans-Serif" font-size="10.00">/McuUidType.hpp</text>
</a>
</g>
</g>
<!-- Node1&#45;&gt;Node20 -->
<g id="edge30_Node000001_Node000020" class="edge">
<title>Node1&#45;&gt;Node20</title>
<g id="a_edge30_Node000001_Node000020"><a xlink:title=" ">
<path fill="none" stroke="#63b8ff" d="M1203.36,-182.82C1315.18,-178.89 1580.52,-167.29 1801.5,-140 1802.81,-139.84 1804.12,-139.67 1805.45,-139.49"/>
<polygon fill="#63b8ff" stroke="#63b8ff" points="1806.33,-142.9 1815.74,-138.03 1805.34,-135.97 1806.33,-142.9"/>
</a>
</g>
</g>
<!-- Node22 -->
<g id="Node000022" class="node">
<title>Node22</title>
<g id="a_Node000022"><a xlink:href="../../da/d1d/ProductDateType_8hpp.html" target="_top" xlink:title=" ">
<polygon fill="white" stroke="#666666" points="1431,-140 1304,-140 1304,-110 1431,-110 1431,-140"/>
<text text-anchor="start" x="1312" y="-128" font-family="Helvetica,sans-Serif" font-size="10.00">protocols/lacte/objects</text>
<text text-anchor="middle" x="1367.5" y="-117" font-family="Helvetica,sans-Serif" font-size="10.00">/ProductDateType.hpp</text>
</a>
</g>
</g>
<!-- Node1&#45;&gt;Node22 -->
<g id="edge39_Node000001_Node000022" class="edge">
<title>Node1&#45;&gt;Node22</title>
<g id="a_edge39_Node000001_Node000022"><a xlink:title=" ">
<path fill="none" stroke="#63b8ff" d="M1181.2,-175.99C1213.6,-167.3 1264.78,-153.57 1305.3,-142.69"/>
<polygon fill="#63b8ff" stroke="#63b8ff" points="1306.34,-146.04 1315.09,-140.06 1304.52,-139.28 1306.34,-146.04"/>
</a>
</g>
</g>
<!-- Node23 -->
<g id="Node000023" class="node">
<title>Node23</title>
<g id="a_Node000023"><a xlink:href="../../d7/d11/ProductShelfLifeType_8hpp.html" target="_top" xlink:title=" ">
<polygon fill="white" stroke="#666666" points="404,-140 261,-140 261,-110 404,-110 404,-140"/>
<text text-anchor="start" x="269" y="-128" font-family="Helvetica,sans-Serif" font-size="10.00">protocols/lacte/objects</text>
<text text-anchor="middle" x="332.5" y="-117" font-family="Helvetica,sans-Serif" font-size="10.00">/ProductShelfLifeType.hpp</text>
</a>
</g>
</g>
<!-- Node1&#45;&gt;Node23 -->
<g id="edge41_Node000001_Node000023" class="edge">
<title>Node1&#45;&gt;Node23</title>
<g id="a_edge41_Node000001_Node000023"><a xlink:title=" ">
<path fill="none" stroke="#63b8ff" d="M1095.68,-183.33C975.27,-180.27 674.88,-170.13 414.43,-140.14"/>
<polygon fill="#63b8ff" stroke="#63b8ff" points="414.74,-136.66 404.4,-138.98 413.93,-143.61 414.74,-136.66"/>
</a>
</g>
</g>
<!-- Node24 -->
<g id="Node000024" class="node">
<title>Node24</title>
<g id="a_Node000024"><a xlink:href="../../d3/d74/ProductVolumeType_8hpp.html" target="_top" xlink:title=" ">
<polygon fill="white" stroke="#666666" points="243,-140 106,-140 106,-110 243,-110 243,-140"/>
<text text-anchor="start" x="114" y="-128" font-family="Helvetica,sans-Serif" font-size="10.00">protocols/lacte/objects</text>
<text text-anchor="middle" x="174.5" y="-117" font-family="Helvetica,sans-Serif" font-size="10.00">/ProductVolumeType.hpp</text>
</a>
</g>
</g>
<!-- Node1&#45;&gt;Node24 -->
<g id="edge47_Node000001_Node000024" class="edge">
<title>Node1&#45;&gt;Node24</title>
<g id="a_edge47_Node000001_Node000024"><a xlink:title=" ">
<path fill="none" stroke="#63b8ff" d="M1095.91,-184.28C957.78,-183.18 578.25,-176.86 253.36,-140.12"/>
<polygon fill="#63b8ff" stroke="#63b8ff" points="253.61,-136.62 243.28,-138.96 252.82,-143.58 253.61,-136.62"/>
</a>
</g>
</g>
<!-- Node25 -->
<g id="Node000025" class="node">
<title>Node25</title>
<g id="a_Node000025"><a xlink:href="../../d2/d37/TimeCounterType_8hpp.html" target="_top" xlink:title=" ">
<polygon fill="white" stroke="#666666" points="1576,-140 1449,-140 1449,-110 1576,-110 1576,-140"/>
<text text-anchor="start" x="1457" y="-128" font-family="Helvetica,sans-Serif" font-size="10.00">protocols/lacte/objects</text>
<text text-anchor="middle" x="1512.5" y="-117" font-family="Helvetica,sans-Serif" font-size="10.00">/TimeCounterType.hpp</text>
</a>
</g>
</g>
<!-- Node1&#45;&gt;Node25 -->
<g id="edge53_Node000001_Node000025" class="edge">
<title>Node1&#45;&gt;Node25</title>
<g id="a_edge53_Node000001_Node000025"><a xlink:title=" ">
<path fill="none" stroke="#63b8ff" d="M1203.24,-176.94C1259.6,-168.87 1351.02,-155.36 1439.04,-140.22"/>
<polygon fill="#63b8ff" stroke="#63b8ff" points="1439.67,-143.66 1448.92,-138.51 1438.47,-136.76 1439.67,-143.66"/>
</a>
</g>
</g>
<!-- Node26 -->
<g id="Node000026" class="node">
<title>Node26</title>
<g id="a_Node000026"><a xlink:href="../../d8/dc2/UsageTimeType_8hpp.html" target="_top" xlink:title=" ">
<polygon fill="white" stroke="#666666" points="1721,-140 1594,-140 1594,-110 1721,-110 1721,-140"/>
<text text-anchor="start" x="1602" y="-128" font-family="Helvetica,sans-Serif" font-size="10.00">protocols/lacte/objects</text>
<text text-anchor="middle" x="1657.5" y="-117" font-family="Helvetica,sans-Serif" font-size="10.00">/UsageTimeType.hpp</text>
</a>
</g>
</g>
<!-- Node1&#45;&gt;Node26 -->
<g id="edge55_Node000001_Node000026" class="edge">
<title>Node1&#45;&gt;Node26</title>
<g id="a_edge55_Node000001_Node000026"><a xlink:title=" ">
<path fill="none" stroke="#63b8ff" d="M1203.05,-180.6C1283.56,-174.4 1440.73,-160.94 1583.68,-140.19"/>
<polygon fill="#63b8ff" stroke="#63b8ff" points="1584.56,-143.6 1593.95,-138.68 1583.55,-136.67 1584.56,-143.6"/>
</a>
</g>
</g>
<!-- Node9 -->
<g id="Node000009" class="node">
<title>Node9</title>
<g id="a_Node000009"><a xlink:href="../../d7/dd7/Helpers_8hpp.html" target="_top" xlink:title=" ">
<polygon fill="white" stroke="#666666" points="1152.5,-74 1002.5,-74 1002.5,-55 1152.5,-55 1152.5,-74"/>
<text text-anchor="middle" x="1077.5" y="-62" font-family="Helvetica,sans-Serif" font-size="10.00">protocols/lacte/Helpers.hpp</text>
</a>
</g>
</g>
<!-- Node8&#45;&gt;Node9 -->
<g id="edge8_Node000008_Node000009" class="edge">
<title>Node8&#45;&gt;Node9</title>
<g id="a_edge8_Node000008_Node000009"><a xlink:title=" ">
<path fill="none" stroke="#63b8ff" d="M704.37,-111.42C707.45,-110.93 710.51,-110.45 713.5,-110 808.65,-95.66 918.32,-82.74 992.21,-74.56"/>
<polygon fill="#63b8ff" stroke="#63b8ff" points="992.84,-78.01 1002.39,-73.44 992.07,-71.06 992.84,-78.01"/>
</a>
</g>
</g>
<!-- Node9&#45;&gt;Node3 -->
<g id="edge11_Node000009_Node000003" class="edge">
<title>Node9&#45;&gt;Node3</title>
<g id="a_edge11_Node000009_Node000003"><a xlink:title=" ">
<path fill="none" stroke="#63b8ff" d="M1002.48,-56.68C875.29,-45.12 622.15,-22.1 529.51,-13.68"/>
<polygon fill="#63b8ff" stroke="#63b8ff" points="529.8,-10.2 519.53,-12.78 529.17,-17.17 529.8,-10.2"/>
</a>
</g>
</g>
<!-- Node9&#45;&gt;Node6 -->
<g id="edge14_Node000009_Node000006" class="edge">
<title>Node9&#45;&gt;Node6</title>
<g id="a_edge14_Node000009_Node000006"><a xlink:title=" ">
<path fill="none" stroke="#63b8ff" d="M1059.83,-54.98C1042.21,-46.5 1014.92,-33.35 994.57,-23.54"/>
<polygon fill="#63b8ff" stroke="#63b8ff" points="996.02,-20.36 985.49,-19.17 992.98,-26.66 996.02,-20.36"/>
</a>
</g>
</g>
<!-- Node9&#45;&gt;Node7 -->
<g id="edge15_Node000009_Node000007" class="edge">
<title>Node9&#45;&gt;Node7</title>
<g id="a_edge15_Node000009_Node000007"><a xlink:title=" ">
<path fill="none" stroke="#63b8ff" d="M1084.27,-54.75C1090.06,-47.26 1098.56,-36.28 1105.64,-27.13"/>
<polygon fill="#63b8ff" stroke="#63b8ff" points="1108.51,-29.14 1111.86,-19.09 1102.97,-24.86 1108.51,-29.14"/>
</a>
</g>
</g>
<!-- Node10 -->
<g id="Node000010" class="node">
<title>Node10</title>
<g id="a_Node000010"><a xlink:title=" ">
<polygon fill="#e0e0e0" stroke="#999999" points="1825.5,-19 1783.5,-19 1783.5,0 1825.5,0 1825.5,-19"/>
<text text-anchor="middle" x="1804.5" y="-7" font-family="Helvetica,sans-Serif" font-size="10.00">array</text>
</a>
</g>
</g>
<!-- Node9&#45;&gt;Node10 -->
<g id="edge9_Node000009_Node000010" class="edge">
<title>Node9&#45;&gt;Node10</title>
<g id="a_edge9_Node000009_Node000010"><a xlink:title=" ">
<path fill="none" stroke="#63b8ff" d="M1152.56,-58.03C1309.35,-46.6 1665.92,-20.6 1773.32,-12.77"/>
<polygon fill="#63b8ff" stroke="#63b8ff" points="1773.77,-16.25 1783.49,-12.03 1773.26,-9.27 1773.77,-16.25"/>
</a>
</g>
</g>
<!-- Node11 -->
<g id="Node000011" class="node">
<title>Node11</title>
<g id="a_Node000011"><a xlink:title=" ">
<polygon fill="#e0e0e0" stroke="#999999" points="1612,-19 1559,-19 1559,0 1612,0 1612,-19"/>
<text text-anchor="middle" x="1585.5" y="-7" font-family="Helvetica,sans-Serif" font-size="10.00">cstddef</text>
</a>
</g>
</g>
<!-- Node9&#45;&gt;Node11 -->
<g id="edge10_Node000009_Node000011" class="edge">
<title>Node9&#45;&gt;Node11</title>
<g id="a_edge10_Node000009_Node000011"><a xlink:title=" ">
<path fill="none" stroke="#63b8ff" d="M1152.73,-55.65C1263.33,-44.11 1465.66,-23 1548.57,-14.35"/>
<polygon fill="#63b8ff" stroke="#63b8ff" points="1549.19,-17.81 1558.77,-13.29 1548.46,-10.85 1549.19,-17.81"/>
</a>
</g>
</g>
<!-- Node12 -->
<g id="Node000012" class="node">
<title>Node12</title>
<g id="a_Node000012"><a xlink:title=" ">
<polygon fill="#e0e0e0" stroke="#999999" points="1063.5,-19 1007.5,-19 1007.5,0 1063.5,0 1063.5,-19"/>
<text text-anchor="middle" x="1035.5" y="-7" font-family="Helvetica,sans-Serif" font-size="10.00">iomanip</text>
</a>
</g>
</g>
<!-- Node9&#45;&gt;Node12 -->
<g id="edge12_Node000009_Node000012" class="edge">
<title>Node9&#45;&gt;Node12</title>
<g id="a_edge12_Node000009_Node000012"><a xlink:title=" ">
<path fill="none" stroke="#63b8ff" d="M1070.56,-54.75C1064.63,-47.26 1055.93,-36.28 1048.68,-27.13"/>
<polygon fill="#63b8ff" stroke="#63b8ff" points="1051.26,-24.75 1042.31,-19.09 1045.77,-29.1 1051.26,-24.75"/>
</a>
</g>
</g>
<!-- Node13 -->
<g id="Node000013" class="node">
<title>Node13</title>
<g id="a_Node000013"><a xlink:title=" ">
<polygon fill="#e0e0e0" stroke="#999999" points="1233.5,-19 1173.5,-19 1173.5,0 1233.5,0 1233.5,-19"/>
<text text-anchor="middle" x="1203.5" y="-7" font-family="Helvetica,sans-Serif" font-size="10.00">iostream</text>
</a>
</g>
</g>
<!-- Node9&#45;&gt;Node13 -->
<g id="edge13_Node000009_Node000013" class="edge">
<title>Node9&#45;&gt;Node13</title>
<g id="a_edge13_Node000009_Node000013"><a xlink:title=" ">
<path fill="none" stroke="#63b8ff" d="M1097.74,-54.98C1118.2,-46.38 1150.03,-32.99 1173.43,-23.15"/>
<polygon fill="#63b8ff" stroke="#63b8ff" points="1175.03,-26.27 1182.89,-19.17 1172.31,-19.82 1175.03,-26.27"/>
</a>
</g>
</g>
<!-- Node14&#45;&gt;Node9 -->
<g id="edge17_Node000014_Node000009" class="edge">
<title>Node14&#45;&gt;Node9</title>
<g id="a_edge17_Node000014_Node000009"><a xlink:title=" ">
<path fill="none" stroke="#63b8ff" d="M850.72,-111.09C903.07,-100.57 976.08,-85.89 1024.98,-76.06"/>
<polygon fill="#63b8ff" stroke="#63b8ff" points="1025.92,-79.44 1035.03,-74.04 1024.54,-72.58 1025.92,-79.44"/>
</a>
</g>
</g>
<!-- Node15&#45;&gt;Node3 -->
<g id="edge19_Node000015_Node000003" class="edge">
<title>Node15&#45;&gt;Node3</title>
<g id="a_edge19_Node000015_Node000003"><a xlink:title=" ">
<path fill="none" stroke="#63b8ff" d="M486.64,-109.63C488.26,-89.21 491.22,-51.81 493.01,-29.24"/>
<polygon fill="#63b8ff" stroke="#63b8ff" points="496.51,-29.47 493.81,-19.23 489.53,-28.92 496.51,-29.47"/>
</a>
</g>
</g>
<!-- Node15&#45;&gt;Node6 -->
<g id="edge21_Node000015_Node000006" class="edge">
<title>Node15&#45;&gt;Node6</title>
<g id="a_edge21_Node000015_Node000006"><a xlink:title=" ">
<path fill="none" stroke="#63b8ff" d="M545.09,-109.97C648.01,-85.73 855.73,-36.82 935.4,-18.06"/>
<polygon fill="#63b8ff" stroke="#63b8ff" points="936.4,-21.42 945.33,-15.72 934.8,-14.61 936.4,-21.42"/>
</a>
</g>
</g>
<!-- Node15&#45;&gt;Node7 -->
<g id="edge22_Node000015_Node000007" class="edge">
<title>Node15&#45;&gt;Node7</title>
<g id="a_edge22_Node000015_Node000007"><a xlink:title=" ">
<path fill="none" stroke="#63b8ff" d="M549.09,-111.57C551.93,-111.04 554.75,-110.51 557.5,-110 782.8,-68.19 842.1,-60.55 1071.84,-19.11"/>
<polygon fill="#63b8ff" stroke="#63b8ff" points="1072.63,-22.52 1081.85,-17.3 1071.38,-15.63 1072.63,-22.52"/>
</a>
</g>
</g>
<!-- Node15&#45;&gt;Node9 -->
<g id="edge23_Node000015_Node000009" class="edge">
<title>Node15&#45;&gt;Node9</title>
<g id="a_edge23_Node000015_Node000009"><a xlink:title=" ">
<path fill="none" stroke="#63b8ff" d="M549.04,-111.26C551.9,-110.81 554.73,-110.39 557.5,-110 709.91,-88.72 888.98,-76.09 992.24,-70"/>
<polygon fill="#63b8ff" stroke="#63b8ff" points="992.52,-73.49 1002.3,-69.41 992.11,-66.5 992.52,-73.49"/>
</a>
</g>
</g>
<!-- Node16 -->
<g id="Node000016" class="node">
<title>Node16</title>
<g id="a_Node000016"><a xlink:title=" ">
<polygon fill="#e0e0e0" stroke="#999999" points="352.5,-74 296.5,-74 296.5,-55 352.5,-55 352.5,-74"/>
<text text-anchor="middle" x="324.5" y="-62" font-family="Helvetica,sans-Serif" font-size="10.00">sstream</text>
</a>
</g>
</g>
<!-- Node15&#45;&gt;Node16 -->
<g id="edge20_Node000015_Node000016" class="edge">
<title>Node15&#45;&gt;Node16</title>
<g id="a_edge20_Node000015_Node000016"><a xlink:title=" ">
<path fill="none" stroke="#63b8ff" d="M446.94,-109.99C419.71,-100.1 383.62,-86.98 357.68,-77.56"/>
<polygon fill="#63b8ff" stroke="#63b8ff" points="358.87,-74.26 348.28,-74.14 356.48,-80.84 358.87,-74.26"/>
</a>
</g>
</g>
<!-- Node17&#45;&gt;Node9 -->
<g id="edge25_Node000017_Node000009" class="edge">
<title>Node17&#45;&gt;Node9</title>
<g id="a_edge25_Node000017_Node000009"><a xlink:title=" ">
<path fill="none" stroke="#63b8ff" d="M967.23,-109.99C991.42,-100.23 1023.4,-87.33 1046.69,-77.93"/>
<polygon fill="#63b8ff" stroke="#63b8ff" points="1048.12,-81.13 1056.09,-74.14 1045.5,-74.63 1048.12,-81.13"/>
</a>
</g>
</g>
<!-- Node18&#45;&gt;Node9 -->
<g id="edge27_Node000018_Node000009" class="edge">
<title>Node18&#45;&gt;Node9</title>
<g id="a_edge27_Node000018_Node000009"><a xlink:title=" ">
<path fill="none" stroke="#63b8ff" d="M1077.5,-109.84C1077.5,-102.21 1077.5,-92.7 1077.5,-84.45"/>
<polygon fill="#63b8ff" stroke="#63b8ff" points="1081,-84.27 1077.5,-74.27 1074,-84.27 1081,-84.27"/>
</a>
</g>
</g>
<!-- Node19&#45;&gt;Node9 -->
<g id="edge29_Node000019_Node000009" class="edge">
<title>Node19&#45;&gt;Node9</title>
<g id="a_edge29_Node000019_Node000009"><a xlink:title=" ">
<path fill="none" stroke="#63b8ff" d="M1187.77,-109.99C1163.58,-100.23 1131.6,-87.33 1108.31,-77.93"/>
<polygon fill="#63b8ff" stroke="#63b8ff" points="1109.5,-74.63 1098.91,-74.14 1106.88,-81.13 1109.5,-74.63"/>
</a>
</g>
</g>
<!-- Node20&#45;&gt;Node3 -->
<g id="edge34_Node000020_Node000003" class="edge">
<title>Node20&#45;&gt;Node3</title>
<g id="a_edge34_Node000020_Node000003"><a xlink:title=" ">
<path fill="none" stroke="#63b8ff" d="M1872.55,-109.82C1863.56,-93.26 1846.2,-66.65 1822.5,-55 1792.63,-40.31 736.64,-15.93 529.54,-11.28"/>
<polygon fill="#63b8ff" stroke="#63b8ff" points="529.59,-7.78 519.52,-11.05 529.43,-14.78 529.59,-7.78"/>
</a>
</g>
</g>
<!-- Node20&#45;&gt;Node4 -->
<g id="edge35_Node000020_Node000004" class="edge">
<title>Node20&#45;&gt;Node4</title>
<g id="a_edge35_Node000020_Node000004"><a xlink:title=" ">
<path fill="none" stroke="#63b8ff" d="M1901.53,-109.84C1915.77,-100.68 1934.23,-88.82 1948.47,-79.66"/>
<polygon fill="#63b8ff" stroke="#63b8ff" points="1950.61,-82.45 1957.13,-74.09 1946.83,-76.56 1950.61,-82.45"/>
</a>
</g>
</g>
<!-- Node20&#45;&gt;Node6 -->
<g id="edge36_Node000020_Node000006" class="edge">
<title>Node20&#45;&gt;Node6</title>
<g id="a_edge36_Node000020_Node000006"><a xlink:title=" ">
<path fill="none" stroke="#63b8ff" d="M1828.69,-110C1756.3,-90.07 1631.59,-55.83 1626.5,-55 1353.81,-10.5 1276.2,-62.96 999.65,-18.81"/>
<polygon fill="#63b8ff" stroke="#63b8ff" points="1000.16,-15.34 989.73,-17.2 999.04,-22.25 1000.16,-15.34"/>
</a>
</g>
</g>
<!-- Node20&#45;&gt;Node7 -->
<g id="edge37_Node000020_Node000007" class="edge">
<title>Node20&#45;&gt;Node7</title>
<g id="a_edge37_Node000020_Node000007"><a xlink:title=" ">
<path fill="none" stroke="#63b8ff" d="M1838.16,-109.99C1810.36,-100.36 1773,-87.01 1740.5,-74 1721.1,-66.24 1717.79,-60 1697.5,-55 1470.13,1.06 1401.93,-47.26 1165.05,-18.88"/>
<polygon fill="#63b8ff" stroke="#63b8ff" points="1165.45,-15.4 1155.1,-17.66 1164.6,-22.35 1165.45,-15.4"/>
</a>
</g>
</g>
<!-- Node20&#45;&gt;Node9 -->
<g id="edge38_Node000020_Node000009" class="edge">
<title>Node20&#45;&gt;Node9</title>
<g id="a_edge38_Node000020_Node000009"><a xlink:title=" ">
<path fill="none" stroke="#63b8ff" d="M1815.73,-117.65C1789.36,-115.11 1758.47,-112.27 1730.5,-110 1527.25,-93.53 1288.07,-78.28 1163.22,-70.64"/>
<polygon fill="#63b8ff" stroke="#63b8ff" points="1163.15,-67.13 1152.96,-70.01 1162.73,-74.12 1163.15,-67.13"/>
</a>
</g>
</g>
<!-- Node20&#45;&gt;Node10 -->
<g id="edge32_Node000020_Node000010" class="edge">
<title>Node20&#45;&gt;Node10</title>
<g id="a_edge32_Node000020_Node000010"><a xlink:title=" ">
<path fill="none" stroke="#63b8ff" d="M1887.99,-109.74C1895.54,-95 1903.91,-71.84 1893.5,-55 1880.91,-34.63 1855.87,-23.28 1835.55,-17.14"/>
<polygon fill="#63b8ff" stroke="#63b8ff" points="1836.3,-13.72 1825.74,-14.46 1834.46,-20.47 1836.3,-13.72"/>
</a>
</g>
</g>
<!-- Node20&#45;&gt;Node11 -->
<g id="edge33_Node000020_Node000011" class="edge">
<title>Node20&#45;&gt;Node11</title>
<g id="a_edge33_Node000020_Node000011"><a xlink:title=" ">
<path fill="none" stroke="#63b8ff" d="M1878.69,-109.73C1876.98,-93.85 1871.7,-68.64 1855.5,-55 1820.81,-25.8 1687.75,-15.41 1622.3,-12.01"/>
<polygon fill="#63b8ff" stroke="#63b8ff" points="1622.18,-8.5 1612.02,-11.5 1621.84,-15.49 1622.18,-8.5"/>
</a>
</g>
</g>
<!-- Node21 -->
<g id="Node000021" class="node">
<title>Node21</title>
<g id="a_Node000021"><a xlink:title=" ">
<polygon fill="#e0e0e0" stroke="#999999" points="1813.5,-74 1749.5,-74 1749.5,-55 1813.5,-55 1813.5,-74"/>
<text text-anchor="middle" x="1781.5" y="-62" font-family="Helvetica,sans-Serif" font-size="10.00">algorithm</text>
</a>
</g>
</g>
<!-- Node20&#45;&gt;Node21 -->
<g id="edge31_Node000020_Node000021" class="edge">
<title>Node20&#45;&gt;Node21</title>
<g id="a_edge31_Node000020_Node000021"><a xlink:title=" ">
<path fill="none" stroke="#63b8ff" d="M1855.78,-109.84C1840.3,-100.6 1820.18,-88.59 1804.79,-79.4"/>
<polygon fill="#63b8ff" stroke="#63b8ff" points="1806.28,-76.21 1795.9,-74.09 1802.69,-82.23 1806.28,-76.21"/>
</a>
</g>
</g>
<!-- Node22&#45;&gt;Node9 -->
<g id="edge40_Node000022_Node000009" class="edge">
<title>Node22&#45;&gt;Node9</title>
<g id="a_edge40_Node000022_Node000009"><a xlink:title=" ">
<path fill="none" stroke="#63b8ff" d="M1303.86,-111.16C1251.71,-100.64 1178.81,-85.94 1129.97,-76.08"/>
<polygon fill="#63b8ff" stroke="#63b8ff" points="1130.42,-72.61 1119.93,-74.06 1129.04,-79.47 1130.42,-72.61"/>
</a>
</g>
</g>
<!-- Node23&#45;&gt;Node3 -->
<g id="edge42_Node000023_Node000003" class="edge">
<title>Node23&#45;&gt;Node3</title>
<g id="a_edge42_Node000023_Node000003"><a xlink:title=" ">
<path fill="none" stroke="#63b8ff" d="M344.71,-109.99C358.24,-95.04 381.25,-71.3 404.5,-55 422.8,-42.16 445.35,-31.02 463.3,-23.09"/>
<polygon fill="#63b8ff" stroke="#63b8ff" points="464.94,-26.2 472.75,-19.03 462.18,-19.77 464.94,-26.2"/>
</a>
</g>
</g>
<!-- Node23&#45;&gt;Node6 -->
<g id="edge44_Node000023_Node000006" class="edge">
<title>Node23&#45;&gt;Node6</title>
<g id="a_edge44_Node000023_Node000006"><a xlink:title=" ">
<path fill="none" stroke="#63b8ff" d="M352.5,-109.84C378.75,-91.54 423.68,-61.29 442.5,-55 534.69,-24.21 835.59,-13.87 935.17,-11.25"/>
<polygon fill="#63b8ff" stroke="#63b8ff" points="935.33,-14.75 945.23,-10.99 935.15,-7.75 935.33,-14.75"/>
</a>
</g>
</g>
<!-- Node23&#45;&gt;Node7 -->
<g id="edge45_Node000023_Node000007" class="edge">
<title>Node23&#45;&gt;Node7</title>
<g id="a_edge45_Node000023_Node000007"><a xlink:title=" ">
<path fill="none" stroke="#63b8ff" d="M404.02,-111.43C406.88,-110.94 409.72,-110.46 412.5,-110 566.52,-84.32 604.79,-76.15 759.5,-55 894.99,-36.48 932.28,-39.57 1071.66,-19.02"/>
<polygon fill="#63b8ff" stroke="#63b8ff" points="1072.5,-22.43 1081.88,-17.5 1071.47,-15.51 1072.5,-22.43"/>
</a>
</g>
</g>
<!-- Node23&#45;&gt;Node9 -->
<g id="edge46_Node000023_Node000009" class="edge">
<title>Node23&#45;&gt;Node9</title>
<g id="a_edge46_Node000023_Node000009"><a xlink:title=" ">
<path fill="none" stroke="#63b8ff" d="M404.4,-111.04C407.13,-110.67 409.84,-110.32 412.5,-110 619.98,-84.98 865.7,-73.11 992.43,-68.29"/>
<polygon fill="#63b8ff" stroke="#63b8ff" points="992.6,-71.79 1002.46,-67.92 992.34,-64.8 992.6,-71.79"/>
</a>
</g>
</g>
<!-- Node23&#45;&gt;Node16 -->
<g id="edge43_Node000023_Node000016" class="edge">
<title>Node23&#45;&gt;Node16</title>
<g id="a_edge43_Node000023_Node000016"><a xlink:title=" ">
<path fill="none" stroke="#63b8ff" d="M330.56,-109.84C329.52,-102.21 328.22,-92.7 327.09,-84.45"/>
<polygon fill="#63b8ff" stroke="#63b8ff" points="330.52,-83.7 325.7,-74.27 323.59,-84.65 330.52,-83.7"/>
</a>
</g>
</g>
<!-- Node24&#45;&gt;Node3 -->
<g id="edge48_Node000024_Node000003" class="edge">
<title>Node24&#45;&gt;Node3</title>
<g id="a_edge48_Node000024_Node000003"><a xlink:title=" ">
<path fill="none" stroke="#63b8ff" d="M176.32,-109.9C179.18,-93.95 186.29,-68.42 203.5,-55 242.71,-24.42 390.45,-14.62 459.07,-11.67"/>
<polygon fill="#63b8ff" stroke="#63b8ff" points="459.52,-15.16 469.37,-11.26 459.24,-8.16 459.52,-15.16"/>
</a>
</g>
</g>
<!-- Node24&#45;&gt;Node6 -->
<g id="edge50_Node000024_Node000006" class="edge">
<title>Node24&#45;&gt;Node6</title>
<g id="a_edge50_Node000024_Node000006"><a xlink:title=" ">
<path fill="none" stroke="#63b8ff" d="M185.02,-109.86C198.23,-93.35 222.59,-66.79 250.5,-55 314.06,-28.16 803.44,-14.47 935.02,-11.25"/>
<polygon fill="#63b8ff" stroke="#63b8ff" points="935.34,-14.75 945.25,-11.01 935.17,-7.75 935.34,-14.75"/>
</a>
</g>
</g>
<!-- Node24&#45;&gt;Node7 -->
<g id="edge51_Node000024_Node000007" class="edge">
<title>Node24&#45;&gt;Node7</title>
<g id="a_edge51_Node000024_Node000007"><a xlink:title=" ">
<path fill="none" stroke="#63b8ff" d="M196.35,-109.85C226.34,-90.55 277.66,-58.01 287.5,-55 451.47,-4.82 883.04,-37.67 1071.74,-18.82"/>
<polygon fill="#63b8ff" stroke="#63b8ff" points="1072.34,-22.28 1081.91,-17.73 1071.59,-15.32 1072.34,-22.28"/>
</a>
</g>
</g>
<!-- Node24&#45;&gt;Node9 -->
<g id="edge52_Node000024_Node000009" class="edge">
<title>Node24&#45;&gt;Node9</title>
<g id="a_edge52_Node000024_Node000009"><a xlink:title=" ">
<path fill="none" stroke="#63b8ff" d="M243.28,-111.05C246.05,-110.67 248.8,-110.32 251.5,-110 520.77,-78.4 842.1,-69.2 992.27,-66.56"/>
<polygon fill="#63b8ff" stroke="#63b8ff" points="992.41,-70.05 1002.35,-66.38 992.29,-63.06 992.41,-70.05"/>
</a>
</g>
</g>
<!-- Node24&#45;&gt;Node16 -->
<g id="edge49_Node000024_Node000016" class="edge">
<title>Node24&#45;&gt;Node16</title>
<g id="a_edge49_Node000024_Node000016"><a xlink:title=" ">
<path fill="none" stroke="#63b8ff" d="M210.43,-109.99C235.57,-100.18 268.83,-87.21 292.95,-77.81"/>
<polygon fill="#63b8ff" stroke="#63b8ff" points="294.3,-81.03 302.35,-74.14 291.76,-74.51 294.3,-81.03"/>
</a>
</g>
</g>
<!-- Node25&#45;&gt;Node9 -->
<g id="edge54_Node000025_Node000009" class="edge">
<title>Node25&#45;&gt;Node9</title>
<g id="a_edge54_Node000025_Node000009"><a xlink:title=" ">
<path fill="none" stroke="#63b8ff" d="M1448.94,-111.39C1446.09,-110.9 1443.27,-110.44 1440.5,-110 1345.87,-95.02 1236.67,-82.24 1162.96,-74.27"/>
<polygon fill="#63b8ff" stroke="#63b8ff" points="1163.12,-70.76 1152.8,-73.17 1162.37,-77.72 1163.12,-70.76"/>
</a>
</g>
</g>
<!-- Node26&#45;&gt;Node3 -->
<g id="edge56_Node000026_Node000003" class="edge">
<title>Node26&#45;&gt;Node3</title>
<g id="a_edge56_Node000026_Node000003"><a xlink:title=" ">
<path fill="none" stroke="#63b8ff" d="M1593.95,-111.32C1591.1,-110.85 1588.27,-110.41 1585.5,-110 1430.82,-87.05 1389.44,-101.52 1235.5,-74 1202.07,-68.02 1195.03,-60.38 1161.5,-55 922.13,-16.62 629.3,-11.25 529.63,-10.57"/>
<polygon fill="#63b8ff" stroke="#63b8ff" points="529.54,-7.07 519.52,-10.51 529.5,-14.07 529.54,-7.07"/>
</a>
</g>
</g>
<!-- Node26&#45;&gt;Node5 -->
<g id="edge57_Node000026_Node000005" class="edge">
<title>Node26&#45;&gt;Node5</title>
<g id="a_edge57_Node000026_Node000005"><a xlink:title=" ">
<path fill="none" stroke="#63b8ff" d="M1640.8,-109.84C1630.47,-101.09 1617.22,-89.85 1606.64,-80.88"/>
<polygon fill="#63b8ff" stroke="#63b8ff" points="1608.73,-78.06 1598.84,-74.27 1604.2,-83.4 1608.73,-78.06"/>
</a>
</g>
</g>
<!-- Node26&#45;&gt;Node6 -->
<g id="edge58_Node000026_Node000006" class="edge">
<title>Node26&#45;&gt;Node6</title>
<g id="a_edge58_Node000026_Node000006"><a xlink:title=" ">
<path fill="none" stroke="#63b8ff" d="M1593.92,-111.5C1591.08,-110.98 1588.26,-110.48 1585.5,-110 1577.9,-108.67 1077.81,-31.69 999.63,-18.67"/>
<polygon fill="#63b8ff" stroke="#63b8ff" points="1000.23,-15.22 989.78,-16.93 999.02,-22.12 1000.23,-15.22"/>
</a>
</g>
</g>
<!-- Node26&#45;&gt;Node7 -->
<g id="edge59_Node000026_Node000007" class="edge">
<title>Node26&#45;&gt;Node7</title>
<g id="a_edge59_Node000026_Node000007"><a xlink:title=" ">
<path fill="none" stroke="#63b8ff" d="M1612.19,-109.91C1561.86,-94.67 1478.01,-70.48 1404.5,-55 1302.05,-33.42 1272.59,-36.59 1165.09,-19.03"/>
<polygon fill="#63b8ff" stroke="#63b8ff" points="1165.58,-15.57 1155.14,-17.39 1164.43,-22.47 1165.58,-15.57"/>
</a>
</g>
</g>
<!-- Node26&#45;&gt;Node9 -->
<g id="edge60_Node000026_Node000009" class="edge">
<title>Node26&#45;&gt;Node9</title>
<g id="a_edge60_Node000026_Node000009"><a xlink:title=" ">
<path fill="none" stroke="#63b8ff" d="M1593.96,-111.27C1591.1,-110.82 1588.27,-110.39 1585.5,-110 1506.3,-98.86 1285.87,-81.28 1163,-71.9"/>
<polygon fill="#63b8ff" stroke="#63b8ff" points="1163.11,-68.4 1152.87,-71.13 1162.58,-75.38 1163.11,-68.4"/>
</a>
</g>
</g>
</g>
</svg>

<g id="navigator" transform="translate(0 0)" fill="#404254">
  <rect fill="#f2f5e9" fill-opacity="0.5" stroke="#606060" stroke-width=".5" x="0" y="0" width="60" height="60"/>
  <use id="zoomplus" xlink:href="#zoomPlus" x="17" y="9" onmousedown="handleZoom(evt,'in')"/>
  <use id="zoomminus" xlink:href="#zoomMin" x="42" y="9" onmousedown="handleZoom(evt,'out')"/>
  <use id="reset" xlink:href="#resetDef" x="30" y="36" onmousedown="handleReset()"/>
   <use id="arrowup" xlink:href="#arrowUp" x="0" y="0" onmousedown="handlePan(0,-1)"/>
  <use id="arrowright" xlink:href="#arrowRight" x="0" y="0" onmousedown="handlePan(1,0)"/>
  <use id="arrowdown" xlink:href="#arrowDown" x="0" y="0" onmousedown="handlePan(0,1)"/>
  <use id="arrowleft" xlink:href="#arrowLeft" x="0" y="0" onmousedown="handlePan(-1,0)"/>
</g>
<svg viewBox="0 0 15 15" width="100%" height="30px" preserveAspectRatio="xMaxYMin meet">
 <g id="arrow_out" transform="scale(0.3 0.3)">
  <a xlink:href="RfidDataTypes_8hpp__incl_org.svg" target="_base">
   <rect id="button" ry="5" rx="5" y="6" x="6" height="38" width="38"
        fill="#f2f5e9" fill-opacity="0.5" stroke="#606060" stroke-width="1.0"/>
   <path id="arrow"
     d="M 11.500037,31.436501 C 11.940474,20.09759 22.043105,11.32322 32.158766,21.979434 L 37.068811,17.246167 C 37.068811,17.246167 37.088388,32 37.088388,32 L 22.160133,31.978069 C 22.160133,31.978069 26.997745,27.140456 26.997745,27.140456 C 18.528582,18.264221 13.291696,25.230495 11.500037,31.436501 z"
     style="fill:#404040;"/>
  </a>
 </g>
</svg>

<style type='text/css'>
<![CDATA[
[data-mouse-over-selected='false'] { opacity: 0.7; }
[data-mouse-over-selected='true']  { opacity: 1.0; }
]]>
</style>
<script type="application/ecmascript"><![CDATA[
document.addEventListener('DOMContentLoaded', (event) => {
  highlightEdges();
  highlightAdjacentNodes();
});
]]></script>
</svg>
