<?xml version="1.0" encoding="UTF-8" standalone="no"?>
<!DOCTYPE svg PUBLIC "-//W3C//DTD SVG 1.1//EN"
 "http://www.w3.org/Graphics/SVG/1.1/DTD/svg11.dtd">
<!-- Generated by graphviz version 2.43.0 (0)
 -->
<!-- Title: RfidDataTypes.hpp Pages: 1 -->
<svg width="1837pt" height="192pt"
 viewBox="0.00 0.00 1837.04 192.00" xmlns="http://www.w3.org/2000/svg" xmlns:xlink="http://www.w3.org/1999/xlink">
<g id="graph0" class="graph" transform="scale(1 1) rotate(0) translate(4 188)">
<title>RfidDataTypes.hpp</title>
<!-- Node1 -->
<g id="Node000001" class="node">
<title>Node1</title>
<g id="a_Node000001"><a xlink:title=" ">
<polygon fill="#999999" stroke="#666666" points="1163,-184 1056,-184 1056,-165 1163,-165 1163,-184"/>
<text text-anchor="middle" x="1109.5" y="-172" font-family="Helvetica,sans-Serif" font-size="10.00">RfidDataTypes.hpp</text>
</a>
</g>
</g>
<!-- Node2 -->
<g id="Node000002" class="node">
<title>Node2</title>
<g id="a_Node000002"><a xlink:title=" ">
<polygon fill="#e0e0e0" stroke="#999999" points="49,-129 0,-129 0,-110 49,-110 49,-129"/>
<text text-anchor="middle" x="24.5" y="-117" font-family="Helvetica,sans-Serif" font-size="10.00">cctype</text>
</a>
</g>
</g>
<!-- Node1&#45;&gt;Node2 -->
<g id="edge1_Node000001_Node000002" class="edge">
<title>Node1&#45;&gt;Node2</title>
<g id="a_edge1_Node000001_Node000002"><a xlink:title=" ">
<path fill="none" stroke="#63b8ff" d="M1055.81,-172.66C872.85,-169.6 273.78,-157.68 59.48,-128.74"/>
<polygon fill="#63b8ff" stroke="#63b8ff" points="59.66,-125.23 49.27,-127.31 58.68,-132.17 59.66,-125.23"/>
</a>
</g>
</g>
<!-- Node3 -->
<g id="Node000003" class="node">
<title>Node3</title>
<g id="a_Node000003"><a xlink:title=" ">
<polygon fill="#e0e0e0" stroke="#999999" points="1402.5,-19 1352.5,-19 1352.5,0 1402.5,0 1402.5,-19"/>
<text text-anchor="middle" x="1377.5" y="-7" font-family="Helvetica,sans-Serif" font-size="10.00">cstdint</text>
</a>
</g>
</g>
<!-- Node1&#45;&gt;Node3 -->
<g id="edge2_Node000001_Node000003" class="edge">
<title>Node1&#45;&gt;Node3</title>
<g id="a_edge2_Node000001_Node000003"><a xlink:title=" ">
<path fill="none" stroke="#63b8ff" d="M1163.12,-172.99C1208.48,-170.17 1273.43,-160.31 1320.5,-129 1354.76,-106.21 1369.03,-56.76 1374.48,-29.5"/>
<polygon fill="#63b8ff" stroke="#63b8ff" points="1377.99,-29.78 1376.31,-19.31 1371.1,-28.54 1377.99,-29.78"/>
</a>
</g>
</g>
<!-- Node4 -->
<g id="Node000004" class="node">
<title>Node4</title>
<g id="a_Node000004"><a xlink:title=" ">
<polygon fill="#e0e0e0" stroke="#999999" points="1159.5,-74 1109.5,-74 1109.5,-55 1159.5,-55 1159.5,-74"/>
<text text-anchor="middle" x="1134.5" y="-62" font-family="Helvetica,sans-Serif" font-size="10.00">cstring</text>
</a>
</g>
</g>
<!-- Node1&#45;&gt;Node4 -->
<g id="edge3_Node000001_Node000004" class="edge">
<title>Node1&#45;&gt;Node4</title>
<g id="a_edge3_Node000001_Node000004"><a xlink:title=" ">
<path fill="none" stroke="#63b8ff" d="M1114.41,-164.96C1119.17,-156.23 1126.14,-142.13 1129.5,-129 1133.24,-114.4 1134.41,-97.35 1134.69,-84.59"/>
<polygon fill="#63b8ff" stroke="#63b8ff" points="1138.19,-84.3 1134.75,-74.28 1131.19,-84.26 1138.19,-84.3"/>
</a>
</g>
</g>
<!-- Node5 -->
<g id="Node000005" class="node">
<title>Node5</title>
<g id="a_Node000005"><a xlink:title=" ">
<polygon fill="#e0e0e0" stroke="#999999" points="1349,-74 1292,-74 1292,-55 1349,-55 1349,-74"/>
<text text-anchor="middle" x="1320.5" y="-62" font-family="Helvetica,sans-Serif" font-size="10.00">ostream</text>
</a>
</g>
</g>
<!-- Node1&#45;&gt;Node5 -->
<g id="edge4_Node000001_Node000005" class="edge">
<title>Node1&#45;&gt;Node5</title>
<g id="a_edge4_Node000001_Node000005"><a xlink:title=" ">
<path fill="none" stroke="#63b8ff" d="M1163.23,-167.13C1212.84,-160.2 1281.73,-147.56 1301.5,-129 1313.68,-117.56 1318.16,-98.68 1319.75,-84.47"/>
<polygon fill="#63b8ff" stroke="#63b8ff" points="1323.25,-84.54 1320.5,-74.3 1316.27,-84.02 1323.25,-84.54"/>
</a>
</g>
</g>
<!-- Node6 -->
<g id="Node000006" class="node">
<title>Node6</title>
<g id="a_Node000006"><a xlink:title=" ">
<polygon fill="#e0e0e0" stroke="#999999" points="1475.5,-19 1431.5,-19 1431.5,0 1475.5,0 1475.5,-19"/>
<text text-anchor="middle" x="1453.5" y="-7" font-family="Helvetica,sans-Serif" font-size="10.00">string</text>
</a>
</g>
</g>
<!-- Node1&#45;&gt;Node6 -->
<g id="edge5_Node000001_Node000006" class="edge">
<title>Node1&#45;&gt;Node6</title>
<g id="a_edge5_Node000001_Node000006"><a xlink:title=" ">
<path fill="none" stroke="#63b8ff" d="M1163.27,-172.03C1322.14,-167.43 1779.74,-152.2 1801.5,-129 1832.68,-95.75 1797.33,-80.22 1748.5,-55 1725.47,-43.1 1558.01,-22.59 1486.13,-14.22"/>
<polygon fill="#63b8ff" stroke="#63b8ff" points="1486.19,-10.71 1475.85,-13.03 1485.38,-17.66 1486.19,-10.71"/>
</a>
</g>
</g>
<!-- Node7 -->
<g id="Node000007" class="node">
<title>Node7</title>
<g id="a_Node000007"><a xlink:title=" ">
<polygon fill="#e0e0e0" stroke="#999999" points="1623,-19 1550,-19 1550,0 1623,0 1623,-19"/>
<text text-anchor="middle" x="1586.5" y="-7" font-family="Helvetica,sans-Serif" font-size="10.00">string_view</text>
</a>
</g>
</g>
<!-- Node1&#45;&gt;Node7 -->
<g id="edge6_Node000001_Node000007" class="edge">
<title>Node1&#45;&gt;Node7</title>
<g id="a_edge6_Node000001_Node000007"><a xlink:title=" ">
<path fill="none" stroke="#63b8ff" d="M1163.02,-172.13C1324.63,-167.75 1798.05,-152.9 1820.5,-129 1843.9,-104.09 1814.58,-75.41 1785.5,-55 1740.39,-23.34 1676.56,-13.73 1633.46,-11.06"/>
<polygon fill="#63b8ff" stroke="#63b8ff" points="1633.41,-7.55 1623.24,-10.53 1633.05,-14.54 1633.41,-7.55"/>
</a>
</g>
</g>
<!-- Node8 -->
<g id="Node000008" class="node">
<title>Node8</title>
<g id="a_Node000008"><a xlink:href="../../dc/d01/ActivationTimeType_8hpp.html" target="_top" xlink:title=" ">
<polygon fill="white" stroke="#666666" points="201.5,-129 67.5,-129 67.5,-110 201.5,-110 201.5,-129"/>
<text text-anchor="middle" x="134.5" y="-117" font-family="Helvetica,sans-Serif" font-size="10.00">ActivationTimeType.hpp</text>
</a>
</g>
</g>
<!-- Node1&#45;&gt;Node8 -->
<g id="edge7_Node000001_Node000008" class="edge">
<title>Node1&#45;&gt;Node8</title>
<g id="a_edge7_Node000001_Node000008"><a xlink:title=" ">
<path fill="none" stroke="#63b8ff" d="M1055.97,-172.01C917.98,-167.91 538.67,-155.08 211.76,-129.05"/>
<polygon fill="#63b8ff" stroke="#63b8ff" points="211.86,-125.54 201.62,-128.23 211.3,-132.52 211.86,-125.54"/>
</a>
</g>
</g>
<!-- Node14 -->
<g id="Node000014" class="node">
<title>Node14</title>
<g id="a_Node000014"><a xlink:href="../../de/de6/DrinkCounterType_8hpp.html" target="_top" xlink:title=" ">
<polygon fill="white" stroke="#666666" points="345,-129 220,-129 220,-110 345,-110 345,-129"/>
<text text-anchor="middle" x="282.5" y="-117" font-family="Helvetica,sans-Serif" font-size="10.00">DrinkCounterType.hpp</text>
</a>
</g>
</g>
<!-- Node1&#45;&gt;Node14 -->
<g id="edge16_Node000001_Node000014" class="edge">
<title>Node1&#45;&gt;Node14</title>
<g id="a_edge16_Node000001_Node000014"><a xlink:title=" ">
<path fill="none" stroke="#63b8ff" d="M1055.87,-171.42C933.62,-166.45 624.73,-152.56 355.28,-129.01"/>
<polygon fill="#63b8ff" stroke="#63b8ff" points="355.57,-125.52 345.31,-128.13 354.96,-132.5 355.57,-125.52"/>
</a>
</g>
</g>
<!-- Node15 -->
<g id="Node000015" class="node">
<title>Node15</title>
<g id="a_Node000015"><a xlink:href="../../d7/dcc/LacteIdType_8hpp.html" target="_top" xlink:title=" ">
<polygon fill="white" stroke="#666666" points="1482,-129 1387,-129 1387,-110 1482,-110 1482,-129"/>
<text text-anchor="middle" x="1434.5" y="-117" font-family="Helvetica,sans-Serif" font-size="10.00">LacteIdType.hpp</text>
</a>
</g>
</g>
<!-- Node1&#45;&gt;Node15 -->
<g id="edge18_Node000001_Node000015" class="edge">
<title>Node1&#45;&gt;Node15</title>
<g id="a_edge18_Node000001_Node000015"><a xlink:title=" ">
<path fill="none" stroke="#63b8ff" d="M1161.72,-164.98C1220.49,-155.4 1315.71,-139.87 1376.68,-129.93"/>
<polygon fill="#63b8ff" stroke="#63b8ff" points="1377.6,-133.32 1386.91,-128.26 1376.48,-126.42 1377.6,-133.32"/>
</a>
</g>
</g>
<!-- Node17 -->
<g id="Node000017" class="node">
<title>Node17</title>
<g id="a_Node000017"><a xlink:href="../../d4/d74/LacteSnType_8hpp.html" target="_top" xlink:title=" ">
<polygon fill="white" stroke="#666666" points="461.5,-129 363.5,-129 363.5,-110 461.5,-110 461.5,-129"/>
<text text-anchor="middle" x="412.5" y="-117" font-family="Helvetica,sans-Serif" font-size="10.00">LacteSnType.hpp</text>
</a>
</g>
</g>
<!-- Node1&#45;&gt;Node17 -->
<g id="edge24_Node000001_Node000017" class="edge">
<title>Node1&#45;&gt;Node17</title>
<g id="a_edge24_Node000001_Node000017"><a xlink:title=" ">
<path fill="none" stroke="#63b8ff" d="M1055.94,-171.15C947.65,-166.09 694.74,-152.77 471.77,-129.05"/>
<polygon fill="#63b8ff" stroke="#63b8ff" points="471.83,-125.54 461.51,-127.95 471.08,-132.5 471.83,-125.54"/>
</a>
</g>
</g>
<!-- Node18 -->
<g id="Node000018" class="node">
<title>Node18</title>
<g id="a_Node000018"><a xlink:href="../../df/d1a/MachineSnType_8hpp.html" target="_top" xlink:title=" ">
<polygon fill="white" stroke="#666666" points="593,-129 480,-129 480,-110 593,-110 593,-129"/>
<text text-anchor="middle" x="536.5" y="-117" font-family="Helvetica,sans-Serif" font-size="10.00">MachineSnType.hpp</text>
</a>
</g>
</g>
<!-- Node1&#45;&gt;Node18 -->
<g id="edge26_Node000001_Node000018" class="edge">
<title>Node1&#45;&gt;Node18</title>
<g id="a_edge26_Node000001_Node000018"><a xlink:title=" ">
<path fill="none" stroke="#63b8ff" d="M1055.78,-169.5C964.91,-162.59 774.85,-147.44 602.99,-129.01"/>
<polygon fill="#63b8ff" stroke="#63b8ff" points="603.33,-125.52 593.01,-127.93 602.57,-132.48 603.33,-125.52"/>
</a>
</g>
</g>
<!-- Node19 -->
<g id="Node000019" class="node">
<title>Node19</title>
<g id="a_Node000019"><a xlink:href="../../d5/df1/MagicWordType_8hpp.html" target="_top" xlink:title=" ">
<polygon fill="white" stroke="#666666" points="725.5,-129 611.5,-129 611.5,-110 725.5,-110 725.5,-129"/>
<text text-anchor="middle" x="668.5" y="-117" font-family="Helvetica,sans-Serif" font-size="10.00">MagicWordType.hpp</text>
</a>
</g>
</g>
<!-- Node1&#45;&gt;Node19 -->
<g id="edge28_Node000001_Node000019" class="edge">
<title>Node1&#45;&gt;Node19</title>
<g id="a_edge28_Node000001_Node000019"><a xlink:title=" ">
<path fill="none" stroke="#63b8ff" d="M1055.76,-167.29C984.93,-159.07 856.14,-144 735.86,-129.16"/>
<polygon fill="#63b8ff" stroke="#63b8ff" points="736.09,-125.66 725.73,-127.91 735.23,-132.61 736.09,-125.66"/>
</a>
</g>
</g>
<!-- Node20 -->
<g id="Node000020" class="node">
<title>Node20</title>
<g id="a_Node000020"><a xlink:href="../../d1/d57/McuUidType_8hpp.html" target="_top" xlink:title=" ">
<polygon fill="white" stroke="#666666" points="1120,-129 1023,-129 1023,-110 1120,-110 1120,-129"/>
<text text-anchor="middle" x="1071.5" y="-117" font-family="Helvetica,sans-Serif" font-size="10.00">McuUidType.hpp</text>
</a>
</g>
</g>
<!-- Node1&#45;&gt;Node20 -->
<g id="edge30_Node000001_Node000020" class="edge">
<title>Node1&#45;&gt;Node20</title>
<g id="a_edge30_Node000001_Node000020"><a xlink:title=" ">
<path fill="none" stroke="#63b8ff" d="M1103.23,-164.75C1097.91,-157.34 1090.14,-146.5 1083.62,-137.41"/>
<polygon fill="#63b8ff" stroke="#63b8ff" points="1086.33,-135.18 1077.66,-129.09 1080.64,-139.26 1086.33,-135.18"/>
</a>
</g>
</g>
<!-- Node22 -->
<g id="Node000022" class="node">
<title>Node22</title>
<g id="a_Node000022"><a xlink:href="../../da/d1d/ProductDateType_8hpp.html" target="_top" xlink:title=" ">
<polygon fill="white" stroke="#666666" points="863.5,-129 743.5,-129 743.5,-110 863.5,-110 863.5,-129"/>
<text text-anchor="middle" x="803.5" y="-117" font-family="Helvetica,sans-Serif" font-size="10.00">ProductDateType.hpp</text>
</a>
</g>
</g>
<!-- Node1&#45;&gt;Node22 -->
<g id="edge38_Node000001_Node000022" class="edge">
<title>Node1&#45;&gt;Node22</title>
<g id="a_edge38_Node000001_Node000022"><a xlink:title=" ">
<path fill="none" stroke="#63b8ff" d="M1060.34,-164.98C1006.55,-155.67 920.34,-140.74 862.83,-130.78"/>
<polygon fill="#63b8ff" stroke="#63b8ff" points="863.25,-127.3 852.8,-129.04 862.05,-134.19 863.25,-127.3"/>
</a>
</g>
</g>
<!-- Node23 -->
<g id="Node000023" class="node">
<title>Node23</title>
<g id="a_Node000023"><a xlink:href="../../d7/d11/ProductShelfLifeType_8hpp.html" target="_top" xlink:title=" ">
<polygon fill="white" stroke="#666666" points="1792.5,-129 1652.5,-129 1652.5,-110 1792.5,-110 1792.5,-129"/>
<text text-anchor="middle" x="1722.5" y="-117" font-family="Helvetica,sans-Serif" font-size="10.00">ProductShelfLifeType.hpp</text>
</a>
</g>
</g>
<!-- Node1&#45;&gt;Node23 -->
<g id="edge40_Node000001_Node000023" class="edge">
<title>Node1&#45;&gt;Node23</title>
<g id="a_edge40_Node000001_Node000023"><a xlink:title=" ">
<path fill="none" stroke="#63b8ff" d="M1163.35,-169.44C1257.98,-162.22 1460.52,-146.34 1642.29,-129.1"/>
<polygon fill="#63b8ff" stroke="#63b8ff" points="1642.67,-132.57 1652.3,-128.14 1642.01,-125.61 1642.67,-132.57"/>
</a>
</g>
</g>
<!-- Node24 -->
<g id="Node000024" class="node">
<title>Node24</title>
<g id="a_Node000024"><a xlink:href="../../d3/d74/ProductVolumeType_8hpp.html" target="_top" xlink:title=" ">
<polygon fill="white" stroke="#666666" points="1634.5,-129 1500.5,-129 1500.5,-110 1634.5,-110 1634.5,-129"/>
<text text-anchor="middle" x="1567.5" y="-117" font-family="Helvetica,sans-Serif" font-size="10.00">ProductVolumeType.hpp</text>
</a>
</g>
</g>
<!-- Node1&#45;&gt;Node24 -->
<g id="edge46_Node000001_Node000024" class="edge">
<title>Node1&#45;&gt;Node24</title>
<g id="a_edge46_Node000001_Node000024"><a xlink:title=" ">
<path fill="none" stroke="#63b8ff" d="M1163.39,-167.26C1244.3,-157.9 1397.55,-140.17 1490.32,-129.43"/>
<polygon fill="#63b8ff" stroke="#63b8ff" points="1490.96,-132.88 1500.49,-128.25 1490.15,-125.93 1490.96,-132.88"/>
</a>
</g>
</g>
<!-- Node25 -->
<g id="Node000025" class="node">
<title>Node25</title>
<g id="a_Node000025"><a xlink:href="../../d2/d37/TimeCounterType_8hpp.html" target="_top" xlink:title=" ">
<polygon fill="white" stroke="#666666" points="1005,-129 882,-129 882,-110 1005,-110 1005,-129"/>
<text text-anchor="middle" x="943.5" y="-117" font-family="Helvetica,sans-Serif" font-size="10.00">TimeCounterType.hpp</text>
</a>
</g>
</g>
<!-- Node1&#45;&gt;Node25 -->
<g id="edge52_Node000001_Node000025" class="edge">
<title>Node1&#45;&gt;Node25</title>
<g id="a_edge52_Node000001_Node000025"><a xlink:title=" ">
<path fill="none" stroke="#63b8ff" d="M1082.83,-164.98C1054.96,-156.09 1011.05,-142.07 979.98,-132.15"/>
<polygon fill="#63b8ff" stroke="#63b8ff" points="980.97,-128.79 970.38,-129.08 978.84,-135.46 980.97,-128.79"/>
</a>
</g>
</g>
<!-- Node26 -->
<g id="Node000026" class="node">
<title>Node26</title>
<g id="a_Node000026"><a xlink:href="../../d8/dc2/UsageTimeType_8hpp.html" target="_top" xlink:title=" ">
<polygon fill="white" stroke="#666666" points="1292.5,-129 1176.5,-129 1176.5,-110 1292.5,-110 1292.5,-129"/>
<text text-anchor="middle" x="1234.5" y="-117" font-family="Helvetica,sans-Serif" font-size="10.00">UsageTimeType.hpp</text>
</a>
</g>
</g>
<!-- Node1&#45;&gt;Node26 -->
<g id="edge54_Node000001_Node000026" class="edge">
<title>Node1&#45;&gt;Node26</title>
<g id="a_edge54_Node000001_Node000026"><a xlink:title=" ">
<path fill="none" stroke="#63b8ff" d="M1129.58,-164.98C1149.87,-156.38 1181.46,-142.99 1204.67,-133.15"/>
<polygon fill="#63b8ff" stroke="#63b8ff" points="1206.21,-136.3 1214.05,-129.17 1203.48,-129.85 1206.21,-136.3"/>
</a>
</g>
</g>
<!-- Node9 -->
<g id="Node000009" class="node">
<title>Node9</title>
<g id="a_Node000009"><a xlink:href="../../d7/dd7/Helpers_8hpp.html" target="_top" xlink:title=" ">
<polygon fill="white" stroke="#666666" points="857,-74 782,-74 782,-55 857,-55 857,-74"/>
<text text-anchor="middle" x="819.5" y="-62" font-family="Helvetica,sans-Serif" font-size="10.00">Helpers.hpp</text>
</a>
</g>
</g>
<!-- Node8&#45;&gt;Node9 -->
<g id="edge8_Node000008_Node000009" class="edge">
<title>Node8&#45;&gt;Node9</title>
<g id="a_edge8_Node000008_Node000009"><a xlink:title=" ">
<path fill="none" stroke="#63b8ff" d="M201.62,-110.85C204.62,-110.55 207.59,-110.27 210.5,-110 419.2,-90.71 668.78,-74.67 771.62,-68.37"/>
<polygon fill="#63b8ff" stroke="#63b8ff" points="771.92,-71.86 781.69,-67.76 771.49,-64.87 771.92,-71.86"/>
</a>
</g>
</g>
<!-- Node9&#45;&gt;Node3 -->
<g id="edge11_Node000009_Node000003" class="edge">
<title>Node9&#45;&gt;Node3</title>
<g id="a_edge11_Node000009_Node000003"><a xlink:title=" ">
<path fill="none" stroke="#63b8ff" d="M857.41,-59.9C960.13,-50.14 1242.71,-23.3 1342.25,-13.85"/>
<polygon fill="#63b8ff" stroke="#63b8ff" points="1342.75,-17.32 1352.38,-12.89 1342.09,-10.35 1342.75,-17.32"/>
</a>
</g>
</g>
<!-- Node9&#45;&gt;Node6 -->
<g id="edge14_Node000009_Node000006" class="edge">
<title>Node9&#45;&gt;Node6</title>
<g id="a_edge14_Node000009_Node000006"><a xlink:title=" ">
<path fill="none" stroke="#63b8ff" d="M857.2,-60.8C983.29,-51.74 1384,-22.8 1411.5,-19 1414.74,-18.55 1418.11,-18.01 1421.47,-17.41"/>
<polygon fill="#63b8ff" stroke="#63b8ff" points="1422.19,-20.84 1431.36,-15.52 1420.88,-13.96 1422.19,-20.84"/>
</a>
</g>
</g>
<!-- Node9&#45;&gt;Node7 -->
<g id="edge15_Node000009_Node000007" class="edge">
<title>Node9&#45;&gt;Node7</title>
<g id="a_edge15_Node000009_Node000007"><a xlink:title=" ">
<path fill="none" stroke="#63b8ff" d="M857.18,-60.87C881.52,-59.18 913.88,-56.94 942.5,-55 1183.37,-38.68 1243.75,-37.03 1484.5,-19 1502.4,-17.66 1522.06,-16.05 1539.3,-14.6"/>
<polygon fill="#63b8ff" stroke="#63b8ff" points="1540.02,-18.05 1549.69,-13.72 1539.43,-11.08 1540.02,-18.05"/>
</a>
</g>
</g>
<!-- Node10 -->
<g id="Node000010" class="node">
<title>Node10</title>
<g id="a_Node000010"><a xlink:title=" ">
<polygon fill="#e0e0e0" stroke="#999999" points="892.5,-19 850.5,-19 850.5,0 892.5,0 892.5,-19"/>
<text text-anchor="middle" x="871.5" y="-7" font-family="Helvetica,sans-Serif" font-size="10.00">array</text>
</a>
</g>
</g>
<!-- Node9&#45;&gt;Node10 -->
<g id="edge9_Node000009_Node000010" class="edge">
<title>Node9&#45;&gt;Node10</title>
<g id="a_edge9_Node000009_Node000010"><a xlink:title=" ">
<path fill="none" stroke="#63b8ff" d="M828.09,-54.75C835.66,-47.03 846.88,-35.6 856.01,-26.28"/>
<polygon fill="#63b8ff" stroke="#63b8ff" points="858.57,-28.68 863.07,-19.09 853.57,-23.78 858.57,-28.68"/>
</a>
</g>
</g>
<!-- Node11 -->
<g id="Node000011" class="node">
<title>Node11</title>
<g id="a_Node000011"><a xlink:title=" ">
<polygon fill="#e0e0e0" stroke="#999999" points="964,-19 911,-19 911,0 964,0 964,-19"/>
<text text-anchor="middle" x="937.5" y="-7" font-family="Helvetica,sans-Serif" font-size="10.00">cstddef</text>
</a>
</g>
</g>
<!-- Node9&#45;&gt;Node11 -->
<g id="edge10_Node000009_Node000011" class="edge">
<title>Node9&#45;&gt;Node11</title>
<g id="a_edge10_Node000009_Node000011"><a xlink:title=" ">
<path fill="none" stroke="#63b8ff" d="M838.46,-54.98C857.53,-46.42 887.16,-33.11 909.05,-23.28"/>
<polygon fill="#63b8ff" stroke="#63b8ff" points="910.51,-26.46 918.2,-19.17 907.64,-20.07 910.51,-26.46"/>
</a>
</g>
</g>
<!-- Node12 -->
<g id="Node000012" class="node">
<title>Node12</title>
<g id="a_Node000012"><a xlink:title=" ">
<polygon fill="#e0e0e0" stroke="#999999" points="832.5,-19 776.5,-19 776.5,0 832.5,0 832.5,-19"/>
<text text-anchor="middle" x="804.5" y="-7" font-family="Helvetica,sans-Serif" font-size="10.00">iomanip</text>
</a>
</g>
</g>
<!-- Node9&#45;&gt;Node12 -->
<g id="edge12_Node000009_Node000012" class="edge">
<title>Node9&#45;&gt;Node12</title>
<g id="a_edge12_Node000009_Node000012"><a xlink:title=" ">
<path fill="none" stroke="#63b8ff" d="M817.02,-54.75C815.04,-47.72 812.18,-37.62 809.69,-28.84"/>
<polygon fill="#63b8ff" stroke="#63b8ff" points="813.02,-27.76 806.93,-19.09 806.29,-29.66 813.02,-27.76"/>
</a>
</g>
</g>
<!-- Node13 -->
<g id="Node000013" class="node">
<title>Node13</title>
<g id="a_Node000013"><a xlink:title=" ">
<polygon fill="#e0e0e0" stroke="#999999" points="758.5,-19 698.5,-19 698.5,0 758.5,0 758.5,-19"/>
<text text-anchor="middle" x="728.5" y="-7" font-family="Helvetica,sans-Serif" font-size="10.00">iostream</text>
</a>
</g>
</g>
<!-- Node9&#45;&gt;Node13 -->
<g id="edge13_Node000009_Node000013" class="edge">
<title>Node9&#45;&gt;Node13</title>
<g id="a_edge13_Node000009_Node000013"><a xlink:title=" ">
<path fill="none" stroke="#63b8ff" d="M804.88,-54.98C790.64,-46.69 768.75,-33.94 752.05,-24.22"/>
<polygon fill="#63b8ff" stroke="#63b8ff" points="753.79,-21.18 743.39,-19.17 750.27,-27.23 753.79,-21.18"/>
</a>
</g>
</g>
<!-- Node14&#45;&gt;Node9 -->
<g id="edge17_Node000014_Node000009" class="edge">
<title>Node14&#45;&gt;Node9</title>
<g id="a_edge17_Node000014_Node000009"><a xlink:title=" ">
<path fill="none" stroke="#63b8ff" d="M345.32,-111C348.42,-110.66 351.5,-110.32 354.5,-110 506.8,-93.72 687.48,-77.24 771.77,-69.72"/>
<polygon fill="#63b8ff" stroke="#63b8ff" points="772.15,-73.2 781.8,-68.82 771.53,-66.22 772.15,-73.2"/>
</a>
</g>
</g>
<!-- Node15&#45;&gt;Node3 -->
<g id="edge19_Node000015_Node000003" class="edge">
<title>Node15&#45;&gt;Node3</title>
<g id="a_edge19_Node000015_Node000003"><a xlink:title=" ">
<path fill="none" stroke="#63b8ff" d="M1429.84,-109.66C1420.44,-91.85 1399.07,-51.37 1386.74,-28.01"/>
<polygon fill="#63b8ff" stroke="#63b8ff" points="1389.83,-26.37 1382.07,-19.16 1383.64,-29.64 1389.83,-26.37"/>
</a>
</g>
</g>
<!-- Node15&#45;&gt;Node6 -->
<g id="edge21_Node000015_Node000006" class="edge">
<title>Node15&#45;&gt;Node6</title>
<g id="a_edge21_Node000015_Node000006"><a xlink:title=" ">
<path fill="none" stroke="#63b8ff" d="M1436.05,-109.66C1439.13,-92.17 1446.06,-52.8 1450.2,-29.27"/>
<polygon fill="#63b8ff" stroke="#63b8ff" points="1453.69,-29.61 1451.98,-19.16 1446.8,-28.4 1453.69,-29.61"/>
</a>
</g>
</g>
<!-- Node15&#45;&gt;Node7 -->
<g id="edge22_Node000015_Node000007" class="edge">
<title>Node15&#45;&gt;Node7</title>
<g id="a_edge22_Node000015_Node000007"><a xlink:title=" ">
<path fill="none" stroke="#63b8ff" d="M1446.68,-109.84C1472.7,-91.36 1533.92,-47.86 1566.03,-25.05"/>
<polygon fill="#63b8ff" stroke="#63b8ff" points="1568.14,-27.84 1574.26,-19.2 1564.08,-22.14 1568.14,-27.84"/>
</a>
</g>
</g>
<!-- Node15&#45;&gt;Node9 -->
<g id="edge23_Node000015_Node000009" class="edge">
<title>Node15&#45;&gt;Node9</title>
<g id="a_edge23_Node000015_Node000009"><a xlink:title=" ">
<path fill="none" stroke="#63b8ff" d="M1386.75,-114.39C1272.08,-104.5 982.17,-79.52 867.37,-69.63"/>
<polygon fill="#63b8ff" stroke="#63b8ff" points="867.41,-66.12 857.14,-68.74 866.81,-73.09 867.41,-66.12"/>
</a>
</g>
</g>
<!-- Node16 -->
<g id="Node000016" class="node">
<title>Node16</title>
<g id="a_Node000016"><a xlink:title=" ">
<polygon fill="#e0e0e0" stroke="#999999" points="1689.5,-74 1633.5,-74 1633.5,-55 1689.5,-55 1689.5,-74"/>
<text text-anchor="middle" x="1661.5" y="-62" font-family="Helvetica,sans-Serif" font-size="10.00">sstream</text>
</a>
</g>
</g>
<!-- Node15&#45;&gt;Node16 -->
<g id="edge20_Node000015_Node000016" class="edge">
<title>Node15&#45;&gt;Node16</title>
<g id="a_edge20_Node000015_Node000016"><a xlink:title=" ">
<path fill="none" stroke="#63b8ff" d="M1470.97,-109.98C1512.77,-100.23 1580.95,-84.31 1623.42,-74.39"/>
<polygon fill="#63b8ff" stroke="#63b8ff" points="1624.42,-77.75 1633.36,-72.07 1622.83,-70.93 1624.42,-77.75"/>
</a>
</g>
</g>
<!-- Node17&#45;&gt;Node9 -->
<g id="edge25_Node000017_Node000009" class="edge">
<title>Node17&#45;&gt;Node9</title>
<g id="a_edge25_Node000017_Node000009"><a xlink:title=" ">
<path fill="none" stroke="#63b8ff" d="M461.54,-111.25C464.57,-110.82 467.58,-110.4 470.5,-110 577.92,-95.28 704.16,-79.58 771.48,-71.33"/>
<polygon fill="#63b8ff" stroke="#63b8ff" points="772.27,-74.76 781.77,-70.08 771.42,-67.82 772.27,-74.76"/>
</a>
</g>
</g>
<!-- Node18&#45;&gt;Node9 -->
<g id="edge27_Node000018_Node000009" class="edge">
<title>Node18&#45;&gt;Node9</title>
<g id="a_edge27_Node000018_Node000009"><a xlink:title=" ">
<path fill="none" stroke="#63b8ff" d="M581.97,-109.98C633.97,-100.25 718.73,-84.37 771.69,-74.45"/>
<polygon fill="#63b8ff" stroke="#63b8ff" points="772.66,-77.83 781.84,-72.55 771.37,-70.95 772.66,-77.83"/>
</a>
</g>
</g>
<!-- Node19&#45;&gt;Node9 -->
<g id="edge29_Node000019_Node000009" class="edge">
<title>Node19&#45;&gt;Node9</title>
<g id="a_edge29_Node000019_Node000009"><a xlink:title=" ">
<path fill="none" stroke="#63b8ff" d="M692.76,-109.98C717.82,-101.19 757.13,-87.39 785.33,-77.49"/>
<polygon fill="#63b8ff" stroke="#63b8ff" points="786.52,-80.78 794.8,-74.17 784.2,-74.18 786.52,-80.78"/>
</a>
</g>
</g>
<!-- Node20&#45;&gt;Node3 -->
<g id="edge34_Node000020_Node000003" class="edge">
<title>Node20&#45;&gt;Node3</title>
<g id="a_edge34_Node000020_Node000003"><a xlink:title=" ">
<path fill="none" stroke="#63b8ff" d="M1067.57,-109.9C1062.08,-96.44 1054.19,-70.36 1067.5,-55 1102.71,-14.37 1268.54,-9.96 1342.15,-10.05"/>
<polygon fill="#63b8ff" stroke="#63b8ff" points="1342.3,-13.55 1352.31,-10.1 1342.33,-6.55 1342.3,-13.55"/>
</a>
</g>
</g>
<!-- Node20&#45;&gt;Node4 -->
<g id="edge35_Node000020_Node000004" class="edge">
<title>Node20&#45;&gt;Node4</title>
<g id="a_edge35_Node000020_Node000004"><a xlink:title=" ">
<path fill="none" stroke="#63b8ff" d="M1081.62,-109.98C1090.94,-102.15 1104.97,-90.34 1116.24,-80.86"/>
<polygon fill="#63b8ff" stroke="#63b8ff" points="1118.79,-83.29 1124.19,-74.17 1114.29,-77.93 1118.79,-83.29"/>
</a>
</g>
</g>
<!-- Node20&#45;&gt;Node6 -->
<g id="edge36_Node000020_Node000006" class="edge">
<title>Node20&#45;&gt;Node6</title>
<g id="a_edge36_Node000020_Node000006"><a xlink:title=" ">
<path fill="none" stroke="#63b8ff" d="M1072.73,-109.83C1075.22,-95.77 1082.27,-68.26 1100.5,-55 1156.77,-14.08 1342.79,-29.91 1411.5,-19 1414.73,-18.49 1418.1,-17.9 1421.45,-17.28"/>
<polygon fill="#63b8ff" stroke="#63b8ff" points="1422.18,-20.7 1431.33,-15.35 1420.85,-13.83 1422.18,-20.7"/>
</a>
</g>
</g>
<!-- Node20&#45;&gt;Node9 -->
<g id="edge37_Node000020_Node000009" class="edge">
<title>Node20&#45;&gt;Node9</title>
<g id="a_edge37_Node000020_Node000009"><a xlink:title=" ">
<path fill="none" stroke="#63b8ff" d="M1031.01,-109.98C986.29,-100.58 914.37,-85.45 867.01,-75.49"/>
<polygon fill="#63b8ff" stroke="#63b8ff" points="867.51,-72.02 857.01,-73.39 866.07,-78.87 867.51,-72.02"/>
</a>
</g>
</g>
<!-- Node20&#45;&gt;Node10 -->
<g id="edge32_Node000020_Node000010" class="edge">
<title>Node20&#45;&gt;Node10</title>
<g id="a_edge32_Node000020_Node000010"><a xlink:title=" ">
<path fill="none" stroke="#63b8ff" d="M1024.13,-109.96C995.45,-103.29 959.03,-92.04 930.5,-74 911.3,-61.86 894.23,-41.96 883.46,-27.67"/>
<polygon fill="#63b8ff" stroke="#63b8ff" points="886.03,-25.26 877.32,-19.23 880.37,-29.38 886.03,-25.26"/>
</a>
</g>
</g>
<!-- Node20&#45;&gt;Node11 -->
<g id="edge33_Node000020_Node000011" class="edge">
<title>Node20&#45;&gt;Node11</title>
<g id="a_edge33_Node000020_Node000011"><a xlink:title=" ">
<path fill="none" stroke="#63b8ff" d="M1032.35,-109.97C998.66,-101.77 953.74,-88.52 942.5,-74 932.88,-61.56 932.4,-43.35 933.88,-29.62"/>
<polygon fill="#63b8ff" stroke="#63b8ff" points="937.4,-29.77 935.42,-19.36 930.47,-28.73 937.4,-29.77"/>
</a>
</g>
</g>
<!-- Node21 -->
<g id="Node000021" class="node">
<title>Node21</title>
<g id="a_Node000021"><a xlink:title=" ">
<polygon fill="#e0e0e0" stroke="#999999" points="1015.5,-74 951.5,-74 951.5,-55 1015.5,-55 1015.5,-74"/>
<text text-anchor="middle" x="983.5" y="-62" font-family="Helvetica,sans-Serif" font-size="10.00">algorithm</text>
</a>
</g>
</g>
<!-- Node20&#45;&gt;Node21 -->
<g id="edge31_Node000020_Node000021" class="edge">
<title>Node20&#45;&gt;Node21</title>
<g id="a_edge31_Node000020_Node000021"><a xlink:title=" ">
<path fill="none" stroke="#63b8ff" d="M1057.36,-109.98C1043.71,-101.77 1022.81,-89.18 1006.72,-79.49"/>
<polygon fill="#63b8ff" stroke="#63b8ff" points="1008.27,-76.33 997.9,-74.17 1004.66,-82.33 1008.27,-76.33"/>
</a>
</g>
</g>
<!-- Node22&#45;&gt;Node9 -->
<g id="edge39_Node000022_Node000009" class="edge">
<title>Node22&#45;&gt;Node9</title>
<g id="a_edge39_Node000022_Node000009"><a xlink:title=" ">
<path fill="none" stroke="#63b8ff" d="M806.14,-109.75C808.26,-102.72 811.31,-92.62 813.96,-83.84"/>
<polygon fill="#63b8ff" stroke="#63b8ff" points="817.37,-84.67 816.91,-74.09 810.67,-82.65 817.37,-84.67"/>
</a>
</g>
</g>
<!-- Node23&#45;&gt;Node3 -->
<g id="edge41_Node000023_Node000003" class="edge">
<title>Node23&#45;&gt;Node3</title>
<g id="a_edge41_Node000023_Node000003"><a xlink:title=" ">
<path fill="none" stroke="#63b8ff" d="M1721.95,-109.9C1720.57,-95.96 1715.69,-68.61 1698.5,-55 1650,-16.61 1483.58,-28.74 1422.5,-19 1419.28,-18.49 1415.94,-17.92 1412.6,-17.33"/>
<polygon fill="#63b8ff" stroke="#63b8ff" points="1413.15,-13.87 1402.68,-15.52 1411.89,-20.76 1413.15,-13.87"/>
</a>
</g>
</g>
<!-- Node23&#45;&gt;Node6 -->
<g id="edge43_Node000023_Node000006" class="edge">
<title>Node23&#45;&gt;Node6</title>
<g id="a_edge43_Node000023_Node000006"><a xlink:title=" ">
<path fill="none" stroke="#63b8ff" d="M1727.39,-109.96C1734.33,-96.57 1744.79,-70.59 1731.5,-55 1723.56,-45.69 1557.99,-23.72 1486.21,-14.59"/>
<polygon fill="#63b8ff" stroke="#63b8ff" points="1486.29,-11.07 1475.93,-13.29 1485.41,-18.02 1486.29,-11.07"/>
</a>
</g>
</g>
<!-- Node23&#45;&gt;Node7 -->
<g id="edge44_Node000023_Node000007" class="edge">
<title>Node23&#45;&gt;Node7</title>
<g id="a_edge44_Node000023_Node000007"><a xlink:title=" ">
<path fill="none" stroke="#63b8ff" d="M1736.82,-109.96C1755.65,-97.66 1784.67,-74.3 1769.5,-55 1752.85,-33.82 1681.82,-21.47 1633.31,-15.36"/>
<polygon fill="#63b8ff" stroke="#63b8ff" points="1633.67,-11.88 1623.33,-14.15 1632.83,-18.82 1633.67,-11.88"/>
</a>
</g>
</g>
<!-- Node23&#45;&gt;Node9 -->
<g id="edge45_Node000023_Node000009" class="edge">
<title>Node23&#45;&gt;Node9</title>
<g id="a_edge45_Node000023_Node000009"><a xlink:title=" ">
<path fill="none" stroke="#63b8ff" d="M1652.31,-110.74C1649.33,-110.48 1646.39,-110.23 1643.5,-110 1332.51,-85.3 1253.9,-92.75 942.5,-74 917.67,-72.5 890.04,-70.62 867.27,-69"/>
<polygon fill="#63b8ff" stroke="#63b8ff" points="867.4,-65.5 857.17,-68.28 866.9,-72.48 867.4,-65.5"/>
</a>
</g>
</g>
<!-- Node23&#45;&gt;Node16 -->
<g id="edge42_Node000023_Node000016" class="edge">
<title>Node23&#45;&gt;Node16</title>
<g id="a_edge42_Node000023_Node000016"><a xlink:title=" ">
<path fill="none" stroke="#63b8ff" d="M1712.7,-109.98C1703.68,-102.15 1690.09,-90.34 1679.18,-80.86"/>
<polygon fill="#63b8ff" stroke="#63b8ff" points="1681.32,-78.09 1671.48,-74.17 1676.73,-83.37 1681.32,-78.09"/>
</a>
</g>
</g>
<!-- Node24&#45;&gt;Node3 -->
<g id="edge47_Node000024_Node000003" class="edge">
<title>Node24&#45;&gt;Node3</title>
<g id="a_edge47_Node000024_Node000003"><a xlink:title=" ">
<path fill="none" stroke="#63b8ff" d="M1552.27,-109.84C1519.26,-91.08 1440.87,-46.52 1401.27,-24.01"/>
<polygon fill="#63b8ff" stroke="#63b8ff" points="1402.96,-20.95 1392.54,-19.05 1399.5,-27.03 1402.96,-20.95"/>
</a>
</g>
</g>
<!-- Node24&#45;&gt;Node6 -->
<g id="edge49_Node000024_Node000006" class="edge">
<title>Node24&#45;&gt;Node6</title>
<g id="a_edge49_Node000024_Node000006"><a xlink:title=" ">
<path fill="none" stroke="#63b8ff" d="M1559.32,-109.63C1547.67,-97.12 1525.52,-73.75 1505.5,-55 1494.66,-44.85 1482.01,-34 1471.9,-25.56"/>
<polygon fill="#63b8ff" stroke="#63b8ff" points="1474.03,-22.78 1464.1,-19.1 1469.57,-28.17 1474.03,-22.78"/>
</a>
</g>
</g>
<!-- Node24&#45;&gt;Node7 -->
<g id="edge50_Node000024_Node000007" class="edge">
<title>Node24&#45;&gt;Node7</title>
<g id="a_edge50_Node000024_Node000007"><a xlink:title=" ">
<path fill="none" stroke="#63b8ff" d="M1570.89,-109.79C1574.18,-100.92 1579.03,-86.72 1581.5,-74 1584.37,-59.21 1585.6,-42.17 1586.13,-29.47"/>
<polygon fill="#63b8ff" stroke="#63b8ff" points="1589.63,-29.31 1586.43,-19.21 1582.64,-29.1 1589.63,-29.31"/>
</a>
</g>
</g>
<!-- Node24&#45;&gt;Node9 -->
<g id="edge51_Node000024_Node000009" class="edge">
<title>Node24&#45;&gt;Node9</title>
<g id="a_edge51_Node000024_Node000009"><a xlink:title=" ">
<path fill="none" stroke="#63b8ff" d="M1500.38,-110.82C1497.38,-110.53 1494.41,-110.26 1491.5,-110 1247.93,-88.41 1186.47,-90.43 942.5,-74 917.68,-72.33 890.05,-70.42 867.28,-68.84"/>
<polygon fill="#63b8ff" stroke="#63b8ff" points="867.4,-65.34 857.18,-68.14 866.91,-72.32 867.4,-65.34"/>
</a>
</g>
</g>
<!-- Node24&#45;&gt;Node16 -->
<g id="edge48_Node000024_Node000016" class="edge">
<title>Node24&#45;&gt;Node16</title>
<g id="a_edge48_Node000024_Node000016"><a xlink:title=" ">
<path fill="none" stroke="#63b8ff" d="M1582.6,-109.98C1597.32,-101.69 1619.92,-88.94 1637.17,-79.22"/>
<polygon fill="#63b8ff" stroke="#63b8ff" points="1639.13,-82.13 1646.12,-74.17 1635.69,-76.03 1639.13,-82.13"/>
</a>
</g>
</g>
<!-- Node25&#45;&gt;Node9 -->
<g id="edge53_Node000025_Node000009" class="edge">
<title>Node25&#45;&gt;Node9</title>
<g id="a_edge53_Node000025_Node000009"><a xlink:title=" ">
<path fill="none" stroke="#63b8ff" d="M923.58,-109.98C903.45,-101.38 872.12,-87.99 849.09,-78.15"/>
<polygon fill="#63b8ff" stroke="#63b8ff" points="850.36,-74.88 839.79,-74.17 847.6,-81.32 850.36,-74.88"/>
</a>
</g>
</g>
<!-- Node26&#45;&gt;Node3 -->
<g id="edge55_Node000026_Node000003" class="edge">
<title>Node26&#45;&gt;Node3</title>
<g id="a_edge55_Node000026_Node000003"><a xlink:title=" ">
<path fill="none" stroke="#63b8ff" d="M1226.59,-109.89C1215.62,-96.88 1198.51,-71.93 1211.5,-55 1227.31,-34.4 1298.35,-21.24 1342.22,-14.93"/>
<polygon fill="#63b8ff" stroke="#63b8ff" points="1342.78,-18.38 1352.2,-13.54 1341.81,-11.45 1342.78,-18.38"/>
</a>
</g>
</g>
<!-- Node26&#45;&gt;Node5 -->
<g id="edge56_Node000026_Node000005" class="edge">
<title>Node26&#45;&gt;Node5</title>
<g id="a_edge56_Node000026_Node000005"><a xlink:title=" ">
<path fill="none" stroke="#63b8ff" d="M1248.32,-109.98C1261.65,-101.77 1282.08,-89.18 1297.81,-79.49"/>
<polygon fill="#63b8ff" stroke="#63b8ff" points="1299.75,-82.4 1306.43,-74.17 1296.08,-76.44 1299.75,-82.4"/>
</a>
</g>
</g>
<!-- Node26&#45;&gt;Node6 -->
<g id="edge57_Node000026_Node000006" class="edge">
<title>Node26&#45;&gt;Node6</title>
<g id="a_edge57_Node000026_Node000006"><a xlink:title=" ">
<path fill="none" stroke="#63b8ff" d="M1233.86,-109.72C1233.39,-96.02 1234.64,-69.61 1249.5,-55 1252.59,-51.96 1364.75,-28.66 1421.41,-17.04"/>
<polygon fill="#63b8ff" stroke="#63b8ff" points="1422.22,-20.45 1431.31,-15.02 1420.81,-13.59 1422.22,-20.45"/>
</a>
</g>
</g>
<!-- Node26&#45;&gt;Node7 -->
<g id="edge58_Node000026_Node000007" class="edge">
<title>Node26&#45;&gt;Node7</title>
<g id="a_edge58_Node000026_Node000007"><a xlink:title=" ">
<path fill="none" stroke="#63b8ff" d="M1238.47,-109.79C1245.41,-95.68 1261.15,-68.09 1283.5,-55 1305.18,-42.31 1460.02,-24.1 1539.57,-15.44"/>
<polygon fill="#63b8ff" stroke="#63b8ff" points="1540.25,-18.89 1549.81,-14.33 1539.49,-11.93 1540.25,-18.89"/>
</a>
</g>
</g>
<!-- Node26&#45;&gt;Node9 -->
<g id="edge59_Node000026_Node000009" class="edge">
<title>Node26&#45;&gt;Node9</title>
<g id="a_edge59_Node000026_Node000009"><a xlink:title=" ">
<path fill="none" stroke="#63b8ff" d="M1176.36,-111.07C1093.8,-100.53 944.14,-81.42 867.52,-71.63"/>
<polygon fill="#63b8ff" stroke="#63b8ff" points="867.57,-68.11 857.21,-70.32 866.68,-75.05 867.57,-68.11"/>
</a>
</g>
</g>
</g>
</svg>
