<?xml version="1.0" encoding="UTF-8" standalone="no"?>
<!DOCTYPE svg PUBLIC "-//W3C//DTD SVG 1.1//EN"
 "http://www.w3.org/Graphics/SVG/1.1/DTD/svg11.dtd">
<!-- Generated by graphviz version 14.0.1 (20251006.0113)
 -->
<!-- Title: ProtocolEndpoint.hpp Pages: 1 -->
<!--zoomable 337 -->

<svg id="main" version="1.1" xmlns="http://www.w3.org/2000/svg" xmlns:xlink="http://www.w3.org/1999/xlink" xml:space="preserve" onload="init(evt)">

<style type="text/css"><![CDATA[
.node, .edge {opacity: 0.7;}
.node.selected, .edge.selected {opacity: 1;}
.edge:hover path { stroke: red; }
.edge:hover polygon { stroke: red; fill: red; }
]]></style>

<defs>
  <circle id="rim" cx="0" cy="0" r="7"/>
  <circle id="rim2" cx="0" cy="0" r="3.5"/>
  <g id="zoomPlus">
    <use xlink:href="#rim" fill="#404040"><set attributeName="fill" to="#808080" begin="zoomplus.mouseover" end="zoomplus.mouseout"/></use>
    <path d="M-4,0h8M0,-4v8" fill="none" stroke="white" stroke-width="1.5" pointer-events="none"/>
  </g>
  <g id="zoomMin">
    <use xlink:href="#rim" fill="#404040"><set attributeName="fill" to="#808080" begin="zoomminus.mouseover" end="zoomminus.mouseout"/></use>
    <path d="M-4,0h8" fill="none" stroke="white" stroke-width="1.5" pointer-events="none"/>
  </g>
  <g id="arrowUp" transform="translate(30 24)">
    <use xlink:href="#rim"/>
    <path pointer-events="none" fill="none" stroke="white" stroke-width="1.5" d="M0,-3.0v7 M-2.5,-0.5L0,-3.0L2.5,-0.5"/>
  </g>
  <g id="arrowRight" transform="rotate(90) translate(36 -43)">
    <use xlink:href="#rim"/>
    <path pointer-events="none" fill="none" stroke="white" stroke-width="1.5" d="M0,-3.0v7 M-2.5,-0.5L0,-3.0L2.5,-0.5"/>
  </g>
  <g id="arrowDown" transform="rotate(180) translate(-30 -48)">
    <use xlink:href="#rim"/>
    <path pointer-events="none" fill="none" stroke="white" stroke-width="1.5" d="M0,-3.0v7 M-2.5,-0.5L0,-3.0L2.5,-0.5"/>
  </g>
  <g id="arrowLeft" transform="rotate(270) translate(-36 17)">
    <use xlink:href="#rim"/>
    <path pointer-events="none" fill="none" stroke="white" stroke-width="1.5" d="M0,-3.0v7 M-2.5,-0.5L0,-3.0L2.5,-0.5"/>
  </g>
  <g id="resetDef">
    <use xlink:href="#rim2" fill="#404040"><set attributeName="fill" to="#808080" begin="reset.mouseover" end="reset.mouseout"/></use>
  </g>
</defs>
<script type="application/ecmascript">
var viewWidth = 1061;
var viewHeight = 337;
var sectionId = 'dynsection-0';
</script>
<script type="application/ecmascript" xlink:href="../../svg.min.js"/>
<svg id="graph" class="graph">
<g id="viewport">
<title>ProtocolEndpoint.hpp</title>
<!-- Node1 -->
<g id="Node000001" class="node">
<title>Node1</title>
<g id="a_Node000001"><a xlink:title="Base endpoint class for protocol implementations.">
<polygon fill="#999999" stroke="#666666" points="442.12,-329.25 333.12,-329.25 333.12,-310 442.12,-310 442.12,-329.25"/>
<text xml:space="preserve" text-anchor="middle" x="387.62" y="-315.75" font-family="Helvetica,sans-Serif" font-size="10.00">ProtocolEndpoint.hpp</text>
</a>
</g>
</g>
<!-- Node2 -->
<g id="Node000002" class="node">
<title>Node2</title>
<g id="a_Node000002"><a xlink:title=" ">
<polygon fill="#e0e0e0" stroke="#999999" points="73.25,-268.38 28,-268.38 28,-249.12 73.25,-249.12 73.25,-268.38"/>
<text xml:space="preserve" text-anchor="middle" x="50.62" y="-254.88" font-family="Helvetica,sans-Serif" font-size="10.00">atomic</text>
</a>
</g>
</g>
<!-- Node1&#45;&gt;Node2 -->
<g id="edge1_Node000001_Node000002" class="edge">
<title>Node1&#45;&gt;Node2</title>
<g id="a_edge1_Node000001_Node000002"><a xlink:title=" ">
<path fill="none" stroke="#63b8ff" d="M332.7,-314.11C271.98,-308.28 171.64,-296.14 87.62,-274 86,-273.57 84.35,-273.1 82.7,-272.59"/>
<polygon fill="#63b8ff" stroke="#63b8ff" points="83.91,-269.3 73.31,-269.35 81.62,-275.92 83.91,-269.3"/>
</a>
</g>
</g>
<!-- Node3 -->
<g id="Node000003" class="node">
<title>Node3</title>
<g id="a_Node000003"><a xlink:title=" ">
<polygon fill="#e0e0e0" stroke="#999999" points="45.25,-135.38 0,-135.38 0,-116.12 45.25,-116.12 45.25,-135.38"/>
<text xml:space="preserve" text-anchor="middle" x="22.62" y="-121.88" font-family="Helvetica,sans-Serif" font-size="10.00">chrono</text>
</a>
</g>
</g>
<!-- Node1&#45;&gt;Node3 -->
<g id="edge2_Node000001_Node000003" class="edge">
<title>Node1&#45;&gt;Node3</title>
<g id="a_edge2_Node000001_Node000003"><a xlink:title=" ">
<path fill="none" stroke="#63b8ff" d="M332.86,-310.44C297.35,-303.76 250.77,-292.35 212.62,-274 140.75,-239.42 70.29,-174.39 39.19,-143.66"/>
<polygon fill="#63b8ff" stroke="#63b8ff" points="41.79,-141.3 32.24,-136.7 36.83,-146.25 41.79,-141.3"/>
</a>
</g>
</g>
<!-- Node4 -->
<g id="Node000004" class="node">
<title>Node4</title>
<g id="a_Node000004"><a xlink:title=" ">
<polygon fill="#e0e0e0" stroke="#999999" points="591.62,-268.38 497.62,-268.38 497.62,-249.12 591.62,-249.12 591.62,-268.38"/>
<text xml:space="preserve" text-anchor="middle" x="544.62" y="-254.88" font-family="Helvetica,sans-Serif" font-size="10.00">condition_variable</text>
</a>
</g>
</g>
<!-- Node1&#45;&gt;Node4 -->
<g id="edge3_Node000001_Node000004" class="edge">
<title>Node1&#45;&gt;Node4</title>
<g id="a_edge3_Node000001_Node000004"><a xlink:title=" ">
<path fill="none" stroke="#63b8ff" d="M411.81,-309.55C437.97,-299.74 479.92,-284.01 509.67,-272.86"/>
<polygon fill="#63b8ff" stroke="#63b8ff" points="510.86,-276.15 518.99,-269.36 508.4,-269.6 510.86,-276.15"/>
</a>
</g>
</g>
<!-- Node5 -->
<g id="Node000005" class="node">
<title>Node5</title>
<g id="a_Node000005"><a xlink:title=" ">
<polygon fill="#e0e0e0" stroke="#999999" points="651.75,-268.38 609.5,-268.38 609.5,-249.12 651.75,-249.12 651.75,-268.38"/>
<text xml:space="preserve" text-anchor="middle" x="630.62" y="-254.88" font-family="Helvetica,sans-Serif" font-size="10.00">deque</text>
</a>
</g>
</g>
<!-- Node1&#45;&gt;Node5 -->
<g id="edge4_Node000001_Node000005" class="edge">
<title>Node1&#45;&gt;Node5</title>
<g id="a_edge4_Node000001_Node000005"><a xlink:title=" ">
<path fill="none" stroke="#63b8ff" d="M442.41,-310.82C486,-303.73 548.17,-291.67 600.62,-274 601.42,-273.73 602.23,-273.45 603.04,-273.15"/>
<polygon fill="#63b8ff" stroke="#63b8ff" points="604.21,-276.45 612.07,-269.34 601.5,-270 604.21,-276.45"/>
</a>
</g>
</g>
<!-- Node6 -->
<g id="Node000006" class="node">
<title>Node6</title>
<g id="a_Node000006"><a xlink:title=" ">
<polygon fill="#e0e0e0" stroke="#999999" points="121.62,-135.38 63.62,-135.38 63.62,-116.12 121.62,-116.12 121.62,-135.38"/>
<text xml:space="preserve" text-anchor="middle" x="92.62" y="-121.88" font-family="Helvetica,sans-Serif" font-size="10.00">functional</text>
</a>
</g>
</g>
<!-- Node1&#45;&gt;Node6 -->
<g id="edge5_Node000001_Node000006" class="edge">
<title>Node1&#45;&gt;Node6</title>
<g id="a_edge5_Node000001_Node000006"><a xlink:title=" ">
<path fill="none" stroke="#63b8ff" d="M359.72,-309.55C314.29,-293.84 222.94,-258.32 158.62,-207.5 136.17,-189.76 116.28,-163.13 104.35,-145.36"/>
<polygon fill="#63b8ff" stroke="#63b8ff" points="107.36,-143.57 98.97,-137.1 101.49,-147.39 107.36,-143.57"/>
</a>
</g>
</g>
<!-- Node7 -->
<g id="Node000007" class="node">
<title>Node7</title>
<g id="a_Node000007"><a xlink:title=" ">
<polygon fill="#e0e0e0" stroke="#999999" points="249.25,-135.38 198,-135.38 198,-116.12 249.25,-116.12 249.25,-135.38"/>
<text xml:space="preserve" text-anchor="middle" x="223.62" y="-121.88" font-family="Helvetica,sans-Serif" font-size="10.00">memory</text>
</a>
</g>
</g>
<!-- Node1&#45;&gt;Node7 -->
<g id="edge6_Node000001_Node000007" class="edge">
<title>Node1&#45;&gt;Node7</title>
<g id="a_edge6_Node000001_Node000007"><a xlink:title=" ">
<path fill="none" stroke="#63b8ff" d="M379.93,-309.63C354.37,-279.72 271.97,-183.31 238.23,-143.84"/>
<polygon fill="#63b8ff" stroke="#63b8ff" points="241.25,-141.99 232.09,-136.66 235.93,-146.53 241.25,-141.99"/>
</a>
</g>
</g>
<!-- Node8 -->
<g id="Node000008" class="node">
<title>Node8</title>
<g id="a_Node000008"><a xlink:title=" ">
<polygon fill="#e0e0e0" stroke="#999999" points="713.12,-268.38 670.12,-268.38 670.12,-249.12 713.12,-249.12 713.12,-268.38"/>
<text xml:space="preserve" text-anchor="middle" x="691.62" y="-254.88" font-family="Helvetica,sans-Serif" font-size="10.00">mutex</text>
</a>
</g>
</g>
<!-- Node1&#45;&gt;Node8 -->
<g id="edge7_Node000001_Node000008" class="edge">
<title>Node1&#45;&gt;Node8</title>
<g id="a_edge7_Node000001_Node000008"><a xlink:title=" ">
<path fill="none" stroke="#63b8ff" d="M442.48,-314.03C498.32,-308.34 586.91,-296.52 660.62,-274 661.62,-273.7 662.62,-273.37 663.62,-273.02"/>
<polygon fill="#63b8ff" stroke="#63b8ff" points="664.88,-276.29 672.84,-269.3 662.25,-269.8 664.88,-276.29"/>
</a>
</g>
</g>
<!-- Node9 -->
<g id="Node000009" class="node">
<title>Node9</title>
<g id="a_Node000009"><a xlink:title=" ">
<polygon fill="#e0e0e0" stroke="#999999" points="774.12,-268.38 731.12,-268.38 731.12,-249.12 774.12,-249.12 774.12,-268.38"/>
<text xml:space="preserve" text-anchor="middle" x="752.62" y="-254.88" font-family="Helvetica,sans-Serif" font-size="10.00">thread</text>
</a>
</g>
</g>
<!-- Node1&#45;&gt;Node9 -->
<g id="edge8_Node000001_Node000009" class="edge">
<title>Node1&#45;&gt;Node9</title>
<g id="a_edge8_Node000001_Node000009"><a xlink:title=" ">
<path fill="none" stroke="#63b8ff" d="M442.37,-316.54C509.61,-312.8 626.56,-302.45 722.62,-274 723.59,-273.71 724.57,-273.4 725.55,-273.06"/>
<polygon fill="#63b8ff" stroke="#63b8ff" points="726.53,-276.44 734.45,-269.41 723.87,-269.97 726.53,-276.44"/>
</a>
</g>
</g>
<!-- Node10 -->
<g id="Node000010" class="node">
<title>Node10</title>
<g id="a_Node000010"><a xlink:href="../../d0/d95/_rx_container_8hpp.html" target="_top" xlink:title="Stateful frame parsing container that incrementally matches and fills protocol fields from a byte str...">
<polygon fill="white" stroke="#666666" points="439.88,-207.5 335.38,-207.5 335.38,-177 439.88,-177 439.88,-207.5"/>
<text xml:space="preserve" text-anchor="start" x="343.38" y="-194" font-family="Helvetica,sans-Serif" font-size="10.00">prototypes/container</text>
<text xml:space="preserve" text-anchor="middle" x="387.62" y="-182.75" font-family="Helvetica,sans-Serif" font-size="10.00">/RxContainer.hpp</text>
</a>
</g>
</g>
<!-- Node1&#45;&gt;Node10 -->
<g id="edge9_Node000001_Node000010" class="edge">
<title>Node1&#45;&gt;Node10</title>
<g id="a_edge9_Node000001_Node000010"><a xlink:title=" ">
<path fill="none" stroke="#63b8ff" d="M382.05,-309.82C376.88,-301.11 369.58,-287.2 366.62,-274 363.67,-260.77 363.96,-256.79 366.62,-243.5 368.34,-234.93 371.56,-226 374.97,-218.08"/>
<polygon fill="#63b8ff" stroke="#63b8ff" points="378.11,-219.63 379.14,-209.08 371.76,-216.68 378.11,-219.63"/>
</a>
</g>
</g>
<!-- Node18 -->
<g id="Node000018" class="node">
<title>Node18</title>
<g id="a_Node000018"><a xlink:href="../../d7/d5d/_tx_container_8hpp.html" target="_top" xlink:title="TX&#45;side container that builds protocol frames from a set of fields.">
<polygon fill="white" stroke="#666666" points="479.88,-274 375.38,-274 375.38,-243.5 479.88,-243.5 479.88,-274"/>
<text xml:space="preserve" text-anchor="start" x="383.38" y="-260.5" font-family="Helvetica,sans-Serif" font-size="10.00">prototypes/container</text>
<text xml:space="preserve" text-anchor="middle" x="427.62" y="-249.25" font-family="Helvetica,sans-Serif" font-size="10.00">/TxContainer.hpp</text>
</a>
</g>
</g>
<!-- Node1&#45;&gt;Node18 -->
<g id="edge19_Node000001_Node000018" class="edge">
<title>Node1&#45;&gt;Node18</title>
<g id="a_edge19_Node000001_Node000018"><a xlink:title=" ">
<path fill="none" stroke="#63b8ff" d="M393.7,-309.68C398.39,-302.79 405.1,-292.91 411.32,-283.75"/>
<polygon fill="#63b8ff" stroke="#63b8ff" points="414.18,-285.77 416.9,-275.53 408.39,-281.84 414.18,-285.77"/>
</a>
</g>
</g>
<!-- Node10&#45;&gt;Node6 -->
<g id="edge12_Node000010_Node000006" class="edge">
<title>Node10&#45;&gt;Node6</title>
<g id="a_edge12_Node000010_Node000006"><a xlink:title=" ">
<path fill="none" stroke="#63b8ff" d="M335.34,-183.63C282.99,-175.4 200.4,-160.76 130.62,-141 129.01,-140.54 127.38,-140.05 125.73,-139.53"/>
<polygon fill="#63b8ff" stroke="#63b8ff" points="126.95,-136.25 116.36,-136.31 124.67,-142.87 126.95,-136.25"/>
</a>
</g>
</g>
<!-- Node10&#45;&gt;Node7 -->
<g id="edge13_Node000010_Node000007" class="edge">
<title>Node10&#45;&gt;Node7</title>
<g id="a_edge13_Node000010_Node000007"><a xlink:title=" ">
<path fill="none" stroke="#63b8ff" d="M349.46,-176.56C323.76,-166.62 289.1,-153.14 258.62,-141 257.85,-140.69 257.06,-140.38 256.27,-140.06"/>
<polygon fill="#63b8ff" stroke="#63b8ff" points="257.81,-136.91 247.23,-136.41 255.19,-143.4 257.81,-136.91"/>
</a>
</g>
</g>
<!-- Node11 -->
<g id="Node000011" class="node">
<title>Node11</title>
<g id="a_Node000011"><a xlink:title=" ">
<polygon fill="#e0e0e0" stroke="#999999" points="593.5,-135.38 537.75,-135.38 537.75,-116.12 593.5,-116.12 593.5,-135.38"/>
<text xml:space="preserve" text-anchor="middle" x="565.62" y="-121.88" font-family="Helvetica,sans-Serif" font-size="10.00">algorithm</text>
</a>
</g>
</g>
<!-- Node10&#45;&gt;Node11 -->
<g id="edge10_Node000010_Node000011" class="edge">
<title>Node10&#45;&gt;Node11</title>
<g id="a_edge10_Node000010_Node000011"><a xlink:title=" ">
<path fill="none" stroke="#63b8ff" d="M429.68,-176.58C457.76,-166.7 495.49,-153.28 528.62,-141 529.75,-140.58 530.9,-140.15 532.06,-139.72"/>
<polygon fill="#63b8ff" stroke="#63b8ff" points="533.04,-143.09 541.15,-136.27 530.56,-136.55 533.04,-143.09"/>
</a>
</g>
</g>
<!-- Node12 -->
<g id="Node000012" class="node">
<title>Node12</title>
<g id="a_Node000012"><a xlink:title=" ">
<polygon fill="#e0e0e0" stroke="#999999" points="401.25,-74.5 356,-74.5 356,-55.25 401.25,-55.25 401.25,-74.5"/>
<text xml:space="preserve" text-anchor="middle" x="378.62" y="-61" font-family="Helvetica,sans-Serif" font-size="10.00">cstring</text>
</a>
</g>
</g>
<!-- Node10&#45;&gt;Node12 -->
<g id="edge11_Node000010_Node000012" class="edge">
<title>Node10&#45;&gt;Node12</title>
<g id="a_edge11_Node000010_Node000012"><a xlink:title=" ">
<path fill="none" stroke="#63b8ff" d="M386.59,-176.87C384.99,-154.53 381.89,-111.42 380.07,-86"/>
<polygon fill="#63b8ff" stroke="#63b8ff" points="383.58,-86.05 379.38,-76.33 376.6,-86.55 383.58,-86.05"/>
</a>
</g>
</g>
<!-- Node13 -->
<g id="Node000013" class="node">
<title>Node13</title>
<g id="a_Node000013"><a xlink:title=" ">
<polygon fill="#e0e0e0" stroke="#999999" points="648.12,-135.38 611.12,-135.38 611.12,-116.12 648.12,-116.12 648.12,-135.38"/>
<text xml:space="preserve" text-anchor="middle" x="629.62" y="-121.88" font-family="Helvetica,sans-Serif" font-size="10.00">tuple</text>
</a>
</g>
</g>
<!-- Node10&#45;&gt;Node13 -->
<g id="edge14_Node000010_Node000013" class="edge">
<title>Node10&#45;&gt;Node13</title>
<g id="a_edge14_Node000010_Node000013"><a xlink:title=" ">
<path fill="none" stroke="#63b8ff" d="M439.98,-182.89C484.21,-174.92 548.76,-161.13 602.62,-141 603.11,-140.82 603.6,-140.63 604.08,-140.44"/>
<polygon fill="#63b8ff" stroke="#63b8ff" points="605.26,-143.75 612.86,-136.37 602.32,-137.4 605.26,-143.75"/>
</a>
</g>
</g>
<!-- Node14 -->
<g id="Node000014" class="node">
<title>Node14</title>
<g id="a_Node000014"><a xlink:href="../../de/ddc/_custom_span_8hpp.html" target="_top" xlink:title=" ">
<polygon fill="white" stroke="#666666" points="359.5,-135.38 267.75,-135.38 267.75,-116.12 359.5,-116.12 359.5,-135.38"/>
<text xml:space="preserve" text-anchor="middle" x="313.62" y="-121.88" font-family="Helvetica,sans-Serif" font-size="10.00">CustomSpan.hpp</text>
</a>
</g>
</g>
<!-- Node10&#45;&gt;Node14 -->
<g id="edge15_Node000010_Node000014" class="edge">
<title>Node10&#45;&gt;Node14</title>
<g id="a_edge15_Node000010_Node000014"><a xlink:title=" ">
<path fill="none" stroke="#63b8ff" d="M370.83,-176.61C359.39,-166.64 344.23,-153.43 332.4,-143.11"/>
<polygon fill="#63b8ff" stroke="#63b8ff" points="334.73,-140.5 324.89,-136.57 330.13,-145.78 334.73,-140.5"/>
</a>
</g>
</g>
<!-- Node17 -->
<g id="Node000017" class="node">
<title>Node17</title>
<g id="a_Node000017"><a xlink:href="../../d8/dd8/_field_container_8hpp.html" target="_top" xlink:title=" ">
<polygon fill="white" stroke="#666666" points="519.88,-141 415.38,-141 415.38,-110.5 519.88,-110.5 519.88,-141"/>
<text xml:space="preserve" text-anchor="start" x="423.38" y="-127.5" font-family="Helvetica,sans-Serif" font-size="10.00">prototypes/container</text>
<text xml:space="preserve" text-anchor="middle" x="467.62" y="-116.25" font-family="Helvetica,sans-Serif" font-size="10.00">/FieldContainer.hpp</text>
</a>
</g>
</g>
<!-- Node10&#45;&gt;Node17 -->
<g id="edge18_Node000010_Node000017" class="edge">
<title>Node10&#45;&gt;Node17</title>
<g id="a_edge18_Node000010_Node000017"><a xlink:title=" ">
<path fill="none" stroke="#63b8ff" d="M405.78,-176.61C416.11,-168.28 429.24,-157.69 440.75,-148.42"/>
<polygon fill="#63b8ff" stroke="#63b8ff" points="442.78,-151.28 448.37,-142.28 438.38,-145.83 442.78,-151.28"/>
</a>
</g>
</g>
<!-- Node15 -->
<g id="Node000015" class="node">
<title>Node15</title>
<g id="a_Node000015"><a xlink:title=" ">
<polygon fill="#e0e0e0" stroke="#999999" points="271.75,-74.5 223.5,-74.5 223.5,-55.25 271.75,-55.25 271.75,-74.5"/>
<text xml:space="preserve" text-anchor="middle" x="247.62" y="-61" font-family="Helvetica,sans-Serif" font-size="10.00">cassert</text>
</a>
</g>
</g>
<!-- Node14&#45;&gt;Node15 -->
<g id="edge16_Node000014_Node000015" class="edge">
<title>Node14&#45;&gt;Node15</title>
<g id="a_edge16_Node000014_Node000015"><a xlink:title=" ">
<path fill="none" stroke="#63b8ff" d="M303.6,-115.81C293.72,-106.99 278.37,-93.3 266.24,-82.48"/>
<polygon fill="#63b8ff" stroke="#63b8ff" points="268.67,-79.95 258.87,-75.91 264.01,-85.18 268.67,-79.95"/>
</a>
</g>
</g>
<!-- Node16 -->
<g id="Node000016" class="node">
<title>Node16</title>
<g id="a_Node000016"><a xlink:title=" ">
<polygon fill="#e0e0e0" stroke="#999999" points="337.75,-74.5 289.5,-74.5 289.5,-55.25 337.75,-55.25 337.75,-74.5"/>
<text xml:space="preserve" text-anchor="middle" x="313.62" y="-61" font-family="Helvetica,sans-Serif" font-size="10.00">cstddef</text>
</a>
</g>
</g>
<!-- Node14&#45;&gt;Node16 -->
<g id="edge17_Node000014_Node000016" class="edge">
<title>Node14&#45;&gt;Node16</title>
<g id="a_edge17_Node000014_Node000016"><a xlink:title=" ">
<path fill="none" stroke="#63b8ff" d="M313.62,-115.81C313.62,-108.03 313.62,-96.45 313.62,-86.41"/>
<polygon fill="#63b8ff" stroke="#63b8ff" points="317.13,-86.41 313.63,-76.41 310.13,-86.41 317.13,-86.41"/>
</a>
</g>
</g>
<!-- Node18&#45;&gt;Node11 -->
<g id="edge20_Node000018_Node000011" class="edge">
<title>Node18&#45;&gt;Node11</title>
<g id="a_edge20_Node000018_Node000011"><a xlink:title=" ">
<path fill="none" stroke="#63b8ff" d="M442.92,-243.23C468.64,-218.81 520.43,-169.65 547.77,-143.7"/>
<polygon fill="#63b8ff" stroke="#63b8ff" points="550.1,-146.32 554.94,-136.89 545.28,-141.24 550.1,-146.32"/>
</a>
</g>
</g>
<!-- Node18&#45;&gt;Node13 -->
<g id="edge21_Node000018_Node000013" class="edge">
<title>Node18&#45;&gt;Node13</title>
<g id="a_edge21_Node000018_Node000013"><a xlink:title=" ">
<path fill="none" stroke="#63b8ff" d="M452.53,-243.13C469.12,-233.28 491.34,-219.87 510.62,-207.5 545.01,-185.44 584.06,-158.59 607.76,-142.09"/>
<polygon fill="#63b8ff" stroke="#63b8ff" points="609.48,-145.15 615.67,-136.56 605.47,-139.42 609.48,-145.15"/>
</a>
</g>
</g>
<!-- Node18&#45;&gt;Node14 -->
<g id="edge23_Node000018_Node000014" class="edge">
<title>Node18&#45;&gt;Node14</title>
<g id="a_edge23_Node000018_Node000014"><a xlink:title=" ">
<path fill="none" stroke="#63b8ff" d="M376.12,-243.1C357.81,-235.38 338.75,-223.98 326.62,-207.5 313.82,-190.1 311.64,-164.86 311.99,-147.24"/>
<polygon fill="#63b8ff" stroke="#63b8ff" points="315.48,-147.43 312.5,-137.26 308.49,-147.07 315.48,-147.43"/>
</a>
</g>
</g>
<!-- Node18&#45;&gt;Node17 -->
<g id="edge30_Node000018_Node000017" class="edge">
<title>Node18&#45;&gt;Node17</title>
<g id="a_edge30_Node000018_Node000017"><a xlink:title=" ">
<path fill="none" stroke="#63b8ff" d="M434.53,-243.04C438.98,-233.15 444.66,-219.73 448.62,-207.5 454.5,-189.38 459.38,-168.42 462.72,-152.4"/>
<polygon fill="#63b8ff" stroke="#63b8ff" points="466.12,-153.22 464.67,-142.72 459.26,-151.84 466.12,-153.22"/>
</a>
</g>
</g>
<!-- Node19 -->
<g id="Node000019" class="node">
<title>Node19</title>
<g id="a_Node000019"><a xlink:title=" ">
<polygon fill="#e0e0e0" stroke="#999999" points="1052.5,-74.5 990.75,-74.5 990.75,-55.25 1052.5,-55.25 1052.5,-74.5"/>
<text xml:space="preserve" text-anchor="middle" x="1021.62" y="-61" font-family="Helvetica,sans-Serif" font-size="10.00">type_traits</text>
</a>
</g>
</g>
<!-- Node18&#45;&gt;Node19 -->
<g id="edge22_Node000018_Node000019" class="edge">
<title>Node18&#45;&gt;Node19</title>
<g id="a_edge22_Node000018_Node000019"><a xlink:title=" ">
<path fill="none" stroke="#63b8ff" d="M480.11,-245.05C482.99,-244.49 485.84,-243.97 488.62,-243.5 638.89,-218.12 684.99,-255.51 829.62,-207.5 905.12,-182.44 975.4,-115.28 1005.8,-83.28"/>
<polygon fill="#63b8ff" stroke="#63b8ff" points="1008.31,-85.72 1012.57,-76.02 1003.19,-80.95 1008.31,-85.72"/>
</a>
</g>
</g>
<!-- Node20 -->
<g id="Node000020" class="node">
<title>Node20</title>
<g id="a_Node000020"><a xlink:href="../../dc/dba/_interface_8hpp.html" target="_top" xlink:title=" ">
<polygon fill="white" stroke="#666666" points="241.12,-201.88 168.12,-201.88 168.12,-182.62 241.12,-182.62 241.12,-201.88"/>
<text xml:space="preserve" text-anchor="middle" x="204.62" y="-188.38" font-family="Helvetica,sans-Serif" font-size="10.00">Interface.hpp</text>
</a>
</g>
</g>
<!-- Node18&#45;&gt;Node20 -->
<g id="edge24_Node000018_Node000020" class="edge">
<title>Node18&#45;&gt;Node20</title>
<g id="a_edge24_Node000018_Node000020"><a xlink:title=" ">
<path fill="none" stroke="#63b8ff" d="M376.74,-243.03C337.48,-231.68 283.82,-216.16 246.9,-205.48"/>
<polygon fill="#63b8ff" stroke="#63b8ff" points="248.05,-202.17 237.47,-202.75 246.11,-208.89 248.05,-202.17"/>
</a>
</g>
</g>
<!-- Node22 -->
<g id="Node000022" class="node">
<title>Node22</title>
<g id="a_Node000022"><a xlink:href="../../d0/d22/_field_info_8hpp.html" target="_top" xlink:title="Helpers and utilities for compile&#45;time field metadata and tuple processing.">
<polygon fill="white" stroke="#666666" points="820.62,-201.88 678.62,-201.88 678.62,-182.62 820.62,-182.62 820.62,-201.88"/>
<text xml:space="preserve" text-anchor="middle" x="749.62" y="-188.38" font-family="Helvetica,sans-Serif" font-size="10.00">prototypes/field/FieldInfo.hpp</text>
</a>
</g>
</g>
<!-- Node18&#45;&gt;Node22 -->
<g id="edge31_Node000018_Node000022" class="edge">
<title>Node18&#45;&gt;Node22</title>
<g id="a_edge31_Node000018_Node000022"><a xlink:title=" ">
<path fill="none" stroke="#63b8ff" d="M480.17,-245.34C483.03,-244.71 485.86,-244.09 488.62,-243.5 556.74,-228.99 635.26,-214.13 688.24,-204.36"/>
<polygon fill="#63b8ff" stroke="#63b8ff" points="688.78,-207.82 697.98,-202.57 687.52,-200.94 688.78,-207.82"/>
</a>
</g>
</g>
<!-- Node20&#45;&gt;Node3 -->
<g id="edge25_Node000020_Node000003" class="edge">
<title>Node20&#45;&gt;Node3</title>
<g id="a_edge25_Node000020_Node000003"><a xlink:title=" ">
<path fill="none" stroke="#63b8ff" d="M174.73,-182.16C144.23,-172.68 95.7,-156.99 54.62,-141 53.99,-140.75 53.34,-140.5 52.7,-140.24"/>
<polygon fill="#63b8ff" stroke="#63b8ff" points="54.1,-137.03 43.53,-136.38 51.38,-143.48 54.1,-137.03"/>
</a>
</g>
</g>
<!-- Node20&#45;&gt;Node6 -->
<g id="edge26_Node000020_Node000006" class="edge">
<title>Node20&#45;&gt;Node6</title>
<g id="a_edge26_Node000020_Node000006"><a xlink:title=" ">
<path fill="none" stroke="#63b8ff" d="M189.05,-182.28C170.77,-171.75 140.17,-154.13 118.34,-141.56"/>
<polygon fill="#63b8ff" stroke="#63b8ff" points="120.15,-138.56 109.74,-136.61 116.66,-144.63 120.15,-138.56"/>
</a>
</g>
</g>
<!-- Node20&#45;&gt;Node7 -->
<g id="edge27_Node000020_Node000007" class="edge">
<title>Node20&#45;&gt;Node7</title>
<g id="a_edge27_Node000020_Node000007"><a xlink:title=" ">
<path fill="none" stroke="#63b8ff" d="M207.27,-182.28C209.99,-173.04 214.32,-158.33 217.84,-146.38"/>
<polygon fill="#63b8ff" stroke="#63b8ff" points="221.11,-147.68 220.58,-137.09 214.39,-145.7 221.11,-147.68"/>
</a>
</g>
</g>
<!-- Node20&#45;&gt;Node14 -->
<g id="edge29_Node000020_Node000014" class="edge">
<title>Node20&#45;&gt;Node14</title>
<g id="a_edge29_Node000020_Node000014"><a xlink:title=" ">
<path fill="none" stroke="#63b8ff" d="M219.78,-182.28C237.58,-171.75 267.36,-154.13 288.6,-141.56"/>
<polygon fill="#63b8ff" stroke="#63b8ff" points="290.12,-144.73 296.94,-136.62 286.56,-138.7 290.12,-144.73"/>
</a>
</g>
</g>
<!-- Node21 -->
<g id="Node000021" class="node">
<title>Node21</title>
<g id="a_Node000021"><a xlink:title=" ">
<polygon fill="#e0e0e0" stroke="#999999" points="179.62,-135.38 139.62,-135.38 139.62,-116.12 179.62,-116.12 179.62,-135.38"/>
<text xml:space="preserve" text-anchor="middle" x="159.62" y="-121.88" font-family="Helvetica,sans-Serif" font-size="10.00">string</text>
</a>
</g>
</g>
<!-- Node20&#45;&gt;Node21 -->
<g id="edge28_Node000020_Node000021" class="edge">
<title>Node20&#45;&gt;Node21</title>
<g id="a_edge28_Node000020_Node000021"><a xlink:title=" ">
<path fill="none" stroke="#63b8ff" d="M198.37,-182.28C191.65,-172.65 180.8,-157.1 172.29,-144.9"/>
<polygon fill="#63b8ff" stroke="#63b8ff" points="175.29,-143.08 166.69,-136.88 169.55,-147.09 175.29,-143.08"/>
</a>
</g>
</g>
<!-- Node22&#45;&gt;Node13 -->
<g id="edge32_Node000022_Node000013" class="edge">
<title>Node22&#45;&gt;Node13</title>
<g id="a_edge32_Node000022_Node000013"><a xlink:title=" ">
<path fill="none" stroke="#63b8ff" d="M732.69,-182.15C712.85,-171.49 679.75,-153.69 656.43,-141.16"/>
<polygon fill="#63b8ff" stroke="#63b8ff" points="658.28,-138.18 647.81,-136.52 654.96,-144.34 658.28,-138.18"/>
</a>
</g>
</g>
<!-- Node22&#45;&gt;Node19 -->
<g id="edge33_Node000022_Node000019" class="edge">
<title>Node22&#45;&gt;Node19</title>
<g id="a_edge33_Node000022_Node000019"><a xlink:title=" ">
<path fill="none" stroke="#63b8ff" d="M784.14,-182.13C815.12,-173.37 861.44,-158.86 899.62,-141 936.69,-123.66 976.49,-97.59 1000.21,-81.16"/>
<polygon fill="#63b8ff" stroke="#63b8ff" points="1001.92,-84.24 1008.1,-75.63 997.9,-78.51 1001.92,-84.24"/>
</a>
</g>
</g>
<!-- Node23 -->
<g id="Node000023" class="node">
<title>Node23</title>
<g id="a_Node000023"><a xlink:title=" ">
<polygon fill="#e0e0e0" stroke="#999999" points="890.25,-135.38 851,-135.38 851,-116.12 890.25,-116.12 890.25,-135.38"/>
<text xml:space="preserve" text-anchor="middle" x="870.62" y="-121.88" font-family="Helvetica,sans-Serif" font-size="10.00">utility</text>
</a>
</g>
</g>
<!-- Node22&#45;&gt;Node23 -->
<g id="edge34_Node000022_Node000023" class="edge">
<title>Node22&#45;&gt;Node23</title>
<g id="a_edge34_Node000022_Node000023"><a xlink:title=" ">
<path fill="none" stroke="#63b8ff" d="M766.7,-182.15C786.7,-171.49 820.08,-153.69 843.6,-141.16"/>
<polygon fill="#63b8ff" stroke="#63b8ff" points="845.12,-144.31 852.3,-136.52 841.83,-138.14 845.12,-144.31"/>
</a>
</g>
</g>
<!-- Node24 -->
<g id="Node000024" class="node">
<title>Node24</title>
<g id="a_Node000024"><a xlink:href="../../d3/d6e/_field_prototype_8hpp.html" target="_top" xlink:title="FieldPrototype template for describing and handling protocol fields.">
<polygon fill="white" stroke="#666666" points="833.38,-135.38 665.88,-135.38 665.88,-116.12 833.38,-116.12 833.38,-135.38"/>
<text xml:space="preserve" text-anchor="middle" x="749.62" y="-121.88" font-family="Helvetica,sans-Serif" font-size="10.00">prototypes/field/FieldPrototype.hpp</text>
</a>
</g>
</g>
<!-- Node22&#45;&gt;Node24 -->
<g id="edge35_Node000022_Node000024" class="edge">
<title>Node22&#45;&gt;Node24</title>
<g id="a_edge35_Node000022_Node000024"><a xlink:title=" ">
<path fill="none" stroke="#63b8ff" d="M749.62,-182.28C749.62,-173.23 749.62,-158.95 749.62,-147.13"/>
<polygon fill="#63b8ff" stroke="#63b8ff" points="753.13,-147.16 749.63,-137.16 746.13,-147.16 753.13,-147.16"/>
</a>
</g>
</g>
<!-- Node24&#45;&gt;Node12 -->
<g id="edge37_Node000024_Node000012" class="edge">
<title>Node24&#45;&gt;Node12</title>
<g id="a_edge37_Node000024_Node000012"><a xlink:title=" ">
<path fill="none" stroke="#63b8ff" d="M691.23,-115.63C680.08,-113.9 668.49,-112.13 657.62,-110.5 551.46,-94.54 521.19,-96.8 412.72,-74.71"/>
<polygon fill="#63b8ff" stroke="#63b8ff" points="413.6,-71.32 403.1,-72.73 412.19,-78.18 413.6,-71.32"/>
</a>
</g>
</g>
<!-- Node24&#45;&gt;Node19 -->
<g id="edge43_Node000024_Node000019" class="edge">
<title>Node24&#45;&gt;Node19</title>
<g id="a_edge43_Node000024_Node000019"><a xlink:title=" ">
<path fill="none" stroke="#63b8ff" d="M791.53,-115.68C842.51,-104.64 928.1,-86.12 979.28,-75.04"/>
<polygon fill="#63b8ff" stroke="#63b8ff" points="979.76,-78.52 988.79,-72.98 978.28,-71.68 979.76,-78.52"/>
</a>
</g>
</g>
<!-- Node25 -->
<g id="Node000025" class="node">
<title>Node25</title>
<g id="a_Node000025"><a xlink:title=" ">
<polygon fill="#e0e0e0" stroke="#999999" points="512.25,-19.25 467,-19.25 467,0 512.25,0 512.25,-19.25"/>
<text xml:space="preserve" text-anchor="middle" x="489.62" y="-5.75" font-family="Helvetica,sans-Serif" font-size="10.00">cstdint</text>
</a>
</g>
</g>
<!-- Node24&#45;&gt;Node25 -->
<g id="edge36_Node000024_Node000025" class="edge">
<title>Node24&#45;&gt;Node25</title>
<g id="a_edge36_Node000024_Node000025"><a xlink:title=" ">
<path fill="none" stroke="#63b8ff" d="M692.77,-115.63C639.29,-106.27 563.79,-90.81 538.62,-74.5 521.43,-63.35 507.86,-44.02 499.4,-29.54"/>
<polygon fill="#63b8ff" stroke="#63b8ff" points="502.56,-28.03 494.68,-20.95 496.43,-31.4 502.56,-28.03"/>
</a>
</g>
</g>
<!-- Node26 -->
<g id="Node000026" class="node">
<title>Node26</title>
<g id="a_Node000026"><a xlink:title=" ">
<polygon fill="#e0e0e0" stroke="#999999" points="774.5,-74.5 724.75,-74.5 724.75,-55.25 774.5,-55.25 774.5,-74.5"/>
<text xml:space="preserve" text-anchor="middle" x="749.62" y="-61" font-family="Helvetica,sans-Serif" font-size="10.00">iomanip</text>
</a>
</g>
</g>
<!-- Node24&#45;&gt;Node26 -->
<g id="edge38_Node000024_Node000026" class="edge">
<title>Node24&#45;&gt;Node26</title>
<g id="a_edge38_Node000024_Node000026"><a xlink:title=" ">
<path fill="none" stroke="#63b8ff" d="M749.62,-115.81C749.62,-108.03 749.62,-96.45 749.62,-86.41"/>
<polygon fill="#63b8ff" stroke="#63b8ff" points="753.13,-86.41 749.63,-76.41 746.13,-86.41 753.13,-86.41"/>
</a>
</g>
</g>
<!-- Node27 -->
<g id="Node000027" class="node">
<title>Node27</title>
<g id="a_Node000027"><a xlink:title=" ">
<polygon fill="#e0e0e0" stroke="#999999" points="846.38,-74.5 792.88,-74.5 792.88,-55.25 846.38,-55.25 846.38,-74.5"/>
<text xml:space="preserve" text-anchor="middle" x="819.62" y="-61" font-family="Helvetica,sans-Serif" font-size="10.00">iostream</text>
</a>
</g>
</g>
<!-- Node24&#45;&gt;Node27 -->
<g id="edge39_Node000024_Node000027" class="edge">
<title>Node24&#45;&gt;Node27</title>
<g id="a_edge39_Node000024_Node000027"><a xlink:title=" ">
<path fill="none" stroke="#63b8ff" d="M760.26,-115.81C770.84,-106.9 787.34,-93.03 800.25,-82.17"/>
<polygon fill="#63b8ff" stroke="#63b8ff" points="802.33,-84.99 807.74,-75.88 797.83,-79.63 802.33,-84.99"/>
</a>
</g>
</g>
<!-- Node28 -->
<g id="Node000028" class="node">
<title>Node28</title>
<g id="a_Node000028"><a xlink:title=" ">
<polygon fill="#e0e0e0" stroke="#999999" points="903.25,-74.5 864,-74.5 864,-55.25 903.25,-55.25 903.25,-74.5"/>
<text xml:space="preserve" text-anchor="middle" x="883.62" y="-61" font-family="Helvetica,sans-Serif" font-size="10.00">limits</text>
</a>
</g>
</g>
<!-- Node24&#45;&gt;Node28 -->
<g id="edge40_Node000024_Node000028" class="edge">
<title>Node24&#45;&gt;Node28</title>
<g id="a_edge40_Node000024_Node000028"><a xlink:title=" ">
<path fill="none" stroke="#63b8ff" d="M770.27,-115.68C792.4,-105.96 827.75,-90.42 853.1,-79.29"/>
<polygon fill="#63b8ff" stroke="#63b8ff" points="854.48,-82.5 862.23,-75.28 851.67,-76.09 854.48,-82.5"/>
</a>
</g>
</g>
<!-- Node29 -->
<g id="Node000029" class="node">
<title>Node29</title>
<g id="a_Node000029"><a xlink:title=" ">
<polygon fill="#e0e0e0" stroke="#999999" points="972.25,-74.5 921,-74.5 921,-55.25 972.25,-55.25 972.25,-74.5"/>
<text xml:space="preserve" text-anchor="middle" x="946.62" y="-61" font-family="Helvetica,sans-Serif" font-size="10.00">sstream</text>
</a>
</g>
</g>
<!-- Node24&#45;&gt;Node29 -->
<g id="edge41_Node000024_Node000029" class="edge">
<title>Node24&#45;&gt;Node29</title>
<g id="a_edge41_Node000024_Node000029"><a xlink:title=" ">
<path fill="none" stroke="#63b8ff" d="M779.97,-115.68C814.89,-105.24 872.22,-88.11 909.7,-76.91"/>
<polygon fill="#63b8ff" stroke="#63b8ff" points="910.62,-80.29 919.2,-74.07 908.61,-73.58 910.62,-80.29"/>
</a>
</g>
</g>
<!-- Node30 -->
<g id="Node000030" class="node">
<title>Node30</title>
<g id="a_Node000030"><a xlink:title=" ">
<polygon fill="#e0e0e0" stroke="#999999" points="595.38,-19.25 529.88,-19.25 529.88,0 595.38,0 595.38,-19.25"/>
<text xml:space="preserve" text-anchor="middle" x="562.62" y="-5.75" font-family="Helvetica,sans-Serif" font-size="10.00">string_view</text>
</a>
</g>
</g>
<!-- Node24&#45;&gt;Node30 -->
<g id="edge42_Node000024_Node000030" class="edge">
<title>Node24&#45;&gt;Node30</title>
<g id="a_edge42_Node000024_Node000030"><a xlink:title=" ">
<path fill="none" stroke="#63b8ff" d="M699.75,-115.64C643.06,-104.79 557.08,-86.6 547.62,-74.5 537.55,-61.61 543.5,-43.08 550.66,-29.3"/>
<polygon fill="#63b8ff" stroke="#63b8ff" points="553.62,-31.17 555.63,-20.77 547.57,-27.65 553.62,-31.17"/>
</a>
</g>
</g>
<!-- Node31 -->
<g id="Node000031" class="node">
<title>Node31</title>
<g id="a_Node000031"><a xlink:title=" ">
<polygon fill="#e0e0e0" stroke="#999999" points="462.12,-74.5 419.12,-74.5 419.12,-55.25 462.12,-55.25 462.12,-74.5"/>
<text xml:space="preserve" text-anchor="middle" x="440.62" y="-61" font-family="Helvetica,sans-Serif" font-size="10.00">vector</text>
</a>
</g>
</g>
<!-- Node24&#45;&gt;Node31 -->
<g id="edge44_Node000024_Node000031" class="edge">
<title>Node24&#45;&gt;Node31</title>
<g id="a_edge44_Node000024_Node000031"><a xlink:title=" ">
<path fill="none" stroke="#63b8ff" d="M695.33,-115.63C640.12,-106.15 552.18,-90.49 476.62,-74.5 475.46,-74.25 474.28,-74 473.08,-73.74"/>
<polygon fill="#63b8ff" stroke="#63b8ff" points="474.29,-70.42 463.76,-71.6 472.73,-77.24 474.29,-70.42"/>
</a>
</g>
</g>
<!-- Node32 -->
<g id="Node000032" class="node">
<title>Node32</title>
<g id="a_Node000032"><a xlink:href="../../d8/d46/_field_flags_8hpp.html" target="_top" xlink:title="Common enums and utilities for protocol field names and flags.">
<polygon fill="white" stroke="#666666" points="706.38,-74.5 556.88,-74.5 556.88,-55.25 706.38,-55.25 706.38,-74.5"/>
<text xml:space="preserve" text-anchor="middle" x="631.62" y="-61" font-family="Helvetica,sans-Serif" font-size="10.00">prototypes/field/FieldFlags.hpp</text>
</a>
</g>
</g>
<!-- Node24&#45;&gt;Node32 -->
<g id="edge45_Node000024_Node000032" class="edge">
<title>Node24&#45;&gt;Node32</title>
<g id="a_edge45_Node000024_Node000032"><a xlink:title=" ">
<path fill="none" stroke="#63b8ff" d="M731.45,-115.68C712.33,-106.14 682.01,-91.02 659.8,-79.93"/>
<polygon fill="#63b8ff" stroke="#63b8ff" points="661.5,-76.87 650.99,-75.53 658.37,-83.13 661.5,-76.87"/>
</a>
</g>
</g>
<!-- Node32&#45;&gt;Node25 -->
<g id="edge47_Node000032_Node000025" class="edge">
<title>Node32&#45;&gt;Node25</title>
<g id="a_edge47_Node000032_Node000025"><a xlink:title=" ">
<path fill="none" stroke="#63b8ff" d="M607.54,-54.84C584.27,-46.12 548.85,-32.83 522.9,-23.1"/>
<polygon fill="#63b8ff" stroke="#63b8ff" points="524.43,-19.94 513.84,-19.7 521.97,-26.49 524.43,-19.94"/>
</a>
</g>
</g>
<!-- Node32&#45;&gt;Node30 -->
<g id="edge49_Node000032_Node000030" class="edge">
<title>Node32&#45;&gt;Node30</title>
<g id="a_edge49_Node000032_Node000030"><a xlink:title=" ">
<path fill="none" stroke="#63b8ff" d="M619.92,-54.84C609.85,-47.07 595.08,-35.67 583.06,-26.4"/>
<polygon fill="#63b8ff" stroke="#63b8ff" points="585.41,-23.79 575.36,-20.45 581.13,-29.33 585.41,-23.79"/>
</a>
</g>
</g>
<!-- Node33 -->
<g id="Node000033" class="node">
<title>Node33</title>
<g id="a_Node000033"><a xlink:title=" ">
<polygon fill="#e0e0e0" stroke="#999999" points="651.5,-19.25 613.75,-19.25 613.75,0 651.5,0 651.5,-19.25"/>
<text xml:space="preserve" text-anchor="middle" x="632.62" y="-5.75" font-family="Helvetica,sans-Serif" font-size="10.00">array</text>
</a>
</g>
</g>
<!-- Node32&#45;&gt;Node33 -->
<g id="edge46_Node000032_Node000033" class="edge">
<title>Node32&#45;&gt;Node33</title>
<g id="a_edge46_Node000032_Node000033"><a xlink:title=" ">
<path fill="none" stroke="#63b8ff" d="M631.79,-55.08C631.91,-48.57 632.08,-39.42 632.24,-31.12"/>
<polygon fill="#63b8ff" stroke="#63b8ff" points="635.74,-31.19 632.43,-21.12 628.74,-31.05 635.74,-31.19"/>
</a>
</g>
</g>
<!-- Node34 -->
<g id="Node000034" class="node">
<title>Node34</title>
<g id="a_Node000034"><a xlink:title=" ">
<polygon fill="#e0e0e0" stroke="#999999" points="721.25,-19.25 670,-19.25 670,0 721.25,0 721.25,-19.25"/>
<text xml:space="preserve" text-anchor="middle" x="695.62" y="-5.75" font-family="Helvetica,sans-Serif" font-size="10.00">ostream</text>
</a>
</g>
</g>
<!-- Node32&#45;&gt;Node34 -->
<g id="edge48_Node000032_Node000034" class="edge">
<title>Node32&#45;&gt;Node34</title>
<g id="a_edge48_Node000032_Node000034"><a xlink:title=" ">
<path fill="none" stroke="#63b8ff" d="M642.48,-54.84C651.73,-47.15 665.25,-35.9 676.33,-26.68"/>
<polygon fill="#63b8ff" stroke="#63b8ff" points="678.32,-29.58 683.77,-20.49 673.84,-24.2 678.32,-29.58"/>
</a>
</g>
</g>
</g>
</svg>

<g id="navigator" transform="translate(0 0)" fill="#404254">
  <rect fill="#f2f5e9" fill-opacity="0.5" stroke="#606060" stroke-width=".5" x="0" y="0" width="60" height="60"/>
  <use id="zoomplus" xlink:href="#zoomPlus" x="17" y="9" onmousedown="handleZoom(evt,'in')"/>
  <use id="zoomminus" xlink:href="#zoomMin" x="42" y="9" onmousedown="handleZoom(evt,'out')"/>
  <use id="reset" xlink:href="#resetDef" x="30" y="36" onmousedown="handleReset()"/>
   <use id="arrowup" xlink:href="#arrowUp" x="0" y="0" onmousedown="handlePan(0,-1)"/>
  <use id="arrowright" xlink:href="#arrowRight" x="0" y="0" onmousedown="handlePan(1,0)"/>
  <use id="arrowdown" xlink:href="#arrowDown" x="0" y="0" onmousedown="handlePan(0,1)"/>
  <use id="arrowleft" xlink:href="#arrowLeft" x="0" y="0" onmousedown="handlePan(-1,0)"/>
</g>
<svg viewBox="0 0 15 15" width="100%" height="30px" preserveAspectRatio="xMaxYMin meet">
 <g id="arrow_out" transform="scale(0.3 0.3)">
  <a xlink:href="_protocol_endpoint_8hpp__incl_org.svg" target="_base">
   <rect id="button" ry="5" rx="5" y="6" x="6" height="38" width="38"
        fill="#f2f5e9" fill-opacity="0.5" stroke="#606060" stroke-width="1.0"/>
   <path id="arrow"
     d="M 11.500037,31.436501 C 11.940474,20.09759 22.043105,11.32322 32.158766,21.979434 L 37.068811,17.246167 C 37.068811,17.246167 37.088388,32 37.088388,32 L 22.160133,31.978069 C 22.160133,31.978069 26.997745,27.140456 26.997745,27.140456 C 18.528582,18.264221 13.291696,25.230495 11.500037,31.436501 z"
     style="fill:#404040;"/>
  </a>
 </g>
</svg>

<style type='text/css'>
<![CDATA[
[data-mouse-over-selected='false'] { opacity: 0.7; }
[data-mouse-over-selected='true']  { opacity: 1.0; }
]]>
</style>
<script type="application/ecmascript"><![CDATA[
document.addEventListener('DOMContentLoaded', (event) => {
  highlightEdges();
  highlightAdjacentNodes();
});
]]></script>
</svg>
