<?xml version="1.0" encoding="UTF-8" standalone="no"?>
<!DOCTYPE svg PUBLIC "-//W3C//DTD SVG 1.1//EN"
 "http://www.w3.org/Graphics/SVG/1.1/DTD/svg11.dtd">
<!-- Generated by graphviz version 2.43.0 (0)
 -->
<!-- Title: FieldPrototype.hpp Pages: 1 -->
<svg width="414pt" height="412pt"
 viewBox="0.00 0.00 414.00 412.00" xmlns="http://www.w3.org/2000/svg" xmlns:xlink="http://www.w3.org/1999/xlink">
<g id="graph0" class="graph" transform="scale(1 1) rotate(0) translate(4 408)">
<title>FieldPrototype.hpp</title>
<!-- Node1 -->
<g id="Node000001" class="node">
<title>Node1</title>
<g id="a_Node000001"><a xlink:title="FieldPrototype template for describing and handling protocol fields.">
<polygon fill="#999999" stroke="#666666" points="266,-404 158,-404 158,-385 266,-385 266,-404"/>
<text text-anchor="middle" x="212" y="-392" font-family="Helvetica,sans-Serif" font-size="10.00">FieldPrototype.hpp</text>
</a>
</g>
</g>
<!-- Node2 -->
<g id="Node000002" class="node">
<title>Node2</title>
<g id="a_Node000002"><a xlink:href="../../d7/d91/DataField_8hpp.html" target="_top" xlink:title="Variant DATA field that maps protocol IDs to payload types at compile time.">
<polygon fill="white" stroke="#666666" points="219,-349 135,-349 135,-330 219,-330 219,-349"/>
<text text-anchor="middle" x="177" y="-337" font-family="Helvetica,sans-Serif" font-size="10.00">DataField.hpp</text>
</a>
</g>
</g>
<!-- Node1&#45;&gt;Node2 -->
<g id="edge1_Node000001_Node000002" class="edge">
<title>Node1&#45;&gt;Node2</title>
<g id="a_edge1_Node000001_Node000002"><a xlink:title=" ">
<path fill="none" stroke="#63b8ff" d="M200.7,-376.39C194.68,-367.27 187.53,-356.45 182.67,-349.09"/>
<polygon fill="#63b8ff" stroke="#63b8ff" points="197.79,-378.33 206.22,-384.75 203.63,-374.47 197.79,-378.33"/>
</a>
</g>
</g>
<!-- Node3 -->
<g id="Node000003" class="node">
<title>Node3</title>
<g id="a_Node000003"><a xlink:href="../../d8/daa/FieldContainer_8hpp.html" target="_top" xlink:title="Defines the FieldContainer class template, a generic container for protocol fields.">
<polygon fill="white" stroke="#666666" points="174.5,-294 67.5,-294 67.5,-275 174.5,-275 174.5,-294"/>
<text text-anchor="middle" x="121" y="-282" font-family="Helvetica,sans-Serif" font-size="10.00">FieldContainer.hpp</text>
</a>
</g>
</g>
<!-- Node1&#45;&gt;Node3 -->
<g id="edge14_Node000001_Node000003" class="edge">
<title>Node1&#45;&gt;Node3</title>
<g id="a_edge14_Node000001_Node000003"><a xlink:title=" ">
<path fill="none" stroke="#63b8ff" d="M169,-381.21C152.86,-374.38 136.02,-364.1 126,-349 114.87,-332.23 117.04,-307.21 119.22,-294.15"/>
<polygon fill="#63b8ff" stroke="#63b8ff" points="167.77,-384.49 178.36,-384.85 170.3,-377.97 167.77,-384.49"/>
</a>
</g>
</g>
<!-- Node12 -->
<g id="Node000012" class="node">
<title>Node12</title>
<g id="a_Node000012"><a xlink:href="../../d7/d50/FieldInfo_8hpp.html" target="_top" xlink:title="Helpers and utilities for compile&#45;time field metadata and tuple processing.">
<polygon fill="white" stroke="#666666" points="274,-294 194,-294 194,-275 274,-275 274,-294"/>
<text text-anchor="middle" x="234" y="-282" font-family="Helvetica,sans-Serif" font-size="10.00">FieldInfo.hpp</text>
</a>
</g>
</g>
<!-- Node1&#45;&gt;Node12 -->
<g id="edge15_Node000001_Node000012" class="edge">
<title>Node1&#45;&gt;Node12</title>
<g id="a_edge15_Node000001_Node000012"><a xlink:title=" ">
<path fill="none" stroke="#63b8ff" d="M219.65,-375.46C222.73,-367.48 226.01,-357.91 228,-349 232.3,-329.76 233.52,-306.58 233.86,-294.24"/>
<polygon fill="#63b8ff" stroke="#63b8ff" points="216.37,-374.25 215.85,-384.83 222.85,-376.87 216.37,-374.25"/>
</a>
</g>
</g>
<!-- Node13 -->
<g id="Node000013" class="node">
<title>Node13</title>
<g id="a_Node000013"><a xlink:href="../../db/d8d/NamedTuple_8hpp.html" target="_top" xlink:title=" ">
<polygon fill="white" stroke="#666666" points="406,-184 308,-184 308,-165 406,-165 406,-184"/>
<text text-anchor="middle" x="357" y="-172" font-family="Helvetica,sans-Serif" font-size="10.00">NamedTuple.hpp</text>
</a>
</g>
</g>
<!-- Node1&#45;&gt;Node13 -->
<g id="edge17_Node000001_Node000013" class="edge">
<title>Node1&#45;&gt;Node13</title>
<g id="a_edge17_Node000001_Node000013"><a xlink:title=" ">
<path fill="none" stroke="#63b8ff" d="M224.04,-376.82C230.05,-368.47 237.42,-358.21 244,-349 261.41,-324.61 266.39,-318.94 283,-294 309.89,-253.62 339.93,-204.01 351.79,-184.23"/>
<polygon fill="#63b8ff" stroke="#63b8ff" points="221.16,-374.82 218.15,-384.98 226.84,-378.92 221.16,-374.82"/>
</a>
</g>
</g>
<!-- Node2&#45;&gt;Node3 -->
<g id="edge2_Node000002_Node000003" class="edge">
<title>Node2&#45;&gt;Node3</title>
<g id="a_edge2_Node000002_Node000003"><a xlink:title=" ">
<path fill="none" stroke="#63b8ff" d="M160.67,-323.04C150.74,-313.64 138.41,-301.98 130.16,-294.17"/>
<polygon fill="#63b8ff" stroke="#63b8ff" points="158.33,-325.65 168,-329.98 163.15,-320.57 158.33,-325.65"/>
</a>
</g>
</g>
<!-- Node4 -->
<g id="Node000004" class="node">
<title>Node4</title>
<g id="a_Node000004"><a xlink:href="../../da/d06/RxContainer_8hpp.html" target="_top" xlink:title="Stateful frame parsing container that incrementally matches and fills protocol fields from a byte str...">
<polygon fill="white" stroke="#666666" points="147.5,-239 50.5,-239 50.5,-220 147.5,-220 147.5,-239"/>
<text text-anchor="middle" x="99" y="-227" font-family="Helvetica,sans-Serif" font-size="10.00">RxContainer.hpp</text>
</a>
</g>
</g>
<!-- Node3&#45;&gt;Node4 -->
<g id="edge3_Node000003_Node000004" class="edge">
<title>Node3&#45;&gt;Node4</title>
<g id="a_edge3_Node000003_Node000004"><a xlink:title=" ">
<path fill="none" stroke="#63b8ff" d="M113.42,-265.24C109.74,-256.37 105.49,-246.14 102.57,-239.09"/>
<polygon fill="#63b8ff" stroke="#63b8ff" points="110.3,-266.85 117.37,-274.75 116.77,-264.17 110.3,-266.85"/>
</a>
</g>
</g>
<!-- Node11 -->
<g id="Node000011" class="node">
<title>Node11</title>
<g id="a_Node000011"><a xlink:href="../../d9/d32/TxContainer_8hpp.html" target="_top" xlink:title="TX&#45;side container that builds protocol frames from a set of fields.">
<polygon fill="white" stroke="#666666" points="262,-239 166,-239 166,-220 262,-220 262,-239"/>
<text text-anchor="middle" x="214" y="-227" font-family="Helvetica,sans-Serif" font-size="10.00">TxContainer.hpp</text>
</a>
</g>
</g>
<!-- Node3&#45;&gt;Node11 -->
<g id="edge11_Node000003_Node000011" class="edge">
<title>Node3&#45;&gt;Node11</title>
<g id="a_edge11_Node000003_Node000011"><a xlink:title=" ">
<path fill="none" stroke="#63b8ff" d="M144.75,-269.97C161.75,-260.28 184.13,-247.52 198.79,-239.17"/>
<polygon fill="#63b8ff" stroke="#63b8ff" points="142.9,-266.99 135.94,-274.98 146.36,-273.07 142.9,-266.99"/>
</a>
</g>
</g>
<!-- Node5 -->
<g id="Node000005" class="node">
<title>Node5</title>
<g id="a_Node000005"><a xlink:href="../../d8/db2/ProtocolEndpoint_8hpp.html" target="_top" xlink:title="Base endpoint class for protocol implementations.">
<polygon fill="white" stroke="#666666" points="120,-184 0,-184 0,-165 120,-165 120,-184"/>
<text text-anchor="middle" x="60" y="-172" font-family="Helvetica,sans-Serif" font-size="10.00">ProtocolEndpoint.hpp</text>
</a>
</g>
</g>
<!-- Node4&#45;&gt;Node5 -->
<g id="edge4_Node000004_Node000005" class="edge">
<title>Node4&#45;&gt;Node5</title>
<g id="a_edge4_Node000004_Node000005"><a xlink:title=" ">
<path fill="none" stroke="#63b8ff" d="M86.62,-211.67C79.86,-202.5 71.79,-191.52 66.32,-184.09"/>
<polygon fill="#63b8ff" stroke="#63b8ff" points="83.81,-213.77 92.56,-219.75 89.45,-209.62 83.81,-213.77"/>
</a>
</g>
</g>
<!-- Node9 -->
<g id="Node000009" class="node">
<title>Node9</title>
<g id="a_Node000009"><a xlink:href="../../dc/dc4/ProtocolNoSysEndpoint_8hpp.html" target="_top" xlink:title=" ">
<polygon fill="white" stroke="#666666" points="289.5,-184 138.5,-184 138.5,-165 289.5,-165 289.5,-184"/>
<text text-anchor="middle" x="214" y="-172" font-family="Helvetica,sans-Serif" font-size="10.00">ProtocolNoSysEndpoint.hpp</text>
</a>
</g>
</g>
<!-- Node4&#45;&gt;Node9 -->
<g id="edge9_Node000004_Node000009" class="edge">
<title>Node4&#45;&gt;Node9</title>
<g id="a_edge9_Node000004_Node000009"><a xlink:title=" ">
<path fill="none" stroke="#63b8ff" d="M126.63,-215.77C147.84,-205.99 176.56,-192.75 195.19,-184.17"/>
<polygon fill="#63b8ff" stroke="#63b8ff" points="125.09,-212.62 117.48,-219.98 128.02,-218.98 125.09,-212.62"/>
</a>
</g>
</g>
<!-- Node6 -->
<g id="Node000006" class="node">
<title>Node6</title>
<g id="a_Node000006"><a xlink:href="../../d9/ddb/LacteProtocol_8hpp.html" target="_top" xlink:title=" ">
<polygon fill="white" stroke="#666666" points="163,-74 59,-74 59,-55 163,-55 163,-74"/>
<text text-anchor="middle" x="111" y="-62" font-family="Helvetica,sans-Serif" font-size="10.00">LacteProtocol.hpp</text>
</a>
</g>
</g>
<!-- Node5&#45;&gt;Node6 -->
<g id="edge5_Node000005_Node000006" class="edge">
<title>Node5&#45;&gt;Node6</title>
<g id="a_edge5_Node000005_Node000006"><a xlink:title=" ">
<path fill="none" stroke="#63b8ff" d="M41.68,-157.43C29.18,-144.43 16.46,-125.77 26,-110 37.04,-91.76 58.29,-80.63 76.78,-74.07"/>
<polygon fill="#63b8ff" stroke="#63b8ff" points="39.61,-160.29 49.24,-164.71 44.47,-155.25 39.61,-160.29"/>
</a>
</g>
</g>
<!-- Node8 -->
<g id="Node000008" class="node">
<title>Node8</title>
<g id="a_Node000008"><a xlink:href="../../dd/d58/LacteProtocolPrototype_8hpp.html" target="_top" xlink:title=" ">
<polygon fill="white" stroke="#666666" points="186.5,-129 35.5,-129 35.5,-110 186.5,-110 186.5,-129"/>
<text text-anchor="middle" x="111" y="-117" font-family="Helvetica,sans-Serif" font-size="10.00">LacteProtocolPrototype.hpp</text>
</a>
</g>
</g>
<!-- Node5&#45;&gt;Node8 -->
<g id="edge7_Node000005_Node000008" class="edge">
<title>Node5&#45;&gt;Node8</title>
<g id="a_edge7_Node000005_Node000008"><a xlink:title=" ">
<path fill="none" stroke="#63b8ff" d="M75.38,-157.52C84.37,-148.18 95.36,-136.75 102.74,-129.09"/>
<polygon fill="#63b8ff" stroke="#63b8ff" points="72.83,-155.12 68.42,-164.75 77.88,-159.97 72.83,-155.12"/>
</a>
</g>
</g>
<!-- Node7 -->
<g id="Node000007" class="node">
<title>Node7</title>
<g id="a_Node000007"><a xlink:href="../../dc/d80/VirtualBoard_8hpp.html" target="_top" xlink:title=" ">
<polygon fill="white" stroke="#666666" points="160,-19 62,-19 62,0 160,0 160,-19"/>
<text text-anchor="middle" x="111" y="-7" font-family="Helvetica,sans-Serif" font-size="10.00">VirtualBoard.hpp</text>
</a>
</g>
</g>
<!-- Node6&#45;&gt;Node7 -->
<g id="edge6_Node000006_Node000007" class="edge">
<title>Node6&#45;&gt;Node7</title>
<g id="a_edge6_Node000006_Node000007"><a xlink:title=" ">
<path fill="none" stroke="#63b8ff" d="M111,-44.66C111,-35.93 111,-25.99 111,-19.09"/>
<polygon fill="#63b8ff" stroke="#63b8ff" points="107.5,-44.75 111,-54.75 114.5,-44.75 107.5,-44.75"/>
</a>
</g>
</g>
<!-- Node8&#45;&gt;Node6 -->
<g id="edge8_Node000008_Node000006" class="edge">
<title>Node8&#45;&gt;Node6</title>
<g id="a_edge8_Node000008_Node000006"><a xlink:title=" ">
<path fill="none" stroke="#63b8ff" d="M111,-99.66C111,-90.93 111,-80.99 111,-74.09"/>
<polygon fill="#63b8ff" stroke="#63b8ff" points="107.5,-99.75 111,-109.75 114.5,-99.75 107.5,-99.75"/>
</a>
</g>
</g>
<!-- Node10 -->
<g id="Node000010" class="node">
<title>Node10</title>
<g id="a_Node000010"><a xlink:href="../../d6/de6/exoAtlantProtocol_8hpp.html" target="_top" xlink:title=" ">
<polygon fill="white" stroke="#666666" points="329,-129 205,-129 205,-110 329,-110 329,-129"/>
<text text-anchor="middle" x="267" y="-117" font-family="Helvetica,sans-Serif" font-size="10.00">exoAtlantProtocol.hpp</text>
</a>
</g>
</g>
<!-- Node9&#45;&gt;Node10 -->
<g id="edge10_Node000009_Node000010" class="edge">
<title>Node9&#45;&gt;Node10</title>
<g id="a_edge10_Node000009_Node000010"><a xlink:title=" ">
<path fill="none" stroke="#63b8ff" d="M229.98,-157.52C239.32,-148.18 250.75,-136.75 258.41,-129.09"/>
<polygon fill="#63b8ff" stroke="#63b8ff" points="227.35,-155.2 222.75,-164.75 232.3,-160.15 227.35,-155.2"/>
</a>
</g>
</g>
<!-- Node11&#45;&gt;Node5 -->
<g id="edge12_Node000011_Node000005" class="edge">
<title>Node11&#45;&gt;Node5</title>
<g id="a_edge12_Node000011_Node000005"><a xlink:title=" ">
<path fill="none" stroke="#63b8ff" d="M179.62,-216.67C150.91,-206.79 110.64,-192.93 84.94,-184.08"/>
<polygon fill="#63b8ff" stroke="#63b8ff" points="178.66,-220.04 189.26,-219.98 180.94,-213.42 178.66,-220.04"/>
</a>
</g>
</g>
<!-- Node11&#45;&gt;Node9 -->
<g id="edge13_Node000011_Node000009" class="edge">
<title>Node11&#45;&gt;Node9</title>
<g id="a_edge13_Node000011_Node000009"><a xlink:title=" ">
<path fill="none" stroke="#63b8ff" d="M214,-209.66C214,-200.93 214,-190.99 214,-184.09"/>
<polygon fill="#63b8ff" stroke="#63b8ff" points="210.5,-209.75 214,-219.75 217.5,-209.75 210.5,-209.75"/>
</a>
</g>
</g>
<!-- Node12&#45;&gt;Node11 -->
<g id="edge16_Node000012_Node000011" class="edge">
<title>Node12&#45;&gt;Node11</title>
<g id="a_edge16_Node000012_Node000011"><a xlink:title=" ">
<path fill="none" stroke="#63b8ff" d="M227.11,-265.24C223.76,-256.37 219.9,-246.14 217.24,-239.09"/>
<polygon fill="#63b8ff" stroke="#63b8ff" points="223.89,-266.63 230.7,-274.75 230.44,-264.16 223.89,-266.63"/>
</a>
</g>
</g>
<!-- Node13&#45;&gt;Node6 -->
<g id="edge18_Node000013_Node000006" class="edge">
<title>Node13&#45;&gt;Node6</title>
<g id="a_edge18_Node000013_Node000006"><a xlink:title=" ">
<path fill="none" stroke="#63b8ff" d="M356.36,-154.42C354.82,-140.14 350.37,-121.23 338,-110 312.87,-87.2 221.99,-75.11 163.12,-69.52"/>
<polygon fill="#63b8ff" stroke="#63b8ff" points="352.88,-154.9 357.06,-164.63 359.87,-154.42 352.88,-154.9"/>
</a>
</g>
</g>
<!-- Node13&#45;&gt;Node10 -->
<g id="edge19_Node000013_Node000010" class="edge">
<title>Node13&#45;&gt;Node10</title>
<g id="a_edge19_Node000013_Node000010"><a xlink:title=" ">
<path fill="none" stroke="#63b8ff" d="M333.56,-159.7C317.16,-150.04 295.77,-137.44 281.72,-129.17"/>
<polygon fill="#63b8ff" stroke="#63b8ff" points="332.15,-162.93 342.54,-164.98 335.7,-156.89 332.15,-162.93"/>
</a>
</g>
</g>
</g>
</svg>
