<?xml version="1.0" encoding="UTF-8" standalone="no"?>
<!DOCTYPE svg PUBLIC "-//W3C//DTD SVG 1.1//EN"
 "http://www.w3.org/Graphics/SVG/1.1/DTD/svg11.dtd">
<!-- Generated by graphviz version 2.43.0 (0)
 -->
<!-- Title: proto::FieldPrototype::get_size Pages: 1 -->
<svg width="303pt" height="172pt"
 viewBox="0.00 0.00 303.00 171.50" xmlns="http://www.w3.org/2000/svg" xmlns:xlink="http://www.w3.org/1999/xlink">

<svg id="main" version="1.1" xmlns="http://www.w3.org/2000/svg" xmlns:xlink="http://www.w3.org/1999/xlink" xml:space="preserve" onload="init(evt)">
<style type="text/css"><![CDATA[
.node, .edge {opacity: 0.7;}
.node.selected, .edge.selected {opacity: 1;}
.edge:hover path { stroke: red; }
.edge:hover polygon { stroke: red; fill: red; }
]]></style>
<script type="application/ecmascript" xlink:href="../../svg.min.js"/>
<svg id="graph" class="graph">
<g id="graph0" class="graph" transform="scale(1 1) rotate(0) translate(4 167.5)">
<title>proto::FieldPrototype::get_size</title>
<!-- Node1 -->
<g id="Node000001" class="node">
<title>Node1</title>
<g id="a_Node000001"><a xlink:title=" ">
<polygon fill="#999999" stroke="#666666" points="295,-91.5 176,-91.5 176,-61.5 295,-61.5 295,-91.5"/>
<text text-anchor="start" x="184" y="-79.5" font-family="Helvetica,sans-Serif" font-size="10.00">proto::FieldPrototype</text>
<text text-anchor="middle" x="235.5" y="-68.5" font-family="Helvetica,sans-Serif" font-size="10.00">::get_size</text>
</a>
</g>
</g>
<!-- Node2 -->
<g id="Node000002" class="node">
<title>Node2</title>
<g id="a_Node000002"><a xlink:href="../../dc/d80/classproto_1_1FieldPrototype.html#a6c8f98a6250b124f83588cea5e3ebbc0" target="_top" xlink:title="Copy CONST_VALUE into the storage (if defined), honoring FieldFlags::REVERSE.">
<polygon fill="white" stroke="#666666" points="129.5,-163.5 10.5,-163.5 10.5,-133.5 129.5,-133.5 129.5,-163.5"/>
<text text-anchor="start" x="18.5" y="-151.5" font-family="Helvetica,sans-Serif" font-size="10.00">proto::FieldPrototype</text>
<text text-anchor="middle" x="70" y="-140.5" font-family="Helvetica,sans-Serif" font-size="10.00">::apply_const</text>
</a>
</g>
</g>
<!-- Node1&#45;&gt;Node2 -->
<g id="edge1_Node000001_Node000002" class="edge">
<title>Node1&#45;&gt;Node2</title>
<g id="a_edge1_Node000001_Node000002"><a xlink:title=" ">
<path fill="none" stroke="#63b8ff" d="M198.06,-96.46C180.74,-105.58 159.57,-116.17 140,-124.5 132.65,-127.63 124.74,-130.67 116.98,-133.48"/>
<polygon fill="#63b8ff" stroke="#63b8ff" points="200.07,-99.36 207.26,-91.57 196.79,-93.18 200.07,-99.36"/>
</a>
</g>
</g>
<!-- Node3 -->
<g id="Node000003" class="node">
<title>Node3</title>
<g id="a_Node000003"><a xlink:href="../../dc/d80/classproto_1_1FieldPrototype.html#a5abddde95e0d6b00673ed0740b0c931e" target="_top" xlink:title="Return a value copy of the field content.">
<polygon fill="white" stroke="#666666" points="129.5,-115.5 10.5,-115.5 10.5,-85.5 129.5,-85.5 129.5,-115.5"/>
<text text-anchor="start" x="18.5" y="-103.5" font-family="Helvetica,sans-Serif" font-size="10.00">proto::FieldPrototype</text>
<text text-anchor="middle" x="70" y="-92.5" font-family="Helvetica,sans-Serif" font-size="10.00">::get_copy</text>
</a>
</g>
</g>
<!-- Node1&#45;&gt;Node3 -->
<g id="edge2_Node000001_Node000003" class="edge">
<title>Node1&#45;&gt;Node3</title>
<g id="a_edge2_Node000001_Node000003"><a xlink:title=" ">
<path fill="none" stroke="#63b8ff" d="M165.93,-86.56C153.89,-88.33 141.45,-90.16 129.71,-91.88"/>
<polygon fill="#63b8ff" stroke="#63b8ff" points="166.55,-90.01 175.93,-85.1 165.53,-83.09 166.55,-90.01"/>
</a>
</g>
</g>
<!-- Node4 -->
<g id="Node000004" class="node">
<title>Node4</title>
<g id="a_Node000004"><a xlink:href="../../dc/d80/classproto_1_1FieldPrototype.html#a9b5a4fda6ecadbf8c3f5e17e1c360cfe" target="_top" xlink:title="Print field contents in a table format.">
<polygon fill="white" stroke="#666666" points="129.5,-67.5 10.5,-67.5 10.5,-37.5 129.5,-37.5 129.5,-67.5"/>
<text text-anchor="start" x="18.5" y="-55.5" font-family="Helvetica,sans-Serif" font-size="10.00">proto::FieldPrototype</text>
<text text-anchor="middle" x="70" y="-44.5" font-family="Helvetica,sans-Serif" font-size="10.00">::print</text>
</a>
</g>
</g>
<!-- Node1&#45;&gt;Node4 -->
<g id="edge3_Node000001_Node000004" class="edge">
<title>Node1&#45;&gt;Node4</title>
<g id="a_edge3_Node000001_Node000004"><a xlink:title=" ">
<path fill="none" stroke="#63b8ff" d="M165.93,-66.44C153.89,-64.67 141.45,-62.84 129.71,-61.12"/>
<polygon fill="#63b8ff" stroke="#63b8ff" points="165.53,-69.91 175.93,-67.9 166.55,-62.99 165.53,-69.91"/>
</a>
</g>
</g>
<!-- Node5 -->
<g id="Node000005" class="node">
<title>Node5</title>
<g id="a_Node000005"><a xlink:href="../../dc/d80/classproto_1_1FieldPrototype.html#a5e8ee6bc61c8a29d225f365912c1c51a" target="_top" xlink:title="Set field value from raw bytes.">
<polygon fill="white" stroke="#666666" points="140,-19 0,-19 0,0 140,0 140,-19"/>
<text text-anchor="middle" x="70" y="-7" font-family="Helvetica,sans-Serif" font-size="10.00">proto::FieldPrototype::set</text>
</a>
</g>
</g>
<!-- Node1&#45;&gt;Node5 -->
<g id="edge4_Node000001_Node000005" class="edge">
<title>Node1&#45;&gt;Node5</title>
<g id="a_edge4_Node000001_Node000005"><a xlink:title=" ">
<path fill="none" stroke="#63b8ff" d="M199.06,-56.36C181.65,-47.02 160.13,-36.29 140,-28.5 130.73,-24.91 120.52,-21.71 110.85,-19.01"/>
<polygon fill="#63b8ff" stroke="#63b8ff" points="197.82,-59.66 208.27,-61.37 201.16,-53.52 197.82,-59.66"/>
</a>
</g>
</g>
</g>
</svg>
</svg>

<style type='text/css'>
<![CDATA[
[data-mouse-over-selected='false'] { opacity: 0.7; }
[data-mouse-over-selected='true']  { opacity: 1.0; }
]]>
</style>
<script type="application/ecmascript"><![CDATA[
document.addEventListener('DOMContentLoaded', (event) => {
  highlightEdges();
  highlightAdjacentNodes();
});
]]></script>
</svg>
