<?xml version="1.0" encoding="UTF-8" standalone="no"?>
<!DOCTYPE svg PUBLIC "-//W3C//DTD SVG 1.1//EN"
 "http://www.w3.org/Graphics/SVG/1.1/DTD/svg11.dtd">
<!-- Generated by graphviz version 2.43.0 (0)
 -->
<!-- Title: proto::FieldPrototype::set_size Pages: 1 -->
<svg width="483pt" height="38pt"
 viewBox="0.00 0.00 483.00 38.00" xmlns="http://www.w3.org/2000/svg" xmlns:xlink="http://www.w3.org/1999/xlink">
<g id="graph0" class="graph" transform="scale(1 1) rotate(0) translate(4 34)">
<title>proto::FieldPrototype::set_size</title>
<!-- Node1 -->
<g id="Node000001" class="node">
<title>Node1</title>
<g id="a_Node000001"><a xlink:title="Configure runtime size for dynamic fields.">
<polygon fill="#999999" stroke="#666666" points="475,-30 356,-30 356,0 475,0 475,-30"/>
<text text-anchor="start" x="364" y="-18" font-family="Helvetica,sans-Serif" font-size="10.00">proto::FieldPrototype</text>
<text text-anchor="middle" x="415.5" y="-7" font-family="Helvetica,sans-Serif" font-size="10.00">::set_size</text>
</a>
</g>
</g>
<!-- Node2 -->
<g id="Node000002" class="node">
<title>Node2</title>
<g id="a_Node000002"><a xlink:href="../../d3/dc2/classproto_1_1DataFieldPrototype.html#ac0add41abcaf78bdffbcf25e2da432ea" target="_top" xlink:title="Set active packet ID.">
<polygon fill="white" stroke="#666666" points="320,-30 178,-30 178,0 320,0 320,-30"/>
<text text-anchor="start" x="186" y="-18" font-family="Helvetica,sans-Serif" font-size="10.00">proto::DataFieldPrototype</text>
<text text-anchor="middle" x="249" y="-7" font-family="Helvetica,sans-Serif" font-size="10.00">::set_id</text>
</a>
</g>
</g>
<!-- Node1&#45;&gt;Node2 -->
<g id="edge1_Node000001_Node000002" class="edge">
<title>Node1&#45;&gt;Node2</title>
<g id="a_edge1_Node000001_Node000002"><a xlink:title=" ">
<path fill="none" stroke="#63b8ff" d="M345.44,-15C337.03,-15 328.44,-15 320.02,-15"/>
<polygon fill="#63b8ff" stroke="#63b8ff" points="345.58,-18.5 355.58,-15 345.58,-11.5 345.58,-18.5"/>
</a>
</g>
</g>
<!-- Node3 -->
<g id="Node000003" class="node">
<title>Node3</title>
<g id="a_Node000003"><a xlink:href="../../d3/dc2/classproto_1_1DataFieldPrototype.html#ac0f1bfe6c11132d8b71f1da534f25b92" target="_top" xlink:title="Set active packet by its payload type.">
<polygon fill="white" stroke="#666666" points="142,-30 0,-30 0,0 142,0 142,-30"/>
<text text-anchor="start" x="8" y="-18" font-family="Helvetica,sans-Serif" font-size="10.00">proto::DataFieldPrototype</text>
<text text-anchor="middle" x="71" y="-7" font-family="Helvetica,sans-Serif" font-size="10.00">::set_type</text>
</a>
</g>
</g>
<!-- Node2&#45;&gt;Node3 -->
<g id="edge2_Node000002_Node000003" class="edge">
<title>Node2&#45;&gt;Node3</title>
<g id="a_edge2_Node000002_Node000003"><a xlink:title=" ">
<path fill="none" stroke="#63b8ff" d="M167.9,-15C159.29,-15 150.59,-15 142.11,-15"/>
<polygon fill="#63b8ff" stroke="#63b8ff" points="167.93,-18.5 177.93,-15 167.93,-11.5 167.93,-18.5"/>
</a>
</g>
</g>
</g>
</svg>
