<?xml version="1.0" encoding="UTF-8" standalone="no"?>
<!DOCTYPE svg PUBLIC "-//W3C//DTD SVG 1.1//EN"
 "http://www.w3.org/Graphics/SVG/1.1/DTD/svg11.dtd">
<!-- Generated by graphviz version 2.43.0 (0)
 -->
<!-- Title: proto::lacte::ErrorFlags::ErrorFlags Pages: 1 -->
<svg width="462pt" height="64pt"
 viewBox="0.00 0.00 462.00 64.00" xmlns="http://www.w3.org/2000/svg" xmlns:xlink="http://www.w3.org/1999/xlink">
<g id="graph0" class="graph" transform="scale(1 1) rotate(0) translate(4 60)">
<title>proto::lacte::ErrorFlags::ErrorFlags</title>
<!-- Node1 -->
<g id="Node000001" class="node">
<title>Node1</title>
<g id="a_Node000001"><a xlink:title=" ">
<polygon fill="#999999" stroke="#666666" points="128,-42.5 0,-42.5 0,-12.5 128,-12.5 128,-42.5"/>
<text text-anchor="start" x="8" y="-30.5" font-family="Helvetica,sans-Serif" font-size="10.00">proto::lacte::ErrorFlags</text>
<text text-anchor="middle" x="64" y="-19.5" font-family="Helvetica,sans-Serif" font-size="10.00">::ErrorFlags</text>
</a>
</g>
</g>
<!-- Node2 -->
<g id="Node000002" class="node">
<title>Node2</title>
<g id="a_Node000002"><a xlink:href="../../d9/db4/classproto_1_1lacte_1_1ErrorFlags.html#aeb541042b66e0772797a12b143543936" target="_top" xlink:title=" ">
<polygon fill="white" stroke="#666666" points="313,-56 164,-56 164,-37 313,-37 313,-56"/>
<text text-anchor="middle" x="238.5" y="-44" font-family="Helvetica,sans-Serif" font-size="10.00">proto::lacte::ErrorFlags::set</text>
</a>
</g>
</g>
<!-- Node1&#45;&gt;Node2 -->
<g id="edge1_Node000001_Node000002" class="edge">
<title>Node1&#45;&gt;Node2</title>
<g id="a_edge1_Node000001_Node000002"><a xlink:title=" ">
<path fill="none" stroke="#63b8ff" d="M128.25,-34.47C136.55,-35.38 145.15,-36.33 153.71,-37.27"/>
<polygon fill="#63b8ff" stroke="#63b8ff" points="153.41,-40.76 163.73,-38.38 154.18,-33.8 153.41,-40.76"/>
</a>
</g>
</g>
<!-- Node4 -->
<g id="Node000004" class="node">
<title>Node4</title>
<g id="a_Node000004"><a xlink:href="../../d3/d81/namespaceproto_1_1lacte.html#a34226b80fd523b012a1977cb0bdea8d2" target="_top" xlink:title=" ">
<polygon fill="white" stroke="#666666" points="299,-19 178,-19 178,0 299,0 299,-19"/>
<text text-anchor="middle" x="238.5" y="-7" font-family="Helvetica,sans-Serif" font-size="10.00">proto::lacte::to_string</text>
</a>
</g>
</g>
<!-- Node1&#45;&gt;Node4 -->
<g id="edge3_Node000001_Node000004" class="edge">
<title>Node1&#45;&gt;Node4</title>
<g id="a_edge3_Node000001_Node000004"><a xlink:title=" ">
<path fill="none" stroke="#63b8ff" d="M128.25,-20.9C141.08,-19.56 154.63,-18.15 167.66,-16.79"/>
<polygon fill="#63b8ff" stroke="#63b8ff" points="168.4,-20.23 177.98,-15.71 167.67,-13.27 168.4,-20.23"/>
</a>
</g>
</g>
<!-- Node3 -->
<g id="Node000003" class="node">
<title>Node3</title>
<g id="a_Node000003"><a xlink:href="../../d3/d81/namespaceproto_1_1lacte.html#a99c9dae032d5ed58f9ff6e24ed0da8e0" target="_top" xlink:title=" ">
<polygon fill="white" stroke="#666666" points="454,-56 349,-56 349,-37 454,-37 454,-56"/>
<text text-anchor="middle" x="401.5" y="-44" font-family="Helvetica,sans-Serif" font-size="10.00">proto::lacte::mask</text>
</a>
</g>
</g>
<!-- Node2&#45;&gt;Node3 -->
<g id="edge2_Node000002_Node000003" class="edge">
<title>Node2&#45;&gt;Node3</title>
<g id="a_edge2_Node000002_Node000003"><a xlink:title=" ">
<path fill="none" stroke="#63b8ff" d="M313.4,-46.5C321.77,-46.5 330.24,-46.5 338.43,-46.5"/>
<polygon fill="#63b8ff" stroke="#63b8ff" points="338.64,-50 348.64,-46.5 338.64,-43 338.64,-50"/>
</a>
</g>
</g>
</g>
</svg>
