<?xml version="1.0" encoding="UTF-8" standalone="no"?>
<!DOCTYPE svg PUBLIC "-//W3C//DTD SVG 1.1//EN"
 "http://www.w3.org/Graphics/SVG/1.1/DTD/svg11.dtd">
<!-- Generated by graphviz version 2.43.0 (0)
 -->
<!-- Title: proto::lacte::InfoPacketType Pages: 1 -->
<svg width="318pt" height="93pt"
 viewBox="0.00 0.00 317.50 93.00" xmlns="http://www.w3.org/2000/svg" xmlns:xlink="http://www.w3.org/1999/xlink">
<g id="graph0" class="graph" transform="scale(1 1) rotate(0) translate(4 89)">
<title>proto::lacte::InfoPacketType</title>
<!-- Node1 -->
<g id="Node000001" class="node">
<title>Node1</title>
<g id="a_Node000001"><a xlink:title=" ">
<polygon fill="#999999" stroke="#666666" points="221.5,-19 70.5,-19 70.5,0 221.5,0 221.5,-19"/>
<text text-anchor="middle" x="146" y="-7" font-family="Helvetica,sans-Serif" font-size="10.00">proto::lacte::InfoPacketType</text>
</a>
</g>
</g>
<!-- Node2 -->
<g id="Node000002" class="node">
<title>Node2</title>
<g id="a_Node000002"><a xlink:href="../../d9/db4/classproto_1_1lacte_1_1ErrorFlags.html" target="_top" xlink:title=" ">
<polygon fill="white" stroke="#666666" points="128,-85 0,-85 0,-66 128,-66 128,-85"/>
<text text-anchor="middle" x="64" y="-73" font-family="Helvetica,sans-Serif" font-size="10.00">proto::lacte::ErrorFlags</text>
</a>
</g>
</g>
<!-- Node2&#45;&gt;Node1 -->
<g id="edge1_Node000001_Node000002" class="edge">
<title>Node2&#45;&gt;Node1</title>
<g id="a_edge1_Node000001_Node000002"><a xlink:title=" ">
<path fill="none" stroke="#9a32cd" stroke-dasharray="5,2" d="M83.23,-59.49C99.29,-46.96 121.61,-29.54 134.85,-19.2"/>
<polygon fill="#9a32cd" stroke="#9a32cd" points="80.79,-56.96 75.06,-65.87 85.1,-62.48 80.79,-56.96"/>
</a>
</g>
<text text-anchor="middle" x="133.5" y="-40" font-family="Helvetica,sans-Serif" font-size="10.00" fill="grey"> m_errors</text>
</g>
<!-- Node3 -->
<g id="Node000003" class="node">
<title>Node3</title>
<g id="a_Node000003"><a xlink:href="../../df/dc6/structproto_1_1lacte_1_1RFIDNumberType.html" target="_top" xlink:title=" ">
<polygon fill="white" stroke="#666666" points="309.5,-85 146.5,-85 146.5,-66 309.5,-66 309.5,-85"/>
<text text-anchor="middle" x="228" y="-73" font-family="Helvetica,sans-Serif" font-size="10.00">proto::lacte::RFIDNumberType</text>
</a>
</g>
</g>
<!-- Node3&#45;&gt;Node1 -->
<g id="edge2_Node000001_Node000003" class="edge">
<title>Node3&#45;&gt;Node1</title>
<g id="a_edge2_Node000001_Node000003"><a xlink:title=" ">
<path fill="none" stroke="#9a32cd" stroke-dasharray="5,2" d="M208.77,-59.49C192.71,-46.96 170.39,-29.54 157.15,-19.2"/>
<polygon fill="#9a32cd" stroke="#9a32cd" points="206.9,-62.48 216.94,-65.87 211.21,-56.96 206.9,-62.48"/>
</a>
</g>
<text text-anchor="middle" x="208" y="-40" font-family="Helvetica,sans-Serif" font-size="10.00" fill="grey"> m_rfid</text>
</g>
</g>
</svg>
