<?xml version="1.0" encoding="UTF-8" standalone="no"?>
<!DOCTYPE svg PUBLIC "-//W3C//DTD SVG 1.1//EN"
 "http://www.w3.org/Graphics/SVG/1.1/DTD/svg11.dtd">
<!-- Generated by graphviz version 14.0.1 (20251006.0113)
 -->
<!-- Title: NamedTuple.hpp Pages: 1 -->
<svg width="707pt" height="193pt"
 viewBox="0.00 0.00 707.00 193.00" xmlns="http://www.w3.org/2000/svg" xmlns:xlink="http://www.w3.org/1999/xlink">
<g id="graph0" class="graph" transform="scale(1 1) rotate(0) translate(4 189)">
<title>NamedTuple.hpp</title>
<!-- Node1 -->
<g id="Node000001" class="node">
<title>Node1</title>
<g id="a_Node000001"><a xlink:title=" ">
<polygon fill="#999999" stroke="#666666" points="152,-185 61.75,-185 61.75,-165.75 152,-165.75 152,-185"/>
<text xml:space="preserve" text-anchor="middle" x="106.88" y="-171.5" font-family="Helvetica,sans-Serif" font-size="10.00">NamedTuple.hpp</text>
</a>
</g>
</g>
<!-- Node2 -->
<g id="Node000002" class="node">
<title>Node2</title>
<g id="a_Node000002"><a xlink:title=" ">
<polygon fill="#e0e0e0" stroke="#999999" points="54.38,-129.75 17.38,-129.75 17.38,-110.5 54.38,-110.5 54.38,-129.75"/>
<text xml:space="preserve" text-anchor="middle" x="35.88" y="-116.25" font-family="Helvetica,sans-Serif" font-size="10.00">tuple</text>
</a>
</g>
</g>
<!-- Node1&#45;&gt;Node2 -->
<g id="edge1_Node000001_Node000002" class="edge">
<title>Node1&#45;&gt;Node2</title>
<g id="a_edge1_Node000001_Node000002"><a xlink:title=" ">
<path fill="none" stroke="#63b8ff" d="M94.83,-165.34C84.47,-157.57 69.27,-146.17 56.91,-136.9"/>
<polygon fill="#63b8ff" stroke="#63b8ff" points="59.05,-134.13 48.95,-130.93 54.85,-139.73 59.05,-134.13"/>
</a>
</g>
</g>
<!-- Node3 -->
<g id="Node000003" class="node">
<title>Node3</title>
<g id="a_Node000003"><a xlink:title=" ">
<polygon fill="#e0e0e0" stroke="#999999" points="61.75,-74.5 0,-74.5 0,-55.25 61.75,-55.25 61.75,-74.5"/>
<text xml:space="preserve" text-anchor="middle" x="30.88" y="-61" font-family="Helvetica,sans-Serif" font-size="10.00">type_traits</text>
</a>
</g>
</g>
<!-- Node1&#45;&gt;Node3 -->
<g id="edge2_Node000001_Node000003" class="edge">
<title>Node1&#45;&gt;Node3</title>
<g id="a_edge2_Node000001_Node000003"><a xlink:title=" ">
<path fill="none" stroke="#63b8ff" d="M100.95,-165.66C92.55,-153.33 76.66,-130.11 62.88,-110.5 56.71,-101.73 49.78,-92.05 43.95,-83.95"/>
<polygon fill="#63b8ff" stroke="#63b8ff" points="46.88,-82.02 38.19,-75.96 41.2,-86.11 46.88,-82.02"/>
</a>
</g>
</g>
<!-- Node4 -->
<g id="Node000004" class="node">
<title>Node4</title>
<g id="a_Node000004"><a xlink:title=" ">
<polygon fill="#e0e0e0" stroke="#999999" points="150.5,-129.75 111.25,-129.75 111.25,-110.5 150.5,-110.5 150.5,-129.75"/>
<text xml:space="preserve" text-anchor="middle" x="130.88" y="-116.25" font-family="Helvetica,sans-Serif" font-size="10.00">utility</text>
</a>
</g>
</g>
<!-- Node1&#45;&gt;Node4 -->
<g id="edge3_Node000001_Node000004" class="edge">
<title>Node1&#45;&gt;Node4</title>
<g id="a_edge3_Node000001_Node000004"><a xlink:title=" ">
<path fill="none" stroke="#63b8ff" d="M110.84,-165.58C113.91,-158.76 118.29,-149.06 122.16,-140.45"/>
<polygon fill="#63b8ff" stroke="#63b8ff" points="125.29,-142.04 126.2,-131.49 118.9,-139.17 125.29,-142.04"/>
</a>
</g>
</g>
<!-- Node5 -->
<g id="Node000005" class="node">
<title>Node5</title>
<g id="a_Node000005"><a xlink:href="../../d3/d6e/_field_prototype_8hpp.html" target="_top" xlink:title="FieldPrototype template for describing and handling protocol fields.">
<polygon fill="white" stroke="#666666" points="386.62,-129.75 219.12,-129.75 219.12,-110.5 386.62,-110.5 386.62,-129.75"/>
<text xml:space="preserve" text-anchor="middle" x="302.88" y="-116.25" font-family="Helvetica,sans-Serif" font-size="10.00">prototypes/field/FieldPrototype.hpp</text>
</a>
</g>
</g>
<!-- Node1&#45;&gt;Node5 -->
<g id="edge4_Node000001_Node000005" class="edge">
<title>Node1&#45;&gt;Node5</title>
<g id="a_edge4_Node000001_Node000005"><a xlink:title=" ">
<path fill="none" stroke="#63b8ff" d="M140.12,-165.34C172.79,-156.47 222.82,-142.87 258.79,-133.1"/>
<polygon fill="#63b8ff" stroke="#63b8ff" points="259.27,-136.6 268,-130.6 257.43,-129.84 259.27,-136.6"/>
</a>
</g>
</g>
<!-- Node5&#45;&gt;Node3 -->
<g id="edge12_Node000005_Node000003" class="edge">
<title>Node5&#45;&gt;Node3</title>
<g id="a_edge12_Node000005_Node000003"><a xlink:title=" ">
<path fill="none" stroke="#63b8ff" d="M253.93,-110.04C209.32,-101.68 141.31,-88.76 72.86,-74.87"/>
<polygon fill="#63b8ff" stroke="#63b8ff" points="73.85,-71.5 63.35,-72.93 72.45,-78.36 73.85,-71.5"/>
</a>
</g>
</g>
<!-- Node6 -->
<g id="Node000006" class="node">
<title>Node6</title>
<g id="a_Node000006"><a xlink:title=" ">
<polygon fill="#e0e0e0" stroke="#999999" points="698.5,-19.25 653.25,-19.25 653.25,0 698.5,0 698.5,-19.25"/>
<text xml:space="preserve" text-anchor="middle" x="675.88" y="-5.75" font-family="Helvetica,sans-Serif" font-size="10.00">cstdint</text>
</a>
</g>
</g>
<!-- Node5&#45;&gt;Node6 -->
<g id="edge5_Node000005_Node000006" class="edge">
<title>Node5&#45;&gt;Node6</title>
<g id="a_edge5_Node000005_Node000006"><a xlink:title=" ">
<path fill="none" stroke="#63b8ff" d="M386.93,-114.24C488.51,-107.52 648.32,-94 667.88,-74.5 679.14,-63.27 680.35,-44.79 679.21,-30.58"/>
<polygon fill="#63b8ff" stroke="#63b8ff" points="682.72,-30.47 677.98,-21 675.78,-31.36 682.72,-30.47"/>
</a>
</g>
</g>
<!-- Node7 -->
<g id="Node000007" class="node">
<title>Node7</title>
<g id="a_Node000007"><a xlink:title=" ">
<polygon fill="#e0e0e0" stroke="#999999" points="125.5,-74.5 80.25,-74.5 80.25,-55.25 125.5,-55.25 125.5,-74.5"/>
<text xml:space="preserve" text-anchor="middle" x="102.88" y="-61" font-family="Helvetica,sans-Serif" font-size="10.00">cstring</text>
</a>
</g>
</g>
<!-- Node5&#45;&gt;Node7 -->
<g id="edge6_Node000005_Node000007" class="edge">
<title>Node5&#45;&gt;Node7</title>
<g id="a_edge6_Node000005_Node000007"><a xlink:title=" ">
<path fill="none" stroke="#63b8ff" d="M268.44,-110.02C236.73,-101.62 188.09,-88.72 136.9,-75.03"/>
<polygon fill="#63b8ff" stroke="#63b8ff" points="137.97,-71.7 127.41,-72.49 136.16,-78.46 137.97,-71.7"/>
</a>
</g>
</g>
<!-- Node8 -->
<g id="Node000008" class="node">
<title>Node8</title>
<g id="a_Node000008"><a xlink:title=" ">
<polygon fill="#e0e0e0" stroke="#999999" points="193.75,-74.5 144,-74.5 144,-55.25 193.75,-55.25 193.75,-74.5"/>
<text xml:space="preserve" text-anchor="middle" x="168.88" y="-61" font-family="Helvetica,sans-Serif" font-size="10.00">iomanip</text>
</a>
</g>
</g>
<!-- Node5&#45;&gt;Node8 -->
<g id="edge7_Node000005_Node000008" class="edge">
<title>Node5&#45;&gt;Node8</title>
<g id="a_edge7_Node000005_Node000008"><a xlink:title=" ">
<path fill="none" stroke="#63b8ff" d="M280.14,-110.09C258.78,-101.6 226.53,-88.79 202.25,-79.14"/>
<polygon fill="#63b8ff" stroke="#63b8ff" points="203.71,-75.95 193.12,-75.51 201.12,-82.46 203.71,-75.95"/>
</a>
</g>
</g>
<!-- Node9 -->
<g id="Node000009" class="node">
<title>Node9</title>
<g id="a_Node000009"><a xlink:title=" ">
<polygon fill="#e0e0e0" stroke="#999999" points="265.62,-74.5 212.12,-74.5 212.12,-55.25 265.62,-55.25 265.62,-74.5"/>
<text xml:space="preserve" text-anchor="middle" x="238.88" y="-61" font-family="Helvetica,sans-Serif" font-size="10.00">iostream</text>
</a>
</g>
</g>
<!-- Node5&#45;&gt;Node9 -->
<g id="edge8_Node000005_Node000009" class="edge">
<title>Node5&#45;&gt;Node9</title>
<g id="a_edge8_Node000005_Node000009"><a xlink:title=" ">
<path fill="none" stroke="#63b8ff" d="M292.02,-110.09C282.77,-102.4 269.25,-91.15 258.17,-81.93"/>
<polygon fill="#63b8ff" stroke="#63b8ff" points="260.66,-79.45 250.73,-75.74 256.18,-84.83 260.66,-79.45"/>
</a>
</g>
</g>
<!-- Node10 -->
<g id="Node000010" class="node">
<title>Node10</title>
<g id="a_Node000010"><a xlink:title=" ">
<polygon fill="#e0e0e0" stroke="#999999" points="322.5,-74.5 283.25,-74.5 283.25,-55.25 322.5,-55.25 322.5,-74.5"/>
<text xml:space="preserve" text-anchor="middle" x="302.88" y="-61" font-family="Helvetica,sans-Serif" font-size="10.00">limits</text>
</a>
</g>
</g>
<!-- Node5&#45;&gt;Node10 -->
<g id="edge9_Node000005_Node000010" class="edge">
<title>Node5&#45;&gt;Node10</title>
<g id="a_edge9_Node000005_Node000010"><a xlink:title=" ">
<path fill="none" stroke="#63b8ff" d="M302.88,-110.33C302.88,-103.82 302.88,-94.67 302.88,-86.37"/>
<polygon fill="#63b8ff" stroke="#63b8ff" points="306.38,-86.37 302.88,-76.37 299.38,-86.37 306.38,-86.37"/>
</a>
</g>
</g>
<!-- Node11 -->
<g id="Node000011" class="node">
<title>Node11</title>
<g id="a_Node000011"><a xlink:title=" ">
<polygon fill="#e0e0e0" stroke="#999999" points="391.5,-74.5 340.25,-74.5 340.25,-55.25 391.5,-55.25 391.5,-74.5"/>
<text xml:space="preserve" text-anchor="middle" x="365.88" y="-61" font-family="Helvetica,sans-Serif" font-size="10.00">sstream</text>
</a>
</g>
</g>
<!-- Node5&#45;&gt;Node11 -->
<g id="edge10_Node000005_Node000011" class="edge">
<title>Node5&#45;&gt;Node11</title>
<g id="a_edge10_Node000005_Node000011"><a xlink:title=" ">
<path fill="none" stroke="#63b8ff" d="M313.56,-110.09C322.58,-102.47 335.71,-91.37 346.56,-82.2"/>
<polygon fill="#63b8ff" stroke="#63b8ff" points="348.81,-84.88 354.19,-75.75 344.29,-79.53 348.81,-84.88"/>
</a>
</g>
</g>
<!-- Node12 -->
<g id="Node000012" class="node">
<title>Node12</title>
<g id="a_Node000012"><a xlink:title=" ">
<polygon fill="#e0e0e0" stroke="#999999" points="476.62,-19.25 411.12,-19.25 411.12,0 476.62,0 476.62,-19.25"/>
<text xml:space="preserve" text-anchor="middle" x="443.88" y="-5.75" font-family="Helvetica,sans-Serif" font-size="10.00">string_view</text>
</a>
</g>
</g>
<!-- Node5&#45;&gt;Node12 -->
<g id="edge11_Node000005_Node000012" class="edge">
<title>Node5&#45;&gt;Node12</title>
<g id="a_edge11_Node000005_Node000012"><a xlink:title=" ">
<path fill="none" stroke="#63b8ff" d="M333.6,-110.05C354.25,-102.84 381.19,-91.18 400.88,-74.5 415.52,-62.09 427.27,-43.5 434.76,-29.57"/>
<polygon fill="#63b8ff" stroke="#63b8ff" points="437.73,-31.46 439.14,-20.96 431.49,-28.28 437.73,-31.46"/>
</a>
</g>
</g>
<!-- Node13 -->
<g id="Node000013" class="node">
<title>Node13</title>
<g id="a_Node000013"><a xlink:title=" ">
<polygon fill="#e0e0e0" stroke="#999999" points="491.38,-74.5 448.38,-74.5 448.38,-55.25 491.38,-55.25 491.38,-74.5"/>
<text xml:space="preserve" text-anchor="middle" x="469.88" y="-61" font-family="Helvetica,sans-Serif" font-size="10.00">vector</text>
</a>
</g>
</g>
<!-- Node5&#45;&gt;Node13 -->
<g id="edge13_Node000005_Node000013" class="edge">
<title>Node5&#45;&gt;Node13</title>
<g id="a_edge13_Node000005_Node000013"><a xlink:title=" ">
<path fill="none" stroke="#63b8ff" d="M331.2,-110.09C360.63,-100.71 406.59,-86.05 437.45,-76.21"/>
<polygon fill="#63b8ff" stroke="#63b8ff" points="438.17,-79.66 446.63,-73.29 436.04,-72.99 438.17,-79.66"/>
</a>
</g>
</g>
<!-- Node14 -->
<g id="Node000014" class="node">
<title>Node14</title>
<g id="a_Node000014"><a xlink:href="../../d8/d46/_field_flags_8hpp.html" target="_top" xlink:title="Common enums and utilities for protocol field names and flags.">
<polygon fill="white" stroke="#666666" points="658.62,-74.5 509.12,-74.5 509.12,-55.25 658.62,-55.25 658.62,-74.5"/>
<text xml:space="preserve" text-anchor="middle" x="583.88" y="-61" font-family="Helvetica,sans-Serif" font-size="10.00">prototypes/field/FieldFlags.hpp</text>
</a>
</g>
</g>
<!-- Node5&#45;&gt;Node14 -->
<g id="edge14_Node000005_Node000014" class="edge">
<title>Node5&#45;&gt;Node14</title>
<g id="a_edge14_Node000005_Node000014"><a xlink:title=" ">
<path fill="none" stroke="#63b8ff" d="M350.86,-110.03C399.05,-100.9 473.39,-86.81 525.09,-77.01"/>
<polygon fill="#63b8ff" stroke="#63b8ff" points="525.43,-80.51 534.6,-75.21 524.12,-73.64 525.43,-80.51"/>
</a>
</g>
</g>
<!-- Node14&#45;&gt;Node6 -->
<g id="edge16_Node000014_Node000006" class="edge">
<title>Node14&#45;&gt;Node6</title>
<g id="a_edge16_Node000014_Node000006"><a xlink:title=" ">
<path fill="none" stroke="#63b8ff" d="M599.48,-54.84C613.49,-46.73 634.31,-34.68 650.68,-25.21"/>
<polygon fill="#63b8ff" stroke="#63b8ff" points="651.98,-28.5 658.88,-20.46 648.47,-22.44 651.98,-28.5"/>
</a>
</g>
</g>
<!-- Node14&#45;&gt;Node12 -->
<g id="edge18_Node000014_Node000012" class="edge">
<title>Node14&#45;&gt;Node12</title>
<g id="a_edge18_Node000014_Node000012"><a xlink:title=" ">
<path fill="none" stroke="#63b8ff" d="M560.13,-54.84C537.7,-46.31 503.81,-33.42 478.4,-23.76"/>
<polygon fill="#63b8ff" stroke="#63b8ff" points="479.75,-20.52 469.16,-20.24 477.26,-27.07 479.75,-20.52"/>
</a>
</g>
</g>
<!-- Node15 -->
<g id="Node000015" class="node">
<title>Node15</title>
<g id="a_Node000015"><a xlink:title=" ">
<polygon fill="#e0e0e0" stroke="#999999" points="613.75,-19.25 576,-19.25 576,0 613.75,0 613.75,-19.25"/>
<text xml:space="preserve" text-anchor="middle" x="594.88" y="-5.75" font-family="Helvetica,sans-Serif" font-size="10.00">array</text>
</a>
</g>
</g>
<!-- Node14&#45;&gt;Node15 -->
<g id="edge15_Node000014_Node000015" class="edge">
<title>Node14&#45;&gt;Node15</title>
<g id="a_edge15_Node000014_Node000015"><a xlink:title=" ">
<path fill="none" stroke="#63b8ff" d="M585.69,-55.08C587.05,-48.49 588.97,-39.21 590.7,-30.82"/>
<polygon fill="#63b8ff" stroke="#63b8ff" points="594.12,-31.59 592.71,-21.09 587.26,-30.18 594.12,-31.59"/>
</a>
</g>
</g>
<!-- Node16 -->
<g id="Node000016" class="node">
<title>Node16</title>
<g id="a_Node000016"><a xlink:title=" ">
<polygon fill="#e0e0e0" stroke="#999999" points="557.5,-19.25 506.25,-19.25 506.25,0 557.5,0 557.5,-19.25"/>
<text xml:space="preserve" text-anchor="middle" x="531.88" y="-5.75" font-family="Helvetica,sans-Serif" font-size="10.00">ostream</text>
</a>
</g>
</g>
<!-- Node14&#45;&gt;Node16 -->
<g id="edge17_Node000014_Node000016" class="edge">
<title>Node14&#45;&gt;Node16</title>
<g id="a_edge17_Node000014_Node000016"><a xlink:title=" ">
<path fill="none" stroke="#63b8ff" d="M575.29,-55.08C568.03,-47.65 557.42,-36.79 548.51,-27.66"/>
<polygon fill="#63b8ff" stroke="#63b8ff" points="551.2,-25.4 541.71,-20.69 546.19,-30.29 551.2,-25.4"/>
</a>
</g>
</g>
</g>
</svg>
