<?xml version="1.0" encoding="UTF-8" standalone="no"?>
<!DOCTYPE svg PUBLIC "-//W3C//DTD SVG 1.1//EN"
 "http://www.w3.org/Graphics/SVG/1.1/DTD/svg11.dtd">
<!-- Generated by graphviz version 2.43.0 (0)
 -->
<!-- Title: proto::exoAtlant::ExoAtlantProtocol_&lt; RX_BASE, TX_BASE &gt; Pages: 1 -->
<svg width="1016pt" height="130pt"
 viewBox="0.00 0.00 1016.00 130.00" xmlns="http://www.w3.org/2000/svg" xmlns:xlink="http://www.w3.org/1999/xlink">
<g id="graph0" class="graph" transform="scale(1 1) rotate(0) translate(4 126)">
<title>proto::exoAtlant::ExoAtlantProtocol_&lt; RX_BASE, TX_BASE &gt;</title>
<!-- Node1 -->
<g id="Node000001" class="node">
<title>Node1</title>
<g id="a_Node000001"><a xlink:title=" ">
<polygon fill="#999999" stroke="#666666" points="1008,-80 830,-80 830,-50 1008,-50 1008,-80"/>
<text text-anchor="start" x="838" y="-68" font-family="Helvetica,sans-Serif" font-size="10.00">proto::exoAtlant::ExoAtlant</text>
<text text-anchor="middle" x="919" y="-57" font-family="Helvetica,sans-Serif" font-size="10.00">Protocol_&lt; RX_BASE, TX_BASE &gt;</text>
</a>
</g>
</g>
<!-- Node2 -->
<g id="Node000002" class="node">
<title>Node2</title>
<g id="a_Node000002"><a xlink:href="../../d3/d19/classproto_1_1ProtocolNoSysEndpoint.html" target="_top" xlink:title=" ">
<polygon fill="white" stroke="#666666" points="793,-91 568,-91 568,-39 793,-39 793,-91"/>
<text text-anchor="start" x="576" y="-79" font-family="Helvetica,sans-Serif" font-size="10.00">proto::ProtocolNoSysEndpoint</text>
<text text-anchor="start" x="576" y="-68" font-family="Helvetica,sans-Serif" font-size="10.00">&lt; exoAtlantPacket&lt; RX_BASE</text>
<text text-anchor="start" x="576" y="-57" font-family="Helvetica,sans-Serif" font-size="10.00"> &gt;::packet_fields, exoAtlantPacket</text>
<text text-anchor="middle" x="680.5" y="-46" font-family="Helvetica,sans-Serif" font-size="10.00">&lt; TX_BASE &gt;::packet_fields, custom_crc &gt;</text>
</a>
</g>
</g>
<!-- Node2&#45;&gt;Node1 -->
<g id="edge1_Node000001_Node000002" class="edge">
<title>Node2&#45;&gt;Node1</title>
<g id="a_edge1_Node000001_Node000002"><a xlink:title=" ">
<path fill="none" stroke="#63b8ff" d="M803.29,-65C812.25,-65 821.18,-65 829.88,-65"/>
<polygon fill="#63b8ff" stroke="#63b8ff" points="803.17,-61.5 793.17,-65 803.17,-68.5 803.17,-61.5"/>
</a>
</g>
</g>
<!-- Node3 -->
<g id="Node000003" class="node">
<title>Node3</title>
<g id="a_Node000003"><a xlink:href="../../d0/d29/classproto_1_1RxContainer.html" target="_top" xlink:title=" ">
<polygon fill="white" stroke="#666666" points="504,-122 373,-122 373,-70 504,-70 504,-122"/>
<text text-anchor="start" x="381" y="-110" font-family="Helvetica,sans-Serif" font-size="10.00">proto::RxContainer</text>
<text text-anchor="start" x="381" y="-99" font-family="Helvetica,sans-Serif" font-size="10.00">&lt; exoAtlantPacket&lt; RX</text>
<text text-anchor="start" x="381" y="-88" font-family="Helvetica,sans-Serif" font-size="10.00">_BASE &gt;::packet_fields,</text>
<text text-anchor="middle" x="438.5" y="-77" font-family="Helvetica,sans-Serif" font-size="10.00"> custom_crc &gt;</text>
</a>
</g>
</g>
<!-- Node3&#45;&gt;Node2 -->
<g id="edge2_Node000002_Node000003" class="edge">
<title>Node3&#45;&gt;Node2</title>
<g id="a_edge2_Node000002_Node000003"><a xlink:title=" ">
<path fill="none" stroke="#9a32cd" stroke-dasharray="5,2" d="M514.43,-86.32C531.29,-84.14 549.54,-81.79 567.54,-79.46"/>
<polygon fill="#9a32cd" stroke="#9a32cd" points="513.6,-82.9 504.13,-87.65 514.5,-89.84 513.6,-82.9"/>
</a>
</g>
<text text-anchor="middle" x="536" y="-88" font-family="Helvetica,sans-Serif" font-size="10.00" fill="grey"> m_rx</text>
</g>
<!-- Node4 -->
<g id="Node000004" class="node">
<title>Node4</title>
<g id="a_Node000004"><a xlink:href="../../d5/d09/classproto_1_1FieldContainer.html" target="_top" xlink:title="Generic container for protocol fields with CRC and debug support.">
<polygon fill="white" stroke="#666666" points="336,-108 217,-108 217,-78 336,-78 336,-108"/>
<text text-anchor="start" x="225" y="-96" font-family="Helvetica,sans-Serif" font-size="10.00">proto::FieldContainer</text>
<text text-anchor="middle" x="276.5" y="-85" font-family="Helvetica,sans-Serif" font-size="10.00">&lt; Fields, TCrc &gt;</text>
</a>
</g>
</g>
<!-- Node4&#45;&gt;Node3 -->
<g id="edge3_Node000003_Node000004" class="edge">
<title>Node4&#45;&gt;Node3</title>
<g id="a_edge3_Node000003_Node000004"><a xlink:title=" ">
<path fill="none" stroke="#63b8ff" d="M346.39,-94.29C355.19,-94.46 364.17,-94.63 372.9,-94.79"/>
<polygon fill="#63b8ff" stroke="#63b8ff" points="346.23,-90.79 336.17,-94.1 346.1,-97.79 346.23,-90.79"/>
</a>
</g>
</g>
<!-- Node5 -->
<g id="Node000005" class="node">
<title>Node5</title>
<g id="a_Node000005"><a xlink:href="../../d6/df7/structproto_1_1TransformToFieldsTuple.html" target="_top" xlink:title=" ">
<polygon fill="white" stroke="#666666" points="136,-81 0,-81 0,-51 136,-51 136,-81"/>
<text text-anchor="start" x="8" y="-69" font-family="Helvetica,sans-Serif" font-size="10.00">proto::TransformToFields</text>
<text text-anchor="middle" x="68" y="-58" font-family="Helvetica,sans-Serif" font-size="10.00">Tuple&lt; Fields &gt;</text>
</a>
</g>
</g>
<!-- Node5&#45;&gt;Node4 -->
<g id="edge4_Node000004_Node000005" class="edge">
<title>Node5&#45;&gt;Node4</title>
<g id="a_edge4_Node000004_Node000005"><a xlink:title=" ">
<path fill="none" stroke="#9a32cd" stroke-dasharray="5,2" d="M146.27,-76.1C169.61,-79.16 194.86,-82.46 216.78,-85.32"/>
<polygon fill="#9a32cd" stroke="#9a32cd" points="146.41,-72.59 136.04,-74.77 145.51,-79.53 146.41,-72.59"/>
</a>
</g>
<text text-anchor="middle" x="176.5" y="-85" font-family="Helvetica,sans-Serif" font-size="10.00" fill="grey"> m_fields</text>
</g>
<!-- Node7 -->
<g id="Node000007" class="node">
<title>Node7</title>
<g id="a_Node000007"><a xlink:href="../../d5/d09/classproto_1_1FieldContainer.html" target="_top" xlink:title="Generic container for protocol fields with CRC and debug support.">
<polygon fill="white" stroke="#666666" points="336,-57 217,-57 217,-27 336,-27 336,-57"/>
<text text-anchor="start" x="225" y="-45" font-family="Helvetica,sans-Serif" font-size="10.00">proto::FieldContainer</text>
<text text-anchor="middle" x="276.5" y="-34" font-family="Helvetica,sans-Serif" font-size="10.00">&lt; Fields, TCrc &gt;</text>
</a>
</g>
</g>
<!-- Node5&#45;&gt;Node7 -->
<g id="edge7_Node000007_Node000005" class="edge">
<title>Node5&#45;&gt;Node7</title>
<g id="a_edge7_Node000007_Node000005"><a xlink:title=" ">
<path fill="none" stroke="#9a32cd" stroke-dasharray="5,2" d="M146.31,-53.97C148.9,-53.63 151.47,-53.31 154,-53 174.39,-50.52 196.78,-48.34 216.71,-46.59"/>
<polygon fill="#9a32cd" stroke="#9a32cd" points="145.67,-50.52 136.22,-55.33 146.6,-57.46 145.67,-50.52"/>
</a>
</g>
<text text-anchor="middle" x="176.5" y="-56" font-family="Helvetica,sans-Serif" font-size="10.00" fill="grey"> m_fields</text>
</g>
<!-- Node6 -->
<g id="Node000006" class="node">
<title>Node6</title>
<g id="a_Node000006"><a xlink:href="../../d4/dd2/classproto_1_1TxContainer.html" target="_top" xlink:title=" ">
<polygon fill="white" stroke="#666666" points="504,-52 373,-52 373,0 504,0 504,-52"/>
<text text-anchor="start" x="381" y="-40" font-family="Helvetica,sans-Serif" font-size="10.00">proto::TxContainer</text>
<text text-anchor="start" x="381" y="-29" font-family="Helvetica,sans-Serif" font-size="10.00">&lt; exoAtlantPacket&lt; TX</text>
<text text-anchor="start" x="381" y="-18" font-family="Helvetica,sans-Serif" font-size="10.00">_BASE &gt;::packet_fields,</text>
<text text-anchor="middle" x="438.5" y="-7" font-family="Helvetica,sans-Serif" font-size="10.00"> custom_crc &gt;</text>
</a>
</g>
</g>
<!-- Node6&#45;&gt;Node2 -->
<g id="edge5_Node000002_Node000006" class="edge">
<title>Node6&#45;&gt;Node2</title>
<g id="a_edge5_Node000002_Node000006"><a xlink:title=" ">
<path fill="none" stroke="#9a32cd" stroke-dasharray="5,2" d="M514.43,-38.18C531.29,-40.92 549.54,-43.88 567.54,-46.81"/>
<polygon fill="#9a32cd" stroke="#9a32cd" points="514.56,-34.65 504.13,-36.5 513.44,-41.56 514.56,-34.65"/>
</a>
</g>
<text text-anchor="middle" x="536" y="-47" font-family="Helvetica,sans-Serif" font-size="10.00" fill="grey"> m_tx</text>
</g>
<!-- Node7&#45;&gt;Node6 -->
<g id="edge6_Node000006_Node000007" class="edge">
<title>Node7&#45;&gt;Node6</title>
<g id="a_edge6_Node000006_Node000007"><a xlink:title=" ">
<path fill="none" stroke="#63b8ff" d="M346.39,-35.11C355.19,-34.23 364.17,-33.33 372.9,-32.46"/>
<polygon fill="#63b8ff" stroke="#63b8ff" points="345.77,-31.66 336.17,-36.13 346.47,-38.62 345.77,-31.66"/>
</a>
</g>
</g>
</g>
</svg>
