<?xml version="1.0" encoding="UTF-8" standalone="no"?>
<!DOCTYPE svg PUBLIC "-//W3C//DTD SVG 1.1//EN"
 "http://www.w3.org/Graphics/SVG/1.1/DTD/svg11.dtd">
<!-- Generated by graphviz version 2.43.0 (0)
 -->
<!-- Title: proto::FieldContainer::reset Pages: 1 -->
<svg width="704pt" height="230pt"
 viewBox="0.00 0.00 704.00 230.00" xmlns="http://www.w3.org/2000/svg" xmlns:xlink="http://www.w3.org/1999/xlink">
<g id="graph0" class="graph" transform="scale(1 1) rotate(0) translate(4 226)">
<title>proto::FieldContainer::reset</title>
<!-- Node1 -->
<g id="Node000001" class="node">
<title>Node1</title>
<g id="a_Node000001"><a xlink:title="Reset all fields, CRC, and internal state to defaults.">
<polygon fill="#999999" stroke="#666666" points="696,-102 577,-102 577,-72 696,-72 696,-102"/>
<text text-anchor="start" x="585" y="-90" font-family="Helvetica,sans-Serif" font-size="10.00">proto::FieldContainer</text>
<text text-anchor="middle" x="636.5" y="-79" font-family="Helvetica,sans-Serif" font-size="10.00">::reset</text>
</a>
</g>
</g>
<!-- Node2 -->
<g id="Node000002" class="node">
<title>Node2</title>
<g id="a_Node000002"><a xlink:href="../../d0/d29/classproto_1_1RxContainer.html#a62f66f4bc347105478aba5bffd14796f" target="_top" xlink:title="Feeds a chunk of bytes to the parser and advances internal state.">
<polygon fill="white" stroke="#666666" points="521.5,-174 413.5,-174 413.5,-144 521.5,-144 521.5,-174"/>
<text text-anchor="start" x="421.5" y="-162" font-family="Helvetica,sans-Serif" font-size="10.00">proto::RxContainer</text>
<text text-anchor="middle" x="467.5" y="-151" font-family="Helvetica,sans-Serif" font-size="10.00">::fill</text>
</a>
</g>
</g>
<!-- Node1&#45;&gt;Node2 -->
<g id="edge1_Node000001_Node000002" class="edge">
<title>Node1&#45;&gt;Node2</title>
<g id="a_edge1_Node000001_Node000002"><a xlink:title=" ">
<path fill="none" stroke="#63b8ff" d="M599.12,-107.09C581.8,-116.24 560.63,-126.82 541,-135 533.41,-138.16 525.25,-141.2 517.23,-143.99"/>
<polygon fill="#63b8ff" stroke="#63b8ff" points="601.14,-109.99 608.31,-102.19 597.84,-103.81 601.14,-109.99"/>
</a>
</g>
</g>
<!-- Node6 -->
<g id="Node000006" class="node">
<title>Node6</title>
<g id="a_Node000006"><a xlink:href="../../d4/d66/classproto_1_1exoAtlant_1_1ExoAtlantProtocol__.html#a98f8963b76c80c7846389fab7aa76bab" target="_top" xlink:title="Сброс состояния парсера">
<polygon fill="white" stroke="#666666" points="541,-126 394,-126 394,-96 541,-96 541,-126"/>
<text text-anchor="start" x="402" y="-114" font-family="Helvetica,sans-Serif" font-size="10.00">proto::exoAtlant::ExoAtlant</text>
<text text-anchor="middle" x="467.5" y="-103" font-family="Helvetica,sans-Serif" font-size="10.00">Protocol_::reset</text>
</a>
</g>
</g>
<!-- Node1&#45;&gt;Node6 -->
<g id="edge5_Node000001_Node000006" class="edge">
<title>Node1&#45;&gt;Node6</title>
<g id="a_edge5_Node000001_Node000006"><a xlink:title=" ">
<path fill="none" stroke="#63b8ff" d="M566.54,-96.91C558.17,-98.11 549.61,-99.34 541.19,-100.55"/>
<polygon fill="#63b8ff" stroke="#63b8ff" points="567.22,-100.35 576.62,-95.46 566.23,-93.42 567.22,-100.35"/>
</a>
</g>
</g>
<!-- Node7 -->
<g id="Node000007" class="node">
<title>Node7</title>
<g id="a_Node000007"><a xlink:href="../../d4/dd2/classproto_1_1TxContainer.html#a4b5b6b72f53c218e00d1c3b576c2e439" target="_top" xlink:title="Reset the internal state of the container and its fields.">
<polygon fill="white" stroke="#666666" points="521,-78 414,-78 414,-48 521,-48 521,-78"/>
<text text-anchor="start" x="422" y="-66" font-family="Helvetica,sans-Serif" font-size="10.00">proto::TxContainer</text>
<text text-anchor="middle" x="467.5" y="-55" font-family="Helvetica,sans-Serif" font-size="10.00">::reset</text>
</a>
</g>
</g>
<!-- Node1&#45;&gt;Node7 -->
<g id="edge6_Node000001_Node000007" class="edge">
<title>Node1&#45;&gt;Node7</title>
<g id="a_edge6_Node000001_Node000007"><a xlink:title=" ">
<path fill="none" stroke="#63b8ff" d="M566.71,-77.11C551.44,-74.92 535.5,-72.63 521.01,-70.55"/>
<polygon fill="#63b8ff" stroke="#63b8ff" points="566.23,-80.58 576.62,-78.54 567.22,-73.65 566.23,-80.58"/>
</a>
</g>
</g>
<!-- Node13 -->
<g id="Node000013" class="node">
<title>Node13</title>
<g id="a_Node000013"><a xlink:href="../../d0/d29/classproto_1_1RxContainer.html#a03bd1068d065c680d72c9c2c2cf9ebee" target="_top" xlink:title="Constructs an RxContainer and auto&#45;binds default matchers for standard fields.">
<polygon fill="white" stroke="#666666" points="521.5,-30 413.5,-30 413.5,0 521.5,0 521.5,-30"/>
<text text-anchor="start" x="421.5" y="-18" font-family="Helvetica,sans-Serif" font-size="10.00">proto::RxContainer</text>
<text text-anchor="middle" x="467.5" y="-7" font-family="Helvetica,sans-Serif" font-size="10.00">::RxContainer</text>
</a>
</g>
</g>
<!-- Node1&#45;&gt;Node13 -->
<g id="edge12_Node000001_Node000013" class="edge">
<title>Node1&#45;&gt;Node13</title>
<g id="a_edge12_Node000001_Node000013"><a xlink:title=" ">
<path fill="none" stroke="#63b8ff" d="M599.12,-66.91C581.8,-57.76 560.63,-47.18 541,-39 533.41,-35.84 525.25,-32.8 517.23,-30.01"/>
<polygon fill="#63b8ff" stroke="#63b8ff" points="597.84,-70.19 608.31,-71.81 601.14,-64.01 597.84,-70.19"/>
</a>
</g>
</g>
<!-- Node3 -->
<g id="Node000003" class="node">
<title>Node3</title>
<g id="a_Node000003"><a xlink:href="../../d4/d66/classproto_1_1exoAtlant_1_1ExoAtlantProtocol__.html#ab292d3fc1828c447d3e9d654aff5fcda" target="_top" xlink:title="Разбор входящего блока данных">
<polygon fill="white" stroke="#666666" points="351,-222 204,-222 204,-192 351,-192 351,-222"/>
<text text-anchor="start" x="212" y="-210" font-family="Helvetica,sans-Serif" font-size="10.00">proto::exoAtlant::ExoAtlant</text>
<text text-anchor="middle" x="277.5" y="-199" font-family="Helvetica,sans-Serif" font-size="10.00">Protocol_::parse</text>
</a>
</g>
</g>
<!-- Node2&#45;&gt;Node3 -->
<g id="edge2_Node000002_Node000003" class="edge">
<title>Node2&#45;&gt;Node3</title>
<g id="a_edge2_Node000002_Node000003"><a xlink:title=" ">
<path fill="none" stroke="#63b8ff" d="M403.45,-175.1C382.13,-180.54 358.42,-186.59 337.43,-191.95"/>
<polygon fill="#63b8ff" stroke="#63b8ff" points="404.56,-178.43 413.38,-172.56 402.83,-171.65 404.56,-178.43"/>
</a>
</g>
</g>
<!-- Node4 -->
<g id="Node000004" class="node">
<title>Node4</title>
<g id="a_Node000004"><a xlink:href="../../d3/d19/classproto_1_1ProtocolNoSysEndpoint.html#ab30ab8459d9984e0548be53972e4f498" target="_top" xlink:title=" ">
<polygon fill="white" stroke="#666666" points="358,-174 197,-174 197,-144 358,-144 358,-174"/>
<text text-anchor="start" x="205" y="-162" font-family="Helvetica,sans-Serif" font-size="10.00">proto::ProtocolNoSysEndpoint</text>
<text text-anchor="middle" x="277.5" y="-151" font-family="Helvetica,sans-Serif" font-size="10.00">::receive</text>
</a>
</g>
</g>
<!-- Node2&#45;&gt;Node4 -->
<g id="edge3_Node000002_Node000004" class="edge">
<title>Node2&#45;&gt;Node4</title>
<g id="a_edge3_Node000002_Node000004"><a xlink:title=" ">
<path fill="none" stroke="#63b8ff" d="M403.09,-159C388.67,-159 373.17,-159 358.17,-159"/>
<polygon fill="#63b8ff" stroke="#63b8ff" points="403.38,-162.5 413.38,-159 403.38,-155.5 403.38,-162.5"/>
</a>
</g>
</g>
<!-- Node5 -->
<g id="Node000005" class="node">
<title>Node5</title>
<g id="a_Node000005"><a xlink:href="../../d6/dc5/classproto_1_1ProtocolEndpoint.html#adf613bd3ee363704002a992199be43f1" target="_top" xlink:title="Wire the endpoint to external RX and TX interfaces.">
<polygon fill="white" stroke="#666666" points="343,-126 212,-126 212,-96 343,-96 343,-126"/>
<text text-anchor="start" x="220" y="-114" font-family="Helvetica,sans-Serif" font-size="10.00">proto::ProtocolEndpoint</text>
<text text-anchor="middle" x="277.5" y="-103" font-family="Helvetica,sans-Serif" font-size="10.00">::set_interfaces</text>
</a>
</g>
</g>
<!-- Node2&#45;&gt;Node5 -->
<g id="edge4_Node000002_Node000005" class="edge">
<title>Node2&#45;&gt;Node5</title>
<g id="a_edge4_Node000002_Node000005"><a xlink:title=" ">
<path fill="none" stroke="#63b8ff" d="M403.45,-142.9C382.13,-137.46 358.42,-131.41 337.43,-126.05"/>
<polygon fill="#63b8ff" stroke="#63b8ff" points="402.83,-146.35 413.38,-145.44 404.56,-139.57 402.83,-146.35"/>
</a>
</g>
</g>
<!-- Node8 -->
<g id="Node000008" class="node">
<title>Node8</title>
<g id="a_Node000008"><a xlink:href="../../d4/dd2/classproto_1_1TxContainer.html#a4636ad0f62ff172c7a74231bc9757985" target="_top" xlink:title="Build and send a packet, setting field values from a pack of FieldInfo.">
<polygon fill="white" stroke="#666666" points="331,-78 224,-78 224,-48 331,-48 331,-78"/>
<text text-anchor="start" x="232" y="-66" font-family="Helvetica,sans-Serif" font-size="10.00">proto::TxContainer</text>
<text text-anchor="middle" x="277.5" y="-55" font-family="Helvetica,sans-Serif" font-size="10.00">::send_packet</text>
</a>
</g>
</g>
<!-- Node7&#45;&gt;Node8 -->
<g id="edge7_Node000007_Node000008" class="edge">
<title>Node7&#45;&gt;Node8</title>
<g id="a_edge7_Node000007_Node000008"><a xlink:title=" ">
<path fill="none" stroke="#63b8ff" d="M403.65,-63C380.1,-63 353.62,-63 331.11,-63"/>
<polygon fill="#63b8ff" stroke="#63b8ff" points="403.88,-66.5 413.88,-63 403.88,-59.5 403.88,-66.5"/>
</a>
</g>
</g>
<!-- Node12 -->
<g id="Node000012" class="node">
<title>Node12</title>
<g id="a_Node000012"><a xlink:href="../../d4/dd2/classproto_1_1TxContainer.html#ae65bae4fd4431a2c7b96d4ec7723a1cc" target="_top" xlink:title="Binds default matchers to LEN/ALEN/CRC (if those fields exist) and performs an initial Reset().">
<polygon fill="white" stroke="#666666" points="331,-30 224,-30 224,0 331,0 331,-30"/>
<text text-anchor="start" x="232" y="-18" font-family="Helvetica,sans-Serif" font-size="10.00">proto::TxContainer</text>
<text text-anchor="middle" x="277.5" y="-7" font-family="Helvetica,sans-Serif" font-size="10.00">::TxContainer</text>
</a>
</g>
</g>
<!-- Node7&#45;&gt;Node12 -->
<g id="edge11_Node000007_Node000012" class="edge">
<title>Node7&#45;&gt;Node12</title>
<g id="a_edge11_Node000007_Node000012"><a xlink:title=" ">
<path fill="none" stroke="#63b8ff" d="M403.96,-47.03C380.34,-41 353.73,-34.21 331.11,-28.43"/>
<polygon fill="#63b8ff" stroke="#63b8ff" points="403.33,-50.48 413.88,-49.57 405.06,-43.7 403.33,-50.48"/>
</a>
</g>
</g>
<!-- Node9 -->
<g id="Node000009" class="node">
<title>Node9</title>
<g id="a_Node000009"><a xlink:href="../../d6/dc5/classproto_1_1ProtocolEndpoint.html#a5807ea4b27b179c2b19f43643fcc2d59" target="_top" xlink:title=" ">
<polygon fill="white" stroke="#666666" points="146,-126 15,-126 15,-96 146,-96 146,-126"/>
<text text-anchor="start" x="23" y="-114" font-family="Helvetica,sans-Serif" font-size="10.00">proto::ProtocolEndpoint</text>
<text text-anchor="middle" x="80.5" y="-103" font-family="Helvetica,sans-Serif" font-size="10.00">::request</text>
</a>
</g>
</g>
<!-- Node8&#45;&gt;Node9 -->
<g id="edge8_Node000008_Node000009" class="edge">
<title>Node8&#45;&gt;Node9</title>
<g id="a_edge8_Node000008_Node000009"><a xlink:title=" ">
<path fill="none" stroke="#63b8ff" d="M214.07,-78.37C191.25,-83.99 165.47,-90.33 142.75,-95.92"/>
<polygon fill="#63b8ff" stroke="#63b8ff" points="215.11,-81.72 223.99,-75.93 213.44,-74.92 215.11,-81.72"/>
</a>
</g>
</g>
<!-- Node10 -->
<g id="Node000010" class="node">
<title>Node10</title>
<g id="a_Node000010"><a xlink:href="../../d6/dc5/classproto_1_1ProtocolEndpoint.html#abfed28efa8dd14d2e45f194493e5816f" target="_top" xlink:title=" ">
<polygon fill="white" stroke="#666666" points="146,-78 15,-78 15,-48 146,-48 146,-78"/>
<text text-anchor="start" x="23" y="-66" font-family="Helvetica,sans-Serif" font-size="10.00">proto::ProtocolEndpoint</text>
<text text-anchor="middle" x="80.5" y="-55" font-family="Helvetica,sans-Serif" font-size="10.00">::send</text>
</a>
</g>
</g>
<!-- Node8&#45;&gt;Node10 -->
<g id="edge9_Node000008_Node000010" class="edge">
<title>Node8&#45;&gt;Node10</title>
<g id="a_edge9_Node000008_Node000010"><a xlink:title=" ">
<path fill="none" stroke="#63b8ff" d="M213.94,-63C192.33,-63 168.08,-63 146.3,-63"/>
<polygon fill="#63b8ff" stroke="#63b8ff" points="213.99,-66.5 223.99,-63 213.99,-59.5 213.99,-66.5"/>
</a>
</g>
</g>
<!-- Node11 -->
<g id="Node000011" class="node">
<title>Node11</title>
<g id="a_Node000011"><a xlink:href="../../d3/d19/classproto_1_1ProtocolNoSysEndpoint.html#a0edc938ab2c7d12ca9defdf25ab767b8" target="_top" xlink:title=" ">
<polygon fill="white" stroke="#666666" points="161,-30 0,-30 0,0 161,0 161,-30"/>
<text text-anchor="start" x="8" y="-18" font-family="Helvetica,sans-Serif" font-size="10.00">proto::ProtocolNoSysEndpoint</text>
<text text-anchor="middle" x="80.5" y="-7" font-family="Helvetica,sans-Serif" font-size="10.00">::send</text>
</a>
</g>
</g>
<!-- Node8&#45;&gt;Node11 -->
<g id="edge10_Node000008_Node000011" class="edge">
<title>Node8&#45;&gt;Node11</title>
<g id="a_edge10_Node000008_Node000011"><a xlink:title=" ">
<path fill="none" stroke="#63b8ff" d="M214.07,-47.63C191.25,-42.01 165.47,-35.67 142.75,-30.08"/>
<polygon fill="#63b8ff" stroke="#63b8ff" points="213.44,-51.08 223.99,-50.07 215.11,-44.28 213.44,-51.08"/>
</a>
</g>
</g>
</g>
</svg>
