<?xml version="1.0" encoding="UTF-8" standalone="no"?>
<!DOCTYPE svg PUBLIC "-//W3C//DTD SVG 1.1//EN"
 "http://www.w3.org/Graphics/SVG/1.1/DTD/svg11.dtd">
<!-- Generated by graphviz version 14.0.1 (20251006.0113)
 -->
<!-- Title: ProtocolEndpoint.hpp Pages: 1 -->
<svg width="179pt" height="193pt"
 viewBox="0.00 0.00 179.00 193.00" xmlns="http://www.w3.org/2000/svg" xmlns:xlink="http://www.w3.org/1999/xlink">
<g id="graph0" class="graph" transform="scale(1 1) rotate(0) translate(4 189)">
<title>ProtocolEndpoint.hpp</title>
<!-- Node1 -->
<g id="Node000001" class="node">
<title>Node1</title>
<g id="a_Node000001"><a xlink:title="Base endpoint class for protocol implementations.">
<polygon fill="#999999" stroke="#666666" points="109,-185 0,-185 0,-165.75 109,-165.75 109,-185"/>
<text xml:space="preserve" text-anchor="middle" x="54.5" y="-171.5" font-family="Helvetica,sans-Serif" font-size="10.00">ProtocolEndpoint.hpp</text>
</a>
</g>
</g>
<!-- Node2 -->
<g id="Node000002" class="node">
<title>Node2</title>
<g id="a_Node000002"><a xlink:href="../../dc/d95/_lacte_protocol_8hpp.html" target="_top" xlink:title=" ">
<polygon fill="white" stroke="#666666" points="101.88,-74.5 7.12,-74.5 7.12,-55.25 101.88,-55.25 101.88,-74.5"/>
<text xml:space="preserve" text-anchor="middle" x="54.5" y="-61" font-family="Helvetica,sans-Serif" font-size="10.00">LacteProtocol.hpp</text>
</a>
</g>
</g>
<!-- Node1&#45;&gt;Node2 -->
<g id="edge1_Node000001_Node000002" class="edge">
<title>Node1&#45;&gt;Node2</title>
<g id="a_edge1_Node000001_Node000002"><a xlink:title=" ">
<path fill="none" stroke="#63b8ff" d="M39.33,-156.27C33.84,-148.59 28.31,-139.24 25.5,-129.75 19.41,-109.2 35.4,-86.71 45.99,-74.67"/>
<polygon fill="#63b8ff" stroke="#63b8ff" points="36.47,-158.3 45.36,-164.07 42.01,-154.01 36.47,-158.3"/>
</a>
</g>
</g>
<!-- Node4 -->
<g id="Node000004" class="node">
<title>Node4</title>
<g id="a_Node000004"><a xlink:href="../../d8/df0/_lacte_protocol_prototype_8hpp.html" target="_top" xlink:title=" ">
<polygon fill="white" stroke="#666666" points="170.88,-129.75 34.12,-129.75 34.12,-110.5 170.88,-110.5 170.88,-129.75"/>
<text xml:space="preserve" text-anchor="middle" x="102.5" y="-116.25" font-family="Helvetica,sans-Serif" font-size="10.00">LacteProtocolPrototype.hpp</text>
</a>
</g>
</g>
<!-- Node1&#45;&gt;Node4 -->
<g id="edge3_Node000001_Node000004" class="edge">
<title>Node1&#45;&gt;Node4</title>
<g id="a_edge3_Node000001_Node000004"><a xlink:title=" ">
<path fill="none" stroke="#63b8ff" d="M69.9,-157.29C78.05,-148.25 87.72,-137.52 94.4,-130.11"/>
<polygon fill="#63b8ff" stroke="#63b8ff" points="67.54,-154.69 63.44,-164.46 72.73,-159.37 67.54,-154.69"/>
</a>
</g>
</g>
<!-- Node3 -->
<g id="Node000003" class="node">
<title>Node3</title>
<g id="a_Node000003"><a xlink:href="../../db/dc5/_virtual_board_8hpp.html" target="_top" xlink:title=" ">
<polygon fill="white" stroke="#666666" points="98.5,-19.25 10.5,-19.25 10.5,0 98.5,0 98.5,-19.25"/>
<text xml:space="preserve" text-anchor="middle" x="54.5" y="-5.75" font-family="Helvetica,sans-Serif" font-size="10.00">VirtualBoard.hpp</text>
</a>
</g>
</g>
<!-- Node2&#45;&gt;Node3 -->
<g id="edge2_Node000002_Node000003" class="edge">
<title>Node2&#45;&gt;Node3</title>
<g id="a_edge2_Node000002_Node000003"><a xlink:title=" ">
<path fill="none" stroke="#63b8ff" d="M54.5,-43.63C54.5,-35.34 54.5,-26.17 54.5,-19.61"/>
<polygon fill="#63b8ff" stroke="#63b8ff" points="51,-43.57 54.5,-53.57 58,-43.57 51,-43.57"/>
</a>
</g>
</g>
<!-- Node4&#45;&gt;Node2 -->
<g id="edge4_Node000004_Node000002" class="edge">
<title>Node4&#45;&gt;Node2</title>
<g id="a_edge4_Node000004_Node000002"><a xlink:title=" ">
<path fill="none" stroke="#63b8ff" d="M87.1,-102.04C78.95,-93 69.28,-82.27 62.6,-74.86"/>
<polygon fill="#63b8ff" stroke="#63b8ff" points="84.27,-104.12 93.56,-109.21 89.46,-99.44 84.27,-104.12"/>
</a>
</g>
</g>
</g>
</svg>
