<?xml version="1.0" encoding="UTF-8" standalone="no"?>
<!DOCTYPE svg PUBLIC "-//W3C//DTD SVG 1.1//EN"
 "http://www.w3.org/Graphics/SVG/1.1/DTD/svg11.dtd">
<!-- Generated by graphviz version 14.0.1 (20251006.0113)
 -->
<!-- Title: InfoPacketType.hpp Pages: 1 -->
<svg width="773pt" height="138pt"
 viewBox="0.00 0.00 773.00 138.00" xmlns="http://www.w3.org/2000/svg" xmlns:xlink="http://www.w3.org/1999/xlink">
<g id="graph0" class="graph" transform="scale(1 1) rotate(0) translate(4 133.75)">
<title>InfoPacketType.hpp</title>
<!-- Node1 -->
<g id="Node000001" class="node">
<title>Node1</title>
<g id="a_Node000001"><a xlink:title=" ">
<polygon fill="#999999" stroke="#666666" points="407.12,-129.75 304.12,-129.75 304.12,-110.5 407.12,-110.5 407.12,-129.75"/>
<text xml:space="preserve" text-anchor="middle" x="355.62" y="-116.25" font-family="Helvetica,sans-Serif" font-size="10.00">InfoPacketType.hpp</text>
</a>
</g>
</g>
<!-- Node2 -->
<g id="Node000002" class="node">
<title>Node2</title>
<g id="a_Node000002"><a xlink:href="../../dc/dae/_lacte_board_errors_8hpp.html" target="_top" xlink:title=" ">
<polygon fill="white" stroke="#666666" points="410.88,-74.5 300.38,-74.5 300.38,-55.25 410.88,-55.25 410.88,-74.5"/>
<text xml:space="preserve" text-anchor="middle" x="355.62" y="-61" font-family="Helvetica,sans-Serif" font-size="10.00">LacteBoardErrors.hpp</text>
</a>
</g>
</g>
<!-- Node1&#45;&gt;Node2 -->
<g id="edge1_Node000001_Node000002" class="edge">
<title>Node1&#45;&gt;Node2</title>
<g id="a_edge1_Node000001_Node000002"><a xlink:title=" ">
<path fill="none" stroke="#63b8ff" d="M355.62,-110.33C355.62,-103.82 355.62,-94.67 355.62,-86.37"/>
<polygon fill="#63b8ff" stroke="#63b8ff" points="359.13,-86.37 355.63,-76.37 352.13,-86.37 359.13,-86.37"/>
</a>
</g>
</g>
<!-- Node13 -->
<g id="Node000013" class="node">
<title>Node13</title>
<g id="a_Node000013"><a xlink:href="../../d0/d95/_rfid_number_type_8hpp.html" target="_top" xlink:title=" ">
<polygon fill="white" stroke="#666666" points="279.75,-74.5 171.5,-74.5 171.5,-55.25 279.75,-55.25 279.75,-74.5"/>
<text xml:space="preserve" text-anchor="middle" x="225.62" y="-61" font-family="Helvetica,sans-Serif" font-size="10.00">RfidNumberType.hpp</text>
</a>
</g>
</g>
<!-- Node1&#45;&gt;Node13 -->
<g id="edge12_Node000001_Node000013" class="edge">
<title>Node1&#45;&gt;Node13</title>
<g id="a_edge12_Node000001_Node000013"><a xlink:title=" ">
<path fill="none" stroke="#63b8ff" d="M333.57,-110.09C312.94,-101.64 281.84,-88.9 258.32,-79.27"/>
<polygon fill="#63b8ff" stroke="#63b8ff" points="259.77,-76.08 249.19,-75.53 257.11,-82.56 259.77,-76.08"/>
</a>
</g>
</g>
<!-- Node15 -->
<g id="Node000015" class="node">
<title>Node15</title>
<g id="a_Node000015"><a xlink:title=" ">
<polygon fill="#e0e0e0" stroke="#999999" points="484.5,-74.5 428.75,-74.5 428.75,-55.25 484.5,-55.25 484.5,-74.5"/>
<text xml:space="preserve" text-anchor="middle" x="456.62" y="-61" font-family="Helvetica,sans-Serif" font-size="10.00">algorithm</text>
</a>
</g>
</g>
<!-- Node1&#45;&gt;Node15 -->
<g id="edge19_Node000001_Node000015" class="edge">
<title>Node1&#45;&gt;Node15</title>
<g id="a_edge19_Node000001_Node000015"><a xlink:title=" ">
<path fill="none" stroke="#63b8ff" d="M372.76,-110.09C388.28,-101.91 411.43,-89.71 429.47,-80.19"/>
<polygon fill="#63b8ff" stroke="#63b8ff" points="430.86,-83.42 438.07,-75.66 427.59,-77.23 430.86,-83.42"/>
</a>
</g>
</g>
<!-- Node3 -->
<g id="Node000003" class="node">
<title>Node3</title>
<g id="a_Node000003"><a xlink:title=" ">
<polygon fill="#e0e0e0" stroke="#999999" points="184.5,-19.25 146.75,-19.25 146.75,0 184.5,0 184.5,-19.25"/>
<text xml:space="preserve" text-anchor="middle" x="165.62" y="-5.75" font-family="Helvetica,sans-Serif" font-size="10.00">array</text>
</a>
</g>
</g>
<!-- Node2&#45;&gt;Node3 -->
<g id="edge2_Node000002_Node000003" class="edge">
<title>Node2&#45;&gt;Node3</title>
<g id="a_edge2_Node000002_Node000003"><a xlink:title=" ">
<path fill="none" stroke="#63b8ff" d="M321.41,-54.77C290.81,-46.56 244.48,-33.95 195.66,-19.78"/>
<polygon fill="#63b8ff" stroke="#63b8ff" points="196.91,-16.5 186.33,-17.06 194.96,-23.22 196.91,-16.5"/>
</a>
</g>
</g>
<!-- Node4 -->
<g id="Node000004" class="node">
<title>Node4</title>
<g id="a_Node000004"><a xlink:title=" ">
<polygon fill="#e0e0e0" stroke="#999999" points="248.25,-19.25 203,-19.25 203,0 248.25,0 248.25,-19.25"/>
<text xml:space="preserve" text-anchor="middle" x="225.62" y="-5.75" font-family="Helvetica,sans-Serif" font-size="10.00">cstdint</text>
</a>
</g>
</g>
<!-- Node2&#45;&gt;Node4 -->
<g id="edge3_Node000002_Node000004" class="edge">
<title>Node2&#45;&gt;Node4</title>
<g id="a_edge3_Node000002_Node000004"><a xlink:title=" ">
<path fill="none" stroke="#63b8ff" d="M333.57,-54.84C312.94,-46.39 281.84,-33.65 258.32,-24.02"/>
<polygon fill="#63b8ff" stroke="#63b8ff" points="259.77,-20.83 249.19,-20.28 257.11,-27.31 259.77,-20.83"/>
</a>
</g>
</g>
<!-- Node5 -->
<g id="Node000005" class="node">
<title>Node5</title>
<g id="a_Node000005"><a xlink:title=" ">
<polygon fill="#e0e0e0" stroke="#999999" points="627.75,-19.25 555.5,-19.25 555.5,0 627.75,0 627.75,-19.25"/>
<text xml:space="preserve" text-anchor="middle" x="591.62" y="-5.75" font-family="Helvetica,sans-Serif" font-size="10.00">initializer_list</text>
</a>
</g>
</g>
<!-- Node2&#45;&gt;Node5 -->
<g id="edge4_Node000002_Node000005" class="edge">
<title>Node2&#45;&gt;Node5</title>
<g id="a_edge4_Node000002_Node000005"><a xlink:title=" ">
<path fill="none" stroke="#63b8ff" d="M395.93,-54.78C437.02,-45.51 500.73,-31.13 544.22,-21.32"/>
<polygon fill="#63b8ff" stroke="#63b8ff" points="544.9,-24.76 553.89,-19.14 543.36,-17.93 544.9,-24.76"/>
</a>
</g>
</g>
<!-- Node6 -->
<g id="Node000006" class="node">
<title>Node6</title>
<g id="a_Node000006"><a xlink:title=" ">
<polygon fill="#e0e0e0" stroke="#999999" points="695.5,-19.25 645.75,-19.25 645.75,0 695.5,0 695.5,-19.25"/>
<text xml:space="preserve" text-anchor="middle" x="670.62" y="-5.75" font-family="Helvetica,sans-Serif" font-size="10.00">optional</text>
</a>
</g>
</g>
<!-- Node2&#45;&gt;Node6 -->
<g id="edge5_Node000002_Node000006" class="edge">
<title>Node2&#45;&gt;Node6</title>
<g id="a_edge5_Node000002_Node000006"><a xlink:title=" ">
<path fill="none" stroke="#63b8ff" d="M411.29,-55.65C475.77,-46.02 579.26,-30.24 634.17,-19.55"/>
<polygon fill="#63b8ff" stroke="#63b8ff" points="634.84,-22.99 643.95,-17.59 633.46,-16.13 634.84,-22.99"/>
</a>
</g>
</g>
<!-- Node7 -->
<g id="Node000007" class="node">
<title>Node7</title>
<g id="a_Node000007"><a xlink:title=" ">
<polygon fill="#e0e0e0" stroke="#999999" points="765.25,-19.25 714,-19.25 714,0 765.25,0 765.25,-19.25"/>
<text xml:space="preserve" text-anchor="middle" x="739.62" y="-5.75" font-family="Helvetica,sans-Serif" font-size="10.00">ostream</text>
</a>
</g>
</g>
<!-- Node2&#45;&gt;Node7 -->
<g id="edge6_Node000002_Node000007" class="edge">
<title>Node2&#45;&gt;Node7</title>
<g id="a_edge6_Node000002_Node000007"><a xlink:title=" ">
<path fill="none" stroke="#63b8ff" d="M411.12,-56.37C414,-55.99 416.85,-55.61 419.62,-55.25 542.64,-39.19 577.16,-42.36 702.51,-19.44"/>
<polygon fill="#63b8ff" stroke="#63b8ff" points="703.02,-22.9 712.22,-17.64 701.75,-16.02 703.02,-22.9"/>
</a>
</g>
</g>
<!-- Node8 -->
<g id="Node000008" class="node">
<title>Node8</title>
<g id="a_Node000008"><a xlink:title=" ">
<polygon fill="#e0e0e0" stroke="#999999" points="317.25,-19.25 266,-19.25 266,0 317.25,0 317.25,-19.25"/>
<text xml:space="preserve" text-anchor="middle" x="291.62" y="-5.75" font-family="Helvetica,sans-Serif" font-size="10.00">sstream</text>
</a>
</g>
</g>
<!-- Node2&#45;&gt;Node8 -->
<g id="edge7_Node000002_Node000008" class="edge">
<title>Node2&#45;&gt;Node8</title>
<g id="a_edge7_Node000002_Node000008"><a xlink:title=" ">
<path fill="none" stroke="#63b8ff" d="M344.77,-54.84C335.52,-47.15 322,-35.9 310.92,-26.68"/>
<polygon fill="#63b8ff" stroke="#63b8ff" points="313.41,-24.2 303.48,-20.49 308.93,-29.58 313.41,-24.2"/>
</a>
</g>
</g>
<!-- Node9 -->
<g id="Node000009" class="node">
<title>Node9</title>
<g id="a_Node000009"><a xlink:title=" ">
<polygon fill="#e0e0e0" stroke="#999999" points="375.62,-19.25 335.62,-19.25 335.62,0 375.62,0 375.62,-19.25"/>
<text xml:space="preserve" text-anchor="middle" x="355.62" y="-5.75" font-family="Helvetica,sans-Serif" font-size="10.00">string</text>
</a>
</g>
</g>
<!-- Node2&#45;&gt;Node9 -->
<g id="edge8_Node000002_Node000009" class="edge">
<title>Node2&#45;&gt;Node9</title>
<g id="a_edge8_Node000002_Node000009"><a xlink:title=" ">
<path fill="none" stroke="#63b8ff" d="M355.62,-55.08C355.62,-48.57 355.62,-39.42 355.62,-31.12"/>
<polygon fill="#63b8ff" stroke="#63b8ff" points="359.13,-31.12 355.63,-21.12 352.13,-31.12 359.13,-31.12"/>
</a>
</g>
</g>
<!-- Node10 -->
<g id="Node000010" class="node">
<title>Node10</title>
<g id="a_Node000010"><a xlink:title=" ">
<polygon fill="#e0e0e0" stroke="#999999" points="128.38,-19.25 62.88,-19.25 62.88,0 128.38,0 128.38,-19.25"/>
<text xml:space="preserve" text-anchor="middle" x="95.62" y="-5.75" font-family="Helvetica,sans-Serif" font-size="10.00">string_view</text>
</a>
</g>
</g>
<!-- Node2&#45;&gt;Node10 -->
<g id="edge9_Node000002_Node000010" class="edge">
<title>Node2&#45;&gt;Node10</title>
<g id="a_edge9_Node000002_Node000010"><a xlink:title=" ">
<path fill="none" stroke="#63b8ff" d="M311.37,-54.82C269.64,-46.29 205.06,-33.07 139.58,-19.65"/>
<polygon fill="#63b8ff" stroke="#63b8ff" points="140.62,-16.29 130.12,-17.71 139.22,-23.15 140.62,-16.29"/>
</a>
</g>
</g>
<!-- Node11 -->
<g id="Node000011" class="node">
<title>Node11</title>
<g id="a_Node000011"><a xlink:title=" ">
<polygon fill="#e0e0e0" stroke="#999999" points="476,-19.25 393.25,-19.25 393.25,0 476,0 476,-19.25"/>
<text xml:space="preserve" text-anchor="middle" x="434.62" y="-5.75" font-family="Helvetica,sans-Serif" font-size="10.00">unordered_map</text>
</a>
</g>
</g>
<!-- Node2&#45;&gt;Node11 -->
<g id="edge10_Node000002_Node000011" class="edge">
<title>Node2&#45;&gt;Node11</title>
<g id="a_edge10_Node000002_Node000011"><a xlink:title=" ">
<path fill="none" stroke="#63b8ff" d="M369.03,-54.84C380.72,-46.96 397.93,-35.36 411.79,-26.02"/>
<polygon fill="#63b8ff" stroke="#63b8ff" points="413.57,-29.04 419.9,-20.55 409.65,-23.24 413.57,-29.04"/>
</a>
</g>
</g>
<!-- Node12 -->
<g id="Node000012" class="node">
<title>Node12</title>
<g id="a_Node000012"><a xlink:title=" ">
<polygon fill="#e0e0e0" stroke="#999999" points="537.12,-19.25 494.12,-19.25 494.12,0 537.12,0 537.12,-19.25"/>
<text xml:space="preserve" text-anchor="middle" x="515.62" y="-5.75" font-family="Helvetica,sans-Serif" font-size="10.00">vector</text>
</a>
</g>
</g>
<!-- Node2&#45;&gt;Node12 -->
<g id="edge11_Node000002_Node000012" class="edge">
<title>Node2&#45;&gt;Node12</title>
<g id="a_edge11_Node000002_Node000012"><a xlink:title=" ">
<path fill="none" stroke="#63b8ff" d="M382.77,-54.84C410.6,-45.58 453.87,-31.18 483.41,-21.35"/>
<polygon fill="#63b8ff" stroke="#63b8ff" points="484.19,-24.78 492.57,-18.3 481.98,-18.14 484.19,-24.78"/>
</a>
</g>
</g>
<!-- Node13&#45;&gt;Node3 -->
<g id="edge13_Node000013_Node000003" class="edge">
<title>Node13&#45;&gt;Node3</title>
<g id="a_edge13_Node000013_Node000003"><a xlink:title=" ">
<path fill="none" stroke="#63b8ff" d="M215.45,-54.84C206.86,-47.22 194.36,-36.12 184.02,-26.95"/>
<polygon fill="#63b8ff" stroke="#63b8ff" points="186.59,-24.55 176.78,-20.53 181.94,-29.79 186.59,-24.55"/>
</a>
</g>
</g>
<!-- Node13&#45;&gt;Node4 -->
<g id="edge14_Node000013_Node000004" class="edge">
<title>Node13&#45;&gt;Node4</title>
<g id="a_edge14_Node000013_Node000004"><a xlink:title=" ">
<path fill="none" stroke="#63b8ff" d="M225.62,-55.08C225.62,-48.57 225.62,-39.42 225.62,-31.12"/>
<polygon fill="#63b8ff" stroke="#63b8ff" points="229.13,-31.12 225.63,-21.12 222.13,-31.12 229.13,-31.12"/>
</a>
</g>
</g>
<!-- Node13&#45;&gt;Node8 -->
<g id="edge16_Node000013_Node000008" class="edge">
<title>Node13&#45;&gt;Node8</title>
<g id="a_edge16_Node000013_Node000008"><a xlink:title=" ">
<path fill="none" stroke="#63b8ff" d="M236.82,-54.84C246.36,-47.15 260.3,-35.9 271.73,-26.68"/>
<polygon fill="#63b8ff" stroke="#63b8ff" points="273.83,-29.48 279.42,-20.48 269.44,-24.03 273.83,-29.48"/>
</a>
</g>
</g>
<!-- Node13&#45;&gt;Node9 -->
<g id="edge17_Node000013_Node000009" class="edge">
<title>Node13&#45;&gt;Node9</title>
<g id="a_edge17_Node000013_Node000009"><a xlink:title=" ">
<path fill="none" stroke="#63b8ff" d="M247.68,-54.84C268.82,-46.18 300.92,-33.03 324.63,-23.32"/>
<polygon fill="#63b8ff" stroke="#63b8ff" points="325.85,-26.6 333.78,-19.57 323.2,-20.12 325.85,-26.6"/>
</a>
</g>
</g>
<!-- Node13&#45;&gt;Node10 -->
<g id="edge18_Node000013_Node000010" class="edge">
<title>Node13&#45;&gt;Node10</title>
<g id="a_edge18_Node000013_Node000010"><a xlink:title=" ">
<path fill="none" stroke="#63b8ff" d="M203.57,-54.84C182.94,-46.39 151.84,-33.65 128.32,-24.02"/>
<polygon fill="#63b8ff" stroke="#63b8ff" points="129.77,-20.83 119.19,-20.28 127.11,-27.31 129.77,-20.83"/>
</a>
</g>
</g>
<!-- Node14 -->
<g id="Node000014" class="node">
<title>Node14</title>
<g id="a_Node000014"><a xlink:title=" ">
<polygon fill="#e0e0e0" stroke="#999999" points="45.25,-19.25 0,-19.25 0,0 45.25,0 45.25,-19.25"/>
<text xml:space="preserve" text-anchor="middle" x="22.62" y="-5.75" font-family="Helvetica,sans-Serif" font-size="10.00">cstring</text>
</a>
</g>
</g>
<!-- Node13&#45;&gt;Node14 -->
<g id="edge15_Node000013_Node000014" class="edge">
<title>Node13&#45;&gt;Node14</title>
<g id="a_edge15_Node000013_Node000014"><a xlink:title=" ">
<path fill="none" stroke="#63b8ff" d="M190,-54.83C157.49,-46.53 107.85,-33.74 56.59,-20.02"/>
<polygon fill="#63b8ff" stroke="#63b8ff" points="57.66,-16.68 47.1,-17.47 55.85,-23.44 57.66,-16.68"/>
</a>
</g>
</g>
</g>
</svg>
