<?xml version="1.0" encoding="UTF-8" standalone="no"?>
<!DOCTYPE svg PUBLIC "-//W3C//DTD SVG 1.1//EN"
 "http://www.w3.org/Graphics/SVG/1.1/DTD/svg11.dtd">
<!-- Generated by graphviz version 14.0.1 (20251006.0113)
 -->
<!-- Title: proto::lacte::UsageTime::UsageTime Pages: 1 -->
<svg width="286pt" height="186pt"
 viewBox="0.00 0.00 286.00 186.00" xmlns="http://www.w3.org/2000/svg" xmlns:xlink="http://www.w3.org/1999/xlink">

<svg id="main" version="1.1" xmlns="http://www.w3.org/2000/svg" xmlns:xlink="http://www.w3.org/1999/xlink" xml:space="preserve">

<style type="text/css"><![CDATA[
.node, .edge {opacity: 0.7;}
.node.selected, .edge.selected {opacity: 1;}
.edge:hover path { stroke: red; }
.edge:hover polygon { stroke: red; fill: red; }
]]></style>
<script type="application/ecmascript" xlink:href="../../svg.min.js"/>
<svg id="graph" class="graph">
<g id="graph0" class="graph" transform="scale(1 1) rotate(0) translate(4 181.5)">
<title>proto::lacte::UsageTime::UsageTime</title>
<!-- Node1 -->
<g id="Node000001" class="node">
<title>Node1</title>
<g id="a_Node000001"><a xlink:title=" ">
<polygon fill="#999999" stroke="#666666" points="278,-103.5 157,-103.5 157,-73 278,-73 278,-103.5"/>
<text xml:space="preserve" text-anchor="start" x="165" y="-90" font-family="Helvetica,sans-Serif" font-size="10.00">proto::lacte::UsageTime</text>
<text xml:space="preserve" text-anchor="middle" x="217.5" y="-78.75" font-family="Helvetica,sans-Serif" font-size="10.00">::UsageTime</text>
</a>
</g>
</g>
<!-- Node2 -->
<g id="Node000002" class="node">
<title>Node2</title>
<g id="a_Node000002"><a xlink:href="../../d1/d60/structproto_1_1lacte_1_1_usage_time.html#acf0cb037d93a85efd801d18d27ecdeb6" target="_top" xlink:title=" ">
<polygon fill="white" stroke="#666666" points="121,-177.5 0,-177.5 0,-147 121,-147 121,-177.5"/>
<text xml:space="preserve" text-anchor="start" x="8" y="-164" font-family="Helvetica,sans-Serif" font-size="10.00">proto::lacte::UsageTime</text>
<text xml:space="preserve" text-anchor="middle" x="60.5" y="-152.75" font-family="Helvetica,sans-Serif" font-size="10.00">::operator!=</text>
</a>
</g>
</g>
<!-- Node1&#45;&gt;Node2 -->
<g id="edge1_Node000001_Node000002" class="edge">
<title>Node1&#45;&gt;Node2</title>
<g id="a_edge1_Node000001_Node000002"><a xlink:title=" ">
<path fill="none" stroke="#63b8ff" d="M177.81,-108.95C160.57,-117.95 139.92,-128.44 121,-137.25 114.3,-140.37 107.09,-143.55 100.1,-146.54"/>
<polygon fill="#63b8ff" stroke="#63b8ff" points="178.96,-112.3 186.19,-104.55 175.71,-106.1 178.96,-112.3"/>
</a>
</g>
</g>
<!-- Node3 -->
<g id="Node000003" class="node">
<title>Node3</title>
<g id="a_Node000003"><a xlink:href="../../d1/d60/structproto_1_1lacte_1_1_usage_time.html#ab0dea88632bde34950f191816aebf3e5" target="_top" xlink:title=" ">
<polygon fill="white" stroke="#666666" points="121,-128.5 0,-128.5 0,-98 121,-98 121,-128.5"/>
<text xml:space="preserve" text-anchor="start" x="8" y="-115" font-family="Helvetica,sans-Serif" font-size="10.00">proto::lacte::UsageTime</text>
<text xml:space="preserve" text-anchor="middle" x="60.5" y="-103.75" font-family="Helvetica,sans-Serif" font-size="10.00">::operator&lt;&lt;</text>
</a>
</g>
</g>
<!-- Node1&#45;&gt;Node3 -->
<g id="edge2_Node000001_Node000003" class="edge">
<title>Node1&#45;&gt;Node3</title>
<g id="a_edge2_Node000001_Node000003"><a xlink:title=" ">
<path fill="none" stroke="#63b8ff" d="M145.31,-99.73C137.27,-101.03 129.14,-102.34 121.27,-103.61"/>
<polygon fill="#63b8ff" stroke="#63b8ff" points="145.76,-103.2 155.08,-98.16 144.65,-96.29 145.76,-103.2"/>
</a>
</g>
</g>
<!-- Node4 -->
<g id="Node000004" class="node">
<title>Node4</title>
<g id="a_Node000004"><a xlink:href="../../d1/d60/structproto_1_1lacte_1_1_usage_time.html#a7fce016ebd4bbaece58f2ce826513701" target="_top" xlink:title=" ">
<polygon fill="white" stroke="#666666" points="121,-79.5 0,-79.5 0,-49 121,-49 121,-79.5"/>
<text xml:space="preserve" text-anchor="start" x="8" y="-66" font-family="Helvetica,sans-Serif" font-size="10.00">proto::lacte::UsageTime</text>
<text xml:space="preserve" text-anchor="middle" x="60.5" y="-54.75" font-family="Helvetica,sans-Serif" font-size="10.00">::operator==</text>
</a>
</g>
</g>
<!-- Node1&#45;&gt;Node4 -->
<g id="edge3_Node000001_Node000004" class="edge">
<title>Node1&#45;&gt;Node4</title>
<g id="a_edge3_Node000001_Node000004"><a xlink:title=" ">
<path fill="none" stroke="#63b8ff" d="M145.31,-77.23C137.27,-75.98 129.14,-74.72 121.27,-73.5"/>
<polygon fill="#63b8ff" stroke="#63b8ff" points="144.66,-80.67 155.08,-78.74 145.73,-73.75 144.66,-80.67"/>
</a>
</g>
</g>
<!-- Node5 -->
<g id="Node000005" class="node">
<title>Node5</title>
<g id="a_Node000005"><a xlink:href="../../d1/d60/structproto_1_1lacte_1_1_usage_time.html#aedb458d62fc1c249747ee715a897379b" target="_top" xlink:title=" ">
<polygon fill="white" stroke="#666666" points="121,-30.5 0,-30.5 0,0 121,0 121,-30.5"/>
<text xml:space="preserve" text-anchor="start" x="8" y="-17" font-family="Helvetica,sans-Serif" font-size="10.00">proto::lacte::UsageTime</text>
<text xml:space="preserve" text-anchor="middle" x="60.5" y="-5.75" font-family="Helvetica,sans-Serif" font-size="10.00">::UsageTime</text>
</a>
</g>
</g>
<!-- Node1&#45;&gt;Node5 -->
<g id="edge4_Node000001_Node000005" class="edge">
<title>Node1&#45;&gt;Node5</title>
<g id="a_edge4_Node000001_Node000005"><a xlink:title=" ">
<path fill="none" stroke="#63b8ff" d="M176.51,-67.39C159.53,-58.73 139.42,-48.74 121,-40.25 114.18,-37.11 106.86,-33.9 99.76,-30.87"/>
<polygon fill="#63b8ff" stroke="#63b8ff" points="174.8,-70.45 185.3,-71.9 178,-64.22 174.8,-70.45"/>
</a>
</g>
</g>
</g>
</svg>
</svg>

<style type='text/css'>
<![CDATA[
[data-mouse-over-selected='false'] { opacity: 0.7; }
[data-mouse-over-selected='true']  { opacity: 1.0; }
]]>
</style>
<script type="application/ecmascript"><![CDATA[
document.addEventListener('DOMContentLoaded', (event) => {
  highlightEdges();
  highlightAdjacentNodes();
});
]]></script>
</svg>
