<?xml version="1.0" encoding="UTF-8" standalone="no"?>
<!DOCTYPE svg PUBLIC "-//W3C//DTD SVG 1.1//EN"
 "http://www.w3.org/Graphics/SVG/1.1/DTD/svg11.dtd">
<!-- Generated by graphviz version 14.0.1 (20251006.0113)
 -->
<!-- Title: UniqueVariant.hpp Pages: 1 -->
<svg width="316pt" height="83pt"
 viewBox="0.00 0.00 316.00 83.00" xmlns="http://www.w3.org/2000/svg" xmlns:xlink="http://www.w3.org/1999/xlink">
<g id="graph0" class="graph" transform="scale(1 1) rotate(0) translate(4 78.5)">
<title>UniqueVariant.hpp</title>
<!-- Node1 -->
<g id="Node000001" class="node">
<title>Node1</title>
<g id="a_Node000001"><a xlink:title=" ">
<polygon fill="#999999" stroke="#666666" points="199.88,-74.5 104.38,-74.5 104.38,-55.25 199.88,-55.25 199.88,-74.5"/>
<text xml:space="preserve" text-anchor="middle" x="152.12" y="-61" font-family="Helvetica,sans-Serif" font-size="10.00">UniqueVariant.hpp</text>
</a>
</g>
</g>
<!-- Node2 -->
<g id="Node000002" class="node">
<title>Node2</title>
<g id="a_Node000002"><a xlink:title=" ">
<polygon fill="#e0e0e0" stroke="#999999" points="48.25,-19.25 0,-19.25 0,0 48.25,0 48.25,-19.25"/>
<text xml:space="preserve" text-anchor="middle" x="24.12" y="-5.75" font-family="Helvetica,sans-Serif" font-size="10.00">cstddef</text>
</a>
</g>
</g>
<!-- Node1&#45;&gt;Node2 -->
<g id="edge1_Node000001_Node000002" class="edge">
<title>Node1&#45;&gt;Node2</title>
<g id="a_edge1_Node000001_Node000002"><a xlink:title=" ">
<path fill="none" stroke="#63b8ff" d="M130.41,-54.84C110.09,-46.39 79.48,-33.65 56.32,-24.02"/>
<polygon fill="#63b8ff" stroke="#63b8ff" points="57.92,-20.89 47.34,-20.28 55.23,-27.36 57.92,-20.89"/>
</a>
</g>
</g>
<!-- Node3 -->
<g id="Node000003" class="node">
<title>Node3</title>
<g id="a_Node000003"><a xlink:title=" ">
<polygon fill="#e0e0e0" stroke="#999999" points="103.62,-19.25 66.62,-19.25 66.62,0 103.62,0 103.62,-19.25"/>
<text xml:space="preserve" text-anchor="middle" x="85.12" y="-5.75" font-family="Helvetica,sans-Serif" font-size="10.00">tuple</text>
</a>
</g>
</g>
<!-- Node1&#45;&gt;Node3 -->
<g id="edge2_Node000001_Node000003" class="edge">
<title>Node1&#45;&gt;Node3</title>
<g id="a_edge2_Node000001_Node000003"><a xlink:title=" ">
<path fill="none" stroke="#63b8ff" d="M140.76,-54.84C131.08,-47.15 116.93,-35.9 105.32,-26.68"/>
<polygon fill="#63b8ff" stroke="#63b8ff" points="107.51,-23.95 97.51,-20.47 103.16,-29.43 107.51,-23.95"/>
</a>
</g>
</g>
<!-- Node4 -->
<g id="Node000004" class="node">
<title>Node4</title>
<g id="a_Node000004"><a xlink:title=" ">
<polygon fill="#e0e0e0" stroke="#999999" points="183,-19.25 121.25,-19.25 121.25,0 183,0 183,-19.25"/>
<text xml:space="preserve" text-anchor="middle" x="152.12" y="-5.75" font-family="Helvetica,sans-Serif" font-size="10.00">type_traits</text>
</a>
</g>
</g>
<!-- Node1&#45;&gt;Node4 -->
<g id="edge3_Node000001_Node000004" class="edge">
<title>Node1&#45;&gt;Node4</title>
<g id="a_edge3_Node000001_Node000004"><a xlink:title=" ">
<path fill="none" stroke="#63b8ff" d="M152.12,-55.08C152.12,-48.57 152.12,-39.42 152.12,-31.12"/>
<polygon fill="#63b8ff" stroke="#63b8ff" points="155.63,-31.12 152.13,-21.12 148.63,-31.12 155.63,-31.12"/>
</a>
</g>
</g>
<!-- Node5 -->
<g id="Node000005" class="node">
<title>Node5</title>
<g id="a_Node000005"><a xlink:title=" ">
<polygon fill="#e0e0e0" stroke="#999999" points="246.75,-19.25 201.5,-19.25 201.5,0 246.75,0 246.75,-19.25"/>
<text xml:space="preserve" text-anchor="middle" x="224.12" y="-5.75" font-family="Helvetica,sans-Serif" font-size="10.00">variant</text>
</a>
</g>
</g>
<!-- Node1&#45;&gt;Node5 -->
<g id="edge4_Node000001_Node000005" class="edge">
<title>Node1&#45;&gt;Node5</title>
<g id="a_edge4_Node000001_Node000005"><a xlink:title=" ">
<path fill="none" stroke="#63b8ff" d="M164.34,-54.84C174.95,-46.99 190.56,-35.45 203.17,-26.12"/>
<polygon fill="#63b8ff" stroke="#63b8ff" points="204.92,-29.19 210.87,-20.42 200.75,-23.56 204.92,-29.19"/>
</a>
</g>
</g>
<!-- Node6 -->
<g id="Node000006" class="node">
<title>Node6</title>
<g id="a_Node000006"><a xlink:title=" ">
<polygon fill="#e0e0e0" stroke="#999999" points="307.62,-19.25 264.62,-19.25 264.62,0 307.62,0 307.62,-19.25"/>
<text xml:space="preserve" text-anchor="middle" x="286.12" y="-5.75" font-family="Helvetica,sans-Serif" font-size="10.00">vector</text>
</a>
</g>
</g>
<!-- Node1&#45;&gt;Node6 -->
<g id="edge5_Node000001_Node000006" class="edge">
<title>Node1&#45;&gt;Node6</title>
<g id="a_edge5_Node000001_Node000006"><a xlink:title=" ">
<path fill="none" stroke="#63b8ff" d="M174.86,-54.84C196.48,-46.25 229.25,-33.23 253.63,-23.54"/>
<polygon fill="#63b8ff" stroke="#63b8ff" points="254.77,-26.85 262.77,-19.91 252.18,-20.35 254.77,-26.85"/>
</a>
</g>
</g>
</g>
</svg>
