<?xml version="1.0" encoding="UTF-8" standalone="no"?>
<!DOCTYPE svg PUBLIC "-//W3C//DTD SVG 1.1//EN"
 "http://www.w3.org/Graphics/SVG/1.1/DTD/svg11.dtd">
<!-- Generated by graphviz version 2.43.0 (0)
 -->
<!-- Title: proto::lacte::RFIDDataPacketType Pages: 1 -->
<svg width="473pt" height="439pt"
 viewBox="0.00 0.00 473.00 438.50" xmlns="http://www.w3.org/2000/svg" xmlns:xlink="http://www.w3.org/1999/xlink">

<svg id="main" version="1.1" xmlns="http://www.w3.org/2000/svg" xmlns:xlink="http://www.w3.org/1999/xlink" xml:space="preserve" onload="init(evt)">
<style type="text/css"><![CDATA[
.node, .edge {opacity: 0.7;}
.node.selected, .edge.selected {opacity: 1;}
.edge:hover path { stroke: red; }
.edge:hover polygon { stroke: red; fill: red; }
]]></style>
<script type="application/ecmascript" xlink:href="../../svg.min.js"/>
<svg id="graph" class="graph">
<g id="graph0" class="graph" transform="scale(1 1) rotate(0) translate(4 434.5)">
<title>proto::lacte::RFIDDataPacketType</title>
<!-- Node1 -->
<g id="Node000001" class="node">
<title>Node1</title>
<g id="a_Node000001"><a xlink:title=" ">
<polygon fill="#999999" stroke="#666666" points="465,-222 286,-222 286,-203 465,-203 465,-222"/>
<text text-anchor="middle" x="375.5" y="-210" font-family="Helvetica,sans-Serif" font-size="10.00">proto::lacte::RFIDDataPacketType</text>
</a>
</g>
</g>
<!-- Node2 -->
<g id="Node000002" class="node">
<title>Node2</title>
<g id="a_Node000002"><a xlink:href="../../d6/dbf/structproto_1_1lacte_1_1MagicWord.html" target="_top" xlink:title=" ">
<polygon fill="white" stroke="#666666" points="145,-426 13,-426 13,-407 145,-407 145,-426"/>
<text text-anchor="middle" x="79" y="-414" font-family="Helvetica,sans-Serif" font-size="10.00">proto::lacte::MagicWord</text>
</a>
</g>
</g>
<!-- Node2&#45;&gt;Node1 -->
<g id="edge1_Node000001_Node000002" class="edge">
<title>Node2&#45;&gt;Node1</title>
<g id="a_edge1_Node000001_Node000002"><a xlink:title=" ">
<path fill="none" stroke="#9a32cd" stroke-dasharray="5,2" d="M155.53,-421.23C192.16,-420.03 235.21,-413.13 268,-391.5 332.29,-349.09 363.33,-253.33 371.94,-222.36"/>
<polygon fill="#9a32cd" stroke="#9a32cd" points="155.32,-417.73 145.39,-421.43 155.45,-424.73 155.32,-417.73"/>
</a>
</g>
<text text-anchor="middle" x="222" y="-422.5" font-family="Helvetica,sans-Serif" font-size="10.00" fill="grey"> m_magicWord</text>
</g>
<!-- Node3 -->
<g id="Node000003" class="node">
<title>Node3</title>
<g id="a_Node000003"><a xlink:href="../../d3/dec/structproto_1_1lacte_1_1LacteId.html" target="_top" xlink:title=" ">
<polygon fill="white" stroke="#666666" points="135.5,-389 22.5,-389 22.5,-370 135.5,-370 135.5,-389"/>
<text text-anchor="middle" x="79" y="-377" font-family="Helvetica,sans-Serif" font-size="10.00">proto::lacte::LacteId</text>
</a>
</g>
</g>
<!-- Node3&#45;&gt;Node1 -->
<g id="edge2_Node000001_Node000003" class="edge">
<title>Node3&#45;&gt;Node1</title>
<g id="a_edge2_Node000001_Node000003"><a xlink:title=" ">
<path fill="none" stroke="#9a32cd" stroke-dasharray="5,2" d="M146.3,-380.21C184.26,-377.89 231.45,-370.16 268,-348.5 321.41,-316.85 358.08,-247.47 370.16,-222.06"/>
<polygon fill="#9a32cd" stroke="#9a32cd" points="145.67,-376.74 135.86,-380.73 146.02,-383.73 145.67,-376.74"/>
</a>
</g>
<text text-anchor="middle" x="222" y="-379.5" font-family="Helvetica,sans-Serif" font-size="10.00" fill="grey"> m_lacteId</text>
</g>
<!-- Node4 -->
<g id="Node000004" class="node">
<title>Node4</title>
<g id="a_Node000004"><a xlink:href="../../db/daa/structproto_1_1lacte_1_1LacteSn.html" target="_top" xlink:title=" ">
<polygon fill="white" stroke="#666666" points="137,-352 21,-352 21,-333 137,-333 137,-352"/>
<text text-anchor="middle" x="79" y="-340" font-family="Helvetica,sans-Serif" font-size="10.00">proto::lacte::LacteSn</text>
</a>
</g>
</g>
<!-- Node4&#45;&gt;Node1 -->
<g id="edge3_Node000001_Node000004" class="edge">
<title>Node4&#45;&gt;Node1</title>
<g id="a_edge3_Node000001_Node000004"><a xlink:title=" ">
<path fill="none" stroke="#9a32cd" stroke-dasharray="5,2" d="M147.43,-338.82C184.55,-334.65 230.54,-325.88 268,-307.5 311.6,-286.11 350.86,-241.78 366.88,-222.18"/>
<polygon fill="#9a32cd" stroke="#9a32cd" points="146.8,-335.36 137.21,-339.87 147.52,-342.33 146.8,-335.36"/>
</a>
</g>
<text text-anchor="middle" x="222" y="-336.5" font-family="Helvetica,sans-Serif" font-size="10.00" fill="grey"> m_lacteSn</text>
</g>
<!-- Node5 -->
<g id="Node000005" class="node">
<title>Node5</title>
<g id="a_Node000005"><a xlink:href="../../d2/da1/structproto_1_1lacte_1_1ProductVolume.html" target="_top" xlink:title=" ">
<polygon fill="white" stroke="#666666" points="155,-315 3,-315 3,-296 155,-296 155,-315"/>
<text text-anchor="middle" x="79" y="-303" font-family="Helvetica,sans-Serif" font-size="10.00">proto::lacte::ProductVolume</text>
</a>
</g>
</g>
<!-- Node5&#45;&gt;Node1 -->
<g id="edge4_Node000001_Node000005" class="edge">
<title>Node5&#45;&gt;Node1</title>
<g id="a_edge4_Node000001_Node000005"><a xlink:title=" ">
<path fill="none" stroke="#9a32cd" stroke-dasharray="5,2" d="M165.04,-294.8C197.8,-289.24 235.21,-281.11 268,-269.5 302.79,-257.18 340.08,-234.86 359.99,-222.11"/>
<polygon fill="#9a32cd" stroke="#9a32cd" points="164.33,-291.37 155.03,-296.45 165.47,-298.28 164.33,-291.37"/>
</a>
</g>
<text text-anchor="middle" x="222" y="-295.5" font-family="Helvetica,sans-Serif" font-size="10.00" fill="grey"> m_productVolume</text>
</g>
<!-- Node6 -->
<g id="Node000006" class="node">
<title>Node6</title>
<g id="a_Node000006"><a xlink:href="../../dc/d74/structproto_1_1lacte_1_1ProdDate.html" target="_top" xlink:title=" ">
<polygon fill="white" stroke="#666666" points="140.5,-278 17.5,-278 17.5,-259 140.5,-259 140.5,-278"/>
<text text-anchor="middle" x="79" y="-266" font-family="Helvetica,sans-Serif" font-size="10.00">proto::lacte::ProdDate</text>
</a>
</g>
</g>
<!-- Node6&#45;&gt;Node1 -->
<g id="edge5_Node000001_Node000006" class="edge">
<title>Node6&#45;&gt;Node1</title>
<g id="a_edge5_Node000001_Node000006"><a xlink:title=" ">
<path fill="none" stroke="#9a32cd" stroke-dasharray="5,2" d="M151.01,-259.17C186.32,-254.12 229.56,-247.32 268,-239.5 292.3,-234.56 319.38,-227.67 340.16,-222.09"/>
<polygon fill="#9a32cd" stroke="#9a32cd" points="150.21,-255.75 140.8,-260.62 151.19,-262.68 150.21,-255.75"/>
</a>
</g>
<text text-anchor="middle" x="222" y="-257.5" font-family="Helvetica,sans-Serif" font-size="10.00" fill="grey"> m_prodDate</text>
</g>
<!-- Node7 -->
<g id="Node000007" class="node">
<title>Node7</title>
<g id="a_Node000007"><a xlink:href="../../d1/df0/structproto_1_1lacte_1_1ProductShelfLife.html" target="_top" xlink:title=" ">
<polygon fill="white" stroke="#666666" points="158,-241 0,-241 0,-222 158,-222 158,-241"/>
<text text-anchor="middle" x="79" y="-229" font-family="Helvetica,sans-Serif" font-size="10.00">proto::lacte::ProductShelfLife</text>
</a>
</g>
</g>
<!-- Node7&#45;&gt;Node1 -->
<g id="edge6_Node000001_Node000007" class="edge">
<title>Node7&#45;&gt;Node1</title>
<g id="a_edge6_Node000001_Node000007"><a xlink:title=" ">
<path fill="none" stroke="#9a32cd" stroke-dasharray="5,2" d="M168.45,-225.79C205.58,-223.4 248.68,-220.62 285.83,-218.22"/>
<polygon fill="#9a32cd" stroke="#9a32cd" points="167.9,-222.32 158.15,-226.46 168.35,-229.31 167.9,-222.32"/>
</a>
</g>
<text text-anchor="middle" x="222" y="-227.5" font-family="Helvetica,sans-Serif" font-size="10.00" fill="grey"> m_shelfLife</text>
</g>
<!-- Node8 -->
<g id="Node000008" class="node">
<title>Node8</title>
<g id="a_Node000008"><a xlink:href="../../d9/d77/structproto_1_1lacte_1_1UsageTime.html" target="_top" xlink:title=" ">
<polygon fill="white" stroke="#666666" points="146,-204 12,-204 12,-185 146,-185 146,-204"/>
<text text-anchor="middle" x="79" y="-192" font-family="Helvetica,sans-Serif" font-size="10.00">proto::lacte::UsageTime</text>
</a>
</g>
</g>
<!-- Node8&#45;&gt;Node1 -->
<g id="edge7_Node000001_Node000008" class="edge">
<title>Node8&#45;&gt;Node1</title>
<g id="a_edge7_Node000001_Node000008"><a xlink:title=" ">
<path fill="none" stroke="#9a32cd" stroke-dasharray="5,2" d="M156.58,-194.23C190.73,-194.6 231.42,-195.71 268,-198.5 281.95,-199.56 296.86,-201.2 310.98,-202.99"/>
<polygon fill="#9a32cd" stroke="#9a32cd" points="156.24,-190.73 146.21,-194.14 156.18,-197.73 156.24,-190.73"/>
</a>
</g>
<text text-anchor="middle" x="222" y="-201.5" font-family="Helvetica,sans-Serif" font-size="10.00" fill="grey"> m_usageTime</text>
</g>
<!-- Node9 -->
<g id="Node000009" class="node">
<title>Node9</title>
<g id="a_Node000009"><a xlink:href="../../de/d3d/structproto_1_1lacte_1_1McuUid.html" target="_top" xlink:title=" ">
<polygon fill="white" stroke="#666666" points="136.5,-167 21.5,-167 21.5,-148 136.5,-148 136.5,-167"/>
<text text-anchor="middle" x="79" y="-155" font-family="Helvetica,sans-Serif" font-size="10.00">proto::lacte::McuUid</text>
</a>
</g>
</g>
<!-- Node9&#45;&gt;Node1 -->
<g id="edge8_Node000001_Node000009" class="edge">
<title>Node9&#45;&gt;Node1</title>
<g id="a_edge8_Node000001_Node000009"><a xlink:title=" ">
<path fill="none" stroke="#9a32cd" stroke-dasharray="5,2" d="M147.2,-162.34C183.27,-165.7 228.35,-171.11 268,-179.5 295.84,-185.39 326.82,-195.4 348.16,-202.85"/>
<polygon fill="#9a32cd" stroke="#9a32cd" points="147.06,-158.82 136.79,-161.41 146.44,-165.79 147.06,-158.82"/>
</a>
</g>
<text text-anchor="middle" x="222" y="-182.5" font-family="Helvetica,sans-Serif" font-size="10.00" fill="grey"> m_mcuUid</text>
</g>
<!-- Node10 -->
<g id="Node000010" class="node">
<title>Node10</title>
<g id="a_Node000010"><a xlink:href="../../d7/d46/structproto_1_1lacte_1_1MachineSn.html" target="_top" xlink:title=" ">
<polygon fill="white" stroke="#666666" points="144.5,-130 13.5,-130 13.5,-111 144.5,-111 144.5,-130"/>
<text text-anchor="middle" x="79" y="-118" font-family="Helvetica,sans-Serif" font-size="10.00">proto::lacte::MachineSn</text>
</a>
</g>
</g>
<!-- Node10&#45;&gt;Node1 -->
<g id="edge9_Node000001_Node000010" class="edge">
<title>Node10&#45;&gt;Node1</title>
<g id="a_edge9_Node000001_Node000010"><a xlink:title=" ">
<path fill="none" stroke="#9a32cd" stroke-dasharray="5,2" d="M154.78,-125.45C189.92,-129.42 231.92,-136.59 268,-149.5 304.61,-162.6 342.69,-188.67 361.86,-202.82"/>
<polygon fill="#9a32cd" stroke="#9a32cd" points="154.9,-121.94 144.58,-124.36 154.16,-128.9 154.9,-121.94"/>
</a>
</g>
<text text-anchor="middle" x="222" y="-152.5" font-family="Helvetica,sans-Serif" font-size="10.00" fill="grey"> m_machineSn</text>
</g>
<!-- Node11 -->
<g id="Node000011" class="node">
<title>Node11</title>
<g id="a_Node000011"><a xlink:href="../../da/d99/structproto_1_1lacte_1_1ActivationTime.html" target="_top" xlink:title=" ">
<polygon fill="white" stroke="#666666" points="155,-93 3,-93 3,-74 155,-74 155,-93"/>
<text text-anchor="middle" x="79" y="-81" font-family="Helvetica,sans-Serif" font-size="10.00">proto::lacte::ActivationTime</text>
</a>
</g>
</g>
<!-- Node11&#45;&gt;Node1 -->
<g id="edge10_Node000001_Node000011" class="edge">
<title>Node11&#45;&gt;Node1</title>
<g id="a_edge10_Node000001_Node000011"><a xlink:title=" ">
<path fill="none" stroke="#9a32cd" stroke-dasharray="5,2" d="M165.56,-85.9C198.87,-89.55 236.52,-97.16 268,-112.5 313.14,-134.5 352.16,-182.29 367.53,-202.81"/>
<polygon fill="#9a32cd" stroke="#9a32cd" points="165.66,-82.4 155.37,-84.89 164.97,-89.36 165.66,-82.4"/>
</a>
</g>
<text text-anchor="middle" x="222" y="-115.5" font-family="Helvetica,sans-Serif" font-size="10.00" fill="grey"> m_activationTime</text>
</g>
<!-- Node12 -->
<g id="Node000012" class="node">
<title>Node12</title>
<g id="a_Node000012"><a xlink:href="../../d9/d59/structproto_1_1lacte_1_1DrinkCounter.html" target="_top" xlink:title=" ">
<polygon fill="white" stroke="#666666" points="150.5,-56 7.5,-56 7.5,-37 150.5,-37 150.5,-56"/>
<text text-anchor="middle" x="79" y="-44" font-family="Helvetica,sans-Serif" font-size="10.00">proto::lacte::DrinkCounter</text>
</a>
</g>
</g>
<!-- Node12&#45;&gt;Node1 -->
<g id="edge11_Node000001_Node000012" class="edge">
<title>Node12&#45;&gt;Node1</title>
<g id="a_edge11_Node000001_Node000012"><a xlink:title=" ">
<path fill="none" stroke="#9a32cd" stroke-dasharray="5,2" d="M160.91,-44.22C195.88,-46.52 236.02,-53.81 268,-72.5 322.84,-104.55 358.87,-176.94 370.46,-202.96"/>
<polygon fill="#9a32cd" stroke="#9a32cd" points="160.89,-40.72 150.72,-43.68 160.52,-47.71 160.89,-40.72"/>
</a>
</g>
<text text-anchor="middle" x="222" y="-75.5" font-family="Helvetica,sans-Serif" font-size="10.00" fill="grey"> m_drinkCounter</text>
</g>
<!-- Node13 -->
<g id="Node000013" class="node">
<title>Node13</title>
<g id="a_Node000013"><a xlink:href="../../df/dbe/structproto_1_1lacte_1_1TimeCounter.html" target="_top" xlink:title=" ">
<polygon fill="white" stroke="#666666" points="149.5,-19 8.5,-19 8.5,0 149.5,0 149.5,-19"/>
<text text-anchor="middle" x="79" y="-7" font-family="Helvetica,sans-Serif" font-size="10.00">proto::lacte::TimeCounter</text>
</a>
</g>
</g>
<!-- Node13&#45;&gt;Node1 -->
<g id="edge12_Node000001_Node000013" class="edge">
<title>Node13&#45;&gt;Node1</title>
<g id="a_edge12_Node000001_Node000013"><a xlink:title=" ">
<path fill="none" stroke="#9a32cd" stroke-dasharray="5,2" d="M160.17,-2.88C195.73,-3.68 236.55,-10.06 268,-30.5 333.69,-73.19 363.98,-171.69 372.15,-202.86"/>
<polygon fill="#9a32cd" stroke="#9a32cd" points="159.84,0.62 149.81,-2.8 159.78,-6.38 159.84,0.62"/>
</a>
</g>
<text text-anchor="middle" x="222" y="-33.5" font-family="Helvetica,sans-Serif" font-size="10.00" fill="grey"> m_timeCounter</text>
</g>
</g>
</svg>
</svg>

<style type='text/css'>
<![CDATA[
[data-mouse-over-selected='false'] { opacity: 0.7; }
[data-mouse-over-selected='true']  { opacity: 1.0; }
]]>
</style>
<script type="application/ecmascript"><![CDATA[
document.addEventListener('DOMContentLoaded', (event) => {
  highlightEdges();
  highlightAdjacentNodes();
});
]]></script>
</svg>
