<?xml version="1.0" encoding="UTF-8" standalone="no"?>
<!DOCTYPE svg PUBLIC "-//W3C//DTD SVG 1.1//EN"
 "http://www.w3.org/Graphics/SVG/1.1/DTD/svg11.dtd">
<!-- Generated by graphviz version 2.43.0 (0)
 -->
<!-- Title: proto::lacte::UIDPacketType::string Pages: 1 -->
<svg width="481pt" height="38pt"
 viewBox="0.00 0.00 481.00 38.00" xmlns="http://www.w3.org/2000/svg" xmlns:xlink="http://www.w3.org/1999/xlink">
<g id="graph0" class="graph" transform="scale(1 1) rotate(0) translate(4 34)">
<title>proto::lacte::UIDPacketType::string</title>
<!-- Node1 -->
<g id="Node000001" class="node">
<title>Node1</title>
<g id="a_Node000001"><a xlink:title=" ">
<polygon fill="#999999" stroke="#666666" points="150,-30 0,-30 0,0 150,0 150,-30"/>
<text text-anchor="start" x="8" y="-18" font-family="Helvetica,sans-Serif" font-size="10.00">proto::lacte::UIDPacketType</text>
<text text-anchor="middle" x="75" y="-7" font-family="Helvetica,sans-Serif" font-size="10.00">::string</text>
</a>
</g>
</g>
<!-- Node2 -->
<g id="Node000002" class="node">
<title>Node2</title>
<g id="a_Node000002"><a xlink:href="../../dd/dda/structproto_1_1lacte_1_1UIDPacketType.html#a68b1882859464bd7d06a28de085e09fa" target="_top" xlink:title=" ">
<polygon fill="white" stroke="#666666" points="336,-30 186,-30 186,0 336,0 336,-30"/>
<text text-anchor="start" x="194" y="-18" font-family="Helvetica,sans-Serif" font-size="10.00">proto::lacte::UIDPacketType</text>
<text text-anchor="middle" x="261" y="-7" font-family="Helvetica,sans-Serif" font-size="10.00">::to_string</text>
</a>
</g>
</g>
<!-- Node1&#45;&gt;Node2 -->
<g id="edge1_Node000001_Node000002" class="edge">
<title>Node1&#45;&gt;Node2</title>
<g id="a_edge1_Node000001_Node000002"><a xlink:title=" ">
<path fill="none" stroke="#63b8ff" d="M150.04,-15C158.51,-15 167.19,-15 175.78,-15"/>
<polygon fill="#63b8ff" stroke="#63b8ff" points="175.81,-18.5 185.81,-15 175.81,-11.5 175.81,-18.5"/>
</a>
</g>
</g>
<!-- Node3 -->
<g id="Node000003" class="node">
<title>Node3</title>
<g id="a_Node000003"><a xlink:href="../../d3/d81/namespaceproto_1_1lacte.html#a91cec79e780cbbd26e1c83b74e572779" target="_top" xlink:title=" ">
<polygon fill="white" stroke="#666666" points="473,-30 372,-30 372,0 473,0 473,-30"/>
<text text-anchor="start" x="380" y="-18" font-family="Helvetica,sans-Serif" font-size="10.00">proto::lacte::print</text>
<text text-anchor="middle" x="422.5" y="-7" font-family="Helvetica,sans-Serif" font-size="10.00">_bytes</text>
</a>
</g>
</g>
<!-- Node2&#45;&gt;Node3 -->
<g id="edge2_Node000002_Node000003" class="edge">
<title>Node2&#45;&gt;Node3</title>
<g id="a_edge2_Node000002_Node000003"><a xlink:title=" ">
<path fill="none" stroke="#63b8ff" d="M336.15,-15C344.61,-15 353.16,-15 361.41,-15"/>
<polygon fill="#63b8ff" stroke="#63b8ff" points="361.68,-18.5 371.68,-15 361.68,-11.5 361.68,-18.5"/>
</a>
</g>
</g>
</g>
</svg>
