<?xml version="1.0" encoding="UTF-8" standalone="no"?>
<!DOCTYPE svg PUBLIC "-//W3C//DTD SVG 1.1//EN"
 "http://www.w3.org/Graphics/SVG/1.1/DTD/svg11.dtd">
<!-- Generated by graphviz version 2.43.0 (0)
 -->
<!-- Title: proto::lacte::LacteBoardProtocol&lt; RX_BASE, TX_BASE &gt; Pages: 1 -->
<svg width="960pt" height="108pt"
 viewBox="0.00 0.00 960.00 108.00" xmlns="http://www.w3.org/2000/svg" xmlns:xlink="http://www.w3.org/1999/xlink">
<g id="graph0" class="graph" transform="scale(1 1) rotate(0) translate(4 104)">
<title>proto::lacte::LacteBoardProtocol&lt; RX_BASE, TX_BASE &gt;</title>
<!-- Node1 -->
<g id="Node000001" class="node">
<title>Node1</title>
<g id="a_Node000001"><a xlink:title=" ">
<polygon fill="#999999" stroke="#666666" points="952,-73 819,-73 819,-32 952,-32 952,-73"/>
<text text-anchor="start" x="827" y="-61" font-family="Helvetica,sans-Serif" font-size="10.00">proto::lacte::LacteBoard</text>
<text text-anchor="start" x="827" y="-50" font-family="Helvetica,sans-Serif" font-size="10.00">Protocol&lt; RX_BASE, TX</text>
<text text-anchor="middle" x="885.5" y="-39" font-family="Helvetica,sans-Serif" font-size="10.00">_BASE &gt;</text>
</a>
</g>
</g>
<!-- Node2 -->
<g id="Node000002" class="node">
<title>Node2</title>
<g id="a_Node000002"><a xlink:href="../../d6/dc5/classproto_1_1ProtocolEndpoint.html" target="_top" xlink:title=" ">
<polygon fill="white" stroke="#666666" points="782,-84 618,-84 618,-21 782,-21 782,-84"/>
<text text-anchor="start" x="626" y="-72" font-family="Helvetica,sans-Serif" font-size="10.00">proto::ProtocolEndpoint</text>
<text text-anchor="start" x="626" y="-61" font-family="Helvetica,sans-Serif" font-size="10.00">&lt; HostPacket&lt; RX_BASE</text>
<text text-anchor="start" x="626" y="-50" font-family="Helvetica,sans-Serif" font-size="10.00"> &gt;::packet_fields, BoardPacket</text>
<text text-anchor="start" x="626" y="-39" font-family="Helvetica,sans-Serif" font-size="10.00">&lt; TX_BASE &gt;::packet_fields,</text>
<text text-anchor="middle" x="700" y="-28" font-family="Helvetica,sans-Serif" font-size="10.00"> Crc16Modbus &gt;</text>
</a>
</g>
</g>
<!-- Node2&#45;&gt;Node1 -->
<g id="edge1_Node000001_Node000002" class="edge">
<title>Node2&#45;&gt;Node1</title>
<g id="a_edge1_Node000001_Node000002"><a xlink:title=" ">
<path fill="none" stroke="#63b8ff" d="M792.14,-52.5C801.12,-52.5 810.12,-52.5 818.77,-52.5"/>
<polygon fill="#63b8ff" stroke="#63b8ff" points="792.02,-49 782.02,-52.5 792.02,-56 792.02,-49"/>
</a>
</g>
</g>
<!-- Node3 -->
<g id="Node000003" class="node">
<title>Node3</title>
<g id="a_Node000003"><a xlink:href="../../d0/d29/classproto_1_1RxContainer.html" target="_top" xlink:title=" ">
<polygon fill="white" stroke="#666666" points="554,-100 373,-100 373,-59 554,-59 554,-100"/>
<text text-anchor="start" x="381" y="-88" font-family="Helvetica,sans-Serif" font-size="10.00">proto::RxContainer</text>
<text text-anchor="start" x="381" y="-77" font-family="Helvetica,sans-Serif" font-size="10.00">&lt; HostPacket&lt; RX_BASE</text>
<text text-anchor="middle" x="463.5" y="-66" font-family="Helvetica,sans-Serif" font-size="10.00"> &gt;::packet_fields, Crc16Modbus &gt;</text>
</a>
</g>
</g>
<!-- Node3&#45;&gt;Node2 -->
<g id="edge2_Node000002_Node000003" class="edge">
<title>Node3&#45;&gt;Node2</title>
<g id="a_edge2_Node000002_Node000003"><a xlink:title=" ">
<path fill="none" stroke="#9a32cd" stroke-dasharray="5,2" d="M564.56,-67.98C582.34,-65.93 600.67,-63.82 617.85,-61.84"/>
<polygon fill="#9a32cd" stroke="#9a32cd" points="563.69,-64.56 554.16,-69.18 564.49,-71.51 563.69,-64.56"/>
</a>
</g>
<text text-anchor="middle" x="586" y="-69.5" font-family="Helvetica,sans-Serif" font-size="10.00" fill="grey"> m_rx</text>
</g>
<!-- Node4 -->
<g id="Node000004" class="node">
<title>Node4</title>
<g id="a_Node000004"><a xlink:href="../../d5/d09/classproto_1_1FieldContainer.html" target="_top" xlink:title="Generic container for protocol fields with CRC and debug support.">
<polygon fill="white" stroke="#666666" points="336,-92.5 217,-92.5 217,-62.5 336,-62.5 336,-92.5"/>
<text text-anchor="start" x="225" y="-80.5" font-family="Helvetica,sans-Serif" font-size="10.00">proto::FieldContainer</text>
<text text-anchor="middle" x="276.5" y="-69.5" font-family="Helvetica,sans-Serif" font-size="10.00">&lt; Fields, TCrc &gt;</text>
</a>
</g>
</g>
<!-- Node4&#45;&gt;Node3 -->
<g id="edge3_Node000003_Node000004" class="edge">
<title>Node4&#45;&gt;Node3</title>
<g id="a_edge3_Node000003_Node000004"><a xlink:title=" ">
<path fill="none" stroke="#63b8ff" d="M346.13,-78.24C354.87,-78.34 363.91,-78.43 372.91,-78.53"/>
<polygon fill="#63b8ff" stroke="#63b8ff" points="346.07,-74.74 336.04,-78.13 346,-81.74 346.07,-74.74"/>
</a>
</g>
</g>
<!-- Node5 -->
<g id="Node000005" class="node">
<title>Node5</title>
<g id="a_Node000005"><a xlink:href="../../d6/df7/structproto_1_1TransformToFieldsTuple.html" target="_top" xlink:title=" ">
<polygon fill="white" stroke="#666666" points="136,-67.5 0,-67.5 0,-37.5 136,-37.5 136,-67.5"/>
<text text-anchor="start" x="8" y="-55.5" font-family="Helvetica,sans-Serif" font-size="10.00">proto::TransformToFields</text>
<text text-anchor="middle" x="68" y="-44.5" font-family="Helvetica,sans-Serif" font-size="10.00">Tuple&lt; Fields &gt;</text>
</a>
</g>
</g>
<!-- Node5&#45;&gt;Node4 -->
<g id="edge4_Node000004_Node000005" class="edge">
<title>Node5&#45;&gt;Node4</title>
<g id="a_edge4_Node000004_Node000005"><a xlink:title=" ">
<path fill="none" stroke="#9a32cd" stroke-dasharray="5,2" d="M146.27,-61.85C169.61,-64.68 194.86,-67.74 216.78,-70.39"/>
<polygon fill="#9a32cd" stroke="#9a32cd" points="146.39,-58.34 136.04,-60.62 145.55,-65.29 146.39,-58.34"/>
</a>
</g>
<text text-anchor="middle" x="176.5" y="-70.5" font-family="Helvetica,sans-Serif" font-size="10.00" fill="grey"> m_fields</text>
</g>
<!-- Node7 -->
<g id="Node000007" class="node">
<title>Node7</title>
<g id="a_Node000007"><a xlink:href="../../d5/d09/classproto_1_1FieldContainer.html" target="_top" xlink:title="Generic container for protocol fields with CRC and debug support.">
<polygon fill="white" stroke="#666666" points="336,-43.5 217,-43.5 217,-13.5 336,-13.5 336,-43.5"/>
<text text-anchor="start" x="225" y="-31.5" font-family="Helvetica,sans-Serif" font-size="10.00">proto::FieldContainer</text>
<text text-anchor="middle" x="276.5" y="-20.5" font-family="Helvetica,sans-Serif" font-size="10.00">&lt; Fields, TCrc &gt;</text>
</a>
</g>
</g>
<!-- Node5&#45;&gt;Node7 -->
<g id="edge7_Node000007_Node000005" class="edge">
<title>Node5&#45;&gt;Node7</title>
<g id="a_edge7_Node000007_Node000005"><a xlink:title=" ">
<path fill="none" stroke="#9a32cd" stroke-dasharray="5,2" d="M146.31,-40.47C148.9,-40.13 151.47,-39.81 154,-39.5 174.39,-37.02 196.78,-34.84 216.71,-33.09"/>
<polygon fill="#9a32cd" stroke="#9a32cd" points="145.67,-37.02 136.22,-41.83 146.6,-43.96 145.67,-37.02"/>
</a>
</g>
<text text-anchor="middle" x="176.5" y="-42.5" font-family="Helvetica,sans-Serif" font-size="10.00" fill="grey"> m_fields</text>
</g>
<!-- Node6 -->
<g id="Node000006" class="node">
<title>Node6</title>
<g id="a_Node000006"><a xlink:href="../../d4/dd2/classproto_1_1TxContainer.html" target="_top" xlink:title=" ">
<polygon fill="white" stroke="#666666" points="554,-41 373,-41 373,0 554,0 554,-41"/>
<text text-anchor="start" x="381" y="-29" font-family="Helvetica,sans-Serif" font-size="10.00">proto::TxContainer</text>
<text text-anchor="start" x="381" y="-18" font-family="Helvetica,sans-Serif" font-size="10.00">&lt; BoardPacket&lt; TX_BASE</text>
<text text-anchor="middle" x="463.5" y="-7" font-family="Helvetica,sans-Serif" font-size="10.00"> &gt;::packet_fields, Crc16Modbus &gt;</text>
</a>
</g>
</g>
<!-- Node6&#45;&gt;Node2 -->
<g id="edge5_Node000002_Node000006" class="edge">
<title>Node6&#45;&gt;Node2</title>
<g id="a_edge5_Node000002_Node000006"><a xlink:title=" ">
<path fill="none" stroke="#9a32cd" stroke-dasharray="5,2" d="M564.56,-34.15C582.34,-36.58 600.67,-39.08 617.85,-41.43"/>
<polygon fill="#9a32cd" stroke="#9a32cd" points="564.54,-30.62 554.16,-32.73 563.59,-37.55 564.54,-30.62"/>
</a>
</g>
<text text-anchor="middle" x="586" y="-40.5" font-family="Helvetica,sans-Serif" font-size="10.00" fill="grey"> m_tx</text>
</g>
<!-- Node7&#45;&gt;Node6 -->
<g id="edge6_Node000006_Node000007" class="edge">
<title>Node7&#45;&gt;Node6</title>
<g id="a_edge6_Node000006_Node000007"><a xlink:title=" ">
<path fill="none" stroke="#63b8ff" d="M346.13,-25.53C354.87,-25.15 363.91,-24.76 372.91,-24.37"/>
<polygon fill="#63b8ff" stroke="#63b8ff" points="345.87,-22.04 336.04,-25.97 346.18,-29.03 345.87,-22.04"/>
</a>
</g>
</g>
</g>
</svg>
