<?xml version="1.0" encoding="UTF-8" standalone="no"?>
<!DOCTYPE svg PUBLIC "-//W3C//DTD SVG 1.1//EN"
 "http://www.w3.org/Graphics/SVG/1.1/DTD/svg11.dtd">
<!-- Generated by graphviz version 14.0.1 (20251006.0113)
 -->
<!-- Title: exoAtlantProtocol.hpp Pages: 1 -->
<svg width="1155pt" height="393pt"
 viewBox="0.00 0.00 1155.00 393.00" xmlns="http://www.w3.org/2000/svg" xmlns:xlink="http://www.w3.org/1999/xlink">
<g id="graph0" class="graph" transform="scale(1 1) rotate(0) translate(4 388.5)">
<title>exoAtlantProtocol.hpp</title>
<!-- Node1 -->
<g id="Node000001" class="node">
<title>Node1</title>
<g id="a_Node000001"><a xlink:title=" ">
<polygon fill="#999999" stroke="#666666" points="518.45,-384.5 406.45,-384.5 406.45,-365.25 518.45,-365.25 518.45,-384.5"/>
<text xml:space="preserve" text-anchor="middle" x="462.45" y="-371" font-family="Helvetica,sans-Serif" font-size="10.00">exoAtlantProtocol.hpp</text>
</a>
</g>
</g>
<!-- Node2 -->
<g id="Node000002" class="node">
<title>Node2</title>
<g id="a_Node000002"><a xlink:title=" ">
<polygon fill="#e0e0e0" stroke="#999999" points="141.08,-19.25 95.83,-19.25 95.83,0 141.08,0 141.08,-19.25"/>
<text xml:space="preserve" text-anchor="middle" x="118.45" y="-5.75" font-family="Helvetica,sans-Serif" font-size="10.00">cstdint</text>
</a>
</g>
</g>
<!-- Node1&#45;&gt;Node2 -->
<g id="edge1_Node000001_Node000002" class="edge">
<title>Node1&#45;&gt;Node2</title>
<g id="a_edge1_Node000001_Node000002"><a xlink:title=" ">
<path fill="none" stroke="#63b8ff" d="M406.26,-371.76C283.14,-365.61 0.45,-342.47 0.45,-259.75 0.45,-259.75 0.45,-259.75 0.45,-124.75 0.45,-92.73 -1.35,-79.6 19.45,-55.25 36.06,-35.81 62.86,-24.44 84.39,-18.05"/>
<polygon fill="#63b8ff" stroke="#63b8ff" points="85.2,-21.46 93.93,-15.47 83.37,-14.7 85.2,-21.46"/>
</a>
</g>
</g>
<!-- Node3 -->
<g id="Node000003" class="node">
<title>Node3</title>
<g id="a_Node000003"><a xlink:title=" ">
<polygon fill="#e0e0e0" stroke="#999999" points="534.95,-135.38 497.95,-135.38 497.95,-116.12 534.95,-116.12 534.95,-135.38"/>
<text xml:space="preserve" text-anchor="middle" x="516.45" y="-121.88" font-family="Helvetica,sans-Serif" font-size="10.00">tuple</text>
</a>
</g>
</g>
<!-- Node1&#45;&gt;Node3 -->
<g id="edge2_Node000001_Node000003" class="edge">
<title>Node1&#45;&gt;Node3</title>
<g id="a_edge2_Node000001_Node000003"><a xlink:title=" ">
<path fill="none" stroke="#63b8ff" d="M464.82,-364.9C471.35,-340.03 489.94,-268.01 502.45,-207.5 506.72,-186.85 510.74,-163.04 513.37,-146.66"/>
<polygon fill="#63b8ff" stroke="#63b8ff" points="516.75,-147.67 514.85,-137.24 509.83,-146.58 516.75,-147.67"/>
</a>
</g>
</g>
<!-- Node4 -->
<g id="Node000004" class="node">
<title>Node4</title>
<g id="a_Node000004"><a xlink:href="../../d6/d6e/_named_tuple_8hpp.html" target="_top" xlink:title=" ">
<polygon fill="white" stroke="#666666" points="333.58,-201.88 243.33,-201.88 243.33,-182.62 333.58,-182.62 333.58,-201.88"/>
<text xml:space="preserve" text-anchor="middle" x="288.45" y="-188.38" font-family="Helvetica,sans-Serif" font-size="10.00">NamedTuple.hpp</text>
</a>
</g>
</g>
<!-- Node1&#45;&gt;Node4 -->
<g id="edge3_Node000001_Node000004" class="edge">
<title>Node1&#45;&gt;Node4</title>
<g id="a_edge3_Node000001_Node000004"><a xlink:title=" ">
<path fill="none" stroke="#63b8ff" d="M454.06,-365.16C426.91,-336.98 341.13,-247.93 304.88,-210.3"/>
<polygon fill="#63b8ff" stroke="#63b8ff" points="307.68,-208.16 298.22,-203.39 302.64,-213.02 307.68,-208.16"/>
</a>
</g>
</g>
<!-- Node18 -->
<g id="Node000018" class="node">
<title>Node18</title>
<g id="a_Node000018"><a xlink:href="../../dc/d1e/_protocol_no_sys_endpoint_8hpp.html" target="_top" xlink:title=" ">
<polygon fill="white" stroke="#666666" points="725.95,-329.25 586.95,-329.25 586.95,-310 725.95,-310 725.95,-329.25"/>
<text xml:space="preserve" text-anchor="middle" x="656.45" y="-315.75" font-family="Helvetica,sans-Serif" font-size="10.00">ProtocolNoSysEndpoint.hpp</text>
</a>
</g>
</g>
<!-- Node1&#45;&gt;Node18 -->
<g id="edge22_Node000001_Node000018" class="edge">
<title>Node1&#45;&gt;Node18</title>
<g id="a_edge22_Node000001_Node000018"><a xlink:title=" ">
<path fill="none" stroke="#63b8ff" d="M495.36,-364.84C527.55,-356.01 576.79,-342.49 612.35,-332.73"/>
<polygon fill="#63b8ff" stroke="#63b8ff" points="613.2,-336.13 621.92,-330.1 611.35,-329.37 613.2,-336.13"/>
</a>
</g>
</g>
<!-- Node4&#45;&gt;Node3 -->
<g id="edge4_Node000004_Node000003" class="edge">
<title>Node4&#45;&gt;Node3</title>
<g id="a_edge4_Node000004_Node000003"><a xlink:title=" ">
<path fill="none" stroke="#63b8ff" d="M322.42,-182.19C329.06,-180.44 335.97,-178.65 342.45,-177 407.64,-160.42 426.57,-164.88 489.45,-141 489.8,-140.87 490.16,-140.73 490.51,-140.59"/>
<polygon fill="#63b8ff" stroke="#63b8ff" points="491.77,-143.86 499.39,-136.49 488.84,-137.5 491.77,-143.86"/>
</a>
</g>
</g>
<!-- Node5 -->
<g id="Node000005" class="node">
<title>Node5</title>
<g id="a_Node000005"><a xlink:title=" ">
<polygon fill="#e0e0e0" stroke="#999999" points="90.33,-74.5 28.58,-74.5 28.58,-55.25 90.33,-55.25 90.33,-74.5"/>
<text xml:space="preserve" text-anchor="middle" x="59.45" y="-61" font-family="Helvetica,sans-Serif" font-size="10.00">type_traits</text>
</a>
</g>
</g>
<!-- Node4&#45;&gt;Node5 -->
<g id="edge5_Node000004_Node000005" class="edge">
<title>Node4&#45;&gt;Node5</title>
<g id="a_edge5_Node000004_Node000005"><a xlink:title=" ">
<path fill="none" stroke="#63b8ff" d="M270.26,-182.24C250.48,-172.37 218.01,-155.96 190.45,-141 153.19,-120.78 110.73,-96.12 84.5,-80.71"/>
<polygon fill="#63b8ff" stroke="#63b8ff" points="86.34,-77.73 75.95,-75.67 82.79,-83.76 86.34,-77.73"/>
</a>
</g>
</g>
<!-- Node6 -->
<g id="Node000006" class="node">
<title>Node6</title>
<g id="a_Node000006"><a xlink:title=" ">
<polygon fill="#e0e0e0" stroke="#999999" points="480.08,-135.38 440.83,-135.38 440.83,-116.12 480.08,-116.12 480.08,-135.38"/>
<text xml:space="preserve" text-anchor="middle" x="460.45" y="-121.88" font-family="Helvetica,sans-Serif" font-size="10.00">utility</text>
</a>
</g>
</g>
<!-- Node4&#45;&gt;Node6 -->
<g id="edge6_Node000004_Node000006" class="edge">
<title>Node4&#45;&gt;Node6</title>
<g id="a_edge6_Node000004_Node000006"><a xlink:title=" ">
<path fill="none" stroke="#63b8ff" d="M318.13,-182.19C347.56,-172.9 393.73,-157.52 432.45,-141 432.68,-140.9 432.9,-140.81 433.13,-140.71"/>
<polygon fill="#63b8ff" stroke="#63b8ff" points="434.51,-143.93 442.08,-136.51 431.54,-137.59 434.51,-143.93"/>
</a>
</g>
</g>
<!-- Node7 -->
<g id="Node000007" class="node">
<title>Node7</title>
<g id="a_Node000007"><a xlink:href="../../d3/d6e/_field_prototype_8hpp.html" target="_top" xlink:title="FieldPrototype template for describing and handling protocol fields.">
<polygon fill="white" stroke="#666666" points="423.2,-135.38 255.7,-135.38 255.7,-116.12 423.2,-116.12 423.2,-135.38"/>
<text xml:space="preserve" text-anchor="middle" x="339.45" y="-121.88" font-family="Helvetica,sans-Serif" font-size="10.00">prototypes/field/FieldPrototype.hpp</text>
</a>
</g>
</g>
<!-- Node4&#45;&gt;Node7 -->
<g id="edge7_Node000004_Node000007" class="edge">
<title>Node4&#45;&gt;Node7</title>
<g id="a_edge7_Node000004_Node000007"><a xlink:title=" ">
<path fill="none" stroke="#63b8ff" d="M295.54,-182.28C303.23,-172.56 315.7,-156.79 325.39,-144.53"/>
<polygon fill="#63b8ff" stroke="#63b8ff" points="328.02,-146.84 331.48,-136.83 322.53,-142.5 328.02,-146.84"/>
</a>
</g>
</g>
<!-- Node7&#45;&gt;Node2 -->
<g id="edge8_Node000007_Node000002" class="edge">
<title>Node7&#45;&gt;Node2</title>
<g id="a_edge8_Node000007_Node000002"><a xlink:title=" ">
<path fill="none" stroke="#63b8ff" d="M274.05,-115.63C222.81,-107.21 157.01,-93.19 137.45,-74.5 125.55,-63.12 121.01,-44.66 119.32,-30.5"/>
<polygon fill="#63b8ff" stroke="#63b8ff" points="122.84,-30.66 118.58,-20.96 115.87,-31.2 122.84,-30.66"/>
</a>
</g>
</g>
<!-- Node7&#45;&gt;Node5 -->
<g id="edge15_Node000007_Node000005" class="edge">
<title>Node7&#45;&gt;Node5</title>
<g id="a_edge15_Node000007_Node000005"><a xlink:title=" ">
<path fill="none" stroke="#63b8ff" d="M296.31,-115.68C243.4,-104.55 154.29,-85.82 101.76,-74.77"/>
<polygon fill="#63b8ff" stroke="#63b8ff" points="102.49,-71.35 91.98,-72.71 101.05,-78.2 102.49,-71.35"/>
</a>
</g>
</g>
<!-- Node8 -->
<g id="Node000008" class="node">
<title>Node8</title>
<g id="a_Node000008"><a xlink:title=" ">
<polygon fill="#e0e0e0" stroke="#999999" points="725.08,-74.5 679.83,-74.5 679.83,-55.25 725.08,-55.25 725.08,-74.5"/>
<text xml:space="preserve" text-anchor="middle" x="702.45" y="-61" font-family="Helvetica,sans-Serif" font-size="10.00">cstring</text>
</a>
</g>
</g>
<!-- Node7&#45;&gt;Node8 -->
<g id="edge9_Node000007_Node000008" class="edge">
<title>Node7&#45;&gt;Node8</title>
<g id="a_edge9_Node000007_Node000008"><a xlink:title=" ">
<path fill="none" stroke="#63b8ff" d="M397.85,-115.66C409,-113.94 420.59,-112.16 431.45,-110.5 534.54,-94.78 564.02,-96.84 668.47,-74.94"/>
<polygon fill="#63b8ff" stroke="#63b8ff" points="668.97,-78.41 678.02,-72.91 667.52,-71.56 668.97,-78.41"/>
</a>
</g>
</g>
<!-- Node9 -->
<g id="Node000009" class="node">
<title>Node9</title>
<g id="a_Node000009"><a xlink:title=" ">
<polygon fill="#e0e0e0" stroke="#999999" points="364.33,-74.5 314.58,-74.5 314.58,-55.25 364.33,-55.25 364.33,-74.5"/>
<text xml:space="preserve" text-anchor="middle" x="339.45" y="-61" font-family="Helvetica,sans-Serif" font-size="10.00">iomanip</text>
</a>
</g>
</g>
<!-- Node7&#45;&gt;Node9 -->
<g id="edge10_Node000007_Node000009" class="edge">
<title>Node7&#45;&gt;Node9</title>
<g id="a_edge10_Node000007_Node000009"><a xlink:title=" ">
<path fill="none" stroke="#63b8ff" d="M339.45,-115.81C339.45,-108.03 339.45,-96.45 339.45,-86.41"/>
<polygon fill="#63b8ff" stroke="#63b8ff" points="342.95,-86.41 339.45,-76.41 335.95,-86.41 342.95,-86.41"/>
</a>
</g>
</g>
<!-- Node10 -->
<g id="Node000010" class="node">
<title>Node10</title>
<g id="a_Node000010"><a xlink:title=" ">
<polygon fill="#e0e0e0" stroke="#999999" points="436.2,-74.5 382.7,-74.5 382.7,-55.25 436.2,-55.25 436.2,-74.5"/>
<text xml:space="preserve" text-anchor="middle" x="409.45" y="-61" font-family="Helvetica,sans-Serif" font-size="10.00">iostream</text>
</a>
</g>
</g>
<!-- Node7&#45;&gt;Node10 -->
<g id="edge11_Node000007_Node000010" class="edge">
<title>Node7&#45;&gt;Node10</title>
<g id="a_edge11_Node000007_Node000010"><a xlink:title=" ">
<path fill="none" stroke="#63b8ff" d="M350.08,-115.81C360.67,-106.9 377.16,-93.03 390.08,-82.17"/>
<polygon fill="#63b8ff" stroke="#63b8ff" points="392.16,-84.99 397.56,-75.88 387.65,-79.63 392.16,-84.99"/>
</a>
</g>
</g>
<!-- Node11 -->
<g id="Node000011" class="node">
<title>Node11</title>
<g id="a_Node000011"><a xlink:title=" ">
<polygon fill="#e0e0e0" stroke="#999999" points="493.08,-74.5 453.83,-74.5 453.83,-55.25 493.08,-55.25 493.08,-74.5"/>
<text xml:space="preserve" text-anchor="middle" x="473.45" y="-61" font-family="Helvetica,sans-Serif" font-size="10.00">limits</text>
</a>
</g>
</g>
<!-- Node7&#45;&gt;Node11 -->
<g id="edge12_Node000007_Node000011" class="edge">
<title>Node7&#45;&gt;Node11</title>
<g id="a_edge12_Node000007_Node000011"><a xlink:title=" ">
<path fill="none" stroke="#63b8ff" d="M360.09,-115.68C382.22,-105.96 417.58,-90.42 442.92,-79.29"/>
<polygon fill="#63b8ff" stroke="#63b8ff" points="444.31,-82.5 452.05,-75.28 441.49,-76.09 444.31,-82.5"/>
</a>
</g>
</g>
<!-- Node12 -->
<g id="Node000012" class="node">
<title>Node12</title>
<g id="a_Node000012"><a xlink:title=" ">
<polygon fill="#e0e0e0" stroke="#999999" points="562.08,-74.5 510.83,-74.5 510.83,-55.25 562.08,-55.25 562.08,-74.5"/>
<text xml:space="preserve" text-anchor="middle" x="536.45" y="-61" font-family="Helvetica,sans-Serif" font-size="10.00">sstream</text>
</a>
</g>
</g>
<!-- Node7&#45;&gt;Node12 -->
<g id="edge13_Node000007_Node000012" class="edge">
<title>Node7&#45;&gt;Node12</title>
<g id="a_edge13_Node000007_Node000012"><a xlink:title=" ">
<path fill="none" stroke="#63b8ff" d="M369.8,-115.68C404.72,-105.24 462.05,-88.11 499.53,-76.91"/>
<polygon fill="#63b8ff" stroke="#63b8ff" points="500.44,-80.29 509.02,-74.07 498.44,-73.58 500.44,-80.29"/>
</a>
</g>
</g>
<!-- Node13 -->
<g id="Node000013" class="node">
<title>Node13</title>
<g id="a_Node000013"><a xlink:title=" ">
<polygon fill="#e0e0e0" stroke="#999999" points="497.2,-19.25 431.7,-19.25 431.7,0 497.2,0 497.2,-19.25"/>
<text xml:space="preserve" text-anchor="middle" x="464.45" y="-5.75" font-family="Helvetica,sans-Serif" font-size="10.00">string_view</text>
</a>
</g>
</g>
<!-- Node7&#45;&gt;Node13 -->
<g id="edge14_Node000007_Node000013" class="edge">
<title>Node7&#45;&gt;Node13</title>
<g id="a_edge14_Node000007_Node000013"><a xlink:title=" ">
<path fill="none" stroke="#63b8ff" d="M399.87,-115.66C464.93,-105.25 560.63,-87.91 571.45,-74.5 592.96,-47.83 546.91,-29.71 508.66,-19.77"/>
<polygon fill="#63b8ff" stroke="#63b8ff" points="509.64,-16.41 499.1,-17.43 507.98,-23.21 509.64,-16.41"/>
</a>
</g>
</g>
<!-- Node14 -->
<g id="Node000014" class="node">
<title>Node14</title>
<g id="a_Node000014"><a xlink:title=" ">
<polygon fill="#e0e0e0" stroke="#999999" points="661.95,-74.5 618.95,-74.5 618.95,-55.25 661.95,-55.25 661.95,-74.5"/>
<text xml:space="preserve" text-anchor="middle" x="640.45" y="-61" font-family="Helvetica,sans-Serif" font-size="10.00">vector</text>
</a>
</g>
</g>
<!-- Node7&#45;&gt;Node14 -->
<g id="edge16_Node000007_Node000014" class="edge">
<title>Node7&#45;&gt;Node14</title>
<g id="a_edge16_Node000007_Node000014"><a xlink:title=" ">
<path fill="none" stroke="#63b8ff" d="M391.39,-115.66C444.93,-106.11 530.74,-90.31 604.45,-74.5 605.61,-74.25 606.8,-73.99 607.99,-73.73"/>
<polygon fill="#63b8ff" stroke="#63b8ff" points="608.35,-77.24 617.31,-71.58 606.78,-70.41 608.35,-77.24"/>
</a>
</g>
</g>
<!-- Node15 -->
<g id="Node000015" class="node">
<title>Node15</title>
<g id="a_Node000015"><a xlink:href="../../d8/d46/_field_flags_8hpp.html" target="_top" xlink:title="Common enums and utilities for protocol field names and flags.">
<polygon fill="white" stroke="#666666" points="296.2,-74.5 146.7,-74.5 146.7,-55.25 296.2,-55.25 296.2,-74.5"/>
<text xml:space="preserve" text-anchor="middle" x="221.45" y="-61" font-family="Helvetica,sans-Serif" font-size="10.00">prototypes/field/FieldFlags.hpp</text>
</a>
</g>
</g>
<!-- Node7&#45;&gt;Node15 -->
<g id="edge17_Node000007_Node000015" class="edge">
<title>Node7&#45;&gt;Node15</title>
<g id="a_edge17_Node000007_Node000015"><a xlink:title=" ">
<path fill="none" stroke="#63b8ff" d="M321.27,-115.68C302.16,-106.14 271.84,-91.02 249.63,-79.93"/>
<polygon fill="#63b8ff" stroke="#63b8ff" points="251.32,-76.87 240.81,-75.53 248.2,-83.13 251.32,-76.87"/>
</a>
</g>
</g>
<!-- Node15&#45;&gt;Node2 -->
<g id="edge19_Node000015_Node000002" class="edge">
<title>Node15&#45;&gt;Node2</title>
<g id="a_edge19_Node000015_Node000002"><a xlink:title=" ">
<path fill="none" stroke="#63b8ff" d="M203.98,-54.84C188.15,-46.66 164.55,-34.46 146.14,-24.94"/>
<polygon fill="#63b8ff" stroke="#63b8ff" points="147.84,-21.88 137.35,-20.4 144.63,-28.1 147.84,-21.88"/>
</a>
</g>
</g>
<!-- Node15&#45;&gt;Node13 -->
<g id="edge21_Node000015_Node000013" class="edge">
<title>Node15&#45;&gt;Node13</title>
<g id="a_edge21_Node000015_Node000013"><a xlink:title=" ">
<path fill="none" stroke="#63b8ff" d="M262.95,-54.78C306.72,-45.19 375.42,-30.13 420.2,-20.32"/>
<polygon fill="#63b8ff" stroke="#63b8ff" points="420.82,-23.77 429.84,-18.21 419.33,-16.93 420.82,-23.77"/>
</a>
</g>
</g>
<!-- Node16 -->
<g id="Node000016" class="node">
<title>Node16</title>
<g id="a_Node000016"><a xlink:title=" ">
<polygon fill="#e0e0e0" stroke="#999999" points="218.33,-19.25 180.58,-19.25 180.58,0 218.33,0 218.33,-19.25"/>
<text xml:space="preserve" text-anchor="middle" x="199.45" y="-5.75" font-family="Helvetica,sans-Serif" font-size="10.00">array</text>
</a>
</g>
</g>
<!-- Node15&#45;&gt;Node16 -->
<g id="edge18_Node000015_Node000016" class="edge">
<title>Node15&#45;&gt;Node16</title>
<g id="a_edge18_Node000015_Node000016"><a xlink:title=" ">
<path fill="none" stroke="#63b8ff" d="M217.82,-55.08C215.03,-48.34 211.08,-38.77 207.55,-30.24"/>
<polygon fill="#63b8ff" stroke="#63b8ff" points="210.79,-28.91 203.74,-21.01 204.32,-31.59 210.79,-28.91"/>
</a>
</g>
</g>
<!-- Node17 -->
<g id="Node000017" class="node">
<title>Node17</title>
<g id="a_Node000017"><a xlink:title=" ">
<polygon fill="#e0e0e0" stroke="#999999" points="288.08,-19.25 236.83,-19.25 236.83,0 288.08,0 288.08,-19.25"/>
<text xml:space="preserve" text-anchor="middle" x="262.45" y="-5.75" font-family="Helvetica,sans-Serif" font-size="10.00">ostream</text>
</a>
</g>
</g>
<!-- Node15&#45;&gt;Node17 -->
<g id="edge20_Node000015_Node000017" class="edge">
<title>Node15&#45;&gt;Node17</title>
<g id="a_edge20_Node000015_Node000017"><a xlink:title=" ">
<path fill="none" stroke="#63b8ff" d="M228.22,-55.08C233.77,-47.88 241.79,-37.46 248.68,-28.51"/>
<polygon fill="#63b8ff" stroke="#63b8ff" points="251.28,-30.87 254.61,-20.81 245.74,-26.6 251.28,-30.87"/>
</a>
</g>
</g>
<!-- Node19 -->
<g id="Node000019" class="node">
<title>Node19</title>
<g id="a_Node000019"><a xlink:title=" ">
<polygon fill="#e0e0e0" stroke="#999999" points="848.58,-268.38 806.33,-268.38 806.33,-249.12 848.58,-249.12 848.58,-268.38"/>
<text xml:space="preserve" text-anchor="middle" x="827.45" y="-254.88" font-family="Helvetica,sans-Serif" font-size="10.00">deque</text>
</a>
</g>
</g>
<!-- Node18&#45;&gt;Node19 -->
<g id="edge23_Node000018_Node000019" class="edge">
<title>Node18&#45;&gt;Node19</title>
<g id="a_edge23_Node000018_Node000019"><a xlink:title=" ">
<path fill="none" stroke="#63b8ff" d="M689.66,-309.51C718.52,-301.26 761.25,-288.25 797.45,-274 798.07,-273.76 798.7,-273.5 799.33,-273.25"/>
<polygon fill="#63b8ff" stroke="#63b8ff" points="800.42,-276.59 808.16,-269.36 797.59,-270.19 800.42,-276.59"/>
</a>
</g>
</g>
<!-- Node20 -->
<g id="Node000020" class="node">
<title>Node20</title>
<g id="a_Node000020"><a xlink:title=" ">
<polygon fill="#e0e0e0" stroke="#999999" points="649.45,-135.38 591.45,-135.38 591.45,-116.12 649.45,-116.12 649.45,-135.38"/>
<text xml:space="preserve" text-anchor="middle" x="620.45" y="-121.88" font-family="Helvetica,sans-Serif" font-size="10.00">functional</text>
</a>
</g>
</g>
<!-- Node18&#45;&gt;Node20 -->
<g id="edge24_Node000018_Node000020" class="edge">
<title>Node18&#45;&gt;Node20</title>
<g id="a_edge24_Node000018_Node000020"><a xlink:title=" ">
<path fill="none" stroke="#63b8ff" d="M652.03,-309.7C643.14,-291.2 623.36,-247.09 616.45,-207.5 614.12,-194.15 615.91,-190.54 616.45,-177 616.84,-167.13 617.67,-156.2 618.46,-147.06"/>
<polygon fill="#63b8ff" stroke="#63b8ff" points="621.95,-147.42 619.39,-137.14 614.98,-146.77 621.95,-147.42"/>
</a>
</g>
</g>
<!-- Node21 -->
<g id="Node000021" class="node">
<title>Node21</title>
<g id="a_Node000021"><a xlink:href="../../d0/d95/_rx_container_8hpp.html" target="_top" xlink:title="Stateful frame parsing container that incrementally matches and fills protocol fields from a byte str...">
<polygon fill="white" stroke="#666666" points="729.7,-207.5 625.2,-207.5 625.2,-177 729.7,-177 729.7,-207.5"/>
<text xml:space="preserve" text-anchor="start" x="633.2" y="-194" font-family="Helvetica,sans-Serif" font-size="10.00">prototypes/container</text>
<text xml:space="preserve" text-anchor="middle" x="677.45" y="-182.75" font-family="Helvetica,sans-Serif" font-size="10.00">/RxContainer.hpp</text>
</a>
</g>
</g>
<!-- Node18&#45;&gt;Node21 -->
<g id="edge25_Node000018_Node000021" class="edge">
<title>Node18&#45;&gt;Node21</title>
<g id="a_edge25_Node000018_Node000021"><a xlink:title=" ">
<path fill="none" stroke="#63b8ff" d="M657.96,-309.61C661.1,-290.84 668.45,-246.99 673.17,-218.8"/>
<polygon fill="#63b8ff" stroke="#63b8ff" points="676.56,-219.73 674.76,-209.29 669.66,-218.57 676.56,-219.73"/>
</a>
</g>
</g>
<!-- Node28 -->
<g id="Node000028" class="node">
<title>Node28</title>
<g id="a_Node000028"><a xlink:href="../../d7/d5d/_tx_container_8hpp.html" target="_top" xlink:title="TX&#45;side container that builds protocol frames from a set of fields.">
<polygon fill="white" stroke="#666666" points="788.7,-274 684.2,-274 684.2,-243.5 788.7,-243.5 788.7,-274"/>
<text xml:space="preserve" text-anchor="start" x="692.2" y="-260.5" font-family="Helvetica,sans-Serif" font-size="10.00">prototypes/container</text>
<text xml:space="preserve" text-anchor="middle" x="736.45" y="-249.25" font-family="Helvetica,sans-Serif" font-size="10.00">/TxContainer.hpp</text>
</a>
</g>
</g>
<!-- Node18&#45;&gt;Node28 -->
<g id="edge35_Node000018_Node000028" class="edge">
<title>Node18&#45;&gt;Node28</title>
<g id="a_edge35_Node000018_Node000028"><a xlink:title=" ">
<path fill="none" stroke="#63b8ff" d="M668.6,-309.68C678.97,-302.05 694.3,-290.77 707.76,-280.86"/>
<polygon fill="#63b8ff" stroke="#63b8ff" points="709.51,-283.93 715.49,-275.18 705.36,-278.29 709.51,-283.93"/>
</a>
</g>
</g>
<!-- Node21&#45;&gt;Node3 -->
<g id="edge30_Node000021_Node000003" class="edge">
<title>Node21&#45;&gt;Node3</title>
<g id="a_edge30_Node000021_Node000003"><a xlink:title=" ">
<path fill="none" stroke="#63b8ff" d="M638.95,-176.52C613.47,-166.68 579.36,-153.32 549.45,-141 548.15,-140.47 546.83,-139.91 545.49,-139.35"/>
<polygon fill="#63b8ff" stroke="#63b8ff" points="547.22,-136.28 536.64,-135.59 544.48,-142.73 547.22,-136.28"/>
</a>
</g>
</g>
<!-- Node21&#45;&gt;Node8 -->
<g id="edge27_Node000021_Node000008" class="edge">
<title>Node21&#45;&gt;Node8</title>
<g id="a_edge27_Node000021_Node000008"><a xlink:title=" ">
<path fill="none" stroke="#63b8ff" d="M627.34,-176.72C610.02,-169.03 592.46,-157.62 582.45,-141 575.46,-129.39 574.71,-121.63 582.45,-110.5 587.62,-103.06 634.89,-86.99 668.53,-76.31"/>
<polygon fill="#63b8ff" stroke="#63b8ff" points="669.41,-79.7 677.9,-73.36 667.31,-73.02 669.41,-79.7"/>
</a>
</g>
</g>
<!-- Node21&#45;&gt;Node20 -->
<g id="edge28_Node000021_Node000020" class="edge">
<title>Node21&#45;&gt;Node20</title>
<g id="a_edge28_Node000021_Node000020"><a xlink:title=" ">
<path fill="none" stroke="#63b8ff" d="M664.52,-176.61C655.97,-166.94 644.72,-154.21 635.73,-144.04"/>
<polygon fill="#63b8ff" stroke="#63b8ff" points="638.49,-141.88 629.25,-136.71 633.25,-146.52 638.49,-141.88"/>
</a>
</g>
</g>
<!-- Node22 -->
<g id="Node000022" class="node">
<title>Node22</title>
<g id="a_Node000022"><a xlink:title=" ">
<polygon fill="#e0e0e0" stroke="#999999" points="723.33,-135.38 667.58,-135.38 667.58,-116.12 723.33,-116.12 723.33,-135.38"/>
<text xml:space="preserve" text-anchor="middle" x="695.45" y="-121.88" font-family="Helvetica,sans-Serif" font-size="10.00">algorithm</text>
</a>
</g>
</g>
<!-- Node21&#45;&gt;Node22 -->
<g id="edge26_Node000021_Node000022" class="edge">
<title>Node21&#45;&gt;Node22</title>
<g id="a_edge26_Node000021_Node000022"><a xlink:title=" ">
<path fill="none" stroke="#63b8ff" d="M681.54,-176.61C684.01,-167.73 687.21,-156.27 689.92,-146.58"/>
<polygon fill="#63b8ff" stroke="#63b8ff" points="693.26,-147.6 692.58,-137.03 686.52,-145.72 693.26,-147.6"/>
</a>
</g>
</g>
<!-- Node23 -->
<g id="Node000023" class="node">
<title>Node23</title>
<g id="a_Node000023"><a xlink:title=" ">
<polygon fill="#e0e0e0" stroke="#999999" points="903.08,-135.38 851.83,-135.38 851.83,-116.12 903.08,-116.12 903.08,-135.38"/>
<text xml:space="preserve" text-anchor="middle" x="877.45" y="-121.88" font-family="Helvetica,sans-Serif" font-size="10.00">memory</text>
</a>
</g>
</g>
<!-- Node21&#45;&gt;Node23 -->
<g id="edge29_Node000021_Node000023" class="edge">
<title>Node21&#45;&gt;Node23</title>
<g id="a_edge29_Node000021_Node000023"><a xlink:title=" ">
<path fill="none" stroke="#63b8ff" d="M729.87,-176.61C762.5,-167.17 805.2,-154.22 842.45,-141 843.42,-140.65 844.41,-140.3 845.4,-139.93"/>
<polygon fill="#63b8ff" stroke="#63b8ff" points="846.62,-143.21 854.69,-136.35 844.1,-136.68 846.62,-143.21"/>
</a>
</g>
</g>
<!-- Node24 -->
<g id="Node000024" class="node">
<title>Node24</title>
<g id="a_Node000024"><a xlink:href="../../de/ddc/_custom_span_8hpp.html" target="_top" xlink:title=" ">
<polygon fill="white" stroke="#666666" points="833.33,-135.38 741.58,-135.38 741.58,-116.12 833.33,-116.12 833.33,-135.38"/>
<text xml:space="preserve" text-anchor="middle" x="787.45" y="-121.88" font-family="Helvetica,sans-Serif" font-size="10.00">CustomSpan.hpp</text>
</a>
</g>
</g>
<!-- Node21&#45;&gt;Node24 -->
<g id="edge31_Node000021_Node000024" class="edge">
<title>Node21&#45;&gt;Node24</title>
<g id="a_edge31_Node000021_Node000024"><a xlink:title=" ">
<path fill="none" stroke="#63b8ff" d="M702.41,-176.61C720.32,-166.11 744.36,-152.02 762.31,-141.49"/>
<polygon fill="#63b8ff" stroke="#63b8ff" points="763.92,-144.6 770.78,-136.53 760.38,-138.56 763.92,-144.6"/>
</a>
</g>
</g>
<!-- Node27 -->
<g id="Node000027" class="node">
<title>Node27</title>
<g id="a_Node000027"><a xlink:href="../../d8/dd8/_field_container_8hpp.html" target="_top" xlink:title=" ">
<polygon fill="white" stroke="#666666" points="1146.7,-141 1042.2,-141 1042.2,-110.5 1146.7,-110.5 1146.7,-141"/>
<text xml:space="preserve" text-anchor="start" x="1050.2" y="-127.5" font-family="Helvetica,sans-Serif" font-size="10.00">prototypes/container</text>
<text xml:space="preserve" text-anchor="middle" x="1094.45" y="-116.25" font-family="Helvetica,sans-Serif" font-size="10.00">/FieldContainer.hpp</text>
</a>
</g>
</g>
<!-- Node21&#45;&gt;Node27 -->
<g id="edge34_Node000021_Node000027" class="edge">
<title>Node21&#45;&gt;Node27</title>
<g id="a_edge34_Node000021_Node000027"><a xlink:title=" ">
<path fill="none" stroke="#63b8ff" d="M730.17,-185.3C797.62,-177.36 918.29,-162.05 1030.74,-141.41"/>
<polygon fill="#63b8ff" stroke="#63b8ff" points="1031.26,-144.87 1040.45,-139.61 1029.98,-137.99 1031.26,-144.87"/>
</a>
</g>
</g>
<!-- Node25 -->
<g id="Node000025" class="node">
<title>Node25</title>
<g id="a_Node000025"><a xlink:title=" ">
<polygon fill="#e0e0e0" stroke="#999999" points="801.58,-74.5 753.33,-74.5 753.33,-55.25 801.58,-55.25 801.58,-74.5"/>
<text xml:space="preserve" text-anchor="middle" x="777.45" y="-61" font-family="Helvetica,sans-Serif" font-size="10.00">cassert</text>
</a>
</g>
</g>
<!-- Node24&#45;&gt;Node25 -->
<g id="edge32_Node000024_Node000025" class="edge">
<title>Node24&#45;&gt;Node25</title>
<g id="a_edge32_Node000024_Node000025"><a xlink:title=" ">
<path fill="none" stroke="#63b8ff" d="M785.93,-115.81C784.6,-107.94 782.6,-96.2 780.88,-86.07"/>
<polygon fill="#63b8ff" stroke="#63b8ff" points="784.36,-85.67 779.24,-76.39 777.46,-86.84 784.36,-85.67"/>
</a>
</g>
</g>
<!-- Node26 -->
<g id="Node000026" class="node">
<title>Node26</title>
<g id="a_Node000026"><a xlink:title=" ">
<polygon fill="#e0e0e0" stroke="#999999" points="867.58,-74.5 819.33,-74.5 819.33,-55.25 867.58,-55.25 867.58,-74.5"/>
<text xml:space="preserve" text-anchor="middle" x="843.45" y="-61" font-family="Helvetica,sans-Serif" font-size="10.00">cstddef</text>
</a>
</g>
</g>
<!-- Node24&#45;&gt;Node26 -->
<g id="edge33_Node000024_Node000026" class="edge">
<title>Node24&#45;&gt;Node26</title>
<g id="a_edge33_Node000024_Node000026"><a xlink:title=" ">
<path fill="none" stroke="#63b8ff" d="M795.96,-115.81C804.18,-107.16 816.86,-93.84 827.04,-83.12"/>
<polygon fill="#63b8ff" stroke="#63b8ff" points="829.47,-85.66 833.82,-76 824.39,-80.83 829.47,-85.66"/>
</a>
</g>
</g>
<!-- Node28&#45;&gt;Node3 -->
<g id="edge37_Node000028_Node000003" class="edge">
<title>Node28&#45;&gt;Node3</title>
<g id="a_edge37_Node000028_Node000003"><a xlink:title=" ">
<path fill="none" stroke="#63b8ff" d="M693.39,-243.11C669.87,-234.28 640.7,-221.97 616.45,-207.5 585.16,-188.83 553.1,-161.13 533.99,-143.51"/>
<polygon fill="#63b8ff" stroke="#63b8ff" points="536.5,-141.07 526.81,-136.79 531.72,-146.18 536.5,-141.07"/>
</a>
</g>
</g>
<!-- Node28&#45;&gt;Node5 -->
<g id="edge38_Node000028_Node000005" class="edge">
<title>Node28&#45;&gt;Node5</title>
<g id="a_edge38_Node000028_Node000005"><a xlink:title=" ">
<path fill="none" stroke="#63b8ff" d="M683.84,-255.64C572.45,-250.65 316.34,-236.35 234.45,-207.5 163.96,-182.66 101.14,-115.91 73.86,-83.72"/>
<polygon fill="#63b8ff" stroke="#63b8ff" points="76.61,-81.55 67.53,-76.09 71.22,-86.02 76.61,-81.55"/>
</a>
</g>
</g>
<!-- Node28&#45;&gt;Node22 -->
<g id="edge36_Node000028_Node000022" class="edge">
<title>Node28&#45;&gt;Node22</title>
<g id="a_edge36_Node000028_Node000022"><a xlink:title=" ">
<path fill="none" stroke="#63b8ff" d="M739.95,-243.22C743.24,-226.64 746.57,-198.97 738.45,-177 733.69,-164.1 723.97,-152.28 714.98,-143.34"/>
<polygon fill="#63b8ff" stroke="#63b8ff" points="717.59,-140.99 707.88,-136.75 712.83,-146.12 717.59,-140.99"/>
</a>
</g>
</g>
<!-- Node28&#45;&gt;Node24 -->
<g id="edge39_Node000028_Node000024" class="edge">
<title>Node28&#45;&gt;Node24</title>
<g id="a_edge39_Node000028_Node000024"><a xlink:title=" ">
<path fill="none" stroke="#63b8ff" d="M742.1,-243.23C751.28,-219.66 769.43,-173.04 779.77,-146.49"/>
<polygon fill="#63b8ff" stroke="#63b8ff" points="782.99,-147.85 783.36,-137.26 776.47,-145.31 782.99,-147.85"/>
</a>
</g>
</g>
<!-- Node28&#45;&gt;Node27 -->
<g id="edge46_Node000028_Node000027" class="edge">
<title>Node28&#45;&gt;Node27</title>
<g id="a_edge46_Node000028_Node000027"><a xlink:title=" ">
<path fill="none" stroke="#63b8ff" d="M789.02,-245.48C825.52,-236.4 875.01,-222.96 917.45,-207.5 966.41,-189.66 1020.64,-164 1056.01,-146.42"/>
<polygon fill="#63b8ff" stroke="#63b8ff" points="1057.18,-149.75 1064.55,-142.14 1054.04,-143.49 1057.18,-149.75"/>
</a>
</g>
</g>
<!-- Node29 -->
<g id="Node000029" class="node">
<title>Node29</title>
<g id="a_Node000029"><a xlink:href="../../dc/dba/_interface_8hpp.html" target="_top" xlink:title=" ">
<polygon fill="white" stroke="#666666" points="907.95,-201.88 834.95,-201.88 834.95,-182.62 907.95,-182.62 907.95,-201.88"/>
<text xml:space="preserve" text-anchor="middle" x="871.45" y="-188.38" font-family="Helvetica,sans-Serif" font-size="10.00">Interface.hpp</text>
</a>
</g>
</g>
<!-- Node28&#45;&gt;Node29 -->
<g id="edge40_Node000028_Node000029" class="edge">
<title>Node28&#45;&gt;Node29</title>
<g id="a_edge40_Node000028_Node000029"><a xlink:title=" ">
<path fill="none" stroke="#63b8ff" d="M767.08,-243.11C789.68,-232.32 820.23,-217.72 842.43,-207.11"/>
<polygon fill="#63b8ff" stroke="#63b8ff" points="843.71,-210.38 851.23,-202.91 840.7,-204.07 843.71,-210.38"/>
</a>
</g>
</g>
<!-- Node32 -->
<g id="Node000032" class="node">
<title>Node32</title>
<g id="a_Node000032"><a xlink:href="../../d0/d22/_field_info_8hpp.html" target="_top" xlink:title="Helpers and utilities for compile&#45;time field metadata and tuple processing.">
<polygon fill="white" stroke="#666666" points="493.45,-201.88 351.45,-201.88 351.45,-182.62 493.45,-182.62 493.45,-201.88"/>
<text xml:space="preserve" text-anchor="middle" x="422.45" y="-188.38" font-family="Helvetica,sans-Serif" font-size="10.00">prototypes/field/FieldInfo.hpp</text>
</a>
</g>
</g>
<!-- Node28&#45;&gt;Node32 -->
<g id="edge47_Node000028_Node000032" class="edge">
<title>Node28&#45;&gt;Node32</title>
<g id="a_edge47_Node000028_Node000032"><a xlink:title=" ">
<path fill="none" stroke="#63b8ff" d="M683.89,-246.95C626.77,-235.22 535.89,-216.55 477.72,-204.6"/>
<polygon fill="#63b8ff" stroke="#63b8ff" points="478.53,-201.2 468.03,-202.61 477.12,-208.05 478.53,-201.2"/>
</a>
</g>
</g>
<!-- Node29&#45;&gt;Node20 -->
<g id="edge42_Node000029_Node000020" class="edge">
<title>Node29&#45;&gt;Node20</title>
<g id="a_edge42_Node000029_Node000020"><a xlink:title=" ">
<path fill="none" stroke="#63b8ff" d="M834.51,-184.02C791.73,-175.31 719.34,-159.52 658.45,-141 656.89,-140.53 655.3,-140.02 653.71,-139.5"/>
<polygon fill="#63b8ff" stroke="#63b8ff" points="655.22,-136.32 644.63,-136.32 652.91,-142.92 655.22,-136.32"/>
</a>
</g>
</g>
<!-- Node29&#45;&gt;Node23 -->
<g id="edge43_Node000029_Node000023" class="edge">
<title>Node29&#45;&gt;Node23</title>
<g id="a_edge43_Node000029_Node000023"><a xlink:title=" ">
<path fill="none" stroke="#63b8ff" d="M872.28,-182.28C873.14,-173.14 874.48,-158.64 875.59,-146.75"/>
<polygon fill="#63b8ff" stroke="#63b8ff" points="879.04,-147.43 876.48,-137.15 872.07,-146.78 879.04,-147.43"/>
</a>
</g>
</g>
<!-- Node29&#45;&gt;Node24 -->
<g id="edge45_Node000029_Node000024" class="edge">
<title>Node29&#45;&gt;Node24</title>
<g id="a_edge45_Node000029_Node000024"><a xlink:title=" ">
<path fill="none" stroke="#63b8ff" d="M859.77,-182.28C846.43,-172.04 824.35,-155.09 808.09,-142.6"/>
<polygon fill="#63b8ff" stroke="#63b8ff" points="810.57,-140.09 800.5,-136.77 806.3,-145.64 810.57,-140.09"/>
</a>
</g>
</g>
<!-- Node30 -->
<g id="Node000030" class="node">
<title>Node30</title>
<g id="a_Node000030"><a xlink:title=" ">
<polygon fill="#e0e0e0" stroke="#999999" points="966.08,-135.38 920.83,-135.38 920.83,-116.12 966.08,-116.12 966.08,-135.38"/>
<text xml:space="preserve" text-anchor="middle" x="943.45" y="-121.88" font-family="Helvetica,sans-Serif" font-size="10.00">chrono</text>
</a>
</g>
</g>
<!-- Node29&#45;&gt;Node30 -->
<g id="edge41_Node000029_Node000030" class="edge">
<title>Node29&#45;&gt;Node30</title>
<g id="a_edge41_Node000029_Node000030"><a xlink:title=" ">
<path fill="none" stroke="#63b8ff" d="M881.46,-182.28C892.75,-172.17 911.32,-155.53 925.2,-143.1"/>
<polygon fill="#63b8ff" stroke="#63b8ff" points="927.28,-145.93 932.4,-136.65 922.61,-140.72 927.28,-145.93"/>
</a>
</g>
</g>
<!-- Node31 -->
<g id="Node000031" class="node">
<title>Node31</title>
<g id="a_Node000031"><a xlink:title=" ">
<polygon fill="#e0e0e0" stroke="#999999" points="1024.45,-135.38 984.45,-135.38 984.45,-116.12 1024.45,-116.12 1024.45,-135.38"/>
<text xml:space="preserve" text-anchor="middle" x="1004.45" y="-121.88" font-family="Helvetica,sans-Serif" font-size="10.00">string</text>
</a>
</g>
</g>
<!-- Node29&#45;&gt;Node31 -->
<g id="edge44_Node000029_Node000031" class="edge">
<title>Node29&#45;&gt;Node31</title>
<g id="a_edge44_Node000029_Node000031"><a xlink:title=" ">
<path fill="none" stroke="#63b8ff" d="M890.26,-182.21C911.1,-172.18 945.71,-155.49 975.45,-141 975.56,-140.95 975.67,-140.9 975.77,-140.84"/>
<polygon fill="#63b8ff" stroke="#63b8ff" points="977.25,-144.02 984.69,-136.48 974.17,-137.73 977.25,-144.02"/>
</a>
</g>
</g>
<!-- Node32&#45;&gt;Node3 -->
<g id="edge48_Node000032_Node000003" class="edge">
<title>Node32&#45;&gt;Node3</title>
<g id="a_edge48_Node000032_Node000003"><a xlink:title=" ">
<path fill="none" stroke="#63b8ff" d="M435.52,-182.28C450.59,-171.94 475.62,-154.77 493.86,-142.25"/>
<polygon fill="#63b8ff" stroke="#63b8ff" points="495.67,-145.25 501.94,-136.71 491.71,-139.48 495.67,-145.25"/>
</a>
</g>
</g>
<!-- Node32&#45;&gt;Node5 -->
<g id="edge49_Node000032_Node000005" class="edge">
<title>Node32&#45;&gt;Node5</title>
<g id="a_edge49_Node000032_Node000005"><a xlink:title=" ">
<path fill="none" stroke="#63b8ff" d="M384.89,-182.13C348.93,-173.03 293.36,-157.97 246.45,-141 214.92,-129.59 208.48,-123.21 177.45,-110.5 149.98,-99.24 118.52,-87.4 95,-78.74"/>
<polygon fill="#63b8ff" stroke="#63b8ff" points="96.48,-75.56 85.89,-75.41 94.07,-82.13 96.48,-75.56"/>
</a>
</g>
</g>
<!-- Node32&#45;&gt;Node6 -->
<g id="edge50_Node000032_Node000006" class="edge">
<title>Node32&#45;&gt;Node6</title>
<g id="a_edge50_Node000032_Node000006"><a xlink:title=" ">
<path fill="none" stroke="#63b8ff" d="M427.73,-182.28C433.35,-172.75 442.39,-157.41 449.54,-145.27"/>
<polygon fill="#63b8ff" stroke="#63b8ff" points="452.38,-147.34 454.44,-136.95 446.35,-143.79 452.38,-147.34"/>
</a>
</g>
</g>
<!-- Node32&#45;&gt;Node7 -->
<g id="edge51_Node000032_Node000007" class="edge">
<title>Node32&#45;&gt;Node7</title>
<g id="a_edge51_Node000032_Node000007"><a xlink:title=" ">
<path fill="none" stroke="#63b8ff" d="M410.91,-182.28C397.73,-172.04 375.91,-155.09 359.85,-142.6"/>
<polygon fill="#63b8ff" stroke="#63b8ff" points="362.4,-140.15 352.36,-136.78 358.1,-145.68 362.4,-140.15"/>
</a>
</g>
</g>
</g>
</svg>
