<?xml version="1.0" encoding="UTF-8" standalone="no"?>
<!DOCTYPE svg PUBLIC "-//W3C//DTD SVG 1.1//EN"
 "http://www.w3.org/Graphics/SVG/1.1/DTD/svg11.dtd">
<!-- Generated by graphviz version 14.0.1 (20251006.0113)
 -->
<!-- Title: McuUidType.hpp Pages: 1 -->
<svg width="230pt" height="248pt"
 viewBox="0.00 0.00 230.00 248.00" xmlns="http://www.w3.org/2000/svg" xmlns:xlink="http://www.w3.org/1999/xlink">
<g id="graph0" class="graph" transform="scale(1 1) rotate(0) translate(4 244.25)">
<title>McuUidType.hpp</title>
<!-- Node1 -->
<g id="Node000001" class="node">
<title>Node1</title>
<g id="a_Node000001"><a xlink:title=" ">
<polygon fill="#999999" stroke="#666666" points="154.75,-240.25 65.25,-240.25 65.25,-221 154.75,-221 154.75,-240.25"/>
<text xml:space="preserve" text-anchor="middle" x="110" y="-226.75" font-family="Helvetica,sans-Serif" font-size="10.00">McuUidType.hpp</text>
</a>
</g>
</g>
<!-- Node2 -->
<g id="Node000002" class="node">
<title>Node2</title>
<g id="a_Node000002"><a xlink:href="../../d7/ded/_rfid_data_types_8hpp.html" target="_top" xlink:title=" ">
<polygon fill="white" stroke="#666666" points="100,-185 0,-185 0,-165.75 100,-165.75 100,-185"/>
<text xml:space="preserve" text-anchor="middle" x="50" y="-171.5" font-family="Helvetica,sans-Serif" font-size="10.00">RfidDataTypes.hpp</text>
</a>
</g>
</g>
<!-- Node1&#45;&gt;Node2 -->
<g id="edge1_Node000001_Node000002" class="edge">
<title>Node1&#45;&gt;Node2</title>
<g id="a_edge1_Node000001_Node000002"><a xlink:title=" ">
<path fill="none" stroke="#63b8ff" d="M91.42,-213.14C81.06,-203.94 68.57,-192.85 60.03,-185.27"/>
<polygon fill="#63b8ff" stroke="#63b8ff" points="88.89,-215.57 98.69,-219.59 93.53,-210.33 88.89,-215.57"/>
</a>
</g>
</g>
<!-- Node6 -->
<g id="Node000006" class="node">
<title>Node6</title>
<g id="a_Node000006"><a xlink:href="../../d2/d8f/_u_i_d_packet_type_8hpp.html" target="_top" xlink:title=" ">
<polygon fill="white" stroke="#666666" points="222.25,-185 117.75,-185 117.75,-165.75 222.25,-165.75 222.25,-185"/>
<text xml:space="preserve" text-anchor="middle" x="170" y="-171.5" font-family="Helvetica,sans-Serif" font-size="10.00">UIDPacketType.hpp</text>
</a>
</g>
</g>
<!-- Node1&#45;&gt;Node6 -->
<g id="edge5_Node000001_Node000006" class="edge">
<title>Node1&#45;&gt;Node6</title>
<g id="a_edge5_Node000001_Node000006"><a xlink:title=" ">
<path fill="none" stroke="#63b8ff" d="M128.58,-213.14C138.94,-203.94 151.43,-192.85 159.97,-185.27"/>
<polygon fill="#63b8ff" stroke="#63b8ff" points="126.47,-210.33 121.31,-219.59 131.11,-215.57 126.47,-210.33"/>
</a>
</g>
</g>
<!-- Node3 -->
<g id="Node000003" class="node">
<title>Node3</title>
<g id="a_Node000003"><a xlink:href="../../d8/df0/_lacte_protocol_prototype_8hpp.html" target="_top" xlink:title=" ">
<polygon fill="white" stroke="#666666" points="178.38,-129.75 41.62,-129.75 41.62,-110.5 178.38,-110.5 178.38,-129.75"/>
<text xml:space="preserve" text-anchor="middle" x="110" y="-116.25" font-family="Helvetica,sans-Serif" font-size="10.00">LacteProtocolPrototype.hpp</text>
</a>
</g>
</g>
<!-- Node2&#45;&gt;Node3 -->
<g id="edge2_Node000002_Node000003" class="edge">
<title>Node2&#45;&gt;Node3</title>
<g id="a_edge2_Node000002_Node000003"><a xlink:title=" ">
<path fill="none" stroke="#63b8ff" d="M68.58,-157.89C78.94,-148.69 91.43,-137.6 99.97,-130.02"/>
<polygon fill="#63b8ff" stroke="#63b8ff" points="66.47,-155.08 61.31,-164.34 71.11,-160.32 66.47,-155.08"/>
</a>
</g>
</g>
<!-- Node4 -->
<g id="Node000004" class="node">
<title>Node4</title>
<g id="a_Node000004"><a xlink:href="../../dc/d95/_lacte_protocol_8hpp.html" target="_top" xlink:title=" ">
<polygon fill="white" stroke="#666666" points="157.38,-74.5 62.62,-74.5 62.62,-55.25 157.38,-55.25 157.38,-74.5"/>
<text xml:space="preserve" text-anchor="middle" x="110" y="-61" font-family="Helvetica,sans-Serif" font-size="10.00">LacteProtocol.hpp</text>
</a>
</g>
</g>
<!-- Node3&#45;&gt;Node4 -->
<g id="edge3_Node000003_Node000004" class="edge">
<title>Node3&#45;&gt;Node4</title>
<g id="a_edge3_Node000003_Node000004"><a xlink:title=" ">
<path fill="none" stroke="#63b8ff" d="M110,-98.88C110,-90.59 110,-81.42 110,-74.86"/>
<polygon fill="#63b8ff" stroke="#63b8ff" points="106.5,-98.82 110,-108.82 113.5,-98.82 106.5,-98.82"/>
</a>
</g>
</g>
<!-- Node5 -->
<g id="Node000005" class="node">
<title>Node5</title>
<g id="a_Node000005"><a xlink:href="../../db/dc5/_virtual_board_8hpp.html" target="_top" xlink:title=" ">
<polygon fill="white" stroke="#666666" points="154,-19.25 66,-19.25 66,0 154,0 154,-19.25"/>
<text xml:space="preserve" text-anchor="middle" x="110" y="-5.75" font-family="Helvetica,sans-Serif" font-size="10.00">VirtualBoard.hpp</text>
</a>
</g>
</g>
<!-- Node4&#45;&gt;Node5 -->
<g id="edge4_Node000004_Node000005" class="edge">
<title>Node4&#45;&gt;Node5</title>
<g id="a_edge4_Node000004_Node000005"><a xlink:title=" ">
<path fill="none" stroke="#63b8ff" d="M110,-43.63C110,-35.34 110,-26.17 110,-19.61"/>
<polygon fill="#63b8ff" stroke="#63b8ff" points="106.5,-43.57 110,-53.57 113.5,-43.57 106.5,-43.57"/>
</a>
</g>
</g>
<!-- Node6&#45;&gt;Node3 -->
<g id="edge6_Node000006_Node000003" class="edge">
<title>Node6&#45;&gt;Node3</title>
<g id="a_edge6_Node000006_Node000003"><a xlink:title=" ">
<path fill="none" stroke="#63b8ff" d="M151.42,-157.89C141.06,-148.69 128.57,-137.6 120.03,-130.02"/>
<polygon fill="#63b8ff" stroke="#63b8ff" points="148.89,-160.32 158.69,-164.34 153.53,-155.08 148.89,-160.32"/>
</a>
</g>
</g>
</g>
</svg>
