<?xml version="1.0" encoding="UTF-8" standalone="no"?>
<!DOCTYPE svg PUBLIC "-//W3C//DTD SVG 1.1//EN"
 "http://www.w3.org/Graphics/SVG/1.1/DTD/svg11.dtd">
<!-- Generated by graphviz version 14.0.1 (20251006.0113)
 -->
<!-- Title: McuUidType.hpp Pages: 1 -->
<svg width="473pt" height="138pt"
 viewBox="0.00 0.00 473.00 138.00" xmlns="http://www.w3.org/2000/svg" xmlns:xlink="http://www.w3.org/1999/xlink">
<g id="graph0" class="graph" transform="scale(1 1) rotate(0) translate(4 133.75)">
<title>McuUidType.hpp</title>
<!-- Node1 -->
<g id="Node000001" class="node">
<title>Node1</title>
<g id="a_Node000001"><a xlink:title=" ">
<polygon fill="#999999" stroke="#666666" points="204.62,-129.75 115.12,-129.75 115.12,-110.5 204.62,-110.5 204.62,-129.75"/>
<text xml:space="preserve" text-anchor="middle" x="159.88" y="-116.25" font-family="Helvetica,sans-Serif" font-size="10.00">McuUidType.hpp</text>
</a>
</g>
</g>
<!-- Node2 -->
<g id="Node000002" class="node">
<title>Node2</title>
<g id="a_Node000002"><a xlink:title=" ">
<polygon fill="#e0e0e0" stroke="#999999" points="55.75,-74.5 0,-74.5 0,-55.25 55.75,-55.25 55.75,-74.5"/>
<text xml:space="preserve" text-anchor="middle" x="27.88" y="-61" font-family="Helvetica,sans-Serif" font-size="10.00">algorithm</text>
</a>
</g>
</g>
<!-- Node1&#45;&gt;Node2 -->
<g id="edge1_Node000001_Node000002" class="edge">
<title>Node1&#45;&gt;Node2</title>
<g id="a_edge1_Node000001_Node000002"><a xlink:title=" ">
<path fill="none" stroke="#63b8ff" d="M137.48,-110.09C116.43,-101.6 84.67,-88.79 60.75,-79.14"/>
<polygon fill="#63b8ff" stroke="#63b8ff" points="62.36,-76.01 51.78,-75.52 59.74,-82.51 62.36,-76.01"/>
</a>
</g>
</g>
<!-- Node3 -->
<g id="Node000003" class="node">
<title>Node3</title>
<g id="a_Node000003"><a xlink:title=" ">
<polygon fill="#e0e0e0" stroke="#999999" points="52.75,-19.25 15,-19.25 15,0 52.75,0 52.75,-19.25"/>
<text xml:space="preserve" text-anchor="middle" x="33.88" y="-5.75" font-family="Helvetica,sans-Serif" font-size="10.00">array</text>
</a>
</g>
</g>
<!-- Node1&#45;&gt;Node3 -->
<g id="edge2_Node000001_Node000003" class="edge">
<title>Node1&#45;&gt;Node3</title>
<g id="a_edge2_Node000001_Node000003"><a xlink:title=" ">
<path fill="none" stroke="#63b8ff" d="M149.56,-110.25C128.43,-92.05 79.91,-50.27 52.9,-27.01"/>
<polygon fill="#63b8ff" stroke="#63b8ff" points="55.34,-24.49 45.48,-20.61 50.77,-29.79 55.34,-24.49"/>
</a>
</g>
</g>
<!-- Node4 -->
<g id="Node000004" class="node">
<title>Node4</title>
<g id="a_Node000004"><a xlink:title=" ">
<polygon fill="#e0e0e0" stroke="#999999" points="119,-19.25 70.75,-19.25 70.75,0 119,0 119,-19.25"/>
<text xml:space="preserve" text-anchor="middle" x="94.88" y="-5.75" font-family="Helvetica,sans-Serif" font-size="10.00">cstddef</text>
</a>
</g>
</g>
<!-- Node1&#45;&gt;Node4 -->
<g id="edge3_Node000001_Node000004" class="edge">
<title>Node1&#45;&gt;Node4</title>
<g id="a_edge3_Node000001_Node000004"><a xlink:title=" ">
<path fill="none" stroke="#63b8ff" d="M154.56,-110.25C143.99,-92.6 120.14,-52.8 106,-29.2"/>
<polygon fill="#63b8ff" stroke="#63b8ff" points="109.19,-27.7 101.05,-20.93 103.18,-31.3 109.19,-27.7"/>
</a>
</g>
</g>
<!-- Node5 -->
<g id="Node000005" class="node">
<title>Node5</title>
<g id="a_Node000005"><a xlink:title=" ">
<polygon fill="#e0e0e0" stroke="#999999" points="182.5,-19.25 137.25,-19.25 137.25,0 182.5,0 182.5,-19.25"/>
<text xml:space="preserve" text-anchor="middle" x="159.88" y="-5.75" font-family="Helvetica,sans-Serif" font-size="10.00">cstdint</text>
</a>
</g>
</g>
<!-- Node1&#45;&gt;Node5 -->
<g id="edge4_Node000001_Node000005" class="edge">
<title>Node1&#45;&gt;Node5</title>
<g id="a_edge4_Node000001_Node000005"><a xlink:title=" ">
<path fill="none" stroke="#63b8ff" d="M159.88,-110.25C159.88,-93 159.88,-54.58 159.88,-30.81"/>
<polygon fill="#63b8ff" stroke="#63b8ff" points="163.38,-31.14 159.88,-21.14 156.38,-31.14 163.38,-31.14"/>
</a>
</g>
</g>
<!-- Node6 -->
<g id="Node000006" class="node">
<title>Node6</title>
<g id="a_Node000006"><a xlink:title=" ">
<polygon fill="#e0e0e0" stroke="#999999" points="357.5,-74.5 312.25,-74.5 312.25,-55.25 357.5,-55.25 357.5,-74.5"/>
<text xml:space="preserve" text-anchor="middle" x="334.88" y="-61" font-family="Helvetica,sans-Serif" font-size="10.00">cstring</text>
</a>
</g>
</g>
<!-- Node1&#45;&gt;Node6 -->
<g id="edge5_Node000001_Node000006" class="edge">
<title>Node1&#45;&gt;Node6</title>
<g id="a_edge5_Node000001_Node000006"><a xlink:title=" ">
<path fill="none" stroke="#63b8ff" d="M189.56,-110.09C220.44,-100.7 268.71,-86.01 301.04,-76.17"/>
<polygon fill="#63b8ff" stroke="#63b8ff" points="301.77,-79.61 310.32,-73.35 299.73,-72.91 301.77,-79.61"/>
</a>
</g>
</g>
<!-- Node7 -->
<g id="Node000007" class="node">
<title>Node7</title>
<g id="a_Node000007"><a xlink:title=" ">
<polygon fill="#e0e0e0" stroke="#999999" points="464.88,-19.25 424.88,-19.25 424.88,0 464.88,0 464.88,-19.25"/>
<text xml:space="preserve" text-anchor="middle" x="444.88" y="-5.75" font-family="Helvetica,sans-Serif" font-size="10.00">string</text>
</a>
</g>
</g>
<!-- Node1&#45;&gt;Node7 -->
<g id="edge6_Node000001_Node000007" class="edge">
<title>Node1&#45;&gt;Node7</title>
<g id="a_edge6_Node000001_Node000007"><a xlink:title=" ">
<path fill="none" stroke="#63b8ff" d="M182.19,-110.15C203.58,-101.43 236.68,-87.62 264.88,-74.5 282.04,-66.52 285.34,-62.39 302.88,-55.25 313.3,-51 375.35,-31.85 413.9,-20.06"/>
<polygon fill="#63b8ff" stroke="#63b8ff" points="414.57,-23.52 423.11,-17.25 412.52,-16.82 414.57,-23.52"/>
</a>
</g>
</g>
<!-- Node8 -->
<g id="Node000008" class="node">
<title>Node8</title>
<g id="a_Node000008"><a xlink:href="../../dd/d07/_helpers_8hpp.html" target="_top" xlink:title=" ">
<polygon fill="white" stroke="#666666" points="256.12,-74.5 187.62,-74.5 187.62,-55.25 256.12,-55.25 256.12,-74.5"/>
<text xml:space="preserve" text-anchor="middle" x="221.88" y="-61" font-family="Helvetica,sans-Serif" font-size="10.00">Helpers.hpp</text>
</a>
</g>
</g>
<!-- Node1&#45;&gt;Node8 -->
<g id="edge7_Node000001_Node000008" class="edge">
<title>Node1&#45;&gt;Node8</title>
<g id="a_edge7_Node000001_Node000008"><a xlink:title=" ">
<path fill="none" stroke="#63b8ff" d="M170.39,-110.09C179.26,-102.47 192.19,-91.37 202.86,-82.2"/>
<polygon fill="#63b8ff" stroke="#63b8ff" points="205.06,-84.93 210.36,-75.76 200.5,-79.62 205.06,-84.93"/>
</a>
</g>
</g>
<!-- Node8&#45;&gt;Node3 -->
<g id="edge8_Node000008_Node000003" class="edge">
<title>Node8&#45;&gt;Node3</title>
<g id="a_edge8_Node000008_Node000003"><a xlink:title=" ">
<path fill="none" stroke="#63b8ff" d="M188.4,-54.82C158.25,-46.6 112.47,-33.97 64.14,-19.86"/>
<polygon fill="#63b8ff" stroke="#63b8ff" points="65.17,-16.51 54.59,-17.06 63.2,-23.23 65.17,-16.51"/>
</a>
</g>
</g>
<!-- Node8&#45;&gt;Node4 -->
<g id="edge9_Node000008_Node000004" class="edge">
<title>Node8&#45;&gt;Node4</title>
<g id="a_edge9_Node000008_Node000004"><a xlink:title=" ">
<path fill="none" stroke="#63b8ff" d="M200.33,-54.84C180.26,-46.43 150.07,-33.77 127.13,-24.15"/>
<polygon fill="#63b8ff" stroke="#63b8ff" points="128.5,-20.93 117.92,-20.29 125.79,-27.38 128.5,-20.93"/>
</a>
</g>
</g>
<!-- Node8&#45;&gt;Node5 -->
<g id="edge10_Node000008_Node000005" class="edge">
<title>Node8&#45;&gt;Node5</title>
<g id="a_edge10_Node000008_Node000005"><a xlink:title=" ">
<path fill="none" stroke="#63b8ff" d="M211.36,-54.84C202.49,-47.22 189.56,-36.12 178.89,-26.95"/>
<polygon fill="#63b8ff" stroke="#63b8ff" points="181.25,-24.37 171.39,-20.51 176.69,-29.68 181.25,-24.37"/>
</a>
</g>
</g>
<!-- Node8&#45;&gt;Node7 -->
<g id="edge13_Node000008_Node000007" class="edge">
<title>Node8&#45;&gt;Node7</title>
<g id="a_edge13_Node000008_Node000007"><a xlink:title=" ">
<path fill="none" stroke="#63b8ff" d="M256.38,-56.63C293.09,-48.76 353.11,-35.48 413.72,-19.69"/>
<polygon fill="#63b8ff" stroke="#63b8ff" points="414.39,-23.13 423.18,-17.21 412.61,-16.36 414.39,-23.13"/>
</a>
</g>
</g>
<!-- Node9 -->
<g id="Node000009" class="node">
<title>Node9</title>
<g id="a_Node000009"><a xlink:title=" ">
<polygon fill="#e0e0e0" stroke="#999999" points="250.75,-19.25 201,-19.25 201,0 250.75,0 250.75,-19.25"/>
<text xml:space="preserve" text-anchor="middle" x="225.88" y="-5.75" font-family="Helvetica,sans-Serif" font-size="10.00">iomanip</text>
</a>
</g>
</g>
<!-- Node8&#45;&gt;Node9 -->
<g id="edge11_Node000008_Node000009" class="edge">
<title>Node8&#45;&gt;Node9</title>
<g id="a_edge11_Node000008_Node000009"><a xlink:title=" ">
<path fill="none" stroke="#63b8ff" d="M222.54,-55.08C223.03,-48.49 223.73,-39.21 224.36,-30.82"/>
<polygon fill="#63b8ff" stroke="#63b8ff" points="227.83,-31.35 225.09,-21.12 220.85,-30.83 227.83,-31.35"/>
</a>
</g>
</g>
<!-- Node10 -->
<g id="Node000010" class="node">
<title>Node10</title>
<g id="a_Node000010"><a xlink:title=" ">
<polygon fill="#e0e0e0" stroke="#999999" points="322.62,-19.25 269.12,-19.25 269.12,0 322.62,0 322.62,-19.25"/>
<text xml:space="preserve" text-anchor="middle" x="295.88" y="-5.75" font-family="Helvetica,sans-Serif" font-size="10.00">iostream</text>
</a>
</g>
</g>
<!-- Node8&#45;&gt;Node10 -->
<g id="edge12_Node000008_Node000010" class="edge">
<title>Node8&#45;&gt;Node10</title>
<g id="a_edge12_Node000008_Node000010"><a xlink:title=" ">
<path fill="none" stroke="#63b8ff" d="M234.43,-54.84C245.34,-46.99 261.38,-35.45 274.34,-26.12"/>
<polygon fill="#63b8ff" stroke="#63b8ff" points="276.21,-29.09 282.28,-20.41 272.12,-23.41 276.21,-29.09"/>
</a>
</g>
</g>
<!-- Node11 -->
<g id="Node000011" class="node">
<title>Node11</title>
<g id="a_Node000011"><a xlink:title=" ">
<polygon fill="#e0e0e0" stroke="#999999" points="406.62,-19.25 341.12,-19.25 341.12,0 406.62,0 406.62,-19.25"/>
<text xml:space="preserve" text-anchor="middle" x="373.88" y="-5.75" font-family="Helvetica,sans-Serif" font-size="10.00">string_view</text>
</a>
</g>
</g>
<!-- Node8&#45;&gt;Node11 -->
<g id="edge14_Node000008_Node000011" class="edge">
<title>Node8&#45;&gt;Node11</title>
<g id="a_edge14_Node000008_Node000011"><a xlink:title=" ">
<path fill="none" stroke="#63b8ff" d="M247.66,-54.84C272.23,-46.24 309.46,-33.19 337.13,-23.5"/>
<polygon fill="#63b8ff" stroke="#63b8ff" points="338.25,-26.81 346.54,-20.2 335.94,-20.21 338.25,-26.81"/>
</a>
</g>
</g>
</g>
</svg>
