<?xml version="1.0" encoding="UTF-8" standalone="no"?>
<!DOCTYPE svg PUBLIC "-//W3C//DTD SVG 1.1//EN"
 "http://www.w3.org/Graphics/SVG/1.1/DTD/svg11.dtd">
<!-- Generated by graphviz version 14.0.1 (20251006.0113)
 -->
<!-- Title: proto::lacte::TimeCounter::TimeCounter Pages: 1 -->
<svg width="298pt" height="186pt"
 viewBox="0.00 0.00 298.00 186.00" xmlns="http://www.w3.org/2000/svg" xmlns:xlink="http://www.w3.org/1999/xlink">

<svg id="main" version="1.1" xmlns="http://www.w3.org/2000/svg" xmlns:xlink="http://www.w3.org/1999/xlink" xml:space="preserve">

<style type="text/css"><![CDATA[
.node, .edge {opacity: 0.7;}
.node.selected, .edge.selected {opacity: 1;}
.edge:hover path { stroke: red; }
.edge:hover polygon { stroke: red; fill: red; }
]]></style>
<script type="application/ecmascript" xlink:href="../../svg.min.js"/>
<svg id="graph" class="graph">
<g id="graph0" class="graph" transform="scale(1 1) rotate(0) translate(4 181.5)">
<title>proto::lacte::TimeCounter::TimeCounter</title>
<!-- Node1 -->
<g id="Node000001" class="node">
<title>Node1</title>
<g id="a_Node000001"><a xlink:title=" ">
<polygon fill="#999999" stroke="#666666" points="290,-103.5 163,-103.5 163,-73 290,-73 290,-103.5"/>
<text xml:space="preserve" text-anchor="start" x="171" y="-90" font-family="Helvetica,sans-Serif" font-size="10.00">proto::lacte::TimeCounter</text>
<text xml:space="preserve" text-anchor="middle" x="226.5" y="-78.75" font-family="Helvetica,sans-Serif" font-size="10.00">::TimeCounter</text>
</a>
</g>
</g>
<!-- Node2 -->
<g id="Node000002" class="node">
<title>Node2</title>
<g id="a_Node000002"><a xlink:href="../../dc/dc4/structproto_1_1lacte_1_1_time_counter.html#ac662845b35e1fab1014810809d097e9f" target="_top" xlink:title=" ">
<polygon fill="white" stroke="#666666" points="127,-177.5 0,-177.5 0,-147 127,-147 127,-177.5"/>
<text xml:space="preserve" text-anchor="start" x="8" y="-164" font-family="Helvetica,sans-Serif" font-size="10.00">proto::lacte::TimeCounter</text>
<text xml:space="preserve" text-anchor="middle" x="63.5" y="-152.75" font-family="Helvetica,sans-Serif" font-size="10.00">::operator!=</text>
</a>
</g>
</g>
<!-- Node1&#45;&gt;Node2 -->
<g id="edge1_Node000001_Node000002" class="edge">
<title>Node1&#45;&gt;Node2</title>
<g id="a_edge1_Node000001_Node000002"><a xlink:title=" ">
<path fill="none" stroke="#63b8ff" d="M185.6,-109.02C167.82,-118.03 146.53,-128.51 127,-137.25 119.96,-140.4 112.4,-143.59 105.05,-146.59"/>
<polygon fill="#63b8ff" stroke="#63b8ff" points="186.96,-112.25 194.28,-104.59 183.78,-106.02 186.96,-112.25"/>
</a>
</g>
</g>
<!-- Node3 -->
<g id="Node000003" class="node">
<title>Node3</title>
<g id="a_Node000003"><a xlink:href="../../dc/dc4/structproto_1_1lacte_1_1_time_counter.html#ab39fd4af8e63119e5036b29666bf3ef4" target="_top" xlink:title=" ">
<polygon fill="white" stroke="#666666" points="127,-128.5 0,-128.5 0,-98 127,-98 127,-128.5"/>
<text xml:space="preserve" text-anchor="start" x="8" y="-115" font-family="Helvetica,sans-Serif" font-size="10.00">proto::lacte::TimeCounter</text>
<text xml:space="preserve" text-anchor="middle" x="63.5" y="-103.75" font-family="Helvetica,sans-Serif" font-size="10.00">::operator&lt;&lt;</text>
</a>
</g>
</g>
<!-- Node1&#45;&gt;Node3 -->
<g id="edge2_Node000001_Node000003" class="edge">
<title>Node1&#45;&gt;Node3</title>
<g id="a_edge2_Node000001_Node000003"><a xlink:title=" ">
<path fill="none" stroke="#63b8ff" d="M151.47,-99.75C143.39,-101 135.22,-102.27 127.3,-103.5"/>
<polygon fill="#63b8ff" stroke="#63b8ff" points="151.95,-103.21 161.3,-98.22 150.88,-96.3 151.95,-103.21"/>
</a>
</g>
</g>
<!-- Node4 -->
<g id="Node000004" class="node">
<title>Node4</title>
<g id="a_Node000004"><a xlink:href="../../dc/dc4/structproto_1_1lacte_1_1_time_counter.html#a3f1d10f7238a0e2c6f02e1cdde67e367" target="_top" xlink:title=" ">
<polygon fill="white" stroke="#666666" points="127,-79.5 0,-79.5 0,-49 127,-49 127,-79.5"/>
<text xml:space="preserve" text-anchor="start" x="8" y="-66" font-family="Helvetica,sans-Serif" font-size="10.00">proto::lacte::TimeCounter</text>
<text xml:space="preserve" text-anchor="middle" x="63.5" y="-54.75" font-family="Helvetica,sans-Serif" font-size="10.00">::operator==</text>
</a>
</g>
</g>
<!-- Node1&#45;&gt;Node4 -->
<g id="edge3_Node000001_Node000004" class="edge">
<title>Node1&#45;&gt;Node4</title>
<g id="a_edge3_Node000001_Node000004"><a xlink:title=" ">
<path fill="none" stroke="#63b8ff" d="M151.47,-77.21C143.39,-76.01 135.22,-74.79 127.3,-73.61"/>
<polygon fill="#63b8ff" stroke="#63b8ff" points="150.89,-80.67 161.3,-78.68 151.92,-73.74 150.89,-80.67"/>
</a>
</g>
</g>
<!-- Node5 -->
<g id="Node000005" class="node">
<title>Node5</title>
<g id="a_Node000005"><a xlink:href="../../dc/dc4/structproto_1_1lacte_1_1_time_counter.html#a823032771ef05ade9ee83429508eed51" target="_top" xlink:title=" ">
<polygon fill="white" stroke="#666666" points="127,-30.5 0,-30.5 0,0 127,0 127,-30.5"/>
<text xml:space="preserve" text-anchor="start" x="8" y="-17" font-family="Helvetica,sans-Serif" font-size="10.00">proto::lacte::TimeCounter</text>
<text xml:space="preserve" text-anchor="middle" x="63.5" y="-5.75" font-family="Helvetica,sans-Serif" font-size="10.00">::TimeCounter</text>
</a>
</g>
</g>
<!-- Node1&#45;&gt;Node5 -->
<g id="edge4_Node000001_Node000005" class="edge">
<title>Node1&#45;&gt;Node5</title>
<g id="a_edge4_Node000001_Node000005"><a xlink:title=" ">
<path fill="none" stroke="#63b8ff" d="M184.76,-67.57C167.14,-58.84 146.19,-48.75 127,-40.25 119.95,-37.13 112.38,-33.95 105.03,-30.96"/>
<polygon fill="#63b8ff" stroke="#63b8ff" points="182.85,-70.53 193.36,-71.86 185.97,-64.26 182.85,-70.53"/>
</a>
</g>
</g>
</g>
</svg>
</svg>

<style type='text/css'>
<![CDATA[
[data-mouse-over-selected='false'] { opacity: 0.7; }
[data-mouse-over-selected='true']  { opacity: 1.0; }
]]>
</style>
<script type="application/ecmascript"><![CDATA[
document.addEventListener('DOMContentLoaded', (event) => {
  highlightEdges();
  highlightAdjacentNodes();
});
]]></script>
</svg>
