<?xml version="1.0" encoding="UTF-8" standalone="no"?>
<!DOCTYPE svg PUBLIC "-//W3C//DTD SVG 1.1//EN"
 "http://www.w3.org/Graphics/SVG/1.1/DTD/svg11.dtd">
<!-- Generated by graphviz version 14.0.1 (20251006.0113)
 -->
<!-- Title: DataField.hpp Pages: 1 -->
<!--zoomable 193 -->

<svg id="main" version="1.1" xmlns="http://www.w3.org/2000/svg" xmlns:xlink="http://www.w3.org/1999/xlink" xml:space="preserve" onload="init(evt)">

<style type="text/css"><![CDATA[
.node, .edge {opacity: 0.7;}
.node.selected, .edge.selected {opacity: 1;}
.edge:hover path { stroke: red; }
.edge:hover polygon { stroke: red; fill: red; }
]]></style>

<defs>
  <circle id="rim" cx="0" cy="0" r="7"/>
  <circle id="rim2" cx="0" cy="0" r="3.5"/>
  <g id="zoomPlus">
    <use xlink:href="#rim" fill="#404040"><set attributeName="fill" to="#808080" begin="zoomplus.mouseover" end="zoomplus.mouseout"/></use>
    <path d="M-4,0h8M0,-4v8" fill="none" stroke="white" stroke-width="1.5" pointer-events="none"/>
  </g>
  <g id="zoomMin">
    <use xlink:href="#rim" fill="#404040"><set attributeName="fill" to="#808080" begin="zoomminus.mouseover" end="zoomminus.mouseout"/></use>
    <path d="M-4,0h8" fill="none" stroke="white" stroke-width="1.5" pointer-events="none"/>
  </g>
  <g id="arrowUp" transform="translate(30 24)">
    <use xlink:href="#rim"/>
    <path pointer-events="none" fill="none" stroke="white" stroke-width="1.5" d="M0,-3.0v7 M-2.5,-0.5L0,-3.0L2.5,-0.5"/>
  </g>
  <g id="arrowRight" transform="rotate(90) translate(36 -43)">
    <use xlink:href="#rim"/>
    <path pointer-events="none" fill="none" stroke="white" stroke-width="1.5" d="M0,-3.0v7 M-2.5,-0.5L0,-3.0L2.5,-0.5"/>
  </g>
  <g id="arrowDown" transform="rotate(180) translate(-30 -48)">
    <use xlink:href="#rim"/>
    <path pointer-events="none" fill="none" stroke="white" stroke-width="1.5" d="M0,-3.0v7 M-2.5,-0.5L0,-3.0L2.5,-0.5"/>
  </g>
  <g id="arrowLeft" transform="rotate(270) translate(-36 17)">
    <use xlink:href="#rim"/>
    <path pointer-events="none" fill="none" stroke="white" stroke-width="1.5" d="M0,-3.0v7 M-2.5,-0.5L0,-3.0L2.5,-0.5"/>
  </g>
  <g id="resetDef">
    <use xlink:href="#rim2" fill="#404040"><set attributeName="fill" to="#808080" begin="reset.mouseover" end="reset.mouseout"/></use>
  </g>
</defs>
<script type="application/ecmascript">
var viewWidth = 888;
var viewHeight = 193;
var sectionId = 'dynsection-0';
</script>
<script type="application/ecmascript" xlink:href="../../svg.min.js"/>
<svg id="graph" class="graph">
<g id="viewport">
<title>DataField.hpp</title>
<!-- Node1 -->
<g id="Node000001" class="node">
<title>Node1</title>
<g id="a_Node000001"><a xlink:title="Variant DATA field that maps protocol IDs to payload types at compile time.">
<polygon fill="#999999" stroke="#666666" points="308.88,-185 232.12,-185 232.12,-165.75 308.88,-165.75 308.88,-185"/>
<text xml:space="preserve" text-anchor="middle" x="270.5" y="-171.5" font-family="Helvetica,sans-Serif" font-size="10.00">DataField.hpp</text>
</a>
</g>
</g>
<!-- Node2 -->
<g id="Node000002" class="node">
<title>Node2</title>
<g id="a_Node000002"><a xlink:title=" ">
<polygon fill="#e0e0e0" stroke="#999999" points="371.12,-74.5 325.88,-74.5 325.88,-55.25 371.12,-55.25 371.12,-74.5"/>
<text xml:space="preserve" text-anchor="middle" x="348.5" y="-61" font-family="Helvetica,sans-Serif" font-size="10.00">cstring</text>
</a>
</g>
</g>
<!-- Node1&#45;&gt;Node2 -->
<g id="edge1_Node000001_Node000002" class="edge">
<title>Node1&#45;&gt;Node2</title>
<g id="a_edge1_Node000001_Node000002"><a xlink:title=" ">
<path fill="none" stroke="#63b8ff" d="M276.88,-165.5C289.62,-147.77 318.44,-107.69 335.38,-84.13"/>
<polygon fill="#63b8ff" stroke="#63b8ff" points="338.15,-86.27 341.15,-76.11 332.47,-82.18 338.15,-86.27"/>
</a>
</g>
</g>
<!-- Node3 -->
<g id="Node000003" class="node">
<title>Node3</title>
<g id="a_Node000003"><a xlink:title=" ">
<polygon fill="#e0e0e0" stroke="#999999" points="37,-74.5 0,-74.5 0,-55.25 37,-55.25 37,-74.5"/>
<text xml:space="preserve" text-anchor="middle" x="18.5" y="-61" font-family="Helvetica,sans-Serif" font-size="10.00">tuple</text>
</a>
</g>
</g>
<!-- Node1&#45;&gt;Node3 -->
<g id="edge2_Node000001_Node000003" class="edge">
<title>Node1&#45;&gt;Node3</title>
<g id="a_edge2_Node000001_Node000003"><a xlink:title=" ">
<path fill="none" stroke="#63b8ff" d="M231.71,-170.23C193.9,-164.96 135.66,-153.51 90.5,-129.75 67.97,-117.89 46.75,-97.52 33.26,-82.97"/>
<polygon fill="#63b8ff" stroke="#63b8ff" points="36.22,-81.02 26.94,-75.92 31.01,-85.7 36.22,-81.02"/>
</a>
</g>
</g>
<!-- Node4 -->
<g id="Node000004" class="node">
<title>Node4</title>
<g id="a_Node000004"><a xlink:title=" ">
<polygon fill="#e0e0e0" stroke="#999999" points="247.38,-74.5 185.62,-74.5 185.62,-55.25 247.38,-55.25 247.38,-74.5"/>
<text xml:space="preserve" text-anchor="middle" x="216.5" y="-61" font-family="Helvetica,sans-Serif" font-size="10.00">type_traits</text>
</a>
</g>
</g>
<!-- Node1&#45;&gt;Node4 -->
<g id="edge3_Node000001_Node000004" class="edge">
<title>Node1&#45;&gt;Node4</title>
<g id="a_edge3_Node000001_Node000004"><a xlink:title=" ">
<path fill="none" stroke="#63b8ff" d="M266.08,-165.5C257.38,-148.01 237.85,-108.77 226.06,-85.09"/>
<polygon fill="#63b8ff" stroke="#63b8ff" points="229.24,-83.62 221.65,-76.23 222.98,-86.74 229.24,-83.62"/>
</a>
</g>
</g>
<!-- Node5 -->
<g id="Node000005" class="node">
<title>Node5</title>
<g id="a_Node000005"><a xlink:title=" ">
<polygon fill="#e0e0e0" stroke="#999999" points="308,-74.5 265,-74.5 265,-55.25 308,-55.25 308,-74.5"/>
<text xml:space="preserve" text-anchor="middle" x="286.5" y="-61" font-family="Helvetica,sans-Serif" font-size="10.00">vector</text>
</a>
</g>
</g>
<!-- Node1&#45;&gt;Node5 -->
<g id="edge4_Node000001_Node000005" class="edge">
<title>Node1&#45;&gt;Node5</title>
<g id="a_edge4_Node000001_Node000005"><a xlink:title=" ">
<path fill="none" stroke="#63b8ff" d="M271.81,-165.5C274.35,-148.25 280.02,-109.83 283.52,-86.06"/>
<polygon fill="#63b8ff" stroke="#63b8ff" points="286.96,-86.78 284.95,-76.37 280.03,-85.76 286.96,-86.78"/>
</a>
</g>
</g>
<!-- Node6 -->
<g id="Node000006" class="node">
<title>Node6</title>
<g id="a_Node000006"><a xlink:href="../../d6/d02/_unique_variant_8hpp.html" target="_top" xlink:title=" ">
<polygon fill="white" stroke="#666666" points="195.25,-129.75 99.75,-129.75 99.75,-110.5 195.25,-110.5 195.25,-129.75"/>
<text xml:space="preserve" text-anchor="middle" x="147.5" y="-116.25" font-family="Helvetica,sans-Serif" font-size="10.00">UniqueVariant.hpp</text>
</a>
</g>
</g>
<!-- Node1&#45;&gt;Node6 -->
<g id="edge5_Node000001_Node000006" class="edge">
<title>Node1&#45;&gt;Node6</title>
<g id="a_edge5_Node000001_Node000006"><a xlink:title=" ">
<path fill="none" stroke="#63b8ff" d="M249.63,-165.34C230.2,-156.93 200.96,-144.27 178.74,-134.65"/>
<polygon fill="#63b8ff" stroke="#63b8ff" points="180.42,-131.56 169.86,-130.8 177.64,-137.99 180.42,-131.56"/>
</a>
</g>
</g>
<!-- Node9 -->
<g id="Node000009" class="node">
<title>Node9</title>
<g id="a_Node000009"><a xlink:href="../../d3/d6e/_field_prototype_8hpp.html" target="_top" xlink:title="FieldPrototype template for describing and handling protocol fields.">
<polygon fill="white" stroke="#666666" points="563.25,-129.75 395.75,-129.75 395.75,-110.5 563.25,-110.5 563.25,-129.75"/>
<text xml:space="preserve" text-anchor="middle" x="479.5" y="-116.25" font-family="Helvetica,sans-Serif" font-size="10.00">prototypes/field/FieldPrototype.hpp</text>
</a>
</g>
</g>
<!-- Node1&#45;&gt;Node9 -->
<g id="edge11_Node000001_Node000009" class="edge">
<title>Node1&#45;&gt;Node9</title>
<g id="a_edge11_Node000001_Node000009"><a xlink:title=" ">
<path fill="none" stroke="#63b8ff" d="M305.95,-165.34C340.93,-156.43 394.6,-142.76 432.98,-132.98"/>
<polygon fill="#63b8ff" stroke="#63b8ff" points="433.58,-136.44 442.41,-130.58 431.85,-129.65 433.58,-136.44"/>
</a>
</g>
</g>
<!-- Node6&#45;&gt;Node3 -->
<g id="edge7_Node000006_Node000003" class="edge">
<title>Node6&#45;&gt;Node3</title>
<g id="a_edge7_Node000006_Node000003"><a xlink:title=" ">
<path fill="none" stroke="#63b8ff" d="M125.62,-110.09C104.15,-101.23 71.27,-87.66 47.6,-77.89"/>
<polygon fill="#63b8ff" stroke="#63b8ff" points="49.11,-74.73 38.53,-74.14 46.44,-81.2 49.11,-74.73"/>
</a>
</g>
</g>
<!-- Node6&#45;&gt;Node4 -->
<g id="edge8_Node000006_Node000004" class="edge">
<title>Node6&#45;&gt;Node4</title>
<g id="a_edge8_Node000006_Node000004"><a xlink:title=" ">
<path fill="none" stroke="#63b8ff" d="M159.2,-110.09C169.28,-102.32 184.04,-90.92 196.06,-81.65"/>
<polygon fill="#63b8ff" stroke="#63b8ff" points="197.99,-84.58 203.77,-75.7 193.71,-79.04 197.99,-84.58"/>
</a>
</g>
</g>
<!-- Node6&#45;&gt;Node5 -->
<g id="edge10_Node000006_Node000005" class="edge">
<title>Node6&#45;&gt;Node5</title>
<g id="a_edge10_Node000006_Node000005"><a xlink:title=" ">
<path fill="none" stroke="#63b8ff" d="M171.08,-110.09C193.88,-101.36 228.63,-88.04 254.04,-78.31"/>
<polygon fill="#63b8ff" stroke="#63b8ff" points="255.14,-81.64 263.23,-74.79 252.64,-75.1 255.14,-81.64"/>
</a>
</g>
</g>
<!-- Node7 -->
<g id="Node000007" class="node">
<title>Node7</title>
<g id="a_Node000007"><a xlink:title=" ">
<polygon fill="#e0e0e0" stroke="#999999" points="103.62,-74.5 55.38,-74.5 55.38,-55.25 103.62,-55.25 103.62,-74.5"/>
<text xml:space="preserve" text-anchor="middle" x="79.5" y="-61" font-family="Helvetica,sans-Serif" font-size="10.00">cstddef</text>
</a>
</g>
</g>
<!-- Node6&#45;&gt;Node7 -->
<g id="edge6_Node000006_Node000007" class="edge">
<title>Node6&#45;&gt;Node7</title>
<g id="a_edge6_Node000006_Node000007"><a xlink:title=" ">
<path fill="none" stroke="#63b8ff" d="M135.96,-110.09C126.04,-102.32 111.49,-90.92 99.64,-81.65"/>
<polygon fill="#63b8ff" stroke="#63b8ff" points="102.09,-79.12 92.06,-75.71 97.77,-84.63 102.09,-79.12"/>
</a>
</g>
</g>
<!-- Node8 -->
<g id="Node000008" class="node">
<title>Node8</title>
<g id="a_Node000008"><a xlink:title=" ">
<polygon fill="#e0e0e0" stroke="#999999" points="167.12,-74.5 121.88,-74.5 121.88,-55.25 167.12,-55.25 167.12,-74.5"/>
<text xml:space="preserve" text-anchor="middle" x="144.5" y="-61" font-family="Helvetica,sans-Serif" font-size="10.00">variant</text>
</a>
</g>
</g>
<!-- Node6&#45;&gt;Node8 -->
<g id="edge9_Node000006_Node000008" class="edge">
<title>Node6&#45;&gt;Node8</title>
<g id="a_edge9_Node000006_Node000008"><a xlink:title=" ">
<path fill="none" stroke="#63b8ff" d="M147,-110.33C146.63,-103.74 146.11,-94.46 145.64,-86.07"/>
<polygon fill="#63b8ff" stroke="#63b8ff" points="149.15,-86.16 145.09,-76.37 142.16,-86.55 149.15,-86.16"/>
</a>
</g>
</g>
<!-- Node9&#45;&gt;Node2 -->
<g id="edge13_Node000009_Node000002" class="edge">
<title>Node9&#45;&gt;Node2</title>
<g id="a_edge13_Node000009_Node000002"><a xlink:title=" ">
<path fill="none" stroke="#63b8ff" d="M457.28,-110.09C436.48,-101.64 405.15,-88.9 381.45,-79.27"/>
<polygon fill="#63b8ff" stroke="#63b8ff" points="382.82,-76.05 372.23,-75.52 380.18,-82.53 382.82,-76.05"/>
</a>
</g>
</g>
<!-- Node9&#45;&gt;Node4 -->
<g id="edge19_Node000009_Node000004" class="edge">
<title>Node9&#45;&gt;Node4</title>
<g id="a_edge19_Node000009_Node000004"><a xlink:title=" ">
<path fill="none" stroke="#63b8ff" d="M432.9,-110.01C390.14,-101.6 324.74,-88.61 258.56,-74.9"/>
<polygon fill="#63b8ff" stroke="#63b8ff" points="259.48,-71.52 248.98,-72.91 258.06,-78.37 259.48,-71.52"/>
</a>
</g>
</g>
<!-- Node9&#45;&gt;Node5 -->
<g id="edge20_Node000009_Node000005" class="edge">
<title>Node9&#45;&gt;Node5</title>
<g id="a_edge20_Node000009_Node000005"><a xlink:title=" ">
<path fill="none" stroke="#63b8ff" d="M445.75,-110.02C415.02,-101.7 368.1,-88.92 319.23,-75.24"/>
<polygon fill="#63b8ff" stroke="#63b8ff" points="320.48,-71.96 309.9,-72.63 318.59,-78.7 320.48,-71.96"/>
</a>
</g>
</g>
<!-- Node10 -->
<g id="Node000010" class="node">
<title>Node10</title>
<g id="a_Node000010"><a xlink:title=" ">
<polygon fill="#e0e0e0" stroke="#999999" points="618.12,-19.25 572.88,-19.25 572.88,0 618.12,0 618.12,-19.25"/>
<text xml:space="preserve" text-anchor="middle" x="595.5" y="-5.75" font-family="Helvetica,sans-Serif" font-size="10.00">cstdint</text>
</a>
</g>
</g>
<!-- Node9&#45;&gt;Node10 -->
<g id="edge12_Node000009_Node000010" class="edge">
<title>Node9&#45;&gt;Node10</title>
<g id="a_edge12_Node000009_Node000010"><a xlink:title=" ">
<path fill="none" stroke="#63b8ff" d="M517.78,-110.12C538.18,-103.47 562.16,-92.38 577.5,-74.5 587.95,-62.32 592.36,-44.47 594.21,-30.74"/>
<polygon fill="#63b8ff" stroke="#63b8ff" points="597.66,-31.36 595.14,-21.07 590.69,-30.69 597.66,-31.36"/>
</a>
</g>
</g>
<!-- Node11 -->
<g id="Node000011" class="node">
<title>Node11</title>
<g id="a_Node000011"><a xlink:title=" ">
<polygon fill="#e0e0e0" stroke="#999999" points="880.38,-74.5 830.62,-74.5 830.62,-55.25 880.38,-55.25 880.38,-74.5"/>
<text xml:space="preserve" text-anchor="middle" x="855.5" y="-61" font-family="Helvetica,sans-Serif" font-size="10.00">iomanip</text>
</a>
</g>
</g>
<!-- Node9&#45;&gt;Node11 -->
<g id="edge14_Node000009_Node000011" class="edge">
<title>Node9&#45;&gt;Node11</title>
<g id="a_edge14_Node000009_Node000011"><a xlink:title=" ">
<path fill="none" stroke="#63b8ff" d="M563.57,-110.97C630.36,-103.84 726.32,-92.17 819.03,-74.77"/>
<polygon fill="#63b8ff" stroke="#63b8ff" points="819.67,-78.21 828.84,-72.9 818.36,-71.33 819.67,-78.21"/>
</a>
</g>
</g>
<!-- Node12 -->
<g id="Node000012" class="node">
<title>Node12</title>
<g id="a_Node000012"><a xlink:title=" ">
<polygon fill="#e0e0e0" stroke="#999999" points="442.25,-74.5 388.75,-74.5 388.75,-55.25 442.25,-55.25 442.25,-74.5"/>
<text xml:space="preserve" text-anchor="middle" x="415.5" y="-61" font-family="Helvetica,sans-Serif" font-size="10.00">iostream</text>
</a>
</g>
</g>
<!-- Node9&#45;&gt;Node12 -->
<g id="edge15_Node000009_Node000012" class="edge">
<title>Node9&#45;&gt;Node12</title>
<g id="a_edge15_Node000009_Node000012"><a xlink:title=" ">
<path fill="none" stroke="#63b8ff" d="M468.64,-110.09C459.39,-102.4 445.88,-91.15 434.79,-81.93"/>
<polygon fill="#63b8ff" stroke="#63b8ff" points="437.29,-79.45 427.36,-75.74 432.81,-84.83 437.29,-79.45"/>
</a>
</g>
</g>
<!-- Node13 -->
<g id="Node000013" class="node">
<title>Node13</title>
<g id="a_Node000013"><a xlink:title=" ">
<polygon fill="#e0e0e0" stroke="#999999" points="499.12,-74.5 459.88,-74.5 459.88,-55.25 499.12,-55.25 499.12,-74.5"/>
<text xml:space="preserve" text-anchor="middle" x="479.5" y="-61" font-family="Helvetica,sans-Serif" font-size="10.00">limits</text>
</a>
</g>
</g>
<!-- Node9&#45;&gt;Node13 -->
<g id="edge16_Node000009_Node000013" class="edge">
<title>Node9&#45;&gt;Node13</title>
<g id="a_edge16_Node000009_Node000013"><a xlink:title=" ">
<path fill="none" stroke="#63b8ff" d="M479.5,-110.33C479.5,-103.82 479.5,-94.67 479.5,-86.37"/>
<polygon fill="#63b8ff" stroke="#63b8ff" points="483,-86.37 479.5,-76.37 476,-86.37 483,-86.37"/>
</a>
</g>
</g>
<!-- Node14 -->
<g id="Node000014" class="node">
<title>Node14</title>
<g id="a_Node000014"><a xlink:title=" ">
<polygon fill="#e0e0e0" stroke="#999999" points="568.12,-74.5 516.88,-74.5 516.88,-55.25 568.12,-55.25 568.12,-74.5"/>
<text xml:space="preserve" text-anchor="middle" x="542.5" y="-61" font-family="Helvetica,sans-Serif" font-size="10.00">sstream</text>
</a>
</g>
</g>
<!-- Node9&#45;&gt;Node14 -->
<g id="edge17_Node000009_Node000014" class="edge">
<title>Node9&#45;&gt;Node14</title>
<g id="a_edge17_Node000009_Node000014"><a xlink:title=" ">
<path fill="none" stroke="#63b8ff" d="M490.19,-110.09C499.2,-102.47 512.33,-91.37 523.18,-82.2"/>
<polygon fill="#63b8ff" stroke="#63b8ff" points="525.44,-84.88 530.81,-75.75 520.92,-79.53 525.44,-84.88"/>
</a>
</g>
</g>
<!-- Node15 -->
<g id="Node000015" class="node">
<title>Node15</title>
<g id="a_Node000015"><a xlink:title=" ">
<polygon fill="#e0e0e0" stroke="#999999" points="701.25,-19.25 635.75,-19.25 635.75,0 701.25,0 701.25,-19.25"/>
<text xml:space="preserve" text-anchor="middle" x="668.5" y="-5.75" font-family="Helvetica,sans-Serif" font-size="10.00">string_view</text>
</a>
</g>
</g>
<!-- Node9&#45;&gt;Node15 -->
<g id="edge18_Node000009_Node000015" class="edge">
<title>Node9&#45;&gt;Node15</title>
<g id="a_edge18_Node000009_Node000015"><a xlink:title=" ">
<path fill="none" stroke="#63b8ff" d="M512.48,-110.06C536.76,-102.57 570.01,-90.56 596.5,-74.5 617.83,-61.57 638.77,-41.99 652.52,-27.92"/>
<polygon fill="#63b8ff" stroke="#63b8ff" points="655.04,-30.35 659.4,-20.69 649.97,-25.52 655.04,-30.35"/>
</a>
</g>
</g>
<!-- Node16 -->
<g id="Node000016" class="node">
<title>Node16</title>
<g id="a_Node000016"><a xlink:href="../../d8/d46/_field_flags_8hpp.html" target="_top" xlink:title="Common enums and utilities for protocol field names and flags.">
<polygon fill="white" stroke="#666666" points="812.25,-74.5 662.75,-74.5 662.75,-55.25 812.25,-55.25 812.25,-74.5"/>
<text xml:space="preserve" text-anchor="middle" x="737.5" y="-61" font-family="Helvetica,sans-Serif" font-size="10.00">prototypes/field/FieldFlags.hpp</text>
</a>
</g>
</g>
<!-- Node9&#45;&gt;Node16 -->
<g id="edge21_Node000009_Node000016" class="edge">
<title>Node9&#45;&gt;Node16</title>
<g id="a_edge21_Node000009_Node000016"><a xlink:title=" ">
<path fill="none" stroke="#63b8ff" d="M523.56,-110.03C567.53,-100.96 635.2,-86.99 682.63,-77.2"/>
<polygon fill="#63b8ff" stroke="#63b8ff" points="683.05,-80.69 692.14,-75.24 681.64,-73.83 683.05,-80.69"/>
</a>
</g>
</g>
<!-- Node16&#45;&gt;Node10 -->
<g id="edge23_Node000016_Node000010" class="edge">
<title>Node16&#45;&gt;Node10</title>
<g id="a_edge23_Node000016_Node000010"><a xlink:title=" ">
<path fill="none" stroke="#63b8ff" d="M713.41,-54.84C690.15,-46.12 654.72,-32.83 628.77,-23.1"/>
<polygon fill="#63b8ff" stroke="#63b8ff" points="630.3,-19.94 619.71,-19.7 627.85,-26.49 630.3,-19.94"/>
</a>
</g>
</g>
<!-- Node16&#45;&gt;Node15 -->
<g id="edge25_Node000016_Node000015" class="edge">
<title>Node16&#45;&gt;Node15</title>
<g id="a_edge25_Node000016_Node000015"><a xlink:title=" ">
<path fill="none" stroke="#63b8ff" d="M725.8,-54.84C715.72,-47.07 700.96,-35.67 688.94,-26.4"/>
<polygon fill="#63b8ff" stroke="#63b8ff" points="691.29,-23.79 681.23,-20.45 687.01,-29.33 691.29,-23.79"/>
</a>
</g>
</g>
<!-- Node17 -->
<g id="Node000017" class="node">
<title>Node17</title>
<g id="a_Node000017"><a xlink:title=" ">
<polygon fill="#e0e0e0" stroke="#999999" points="757.38,-19.25 719.62,-19.25 719.62,0 757.38,0 757.38,-19.25"/>
<text xml:space="preserve" text-anchor="middle" x="738.5" y="-5.75" font-family="Helvetica,sans-Serif" font-size="10.00">array</text>
</a>
</g>
</g>
<!-- Node16&#45;&gt;Node17 -->
<g id="edge22_Node000016_Node000017" class="edge">
<title>Node16&#45;&gt;Node17</title>
<g id="a_edge22_Node000016_Node000017"><a xlink:title=" ">
<path fill="none" stroke="#63b8ff" d="M737.67,-55.08C737.79,-48.57 737.96,-39.42 738.12,-31.12"/>
<polygon fill="#63b8ff" stroke="#63b8ff" points="741.61,-31.19 738.3,-21.12 734.62,-31.05 741.61,-31.19"/>
</a>
</g>
</g>
<!-- Node18 -->
<g id="Node000018" class="node">
<title>Node18</title>
<g id="a_Node000018"><a xlink:title=" ">
<polygon fill="#e0e0e0" stroke="#999999" points="827.12,-19.25 775.88,-19.25 775.88,0 827.12,0 827.12,-19.25"/>
<text xml:space="preserve" text-anchor="middle" x="801.5" y="-5.75" font-family="Helvetica,sans-Serif" font-size="10.00">ostream</text>
</a>
</g>
</g>
<!-- Node16&#45;&gt;Node18 -->
<g id="edge24_Node000016_Node000018" class="edge">
<title>Node16&#45;&gt;Node18</title>
<g id="a_edge24_Node000016_Node000018"><a xlink:title=" ">
<path fill="none" stroke="#63b8ff" d="M748.36,-54.84C757.61,-47.15 771.12,-35.9 782.21,-26.68"/>
<polygon fill="#63b8ff" stroke="#63b8ff" points="784.19,-29.58 789.64,-20.49 779.71,-24.2 784.19,-29.58"/>
</a>
</g>
</g>
</g>
</svg>

<g id="navigator" transform="translate(0 0)" fill="#404254">
  <rect fill="#f2f5e9" fill-opacity="0.5" stroke="#606060" stroke-width=".5" x="0" y="0" width="60" height="60"/>
  <use id="zoomplus" xlink:href="#zoomPlus" x="17" y="9" onmousedown="handleZoom(evt,'in')"/>
  <use id="zoomminus" xlink:href="#zoomMin" x="42" y="9" onmousedown="handleZoom(evt,'out')"/>
  <use id="reset" xlink:href="#resetDef" x="30" y="36" onmousedown="handleReset()"/>
   <use id="arrowup" xlink:href="#arrowUp" x="0" y="0" onmousedown="handlePan(0,-1)"/>
  <use id="arrowright" xlink:href="#arrowRight" x="0" y="0" onmousedown="handlePan(1,0)"/>
  <use id="arrowdown" xlink:href="#arrowDown" x="0" y="0" onmousedown="handlePan(0,1)"/>
  <use id="arrowleft" xlink:href="#arrowLeft" x="0" y="0" onmousedown="handlePan(-1,0)"/>
</g>
<svg viewBox="0 0 15 15" width="100%" height="30px" preserveAspectRatio="xMaxYMin meet">
 <g id="arrow_out" transform="scale(0.3 0.3)">
  <a xlink:href="_data_field_8hpp__incl_org.svg" target="_base">
   <rect id="button" ry="5" rx="5" y="6" x="6" height="38" width="38"
        fill="#f2f5e9" fill-opacity="0.5" stroke="#606060" stroke-width="1.0"/>
   <path id="arrow"
     d="M 11.500037,31.436501 C 11.940474,20.09759 22.043105,11.32322 32.158766,21.979434 L 37.068811,17.246167 C 37.068811,17.246167 37.088388,32 37.088388,32 L 22.160133,31.978069 C 22.160133,31.978069 26.997745,27.140456 26.997745,27.140456 C 18.528582,18.264221 13.291696,25.230495 11.500037,31.436501 z"
     style="fill:#404040;"/>
  </a>
 </g>
</svg>

<style type='text/css'>
<![CDATA[
[data-mouse-over-selected='false'] { opacity: 0.7; }
[data-mouse-over-selected='true']  { opacity: 1.0; }
]]>
</style>
<script type="application/ecmascript"><![CDATA[
document.addEventListener('DOMContentLoaded', (event) => {
  highlightEdges();
  highlightAdjacentNodes();
});
]]></script>
</svg>
