<?xml version="1.0" encoding="UTF-8" standalone="no"?>
<!DOCTYPE svg PUBLIC "-//W3C//DTD SVG 1.1//EN"
 "http://www.w3.org/Graphics/SVG/1.1/DTD/svg11.dtd">
<!-- Generated by graphviz version 2.43.0 (0)
 -->
<!-- Title: proto::ProtocolNoSysEndpoint::receive Pages: 1 -->
<svg width="811pt" height="283pt"
 viewBox="0.00 0.00 811.00 283.00" xmlns="http://www.w3.org/2000/svg" xmlns:xlink="http://www.w3.org/1999/xlink">
<g id="graph0" class="graph" transform="scale(1 1) rotate(0) translate(4 279)">
<title>proto::ProtocolNoSysEndpoint::receive</title>
<!-- Node1 -->
<g id="Node000001" class="node">
<title>Node1</title>
<g id="a_Node000001"><a xlink:title=" ">
<polygon fill="#999999" stroke="#666666" points="161,-152.5 0,-152.5 0,-122.5 161,-122.5 161,-152.5"/>
<text text-anchor="start" x="8" y="-140.5" font-family="Helvetica,sans-Serif" font-size="10.00">proto::ProtocolNoSysEndpoint</text>
<text text-anchor="middle" x="80.5" y="-129.5" font-family="Helvetica,sans-Serif" font-size="10.00">::receive</text>
</a>
</g>
</g>
<!-- Node2 -->
<g id="Node000002" class="node">
<title>Node2</title>
<g id="a_Node000002"><a xlink:href="../../d0/d29/classproto_1_1RxContainer.html#a62f66f4bc347105478aba5bffd14796f" target="_top" xlink:title="Feeds a chunk of bytes to the parser and advances internal state.">
<polygon fill="white" stroke="#666666" points="305,-152.5 197,-152.5 197,-122.5 305,-122.5 305,-152.5"/>
<text text-anchor="start" x="205" y="-140.5" font-family="Helvetica,sans-Serif" font-size="10.00">proto::RxContainer</text>
<text text-anchor="middle" x="251" y="-129.5" font-family="Helvetica,sans-Serif" font-size="10.00">::fill</text>
</a>
</g>
</g>
<!-- Node1&#45;&gt;Node2 -->
<g id="edge1_Node000001_Node000002" class="edge">
<title>Node1&#45;&gt;Node2</title>
<g id="a_edge1_Node000001_Node000002"><a xlink:title=" ">
<path fill="none" stroke="#63b8ff" d="M161.31,-137.5C169.9,-137.5 178.55,-137.5 186.9,-137.5"/>
<polygon fill="#63b8ff" stroke="#63b8ff" points="186.92,-141 196.92,-137.5 186.91,-134 186.92,-141"/>
</a>
</g>
</g>
<!-- Node3 -->
<g id="Node000003" class="node">
<title>Node3</title>
<g id="a_Node000003"><a xlink:href="../../d6/d58/classCustomSpan.html#afeef45fadf14f15d82570e9022861177" target="_top" xlink:title=" ">
<polygon fill="white" stroke="#666666" points="459,-275 348,-275 348,-256 459,-256 459,-275"/>
<text text-anchor="middle" x="403.5" y="-263" font-family="Helvetica,sans-Serif" font-size="10.00">CustomSpan::begin</text>
</a>
</g>
</g>
<!-- Node2&#45;&gt;Node3 -->
<g id="edge2_Node000002_Node000003" class="edge">
<title>Node2&#45;&gt;Node3</title>
<g id="a_edge2_Node000002_Node000003"><a xlink:title=" ">
<path fill="none" stroke="#63b8ff" d="M260.23,-152.76C273.86,-176.58 303.38,-222.44 341,-247.5 343.39,-249.09 345.92,-250.54 348.54,-251.87"/>
<polygon fill="#63b8ff" stroke="#63b8ff" points="347.15,-255.08 357.71,-255.91 349.97,-248.68 347.15,-255.08"/>
</a>
</g>
</g>
<!-- Node4 -->
<g id="Node000004" class="node">
<title>Node4</title>
<g id="a_Node000004"><a xlink:href="../../d6/d58/classCustomSpan.html#a94497ad048636cd0b4ec22d4a486ab75" target="_top" xlink:title=" ">
<polygon fill="white" stroke="#666666" points="461.5,-238 345.5,-238 345.5,-219 461.5,-219 461.5,-238"/>
<text text-anchor="middle" x="403.5" y="-226" font-family="Helvetica,sans-Serif" font-size="10.00">CustomSpan::empty</text>
</a>
</g>
</g>
<!-- Node2&#45;&gt;Node4 -->
<g id="edge3_Node000002_Node000004" class="edge">
<title>Node2&#45;&gt;Node4</title>
<g id="a_edge3_Node000002_Node000004"><a xlink:title=" ">
<path fill="none" stroke="#63b8ff" d="M267.08,-152.77C283.8,-168.93 312.24,-194.16 341,-209.5 345.05,-211.66 349.38,-213.61 353.8,-215.37"/>
<polygon fill="#63b8ff" stroke="#63b8ff" points="352.94,-218.79 363.54,-218.92 355.34,-212.21 352.94,-218.79"/>
</a>
</g>
</g>
<!-- Node5 -->
<g id="Node000005" class="node">
<title>Node5</title>
<g id="a_Node000005"><a xlink:href="../../d5/d09/classproto_1_1FieldContainer.html#a839d6710504914db7f4f92b0e63029cf" target="_top" xlink:title="Check if debug mode is enabled.">
<polygon fill="white" stroke="#666666" points="463,-200.5 344,-200.5 344,-170.5 463,-170.5 463,-200.5"/>
<text text-anchor="start" x="352" y="-188.5" font-family="Helvetica,sans-Serif" font-size="10.00">proto::FieldContainer</text>
<text text-anchor="middle" x="403.5" y="-177.5" font-family="Helvetica,sans-Serif" font-size="10.00">::is_debug</text>
</a>
</g>
</g>
<!-- Node2&#45;&gt;Node5 -->
<g id="edge4_Node000002_Node000005" class="edge">
<title>Node2&#45;&gt;Node5</title>
<g id="a_edge4_Node000002_Node000005"><a xlink:title=" ">
<path fill="none" stroke="#63b8ff" d="M299.21,-152.56C313.91,-157.25 330.29,-162.47 345.59,-167.35"/>
<polygon fill="#63b8ff" stroke="#63b8ff" points="344.87,-170.79 355.46,-170.5 347,-164.12 344.87,-170.79"/>
</a>
</g>
</g>
<!-- Node6 -->
<g id="Node000006" class="node">
<title>Node6</title>
<g id="a_Node000006"><a xlink:href="../../d5/d09/classproto_1_1FieldContainer.html#a44b086a546a434a9ba804d3081559d29" target="_top" xlink:title="Reset all fields, CRC, and internal state to defaults.">
<polygon fill="white" stroke="#666666" points="463,-152.5 344,-152.5 344,-122.5 463,-122.5 463,-152.5"/>
<text text-anchor="start" x="352" y="-140.5" font-family="Helvetica,sans-Serif" font-size="10.00">proto::FieldContainer</text>
<text text-anchor="middle" x="403.5" y="-129.5" font-family="Helvetica,sans-Serif" font-size="10.00">::reset</text>
</a>
</g>
</g>
<!-- Node2&#45;&gt;Node6 -->
<g id="edge5_Node000002_Node000006" class="edge">
<title>Node2&#45;&gt;Node6</title>
<g id="a_edge5_Node000002_Node000006"><a xlink:title=" ">
<path fill="none" stroke="#63b8ff" d="M305.06,-137.5C314.26,-137.5 323.94,-137.5 333.49,-137.5"/>
<polygon fill="#63b8ff" stroke="#63b8ff" points="333.77,-141 343.77,-137.5 333.77,-134 333.77,-141"/>
</a>
</g>
</g>
<!-- Node9 -->
<g id="Node000009" class="node">
<title>Node9</title>
<g id="a_Node000009"><a xlink:href="../../d0/d29/classproto_1_1RxContainer.html#a1b2e180fb838c06e4704724c13712107" target="_top" xlink:title="Compile&#45;time unrolled dispatcher that calls a functor for a runtime field index.">
<polygon fill="white" stroke="#666666" points="457.5,-104.5 349.5,-104.5 349.5,-74.5 457.5,-74.5 457.5,-104.5"/>
<text text-anchor="start" x="357.5" y="-92.5" font-family="Helvetica,sans-Serif" font-size="10.00">proto::RxContainer</text>
<text text-anchor="middle" x="403.5" y="-81.5" font-family="Helvetica,sans-Serif" font-size="10.00">::static_for_index</text>
</a>
</g>
</g>
<!-- Node2&#45;&gt;Node9 -->
<g id="edge8_Node000002_Node000009" class="edge">
<title>Node2&#45;&gt;Node9</title>
<g id="a_edge8_Node000002_Node000009"><a xlink:title=" ">
<path fill="none" stroke="#63b8ff" d="M299.21,-122.44C313.91,-117.75 330.29,-112.53 345.59,-107.65"/>
<polygon fill="#63b8ff" stroke="#63b8ff" points="347,-110.88 355.46,-104.5 344.87,-104.21 347,-110.88"/>
</a>
</g>
</g>
<!-- Node10 -->
<g id="Node000010" class="node">
<title>Node10</title>
<g id="a_Node000010"><a xlink:href="../../d6/d58/classCustomSpan.html#a9b193ceee70ecda6e7bf8ba824cdca37" target="_top" xlink:title=" ">
<polygon fill="white" stroke="#666666" points="466,-56 341,-56 341,-37 466,-37 466,-56"/>
<text text-anchor="middle" x="403.5" y="-44" font-family="Helvetica,sans-Serif" font-size="10.00">CustomSpan::subspan</text>
</a>
</g>
</g>
<!-- Node2&#45;&gt;Node10 -->
<g id="edge9_Node000002_Node000010" class="edge">
<title>Node2&#45;&gt;Node10</title>
<g id="a_edge9_Node000002_Node000010"><a xlink:title=" ">
<path fill="none" stroke="#63b8ff" d="M267.08,-122.23C283.8,-106.07 312.24,-80.84 341,-65.5 345.05,-63.34 349.38,-61.39 353.8,-59.63"/>
<polygon fill="#63b8ff" stroke="#63b8ff" points="355.34,-62.79 363.54,-56.08 352.94,-56.21 355.34,-62.79"/>
</a>
</g>
</g>
<!-- Node12 -->
<g id="Node000012" class="node">
<title>Node12</title>
<g id="a_Node000012"><a xlink:href="../../d6/dca/namespaceproto.html#a1881b92fb56d58d8b379b994eff4eb7d" target="_top" xlink:title="Convert FieldName enum to string.">
<polygon fill="white" stroke="#666666" points="449,-19 358,-19 358,0 449,0 449,-19"/>
<text text-anchor="middle" x="403.5" y="-7" font-family="Helvetica,sans-Serif" font-size="10.00">proto::to_string</text>
</a>
</g>
</g>
<!-- Node2&#45;&gt;Node12 -->
<g id="edge11_Node000002_Node000012" class="edge">
<title>Node2&#45;&gt;Node12</title>
<g id="a_edge11_Node000002_Node000012"><a xlink:title=" ">
<path fill="none" stroke="#63b8ff" d="M260.23,-122.24C273.86,-98.42 303.38,-52.56 341,-27.5 343.39,-25.91 345.92,-24.46 348.54,-23.13"/>
<polygon fill="#63b8ff" stroke="#63b8ff" points="349.97,-26.32 357.71,-19.09 347.15,-19.92 349.97,-26.32"/>
</a>
</g>
</g>
<!-- Node7 -->
<g id="Node000007" class="node">
<title>Node7</title>
<g id="a_Node000007"><a xlink:href="../../d5/d09/classproto_1_1FieldContainer.html#ad87097e46757f1f4d2ead100ef965f1e" target="_top" xlink:title="Apply a callable to each field in the container.">
<polygon fill="white" stroke="#666666" points="634.5,-152.5 515.5,-152.5 515.5,-122.5 634.5,-122.5 634.5,-152.5"/>
<text text-anchor="start" x="523.5" y="-140.5" font-family="Helvetica,sans-Serif" font-size="10.00">proto::FieldContainer</text>
<text text-anchor="middle" x="575" y="-129.5" font-family="Helvetica,sans-Serif" font-size="10.00">::for_each_type</text>
</a>
</g>
</g>
<!-- Node6&#45;&gt;Node7 -->
<g id="edge6_Node000006_Node000007" class="edge">
<title>Node6&#45;&gt;Node7</title>
<g id="a_edge6_Node000006_Node000007"><a xlink:title=" ">
<path fill="none" stroke="#63b8ff" d="M463.31,-137.5C476.85,-137.5 491.37,-137.5 505.29,-137.5"/>
<polygon fill="#63b8ff" stroke="#63b8ff" points="505.3,-141 515.3,-137.5 505.3,-134 505.3,-141"/>
</a>
</g>
</g>
<!-- Node8 -->
<g id="Node000008" class="node">
<title>Node8</title>
<g id="a_Node000008"><a xlink:href="../../d5/d09/classproto_1_1FieldContainer.html#a47927806803e31410e7e5bf48e7d50b2" target="_top" xlink:title="Helper to apply a callable to each field in the tuple (implementation).">
<polygon fill="white" stroke="#666666" points="803,-152.5 684,-152.5 684,-122.5 803,-122.5 803,-152.5"/>
<text text-anchor="start" x="692" y="-140.5" font-family="Helvetica,sans-Serif" font-size="10.00">proto::FieldContainer</text>
<text text-anchor="middle" x="743.5" y="-129.5" font-family="Helvetica,sans-Serif" font-size="10.00">::for_each_type_impl</text>
</a>
</g>
</g>
<!-- Node7&#45;&gt;Node8 -->
<g id="edge7_Node000007_Node000008" class="edge">
<title>Node7&#45;&gt;Node8</title>
<g id="a_edge7_Node000007_Node000008"><a xlink:title=" ">
<path fill="none" stroke="#63b8ff" d="M634.7,-137.5C647.26,-137.5 660.64,-137.5 673.54,-137.5"/>
<polygon fill="#63b8ff" stroke="#63b8ff" points="673.77,-141 683.77,-137.5 673.77,-134 673.77,-141"/>
</a>
</g>
</g>
<!-- Node11 -->
<g id="Node000011" class="node">
<title>Node11</title>
<g id="a_Node000011"><a xlink:href="../../d6/d58/classCustomSpan.html#adf665d2b306d731b0ae135ed3f328531" target="_top" xlink:title=" ">
<polygon fill="white" stroke="#666666" points="648,-56 502,-56 502,-37 648,-37 648,-56"/>
<text text-anchor="middle" x="575" y="-44" font-family="Helvetica,sans-Serif" font-size="10.00">CustomSpan::CustomSpan</text>
</a>
</g>
</g>
<!-- Node10&#45;&gt;Node11 -->
<g id="edge10_Node000010_Node000011" class="edge">
<title>Node10&#45;&gt;Node11</title>
<g id="a_edge10_Node000010_Node000011"><a xlink:title=" ">
<path fill="none" stroke="#63b8ff" d="M466.17,-46.5C474.47,-46.5 483.09,-46.5 491.68,-46.5"/>
<polygon fill="#63b8ff" stroke="#63b8ff" points="491.72,-50 501.72,-46.5 491.72,-43 491.72,-50"/>
</a>
</g>
</g>
</g>
</svg>
