<?xml version="1.0" encoding="UTF-8" standalone="no"?>
<!DOCTYPE svg PUBLIC "-//W3C//DTD SVG 1.1//EN"
 "http://www.w3.org/Graphics/SVG/1.1/DTD/svg11.dtd">
<!-- Generated by graphviz version 14.0.1 (20251006.0113)
 -->
<!-- Title: Ymodem.hpp Pages: 1 -->
<svg width="579pt" height="193pt"
 viewBox="0.00 0.00 579.00 193.00" xmlns="http://www.w3.org/2000/svg" xmlns:xlink="http://www.w3.org/1999/xlink">
<g id="graph0" class="graph" transform="scale(1 1) rotate(0) translate(4 189)">
<title>Ymodem.hpp</title>
<!-- Node1 -->
<g id="Node000001" class="node">
<title>Node1</title>
<g id="a_Node000001"><a xlink:title=" ">
<polygon fill="#999999" stroke="#666666" points="461.5,-185 387.75,-185 387.75,-165.75 461.5,-165.75 461.5,-185"/>
<text xml:space="preserve" text-anchor="middle" x="424.62" y="-171.5" font-family="Helvetica,sans-Serif" font-size="10.00">Ymodem.hpp</text>
</a>
</g>
</g>
<!-- Node2 -->
<g id="Node000002" class="node">
<title>Node2</title>
<g id="a_Node000002"><a xlink:href="../../dc/dba/_interface_8hpp.html" target="_top" xlink:title=" ">
<polygon fill="white" stroke="#666666" points="234.12,-129.75 161.12,-129.75 161.12,-110.5 234.12,-110.5 234.12,-129.75"/>
<text xml:space="preserve" text-anchor="middle" x="197.62" y="-116.25" font-family="Helvetica,sans-Serif" font-size="10.00">Interface.hpp</text>
</a>
</g>
</g>
<!-- Node1&#45;&gt;Node2 -->
<g id="edge1_Node000001_Node000002" class="edge">
<title>Node1&#45;&gt;Node2</title>
<g id="a_edge1_Node000001_Node000002"><a xlink:title=" ">
<path fill="none" stroke="#63b8ff" d="M387.39,-165.64C348.68,-156.56 287.94,-142.31 245.64,-132.39"/>
<polygon fill="#63b8ff" stroke="#63b8ff" points="246.51,-129 235.97,-130.12 244.91,-135.81 246.51,-129"/>
</a>
</g>
</g>
<!-- Node9 -->
<g id="Node000009" class="node">
<title>Node9</title>
<g id="a_Node000009"><a xlink:title=" ">
<polygon fill="#e0e0e0" stroke="#999999" points="407.75,-19.25 359.5,-19.25 359.5,0 407.75,0 407.75,-19.25"/>
<text xml:space="preserve" text-anchor="middle" x="383.62" y="-5.75" font-family="Helvetica,sans-Serif" font-size="10.00">cstddef</text>
</a>
</g>
</g>
<!-- Node1&#45;&gt;Node9 -->
<g id="edge10_Node000001_Node000009" class="edge">
<title>Node1&#45;&gt;Node9</title>
<g id="a_edge10_Node000001_Node000009"><a xlink:title=" ">
<path fill="none" stroke="#63b8ff" d="M420.37,-165.33C416.34,-156.44 410.36,-142.41 406.62,-129.75 396.56,-95.67 389.78,-54.78 386.32,-30.85"/>
<polygon fill="#63b8ff" stroke="#63b8ff" points="389.82,-30.66 384.98,-21.23 382.89,-31.62 389.82,-30.66"/>
</a>
</g>
</g>
<!-- Node10 -->
<g id="Node000010" class="node">
<title>Node10</title>
<g id="a_Node000010"><a xlink:title=" ">
<polygon fill="#e0e0e0" stroke="#999999" points="509.62,-129.75 415.62,-129.75 415.62,-110.5 509.62,-110.5 509.62,-129.75"/>
<text xml:space="preserve" text-anchor="middle" x="462.62" y="-116.25" font-family="Helvetica,sans-Serif" font-size="10.00">condition_variable</text>
</a>
</g>
</g>
<!-- Node1&#45;&gt;Node10 -->
<g id="edge9_Node000001_Node000010" class="edge">
<title>Node1&#45;&gt;Node10</title>
<g id="a_edge9_Node000001_Node000010"><a xlink:title=" ">
<path fill="none" stroke="#63b8ff" d="M430.9,-165.58C435.98,-158.46 443.32,-148.18 449.66,-139.3"/>
<polygon fill="#63b8ff" stroke="#63b8ff" points="452.37,-141.51 455.33,-131.34 446.68,-137.45 452.37,-141.51"/>
</a>
</g>
</g>
<!-- Node11 -->
<g id="Node000011" class="node">
<title>Node11</title>
<g id="a_Node000011"><a xlink:title=" ">
<polygon fill="#e0e0e0" stroke="#999999" points="571.12,-129.75 528.12,-129.75 528.12,-110.5 571.12,-110.5 571.12,-129.75"/>
<text xml:space="preserve" text-anchor="middle" x="549.62" y="-116.25" font-family="Helvetica,sans-Serif" font-size="10.00">mutex</text>
</a>
</g>
</g>
<!-- Node1&#45;&gt;Node11 -->
<g id="edge11_Node000001_Node000011" class="edge">
<title>Node1&#45;&gt;Node11</title>
<g id="a_edge11_Node000001_Node000011"><a xlink:title=" ">
<path fill="none" stroke="#63b8ff" d="M445.83,-165.34C465.58,-156.93 495.3,-144.27 517.88,-134.65"/>
<polygon fill="#63b8ff" stroke="#63b8ff" points="519.1,-137.93 526.92,-130.8 516.35,-131.49 519.1,-137.93"/>
</a>
</g>
</g>
<!-- Node3 -->
<g id="Node000003" class="node">
<title>Node3</title>
<g id="a_Node000003"><a xlink:title=" ">
<polygon fill="#e0e0e0" stroke="#999999" points="45.25,-74.5 0,-74.5 0,-55.25 45.25,-55.25 45.25,-74.5"/>
<text xml:space="preserve" text-anchor="middle" x="22.62" y="-61" font-family="Helvetica,sans-Serif" font-size="10.00">chrono</text>
</a>
</g>
</g>
<!-- Node2&#45;&gt;Node3 -->
<g id="edge2_Node000002_Node000003" class="edge">
<title>Node2&#45;&gt;Node3</title>
<g id="a_edge2_Node000002_Node000003"><a xlink:title=" ">
<path fill="none" stroke="#63b8ff" d="M167.94,-110.09C137.06,-100.7 88.79,-86.01 56.46,-76.17"/>
<polygon fill="#63b8ff" stroke="#63b8ff" points="57.77,-72.91 47.18,-73.35 55.73,-79.61 57.77,-72.91"/>
</a>
</g>
</g>
<!-- Node4 -->
<g id="Node000004" class="node">
<title>Node4</title>
<g id="a_Node000004"><a xlink:title=" ">
<polygon fill="#e0e0e0" stroke="#999999" points="121.62,-74.5 63.62,-74.5 63.62,-55.25 121.62,-55.25 121.62,-74.5"/>
<text xml:space="preserve" text-anchor="middle" x="92.62" y="-61" font-family="Helvetica,sans-Serif" font-size="10.00">functional</text>
</a>
</g>
</g>
<!-- Node2&#45;&gt;Node4 -->
<g id="edge3_Node000002_Node000004" class="edge">
<title>Node2&#45;&gt;Node4</title>
<g id="a_edge3_Node000002_Node000004"><a xlink:title=" ">
<path fill="none" stroke="#63b8ff" d="M179.81,-110.09C163.6,-101.87 139.39,-89.59 120.59,-80.06"/>
<polygon fill="#63b8ff" stroke="#63b8ff" points="122.38,-77.04 111.87,-75.64 119.21,-83.28 122.38,-77.04"/>
</a>
</g>
</g>
<!-- Node5 -->
<g id="Node000005" class="node">
<title>Node5</title>
<g id="a_Node000005"><a xlink:title=" ">
<polygon fill="#e0e0e0" stroke="#999999" points="191.25,-74.5 140,-74.5 140,-55.25 191.25,-55.25 191.25,-74.5"/>
<text xml:space="preserve" text-anchor="middle" x="165.62" y="-61" font-family="Helvetica,sans-Serif" font-size="10.00">memory</text>
</a>
</g>
</g>
<!-- Node2&#45;&gt;Node5 -->
<g id="edge4_Node000002_Node000005" class="edge">
<title>Node2&#45;&gt;Node5</title>
<g id="a_edge4_Node000002_Node000005"><a xlink:title=" ">
<path fill="none" stroke="#63b8ff" d="M192.34,-110.33C188.15,-103.36 182.15,-93.37 176.89,-84.62"/>
<polygon fill="#63b8ff" stroke="#63b8ff" points="179.95,-82.93 171.8,-76.16 173.95,-86.53 179.95,-82.93"/>
</a>
</g>
</g>
<!-- Node6 -->
<g id="Node000006" class="node">
<title>Node6</title>
<g id="a_Node000006"><a xlink:title=" ">
<polygon fill="#e0e0e0" stroke="#999999" points="249.62,-74.5 209.62,-74.5 209.62,-55.25 249.62,-55.25 249.62,-74.5"/>
<text xml:space="preserve" text-anchor="middle" x="229.62" y="-61" font-family="Helvetica,sans-Serif" font-size="10.00">string</text>
</a>
</g>
</g>
<!-- Node2&#45;&gt;Node6 -->
<g id="edge5_Node000002_Node000006" class="edge">
<title>Node2&#45;&gt;Node6</title>
<g id="a_edge5_Node000002_Node000006"><a xlink:title=" ">
<path fill="none" stroke="#63b8ff" d="M202.91,-110.33C207.1,-103.36 213.1,-93.37 218.36,-84.62"/>
<polygon fill="#63b8ff" stroke="#63b8ff" points="221.3,-86.53 223.45,-76.16 215.3,-82.93 221.3,-86.53"/>
</a>
</g>
</g>
<!-- Node7 -->
<g id="Node000007" class="node">
<title>Node7</title>
<g id="a_Node000007"><a xlink:href="../../de/ddc/_custom_span_8hpp.html" target="_top" xlink:title=" ">
<polygon fill="white" stroke="#666666" points="359.5,-74.5 267.75,-74.5 267.75,-55.25 359.5,-55.25 359.5,-74.5"/>
<text xml:space="preserve" text-anchor="middle" x="313.62" y="-61" font-family="Helvetica,sans-Serif" font-size="10.00">CustomSpan.hpp</text>
</a>
</g>
</g>
<!-- Node2&#45;&gt;Node7 -->
<g id="edge6_Node000002_Node000007" class="edge">
<title>Node2&#45;&gt;Node7</title>
<g id="a_edge6_Node000002_Node000007"><a xlink:title=" ">
<path fill="none" stroke="#63b8ff" d="M217.3,-110.09C235.47,-101.75 262.71,-89.25 283.59,-79.66"/>
<polygon fill="#63b8ff" stroke="#63b8ff" points="284.85,-82.94 292.48,-75.58 281.93,-76.58 284.85,-82.94"/>
</a>
</g>
</g>
<!-- Node8 -->
<g id="Node000008" class="node">
<title>Node8</title>
<g id="a_Node000008"><a xlink:title=" ">
<polygon fill="#e0e0e0" stroke="#999999" points="337.75,-19.25 289.5,-19.25 289.5,0 337.75,0 337.75,-19.25"/>
<text xml:space="preserve" text-anchor="middle" x="313.62" y="-5.75" font-family="Helvetica,sans-Serif" font-size="10.00">cassert</text>
</a>
</g>
</g>
<!-- Node7&#45;&gt;Node8 -->
<g id="edge7_Node000007_Node000008" class="edge">
<title>Node7&#45;&gt;Node8</title>
<g id="a_edge7_Node000007_Node000008"><a xlink:title=" ">
<path fill="none" stroke="#63b8ff" d="M313.62,-55.08C313.62,-48.57 313.62,-39.42 313.62,-31.12"/>
<polygon fill="#63b8ff" stroke="#63b8ff" points="317.13,-31.12 313.63,-21.12 310.13,-31.12 317.13,-31.12"/>
</a>
</g>
</g>
<!-- Node7&#45;&gt;Node9 -->
<g id="edge8_Node000007_Node000009" class="edge">
<title>Node7&#45;&gt;Node9</title>
<g id="a_edge8_Node000007_Node000009"><a xlink:title=" ">
<path fill="none" stroke="#63b8ff" d="M325.5,-54.84C335.72,-47.07 350.7,-35.67 362.89,-26.4"/>
<polygon fill="#63b8ff" stroke="#63b8ff" points="364.88,-29.28 370.72,-20.44 360.64,-23.71 364.88,-29.28"/>
</a>
</g>
</g>
</g>
</svg>
