<?xml version="1.0" encoding="UTF-8" standalone="no"?>
<!DOCTYPE svg PUBLIC "-//W3C//DTD SVG 1.1//EN"
 "http://www.w3.org/Graphics/SVG/1.1/DTD/svg11.dtd">
<!-- Generated by graphviz version 2.43.0 (0)
 -->
<!-- Title: proto::exoAtlant::ExoAtlantProtocol_::parse Pages: 1 -->
<svg width="797pt" height="283pt"
 viewBox="0.00 0.00 797.00 283.00" xmlns="http://www.w3.org/2000/svg" xmlns:xlink="http://www.w3.org/1999/xlink">
<g id="graph0" class="graph" transform="scale(1 1) rotate(0) translate(4 279)">
<title>proto::exoAtlant::ExoAtlantProtocol_::parse</title>
<!-- Node1 -->
<g id="Node000001" class="node">
<title>Node1</title>
<g id="a_Node000001"><a xlink:title="Разбор входящего блока данных">
<polygon fill="#999999" stroke="#666666" points="147,-197.5 0,-197.5 0,-167.5 147,-167.5 147,-197.5"/>
<text text-anchor="start" x="8" y="-185.5" font-family="Helvetica,sans-Serif" font-size="10.00">proto::exoAtlant::ExoAtlant</text>
<text text-anchor="middle" x="73.5" y="-174.5" font-family="Helvetica,sans-Serif" font-size="10.00">Protocol_::parse</text>
</a>
</g>
</g>
<!-- Node2 -->
<g id="Node000002" class="node">
<title>Node2</title>
<g id="a_Node000002"><a xlink:href="../../d6/d58/classCustomSpan.html#aa94cafb45950ce4dbcf4e57f6c22615a" target="_top" xlink:title=" ">
<polygon fill="white" stroke="#666666" points="290,-252 184,-252 184,-233 290,-233 290,-252"/>
<text text-anchor="middle" x="237" y="-240" font-family="Helvetica,sans-Serif" font-size="10.00">CustomSpan::data</text>
</a>
</g>
</g>
<!-- Node1&#45;&gt;Node2 -->
<g id="edge1_Node000001_Node000002" class="edge">
<title>Node1&#45;&gt;Node2</title>
<g id="a_edge1_Node000001_Node000002"><a xlink:title=" ">
<path fill="none" stroke="#63b8ff" d="M115.25,-197.64C141.65,-207.45 175.68,-220.09 200.88,-229.45"/>
<polygon fill="#63b8ff" stroke="#63b8ff" points="199.82,-232.79 210.41,-232.99 202.25,-226.23 199.82,-232.79"/>
</a>
</g>
</g>
<!-- Node3 -->
<g id="Node000003" class="node">
<title>Node3</title>
<g id="a_Node000003"><a xlink:href="../../d6/d58/classCustomSpan.html#a94497ad048636cd0b4ec22d4a486ab75" target="_top" xlink:title=" ">
<polygon fill="white" stroke="#666666" points="447.5,-275 331.5,-275 331.5,-256 447.5,-256 447.5,-275"/>
<text text-anchor="middle" x="389.5" y="-263" font-family="Helvetica,sans-Serif" font-size="10.00">CustomSpan::empty</text>
</a>
</g>
</g>
<!-- Node1&#45;&gt;Node3 -->
<g id="edge2_Node000001_Node000003" class="edge">
<title>Node1&#45;&gt;Node3</title>
<g id="a_edge2_Node000001_Node000003"><a xlink:title=" ">
<path fill="none" stroke="#63b8ff" d="M147.12,-189.66C190.09,-195.57 244.96,-206.11 291,-224.5 308.63,-231.54 309.72,-239.64 327,-247.5 331.1,-249.36 335.44,-251.09 339.84,-252.67"/>
<polygon fill="#63b8ff" stroke="#63b8ff" points="338.91,-256.05 349.51,-255.9 341.14,-249.41 338.91,-256.05"/>
</a>
</g>
</g>
<!-- Node4 -->
<g id="Node000004" class="node">
<title>Node4</title>
<g id="a_Node000004"><a xlink:href="../../d0/d29/classproto_1_1RxContainer.html#a62f66f4bc347105478aba5bffd14796f" target="_top" xlink:title="Feeds a chunk of bytes to the parser and advances internal state.">
<polygon fill="white" stroke="#666666" points="291,-176.5 183,-176.5 183,-146.5 291,-146.5 291,-176.5"/>
<text text-anchor="start" x="191" y="-164.5" font-family="Helvetica,sans-Serif" font-size="10.00">proto::RxContainer</text>
<text text-anchor="middle" x="237" y="-153.5" font-family="Helvetica,sans-Serif" font-size="10.00">::fill</text>
</a>
</g>
</g>
<!-- Node1&#45;&gt;Node4 -->
<g id="edge3_Node000001_Node000004" class="edge">
<title>Node1&#45;&gt;Node4</title>
<g id="a_edge3_Node000001_Node000004"><a xlink:title=" ">
<path fill="none" stroke="#63b8ff" d="M147.22,-173.04C155.67,-171.95 164.24,-170.83 172.56,-169.75"/>
<polygon fill="#63b8ff" stroke="#63b8ff" points="173.08,-173.21 182.54,-168.45 172.18,-166.27 173.08,-173.21"/>
</a>
</g>
</g>
<!-- Node14 -->
<g id="Node000014" class="node">
<title>Node14</title>
<g id="a_Node000014"><a xlink:href="../../d6/d58/classCustomSpan.html#a7612ff42bfc672d97414e1e3ddc391b9" target="_top" xlink:title=" ">
<polygon fill="white" stroke="#666666" points="289,-128 185,-128 185,-109 289,-109 289,-128"/>
<text text-anchor="middle" x="237" y="-116" font-family="Helvetica,sans-Serif" font-size="10.00">CustomSpan::size</text>
</a>
</g>
</g>
<!-- Node1&#45;&gt;Node14 -->
<g id="edge14_Node000001_Node000014" class="edge">
<title>Node1&#45;&gt;Node14</title>
<g id="a_edge14_Node000001_Node000014"><a xlink:title=" ">
<path fill="none" stroke="#63b8ff" d="M109.51,-167.47C130.68,-158.51 158.27,-147.05 183,-137.5 188.19,-135.5 193.68,-133.45 199.1,-131.47"/>
<polygon fill="#63b8ff" stroke="#63b8ff" points="200.45,-134.7 208.67,-128.01 198.08,-128.11 200.45,-134.7"/>
</a>
</g>
</g>
<!-- Node4&#45;&gt;Node3 -->
<g id="edge5_Node000004_Node000003" class="edge">
<title>Node4&#45;&gt;Node3</title>
<g id="a_edge5_Node000004_Node000003"><a xlink:title=" ">
<path fill="none" stroke="#63b8ff" d="M271.7,-176.57C278.53,-180.52 285.34,-185.19 291,-190.5 312.84,-211.01 303.08,-229.46 327,-247.5 328.84,-248.89 330.79,-250.17 332.81,-251.35"/>
<polygon fill="#63b8ff" stroke="#63b8ff" points="331.55,-254.63 342.06,-255.93 334.65,-248.36 331.55,-254.63"/>
</a>
</g>
</g>
<!-- Node5 -->
<g id="Node000005" class="node">
<title>Node5</title>
<g id="a_Node000005"><a xlink:href="../../d6/d58/classCustomSpan.html#afeef45fadf14f15d82570e9022861177" target="_top" xlink:title=" ">
<polygon fill="white" stroke="#666666" points="445,-238 334,-238 334,-219 445,-219 445,-238"/>
<text text-anchor="middle" x="389.5" y="-226" font-family="Helvetica,sans-Serif" font-size="10.00">CustomSpan::begin</text>
</a>
</g>
</g>
<!-- Node4&#45;&gt;Node5 -->
<g id="edge4_Node000004_Node000005" class="edge">
<title>Node4&#45;&gt;Node5</title>
<g id="a_edge4_Node000004_Node000005"><a xlink:title=" ">
<path fill="none" stroke="#63b8ff" d="M265.74,-176.63C290.65,-190.19 323.8,-208.16 327,-209.5 332.35,-211.74 338.05,-213.86 343.75,-215.8"/>
<polygon fill="#63b8ff" stroke="#63b8ff" points="342.68,-219.14 353.28,-218.91 344.86,-212.48 342.68,-219.14"/>
</a>
</g>
</g>
<!-- Node6 -->
<g id="Node000006" class="node">
<title>Node6</title>
<g id="a_Node000006"><a xlink:href="../../d5/d09/classproto_1_1FieldContainer.html#a839d6710504914db7f4f92b0e63029cf" target="_top" xlink:title="Check if debug mode is enabled.">
<polygon fill="white" stroke="#666666" points="449,-200.5 330,-200.5 330,-170.5 449,-170.5 449,-200.5"/>
<text text-anchor="start" x="338" y="-188.5" font-family="Helvetica,sans-Serif" font-size="10.00">proto::FieldContainer</text>
<text text-anchor="middle" x="389.5" y="-177.5" font-family="Helvetica,sans-Serif" font-size="10.00">::is_debug</text>
</a>
</g>
</g>
<!-- Node4&#45;&gt;Node6 -->
<g id="edge6_Node000004_Node000006" class="edge">
<title>Node4&#45;&gt;Node6</title>
<g id="a_edge6_Node000004_Node000006"><a xlink:title=" ">
<path fill="none" stroke="#63b8ff" d="M291.06,-169.96C300.36,-171.44 310.15,-173.01 319.8,-174.54"/>
<polygon fill="#63b8ff" stroke="#63b8ff" points="319.34,-178.02 329.77,-176.13 320.45,-171.1 319.34,-178.02"/>
</a>
</g>
</g>
<!-- Node7 -->
<g id="Node000007" class="node">
<title>Node7</title>
<g id="a_Node000007"><a xlink:href="../../d5/d09/classproto_1_1FieldContainer.html#a44b086a546a434a9ba804d3081559d29" target="_top" xlink:title="Reset all fields, CRC, and internal state to defaults.">
<polygon fill="white" stroke="#666666" points="449,-152.5 330,-152.5 330,-122.5 449,-122.5 449,-152.5"/>
<text text-anchor="start" x="338" y="-140.5" font-family="Helvetica,sans-Serif" font-size="10.00">proto::FieldContainer</text>
<text text-anchor="middle" x="389.5" y="-129.5" font-family="Helvetica,sans-Serif" font-size="10.00">::reset</text>
</a>
</g>
</g>
<!-- Node4&#45;&gt;Node7 -->
<g id="edge7_Node000004_Node000007" class="edge">
<title>Node4&#45;&gt;Node7</title>
<g id="a_edge7_Node000004_Node000007"><a xlink:title=" ">
<path fill="none" stroke="#63b8ff" d="M291.06,-153.04C300.36,-151.56 310.15,-149.99 319.8,-148.46"/>
<polygon fill="#63b8ff" stroke="#63b8ff" points="320.45,-151.9 329.77,-146.87 319.34,-144.98 320.45,-151.9"/>
</a>
</g>
</g>
<!-- Node10 -->
<g id="Node000010" class="node">
<title>Node10</title>
<g id="a_Node000010"><a xlink:href="../../d0/d29/classproto_1_1RxContainer.html#a1b2e180fb838c06e4704724c13712107" target="_top" xlink:title="Compile&#45;time unrolled dispatcher that calls a functor for a runtime field index.">
<polygon fill="white" stroke="#666666" points="443.5,-104.5 335.5,-104.5 335.5,-74.5 443.5,-74.5 443.5,-104.5"/>
<text text-anchor="start" x="343.5" y="-92.5" font-family="Helvetica,sans-Serif" font-size="10.00">proto::RxContainer</text>
<text text-anchor="middle" x="389.5" y="-81.5" font-family="Helvetica,sans-Serif" font-size="10.00">::static_for_index</text>
</a>
</g>
</g>
<!-- Node4&#45;&gt;Node10 -->
<g id="edge10_Node000004_Node000010" class="edge">
<title>Node4&#45;&gt;Node10</title>
<g id="a_edge10_Node000004_Node000010"><a xlink:title=" ">
<path fill="none" stroke="#63b8ff" d="M273.46,-146.41C279.4,-143.61 285.44,-140.59 291,-137.5 307.81,-128.17 309.94,-122.38 327,-113.5 330.24,-111.81 333.63,-110.17 337.07,-108.6"/>
<polygon fill="#63b8ff" stroke="#63b8ff" points="338.51,-111.79 346.28,-104.58 335.71,-105.37 338.51,-111.79"/>
</a>
</g>
</g>
<!-- Node11 -->
<g id="Node000011" class="node">
<title>Node11</title>
<g id="a_Node000011"><a xlink:href="../../d6/d58/classCustomSpan.html#a9b193ceee70ecda6e7bf8ba824cdca37" target="_top" xlink:title=" ">
<polygon fill="white" stroke="#666666" points="452,-56 327,-56 327,-37 452,-37 452,-56"/>
<text text-anchor="middle" x="389.5" y="-44" font-family="Helvetica,sans-Serif" font-size="10.00">CustomSpan::subspan</text>
</a>
</g>
</g>
<!-- Node4&#45;&gt;Node11 -->
<g id="edge11_Node000004_Node000011" class="edge">
<title>Node4&#45;&gt;Node11</title>
<g id="a_edge11_Node000004_Node000011"><a xlink:title=" ">
<path fill="none" stroke="#63b8ff" d="M279.19,-146.37C283.46,-143.81 287.51,-140.86 291,-137.5 316.78,-112.69 299.71,-88.64 327,-65.5 329.01,-63.79 331.18,-62.24 333.45,-60.82"/>
<polygon fill="#63b8ff" stroke="#63b8ff" points="335.4,-63.75 342.65,-56.03 332.17,-57.55 335.4,-63.75"/>
</a>
</g>
</g>
<!-- Node13 -->
<g id="Node000013" class="node">
<title>Node13</title>
<g id="a_Node000013"><a xlink:href="../../d6/dca/namespaceproto.html#a1881b92fb56d58d8b379b994eff4eb7d" target="_top" xlink:title="Convert FieldName enum to string.">
<polygon fill="white" stroke="#666666" points="435,-19 344,-19 344,0 435,0 435,-19"/>
<text text-anchor="middle" x="389.5" y="-7" font-family="Helvetica,sans-Serif" font-size="10.00">proto::to_string</text>
</a>
</g>
</g>
<!-- Node4&#45;&gt;Node13 -->
<g id="edge13_Node000004_Node000013" class="edge">
<title>Node4&#45;&gt;Node13</title>
<g id="a_edge13_Node000004_Node000013"><a xlink:title=" ">
<path fill="none" stroke="#63b8ff" d="M280.47,-146.35C284.35,-143.81 287.96,-140.88 291,-137.5 325.11,-99.56 290.58,-64.22 327,-28.5 329.39,-26.15 332.07,-24.09 334.93,-22.29"/>
<polygon fill="#63b8ff" stroke="#63b8ff" points="336.7,-25.31 343.97,-17.6 333.48,-19.1 336.7,-25.31"/>
</a>
</g>
</g>
<!-- Node8 -->
<g id="Node000008" class="node">
<title>Node8</title>
<g id="a_Node000008"><a xlink:href="../../d5/d09/classproto_1_1FieldContainer.html#ad87097e46757f1f4d2ead100ef965f1e" target="_top" xlink:title="Apply a callable to each field in the container.">
<polygon fill="white" stroke="#666666" points="620.5,-152.5 501.5,-152.5 501.5,-122.5 620.5,-122.5 620.5,-152.5"/>
<text text-anchor="start" x="509.5" y="-140.5" font-family="Helvetica,sans-Serif" font-size="10.00">proto::FieldContainer</text>
<text text-anchor="middle" x="561" y="-129.5" font-family="Helvetica,sans-Serif" font-size="10.00">::for_each_type</text>
</a>
</g>
</g>
<!-- Node7&#45;&gt;Node8 -->
<g id="edge8_Node000007_Node000008" class="edge">
<title>Node7&#45;&gt;Node8</title>
<g id="a_edge8_Node000007_Node000008"><a xlink:title=" ">
<path fill="none" stroke="#63b8ff" d="M449.31,-137.5C462.85,-137.5 477.37,-137.5 491.29,-137.5"/>
<polygon fill="#63b8ff" stroke="#63b8ff" points="491.3,-141 501.3,-137.5 491.3,-134 491.3,-141"/>
</a>
</g>
</g>
<!-- Node9 -->
<g id="Node000009" class="node">
<title>Node9</title>
<g id="a_Node000009"><a xlink:href="../../d5/d09/classproto_1_1FieldContainer.html#a47927806803e31410e7e5bf48e7d50b2" target="_top" xlink:title="Helper to apply a callable to each field in the tuple (implementation).">
<polygon fill="white" stroke="#666666" points="789,-152.5 670,-152.5 670,-122.5 789,-122.5 789,-152.5"/>
<text text-anchor="start" x="678" y="-140.5" font-family="Helvetica,sans-Serif" font-size="10.00">proto::FieldContainer</text>
<text text-anchor="middle" x="729.5" y="-129.5" font-family="Helvetica,sans-Serif" font-size="10.00">::for_each_type_impl</text>
</a>
</g>
</g>
<!-- Node8&#45;&gt;Node9 -->
<g id="edge9_Node000008_Node000009" class="edge">
<title>Node8&#45;&gt;Node9</title>
<g id="a_edge9_Node000008_Node000009"><a xlink:title=" ">
<path fill="none" stroke="#63b8ff" d="M620.7,-137.5C633.26,-137.5 646.64,-137.5 659.54,-137.5"/>
<polygon fill="#63b8ff" stroke="#63b8ff" points="659.77,-141 669.77,-137.5 659.77,-134 659.77,-141"/>
</a>
</g>
</g>
<!-- Node12 -->
<g id="Node000012" class="node">
<title>Node12</title>
<g id="a_Node000012"><a xlink:href="../../d6/d58/classCustomSpan.html#adf665d2b306d731b0ae135ed3f328531" target="_top" xlink:title=" ">
<polygon fill="white" stroke="#666666" points="634,-56 488,-56 488,-37 634,-37 634,-56"/>
<text text-anchor="middle" x="561" y="-44" font-family="Helvetica,sans-Serif" font-size="10.00">CustomSpan::CustomSpan</text>
</a>
</g>
</g>
<!-- Node11&#45;&gt;Node12 -->
<g id="edge12_Node000011_Node000012" class="edge">
<title>Node11&#45;&gt;Node12</title>
<g id="a_edge12_Node000011_Node000012"><a xlink:title=" ">
<path fill="none" stroke="#63b8ff" d="M452.17,-46.5C460.47,-46.5 469.09,-46.5 477.68,-46.5"/>
<polygon fill="#63b8ff" stroke="#63b8ff" points="477.72,-50 487.72,-46.5 477.72,-43 477.72,-50"/>
</a>
</g>
</g>
</g>
</svg>
