<?xml version="1.0" encoding="UTF-8" standalone="no"?>
<!DOCTYPE svg PUBLIC "-//W3C//DTD SVG 1.1//EN"
 "http://www.w3.org/Graphics/SVG/1.1/DTD/svg11.dtd">
<!-- Generated by graphviz version 2.43.0 (0)
 -->
<!-- Title: UIDPacketType.hpp Pages: 1 -->
<svg width="548pt" height="192pt"
 viewBox="0.00 0.00 548.00 192.00" xmlns="http://www.w3.org/2000/svg" xmlns:xlink="http://www.w3.org/1999/xlink">
<g id="graph0" class="graph" transform="scale(1 1) rotate(0) translate(4 188)">
<title>UIDPacketType.hpp</title>
<!-- Node1 -->
<g id="Node000001" class="node">
<title>Node1</title>
<g id="a_Node000001"><a xlink:title=" ">
<polygon fill="#999999" stroke="#666666" points="206.5,-184 96.5,-184 96.5,-165 206.5,-165 206.5,-184"/>
<text text-anchor="middle" x="151.5" y="-172" font-family="Helvetica,sans-Serif" font-size="10.00">UIDPacketType.hpp</text>
</a>
</g>
</g>
<!-- Node2 -->
<g id="Node000002" class="node">
<title>Node2</title>
<g id="a_Node000002"><a xlink:title=" ">
<polygon fill="#e0e0e0" stroke="#999999" points="53,-19 0,-19 0,0 53,0 53,-19"/>
<text text-anchor="middle" x="26.5" y="-7" font-family="Helvetica,sans-Serif" font-size="10.00">cstddef</text>
</a>
</g>
</g>
<!-- Node1&#45;&gt;Node2 -->
<g id="edge1_Node000001_Node000002" class="edge">
<title>Node1&#45;&gt;Node2</title>
<g id="a_edge1_Node000001_Node000002"><a xlink:title=" ">
<path fill="none" stroke="#63b8ff" d="M144.78,-164.74C124.86,-138.76 65.86,-61.83 39.49,-27.44"/>
<polygon fill="#63b8ff" stroke="#63b8ff" points="42.12,-25.11 33.25,-19.31 36.56,-29.37 42.12,-25.11"/>
</a>
</g>
</g>
<!-- Node3 -->
<g id="Node000003" class="node">
<title>Node3</title>
<g id="a_Node000003"><a xlink:title=" ">
<polygon fill="#e0e0e0" stroke="#999999" points="121.5,-19 71.5,-19 71.5,0 121.5,0 121.5,-19"/>
<text text-anchor="middle" x="96.5" y="-7" font-family="Helvetica,sans-Serif" font-size="10.00">cstdint</text>
</a>
</g>
</g>
<!-- Node1&#45;&gt;Node3 -->
<g id="edge2_Node000001_Node000003" class="edge">
<title>Node1&#45;&gt;Node3</title>
<g id="a_edge2_Node000001_Node000003"><a xlink:title=" ">
<path fill="none" stroke="#63b8ff" d="M148.54,-164.74C139.93,-139.2 114.7,-64.43 102.82,-29.23"/>
<polygon fill="#63b8ff" stroke="#63b8ff" points="105.99,-27.66 99.47,-19.31 99.35,-29.9 105.99,-27.66"/>
</a>
</g>
</g>
<!-- Node4 -->
<g id="Node000004" class="node">
<title>Node4</title>
<g id="a_Node000004"><a xlink:title=" ">
<polygon fill="#e0e0e0" stroke="#999999" points="430.5,-19 370.5,-19 370.5,0 430.5,0 430.5,-19"/>
<text text-anchor="middle" x="400.5" y="-7" font-family="Helvetica,sans-Serif" font-size="10.00">iostream</text>
</a>
</g>
</g>
<!-- Node1&#45;&gt;Node4 -->
<g id="edge3_Node000001_Node000004" class="edge">
<title>Node1&#45;&gt;Node4</title>
<g id="a_edge3_Node000001_Node000004"><a xlink:title=" ">
<path fill="none" stroke="#63b8ff" d="M206.57,-174.09C279.13,-171.52 404.46,-154.79 463.5,-74 477.51,-54.82 452.3,-35.9 429.73,-23.77"/>
<polygon fill="#63b8ff" stroke="#63b8ff" points="431.16,-20.57 420.66,-19.16 427.99,-26.81 431.16,-20.57"/>
</a>
</g>
</g>
<!-- Node5 -->
<g id="Node000005" class="node">
<title>Node5</title>
<g id="a_Node000005"><a xlink:title=" ">
<polygon fill="#e0e0e0" stroke="#999999" points="183.5,-19 139.5,-19 139.5,0 183.5,0 183.5,-19"/>
<text text-anchor="middle" x="161.5" y="-7" font-family="Helvetica,sans-Serif" font-size="10.00">string</text>
</a>
</g>
</g>
<!-- Node1&#45;&gt;Node5 -->
<g id="edge4_Node000001_Node000005" class="edge">
<title>Node1&#45;&gt;Node5</title>
<g id="a_edge4_Node000001_Node000005"><a xlink:title=" ">
<path fill="none" stroke="#63b8ff" d="M152.04,-164.74C153.6,-139.31 158.15,-65.08 160.32,-29.69"/>
<polygon fill="#63b8ff" stroke="#63b8ff" points="163.84,-29.5 160.96,-19.31 156.85,-29.07 163.84,-29.5"/>
</a>
</g>
</g>
<!-- Node6 -->
<g id="Node000006" class="node">
<title>Node6</title>
<g id="a_Node000006"><a xlink:title=" ">
<polygon fill="#e0e0e0" stroke="#999999" points="540,-19 467,-19 467,0 540,0 540,-19"/>
<text text-anchor="middle" x="503.5" y="-7" font-family="Helvetica,sans-Serif" font-size="10.00">string_view</text>
</a>
</g>
</g>
<!-- Node1&#45;&gt;Node6 -->
<g id="edge5_Node000001_Node000006" class="edge">
<title>Node1&#45;&gt;Node6</title>
<g id="a_edge5_Node000001_Node000006"><a xlink:title=" ">
<path fill="none" stroke="#63b8ff" d="M206.53,-168.83C275.76,-162.25 390.12,-148.78 427.5,-129 457.23,-113.27 461.65,-102.51 479.5,-74 488.29,-59.95 494.67,-42.18 498.63,-29.01"/>
<polygon fill="#63b8ff" stroke="#63b8ff" points="502.05,-29.79 501.39,-19.21 495.31,-27.89 502.05,-29.79"/>
</a>
</g>
</g>
<!-- Node7 -->
<g id="Node000007" class="node">
<title>Node7</title>
<g id="a_Node000007"><a xlink:href="../../d7/dd7/Helpers_8hpp.html" target="_top" xlink:title=" ">
<polygon fill="white" stroke="#666666" points="266,-74 191,-74 191,-55 266,-55 266,-74"/>
<text text-anchor="middle" x="228.5" y="-62" font-family="Helvetica,sans-Serif" font-size="10.00">Helpers.hpp</text>
</a>
</g>
</g>
<!-- Node1&#45;&gt;Node7 -->
<g id="edge6_Node000001_Node000007" class="edge">
<title>Node1&#45;&gt;Node7</title>
<g id="a_edge6_Node000001_Node000007"><a xlink:title=" ">
<path fill="none" stroke="#63b8ff" d="M152.37,-164.97C154.02,-152.06 158.61,-127.24 170.5,-110 179.11,-97.51 192.32,-86.98 203.97,-79.31"/>
<polygon fill="#63b8ff" stroke="#63b8ff" points="205.83,-82.27 212.46,-74.01 202.12,-76.33 205.83,-82.27"/>
</a>
</g>
</g>
<!-- Node10 -->
<g id="Node000010" class="node">
<title>Node10</title>
<g id="a_Node000010"><a xlink:href="../../d1/d57/McuUidType_8hpp.html" target="_top" xlink:title=" ">
<polygon fill="white" stroke="#666666" points="277,-129 180,-129 180,-110 277,-110 277,-129"/>
<text text-anchor="middle" x="228.5" y="-117" font-family="Helvetica,sans-Serif" font-size="10.00">McuUidType.hpp</text>
</a>
</g>
</g>
<!-- Node1&#45;&gt;Node10 -->
<g id="edge14_Node000001_Node000010" class="edge">
<title>Node1&#45;&gt;Node10</title>
<g id="a_edge14_Node000001_Node000010"><a xlink:title=" ">
<path fill="none" stroke="#63b8ff" d="M163.87,-164.98C175.59,-156.92 193.42,-144.65 207.39,-135.03"/>
<polygon fill="#63b8ff" stroke="#63b8ff" points="209.65,-137.72 215.9,-129.17 205.68,-131.96 209.65,-137.72"/>
</a>
</g>
</g>
<!-- Node7&#45;&gt;Node2 -->
<g id="edge8_Node000007_Node000002" class="edge">
<title>Node7&#45;&gt;Node2</title>
<g id="a_edge8_Node000007_Node000002"><a xlink:title=" ">
<path fill="none" stroke="#63b8ff" d="M196.05,-54.98C159.75,-45.46 101.11,-30.08 63.18,-20.12"/>
<polygon fill="#63b8ff" stroke="#63b8ff" points="63.63,-16.62 53.07,-17.47 61.85,-23.39 63.63,-16.62"/>
</a>
</g>
</g>
<!-- Node7&#45;&gt;Node3 -->
<g id="edge9_Node000007_Node000003" class="edge">
<title>Node7&#45;&gt;Node3</title>
<g id="a_edge9_Node000007_Node000003"><a xlink:title=" ">
<path fill="none" stroke="#63b8ff" d="M207.29,-54.98C185.77,-46.34 152.22,-32.87 127.67,-23.02"/>
<polygon fill="#63b8ff" stroke="#63b8ff" points="128.68,-19.65 118.09,-19.17 126.07,-26.14 128.68,-19.65"/>
</a>
</g>
</g>
<!-- Node7&#45;&gt;Node4 -->
<g id="edge11_Node000007_Node000004" class="edge">
<title>Node7&#45;&gt;Node4</title>
<g id="a_edge11_Node000007_Node000004"><a xlink:title=" ">
<path fill="none" stroke="#63b8ff" d="M256.13,-54.98C285.01,-46.09 330.51,-32.07 362.7,-22.15"/>
<polygon fill="#63b8ff" stroke="#63b8ff" points="364.12,-25.37 372.65,-19.08 362.06,-18.68 364.12,-25.37"/>
</a>
</g>
</g>
<!-- Node7&#45;&gt;Node5 -->
<g id="edge12_Node000007_Node000005" class="edge">
<title>Node7&#45;&gt;Node5</title>
<g id="a_edge12_Node000007_Node000005"><a xlink:title=" ">
<path fill="none" stroke="#63b8ff" d="M217.74,-54.98C207.73,-47.07 192.61,-35.11 180.57,-25.58"/>
<polygon fill="#63b8ff" stroke="#63b8ff" points="182.47,-22.63 172.46,-19.17 178.13,-28.12 182.47,-22.63"/>
</a>
</g>
</g>
<!-- Node7&#45;&gt;Node6 -->
<g id="edge13_Node000007_Node000006" class="edge">
<title>Node7&#45;&gt;Node6</title>
<g id="a_edge13_Node000007_Node000006"><a xlink:title=" ">
<path fill="none" stroke="#63b8ff" d="M266.16,-56.24C315.77,-46.68 403.01,-29.87 456.77,-19.51"/>
<polygon fill="#63b8ff" stroke="#63b8ff" points="457.58,-22.92 466.73,-17.59 456.25,-16.04 457.58,-22.92"/>
</a>
</g>
</g>
<!-- Node8 -->
<g id="Node000008" class="node">
<title>Node8</title>
<g id="a_Node000008"><a xlink:title=" ">
<polygon fill="#e0e0e0" stroke="#999999" points="317.5,-19 275.5,-19 275.5,0 317.5,0 317.5,-19"/>
<text text-anchor="middle" x="296.5" y="-7" font-family="Helvetica,sans-Serif" font-size="10.00">array</text>
</a>
</g>
</g>
<!-- Node7&#45;&gt;Node8 -->
<g id="edge7_Node000007_Node000008" class="edge">
<title>Node7&#45;&gt;Node8</title>
<g id="a_edge7_Node000007_Node000008"><a xlink:title=" ">
<path fill="none" stroke="#63b8ff" d="M239.43,-54.98C249.58,-47.07 264.92,-35.11 277.15,-25.58"/>
<polygon fill="#63b8ff" stroke="#63b8ff" points="279.64,-28.08 285.38,-19.17 275.34,-22.56 279.64,-28.08"/>
</a>
</g>
</g>
<!-- Node9 -->
<g id="Node000009" class="node">
<title>Node9</title>
<g id="a_Node000009"><a xlink:title=" ">
<polygon fill="#e0e0e0" stroke="#999999" points="257.5,-19 201.5,-19 201.5,0 257.5,0 257.5,-19"/>
<text text-anchor="middle" x="229.5" y="-7" font-family="Helvetica,sans-Serif" font-size="10.00">iomanip</text>
</a>
</g>
</g>
<!-- Node7&#45;&gt;Node9 -->
<g id="edge10_Node000007_Node000009" class="edge">
<title>Node7&#45;&gt;Node9</title>
<g id="a_edge10_Node000007_Node000009"><a xlink:title=" ">
<path fill="none" stroke="#63b8ff" d="M228.67,-54.75C228.8,-47.8 228.98,-37.85 229.15,-29.13"/>
<polygon fill="#63b8ff" stroke="#63b8ff" points="232.65,-29.15 229.34,-19.09 225.65,-29.02 232.65,-29.15"/>
</a>
</g>
</g>
<!-- Node10&#45;&gt;Node2 -->
<g id="edge17_Node000010_Node000002" class="edge">
<title>Node10&#45;&gt;Node2</title>
<g id="a_edge17_Node000010_Node000002"><a xlink:title=" ">
<path fill="none" stroke="#63b8ff" d="M211.85,-109.88C194.68,-100.96 167.17,-86.62 143.5,-74 111.59,-56.99 74.99,-37.06 51.34,-24.12"/>
<polygon fill="#63b8ff" stroke="#63b8ff" points="52.81,-20.93 42.36,-19.2 49.45,-27.07 52.81,-20.93"/>
</a>
</g>
</g>
<!-- Node10&#45;&gt;Node3 -->
<g id="edge18_Node000010_Node000003" class="edge">
<title>Node10&#45;&gt;Node3</title>
<g id="a_edge18_Node000010_Node000003"><a xlink:title=" ">
<path fill="none" stroke="#63b8ff" d="M216.56,-109.87C204.51,-101.08 185.45,-86.92 169.5,-74 150.08,-58.26 128.57,-39.37 113.97,-26.3"/>
<polygon fill="#63b8ff" stroke="#63b8ff" points="116.01,-23.43 106.23,-19.35 111.33,-28.64 116.01,-23.43"/>
</a>
</g>
</g>
<!-- Node10&#45;&gt;Node5 -->
<g id="edge20_Node000010_Node000005" class="edge">
<title>Node10&#45;&gt;Node5</title>
<g id="a_edge20_Node000010_Node000005"><a xlink:title=" ">
<path fill="none" stroke="#63b8ff" d="M216.43,-109.92C205.82,-101.79 190.68,-88.67 181.5,-74 172.88,-60.22 167.7,-42.42 164.77,-29.17"/>
<polygon fill="#63b8ff" stroke="#63b8ff" points="168.2,-28.44 162.82,-19.3 161.33,-29.79 168.2,-28.44"/>
</a>
</g>
</g>
<!-- Node10&#45;&gt;Node7 -->
<g id="edge21_Node000010_Node000007" class="edge">
<title>Node10&#45;&gt;Node7</title>
<g id="a_edge21_Node000010_Node000007"><a xlink:title=" ">
<path fill="none" stroke="#63b8ff" d="M228.5,-109.75C228.5,-102.8 228.5,-92.85 228.5,-84.13"/>
<polygon fill="#63b8ff" stroke="#63b8ff" points="232,-84.09 228.5,-74.09 225,-84.09 232,-84.09"/>
</a>
</g>
</g>
<!-- Node10&#45;&gt;Node8 -->
<g id="edge16_Node000010_Node000008" class="edge">
<title>Node10&#45;&gt;Node8</title>
<g id="a_edge16_Node000010_Node000008"><a xlink:title=" ">
<path fill="none" stroke="#63b8ff" d="M240.21,-109.81C250.52,-101.6 265.3,-88.43 274.5,-74 283.32,-60.17 289.09,-42.37 292.5,-29.14"/>
<polygon fill="#63b8ff" stroke="#63b8ff" points="295.93,-29.82 294.82,-19.29 289.12,-28.22 295.93,-29.82"/>
</a>
</g>
</g>
<!-- Node11 -->
<g id="Node000011" class="node">
<title>Node11</title>
<g id="a_Node000011"><a xlink:title=" ">
<polygon fill="#e0e0e0" stroke="#999999" points="386.5,-74 322.5,-74 322.5,-55 386.5,-55 386.5,-74"/>
<text text-anchor="middle" x="354.5" y="-62" font-family="Helvetica,sans-Serif" font-size="10.00">algorithm</text>
</a>
</g>
</g>
<!-- Node10&#45;&gt;Node11 -->
<g id="edge15_Node000010_Node000011" class="edge">
<title>Node10&#45;&gt;Node11</title>
<g id="a_edge15_Node000010_Node000011"><a xlink:title=" ">
<path fill="none" stroke="#63b8ff" d="M248.74,-109.98C269.2,-101.38 301.03,-87.99 324.43,-78.15"/>
<polygon fill="#63b8ff" stroke="#63b8ff" points="326.03,-81.27 333.89,-74.17 323.31,-74.82 326.03,-81.27"/>
</a>
</g>
</g>
<!-- Node12 -->
<g id="Node000012" class="node">
<title>Node12</title>
<g id="a_Node000012"><a xlink:title=" ">
<polygon fill="#e0e0e0" stroke="#999999" points="454.5,-74 404.5,-74 404.5,-55 454.5,-55 454.5,-74"/>
<text text-anchor="middle" x="429.5" y="-62" font-family="Helvetica,sans-Serif" font-size="10.00">cstring</text>
</a>
</g>
</g>
<!-- Node10&#45;&gt;Node12 -->
<g id="edge19_Node000010_Node000012" class="edge">
<title>Node10&#45;&gt;Node12</title>
<g id="a_edge19_Node000010_Node000012"><a xlink:title=" ">
<path fill="none" stroke="#63b8ff" d="M260.79,-109.98C297.31,-100.36 356.58,-84.73 394.26,-74.79"/>
<polygon fill="#63b8ff" stroke="#63b8ff" points="395.51,-78.08 404.28,-72.15 393.72,-71.31 395.51,-78.08"/>
</a>
</g>
</g>
</g>
</svg>
