<?xml version="1.0" encoding="UTF-8" standalone="no"?>
<!DOCTYPE svg PUBLIC "-//W3C//DTD SVG 1.1//EN"
 "http://www.w3.org/Graphics/SVG/1.1/DTD/svg11.dtd">
<!-- Generated by graphviz version 2.43.0 (0)
 -->
<!-- Title: proto::ProtocolEndpoint::send Pages: 1 -->
<svg width="902pt" height="86pt"
 viewBox="0.00 0.00 902.00 86.00" xmlns="http://www.w3.org/2000/svg" xmlns:xlink="http://www.w3.org/1999/xlink">
<g id="graph0" class="graph" transform="scale(1 1) rotate(0) translate(4 82)">
<title>proto::ProtocolEndpoint::send</title>
<!-- Node1 -->
<g id="Node000001" class="node">
<title>Node1</title>
<g id="a_Node000001"><a xlink:title=" ">
<polygon fill="#999999" stroke="#666666" points="131,-54 0,-54 0,-24 131,-24 131,-54"/>
<text text-anchor="start" x="8" y="-42" font-family="Helvetica,sans-Serif" font-size="10.00">proto::ProtocolEndpoint</text>
<text text-anchor="middle" x="65.5" y="-31" font-family="Helvetica,sans-Serif" font-size="10.00">::send</text>
</a>
</g>
</g>
<!-- Node2 -->
<g id="Node000002" class="node">
<title>Node2</title>
<g id="a_Node000002"><a xlink:href="../../d4/dd2/classproto_1_1TxContainer.html#a4636ad0f62ff172c7a74231bc9757985" target="_top" xlink:title="Build and send a packet, setting field values from a pack of FieldInfo.">
<polygon fill="white" stroke="#666666" points="274,-54 167,-54 167,-24 274,-24 274,-54"/>
<text text-anchor="start" x="175" y="-42" font-family="Helvetica,sans-Serif" font-size="10.00">proto::TxContainer</text>
<text text-anchor="middle" x="220.5" y="-31" font-family="Helvetica,sans-Serif" font-size="10.00">::send_packet</text>
</a>
</g>
</g>
<!-- Node1&#45;&gt;Node2 -->
<g id="edge1_Node000001_Node000002" class="edge">
<title>Node1&#45;&gt;Node2</title>
<g id="a_edge1_Node000001_Node000002"><a xlink:title=" ">
<path fill="none" stroke="#63b8ff" d="M131.39,-39C139.63,-39 148.06,-39 156.28,-39"/>
<polygon fill="#63b8ff" stroke="#63b8ff" points="156.55,-42.5 166.55,-39 156.55,-35.5 156.55,-42.5"/>
</a>
</g>
</g>
<!-- Node3 -->
<g id="Node000003" class="node">
<title>Node3</title>
<g id="a_Node000003"><a xlink:href="../../d5/d09/classproto_1_1FieldContainer.html#adb8a7ae096301186b9fe7ebb5763fcbd" target="_top" xlink:title="Check if a field with the given FieldName exists in the container.">
<polygon fill="white" stroke="#666666" points="429,-78 310,-78 310,-48 429,-48 429,-78"/>
<text text-anchor="start" x="318" y="-66" font-family="Helvetica,sans-Serif" font-size="10.00">proto::FieldContainer</text>
<text text-anchor="middle" x="369.5" y="-55" font-family="Helvetica,sans-Serif" font-size="10.00">::has_field</text>
</a>
</g>
</g>
<!-- Node2&#45;&gt;Node3 -->
<g id="edge2_Node000002_Node000003" class="edge">
<title>Node2&#45;&gt;Node3</title>
<g id="a_edge2_Node000002_Node000003"><a xlink:title=" ">
<path fill="none" stroke="#63b8ff" d="M274.16,-47.6C282.5,-48.96 291.24,-50.39 299.89,-51.8"/>
<polygon fill="#63b8ff" stroke="#63b8ff" points="299.54,-55.29 309.98,-53.45 300.67,-48.38 299.54,-55.29"/>
</a>
</g>
</g>
<!-- Node4 -->
<g id="Node000004" class="node">
<title>Node4</title>
<g id="a_Node000004"><a xlink:href="../../d4/dd2/classproto_1_1TxContainer.html#a4b5b6b72f53c218e00d1c3b576c2e439" target="_top" xlink:title="Reset the internal state of the container and its fields.">
<polygon fill="white" stroke="#666666" points="423,-30 316,-30 316,0 423,0 423,-30"/>
<text text-anchor="start" x="324" y="-18" font-family="Helvetica,sans-Serif" font-size="10.00">proto::TxContainer</text>
<text text-anchor="middle" x="369.5" y="-7" font-family="Helvetica,sans-Serif" font-size="10.00">::reset</text>
</a>
</g>
</g>
<!-- Node2&#45;&gt;Node4 -->
<g id="edge3_Node000002_Node000004" class="edge">
<title>Node2&#45;&gt;Node4</title>
<g id="a_edge3_Node000002_Node000004"><a xlink:title=" ">
<path fill="none" stroke="#63b8ff" d="M274.16,-30.4C284.39,-28.73 295.22,-26.96 305.75,-25.25"/>
<polygon fill="#63b8ff" stroke="#63b8ff" points="306.41,-28.68 315.72,-23.62 305.29,-21.77 306.41,-28.68"/>
</a>
</g>
</g>
<!-- Node5 -->
<g id="Node000005" class="node">
<title>Node5</title>
<g id="a_Node000005"><a xlink:href="../../d5/d09/classproto_1_1FieldContainer.html#a44b086a546a434a9ba804d3081559d29" target="_top" xlink:title="Reset all fields, CRC, and internal state to defaults.">
<polygon fill="white" stroke="#666666" points="584,-30 465,-30 465,0 584,0 584,-30"/>
<text text-anchor="start" x="473" y="-18" font-family="Helvetica,sans-Serif" font-size="10.00">proto::FieldContainer</text>
<text text-anchor="middle" x="524.5" y="-7" font-family="Helvetica,sans-Serif" font-size="10.00">::reset</text>
</a>
</g>
</g>
<!-- Node4&#45;&gt;Node5 -->
<g id="edge4_Node000004_Node000005" class="edge">
<title>Node4&#45;&gt;Node5</title>
<g id="a_edge4_Node000004_Node000005"><a xlink:title=" ">
<path fill="none" stroke="#63b8ff" d="M423.15,-15C433.37,-15 444.22,-15 454.87,-15"/>
<polygon fill="#63b8ff" stroke="#63b8ff" points="454.98,-18.5 464.98,-15 454.98,-11.5 454.98,-18.5"/>
</a>
</g>
</g>
<!-- Node6 -->
<g id="Node000006" class="node">
<title>Node6</title>
<g id="a_Node000006"><a xlink:href="../../d5/d09/classproto_1_1FieldContainer.html#ad87097e46757f1f4d2ead100ef965f1e" target="_top" xlink:title="Apply a callable to each field in the container.">
<polygon fill="white" stroke="#666666" points="739,-30 620,-30 620,0 739,0 739,-30"/>
<text text-anchor="start" x="628" y="-18" font-family="Helvetica,sans-Serif" font-size="10.00">proto::FieldContainer</text>
<text text-anchor="middle" x="679.5" y="-7" font-family="Helvetica,sans-Serif" font-size="10.00">::for_each_type</text>
</a>
</g>
</g>
<!-- Node5&#45;&gt;Node6 -->
<g id="edge5_Node000005_Node000006" class="edge">
<title>Node5&#45;&gt;Node6</title>
<g id="a_edge5_Node000005_Node000006"><a xlink:title=" ">
<path fill="none" stroke="#63b8ff" d="M584.22,-15C592.54,-15 601.17,-15 609.67,-15"/>
<polygon fill="#63b8ff" stroke="#63b8ff" points="609.94,-18.5 619.94,-15 609.94,-11.5 609.94,-18.5"/>
</a>
</g>
</g>
<!-- Node7 -->
<g id="Node000007" class="node">
<title>Node7</title>
<g id="a_Node000007"><a xlink:href="../../d5/d09/classproto_1_1FieldContainer.html#a47927806803e31410e7e5bf48e7d50b2" target="_top" xlink:title="Helper to apply a callable to each field in the tuple (implementation).">
<polygon fill="white" stroke="#666666" points="894,-30 775,-30 775,0 894,0 894,-30"/>
<text text-anchor="start" x="783" y="-18" font-family="Helvetica,sans-Serif" font-size="10.00">proto::FieldContainer</text>
<text text-anchor="middle" x="834.5" y="-7" font-family="Helvetica,sans-Serif" font-size="10.00">::for_each_type_impl</text>
</a>
</g>
</g>
<!-- Node6&#45;&gt;Node7 -->
<g id="edge6_Node000006_Node000007" class="edge">
<title>Node6&#45;&gt;Node7</title>
<g id="a_edge6_Node000006_Node000007"><a xlink:title=" ">
<path fill="none" stroke="#63b8ff" d="M739.22,-15C747.54,-15 756.17,-15 764.67,-15"/>
<polygon fill="#63b8ff" stroke="#63b8ff" points="764.94,-18.5 774.94,-15 764.94,-11.5 764.94,-18.5"/>
</a>
</g>
</g>
</g>
</svg>
