<?xml version="1.0" encoding="UTF-8" standalone="no"?>
<!DOCTYPE svg PUBLIC "-//W3C//DTD SVG 1.1//EN"
 "http://www.w3.org/Graphics/SVG/1.1/DTD/svg11.dtd">
<!-- Generated by graphviz version 2.43.0 (0)
 -->
<!-- Title: proto::ProtocolEndpoint::set_interfaces Pages: 1 -->
<svg width="781pt" height="283pt"
 viewBox="0.00 0.00 781.00 283.00" xmlns="http://www.w3.org/2000/svg" xmlns:xlink="http://www.w3.org/1999/xlink">
<g id="graph0" class="graph" transform="scale(1 1) rotate(0) translate(4 279)">
<title>proto::ProtocolEndpoint::set_interfaces</title>
<!-- Node1 -->
<g id="Node000001" class="node">
<title>Node1</title>
<g id="a_Node000001"><a xlink:title="Wire the endpoint to external RX and TX interfaces.">
<polygon fill="#999999" stroke="#666666" points="131,-128.5 0,-128.5 0,-98.5 131,-98.5 131,-128.5"/>
<text text-anchor="start" x="8" y="-116.5" font-family="Helvetica,sans-Serif" font-size="10.00">proto::ProtocolEndpoint</text>
<text text-anchor="middle" x="65.5" y="-105.5" font-family="Helvetica,sans-Serif" font-size="10.00">::set_interfaces</text>
</a>
</g>
</g>
<!-- Node2 -->
<g id="Node000002" class="node">
<title>Node2</title>
<g id="a_Node000002"><a xlink:href="../../d0/d29/classproto_1_1RxContainer.html#a62f66f4bc347105478aba5bffd14796f" target="_top" xlink:title="Feeds a chunk of bytes to the parser and advances internal state.">
<polygon fill="white" stroke="#666666" points="275,-152.5 167,-152.5 167,-122.5 275,-122.5 275,-152.5"/>
<text text-anchor="start" x="175" y="-140.5" font-family="Helvetica,sans-Serif" font-size="10.00">proto::RxContainer</text>
<text text-anchor="middle" x="221" y="-129.5" font-family="Helvetica,sans-Serif" font-size="10.00">::fill</text>
</a>
</g>
</g>
<!-- Node1&#45;&gt;Node2 -->
<g id="edge1_Node000001_Node000002" class="edge">
<title>Node1&#45;&gt;Node2</title>
<g id="a_edge1_Node000001_Node000002"><a xlink:title=" ">
<path fill="none" stroke="#63b8ff" d="M131.15,-123.61C139.54,-124.92 148.13,-126.26 156.5,-127.57"/>
<polygon fill="#63b8ff" stroke="#63b8ff" points="156.15,-131.06 166.57,-129.15 157.23,-124.14 156.15,-131.06"/>
</a>
</g>
</g>
<!-- Node13 -->
<g id="Node000013" class="node">
<title>Node13</title>
<g id="a_Node000013"><a xlink:href="../../d4/dd2/classproto_1_1TxContainer.html#a1d5868fa51a20d0e81f2ab6a89310b76" target="_top" xlink:title="Assign an output interface (non&#45;owning).">
<polygon fill="white" stroke="#666666" points="274.5,-104.5 167.5,-104.5 167.5,-74.5 274.5,-74.5 274.5,-104.5"/>
<text text-anchor="start" x="175.5" y="-92.5" font-family="Helvetica,sans-Serif" font-size="10.00">proto::TxContainer</text>
<text text-anchor="middle" x="221" y="-81.5" font-family="Helvetica,sans-Serif" font-size="10.00">::set_interface</text>
</a>
</g>
</g>
<!-- Node1&#45;&gt;Node13 -->
<g id="edge12_Node000001_Node000013" class="edge">
<title>Node1&#45;&gt;Node13</title>
<g id="a_edge12_Node000001_Node000013"><a xlink:title=" ">
<path fill="none" stroke="#63b8ff" d="M131.15,-103.39C139.75,-102.05 148.56,-100.67 157.12,-99.33"/>
<polygon fill="#63b8ff" stroke="#63b8ff" points="157.71,-102.78 167.04,-97.78 156.62,-95.87 157.71,-102.78"/>
</a>
</g>
</g>
<!-- Node3 -->
<g id="Node000003" class="node">
<title>Node3</title>
<g id="a_Node000003"><a xlink:href="../../d6/d58/classCustomSpan.html#afeef45fadf14f15d82570e9022861177" target="_top" xlink:title=" ">
<polygon fill="white" stroke="#666666" points="429,-275 318,-275 318,-256 429,-256 429,-275"/>
<text text-anchor="middle" x="373.5" y="-263" font-family="Helvetica,sans-Serif" font-size="10.00">CustomSpan::begin</text>
</a>
</g>
</g>
<!-- Node2&#45;&gt;Node3 -->
<g id="edge2_Node000002_Node000003" class="edge">
<title>Node2&#45;&gt;Node3</title>
<g id="a_edge2_Node000002_Node000003"><a xlink:title=" ">
<path fill="none" stroke="#63b8ff" d="M230.23,-152.76C243.86,-176.58 273.38,-222.44 311,-247.5 313.39,-249.09 315.92,-250.54 318.54,-251.87"/>
<polygon fill="#63b8ff" stroke="#63b8ff" points="317.15,-255.08 327.71,-255.91 319.97,-248.68 317.15,-255.08"/>
</a>
</g>
</g>
<!-- Node4 -->
<g id="Node000004" class="node">
<title>Node4</title>
<g id="a_Node000004"><a xlink:href="../../d6/d58/classCustomSpan.html#a94497ad048636cd0b4ec22d4a486ab75" target="_top" xlink:title=" ">
<polygon fill="white" stroke="#666666" points="431.5,-238 315.5,-238 315.5,-219 431.5,-219 431.5,-238"/>
<text text-anchor="middle" x="373.5" y="-226" font-family="Helvetica,sans-Serif" font-size="10.00">CustomSpan::empty</text>
</a>
</g>
</g>
<!-- Node2&#45;&gt;Node4 -->
<g id="edge3_Node000002_Node000004" class="edge">
<title>Node2&#45;&gt;Node4</title>
<g id="a_edge3_Node000002_Node000004"><a xlink:title=" ">
<path fill="none" stroke="#63b8ff" d="M237.08,-152.77C253.8,-168.93 282.24,-194.16 311,-209.5 315.05,-211.66 319.38,-213.61 323.8,-215.37"/>
<polygon fill="#63b8ff" stroke="#63b8ff" points="322.94,-218.79 333.54,-218.92 325.34,-212.21 322.94,-218.79"/>
</a>
</g>
</g>
<!-- Node5 -->
<g id="Node000005" class="node">
<title>Node5</title>
<g id="a_Node000005"><a xlink:href="../../d5/d09/classproto_1_1FieldContainer.html#a839d6710504914db7f4f92b0e63029cf" target="_top" xlink:title="Check if debug mode is enabled.">
<polygon fill="white" stroke="#666666" points="433,-200.5 314,-200.5 314,-170.5 433,-170.5 433,-200.5"/>
<text text-anchor="start" x="322" y="-188.5" font-family="Helvetica,sans-Serif" font-size="10.00">proto::FieldContainer</text>
<text text-anchor="middle" x="373.5" y="-177.5" font-family="Helvetica,sans-Serif" font-size="10.00">::is_debug</text>
</a>
</g>
</g>
<!-- Node2&#45;&gt;Node5 -->
<g id="edge4_Node000002_Node000005" class="edge">
<title>Node2&#45;&gt;Node5</title>
<g id="a_edge4_Node000002_Node000005"><a xlink:title=" ">
<path fill="none" stroke="#63b8ff" d="M269.21,-152.56C283.91,-157.25 300.29,-162.47 315.59,-167.35"/>
<polygon fill="#63b8ff" stroke="#63b8ff" points="314.87,-170.79 325.46,-170.5 317,-164.12 314.87,-170.79"/>
</a>
</g>
</g>
<!-- Node6 -->
<g id="Node000006" class="node">
<title>Node6</title>
<g id="a_Node000006"><a xlink:href="../../d5/d09/classproto_1_1FieldContainer.html#a44b086a546a434a9ba804d3081559d29" target="_top" xlink:title="Reset all fields, CRC, and internal state to defaults.">
<polygon fill="white" stroke="#666666" points="433,-152.5 314,-152.5 314,-122.5 433,-122.5 433,-152.5"/>
<text text-anchor="start" x="322" y="-140.5" font-family="Helvetica,sans-Serif" font-size="10.00">proto::FieldContainer</text>
<text text-anchor="middle" x="373.5" y="-129.5" font-family="Helvetica,sans-Serif" font-size="10.00">::reset</text>
</a>
</g>
</g>
<!-- Node2&#45;&gt;Node6 -->
<g id="edge5_Node000002_Node000006" class="edge">
<title>Node2&#45;&gt;Node6</title>
<g id="a_edge5_Node000002_Node000006"><a xlink:title=" ">
<path fill="none" stroke="#63b8ff" d="M275.06,-137.5C284.26,-137.5 293.94,-137.5 303.49,-137.5"/>
<polygon fill="#63b8ff" stroke="#63b8ff" points="303.77,-141 313.77,-137.5 303.77,-134 303.77,-141"/>
</a>
</g>
</g>
<!-- Node9 -->
<g id="Node000009" class="node">
<title>Node9</title>
<g id="a_Node000009"><a xlink:href="../../d0/d29/classproto_1_1RxContainer.html#a1b2e180fb838c06e4704724c13712107" target="_top" xlink:title="Compile&#45;time unrolled dispatcher that calls a functor for a runtime field index.">
<polygon fill="white" stroke="#666666" points="427.5,-104.5 319.5,-104.5 319.5,-74.5 427.5,-74.5 427.5,-104.5"/>
<text text-anchor="start" x="327.5" y="-92.5" font-family="Helvetica,sans-Serif" font-size="10.00">proto::RxContainer</text>
<text text-anchor="middle" x="373.5" y="-81.5" font-family="Helvetica,sans-Serif" font-size="10.00">::static_for_index</text>
</a>
</g>
</g>
<!-- Node2&#45;&gt;Node9 -->
<g id="edge8_Node000002_Node000009" class="edge">
<title>Node2&#45;&gt;Node9</title>
<g id="a_edge8_Node000002_Node000009"><a xlink:title=" ">
<path fill="none" stroke="#63b8ff" d="M269.21,-122.44C283.91,-117.75 300.29,-112.53 315.59,-107.65"/>
<polygon fill="#63b8ff" stroke="#63b8ff" points="317,-110.88 325.46,-104.5 314.87,-104.21 317,-110.88"/>
</a>
</g>
</g>
<!-- Node10 -->
<g id="Node000010" class="node">
<title>Node10</title>
<g id="a_Node000010"><a xlink:href="../../d6/d58/classCustomSpan.html#a9b193ceee70ecda6e7bf8ba824cdca37" target="_top" xlink:title=" ">
<polygon fill="white" stroke="#666666" points="436,-56 311,-56 311,-37 436,-37 436,-56"/>
<text text-anchor="middle" x="373.5" y="-44" font-family="Helvetica,sans-Serif" font-size="10.00">CustomSpan::subspan</text>
</a>
</g>
</g>
<!-- Node2&#45;&gt;Node10 -->
<g id="edge9_Node000002_Node000010" class="edge">
<title>Node2&#45;&gt;Node10</title>
<g id="a_edge9_Node000002_Node000010"><a xlink:title=" ">
<path fill="none" stroke="#63b8ff" d="M261.25,-122.48C266.11,-119.84 270.82,-116.85 275,-113.5 295.8,-96.81 289.2,-80.85 311,-65.5 313.83,-63.51 316.87,-61.72 320.03,-60.12"/>
<polygon fill="#63b8ff" stroke="#63b8ff" points="321.46,-63.31 329.19,-56.07 318.63,-56.91 321.46,-63.31"/>
</a>
</g>
</g>
<!-- Node12 -->
<g id="Node000012" class="node">
<title>Node12</title>
<g id="a_Node000012"><a xlink:href="../../d6/dca/namespaceproto.html#a1881b92fb56d58d8b379b994eff4eb7d" target="_top" xlink:title="Convert FieldName enum to string.">
<polygon fill="white" stroke="#666666" points="419,-19 328,-19 328,0 419,0 419,-19"/>
<text text-anchor="middle" x="373.5" y="-7" font-family="Helvetica,sans-Serif" font-size="10.00">proto::to_string</text>
</a>
</g>
</g>
<!-- Node2&#45;&gt;Node12 -->
<g id="edge11_Node000002_Node000012" class="edge">
<title>Node2&#45;&gt;Node12</title>
<g id="a_edge11_Node000002_Node000012"><a xlink:title=" ">
<path fill="none" stroke="#63b8ff" d="M263.67,-122.42C267.8,-119.86 271.68,-116.9 275,-113.5 303.65,-84.14 280.56,-56.01 311,-28.5 313.45,-26.29 316.14,-24.34 319.01,-22.61"/>
<polygon fill="#63b8ff" stroke="#63b8ff" points="320.63,-25.71 327.98,-18.08 317.48,-19.46 320.63,-25.71"/>
</a>
</g>
</g>
<!-- Node7 -->
<g id="Node000007" class="node">
<title>Node7</title>
<g id="a_Node000007"><a xlink:href="../../d5/d09/classproto_1_1FieldContainer.html#ad87097e46757f1f4d2ead100ef965f1e" target="_top" xlink:title="Apply a callable to each field in the container.">
<polygon fill="white" stroke="#666666" points="604.5,-152.5 485.5,-152.5 485.5,-122.5 604.5,-122.5 604.5,-152.5"/>
<text text-anchor="start" x="493.5" y="-140.5" font-family="Helvetica,sans-Serif" font-size="10.00">proto::FieldContainer</text>
<text text-anchor="middle" x="545" y="-129.5" font-family="Helvetica,sans-Serif" font-size="10.00">::for_each_type</text>
</a>
</g>
</g>
<!-- Node6&#45;&gt;Node7 -->
<g id="edge6_Node000006_Node000007" class="edge">
<title>Node6&#45;&gt;Node7</title>
<g id="a_edge6_Node000006_Node000007"><a xlink:title=" ">
<path fill="none" stroke="#63b8ff" d="M433.31,-137.5C446.85,-137.5 461.37,-137.5 475.29,-137.5"/>
<polygon fill="#63b8ff" stroke="#63b8ff" points="475.3,-141 485.3,-137.5 475.3,-134 475.3,-141"/>
</a>
</g>
</g>
<!-- Node8 -->
<g id="Node000008" class="node">
<title>Node8</title>
<g id="a_Node000008"><a xlink:href="../../d5/d09/classproto_1_1FieldContainer.html#a47927806803e31410e7e5bf48e7d50b2" target="_top" xlink:title="Helper to apply a callable to each field in the tuple (implementation).">
<polygon fill="white" stroke="#666666" points="773,-152.5 654,-152.5 654,-122.5 773,-122.5 773,-152.5"/>
<text text-anchor="start" x="662" y="-140.5" font-family="Helvetica,sans-Serif" font-size="10.00">proto::FieldContainer</text>
<text text-anchor="middle" x="713.5" y="-129.5" font-family="Helvetica,sans-Serif" font-size="10.00">::for_each_type_impl</text>
</a>
</g>
</g>
<!-- Node7&#45;&gt;Node8 -->
<g id="edge7_Node000007_Node000008" class="edge">
<title>Node7&#45;&gt;Node8</title>
<g id="a_edge7_Node000007_Node000008"><a xlink:title=" ">
<path fill="none" stroke="#63b8ff" d="M604.7,-137.5C617.26,-137.5 630.64,-137.5 643.54,-137.5"/>
<polygon fill="#63b8ff" stroke="#63b8ff" points="643.77,-141 653.77,-137.5 643.77,-134 643.77,-141"/>
</a>
</g>
</g>
<!-- Node11 -->
<g id="Node000011" class="node">
<title>Node11</title>
<g id="a_Node000011"><a xlink:href="../../d6/d58/classCustomSpan.html#adf665d2b306d731b0ae135ed3f328531" target="_top" xlink:title=" ">
<polygon fill="white" stroke="#666666" points="618,-56 472,-56 472,-37 618,-37 618,-56"/>
<text text-anchor="middle" x="545" y="-44" font-family="Helvetica,sans-Serif" font-size="10.00">CustomSpan::CustomSpan</text>
</a>
</g>
</g>
<!-- Node10&#45;&gt;Node11 -->
<g id="edge10_Node000010_Node000011" class="edge">
<title>Node10&#45;&gt;Node11</title>
<g id="a_edge10_Node000010_Node000011"><a xlink:title=" ">
<path fill="none" stroke="#63b8ff" d="M436.17,-46.5C444.47,-46.5 453.09,-46.5 461.68,-46.5"/>
<polygon fill="#63b8ff" stroke="#63b8ff" points="461.72,-50 471.72,-46.5 461.72,-43 461.72,-50"/>
</a>
</g>
</g>
</g>
</svg>
