<?xml version="1.0" encoding="UTF-8" standalone="no"?>
<!DOCTYPE svg PUBLIC "-//W3C//DTD SVG 1.1//EN"
 "http://www.w3.org/Graphics/SVG/1.1/DTD/svg11.dtd">
<!-- Generated by graphviz version 2.43.0 (0)
 -->
<!-- Title: CustomSpan.hpp Pages: 1 -->
<svg width="403pt" height="357pt"
 viewBox="0.00 0.00 403.00 357.00" xmlns="http://www.w3.org/2000/svg" xmlns:xlink="http://www.w3.org/1999/xlink">
<g id="graph0" class="graph" transform="scale(1 1) rotate(0) translate(4 353)">
<title>CustomSpan.hpp</title>
<!-- Node1 -->
<g id="Node000001" class="node">
<title>Node1</title>
<g id="a_Node000001"><a xlink:title=" ">
<polygon fill="#999999" stroke="#666666" points="199,-349 100,-349 100,-330 199,-330 199,-349"/>
<text text-anchor="middle" x="149.5" y="-337" font-family="Helvetica,sans-Serif" font-size="10.00">CustomSpan.hpp</text>
</a>
</g>
</g>
<!-- Node2 -->
<g id="Node000002" class="node">
<title>Node2</title>
<g id="a_Node000002"><a xlink:href="../../d4/d28/Crc_8hpp.html" target="_top" xlink:title=" ">
<polygon fill="white" stroke="#666666" points="57,-294 4,-294 4,-275 57,-275 57,-294"/>
<text text-anchor="middle" x="30.5" y="-282" font-family="Helvetica,sans-Serif" font-size="10.00">Crc.hpp</text>
</a>
</g>
</g>
<!-- Node1&#45;&gt;Node2 -->
<g id="edge1_Node000001_Node000002" class="edge">
<title>Node1&#45;&gt;Node2</title>
<g id="a_edge1_Node000001_Node000002"><a xlink:title=" ">
<path fill="none" stroke="#63b8ff" d="M121.2,-325.9C99.22,-316.11 69.32,-302.79 49.97,-294.17"/>
<polygon fill="#63b8ff" stroke="#63b8ff" points="119.82,-329.11 130.38,-329.98 122.67,-322.72 119.82,-329.11"/>
</a>
</g>
</g>
<!-- Node3 -->
<g id="Node000003" class="node">
<title>Node3</title>
<g id="a_Node000003"><a xlink:href="../../d7/d79/Interface_8hpp.html" target="_top" xlink:title=" ">
<polygon fill="white" stroke="#666666" points="156,-294 75,-294 75,-275 156,-275 156,-294"/>
<text text-anchor="middle" x="115.5" y="-282" font-family="Helvetica,sans-Serif" font-size="10.00">Interface.hpp</text>
</a>
</g>
</g>
<!-- Node1&#45;&gt;Node3 -->
<g id="edge2_Node000001_Node000003" class="edge">
<title>Node1&#45;&gt;Node3</title>
<g id="a_edge2_Node000001_Node000003"><a xlink:title=" ">
<path fill="none" stroke="#63b8ff" d="M138.34,-321.1C132.53,-312.04 125.68,-301.37 121.01,-294.09"/>
<polygon fill="#63b8ff" stroke="#63b8ff" points="135.54,-323.22 143.89,-329.75 141.43,-319.44 135.54,-323.22"/>
</a>
</g>
</g>
<!-- Node4 -->
<g id="Node000004" class="node">
<title>Node4</title>
<g id="a_Node000004"><a xlink:href="../../d9/d32/TxContainer_8hpp.html" target="_top" xlink:title="TX&#45;side container that builds protocol frames from a set of fields.">
<polygon fill="white" stroke="#666666" points="213.5,-239 117.5,-239 117.5,-220 213.5,-220 213.5,-239"/>
<text text-anchor="middle" x="165.5" y="-227" font-family="Helvetica,sans-Serif" font-size="10.00">TxContainer.hpp</text>
</a>
</g>
</g>
<!-- Node1&#45;&gt;Node4 -->
<g id="edge16_Node000001_Node000004" class="edge">
<title>Node1&#45;&gt;Node4</title>
<g id="a_edge16_Node000001_Node000004"><a xlink:title=" ">
<path fill="none" stroke="#63b8ff" d="M156.99,-320.48C159.93,-312.51 162.96,-302.94 164.5,-294 167.83,-274.66 167.01,-251.51 166.21,-239.21"/>
<polygon fill="#63b8ff" stroke="#63b8ff" points="153.71,-319.26 153.31,-329.84 160.23,-321.81 153.71,-319.26"/>
</a>
</g>
</g>
<!-- Node12 -->
<g id="Node000012" class="node">
<title>Node12</title>
<g id="a_Node000012"><a xlink:href="../../da/d06/RxContainer_8hpp.html" target="_top" xlink:title="Stateful frame parsing container that incrementally matches and fills protocol fields from a byte str...">
<polygon fill="white" stroke="#666666" points="329,-239 232,-239 232,-220 329,-220 329,-239"/>
<text text-anchor="middle" x="280.5" y="-227" font-family="Helvetica,sans-Serif" font-size="10.00">RxContainer.hpp</text>
</a>
</g>
</g>
<!-- Node1&#45;&gt;Node12 -->
<g id="edge13_Node000001_Node000012" class="edge">
<title>Node1&#45;&gt;Node12</title>
<g id="a_edge13_Node000001_Node000012"><a xlink:title=" ">
<path fill="none" stroke="#63b8ff" d="M168.05,-323.21C195.96,-300.2 247.82,-257.44 270,-239.16"/>
<polygon fill="#63b8ff" stroke="#63b8ff" points="165.71,-320.6 160.22,-329.66 170.16,-326 165.71,-320.6"/>
</a>
</g>
</g>
<!-- Node3&#45;&gt;Node4 -->
<g id="edge3_Node000003_Node000004" class="edge">
<title>Node3&#45;&gt;Node4</title>
<g id="a_edge3_Node000003_Node000004"><a xlink:title=" ">
<path fill="none" stroke="#63b8ff" d="M130.84,-267.24C139.6,-257.95 150.24,-246.68 157.4,-239.09"/>
<polygon fill="#63b8ff" stroke="#63b8ff" points="128.07,-265.07 123.76,-274.75 133.16,-269.88 128.07,-265.07"/>
</a>
</g>
</g>
<!-- Node11 -->
<g id="Node000011" class="node">
<title>Node11</title>
<g id="a_Node000011"><a xlink:href="../../dc/d61/Ymodem_8hpp.html" target="_top" xlink:title=" ">
<polygon fill="white" stroke="#666666" points="81,-184 0,-184 0,-165 81,-165 81,-184"/>
<text text-anchor="middle" x="40.5" y="-172" font-family="Helvetica,sans-Serif" font-size="10.00">Ymodem.hpp</text>
</a>
</g>
</g>
<!-- Node3&#45;&gt;Node11 -->
<g id="edge11_Node000003_Node000011" class="edge">
<title>Node3&#45;&gt;Node11</title>
<g id="a_edge11_Node000003_Node000011"><a xlink:title=" ">
<path fill="none" stroke="#63b8ff" d="M103.61,-266.38C87.38,-243.01 58.88,-201.97 46.51,-184.16"/>
<polygon fill="#63b8ff" stroke="#63b8ff" points="100.78,-268.44 109.36,-274.66 106.53,-264.45 100.78,-268.44"/>
</a>
</g>
</g>
<!-- Node5 -->
<g id="Node000005" class="node">
<title>Node5</title>
<g id="a_Node000005"><a xlink:href="../../d8/db2/ProtocolEndpoint_8hpp.html" target="_top" xlink:title="Base endpoint class for protocol implementations.">
<polygon fill="white" stroke="#666666" points="225.5,-184 105.5,-184 105.5,-165 225.5,-165 225.5,-184"/>
<text text-anchor="middle" x="165.5" y="-172" font-family="Helvetica,sans-Serif" font-size="10.00">ProtocolEndpoint.hpp</text>
</a>
</g>
</g>
<!-- Node4&#45;&gt;Node5 -->
<g id="edge4_Node000004_Node000005" class="edge">
<title>Node4&#45;&gt;Node5</title>
<g id="a_edge4_Node000004_Node000005"><a xlink:title=" ">
<path fill="none" stroke="#63b8ff" d="M165.5,-209.66C165.5,-200.93 165.5,-190.99 165.5,-184.09"/>
<polygon fill="#63b8ff" stroke="#63b8ff" points="162,-209.75 165.5,-219.75 169,-209.75 162,-209.75"/>
</a>
</g>
</g>
<!-- Node9 -->
<g id="Node000009" class="node">
<title>Node9</title>
<g id="a_Node000009"><a xlink:href="../../dc/dc4/ProtocolNoSysEndpoint_8hpp.html" target="_top" xlink:title=" ">
<polygon fill="white" stroke="#666666" points="395,-184 244,-184 244,-165 395,-165 395,-184"/>
<text text-anchor="middle" x="319.5" y="-172" font-family="Helvetica,sans-Serif" font-size="10.00">ProtocolNoSysEndpoint.hpp</text>
</a>
</g>
</g>
<!-- Node4&#45;&gt;Node9 -->
<g id="edge9_Node000004_Node000009" class="edge">
<title>Node4&#45;&gt;Node9</title>
<g id="a_edge9_Node000004_Node000009"><a xlink:title=" ">
<path fill="none" stroke="#63b8ff" d="M199.88,-216.67C228.59,-206.79 268.86,-192.93 294.56,-184.08"/>
<polygon fill="#63b8ff" stroke="#63b8ff" points="198.56,-213.42 190.24,-219.98 200.84,-220.04 198.56,-213.42"/>
</a>
</g>
</g>
<!-- Node6 -->
<g id="Node000006" class="node">
<title>Node6</title>
<g id="a_Node000006"><a xlink:href="../../d9/ddb/LacteProtocol_8hpp.html" target="_top" xlink:title=" ">
<polygon fill="white" stroke="#666666" points="184.5,-74 80.5,-74 80.5,-55 184.5,-55 184.5,-74"/>
<text text-anchor="middle" x="132.5" y="-62" font-family="Helvetica,sans-Serif" font-size="10.00">LacteProtocol.hpp</text>
</a>
</g>
</g>
<!-- Node5&#45;&gt;Node6 -->
<g id="edge5_Node000005_Node000006" class="edge">
<title>Node5&#45;&gt;Node6</title>
<g id="a_edge5_Node000005_Node000006"><a xlink:title=" ">
<path fill="none" stroke="#63b8ff" d="M190.41,-159.36C208.71,-147.04 228.6,-128.33 217.5,-110 206.46,-91.76 185.21,-80.63 166.72,-74.07"/>
<polygon fill="#63b8ff" stroke="#63b8ff" points="188.29,-156.56 181.7,-164.86 192.02,-162.48 188.29,-156.56"/>
</a>
</g>
</g>
<!-- Node8 -->
<g id="Node000008" class="node">
<title>Node8</title>
<g id="a_Node000008"><a xlink:href="../../dd/d58/LacteProtocolPrototype_8hpp.html" target="_top" xlink:title=" ">
<polygon fill="white" stroke="#666666" points="208,-129 57,-129 57,-110 208,-110 208,-129"/>
<text text-anchor="middle" x="132.5" y="-117" font-family="Helvetica,sans-Serif" font-size="10.00">LacteProtocolPrototype.hpp</text>
</a>
</g>
</g>
<!-- Node5&#45;&gt;Node8 -->
<g id="edge7_Node000005_Node000008" class="edge">
<title>Node5&#45;&gt;Node8</title>
<g id="a_edge7_Node000005_Node000008"><a xlink:title=" ">
<path fill="none" stroke="#63b8ff" d="M154.67,-156.1C149.03,-147.04 142.38,-136.37 137.85,-129.09"/>
<polygon fill="#63b8ff" stroke="#63b8ff" points="151.79,-158.11 160.05,-164.75 157.74,-154.41 151.79,-158.11"/>
</a>
</g>
</g>
<!-- Node7 -->
<g id="Node000007" class="node">
<title>Node7</title>
<g id="a_Node000007"><a xlink:href="../../dc/d80/VirtualBoard_8hpp.html" target="_top" xlink:title=" ">
<polygon fill="white" stroke="#666666" points="181.5,-19 83.5,-19 83.5,0 181.5,0 181.5,-19"/>
<text text-anchor="middle" x="132.5" y="-7" font-family="Helvetica,sans-Serif" font-size="10.00">VirtualBoard.hpp</text>
</a>
</g>
</g>
<!-- Node6&#45;&gt;Node7 -->
<g id="edge6_Node000006_Node000007" class="edge">
<title>Node6&#45;&gt;Node7</title>
<g id="a_edge6_Node000006_Node000007"><a xlink:title=" ">
<path fill="none" stroke="#63b8ff" d="M132.5,-44.66C132.5,-35.93 132.5,-25.99 132.5,-19.09"/>
<polygon fill="#63b8ff" stroke="#63b8ff" points="129,-44.75 132.5,-54.75 136,-44.75 129,-44.75"/>
</a>
</g>
</g>
<!-- Node8&#45;&gt;Node6 -->
<g id="edge8_Node000008_Node000006" class="edge">
<title>Node8&#45;&gt;Node6</title>
<g id="a_edge8_Node000008_Node000006"><a xlink:title=" ">
<path fill="none" stroke="#63b8ff" d="M132.5,-99.66C132.5,-90.93 132.5,-80.99 132.5,-74.09"/>
<polygon fill="#63b8ff" stroke="#63b8ff" points="129,-99.75 132.5,-109.75 136,-99.75 129,-99.75"/>
</a>
</g>
</g>
<!-- Node10 -->
<g id="Node000010" class="node">
<title>Node10</title>
<g id="a_Node000010"><a xlink:href="../../d6/de6/exoAtlantProtocol_8hpp.html" target="_top" xlink:title=" ">
<polygon fill="white" stroke="#666666" points="388.5,-129 264.5,-129 264.5,-110 388.5,-110 388.5,-129"/>
<text text-anchor="middle" x="326.5" y="-117" font-family="Helvetica,sans-Serif" font-size="10.00">exoAtlantProtocol.hpp</text>
</a>
</g>
</g>
<!-- Node9&#45;&gt;Node10 -->
<g id="edge10_Node000009_Node000010" class="edge">
<title>Node9&#45;&gt;Node10</title>
<g id="a_edge10_Node000009_Node000010"><a xlink:title=" ">
<path fill="none" stroke="#63b8ff" d="M321.99,-154.66C323.14,-145.93 324.45,-135.99 325.37,-129.09"/>
<polygon fill="#63b8ff" stroke="#63b8ff" points="318.5,-154.38 320.66,-164.75 325.44,-155.29 318.5,-154.38"/>
</a>
</g>
</g>
<!-- Node11&#45;&gt;Node6 -->
<g id="edge12_Node000011_Node000006" class="edge">
<title>Node11&#45;&gt;Node6</title>
<g id="a_edge12_Node000011_Node000006"><a xlink:title=" ">
<path fill="none" stroke="#63b8ff" d="M38.15,-154.73C37.43,-141.17 38.61,-123.02 47.5,-110 59.81,-91.98 81.77,-80.75 100.3,-74.08"/>
<polygon fill="#63b8ff" stroke="#63b8ff" points="34.67,-155.19 39.06,-164.83 41.65,-154.55 34.67,-155.19"/>
</a>
</g>
</g>
<!-- Node12&#45;&gt;Node5 -->
<g id="edge14_Node000012_Node000005" class="edge">
<title>Node12&#45;&gt;Node5</title>
<g id="a_edge14_Node000012_Node000005"><a xlink:title=" ">
<path fill="none" stroke="#63b8ff" d="M252.87,-215.77C231.66,-205.99 202.94,-192.75 184.31,-184.17"/>
<polygon fill="#63b8ff" stroke="#63b8ff" points="251.48,-218.98 262.02,-219.98 254.41,-212.62 251.48,-218.98"/>
</a>
</g>
</g>
<!-- Node12&#45;&gt;Node9 -->
<g id="edge15_Node000012_Node000009" class="edge">
<title>Node12&#45;&gt;Node9</title>
<g id="a_edge15_Node000012_Node000009"><a xlink:title=" ">
<path fill="none" stroke="#63b8ff" d="M292.88,-211.67C299.64,-202.5 307.71,-191.52 313.18,-184.09"/>
<polygon fill="#63b8ff" stroke="#63b8ff" points="290.05,-209.62 286.94,-219.75 295.69,-213.77 290.05,-209.62"/>
</a>
</g>
</g>
</g>
</svg>
