<?xml version="1.0" encoding="UTF-8" standalone="no"?>
<!DOCTYPE svg PUBLIC "-//W3C//DTD SVG 1.1//EN"
 "http://www.w3.org/Graphics/SVG/1.1/DTD/svg11.dtd">
<!-- Generated by graphviz version 2.43.0 (0)
 -->
<!-- Title: proto::lacte::VirtualBoard&lt; RX_BASE, TX_BASE &gt; Pages: 1 -->
<svg width="735pt" height="566pt"
 viewBox="0.00 0.00 735.00 566.00" xmlns="http://www.w3.org/2000/svg" xmlns:xlink="http://www.w3.org/1999/xlink">
<g id="graph0" class="graph" transform="scale(1 1) rotate(0) translate(4 562)">
<title>proto::lacte::VirtualBoard&lt; RX_BASE, TX_BASE &gt;</title>
<!-- Node1 -->
<g id="Node000001" class="node">
<title>Node1</title>
<g id="a_Node000001"><a xlink:title=" ">
<polygon fill="#999999" stroke="#666666" points="727,-487.5 588,-487.5 588,-457.5 727,-457.5 727,-487.5"/>
<text text-anchor="start" x="596" y="-475.5" font-family="Helvetica,sans-Serif" font-size="10.00">proto::lacte::VirtualBoard</text>
<text text-anchor="middle" x="657.5" y="-464.5" font-family="Helvetica,sans-Serif" font-size="10.00">&lt; RX_BASE, TX_BASE &gt;</text>
</a>
</g>
</g>
<!-- Node2 -->
<g id="Node000002" class="node">
<title>Node2</title>
<g id="a_Node000002"><a xlink:href="../../d7/d99/structproto_1_1lacte_1_1VersionPacketType.html" target="_top" xlink:title=" ">
<polygon fill="white" stroke="#666666" points="464.5,-558 296.5,-558 296.5,-539 464.5,-539 464.5,-558"/>
<text text-anchor="middle" x="380.5" y="-546" font-family="Helvetica,sans-Serif" font-size="10.00">proto::lacte::VersionPacketType</text>
</a>
</g>
</g>
<!-- Node2&#45;&gt;Node1 -->
<g id="edge1_Node000001_Node000002" class="edge">
<title>Node2&#45;&gt;Node1</title>
<g id="a_edge1_Node000001_Node000002"><a xlink:title=" ">
<path fill="none" stroke="#9a32cd" stroke-dasharray="5,2" d="M460.02,-537.24C494.25,-531.27 534.57,-522.8 570,-511.5 589.78,-505.19 611.04,-495.65 627.53,-487.58"/>
<polygon fill="#9a32cd" stroke="#9a32cd" points="459.34,-533.81 450.07,-538.93 460.51,-540.71 459.34,-533.81"/>
</a>
</g>
<text text-anchor="middle" x="529" y="-534.5" font-family="Helvetica,sans-Serif" font-size="10.00" fill="grey"> m_version_data</text>
</g>
<!-- Node3 -->
<g id="Node000003" class="node">
<title>Node3</title>
<g id="a_Node000003"><a xlink:href="../../da/d22/structproto_1_1lacte_1_1InfoPacketType.html" target="_top" xlink:title=" ">
<polygon fill="white" stroke="#666666" points="456,-521 305,-521 305,-502 456,-502 456,-521"/>
<text text-anchor="middle" x="380.5" y="-509" font-family="Helvetica,sans-Serif" font-size="10.00">proto::lacte::InfoPacketType</text>
</a>
</g>
</g>
<!-- Node3&#45;&gt;Node1 -->
<g id="edge2_Node000001_Node000003" class="edge">
<title>Node3&#45;&gt;Node1</title>
<g id="a_edge2_Node000001_Node000003"><a xlink:title=" ">
<path fill="none" stroke="#9a32cd" stroke-dasharray="5,2" d="M466.66,-500.73C499.05,-496.5 536.26,-491.47 570,-486.5 575.72,-485.66 581.65,-484.76 587.59,-483.83"/>
<polygon fill="#9a32cd" stroke="#9a32cd" points="465.79,-497.31 456.33,-502.08 466.7,-504.26 465.79,-497.31"/>
</a>
</g>
<text text-anchor="middle" x="529" y="-499.5" font-family="Helvetica,sans-Serif" font-size="10.00" fill="grey"> m_info_data</text>
</g>
<!-- Node4 -->
<g id="Node000004" class="node">
<title>Node4</title>
<g id="a_Node000004"><a xlink:href="../../d9/db4/classproto_1_1lacte_1_1ErrorFlags.html" target="_top" xlink:title=" ">
<polygon fill="white" stroke="#666666" points="145.5,-549 17.5,-549 17.5,-530 145.5,-530 145.5,-549"/>
<text text-anchor="middle" x="81.5" y="-537" font-family="Helvetica,sans-Serif" font-size="10.00">proto::lacte::ErrorFlags</text>
</a>
</g>
</g>
<!-- Node4&#45;&gt;Node3 -->
<g id="edge3_Node000003_Node000004" class="edge">
<title>Node4&#45;&gt;Node3</title>
<g id="a_edge3_Node000003_Node000004"><a xlink:title=" ">
<path fill="none" stroke="#9a32cd" stroke-dasharray="5,2" d="M155.92,-532.58C201.3,-528.3 259.38,-522.82 304.97,-518.53"/>
<polygon fill="#9a32cd" stroke="#9a32cd" points="155.48,-529.1 145.85,-533.53 156.13,-536.07 155.48,-529.1"/>
</a>
</g>
<text text-anchor="middle" x="227" y="-532.5" font-family="Helvetica,sans-Serif" font-size="10.00" fill="grey"> m_errors</text>
</g>
<!-- Node5 -->
<g id="Node000005" class="node">
<title>Node5</title>
<g id="a_Node000005"><a xlink:href="../../df/dc6/structproto_1_1lacte_1_1RFIDNumberType.html" target="_top" xlink:title=" ">
<polygon fill="white" stroke="#666666" points="163,-491 0,-491 0,-472 163,-472 163,-491"/>
<text text-anchor="middle" x="81.5" y="-479" font-family="Helvetica,sans-Serif" font-size="10.00">proto::lacte::RFIDNumberType</text>
</a>
</g>
</g>
<!-- Node5&#45;&gt;Node1 -->
<g id="edge7_Node000001_Node000005" class="edge">
<title>Node5&#45;&gt;Node1</title>
<g id="a_edge7_Node000001_Node000005"><a xlink:title=" ">
<path fill="none" stroke="#9a32cd" stroke-dasharray="5,2" d="M173.42,-480.07C288.61,-478.27 484.53,-475.2 587.92,-473.58"/>
<polygon fill="#9a32cd" stroke="#9a32cd" points="173.16,-476.58 163.22,-480.23 173.27,-483.58 173.16,-476.58"/>
</a>
</g>
<text text-anchor="middle" x="380.5" y="-480.5" font-family="Helvetica,sans-Serif" font-size="10.00" fill="grey"> m_rfid</text>
</g>
<!-- Node5&#45;&gt;Node3 -->
<g id="edge4_Node000003_Node000005" class="edge">
<title>Node5&#45;&gt;Node3</title>
<g id="a_edge4_Node000003_Node000005"><a xlink:title=" ">
<path fill="none" stroke="#9a32cd" stroke-dasharray="5,2" d="M173.25,-490.67C215.41,-494.93 264.92,-499.93 304.87,-503.96"/>
<polygon fill="#9a32cd" stroke="#9a32cd" points="173.57,-487.18 163.26,-489.66 172.86,-494.15 173.57,-487.18"/>
</a>
</g>
<text text-anchor="middle" x="227" y="-502.5" font-family="Helvetica,sans-Serif" font-size="10.00" fill="grey"> m_rfid</text>
</g>
<!-- Node6 -->
<g id="Node000006" class="node">
<title>Node6</title>
<g id="a_Node000006"><a xlink:href="../../dd/dda/structproto_1_1lacte_1_1UIDPacketType.html" target="_top" xlink:title=" ">
<polygon fill="white" stroke="#666666" points="455.5,-436 305.5,-436 305.5,-417 455.5,-417 455.5,-436"/>
<text text-anchor="middle" x="380.5" y="-424" font-family="Helvetica,sans-Serif" font-size="10.00">proto::lacte::UIDPacketType</text>
</a>
</g>
</g>
<!-- Node6&#45;&gt;Node1 -->
<g id="edge5_Node000001_Node000006" class="edge">
<title>Node6&#45;&gt;Node1</title>
<g id="a_edge5_Node000001_Node000006"><a xlink:title=" ">
<path fill="none" stroke="#9a32cd" stroke-dasharray="5,2" d="M465.79,-432.8C498.52,-436.05 536.19,-440.78 570,-447.5 583.03,-450.09 596.95,-453.72 609.72,-457.4"/>
<polygon fill="#9a32cd" stroke="#9a32cd" points="466.09,-429.31 455.8,-431.84 465.42,-436.28 466.09,-429.31"/>
</a>
</g>
<text text-anchor="middle" x="529" y="-450.5" font-family="Helvetica,sans-Serif" font-size="10.00" fill="grey"> m_uid_data</text>
</g>
<!-- Node7 -->
<g id="Node000007" class="node">
<title>Node7</title>
<g id="a_Node000007"><a xlink:href="../../de/d3d/structproto_1_1lacte_1_1McuUid.html" target="_top" xlink:title=" ">
<polygon fill="white" stroke="#666666" points="139,-447 24,-447 24,-428 139,-428 139,-447"/>
<text text-anchor="middle" x="81.5" y="-435" font-family="Helvetica,sans-Serif" font-size="10.00">proto::lacte::McuUid</text>
</a>
</g>
</g>
<!-- Node7&#45;&gt;Node6 -->
<g id="edge6_Node000006_Node000007" class="edge">
<title>Node7&#45;&gt;Node6</title>
<g id="a_edge6_Node000006_Node000007"><a xlink:title=" ">
<path fill="none" stroke="#9a32cd" stroke-dasharray="5,2" d="M149.31,-435.03C195.71,-433.31 257.54,-431.02 305.44,-429.24"/>
<polygon fill="#9a32cd" stroke="#9a32cd" points="148.93,-431.54 139.06,-435.41 149.19,-438.53 148.93,-431.54"/>
</a>
</g>
<text text-anchor="middle" x="227" y="-436.5" font-family="Helvetica,sans-Serif" font-size="10.00" fill="grey"> m_uid</text>
</g>
<!-- Node8 -->
<g id="Node000008" class="node">
<title>Node8</title>
<g id="a_Node000008"><a xlink:href="../../d3/d09/structproto_1_1lacte_1_1RFIDDataPacketType.html" target="_top" xlink:title=" ">
<polygon fill="white" stroke="#666666" points="470,-241 291,-241 291,-222 470,-222 470,-241"/>
<text text-anchor="middle" x="380.5" y="-229" font-family="Helvetica,sans-Serif" font-size="10.00">proto::lacte::RFIDDataPacketType</text>
</a>
</g>
</g>
<!-- Node7&#45;&gt;Node8 -->
<g id="edge16_Node000008_Node000007" class="edge">
<title>Node7&#45;&gt;Node8</title>
<g id="a_edge16_Node000008_Node000007"><a xlink:title=" ">
<path fill="none" stroke="#9a32cd" stroke-dasharray="5,2" d="M134.25,-425.6C186.64,-413.24 261.54,-394.6 273,-386.5 328.73,-347.12 364.45,-268.73 375.68,-241.27"/>
<polygon fill="#9a32cd" stroke="#9a32cd" points="133.36,-422.21 124.42,-427.91 134.96,-429.03 133.36,-422.21"/>
</a>
</g>
<text text-anchor="middle" x="227" y="-416.5" font-family="Helvetica,sans-Serif" font-size="10.00" fill="grey"> m_mcuUid</text>
</g>
<!-- Node8&#45;&gt;Node1 -->
<g id="edge8_Node000001_Node000008" class="edge">
<title>Node8&#45;&gt;Node1</title>
<g id="a_edge8_Node000001_Node000008"><a xlink:title=" ">
<path fill="none" stroke="#9a32cd" stroke-dasharray="5,2" d="M400.23,-247.92C450.92,-292.34 590.24,-414.43 639.2,-457.34"/>
<polygon fill="#9a32cd" stroke="#9a32cd" points="402.45,-245.2 392.62,-241.25 397.83,-250.47 402.45,-245.2"/>
</a>
</g>
<text text-anchor="middle" x="529" y="-397.5" font-family="Helvetica,sans-Serif" font-size="10.00" fill="grey"> m_rfid_data</text>
</g>
<!-- Node9 -->
<g id="Node000009" class="node">
<title>Node9</title>
<g id="a_Node000009"><a xlink:href="../../d6/dbf/structproto_1_1lacte_1_1MagicWord.html" target="_top" xlink:title=" ">
<polygon fill="white" stroke="#666666" points="147.5,-389 15.5,-389 15.5,-370 147.5,-370 147.5,-389"/>
<text text-anchor="middle" x="81.5" y="-377" font-family="Helvetica,sans-Serif" font-size="10.00">proto::lacte::MagicWord</text>
</a>
</g>
</g>
<!-- Node9&#45;&gt;Node8 -->
<g id="edge9_Node000008_Node000009" class="edge">
<title>Node9&#45;&gt;Node8</title>
<g id="a_edge9_Node000008_Node000009"><a xlink:title=" ">
<path fill="none" stroke="#9a32cd" stroke-dasharray="5,2" d="M157.76,-377.1C194.37,-373.26 237.93,-364.57 273,-345.5 321.07,-319.37 359.59,-263.5 373.7,-241.09"/>
<polygon fill="#9a32cd" stroke="#9a32cd" points="157.26,-373.63 147.63,-378.06 157.92,-380.6 157.26,-373.63"/>
</a>
</g>
<text text-anchor="middle" x="227" y="-376.5" font-family="Helvetica,sans-Serif" font-size="10.00" fill="grey"> m_magicWord</text>
</g>
<!-- Node10 -->
<g id="Node000010" class="node">
<title>Node10</title>
<g id="a_Node000010"><a xlink:href="../../d3/dec/structproto_1_1lacte_1_1LacteId.html" target="_top" xlink:title=" ">
<polygon fill="white" stroke="#666666" points="138,-352 25,-352 25,-333 138,-333 138,-352"/>
<text text-anchor="middle" x="81.5" y="-340" font-family="Helvetica,sans-Serif" font-size="10.00">proto::lacte::LacteId</text>
</a>
</g>
</g>
<!-- Node10&#45;&gt;Node8 -->
<g id="edge10_Node000008_Node000010" class="edge">
<title>Node10&#45;&gt;Node8</title>
<g id="a_edge10_Node000008_Node000010"><a xlink:title=" ">
<path fill="none" stroke="#9a32cd" stroke-dasharray="5,2" d="M148.39,-336.52C186.01,-331.45 233.42,-322.21 273,-305.5 311.79,-289.12 350.74,-257.19 368.91,-241.16"/>
<polygon fill="#9a32cd" stroke="#9a32cd" points="147.52,-333.11 138.05,-337.85 148.41,-340.05 147.52,-333.11"/>
</a>
</g>
<text text-anchor="middle" x="227" y="-333.5" font-family="Helvetica,sans-Serif" font-size="10.00" fill="grey"> m_lacteId</text>
</g>
<!-- Node11 -->
<g id="Node000011" class="node">
<title>Node11</title>
<g id="a_Node000011"><a xlink:href="../../db/daa/structproto_1_1lacte_1_1LacteSn.html" target="_top" xlink:title=" ">
<polygon fill="white" stroke="#666666" points="139.5,-315 23.5,-315 23.5,-296 139.5,-296 139.5,-315"/>
<text text-anchor="middle" x="81.5" y="-303" font-family="Helvetica,sans-Serif" font-size="10.00">proto::lacte::LacteSn</text>
</a>
</g>
</g>
<!-- Node11&#45;&gt;Node8 -->
<g id="edge11_Node000008_Node000011" class="edge">
<title>Node11&#45;&gt;Node8</title>
<g id="a_edge11_Node000008_Node000011"><a xlink:title=" ">
<path fill="none" stroke="#9a32cd" stroke-dasharray="5,2" d="M149.89,-296.54C186.65,-290.89 232.73,-282.56 273,-271.5 302.9,-263.29 336.18,-250.11 357.45,-241.14"/>
<polygon fill="#9a32cd" stroke="#9a32cd" points="149.16,-293.11 139.79,-298.07 150.2,-300.04 149.16,-293.11"/>
</a>
</g>
<text text-anchor="middle" x="227" y="-293.5" font-family="Helvetica,sans-Serif" font-size="10.00" fill="grey"> m_lacteSn</text>
</g>
<!-- Node12 -->
<g id="Node000012" class="node">
<title>Node12</title>
<g id="a_Node000012"><a xlink:href="../../d2/da1/structproto_1_1lacte_1_1ProductVolume.html" target="_top" xlink:title=" ">
<polygon fill="white" stroke="#666666" points="157.5,-278 5.5,-278 5.5,-259 157.5,-259 157.5,-278"/>
<text text-anchor="middle" x="81.5" y="-266" font-family="Helvetica,sans-Serif" font-size="10.00">proto::lacte::ProductVolume</text>
</a>
</g>
</g>
<!-- Node12&#45;&gt;Node8 -->
<g id="edge12_Node000008_Node000012" class="edge">
<title>Node12&#45;&gt;Node8</title>
<g id="a_edge12_Node000008_Node000012"><a xlink:title=" ">
<path fill="none" stroke="#9a32cd" stroke-dasharray="5,2" d="M167.7,-259.12C200.62,-255.38 238.58,-250.91 273,-246.5 286.15,-244.81 300.2,-242.91 313.63,-241.04"/>
<polygon fill="#9a32cd" stroke="#9a32cd" points="167.19,-255.66 157.65,-260.26 167.98,-262.61 167.19,-255.66"/>
</a>
</g>
<text text-anchor="middle" x="227" y="-259.5" font-family="Helvetica,sans-Serif" font-size="10.00" fill="grey"> m_productVolume</text>
</g>
<!-- Node13 -->
<g id="Node000013" class="node">
<title>Node13</title>
<g id="a_Node000013"><a xlink:href="../../dc/d74/structproto_1_1lacte_1_1ProdDate.html" target="_top" xlink:title=" ">
<polygon fill="white" stroke="#666666" points="143,-241 20,-241 20,-222 143,-222 143,-241"/>
<text text-anchor="middle" x="81.5" y="-229" font-family="Helvetica,sans-Serif" font-size="10.00">proto::lacte::ProdDate</text>
</a>
</g>
</g>
<!-- Node13&#45;&gt;Node8 -->
<g id="edge13_Node000008_Node000013" class="edge">
<title>Node13&#45;&gt;Node8</title>
<g id="a_edge13_Node000008_Node000013"><a xlink:title=" ">
<path fill="none" stroke="#9a32cd" stroke-dasharray="5,2" d="M153.54,-231.5C194.75,-231.5 247,-231.5 290.87,-231.5"/>
<polygon fill="#9a32cd" stroke="#9a32cd" points="153.32,-228 143.32,-231.5 153.32,-235 153.32,-228"/>
</a>
</g>
<text text-anchor="middle" x="227" y="-234.5" font-family="Helvetica,sans-Serif" font-size="10.00" fill="grey"> m_prodDate</text>
</g>
<!-- Node14 -->
<g id="Node000014" class="node">
<title>Node14</title>
<g id="a_Node000014"><a xlink:href="../../d1/df0/structproto_1_1lacte_1_1ProductShelfLife.html" target="_top" xlink:title=" ">
<polygon fill="white" stroke="#666666" points="160.5,-204 2.5,-204 2.5,-185 160.5,-185 160.5,-204"/>
<text text-anchor="middle" x="81.5" y="-192" font-family="Helvetica,sans-Serif" font-size="10.00">proto::lacte::ProductShelfLife</text>
</a>
</g>
</g>
<!-- Node14&#45;&gt;Node8 -->
<g id="edge14_Node000008_Node000014" class="edge">
<title>Node14&#45;&gt;Node8</title>
<g id="a_edge14_Node000008_Node000014"><a xlink:title=" ">
<path fill="none" stroke="#9a32cd" stroke-dasharray="5,2" d="M171.13,-204.27C203.24,-207.93 239.78,-212.24 273,-216.5 286.15,-218.19 300.2,-220.09 313.63,-221.96"/>
<polygon fill="#9a32cd" stroke="#9a32cd" points="171.2,-200.76 160.87,-203.11 170.41,-207.71 171.2,-200.76"/>
</a>
</g>
<text text-anchor="middle" x="227" y="-219.5" font-family="Helvetica,sans-Serif" font-size="10.00" fill="grey"> m_shelfLife</text>
</g>
<!-- Node15 -->
<g id="Node000015" class="node">
<title>Node15</title>
<g id="a_Node000015"><a xlink:href="../../d9/d77/structproto_1_1lacte_1_1UsageTime.html" target="_top" xlink:title=" ">
<polygon fill="white" stroke="#666666" points="148.5,-167 14.5,-167 14.5,-148 148.5,-148 148.5,-167"/>
<text text-anchor="middle" x="81.5" y="-155" font-family="Helvetica,sans-Serif" font-size="10.00">proto::lacte::UsageTime</text>
</a>
</g>
</g>
<!-- Node15&#45;&gt;Node8 -->
<g id="edge15_Node000008_Node000015" class="edge">
<title>Node15&#45;&gt;Node8</title>
<g id="a_edge15_Node000008_Node000015"><a xlink:title=" ">
<path fill="none" stroke="#9a32cd" stroke-dasharray="5,2" d="M159.06,-167.26C194.14,-172.62 236.04,-180.29 273,-190.5 303.36,-198.89 337.09,-212.67 358.29,-221.91"/>
<polygon fill="#9a32cd" stroke="#9a32cd" points="159.29,-163.76 148.89,-165.74 158.26,-170.68 159.29,-163.76"/>
</a>
</g>
<text text-anchor="middle" x="227" y="-193.5" font-family="Helvetica,sans-Serif" font-size="10.00" fill="grey"> m_usageTime</text>
</g>
<!-- Node16 -->
<g id="Node000016" class="node">
<title>Node16</title>
<g id="a_Node000016"><a xlink:href="../../d7/d46/structproto_1_1lacte_1_1MachineSn.html" target="_top" xlink:title=" ">
<polygon fill="white" stroke="#666666" points="147,-130 16,-130 16,-111 147,-111 147,-130"/>
<text text-anchor="middle" x="81.5" y="-118" font-family="Helvetica,sans-Serif" font-size="10.00">proto::lacte::MachineSn</text>
</a>
</g>
</g>
<!-- Node16&#45;&gt;Node8 -->
<g id="edge17_Node000008_Node000016" class="edge">
<title>Node16&#45;&gt;Node8</title>
<g id="a_edge17_Node000008_Node000016"><a xlink:title=" ">
<path fill="none" stroke="#9a32cd" stroke-dasharray="5,2" d="M157.12,-126.56C193.2,-131.39 236.49,-140.03 273,-155.5 312.32,-172.16 351.32,-205.34 369.27,-221.79"/>
<polygon fill="#9a32cd" stroke="#9a32cd" points="157.5,-123.08 147.14,-125.3 156.63,-130.03 157.5,-123.08"/>
</a>
</g>
<text text-anchor="middle" x="227" y="-158.5" font-family="Helvetica,sans-Serif" font-size="10.00" fill="grey"> m_machineSn</text>
</g>
<!-- Node17 -->
<g id="Node000017" class="node">
<title>Node17</title>
<g id="a_Node000017"><a xlink:href="../../da/d99/structproto_1_1lacte_1_1ActivationTime.html" target="_top" xlink:title=" ">
<polygon fill="white" stroke="#666666" points="157.5,-93 5.5,-93 5.5,-74 157.5,-74 157.5,-93"/>
<text text-anchor="middle" x="81.5" y="-81" font-family="Helvetica,sans-Serif" font-size="10.00">proto::lacte::ActivationTime</text>
</a>
</g>
</g>
<!-- Node17&#45;&gt;Node8 -->
<g id="edge18_Node000008_Node000017" class="edge">
<title>Node17&#45;&gt;Node8</title>
<g id="a_edge18_Node000008_Node000017"><a xlink:title=" ">
<path fill="none" stroke="#9a32cd" stroke-dasharray="5,2" d="M167.7,-85.28C202.09,-88.99 241.1,-97.2 273,-114.5 322.02,-141.08 360.26,-199.07 374,-221.95"/>
<polygon fill="#9a32cd" stroke="#9a32cd" points="167.95,-81.78 157.66,-84.3 167.28,-88.75 167.95,-81.78"/>
</a>
</g>
<text text-anchor="middle" x="227" y="-117.5" font-family="Helvetica,sans-Serif" font-size="10.00" fill="grey"> m_activationTime</text>
</g>
<!-- Node18 -->
<g id="Node000018" class="node">
<title>Node18</title>
<g id="a_Node000018"><a xlink:href="../../d9/d59/structproto_1_1lacte_1_1DrinkCounter.html" target="_top" xlink:title=" ">
<polygon fill="white" stroke="#666666" points="153,-56 10,-56 10,-37 153,-37 153,-56"/>
<text text-anchor="middle" x="81.5" y="-44" font-family="Helvetica,sans-Serif" font-size="10.00">proto::lacte::DrinkCounter</text>
</a>
</g>
</g>
<!-- Node18&#45;&gt;Node8 -->
<g id="edge19_Node000008_Node000018" class="edge">
<title>Node18&#45;&gt;Node8</title>
<g id="a_edge19_Node000008_Node000018"><a xlink:title=" ">
<path fill="none" stroke="#9a32cd" stroke-dasharray="5,2" d="M163.74,-42.5C199.58,-44.27 240.79,-51.44 273,-71.5 332.77,-108.72 366.36,-193.28 376.32,-221.86"/>
<polygon fill="#9a32cd" stroke="#9a32cd" points="163.41,-38.98 153.29,-42.12 163.16,-45.98 163.41,-38.98"/>
</a>
</g>
<text text-anchor="middle" x="227" y="-74.5" font-family="Helvetica,sans-Serif" font-size="10.00" fill="grey"> m_drinkCounter</text>
</g>
<!-- Node19 -->
<g id="Node000019" class="node">
<title>Node19</title>
<g id="a_Node000019"><a xlink:href="../../df/dbe/structproto_1_1lacte_1_1TimeCounter.html" target="_top" xlink:title=" ">
<polygon fill="white" stroke="#666666" points="152,-19 11,-19 11,0 152,0 152,-19"/>
<text text-anchor="middle" x="81.5" y="-7" font-family="Helvetica,sans-Serif" font-size="10.00">proto::lacte::TimeCounter</text>
</a>
</g>
</g>
<!-- Node19&#45;&gt;Node8 -->
<g id="edge20_Node000008_Node000019" class="edge">
<title>Node19&#45;&gt;Node8</title>
<g id="a_edge20_Node000008_Node000019"><a xlink:title=" ">
<path fill="none" stroke="#9a32cd" stroke-dasharray="5,2" d="M162.35,-0.99C198.87,-1.01 241.02,-6.92 273,-28.5 344.26,-76.58 371.09,-188.04 377.73,-221.7"/>
<polygon fill="#9a32cd" stroke="#9a32cd" points="162.16,2.51 152.21,-1.13 162.26,-4.49 162.16,2.51"/>
</a>
</g>
<text text-anchor="middle" x="227" y="-31.5" font-family="Helvetica,sans-Serif" font-size="10.00" fill="grey"> m_timeCounter</text>
</g>
</g>
</svg>
