<?xml version="1.0" encoding="UTF-8" standalone="no"?>
<!DOCTYPE svg PUBLIC "-//W3C//DTD SVG 1.1//EN"
 "http://www.w3.org/Graphics/SVG/1.1/DTD/svg11.dtd">
<!-- Generated by graphviz version 14.0.1 (20251006.0113)
 -->
<!-- Title: proto::lacte::ProductVolume::ProductVolume Pages: 1 -->
<svg width="319pt" height="186pt"
 viewBox="0.00 0.00 319.00 186.00" xmlns="http://www.w3.org/2000/svg" xmlns:xlink="http://www.w3.org/1999/xlink">

<svg id="main" version="1.1" xmlns="http://www.w3.org/2000/svg" xmlns:xlink="http://www.w3.org/1999/xlink" xml:space="preserve">

<style type="text/css"><![CDATA[
.node, .edge {opacity: 0.7;}
.node.selected, .edge.selected {opacity: 1;}
.edge:hover path { stroke: red; }
.edge:hover polygon { stroke: red; fill: red; }
]]></style>
<script type="application/ecmascript" xlink:href="../../svg.min.js"/>
<svg id="graph" class="graph">
<g id="graph0" class="graph" transform="scale(1 1) rotate(0) translate(4 181.5)">
<title>proto::lacte::ProductVolume::ProductVolume</title>
<!-- Node1 -->
<g id="Node000001" class="node">
<title>Node1</title>
<g id="a_Node000001"><a xlink:title=" ">
<polygon fill="#999999" stroke="#666666" points="311,-103.5 173.5,-103.5 173.5,-73 311,-73 311,-103.5"/>
<text xml:space="preserve" text-anchor="start" x="181.5" y="-90" font-family="Helvetica,sans-Serif" font-size="10.00">proto::lacte::ProductVolume</text>
<text xml:space="preserve" text-anchor="middle" x="242.25" y="-78.75" font-family="Helvetica,sans-Serif" font-size="10.00">::ProductVolume</text>
</a>
</g>
</g>
<!-- Node2 -->
<g id="Node000002" class="node">
<title>Node2</title>
<g id="a_Node000002"><a xlink:href="../../df/d79/structproto_1_1lacte_1_1_product_volume.html#aa135a8241a3ce7df4361e343b1a0f557" target="_top" xlink:title=" ">
<polygon fill="white" stroke="#666666" points="137.5,-177.5 0,-177.5 0,-147 137.5,-147 137.5,-177.5"/>
<text xml:space="preserve" text-anchor="start" x="8" y="-164" font-family="Helvetica,sans-Serif" font-size="10.00">proto::lacte::ProductVolume</text>
<text xml:space="preserve" text-anchor="middle" x="68.75" y="-152.75" font-family="Helvetica,sans-Serif" font-size="10.00">::operator!=</text>
</a>
</g>
</g>
<!-- Node1&#45;&gt;Node2 -->
<g id="edge1_Node000001_Node000002" class="edge">
<title>Node1&#45;&gt;Node2</title>
<g id="a_edge1_Node000001_Node000002"><a xlink:title=" ">
<path fill="none" stroke="#63b8ff" d="M199.5,-108.99C180.72,-118.06 158.17,-128.57 137.5,-137.25 129.99,-140.4 121.92,-143.57 114.07,-146.53"/>
<polygon fill="#63b8ff" stroke="#63b8ff" points="200.96,-112.17 208.43,-104.65 197.9,-105.88 200.96,-112.17"/>
</a>
</g>
</g>
<!-- Node3 -->
<g id="Node000003" class="node">
<title>Node3</title>
<g id="a_Node000003"><a xlink:href="../../df/d79/structproto_1_1lacte_1_1_product_volume.html#a3b9e43f88ae3dfadcf3be9f7909f9f82" target="_top" xlink:title=" ">
<polygon fill="white" stroke="#666666" points="137.5,-128.5 0,-128.5 0,-98 137.5,-98 137.5,-128.5"/>
<text xml:space="preserve" text-anchor="start" x="8" y="-115" font-family="Helvetica,sans-Serif" font-size="10.00">proto::lacte::ProductVolume</text>
<text xml:space="preserve" text-anchor="middle" x="68.75" y="-103.75" font-family="Helvetica,sans-Serif" font-size="10.00">::operator&lt;&lt;</text>
</a>
</g>
</g>
<!-- Node1&#45;&gt;Node3 -->
<g id="edge2_Node000001_Node000003" class="edge">
<title>Node1&#45;&gt;Node3</title>
<g id="a_edge2_Node000001_Node000003"><a xlink:title=" ">
<path fill="none" stroke="#63b8ff" d="M162.11,-99.79C154.02,-100.97 145.84,-102.16 137.88,-103.32"/>
<polygon fill="#63b8ff" stroke="#63b8ff" points="162.58,-103.25 171.97,-98.35 161.57,-96.33 162.58,-103.25"/>
</a>
</g>
</g>
<!-- Node4 -->
<g id="Node000004" class="node">
<title>Node4</title>
<g id="a_Node000004"><a xlink:href="../../df/d79/structproto_1_1lacte_1_1_product_volume.html#abf9a6a9a962c2bf33692a59eac0523a3" target="_top" xlink:title=" ">
<polygon fill="white" stroke="#666666" points="137.5,-79.5 0,-79.5 0,-49 137.5,-49 137.5,-79.5"/>
<text xml:space="preserve" text-anchor="start" x="8" y="-66" font-family="Helvetica,sans-Serif" font-size="10.00">proto::lacte::ProductVolume</text>
<text xml:space="preserve" text-anchor="middle" x="68.75" y="-54.75" font-family="Helvetica,sans-Serif" font-size="10.00">::operator==</text>
</a>
</g>
</g>
<!-- Node1&#45;&gt;Node4 -->
<g id="edge3_Node000001_Node000004" class="edge">
<title>Node1&#45;&gt;Node4</title>
<g id="a_edge3_Node000001_Node000004"><a xlink:title=" ">
<path fill="none" stroke="#63b8ff" d="M162.11,-77.17C154.02,-76.04 145.84,-74.9 137.88,-73.78"/>
<polygon fill="#63b8ff" stroke="#63b8ff" points="161.58,-80.64 171.97,-78.55 162.55,-73.7 161.58,-80.64"/>
</a>
</g>
</g>
<!-- Node5 -->
<g id="Node000005" class="node">
<title>Node5</title>
<g id="a_Node000005"><a xlink:href="../../df/d79/structproto_1_1lacte_1_1_product_volume.html#aa8634ec20bfb097f9b501fc925484b66" target="_top" xlink:title=" ">
<polygon fill="white" stroke="#666666" points="137.5,-30.5 0,-30.5 0,0 137.5,0 137.5,-30.5"/>
<text xml:space="preserve" text-anchor="start" x="8" y="-17" font-family="Helvetica,sans-Serif" font-size="10.00">proto::lacte::ProductVolume</text>
<text xml:space="preserve" text-anchor="middle" x="68.75" y="-5.75" font-family="Helvetica,sans-Serif" font-size="10.00">::ProductVolume</text>
</a>
</g>
</g>
<!-- Node1&#45;&gt;Node5 -->
<g id="edge4_Node000001_Node000005" class="edge">
<title>Node1&#45;&gt;Node5</title>
<g id="a_edge4_Node000001_Node000005"><a xlink:title=" ">
<path fill="none" stroke="#63b8ff" d="M199.04,-67.79C180.33,-58.97 157.97,-48.75 137.5,-40.25 129.86,-37.08 121.65,-33.88 113.68,-30.88"/>
<polygon fill="#63b8ff" stroke="#63b8ff" points="197.4,-70.89 207.93,-72.01 200.4,-64.56 197.4,-70.89"/>
</a>
</g>
</g>
</g>
</svg>
</svg>

<style type='text/css'>
<![CDATA[
[data-mouse-over-selected='false'] { opacity: 0.7; }
[data-mouse-over-selected='true']  { opacity: 1.0; }
]]>
</style>
<script type="application/ecmascript"><![CDATA[
document.addEventListener('DOMContentLoaded', (event) => {
  highlightEdges();
  highlightAdjacentNodes();
});
]]></script>
</svg>
