<?xml version="1.0" encoding="UTF-8" standalone="no"?>
<!DOCTYPE svg PUBLIC "-//W3C//DTD SVG 1.1//EN"
 "http://www.w3.org/Graphics/SVG/1.1/DTD/svg11.dtd">
<!-- Generated by graphviz version 14.0.1 (20251006.0113)
 -->
<!-- Title: proto::lacte::LacteId::LacteId Pages: 1 -->
<svg width="250pt" height="186pt"
 viewBox="0.00 0.00 250.00 186.00" xmlns="http://www.w3.org/2000/svg" xmlns:xlink="http://www.w3.org/1999/xlink">
<g id="graph0" class="graph" transform="scale(1 1) rotate(0) translate(4 181.5)">
<title>proto::lacte::LacteId::LacteId</title>
<!-- Node1 -->
<g id="Node000001" class="node">
<title>Node1</title>
<g id="a_Node000001"><a xlink:title=" ">
<polygon fill="#999999" stroke="#666666" points="242,-103.5 139,-103.5 139,-73 242,-73 242,-103.5"/>
<text xml:space="preserve" text-anchor="start" x="147" y="-90" font-family="Helvetica,sans-Serif" font-size="10.00">proto::lacte::LacteId</text>
<text xml:space="preserve" text-anchor="middle" x="190.5" y="-78.75" font-family="Helvetica,sans-Serif" font-size="10.00">::LacteId</text>
</a>
</g>
</g>
<!-- Node2 -->
<g id="Node000002" class="node">
<title>Node2</title>
<g id="a_Node000002"><a xlink:href="../../d0/d28/structproto_1_1lacte_1_1_lacte_id.html#a60b28e4144eec608e824686eea6918e8" target="_top" xlink:title=" ">
<polygon fill="white" stroke="#666666" points="103,-177.5 0,-177.5 0,-147 103,-147 103,-177.5"/>
<text xml:space="preserve" text-anchor="start" x="8" y="-164" font-family="Helvetica,sans-Serif" font-size="10.00">proto::lacte::LacteId</text>
<text xml:space="preserve" text-anchor="middle" x="51.5" y="-152.75" font-family="Helvetica,sans-Serif" font-size="10.00">::LacteId</text>
</a>
</g>
</g>
<!-- Node1&#45;&gt;Node2 -->
<g id="edge1_Node000001_Node000002" class="edge">
<title>Node1&#45;&gt;Node2</title>
<g id="a_edge1_Node000001_Node000002"><a xlink:title=" ">
<path fill="none" stroke="#63b8ff" d="M153.17,-109.42C137.8,-118.23 119.64,-128.43 103,-137.25 97.21,-140.32 90.99,-143.5 84.96,-146.51"/>
<polygon fill="#63b8ff" stroke="#63b8ff" points="154.59,-112.64 161.52,-104.62 151.1,-106.58 154.59,-112.64"/>
</a>
</g>
</g>
<!-- Node3 -->
<g id="Node000003" class="node">
<title>Node3</title>
<g id="a_Node000003"><a xlink:href="../../d0/d28/structproto_1_1lacte_1_1_lacte_id.html#acf1252bcc6a92284b04e24b02dbcddf0" target="_top" xlink:title=" ">
<polygon fill="white" stroke="#666666" points="103,-128.5 0,-128.5 0,-98 103,-98 103,-128.5"/>
<text xml:space="preserve" text-anchor="start" x="8" y="-115" font-family="Helvetica,sans-Serif" font-size="10.00">proto::lacte::LacteId</text>
<text xml:space="preserve" text-anchor="middle" x="51.5" y="-103.75" font-family="Helvetica,sans-Serif" font-size="10.00">::operator!=</text>
</a>
</g>
</g>
<!-- Node1&#45;&gt;Node3 -->
<g id="edge2_Node000001_Node000003" class="edge">
<title>Node1&#45;&gt;Node3</title>
<g id="a_edge2_Node000001_Node000003"><a xlink:title=" ">
<path fill="none" stroke="#63b8ff" d="M127.56,-99.55C119.47,-101.03 111.26,-102.53 103.37,-103.97"/>
<polygon fill="#63b8ff" stroke="#63b8ff" points="128.18,-103 137.39,-97.76 126.92,-96.11 128.18,-103"/>
</a>
</g>
</g>
<!-- Node4 -->
<g id="Node000004" class="node">
<title>Node4</title>
<g id="a_Node000004"><a xlink:href="../../d0/d28/structproto_1_1lacte_1_1_lacte_id.html#a6b9054c13a6e5303262a4de42fc30966" target="_top" xlink:title=" ">
<polygon fill="white" stroke="#666666" points="103,-79.5 0,-79.5 0,-49 103,-49 103,-79.5"/>
<text xml:space="preserve" text-anchor="start" x="8" y="-66" font-family="Helvetica,sans-Serif" font-size="10.00">proto::lacte::LacteId</text>
<text xml:space="preserve" text-anchor="middle" x="51.5" y="-54.75" font-family="Helvetica,sans-Serif" font-size="10.00">::operator&lt;&lt;</text>
</a>
</g>
</g>
<!-- Node1&#45;&gt;Node4 -->
<g id="edge3_Node000001_Node000004" class="edge">
<title>Node1&#45;&gt;Node4</title>
<g id="a_edge3_Node000001_Node000004"><a xlink:title=" ">
<path fill="none" stroke="#63b8ff" d="M127.56,-77.4C119.47,-75.98 111.26,-74.54 103.37,-73.16"/>
<polygon fill="#63b8ff" stroke="#63b8ff" points="126.93,-80.84 137.38,-79.12 128.14,-73.95 126.93,-80.84"/>
</a>
</g>
</g>
<!-- Node5 -->
<g id="Node000005" class="node">
<title>Node5</title>
<g id="a_Node000005"><a xlink:href="../../d0/d28/structproto_1_1lacte_1_1_lacte_id.html#a21a341629a07fc684fc7469afb3c1047" target="_top" xlink:title=" ">
<polygon fill="white" stroke="#666666" points="103,-30.5 0,-30.5 0,0 103,0 103,-30.5"/>
<text xml:space="preserve" text-anchor="start" x="8" y="-17" font-family="Helvetica,sans-Serif" font-size="10.00">proto::lacte::LacteId</text>
<text xml:space="preserve" text-anchor="middle" x="51.5" y="-5.75" font-family="Helvetica,sans-Serif" font-size="10.00">::operator==</text>
</a>
</g>
</g>
<!-- Node1&#45;&gt;Node5 -->
<g id="edge4_Node000001_Node000005" class="edge">
<title>Node1&#45;&gt;Node5</title>
<g id="a_edge4_Node000001_Node000005"><a xlink:title=" ">
<path fill="none" stroke="#63b8ff" d="M152,-66.94C136.87,-58.47 119.19,-48.74 103,-40.25 97.11,-37.16 90.78,-33.95 84.67,-30.9"/>
<polygon fill="#63b8ff" stroke="#63b8ff" points="150.27,-69.98 160.7,-71.83 153.7,-63.88 150.27,-69.98"/>
</a>
</g>
</g>
</g>
</svg>
