<?xml version="1.0" encoding="UTF-8" standalone="no"?>
<!DOCTYPE svg PUBLIC "-//W3C//DTD SVG 1.1//EN"
 "http://www.w3.org/Graphics/SVG/1.1/DTD/svg11.dtd">
<!-- Generated by graphviz version 14.0.1 (20251006.0113)
 -->
<!-- Title: proto::RxContainer::static_for_index Pages: 1 -->
<svg width="253pt" height="57pt"
 viewBox="0.00 0.00 253.00 57.00" xmlns="http://www.w3.org/2000/svg" xmlns:xlink="http://www.w3.org/1999/xlink">
<g id="graph0" class="graph" transform="scale(1 1) rotate(0) translate(4 52.5)">
<title>proto::RxContainer::static_for_index</title>
<!-- Node1 -->
<g id="Node000001" class="node">
<title>Node1</title>
<g id="a_Node000001"><a xlink:title="Compile&#45;time unrolled dispatcher that calls a functor for a runtime field index.">
<polygon fill="#999999" stroke="#666666" points="245,-30.5 146.5,-30.5 146.5,0 245,0 245,-30.5"/>
<text xml:space="preserve" text-anchor="start" x="154.5" y="-17" font-family="Helvetica,sans-Serif" font-size="10.00">proto::RxContainer</text>
<text xml:space="preserve" text-anchor="middle" x="195.75" y="-5.75" font-family="Helvetica,sans-Serif" font-size="10.00">::static_for_index</text>
</a>
</g>
</g>
<!-- Node1&#45;&gt;Node1 -->
<g id="edge2_Node000001_Node000001" class="edge">
<title>Node1&#45;&gt;Node1</title>
<g id="a_edge2_Node000001_Node000001"><a xlink:title=" ">
<path fill="none" stroke="#63b8ff" d="M219.31,-42.2C215.46,-45.97 207.61,-48.5 195.75,-48.5 174.07,-48.5 165.77,-40.06 170.85,-30.99"/>
<polygon fill="#63b8ff" stroke="#63b8ff" points="222.76,-42.83 220.47,-32.49 215.81,-42.01 222.76,-42.83"/>
</a>
</g>
</g>
<!-- Node2 -->
<g id="Node000002" class="node">
<title>Node2</title>
<g id="a_Node000002"><a xlink:href="../../df/dd6/classproto_1_1_rx_container.html#a62f66f4bc347105478aba5bffd14796f" target="_top" xlink:title=" ">
<polygon fill="white" stroke="#666666" points="110.5,-30.5 0,-30.5 0,0 110.5,0 110.5,-30.5"/>
<text xml:space="preserve" text-anchor="start" x="8" y="-17" font-family="Helvetica,sans-Serif" font-size="10.00">proto::RxContainer</text>
<text xml:space="preserve" text-anchor="middle" x="55.25" y="-5.75" font-family="Helvetica,sans-Serif" font-size="10.00">&lt; RxFields, Crc &gt;::fill</text>
</a>
</g>
</g>
<!-- Node1&#45;&gt;Node2 -->
<g id="edge1_Node000001_Node000002" class="edge">
<title>Node1&#45;&gt;Node2</title>
<g id="a_edge1_Node000001_Node000002"><a xlink:title=" ">
<path fill="none" stroke="#63b8ff" d="M135,-15.25C126.89,-15.25 118.59,-15.25 110.58,-15.25"/>
<polygon fill="#63b8ff" stroke="#63b8ff" points="134.8,-18.75 144.8,-15.25 134.8,-11.75 134.8,-18.75"/>
</a>
</g>
</g>
</g>
</svg>
