<?xml version="1.0" encoding="UTF-8" standalone="no"?>
<!DOCTYPE svg PUBLIC "-//W3C//DTD SVG 1.1//EN"
 "http://www.w3.org/Graphics/SVG/1.1/DTD/svg11.dtd">
<!-- Generated by graphviz version 14.0.1 (20251006.0113)
 -->
<!-- Title: proto::RxContainer::check_type Pages: 1 -->
<svg width="484pt" height="147pt"
 viewBox="0.00 0.00 484.00 147.00" xmlns="http://www.w3.org/2000/svg" xmlns:xlink="http://www.w3.org/1999/xlink">
<g id="graph0" class="graph" transform="scale(1 1) rotate(0) translate(4 143.12)">
<title>proto::RxContainer::check_type</title>
<!-- Node1 -->
<g id="Node000001" class="node">
<title>Node1</title>
<g id="a_Node000001"><a xlink:title="Updates DATA_FIELD alternative by received TYPE_FIELD and validates its expected size.">
<polygon fill="#999999" stroke="#666666" points="476.25,-90.12 377.75,-90.12 377.75,-59.62 476.25,-59.62 476.25,-90.12"/>
<text xml:space="preserve" text-anchor="start" x="385.75" y="-76.62" font-family="Helvetica,sans-Serif" font-size="10.00">proto::RxContainer</text>
<text xml:space="preserve" text-anchor="middle" x="427" y="-65.38" font-family="Helvetica,sans-Serif" font-size="10.00">::check_type</text>
</a>
</g>
</g>
<!-- Node2 -->
<g id="Node000002" class="node">
<title>Node2</title>
<g id="a_Node000002"><a xlink:href="../../df/dd6/classproto_1_1_rx_container.html#a03bd1068d065c680d72c9c2c2cf9ebee" target="_top" xlink:title=" ">
<polygon fill="white" stroke="#666666" points="341.75,-90.12 186.25,-90.12 186.25,-59.62 341.75,-59.62 341.75,-90.12"/>
<text xml:space="preserve" text-anchor="start" x="194.25" y="-76.62" font-family="Helvetica,sans-Serif" font-size="10.00">proto::RxContainer</text>
<text xml:space="preserve" text-anchor="middle" x="264" y="-65.38" font-family="Helvetica,sans-Serif" font-size="10.00">&lt; RxFields, Crc &gt;::RxContainer</text>
</a>
</g>
</g>
<!-- Node1&#45;&gt;Node2 -->
<g id="edge1_Node000001_Node000002" class="edge">
<title>Node1&#45;&gt;Node2</title>
<g id="a_edge1_Node000001_Node000002"><a xlink:title=" ">
<path fill="none" stroke="#63b8ff" d="M365.78,-68.32C358.06,-68.17 350.06,-68.11 342.12,-68.13"/>
<polygon fill="#63b8ff" stroke="#63b8ff" points="365.66,-71.82 375.74,-68.58 365.84,-64.82 365.66,-71.82"/>
</a>
</g>
</g>
<!-- Node2&#45;&gt;Node1 -->
<g id="edge4_Node000002_Node000001" class="edge">
<title>Node2&#45;&gt;Node1</title>
<g id="a_edge4_Node000002_Node000001"><a xlink:title=" ">
<path fill="none" stroke="#63b8ff" d="M353.61,-81.59C361.72,-81.53 369.71,-81.38 377.26,-81.13"/>
<polygon fill="#63b8ff" stroke="#63b8ff" points="353.62,-78.09 343.63,-81.62 353.64,-85.09 353.62,-78.09"/>
</a>
</g>
</g>
<!-- Node3 -->
<g id="Node000003" class="node">
<title>Node3</title>
<g id="a_Node000003"><a xlink:href="../../df/dd6/classproto_1_1_rx_container.html#a88837b69f589085a0e6ae59464afbd3d" target="_top" xlink:title=" ">
<polygon fill="white" stroke="#666666" points="150.25,-139.12 0,-139.12 0,-108.62 150.25,-108.62 150.25,-139.12"/>
<text xml:space="preserve" text-anchor="start" x="8" y="-125.62" font-family="Helvetica,sans-Serif" font-size="10.00">proto::RxContainer</text>
<text xml:space="preserve" text-anchor="middle" x="75.12" y="-114.38" font-family="Helvetica,sans-Serif" font-size="10.00">&lt; RxFields, Crc &gt;::check_alen</text>
</a>
</g>
</g>
<!-- Node2&#45;&gt;Node3 -->
<g id="edge2_Node000002_Node000003" class="edge">
<title>Node2&#45;&gt;Node3</title>
<g id="a_edge2_Node000002_Node000003"><a xlink:title=" ">
<path fill="none" stroke="#63b8ff" d="M192.08,-93.47C173.6,-98.32 153.86,-103.49 136.01,-108.17"/>
<polygon fill="#63b8ff" stroke="#63b8ff" points="192.85,-96.89 201.64,-90.96 191.08,-90.12 192.85,-96.89"/>
</a>
</g>
</g>
<!-- Node4 -->
<g id="Node000004" class="node">
<title>Node4</title>
<g id="a_Node000004"><a xlink:href="../../df/dd6/classproto_1_1_rx_container.html#a32164b9bb4d7aafb36c279431ae3ba83" target="_top" xlink:title=" ">
<polygon fill="white" stroke="#666666" points="148,-90.12 2.25,-90.12 2.25,-59.62 148,-59.62 148,-90.12"/>
<text xml:space="preserve" text-anchor="start" x="10.25" y="-76.62" font-family="Helvetica,sans-Serif" font-size="10.00">proto::RxContainer</text>
<text xml:space="preserve" text-anchor="middle" x="75.12" y="-65.38" font-family="Helvetica,sans-Serif" font-size="10.00">&lt; RxFields, Crc &gt;::check_crc</text>
</a>
</g>
</g>
<!-- Node2&#45;&gt;Node4 -->
<g id="edge3_Node000002_Node000004" class="edge">
<title>Node2&#45;&gt;Node4</title>
<g id="a_edge3_Node000002_Node000004"><a xlink:title=" ">
<path fill="none" stroke="#63b8ff" d="M174.43,-74.88C165.65,-74.88 156.82,-74.88 148.23,-74.88"/>
<polygon fill="#63b8ff" stroke="#63b8ff" points="174.4,-78.38 184.4,-74.88 174.4,-71.38 174.4,-78.38"/>
</a>
</g>
</g>
<!-- Node5 -->
<g id="Node000005" class="node">
<title>Node5</title>
<g id="a_Node000005"><a xlink:href="../../df/dd6/classproto_1_1_rx_container.html#a1d6da44ba10df67547d25eb435059666" target="_top" xlink:title=" ">
<polygon fill="white" stroke="#666666" points="132.25,-41.75 18,-41.75 18,0 132.25,0 132.25,-41.75"/>
<text xml:space="preserve" text-anchor="start" x="26" y="-28.25" font-family="Helvetica,sans-Serif" font-size="10.00">proto::RxContainer</text>
<text xml:space="preserve" text-anchor="start" x="26" y="-17" font-family="Helvetica,sans-Serif" font-size="10.00">&lt; RxFields, Crc &gt;::set</text>
<text xml:space="preserve" text-anchor="middle" x="75.12" y="-5.75" font-family="Helvetica,sans-Serif" font-size="10.00">_data_len</text>
</a>
</g>
</g>
<!-- Node2&#45;&gt;Node5 -->
<g id="edge5_Node000002_Node000005" class="edge">
<title>Node2&#45;&gt;Node5</title>
<g id="a_edge5_Node000002_Node000005"><a xlink:title=" ">
<path fill="none" stroke="#63b8ff" d="M197.79,-56.03C176.52,-49.88 153.09,-43.11 132.51,-37.17"/>
<polygon fill="#63b8ff" stroke="#63b8ff" points="196.66,-59.35 207.24,-58.76 198.61,-52.62 196.66,-59.35"/>
</a>
</g>
</g>
</g>
</svg>
