<?xml version="1.0" encoding="UTF-8" standalone="no"?>
<!DOCTYPE svg PUBLIC "-//W3C//DTD SVG 1.1//EN"
 "http://www.w3.org/Graphics/SVG/1.1/DTD/svg11.dtd">
<!-- Generated by graphviz version 14.0.1 (20251006.0113)
 -->
<!-- Title: proto::RxContainer::check_crc Pages: 1 -->
<svg width="485pt" height="147pt"
 viewBox="0.00 0.00 485.00 147.00" xmlns="http://www.w3.org/2000/svg" xmlns:xlink="http://www.w3.org/1999/xlink">
<g id="graph0" class="graph" transform="scale(1 1) rotate(0) translate(4 143.12)">
<title>proto::RxContainer::check_crc</title>
<!-- Node1 -->
<g id="Node000001" class="node">
<title>Node1</title>
<g id="a_Node000001"><a xlink:title="Computes CRC over fields flagged IS_IN_CRC and compares it with CRC_FIELD.">
<polygon fill="#999999" stroke="#666666" points="477,-90.12 378.5,-90.12 378.5,-59.62 477,-59.62 477,-90.12"/>
<text xml:space="preserve" text-anchor="start" x="386.5" y="-76.62" font-family="Helvetica,sans-Serif" font-size="10.00">proto::RxContainer</text>
<text xml:space="preserve" text-anchor="middle" x="427.75" y="-65.38" font-family="Helvetica,sans-Serif" font-size="10.00">::check_crc</text>
</a>
</g>
</g>
<!-- Node2 -->
<g id="Node000002" class="node">
<title>Node2</title>
<g id="a_Node000002"><a xlink:href="../../df/dd6/classproto_1_1_rx_container.html#a03bd1068d065c680d72c9c2c2cf9ebee" target="_top" xlink:title=" ">
<polygon fill="white" stroke="#666666" points="342.5,-90.12 187,-90.12 187,-59.62 342.5,-59.62 342.5,-90.12"/>
<text xml:space="preserve" text-anchor="start" x="195" y="-76.62" font-family="Helvetica,sans-Serif" font-size="10.00">proto::RxContainer</text>
<text xml:space="preserve" text-anchor="middle" x="264.75" y="-65.38" font-family="Helvetica,sans-Serif" font-size="10.00">&lt; RxFields, Crc &gt;::RxContainer</text>
</a>
</g>
</g>
<!-- Node1&#45;&gt;Node2 -->
<g id="edge1_Node000001_Node000002" class="edge">
<title>Node1&#45;&gt;Node2</title>
<g id="a_edge1_Node000001_Node000002"><a xlink:title=" ">
<path fill="none" stroke="#63b8ff" d="M366.53,-68.32C358.81,-68.17 350.81,-68.11 342.87,-68.13"/>
<polygon fill="#63b8ff" stroke="#63b8ff" points="366.41,-71.82 376.49,-68.58 366.59,-64.82 366.41,-71.82"/>
</a>
</g>
</g>
<!-- Node2&#45;&gt;Node1 -->
<g id="edge3_Node000002_Node000001" class="edge">
<title>Node2&#45;&gt;Node1</title>
<g id="a_edge3_Node000002_Node000001"><a xlink:title=" ">
<path fill="none" stroke="#63b8ff" d="M354.36,-81.59C362.47,-81.53 370.46,-81.38 378.01,-81.13"/>
<polygon fill="#63b8ff" stroke="#63b8ff" points="354.37,-78.09 344.38,-81.62 354.39,-85.09 354.37,-78.09"/>
</a>
</g>
</g>
<!-- Node3 -->
<g id="Node000003" class="node">
<title>Node3</title>
<g id="a_Node000003"><a xlink:href="../../df/dd6/classproto_1_1_rx_container.html#a88837b69f589085a0e6ae59464afbd3d" target="_top" xlink:title=" ">
<polygon fill="white" stroke="#666666" points="150.62,-139.12 0.38,-139.12 0.38,-108.62 150.62,-108.62 150.62,-139.12"/>
<text xml:space="preserve" text-anchor="start" x="8.38" y="-125.62" font-family="Helvetica,sans-Serif" font-size="10.00">proto::RxContainer</text>
<text xml:space="preserve" text-anchor="middle" x="75.5" y="-114.38" font-family="Helvetica,sans-Serif" font-size="10.00">&lt; RxFields, Crc &gt;::check_alen</text>
</a>
</g>
</g>
<!-- Node2&#45;&gt;Node3 -->
<g id="edge2_Node000002_Node000003" class="edge">
<title>Node2&#45;&gt;Node3</title>
<g id="a_edge2_Node000002_Node000003"><a xlink:title=" ">
<path fill="none" stroke="#63b8ff" d="M192.69,-93.47C174.17,-98.32 154.39,-103.49 136.5,-108.17"/>
<polygon fill="#63b8ff" stroke="#63b8ff" points="193.48,-96.88 202.27,-90.96 191.71,-90.11 193.48,-96.88"/>
</a>
</g>
</g>
<!-- Node4 -->
<g id="Node000004" class="node">
<title>Node4</title>
<g id="a_Node000004"><a xlink:href="../../df/dd6/classproto_1_1_rx_container.html#a58f4d018e6ad3926d73a38eb8895b18e" target="_top" xlink:title=" ">
<polygon fill="white" stroke="#666666" points="151,-90.12 0,-90.12 0,-59.62 151,-59.62 151,-90.12"/>
<text xml:space="preserve" text-anchor="start" x="8" y="-76.62" font-family="Helvetica,sans-Serif" font-size="10.00">proto::RxContainer</text>
<text xml:space="preserve" text-anchor="middle" x="75.5" y="-65.38" font-family="Helvetica,sans-Serif" font-size="10.00">&lt; RxFields, Crc &gt;::check_type</text>
</a>
</g>
</g>
<!-- Node2&#45;&gt;Node4 -->
<g id="edge4_Node000002_Node000004" class="edge">
<title>Node2&#45;&gt;Node4</title>
<g id="a_edge4_Node000002_Node000004"><a xlink:title=" ">
<path fill="none" stroke="#63b8ff" d="M175.02,-74.88C167.13,-74.88 159.21,-74.88 151.45,-74.88"/>
<polygon fill="#63b8ff" stroke="#63b8ff" points="174.99,-78.38 184.99,-74.88 174.99,-71.38 174.99,-78.38"/>
</a>
</g>
</g>
<!-- Node5 -->
<g id="Node000005" class="node">
<title>Node5</title>
<g id="a_Node000005"><a xlink:href="../../df/dd6/classproto_1_1_rx_container.html#a1d6da44ba10df67547d25eb435059666" target="_top" xlink:title=" ">
<polygon fill="white" stroke="#666666" points="132.62,-41.75 18.37,-41.75 18.37,0 132.62,0 132.62,-41.75"/>
<text xml:space="preserve" text-anchor="start" x="26.38" y="-28.25" font-family="Helvetica,sans-Serif" font-size="10.00">proto::RxContainer</text>
<text xml:space="preserve" text-anchor="start" x="26.38" y="-17" font-family="Helvetica,sans-Serif" font-size="10.00">&lt; RxFields, Crc &gt;::set</text>
<text xml:space="preserve" text-anchor="middle" x="75.5" y="-5.75" font-family="Helvetica,sans-Serif" font-size="10.00">_data_len</text>
</a>
</g>
</g>
<!-- Node2&#45;&gt;Node5 -->
<g id="edge5_Node000002_Node000005" class="edge">
<title>Node2&#45;&gt;Node5</title>
<g id="a_edge5_Node000002_Node000005"><a xlink:title=" ">
<path fill="none" stroke="#63b8ff" d="M198.41,-56.03C177.09,-49.88 153.62,-43.11 133,-37.17"/>
<polygon fill="#63b8ff" stroke="#63b8ff" points="197.31,-59.36 207.88,-58.76 199.25,-52.63 197.31,-59.36"/>
</a>
</g>
</g>
</g>
</svg>
