<?xml version="1.0" encoding="UTF-8" standalone="no"?>
<!DOCTYPE svg PUBLIC "-//W3C//DTD SVG 1.1//EN"
 "http://www.w3.org/Graphics/SVG/1.1/DTD/svg11.dtd">
<!-- Generated by graphviz version 2.43.0 (0)
 -->
<!-- Title: ProtocolEndpoint.hpp Pages: 1 -->
<svg width="1456pt" height="390pt"
 viewBox="0.00 0.00 1455.68 390.00" xmlns="http://www.w3.org/2000/svg" xmlns:xlink="http://www.w3.org/1999/xlink">
<g id="graph0" class="graph" transform="scale(1 1) rotate(0) translate(4 386)">
<title>ProtocolEndpoint.hpp</title>
<!-- Node1 -->
<g id="Node000001" class="node">
<title>Node1</title>
<g id="a_Node000001"><a xlink:title="Base endpoint class for protocol implementations.">
<polygon fill="#999999" stroke="#666666" points="1092,-382 972,-382 972,-363 1092,-363 1092,-382"/>
<text text-anchor="middle" x="1032" y="-370" font-family="Helvetica,sans-Serif" font-size="10.00">ProtocolEndpoint.hpp</text>
</a>
</g>
</g>
<!-- Node2 -->
<g id="Node000002" class="node">
<title>Node2</title>
<g id="a_Node000002"><a xlink:title=" ">
<polygon fill="#e0e0e0" stroke="#999999" points="515,-321.5 465,-321.5 465,-302.5 515,-302.5 515,-321.5"/>
<text text-anchor="middle" x="490" y="-309.5" font-family="Helvetica,sans-Serif" font-size="10.00">atomic</text>
</a>
</g>
</g>
<!-- Node1&#45;&gt;Node2 -->
<g id="edge1_Node000001_Node000002" class="edge">
<title>Node1&#45;&gt;Node2</title>
<g id="a_edge1_Node000001_Node000002"><a xlink:title=" ">
<path fill="none" stroke="#63b8ff" d="M971.63,-371.13C876.43,-369.43 686.12,-361.55 529,-327 526.17,-326.38 523.26,-325.6 520.37,-324.74"/>
<polygon fill="#63b8ff" stroke="#63b8ff" points="521.35,-321.38 510.76,-321.56 519.16,-328.03 521.35,-321.38"/>
</a>
</g>
</g>
<!-- Node3 -->
<g id="Node000003" class="node">
<title>Node3</title>
<g id="a_Node000003"><a xlink:title=" ">
<polygon fill="#e0e0e0" stroke="#999999" points="1425,-189.5 1375,-189.5 1375,-170.5 1425,-170.5 1425,-189.5"/>
<text text-anchor="middle" x="1400" y="-177.5" font-family="Helvetica,sans-Serif" font-size="10.00">chrono</text>
</a>
</g>
</g>
<!-- Node1&#45;&gt;Node3 -->
<g id="edge2_Node000001_Node000003" class="edge">
<title>Node1&#45;&gt;Node3</title>
<g id="a_edge2_Node000001_Node000003"><a xlink:title=" ">
<path fill="none" stroke="#63b8ff" d="M1037.28,-362.9C1047.06,-347.62 1069.47,-315.59 1096,-297 1122.26,-278.6 1336.17,-206.77 1366,-195 1367.37,-194.46 1368.78,-193.9 1370.19,-193.33"/>
<polygon fill="#63b8ff" stroke="#63b8ff" points="1371.59,-196.54 1379.54,-189.54 1368.96,-190.05 1371.59,-196.54"/>
</a>
</g>
</g>
<!-- Node4 -->
<g id="Node000004" class="node">
<title>Node4</title>
<g id="a_Node000004"><a xlink:title=" ">
<polygon fill="#e0e0e0" stroke="#999999" points="1211.5,-321.5 1104.5,-321.5 1104.5,-302.5 1211.5,-302.5 1211.5,-321.5"/>
<text text-anchor="middle" x="1158" y="-309.5" font-family="Helvetica,sans-Serif" font-size="10.00">condition_variable</text>
</a>
</g>
</g>
<!-- Node1&#45;&gt;Node4 -->
<g id="edge3_Node000001_Node000004" class="edge">
<title>Node1&#45;&gt;Node4</title>
<g id="a_edge3_Node000001_Node000004"><a xlink:title=" ">
<path fill="none" stroke="#63b8ff" d="M1050.32,-362.99C1071.41,-353.2 1106.26,-337.02 1130.58,-325.73"/>
<polygon fill="#63b8ff" stroke="#63b8ff" points="1132.06,-328.9 1139.66,-321.52 1129.11,-322.55 1132.06,-328.9"/>
</a>
</g>
</g>
<!-- Node5 -->
<g id="Node000005" class="node">
<title>Node5</title>
<g id="a_Node000005"><a xlink:title=" ">
<polygon fill="#e0e0e0" stroke="#999999" points="1276.5,-321.5 1229.5,-321.5 1229.5,-302.5 1276.5,-302.5 1276.5,-321.5"/>
<text text-anchor="middle" x="1253" y="-309.5" font-family="Helvetica,sans-Serif" font-size="10.00">deque</text>
</a>
</g>
</g>
<!-- Node1&#45;&gt;Node5 -->
<g id="edge4_Node000001_Node000005" class="edge">
<title>Node1&#45;&gt;Node5</title>
<g id="a_edge4_Node000001_Node000005"><a xlink:title=" ">
<path fill="none" stroke="#63b8ff" d="M1078.87,-362.93C1117.52,-355.27 1173.51,-342.83 1221,-327 1222.44,-326.52 1223.9,-326 1225.37,-325.45"/>
<polygon fill="#63b8ff" stroke="#63b8ff" points="1226.99,-328.57 1234.95,-321.58 1224.36,-322.08 1226.99,-328.57"/>
</a>
</g>
</g>
<!-- Node6 -->
<g id="Node000006" class="node">
<title>Node6</title>
<g id="a_Node000006"><a xlink:title=" ">
<polygon fill="#e0e0e0" stroke="#999999" points="274.5,-189.5 209.5,-189.5 209.5,-170.5 274.5,-170.5 274.5,-189.5"/>
<text text-anchor="middle" x="242" y="-177.5" font-family="Helvetica,sans-Serif" font-size="10.00">functional</text>
</a>
</g>
</g>
<!-- Node1&#45;&gt;Node6 -->
<g id="edge5_Node000001_Node000006" class="edge">
<title>Node1&#45;&gt;Node6</title>
<g id="a_edge5_Node000001_Node000006"><a xlink:title=" ">
<path fill="none" stroke="#63b8ff" d="M971.87,-368.37C897.57,-363.58 767.64,-352.18 659,-327 509.03,-292.24 337.91,-222.25 270.98,-193.63"/>
<polygon fill="#63b8ff" stroke="#63b8ff" points="272.08,-190.29 261.51,-189.56 269.31,-196.73 272.08,-190.29"/>
</a>
</g>
</g>
<!-- Node7 -->
<g id="Node000007" class="node">
<title>Node7</title>
<g id="a_Node000007"><a xlink:title=" ">
<polygon fill="#e0e0e0" stroke="#999999" points="351,-189.5 293,-189.5 293,-170.5 351,-170.5 351,-189.5"/>
<text text-anchor="middle" x="322" y="-177.5" font-family="Helvetica,sans-Serif" font-size="10.00">memory</text>
</a>
</g>
</g>
<!-- Node1&#45;&gt;Node7 -->
<g id="edge6_Node000001_Node000007" class="edge">
<title>Node1&#45;&gt;Node7</title>
<g id="a_edge6_Node000001_Node000007"><a xlink:title=" ">
<path fill="none" stroke="#63b8ff" d="M971.71,-369.82C907.64,-366.46 804.17,-356.49 720,-327 640.65,-299.2 635.36,-261.48 557,-231 554.71,-230.11 427.85,-203.31 361.5,-189.32"/>
<polygon fill="#63b8ff" stroke="#63b8ff" points="361.91,-185.83 351.4,-187.19 360.47,-192.68 361.91,-185.83"/>
</a>
</g>
</g>
<!-- Node8 -->
<g id="Node000008" class="node">
<title>Node8</title>
<g id="a_Node000008"><a xlink:title=" ">
<polygon fill="#e0e0e0" stroke="#999999" points="1343,-321.5 1295,-321.5 1295,-302.5 1343,-302.5 1343,-321.5"/>
<text text-anchor="middle" x="1319" y="-309.5" font-family="Helvetica,sans-Serif" font-size="10.00">mutex</text>
</a>
</g>
</g>
<!-- Node1&#45;&gt;Node8 -->
<g id="edge7_Node000001_Node000008" class="edge">
<title>Node1&#45;&gt;Node8</title>
<g id="a_edge7_Node000001_Node000008"><a xlink:title=" ">
<path fill="none" stroke="#63b8ff" d="M1092.16,-364.88C1144.19,-358.24 1221.06,-346.19 1286,-327 1287.68,-326.5 1289.39,-325.95 1291.11,-325.35"/>
<polygon fill="#63b8ff" stroke="#63b8ff" points="1292.71,-328.48 1300.77,-321.61 1290.18,-321.95 1292.71,-328.48"/>
</a>
</g>
</g>
<!-- Node9 -->
<g id="Node000009" class="node">
<title>Node9</title>
<g id="a_Node000009"><a xlink:title=" ">
<polygon fill="#e0e0e0" stroke="#999999" points="1409,-321.5 1361,-321.5 1361,-302.5 1409,-302.5 1409,-321.5"/>
<text text-anchor="middle" x="1385" y="-309.5" font-family="Helvetica,sans-Serif" font-size="10.00">thread</text>
</a>
</g>
</g>
<!-- Node1&#45;&gt;Node9 -->
<g id="edge8_Node000001_Node000009" class="edge">
<title>Node1&#45;&gt;Node9</title>
<g id="a_edge8_Node000001_Node000009"><a xlink:title=" ">
<path fill="none" stroke="#63b8ff" d="M1092.23,-367.86C1157.27,-362.84 1263.47,-351.47 1352,-327 1353.89,-326.48 1355.81,-325.87 1357.74,-325.21"/>
<polygon fill="#63b8ff" stroke="#63b8ff" points="1359.08,-328.44 1367.15,-321.58 1356.56,-321.91 1359.08,-328.44"/>
</a>
</g>
</g>
<!-- Node10 -->
<g id="Node000010" class="node">
<title>Node10</title>
<g id="a_Node000010"><a xlink:href="../../da/d06/RxContainer_8hpp.html" target="_top" xlink:title="Stateful frame parsing container that incrementally matches and fills protocol fields from a byte str...">
<polygon fill="white" stroke="#666666" points="847,-327 729,-327 729,-297 847,-297 847,-327"/>
<text text-anchor="start" x="737" y="-315" font-family="Helvetica,sans-Serif" font-size="10.00">prototypes/container</text>
<text text-anchor="middle" x="788" y="-304" font-family="Helvetica,sans-Serif" font-size="10.00">/RxContainer.hpp</text>
</a>
</g>
</g>
<!-- Node1&#45;&gt;Node10 -->
<g id="edge9_Node000001_Node000010" class="edge">
<title>Node1&#45;&gt;Node10</title>
<g id="a_edge9_Node000001_Node000010"><a xlink:title=" ">
<path fill="none" stroke="#63b8ff" d="M996.52,-362.99C959.95,-354.23 902,-340.33 856.47,-329.42"/>
<polygon fill="#63b8ff" stroke="#63b8ff" points="857.2,-325.99 846.66,-327.06 855.57,-332.8 857.2,-325.99"/>
</a>
</g>
</g>
<!-- Node36 -->
<g id="Node000036" class="node">
<title>Node36</title>
<g id="a_Node000036"><a xlink:href="../../d9/d32/TxContainer_8hpp.html" target="_top" xlink:title="TX&#45;side container that builds protocol frames from a set of fields.">
<polygon fill="white" stroke="#666666" points="1048,-327 930,-327 930,-297 1048,-297 1048,-327"/>
<text text-anchor="start" x="938" y="-315" font-family="Helvetica,sans-Serif" font-size="10.00">prototypes/container</text>
<text text-anchor="middle" x="989" y="-304" font-family="Helvetica,sans-Serif" font-size="10.00">/TxContainer.hpp</text>
</a>
</g>
</g>
<!-- Node1&#45;&gt;Node36 -->
<g id="edge51_Node000001_Node000036" class="edge">
<title>Node1&#45;&gt;Node36</title>
<g id="a_edge51_Node000001_Node000036"><a xlink:title=" ">
<path fill="none" stroke="#63b8ff" d="M1025.66,-362.87C1020.31,-355.59 1012.41,-344.85 1005.32,-335.2"/>
<polygon fill="#63b8ff" stroke="#63b8ff" points="1008.12,-333.1 999.37,-327.11 1002.48,-337.25 1008.12,-333.1"/>
</a>
</g>
</g>
<!-- Node10&#45;&gt;Node6 -->
<g id="edge12_Node000010_Node000006" class="edge">
<title>Node10&#45;&gt;Node6</title>
<g id="a_edge12_Node000010_Node000006"><a xlink:title=" ">
<path fill="none" stroke="#63b8ff" d="M739.26,-296.91C707.6,-287.46 665.56,-274.34 629,-261 596.43,-249.12 590.48,-240.01 557,-231 438.82,-199.19 403.26,-222.48 284,-195 280.95,-194.3 277.81,-193.47 274.69,-192.56"/>
<polygon fill="#63b8ff" stroke="#63b8ff" points="275.47,-189.14 264.88,-189.5 273.39,-195.82 275.47,-189.14"/>
</a>
</g>
</g>
<!-- Node10&#45;&gt;Node7 -->
<g id="edge13_Node000010_Node000007" class="edge">
<title>Node10&#45;&gt;Node7</title>
<g id="a_edge13_Node000010_Node000007"><a xlink:title=" ">
<path fill="none" stroke="#63b8ff" d="M751.85,-296.91C729.48,-287.69 700.47,-274.83 676,-261 655.71,-249.53 654.66,-239.6 633,-231 531.11,-190.56 496.92,-214.22 389,-195 379.99,-193.4 370.34,-191.49 361.24,-189.61"/>
<polygon fill="#63b8ff" stroke="#63b8ff" points="361.79,-186.15 351.28,-187.51 360.34,-193 361.79,-186.15"/>
</a>
</g>
</g>
<!-- Node11 -->
<g id="Node000011" class="node">
<title>Node11</title>
<g id="a_Node000011"><a xlink:title=" ">
<polygon fill="#e0e0e0" stroke="#999999" points="923,-255.5 859,-255.5 859,-236.5 923,-236.5 923,-255.5"/>
<text text-anchor="middle" x="891" y="-243.5" font-family="Helvetica,sans-Serif" font-size="10.00">algorithm</text>
</a>
</g>
</g>
<!-- Node10&#45;&gt;Node11 -->
<g id="edge10_Node000010_Node000011" class="edge">
<title>Node10&#45;&gt;Node11</title>
<g id="a_edge10_Node000010_Node000011"><a xlink:title=" ">
<path fill="none" stroke="#63b8ff" d="M810.6,-296.95C827.79,-286.27 851.33,-271.65 868.49,-260.98"/>
<polygon fill="#63b8ff" stroke="#63b8ff" points="870.65,-263.77 877.29,-255.52 866.95,-257.82 870.65,-263.77"/>
</a>
</g>
</g>
<!-- Node12 -->
<g id="Node000012" class="node">
<title>Node12</title>
<g id="a_Node000012"><a xlink:title=" ">
<polygon fill="#e0e0e0" stroke="#999999" points="50,-74 0,-74 0,-55 50,-55 50,-74"/>
<text text-anchor="middle" x="25" y="-62" font-family="Helvetica,sans-Serif" font-size="10.00">cstring</text>
</a>
</g>
</g>
<!-- Node10&#45;&gt;Node12 -->
<g id="edge11_Node000010_Node000012" class="edge">
<title>Node10&#45;&gt;Node12</title>
<g id="a_edge11_Node000010_Node000012"><a xlink:title=" ">
<path fill="none" stroke="#63b8ff" d="M728.69,-307.89C619.63,-300.35 381.79,-275.3 200,-195 134.55,-166.09 70.2,-109.12 41.11,-81.4"/>
<polygon fill="#63b8ff" stroke="#63b8ff" points="43.19,-78.54 33.57,-74.1 38.32,-83.57 43.19,-78.54"/>
</a>
</g>
</g>
<!-- Node13 -->
<g id="Node000013" class="node">
<title>Node13</title>
<g id="a_Node000013"><a xlink:title=" ">
<polygon fill="#e0e0e0" stroke="#999999" points="1141.5,-74 1100.5,-74 1100.5,-55 1141.5,-55 1141.5,-74"/>
<text text-anchor="middle" x="1121" y="-62" font-family="Helvetica,sans-Serif" font-size="10.00">tuple</text>
</a>
</g>
</g>
<!-- Node10&#45;&gt;Node13 -->
<g id="edge14_Node000010_Node000013" class="edge">
<title>Node10&#45;&gt;Node13</title>
<g id="a_edge14_Node000010_Node000013"><a xlink:title=" ">
<path fill="none" stroke="#63b8ff" d="M794.51,-296.94C803.91,-278.4 823.15,-246.35 850,-231 959.7,-168.3 1040.33,-281.95 1132,-195 1159.68,-168.74 1153.01,-147.07 1144,-110 1141.69,-100.51 1136.98,-90.78 1132.42,-82.85"/>
<polygon fill="#63b8ff" stroke="#63b8ff" points="1135.32,-80.89 1127.1,-74.2 1129.36,-84.55 1135.32,-80.89"/>
</a>
</g>
</g>
<!-- Node14 -->
<g id="Node000014" class="node">
<title>Node14</title>
<g id="a_Node000014"><a xlink:href="../../d1/dcf/CustomSpan_8hpp.html" target="_top" xlink:title=" ">
<polygon fill="white" stroke="#666666" points="1356.5,-189.5 1257.5,-189.5 1257.5,-170.5 1356.5,-170.5 1356.5,-189.5"/>
<text text-anchor="middle" x="1307" y="-177.5" font-family="Helvetica,sans-Serif" font-size="10.00">CustomSpan.hpp</text>
</a>
</g>
</g>
<!-- Node10&#45;&gt;Node14 -->
<g id="edge15_Node000010_Node000014" class="edge">
<title>Node10&#45;&gt;Node14</title>
<g id="a_edge15_Node000010_Node000014"><a xlink:title=" ">
<path fill="none" stroke="#63b8ff" d="M847.33,-303.61C933.34,-292.6 1084.95,-272.03 1108,-261 1125.88,-252.44 1123.75,-240.77 1141,-231 1161.75,-219.25 1220.4,-202.89 1262.09,-192.13"/>
<polygon fill="#63b8ff" stroke="#63b8ff" points="1263.2,-195.46 1272.02,-189.59 1261.47,-188.68 1263.2,-195.46"/>
</a>
</g>
</g>
<!-- Node17 -->
<g id="Node000017" class="node">
<title>Node17</title>
<g id="a_Node000017"><a xlink:href="../../d8/daa/FieldContainer_8hpp.html" target="_top" xlink:title="Defines the FieldContainer class template, a generic container for protocol fields.">
<polygon fill="white" stroke="#666666" points="803,-261 685,-261 685,-231 803,-231 803,-261"/>
<text text-anchor="start" x="693" y="-249" font-family="Helvetica,sans-Serif" font-size="10.00">prototypes/container</text>
<text text-anchor="middle" x="744" y="-238" font-family="Helvetica,sans-Serif" font-size="10.00">/FieldContainer.hpp</text>
</a>
</g>
</g>
<!-- Node10&#45;&gt;Node17 -->
<g id="edge18_Node000010_Node000017" class="edge">
<title>Node10&#45;&gt;Node17</title>
<g id="a_edge18_Node000010_Node000017"><a xlink:title=" ">
<path fill="none" stroke="#63b8ff" d="M778.23,-296.8C772.71,-288.76 765.67,-278.53 759.42,-269.43"/>
<polygon fill="#63b8ff" stroke="#63b8ff" points="762.29,-267.42 753.74,-261.16 756.52,-271.39 762.29,-267.42"/>
</a>
</g>
</g>
<!-- Node15 -->
<g id="Node000015" class="node">
<title>Node15</title>
<g id="a_Node000015"><a xlink:title=" ">
<polygon fill="#e0e0e0" stroke="#999999" points="1333,-129 1281,-129 1281,-110 1333,-110 1333,-129"/>
<text text-anchor="middle" x="1307" y="-117" font-family="Helvetica,sans-Serif" font-size="10.00">cassert</text>
</a>
</g>
</g>
<!-- Node14&#45;&gt;Node15 -->
<g id="edge16_Node000014_Node000015" class="edge">
<title>Node14&#45;&gt;Node15</title>
<g id="a_edge16_Node000014_Node000015"><a xlink:title=" ">
<path fill="none" stroke="#63b8ff" d="M1307,-170.37C1307,-162.25 1307,-149.81 1307,-139.39"/>
<polygon fill="#63b8ff" stroke="#63b8ff" points="1310.5,-139.17 1307,-129.17 1303.5,-139.17 1310.5,-139.17"/>
</a>
</g>
</g>
<!-- Node16 -->
<g id="Node000016" class="node">
<title>Node16</title>
<g id="a_Node000016"><a xlink:title=" ">
<polygon fill="#e0e0e0" stroke="#999999" points="984.5,-74 931.5,-74 931.5,-55 984.5,-55 984.5,-74"/>
<text text-anchor="middle" x="958" y="-62" font-family="Helvetica,sans-Serif" font-size="10.00">cstddef</text>
</a>
</g>
</g>
<!-- Node14&#45;&gt;Node16 -->
<g id="edge17_Node000014_Node000016" class="edge">
<title>Node14&#45;&gt;Node16</title>
<g id="a_edge17_Node000014_Node000016"><a xlink:title=" ">
<path fill="none" stroke="#63b8ff" d="M1280.77,-170.47C1219.12,-150.42 1064.92,-100.27 994.32,-77.31"/>
<polygon fill="#63b8ff" stroke="#63b8ff" points="995.13,-73.89 984.54,-74.13 992.96,-80.55 995.13,-73.89"/>
</a>
</g>
</g>
<!-- Node17&#45;&gt;Node13 -->
<g id="edge19_Node000017_Node000013" class="edge">
<title>Node17&#45;&gt;Node13</title>
<g id="a_edge19_Node000017_Node000013"><a xlink:title=" ">
<path fill="none" stroke="#63b8ff" d="M803.3,-233.28C807.93,-232.47 812.54,-231.7 817,-231 881.81,-220.82 1064.49,-242.25 1110,-195 1138.6,-165.3 1131.98,-112.01 1125.84,-83.95"/>
<polygon fill="#63b8ff" stroke="#63b8ff" points="1129.24,-83.13 1123.51,-74.22 1122.44,-84.76 1129.24,-83.13"/>
</a>
</g>
</g>
<!-- Node18 -->
<g id="Node000018" class="node">
<title>Node18</title>
<g id="a_Node000018"><a xlink:title=" ">
<polygon fill="#e0e0e0" stroke="#999999" points="822.5,-74 753.5,-74 753.5,-55 822.5,-55 822.5,-74"/>
<text text-anchor="middle" x="788" y="-62" font-family="Helvetica,sans-Serif" font-size="10.00">type_traits</text>
</a>
</g>
</g>
<!-- Node17&#45;&gt;Node18 -->
<g id="edge20_Node000017_Node000018" class="edge">
<title>Node17&#45;&gt;Node18</title>
<g id="a_edge20_Node000017_Node000018"><a xlink:title=" ">
<path fill="none" stroke="#63b8ff" d="M737.87,-230.96C731.69,-214.85 723.86,-187.73 730,-165 738.61,-133.15 760.21,-101.02 774.49,-82.21"/>
<polygon fill="#63b8ff" stroke="#63b8ff" points="777.42,-84.13 780.81,-74.1 771.9,-79.83 777.42,-84.13"/>
</a>
</g>
</g>
<!-- Node19 -->
<g id="Node000019" class="node">
<title>Node19</title>
<g id="a_Node000019"><a xlink:title=" ">
<polygon fill="#e0e0e0" stroke="#999999" points="682.5,-189.5 589.5,-189.5 589.5,-170.5 682.5,-170.5 682.5,-189.5"/>
<text text-anchor="middle" x="636" y="-177.5" font-family="Helvetica,sans-Serif" font-size="10.00">unordered_map</text>
</a>
</g>
</g>
<!-- Node17&#45;&gt;Node19 -->
<g id="edge21_Node000017_Node000019" class="edge">
<title>Node17&#45;&gt;Node19</title>
<g id="a_edge21_Node000017_Node000019"><a xlink:title=" ">
<path fill="none" stroke="#63b8ff" d="M720.3,-230.95C702.11,-220.18 677.14,-205.38 659.1,-194.69"/>
<polygon fill="#63b8ff" stroke="#63b8ff" points="660.76,-191.6 650.37,-189.52 657.19,-197.63 660.76,-191.6"/>
</a>
</g>
</g>
<!-- Node20 -->
<g id="Node000020" class="node">
<title>Node20</title>
<g id="a_Node000020"><a xlink:title=" ">
<polygon fill="#e0e0e0" stroke="#999999" points="968.5,-129 923.5,-129 923.5,-110 968.5,-110 968.5,-129"/>
<text text-anchor="middle" x="946" y="-117" font-family="Helvetica,sans-Serif" font-size="10.00">utility</text>
</a>
</g>
</g>
<!-- Node17&#45;&gt;Node20 -->
<g id="edge22_Node000017_Node000020" class="edge">
<title>Node17&#45;&gt;Node20</title>
<g id="a_edge22_Node000017_Node000020"><a xlink:title=" ">
<path fill="none" stroke="#63b8ff" d="M783.4,-230.98C806.03,-222.15 834.53,-209.65 858,-195 885.44,-177.88 913.29,-152.69 930.11,-136.44"/>
<polygon fill="#63b8ff" stroke="#63b8ff" points="932.75,-138.76 937.43,-129.26 927.84,-133.77 932.75,-138.76"/>
</a>
</g>
</g>
<!-- Node21 -->
<g id="Node000021" class="node">
<title>Node21</title>
<g id="a_Node000021"><a xlink:title=" ">
<polygon fill="#e0e0e0" stroke="#999999" points="849,-195 739,-195 739,-165 849,-165 849,-195"/>
<text text-anchor="start" x="747" y="-183" font-family="Helvetica,sans-Serif" font-size="10.00">libraries/crc/crcSoft</text>
<text text-anchor="middle" x="794" y="-172" font-family="Helvetica,sans-Serif" font-size="10.00">/CrcSoft.hpp</text>
</a>
</g>
</g>
<!-- Node17&#45;&gt;Node21 -->
<g id="edge23_Node000017_Node000021" class="edge">
<title>Node17&#45;&gt;Node21</title>
<g id="a_edge23_Node000017_Node000021"><a xlink:title=" ">
<path fill="none" stroke="#63b8ff" d="M755.1,-230.8C761.44,-222.68 769.54,-212.31 776.7,-203.15"/>
<polygon fill="#63b8ff" stroke="#63b8ff" points="779.54,-205.2 782.93,-195.16 774.02,-200.89 779.54,-205.2"/>
</a>
</g>
</g>
<!-- Node22 -->
<g id="Node000022" class="node">
<title>Node22</title>
<g id="a_Node000022"><a xlink:href="../../d7/d91/DataField_8hpp.html" target="_top" xlink:title="Variant DATA field that maps protocol IDs to payload types at compile time.">
<polygon fill="white" stroke="#666666" points="571,-189.5 407,-189.5 407,-170.5 571,-170.5 571,-189.5"/>
<text text-anchor="middle" x="489" y="-177.5" font-family="Helvetica,sans-Serif" font-size="10.00">prototypes/field/DataField.hpp</text>
</a>
</g>
</g>
<!-- Node17&#45;&gt;Node22 -->
<g id="edge24_Node000017_Node000022" class="edge">
<title>Node17&#45;&gt;Node22</title>
<g id="a_edge24_Node000017_Node000022"><a xlink:title=" ">
<path fill="none" stroke="#63b8ff" d="M688.04,-230.95C641.35,-219.24 575.73,-202.77 532.8,-191.99"/>
<polygon fill="#63b8ff" stroke="#63b8ff" points="533.49,-188.56 522.94,-189.52 531.78,-195.35 533.49,-188.56"/>
</a>
</g>
</g>
<!-- Node26 -->
<g id="Node000026" class="node">
<title>Node26</title>
<g id="a_Node000026"><a xlink:href="../../df/db6/FieldPrototype_8hpp.html" target="_top" xlink:title="FieldPrototype template for describing and handling protocol fields.">
<polygon fill="white" stroke="#666666" points="522,-129 334,-129 334,-110 522,-110 522,-129"/>
<text text-anchor="middle" x="428" y="-117" font-family="Helvetica,sans-Serif" font-size="10.00">prototypes/field/FieldPrototype.hpp</text>
</a>
</g>
</g>
<!-- Node17&#45;&gt;Node26 -->
<g id="edge50_Node000017_Node000026" class="edge">
<title>Node17&#45;&gt;Node26</title>
<g id="a_edge50_Node000017_Node000026"><a xlink:title=" ">
<path fill="none" stroke="#63b8ff" d="M684.69,-233.33C680.06,-232.51 675.46,-231.72 671,-231 610.59,-221.23 438.34,-241.01 398,-195 383.28,-178.22 398.71,-153.29 412.33,-136.97"/>
<polygon fill="#63b8ff" stroke="#63b8ff" points="415.1,-139.11 419.12,-129.3 409.86,-134.47 415.1,-139.11"/>
</a>
</g>
</g>
<!-- Node22&#45;&gt;Node12 -->
<g id="edge25_Node000022_Node000012" class="edge">
<title>Node22&#45;&gt;Node12</title>
<g id="a_edge25_Node000022_Node000012"><a xlink:title=" ">
<path fill="none" stroke="#63b8ff" d="M453.87,-170.49C382.07,-153.08 213.06,-112.04 60.29,-74.31"/>
<polygon fill="#63b8ff" stroke="#63b8ff" points="60.79,-70.83 50.25,-71.83 59.12,-77.62 60.79,-70.83"/>
</a>
</g>
</g>
<!-- Node22&#45;&gt;Node13 -->
<g id="edge26_Node000022_Node000013" class="edge">
<title>Node22&#45;&gt;Node13</title>
<g id="a_edge26_Node000022_Node000013"><a xlink:title=" ">
<path fill="none" stroke="#63b8ff" d="M536.5,-170.47C660.02,-148.29 988.73,-89.25 1090.52,-70.97"/>
<polygon fill="#63b8ff" stroke="#63b8ff" points="1091.23,-74.4 1100.45,-69.19 1089.99,-67.51 1091.23,-74.4"/>
</a>
</g>
</g>
<!-- Node22&#45;&gt;Node18 -->
<g id="edge27_Node000022_Node000018" class="edge">
<title>Node22&#45;&gt;Node18</title>
<g id="a_edge27_Node000022_Node000018"><a xlink:title=" ">
<path fill="none" stroke="#63b8ff" d="M547.34,-170.45C589.37,-162.95 646.77,-149.91 694,-129 722.63,-116.33 751.96,-94.9 770.07,-80.49"/>
<polygon fill="#63b8ff" stroke="#63b8ff" points="772.45,-83.06 778.01,-74.04 768.04,-77.63 772.45,-83.06"/>
</a>
</g>
</g>
<!-- Node23 -->
<g id="Node000023" class="node">
<title>Node23</title>
<g id="a_Node000023"><a xlink:title=" ">
<polygon fill="#e0e0e0" stroke="#999999" points="663.5,-74 616.5,-74 616.5,-55 663.5,-55 663.5,-74"/>
<text text-anchor="middle" x="640" y="-62" font-family="Helvetica,sans-Serif" font-size="10.00">vector</text>
</a>
</g>
</g>
<!-- Node22&#45;&gt;Node23 -->
<g id="edge28_Node000022_Node000023" class="edge">
<title>Node22&#45;&gt;Node23</title>
<g id="a_edge28_Node000022_Node000023"><a xlink:title=" ">
<path fill="none" stroke="#63b8ff" d="M497.98,-170.45C512.4,-156.92 541.85,-130.04 569,-110 584.17,-98.8 602.18,-87.54 616.26,-79.14"/>
<polygon fill="#63b8ff" stroke="#63b8ff" points="618.04,-82.16 624.88,-74.07 614.49,-76.13 618.04,-82.16"/>
</a>
</g>
</g>
<!-- Node24 -->
<g id="Node000024" class="node">
<title>Node24</title>
<g id="a_Node000024"><a xlink:href="../../d7/d38/UniqueVariant_8hpp.html" target="_top" xlink:title=" ">
<polygon fill="white" stroke="#666666" points="685.5,-129 578.5,-129 578.5,-110 685.5,-110 685.5,-129"/>
<text text-anchor="middle" x="632" y="-117" font-family="Helvetica,sans-Serif" font-size="10.00">UniqueVariant.hpp</text>
</a>
</g>
</g>
<!-- Node22&#45;&gt;Node24 -->
<g id="edge29_Node000022_Node000024" class="edge">
<title>Node22&#45;&gt;Node24</title>
<g id="a_edge29_Node000022_Node000024"><a xlink:title=" ">
<path fill="none" stroke="#63b8ff" d="M509.79,-170.49C533.94,-160.62 573.98,-144.23 601.62,-132.93"/>
<polygon fill="#63b8ff" stroke="#63b8ff" points="603.25,-136.04 611.18,-129.02 600.6,-129.56 603.25,-136.04"/>
</a>
</g>
</g>
<!-- Node22&#45;&gt;Node26 -->
<g id="edge35_Node000022_Node000026" class="edge">
<title>Node22&#45;&gt;Node26</title>
<g id="a_edge35_Node000022_Node000026"><a xlink:title=" ">
<path fill="none" stroke="#63b8ff" d="M480,-170.37C470.63,-161.38 455.75,-147.11 444.3,-136.14"/>
<polygon fill="#63b8ff" stroke="#63b8ff" points="446.68,-133.56 437.04,-129.17 441.83,-138.62 446.68,-133.56"/>
</a>
</g>
</g>
<!-- Node24&#45;&gt;Node13 -->
<g id="edge31_Node000024_Node000013" class="edge">
<title>Node24&#45;&gt;Node13</title>
<g id="a_edge31_Node000024_Node000013"><a xlink:title=" ">
<path fill="none" stroke="#63b8ff" d="M685.73,-112.68C788.31,-101.56 1009.04,-77.63 1090.22,-68.84"/>
<polygon fill="#63b8ff" stroke="#63b8ff" points="1090.73,-72.3 1100.29,-67.74 1089.97,-65.34 1090.73,-72.3"/>
</a>
</g>
</g>
<!-- Node24&#45;&gt;Node16 -->
<g id="edge30_Node000024_Node000016" class="edge">
<title>Node24&#45;&gt;Node16</title>
<g id="a_edge30_Node000024_Node000016"><a xlink:title=" ">
<path fill="none" stroke="#63b8ff" d="M684.38,-109.98C750.63,-99.21 863.04,-80.94 921,-71.51"/>
<polygon fill="#63b8ff" stroke="#63b8ff" points="921.86,-74.92 931.17,-69.86 920.74,-68.01 921.86,-74.92"/>
</a>
</g>
</g>
<!-- Node24&#45;&gt;Node18 -->
<g id="edge32_Node000024_Node000018" class="edge">
<title>Node24&#45;&gt;Node18</title>
<g id="a_edge32_Node000024_Node000018"><a xlink:title=" ">
<path fill="none" stroke="#63b8ff" d="M657.06,-109.98C683.03,-101.16 723.81,-87.31 752.96,-77.41"/>
<polygon fill="#63b8ff" stroke="#63b8ff" points="754.4,-80.61 762.74,-74.08 752.15,-73.99 754.4,-80.61"/>
</a>
</g>
</g>
<!-- Node24&#45;&gt;Node23 -->
<g id="edge34_Node000024_Node000023" class="edge">
<title>Node24&#45;&gt;Node23</title>
<g id="a_edge34_Node000024_Node000023"><a xlink:title=" ">
<path fill="none" stroke="#63b8ff" d="M633.32,-109.75C634.37,-102.8 635.87,-92.85 637.19,-84.13"/>
<polygon fill="#63b8ff" stroke="#63b8ff" points="640.67,-84.5 638.7,-74.09 633.75,-83.45 640.67,-84.5"/>
</a>
</g>
</g>
<!-- Node25 -->
<g id="Node000025" class="node">
<title>Node25</title>
<g id="a_Node000025"><a xlink:title=" ">
<polygon fill="#e0e0e0" stroke="#999999" points="732.5,-74 681.5,-74 681.5,-55 732.5,-55 732.5,-74"/>
<text text-anchor="middle" x="707" y="-62" font-family="Helvetica,sans-Serif" font-size="10.00">variant</text>
</a>
</g>
</g>
<!-- Node24&#45;&gt;Node25 -->
<g id="edge33_Node000024_Node000025" class="edge">
<title>Node24&#45;&gt;Node25</title>
<g id="a_edge33_Node000024_Node000025"><a xlink:title=" ">
<path fill="none" stroke="#63b8ff" d="M644.05,-109.98C655.46,-101.92 672.83,-89.65 686.43,-80.03"/>
<polygon fill="#63b8ff" stroke="#63b8ff" points="688.58,-82.8 694.73,-74.17 684.54,-77.08 688.58,-82.8"/>
</a>
</g>
</g>
<!-- Node26&#45;&gt;Node12 -->
<g id="edge37_Node000026_Node000012" class="edge">
<title>Node26&#45;&gt;Node12</title>
<g id="a_edge37_Node000026_Node000012"><a xlink:title=" ">
<path fill="none" stroke="#63b8ff" d="M333.86,-110.42C261.41,-103.44 158.68,-91.9 60.02,-73.98"/>
<polygon fill="#63b8ff" stroke="#63b8ff" points="60.64,-70.53 50.17,-72.17 59.38,-77.42 60.64,-70.53"/>
</a>
</g>
</g>
<!-- Node26&#45;&gt;Node18 -->
<g id="edge43_Node000026_Node000018" class="edge">
<title>Node26&#45;&gt;Node18</title>
<g id="a_edge43_Node000026_Node000018"><a xlink:title=" ">
<path fill="none" stroke="#63b8ff" d="M493.15,-109.97C556.54,-101.49 655.52,-87.8 741,-74 741.75,-73.88 742.51,-73.75 743.27,-73.63"/>
<polygon fill="#63b8ff" stroke="#63b8ff" points="744.1,-77.04 753.37,-71.91 742.93,-70.14 744.1,-77.04"/>
</a>
</g>
</g>
<!-- Node26&#45;&gt;Node23 -->
<g id="edge44_Node000026_Node000023" class="edge">
<title>Node26&#45;&gt;Node23</title>
<g id="a_edge44_Node000026_Node000023"><a xlink:title=" ">
<path fill="none" stroke="#63b8ff" d="M462.67,-109.97C496.77,-101.56 550.57,-88.25 606.49,-74.11"/>
<polygon fill="#63b8ff" stroke="#63b8ff" points="607.38,-77.5 616.21,-71.65 605.66,-70.71 607.38,-77.5"/>
</a>
</g>
</g>
<!-- Node27 -->
<g id="Node000027" class="node">
<title>Node27</title>
<g id="a_Node000027"><a xlink:title=" ">
<polygon fill="#e0e0e0" stroke="#999999" points="174,-19 124,-19 124,0 174,0 174,-19"/>
<text text-anchor="middle" x="149" y="-7" font-family="Helvetica,sans-Serif" font-size="10.00">cstdint</text>
</a>
</g>
</g>
<!-- Node26&#45;&gt;Node27 -->
<g id="edge36_Node000026_Node000027" class="edge">
<title>Node26&#45;&gt;Node27</title>
<g id="a_edge36_Node000026_Node000027"><a xlink:title=" ">
<path fill="none" stroke="#63b8ff" d="M333.99,-115.15C290.32,-110 239.28,-98.58 199,-74 180.9,-62.95 166.74,-42.82 158.18,-28.18"/>
<polygon fill="#63b8ff" stroke="#63b8ff" points="161.07,-26.16 153.17,-19.1 154.94,-29.54 161.07,-26.16"/>
</a>
</g>
</g>
<!-- Node28 -->
<g id="Node000028" class="node">
<title>Node28</title>
<g id="a_Node000028"><a xlink:title=" ">
<polygon fill="#e0e0e0" stroke="#999999" points="458,-74 402,-74 402,-55 458,-55 458,-74"/>
<text text-anchor="middle" x="430" y="-62" font-family="Helvetica,sans-Serif" font-size="10.00">iomanip</text>
</a>
</g>
</g>
<!-- Node26&#45;&gt;Node28 -->
<g id="edge38_Node000026_Node000028" class="edge">
<title>Node26&#45;&gt;Node28</title>
<g id="a_edge38_Node000026_Node000028"><a xlink:title=" ">
<path fill="none" stroke="#63b8ff" d="M428.33,-109.75C428.59,-102.8 428.97,-92.85 429.3,-84.13"/>
<polygon fill="#63b8ff" stroke="#63b8ff" points="432.8,-84.21 429.68,-74.09 425.8,-83.95 432.8,-84.21"/>
</a>
</g>
</g>
<!-- Node29 -->
<g id="Node000029" class="node">
<title>Node29</title>
<g id="a_Node000029"><a xlink:title=" ">
<polygon fill="#e0e0e0" stroke="#999999" points="536,-74 476,-74 476,-55 536,-55 536,-74"/>
<text text-anchor="middle" x="506" y="-62" font-family="Helvetica,sans-Serif" font-size="10.00">iostream</text>
</a>
</g>
</g>
<!-- Node26&#45;&gt;Node29 -->
<g id="edge39_Node000026_Node000029" class="edge">
<title>Node26&#45;&gt;Node29</title>
<g id="a_edge39_Node000026_Node000029"><a xlink:title=" ">
<path fill="none" stroke="#63b8ff" d="M440.53,-109.98C452.4,-101.92 470.46,-89.65 484.61,-80.03"/>
<polygon fill="#63b8ff" stroke="#63b8ff" points="486.94,-82.69 493.24,-74.17 483,-76.9 486.94,-82.69"/>
</a>
</g>
</g>
<!-- Node30 -->
<g id="Node000030" class="node">
<title>Node30</title>
<g id="a_Node000030"><a xlink:title=" ">
<polygon fill="#e0e0e0" stroke="#999999" points="598,-74 554,-74 554,-55 598,-55 598,-74"/>
<text text-anchor="middle" x="576" y="-62" font-family="Helvetica,sans-Serif" font-size="10.00">limits</text>
</a>
</g>
</g>
<!-- Node26&#45;&gt;Node30 -->
<g id="edge40_Node000026_Node000030" class="edge">
<title>Node26&#45;&gt;Node30</title>
<g id="a_edge40_Node000026_Node000030"><a xlink:title=" ">
<path fill="none" stroke="#63b8ff" d="M451.78,-109.98C476.81,-101.02 516.37,-86.86 544.1,-76.92"/>
<polygon fill="#63b8ff" stroke="#63b8ff" points="545.5,-80.14 553.73,-73.47 543.14,-73.55 545.5,-80.14"/>
</a>
</g>
</g>
<!-- Node31 -->
<g id="Node000031" class="node">
<title>Node31</title>
<g id="a_Node000031"><a xlink:title=" ">
<polygon fill="#e0e0e0" stroke="#999999" points="124,-74 68,-74 68,-55 124,-55 124,-74"/>
<text text-anchor="middle" x="96" y="-62" font-family="Helvetica,sans-Serif" font-size="10.00">sstream</text>
</a>
</g>
</g>
<!-- Node26&#45;&gt;Node31 -->
<g id="edge41_Node000026_Node000031" class="edge">
<title>Node26&#45;&gt;Node31</title>
<g id="a_edge41_Node000026_Node000031"><a xlink:title=" ">
<path fill="none" stroke="#63b8ff" d="M366.76,-109.96C307.97,-101.57 216.74,-88 138,-74 136.9,-73.8 135.79,-73.6 134.66,-73.4"/>
<polygon fill="#63b8ff" stroke="#63b8ff" points="134.91,-69.88 124.43,-71.44 133.6,-76.76 134.91,-69.88"/>
</a>
</g>
</g>
<!-- Node32 -->
<g id="Node000032" class="node">
<title>Node32</title>
<g id="a_Node000032"><a xlink:title=" ">
<polygon fill="#e0e0e0" stroke="#999999" points="265.5,-19 192.5,-19 192.5,0 265.5,0 265.5,-19"/>
<text text-anchor="middle" x="229" y="-7" font-family="Helvetica,sans-Serif" font-size="10.00">string_view</text>
</a>
</g>
</g>
<!-- Node26&#45;&gt;Node32 -->
<g id="edge42_Node000026_Node000032" class="edge">
<title>Node26&#45;&gt;Node32</title>
<g id="a_edge42_Node000026_Node000032"><a xlink:title=" ">
<path fill="none" stroke="#63b8ff" d="M333.72,-111.2C281.61,-104.99 224.19,-93.79 208,-74 197.02,-60.58 205.99,-41.22 215.38,-27.41"/>
<polygon fill="#63b8ff" stroke="#63b8ff" points="218.27,-29.37 221.4,-19.25 212.64,-25.22 218.27,-29.37"/>
</a>
</g>
</g>
<!-- Node33 -->
<g id="Node000033" class="node">
<title>Node33</title>
<g id="a_Node000033"><a xlink:href="../../d4/d9e/FieldFlags_8hpp.html" target="_top" xlink:title="Common enums and utilities for protocol field names and flags.">
<polygon fill="white" stroke="#666666" points="384.5,-74 217.5,-74 217.5,-55 384.5,-55 384.5,-74"/>
<text text-anchor="middle" x="301" y="-62" font-family="Helvetica,sans-Serif" font-size="10.00">prototypes/field/FieldFlags.hpp</text>
</a>
</g>
</g>
<!-- Node26&#45;&gt;Node33 -->
<g id="edge45_Node000026_Node000033" class="edge">
<title>Node26&#45;&gt;Node33</title>
<g id="a_edge45_Node000026_Node000033"><a xlink:title=" ">
<path fill="none" stroke="#63b8ff" d="M407.6,-109.98C386.98,-101.38 354.89,-87.99 331.31,-78.15"/>
<polygon fill="#63b8ff" stroke="#63b8ff" points="332.35,-74.79 321.78,-74.17 329.66,-81.25 332.35,-74.79"/>
</a>
</g>
</g>
<!-- Node33&#45;&gt;Node27 -->
<g id="edge47_Node000033_Node000027" class="edge">
<title>Node33&#45;&gt;Node27</title>
<g id="a_edge47_Node000033_Node000027"><a xlink:title=" ">
<path fill="none" stroke="#63b8ff" d="M276.58,-54.98C251.28,-46.16 211.55,-32.31 183.14,-22.41"/>
<polygon fill="#63b8ff" stroke="#63b8ff" points="184.21,-19.07 173.61,-19.08 181.9,-25.68 184.21,-19.07"/>
</a>
</g>
</g>
<!-- Node33&#45;&gt;Node32 -->
<g id="edge49_Node000033_Node000032" class="edge">
<title>Node33&#45;&gt;Node32</title>
<g id="a_edge49_Node000033_Node000032"><a xlink:title=" ">
<path fill="none" stroke="#63b8ff" d="M289.43,-54.98C278.58,-47 262.12,-34.88 249.12,-25.31"/>
<polygon fill="#63b8ff" stroke="#63b8ff" points="250.91,-22.28 240.78,-19.17 246.76,-27.92 250.91,-22.28"/>
</a>
</g>
</g>
<!-- Node34 -->
<g id="Node000034" class="node">
<title>Node34</title>
<g id="a_Node000034"><a xlink:title=" ">
<polygon fill="#e0e0e0" stroke="#999999" points="326,-19 284,-19 284,0 326,0 326,-19"/>
<text text-anchor="middle" x="305" y="-7" font-family="Helvetica,sans-Serif" font-size="10.00">array</text>
</a>
</g>
</g>
<!-- Node33&#45;&gt;Node34 -->
<g id="edge46_Node000033_Node000034" class="edge">
<title>Node33&#45;&gt;Node34</title>
<g id="a_edge46_Node000033_Node000034"><a xlink:title=" ">
<path fill="none" stroke="#63b8ff" d="M301.66,-54.75C302.18,-47.8 302.94,-37.85 303.59,-29.13"/>
<polygon fill="#63b8ff" stroke="#63b8ff" points="307.09,-29.32 304.35,-19.09 300.11,-28.8 307.09,-29.32"/>
</a>
</g>
</g>
<!-- Node35 -->
<g id="Node000035" class="node">
<title>Node35</title>
<g id="a_Node000035"><a xlink:title=" ">
<polygon fill="#e0e0e0" stroke="#999999" points="401.5,-19 344.5,-19 344.5,0 401.5,0 401.5,-19"/>
<text text-anchor="middle" x="373" y="-7" font-family="Helvetica,sans-Serif" font-size="10.00">ostream</text>
</a>
</g>
</g>
<!-- Node33&#45;&gt;Node35 -->
<g id="edge48_Node000033_Node000035" class="edge">
<title>Node33&#45;&gt;Node35</title>
<g id="a_edge48_Node000033_Node000035"><a xlink:title=" ">
<path fill="none" stroke="#63b8ff" d="M312.57,-54.98C323.42,-47 339.88,-34.88 352.88,-25.31"/>
<polygon fill="#63b8ff" stroke="#63b8ff" points="355.24,-27.92 361.22,-19.17 351.09,-22.28 355.24,-27.92"/>
</a>
</g>
</g>
<!-- Node36&#45;&gt;Node11 -->
<g id="edge52_Node000036_Node000011" class="edge">
<title>Node36&#45;&gt;Node11</title>
<g id="a_edge52_Node000036_Node000011"><a xlink:title=" ">
<path fill="none" stroke="#63b8ff" d="M967.25,-296.8C951.13,-286.27 929.24,-271.97 913.05,-261.4"/>
<polygon fill="#63b8ff" stroke="#63b8ff" points="914.54,-258.2 904.26,-255.66 910.72,-264.06 914.54,-258.2"/>
</a>
</g>
</g>
<!-- Node36&#45;&gt;Node13 -->
<g id="edge53_Node000036_Node000013" class="edge">
<title>Node36&#45;&gt;Node13</title>
<g id="a_edge53_Node000036_Node000013"><a xlink:title=" ">
<path fill="none" stroke="#63b8ff" d="M1048.26,-299.71C1163.83,-277.11 1410.17,-225.84 1434,-195 1510.35,-96.19 1244.7,-72.2 1151.87,-66.89"/>
<polygon fill="#63b8ff" stroke="#63b8ff" points="1151.86,-63.39 1141.68,-66.35 1151.48,-70.38 1151.86,-63.39"/>
</a>
</g>
</g>
<!-- Node36&#45;&gt;Node14 -->
<g id="edge55_Node000036_Node000014" class="edge">
<title>Node36&#45;&gt;Node14</title>
<g id="a_edge55_Node000036_Node000014"><a xlink:title=" ">
<path fill="none" stroke="#63b8ff" d="M1042.26,-296.9C1071.99,-288.2 1109.3,-275.85 1141,-261 1163.78,-250.33 1166.68,-242.61 1189,-231 1217.1,-216.38 1250.45,-202.56 1274.51,-193.16"/>
<polygon fill="#63b8ff" stroke="#63b8ff" points="1275.82,-196.41 1283.89,-189.54 1273.3,-189.88 1275.82,-196.41"/>
</a>
</g>
</g>
<!-- Node36&#45;&gt;Node17 -->
<g id="edge62_Node000036_Node000017" class="edge">
<title>Node36&#45;&gt;Node17</title>
<g id="a_edge62_Node000036_Node000017"><a xlink:title=" ">
<path fill="none" stroke="#63b8ff" d="M935.23,-296.95C897.58,-287.12 847.11,-273.93 807.47,-263.58"/>
<polygon fill="#63b8ff" stroke="#63b8ff" points="808.2,-260.15 797.64,-261.01 806.43,-266.93 808.2,-260.15"/>
</a>
</g>
</g>
<!-- Node36&#45;&gt;Node18 -->
<g id="edge54_Node000036_Node000018" class="edge">
<title>Node36&#45;&gt;Node18</title>
<g id="a_edge54_Node000036_Node000018"><a xlink:title=" ">
<path fill="none" stroke="#63b8ff" d="M979.52,-296.83C968.52,-280.6 949.63,-253.37 932,-231 887.36,-174.38 830,-110.99 803.14,-81.81"/>
<polygon fill="#63b8ff" stroke="#63b8ff" points="805.47,-79.18 796.12,-74.21 800.33,-83.93 805.47,-79.18"/>
</a>
</g>
</g>
<!-- Node37 -->
<g id="Node000037" class="node">
<title>Node37</title>
<g id="a_Node000037"><a xlink:href="../../d7/d79/Interface_8hpp.html" target="_top" xlink:title=" ">
<polygon fill="white" stroke="#666666" points="1098.5,-255.5 1017.5,-255.5 1017.5,-236.5 1098.5,-236.5 1098.5,-255.5"/>
<text text-anchor="middle" x="1058" y="-243.5" font-family="Helvetica,sans-Serif" font-size="10.00">Interface.hpp</text>
</a>
</g>
</g>
<!-- Node36&#45;&gt;Node37 -->
<g id="edge56_Node000036_Node000037" class="edge">
<title>Node36&#45;&gt;Node37</title>
<g id="a_edge56_Node000036_Node000037"><a xlink:title=" ">
<path fill="none" stroke="#63b8ff" d="M1004.31,-296.8C1015.18,-286.72 1029.76,-273.19 1040.99,-262.78"/>
<polygon fill="#63b8ff" stroke="#63b8ff" points="1043.51,-265.21 1048.46,-255.84 1038.75,-260.08 1043.51,-265.21"/>
</a>
</g>
</g>
<!-- Node39 -->
<g id="Node000039" class="node">
<title>Node39</title>
<g id="a_Node000039"><a xlink:href="../../d7/d50/FieldInfo_8hpp.html" target="_top" xlink:title="Helpers and utilities for compile&#45;time field metadata and tuple processing.">
<polygon fill="white" stroke="#666666" points="1101.5,-189.5 942.5,-189.5 942.5,-170.5 1101.5,-170.5 1101.5,-189.5"/>
<text text-anchor="middle" x="1022" y="-177.5" font-family="Helvetica,sans-Serif" font-size="10.00">prototypes/field/FieldInfo.hpp</text>
</a>
</g>
</g>
<!-- Node36&#45;&gt;Node39 -->
<g id="edge63_Node000036_Node000039" class="edge">
<title>Node36&#45;&gt;Node39</title>
<g id="a_edge63_Node000036_Node000039"><a xlink:title=" ">
<path fill="none" stroke="#63b8ff" d="M992.5,-296.83C996.46,-280.83 1003.13,-254.03 1009,-231 1011.64,-220.63 1014.65,-209.07 1017.1,-199.67"/>
<polygon fill="#63b8ff" stroke="#63b8ff" points="1020.53,-200.41 1019.67,-189.84 1013.76,-198.63 1020.53,-200.41"/>
</a>
</g>
</g>
<!-- Node37&#45;&gt;Node3 -->
<g id="edge57_Node000037_Node000003" class="edge">
<title>Node37&#45;&gt;Node3</title>
<g id="a_edge57_Node000037_Node000003"><a xlink:title=" ">
<path fill="none" stroke="#63b8ff" d="M1098.51,-241.42C1158.02,-235.48 1272.17,-221.55 1366,-195 1367.89,-194.47 1369.81,-193.86 1371.74,-193.2"/>
<polygon fill="#63b8ff" stroke="#63b8ff" points="1373.09,-196.43 1381.21,-189.64 1370.62,-189.88 1373.09,-196.43"/>
</a>
</g>
</g>
<!-- Node37&#45;&gt;Node6 -->
<g id="edge58_Node000037_Node000006" class="edge">
<title>Node37&#45;&gt;Node6</title>
<g id="a_edge58_Node000037_Node000006"><a xlink:title=" ">
<path fill="none" stroke="#63b8ff" d="M1017.48,-239.92C992.81,-236.97 960.62,-233.38 932,-231 644.55,-207.06 567.33,-249.09 284,-195 280.57,-194.35 277.04,-193.48 273.55,-192.51"/>
<polygon fill="#63b8ff" stroke="#63b8ff" points="274.53,-189.15 263.94,-189.54 272.46,-195.83 274.53,-189.15"/>
</a>
</g>
</g>
<!-- Node37&#45;&gt;Node7 -->
<g id="edge59_Node000037_Node000007" class="edge">
<title>Node37&#45;&gt;Node7</title>
<g id="a_edge59_Node000037_Node000007"><a xlink:title=" ">
<path fill="none" stroke="#63b8ff" d="M1017.47,-240.05C992.79,-237.14 960.61,-233.55 932,-231 695.07,-209.86 634.02,-224.6 398,-195 385.95,-193.49 372.93,-191.3 361.12,-189.09"/>
<polygon fill="#63b8ff" stroke="#63b8ff" points="361.59,-185.62 351.11,-187.17 360.27,-192.5 361.59,-185.62"/>
</a>
</g>
</g>
<!-- Node37&#45;&gt;Node14 -->
<g id="edge61_Node000037_Node000014" class="edge">
<title>Node37&#45;&gt;Node14</title>
<g id="a_edge61_Node000037_Node000014"><a xlink:title=" ">
<path fill="none" stroke="#63b8ff" d="M1091.32,-236.44C1135.86,-224.99 1214.86,-204.68 1263.89,-192.08"/>
<polygon fill="#63b8ff" stroke="#63b8ff" points="1265.06,-195.39 1273.87,-189.51 1263.32,-188.61 1265.06,-195.39"/>
</a>
</g>
</g>
<!-- Node38 -->
<g id="Node000038" class="node">
<title>Node38</title>
<g id="a_Node000038"><a xlink:title=" ">
<polygon fill="#e0e0e0" stroke="#999999" points="1239,-189.5 1195,-189.5 1195,-170.5 1239,-170.5 1239,-189.5"/>
<text text-anchor="middle" x="1217" y="-177.5" font-family="Helvetica,sans-Serif" font-size="10.00">string</text>
</a>
</g>
</g>
<!-- Node37&#45;&gt;Node38 -->
<g id="edge60_Node000037_Node000038" class="edge">
<title>Node37&#45;&gt;Node38</title>
<g id="a_edge60_Node000037_Node000038"><a xlink:title=" ">
<path fill="none" stroke="#63b8ff" d="M1079.44,-236.37C1106.9,-225.32 1154.68,-206.08 1186.07,-193.45"/>
<polygon fill="#63b8ff" stroke="#63b8ff" points="1187.67,-196.58 1195.64,-189.6 1185.06,-190.08 1187.67,-196.58"/>
</a>
</g>
</g>
<!-- Node39&#45;&gt;Node13 -->
<g id="edge64_Node000039_Node000013" class="edge">
<title>Node39&#45;&gt;Node13</title>
<g id="a_edge64_Node000039_Node000013"><a xlink:title=" ">
<path fill="none" stroke="#63b8ff" d="M1029.44,-170.47C1045.85,-151.65 1085.39,-106.32 1106.75,-81.84"/>
<polygon fill="#63b8ff" stroke="#63b8ff" points="1109.54,-83.97 1113.47,-74.13 1104.26,-79.37 1109.54,-83.97"/>
</a>
</g>
</g>
<!-- Node39&#45;&gt;Node18 -->
<g id="edge65_Node000039_Node000018" class="edge">
<title>Node39&#45;&gt;Node18</title>
<g id="a_edge65_Node000039_Node000018"><a xlink:title=" ">
<path fill="none" stroke="#63b8ff" d="M1018.82,-170.25C1012.96,-155.42 999.01,-125.45 977,-110 934.23,-79.98 873.96,-70 833.07,-66.8"/>
<polygon fill="#63b8ff" stroke="#63b8ff" points="833.07,-63.29 822.85,-66.1 832.59,-70.27 833.07,-63.29"/>
</a>
</g>
</g>
<!-- Node39&#45;&gt;Node20 -->
<g id="edge66_Node000039_Node000020" class="edge">
<title>Node39&#45;&gt;Node20</title>
<g id="a_edge66_Node000039_Node000020"><a xlink:title=" ">
<path fill="none" stroke="#63b8ff" d="M1010.79,-170.37C998.89,-161.21 979.86,-146.56 965.49,-135.51"/>
<polygon fill="#63b8ff" stroke="#63b8ff" points="967.32,-132.49 957.26,-129.17 963.05,-138.04 967.32,-132.49"/>
</a>
</g>
</g>
<!-- Node39&#45;&gt;Node26 -->
<g id="edge67_Node000039_Node000026" class="edge">
<title>Node39&#45;&gt;Node26</title>
<g id="a_edge67_Node000039_Node000026"><a xlink:title=" ">
<path fill="none" stroke="#63b8ff" d="M942.2,-171.14C833.98,-160.48 640.88,-141.47 524.6,-130.01"/>
<polygon fill="#63b8ff" stroke="#63b8ff" points="524.93,-126.53 514.63,-129.03 524.24,-133.5 524.93,-126.53"/>
</a>
</g>
</g>
</g>
</svg>
