<?xml version="1.0" encoding="UTF-8" standalone="no"?>
<!DOCTYPE svg PUBLIC "-//W3C//DTD SVG 1.1//EN"
 "http://www.w3.org/Graphics/SVG/1.1/DTD/svg11.dtd">
<!-- Generated by graphviz version 2.43.0 (0)
 -->
<!-- Title: proto::ProtocolEndpoint::request Pages: 1 -->
<!--zoomable 86 -->

<svg id="main" version="1.1" xmlns="http://www.w3.org/2000/svg" xmlns:xlink="http://www.w3.org/1999/xlink" xml:space="preserve" onload="init(evt)">
<style type="text/css"><![CDATA[
.node, .edge {opacity: 0.7;}
.node.selected, .edge.selected {opacity: 1;}
.edge:hover path { stroke: red; }
.edge:hover polygon { stroke: red; fill: red; }
]]></style>

<defs>
  <circle id="rim" cx="0" cy="0" r="7"/>
  <circle id="rim2" cx="0" cy="0" r="3.5"/>
  <g id="zoomPlus">
    <use xlink:href="#rim" fill="#404040"><set attributeName="fill" to="#808080" begin="zoomplus.mouseover" end="zoomplus.mouseout"/></use>
    <path d="M-4,0h8M0,-4v8" fill="none" stroke="white" stroke-width="1.5" pointer-events="none"/>
  </g>
  <g id="zoomMin">
    <use xlink:href="#rim" fill="#404040"><set attributeName="fill" to="#808080" begin="zoomminus.mouseover" end="zoomminus.mouseout"/></use>
    <path d="M-4,0h8" fill="none" stroke="white" stroke-width="1.5" pointer-events="none"/>
  </g>
  <g id="arrowUp" transform="translate(30 24)">
    <use xlink:href="#rim"/>
    <path pointer-events="none" fill="none" stroke="white" stroke-width="1.5" d="M0,-3.0v7 M-2.5,-0.5L0,-3.0L2.5,-0.5"/>
  </g>
  <g id="arrowRight" transform="rotate(90) translate(36 -43)">
    <use xlink:href="#rim"/>
    <path pointer-events="none" fill="none" stroke="white" stroke-width="1.5" d="M0,-3.0v7 M-2.5,-0.5L0,-3.0L2.5,-0.5"/>
  </g>
  <g id="arrowDown" transform="rotate(180) translate(-30 -48)">
    <use xlink:href="#rim"/>
    <path pointer-events="none" fill="none" stroke="white" stroke-width="1.5" d="M0,-3.0v7 M-2.5,-0.5L0,-3.0L2.5,-0.5"/>
  </g>
  <g id="arrowLeft" transform="rotate(270) translate(-36 17)">
    <use xlink:href="#rim"/>
    <path pointer-events="none" fill="none" stroke="white" stroke-width="1.5" d="M0,-3.0v7 M-2.5,-0.5L0,-3.0L2.5,-0.5"/>
  </g>
  <g id="resetDef">
    <use xlink:href="#rim2" fill="#404040"><set attributeName="fill" to="#808080" begin="reset.mouseover" end="reset.mouseout"/></use>
  </g>
</defs>
<script type="application/ecmascript">
var viewWidth = 902;
var viewHeight = 86;
var sectionId = 'dynsection-2';
</script>
<script type="application/ecmascript" xlink:href="../../svg.min.js"/>
<svg id="graph" class="graph">
<g id="viewport">
<title>proto::ProtocolEndpoint::request</title>
<!-- Node1 -->
<g id="Node000001" class="node">
<title>Node1</title>
<g id="a_Node000001"><a xlink:title=" ">
<polygon fill="#999999" stroke="#666666" points="131,-54 0,-54 0,-24 131,-24 131,-54"/>
<text text-anchor="start" x="8" y="-42" font-family="Helvetica,sans-Serif" font-size="10.00">proto::ProtocolEndpoint</text>
<text text-anchor="middle" x="65.5" y="-31" font-family="Helvetica,sans-Serif" font-size="10.00">::request</text>
</a>
</g>
</g>
<!-- Node2 -->
<g id="Node000002" class="node">
<title>Node2</title>
<g id="a_Node000002"><a xlink:href="../../d4/dd2/classproto_1_1TxContainer.html#a4636ad0f62ff172c7a74231bc9757985" target="_top" xlink:title="Build and send a packet, setting field values from a pack of FieldInfo.">
<polygon fill="white" stroke="#666666" points="274,-54 167,-54 167,-24 274,-24 274,-54"/>
<text text-anchor="start" x="175" y="-42" font-family="Helvetica,sans-Serif" font-size="10.00">proto::TxContainer</text>
<text text-anchor="middle" x="220.5" y="-31" font-family="Helvetica,sans-Serif" font-size="10.00">::send_packet</text>
</a>
</g>
</g>
<!-- Node1&#45;&gt;Node2 -->
<g id="edge1_Node000001_Node000002" class="edge">
<title>Node1&#45;&gt;Node2</title>
<g id="a_edge1_Node000001_Node000002"><a xlink:title=" ">
<path fill="none" stroke="#63b8ff" d="M131.39,-39C139.63,-39 148.06,-39 156.28,-39"/>
<polygon fill="#63b8ff" stroke="#63b8ff" points="156.55,-42.5 166.55,-39 156.55,-35.5 156.55,-42.5"/>
</a>
</g>
</g>
<!-- Node3 -->
<g id="Node000003" class="node">
<title>Node3</title>
<g id="a_Node000003"><a xlink:href="../../d5/d09/classproto_1_1FieldContainer.html#adb8a7ae096301186b9fe7ebb5763fcbd" target="_top" xlink:title="Check if a field with the given FieldName exists in the container.">
<polygon fill="white" stroke="#666666" points="429,-78 310,-78 310,-48 429,-48 429,-78"/>
<text text-anchor="start" x="318" y="-66" font-family="Helvetica,sans-Serif" font-size="10.00">proto::FieldContainer</text>
<text text-anchor="middle" x="369.5" y="-55" font-family="Helvetica,sans-Serif" font-size="10.00">::has_field</text>
</a>
</g>
</g>
<!-- Node2&#45;&gt;Node3 -->
<g id="edge2_Node000002_Node000003" class="edge">
<title>Node2&#45;&gt;Node3</title>
<g id="a_edge2_Node000002_Node000003"><a xlink:title=" ">
<path fill="none" stroke="#63b8ff" d="M274.16,-47.6C282.5,-48.96 291.24,-50.39 299.89,-51.8"/>
<polygon fill="#63b8ff" stroke="#63b8ff" points="299.54,-55.29 309.98,-53.45 300.67,-48.38 299.54,-55.29"/>
</a>
</g>
</g>
<!-- Node4 -->
<g id="Node000004" class="node">
<title>Node4</title>
<g id="a_Node000004"><a xlink:href="../../d4/dd2/classproto_1_1TxContainer.html#a4b5b6b72f53c218e00d1c3b576c2e439" target="_top" xlink:title="Reset the internal state of the container and its fields.">
<polygon fill="white" stroke="#666666" points="423,-30 316,-30 316,0 423,0 423,-30"/>
<text text-anchor="start" x="324" y="-18" font-family="Helvetica,sans-Serif" font-size="10.00">proto::TxContainer</text>
<text text-anchor="middle" x="369.5" y="-7" font-family="Helvetica,sans-Serif" font-size="10.00">::reset</text>
</a>
</g>
</g>
<!-- Node2&#45;&gt;Node4 -->
<g id="edge3_Node000002_Node000004" class="edge">
<title>Node2&#45;&gt;Node4</title>
<g id="a_edge3_Node000002_Node000004"><a xlink:title=" ">
<path fill="none" stroke="#63b8ff" d="M274.16,-30.4C284.39,-28.73 295.22,-26.96 305.75,-25.25"/>
<polygon fill="#63b8ff" stroke="#63b8ff" points="306.41,-28.68 315.72,-23.62 305.29,-21.77 306.41,-28.68"/>
</a>
</g>
</g>
<!-- Node5 -->
<g id="Node000005" class="node">
<title>Node5</title>
<g id="a_Node000005"><a xlink:href="../../d5/d09/classproto_1_1FieldContainer.html#a44b086a546a434a9ba804d3081559d29" target="_top" xlink:title="Reset all fields, CRC, and internal state to defaults.">
<polygon fill="white" stroke="#666666" points="584,-30 465,-30 465,0 584,0 584,-30"/>
<text text-anchor="start" x="473" y="-18" font-family="Helvetica,sans-Serif" font-size="10.00">proto::FieldContainer</text>
<text text-anchor="middle" x="524.5" y="-7" font-family="Helvetica,sans-Serif" font-size="10.00">::reset</text>
</a>
</g>
</g>
<!-- Node4&#45;&gt;Node5 -->
<g id="edge4_Node000004_Node000005" class="edge">
<title>Node4&#45;&gt;Node5</title>
<g id="a_edge4_Node000004_Node000005"><a xlink:title=" ">
<path fill="none" stroke="#63b8ff" d="M423.15,-15C433.37,-15 444.22,-15 454.87,-15"/>
<polygon fill="#63b8ff" stroke="#63b8ff" points="454.98,-18.5 464.98,-15 454.98,-11.5 454.98,-18.5"/>
</a>
</g>
</g>
<!-- Node6 -->
<g id="Node000006" class="node">
<title>Node6</title>
<g id="a_Node000006"><a xlink:href="../../d5/d09/classproto_1_1FieldContainer.html#ad87097e46757f1f4d2ead100ef965f1e" target="_top" xlink:title="Apply a callable to each field in the container.">
<polygon fill="white" stroke="#666666" points="739,-30 620,-30 620,0 739,0 739,-30"/>
<text text-anchor="start" x="628" y="-18" font-family="Helvetica,sans-Serif" font-size="10.00">proto::FieldContainer</text>
<text text-anchor="middle" x="679.5" y="-7" font-family="Helvetica,sans-Serif" font-size="10.00">::for_each_type</text>
</a>
</g>
</g>
<!-- Node5&#45;&gt;Node6 -->
<g id="edge5_Node000005_Node000006" class="edge">
<title>Node5&#45;&gt;Node6</title>
<g id="a_edge5_Node000005_Node000006"><a xlink:title=" ">
<path fill="none" stroke="#63b8ff" d="M584.22,-15C592.54,-15 601.17,-15 609.67,-15"/>
<polygon fill="#63b8ff" stroke="#63b8ff" points="609.94,-18.5 619.94,-15 609.94,-11.5 609.94,-18.5"/>
</a>
</g>
</g>
<!-- Node7 -->
<g id="Node000007" class="node">
<title>Node7</title>
<g id="a_Node000007"><a xlink:href="../../d5/d09/classproto_1_1FieldContainer.html#a47927806803e31410e7e5bf48e7d50b2" target="_top" xlink:title="Helper to apply a callable to each field in the tuple (implementation).">
<polygon fill="white" stroke="#666666" points="894,-30 775,-30 775,0 894,0 894,-30"/>
<text text-anchor="start" x="783" y="-18" font-family="Helvetica,sans-Serif" font-size="10.00">proto::FieldContainer</text>
<text text-anchor="middle" x="834.5" y="-7" font-family="Helvetica,sans-Serif" font-size="10.00">::for_each_type_impl</text>
</a>
</g>
</g>
<!-- Node6&#45;&gt;Node7 -->
<g id="edge6_Node000006_Node000007" class="edge">
<title>Node6&#45;&gt;Node7</title>
<g id="a_edge6_Node000006_Node000007"><a xlink:title=" ">
<path fill="none" stroke="#63b8ff" d="M739.22,-15C747.54,-15 756.17,-15 764.67,-15"/>
<polygon fill="#63b8ff" stroke="#63b8ff" points="764.94,-18.5 774.94,-15 764.94,-11.5 764.94,-18.5"/>
</a>
</g>
</g>
</g>
</svg>

<g id="navigator" transform="translate(0 0)" fill="#404254">
  <rect fill="#f2f5e9" fill-opacity="0.5" stroke="#606060" stroke-width=".5" x="0" y="0" width="60" height="60"/>
  <use id="zoomplus" xlink:href="#zoomPlus" x="17" y="9" onmousedown="handleZoom(evt,'in')"/>
  <use id="zoomminus" xlink:href="#zoomMin" x="42" y="9" onmousedown="handleZoom(evt,'out')"/>
  <use id="reset" xlink:href="#resetDef" x="30" y="36" onmousedown="handleReset()"/>
   <use id="arrowup" xlink:href="#arrowUp" x="0" y="0" onmousedown="handlePan(0,-1)"/>
  <use id="arrowright" xlink:href="#arrowRight" x="0" y="0" onmousedown="handlePan(1,0)"/>
  <use id="arrowdown" xlink:href="#arrowDown" x="0" y="0" onmousedown="handlePan(0,1)"/>
  <use id="arrowleft" xlink:href="#arrowLeft" x="0" y="0" onmousedown="handlePan(-1,0)"/>
</g>
<svg viewBox="0 0 15 15" width="100%" height="30px" preserveAspectRatio="xMaxYMin meet">
 <g id="arrow_out" transform="scale(0.3 0.3)">
  <a xlink:href="classproto_1_1ProtocolEndpoint_a5807ea4b27b179c2b19f43643fcc2d59_cgraph_org.svg" target="_base">
   <rect id="button" ry="5" rx="5" y="6" x="6" height="38" width="38"
        fill="#f2f5e9" fill-opacity="0.5" stroke="#606060" stroke-width="1.0"/>
   <path id="arrow"
     d="M 11.500037,31.436501 C 11.940474,20.09759 22.043105,11.32322 32.158766,21.979434 L 37.068811,17.246167 C 37.068811,17.246167 37.088388,32 37.088388,32 L 22.160133,31.978069 C 22.160133,31.978069 26.997745,27.140456 26.997745,27.140456 C 18.528582,18.264221 13.291696,25.230495 11.500037,31.436501 z"
     style="fill:#404040;"/>
  </a>
 </g>
</svg>

<style type='text/css'>
<![CDATA[
[data-mouse-over-selected='false'] { opacity: 0.7; }
[data-mouse-over-selected='true']  { opacity: 1.0; }
]]>
</style>
<script type="application/ecmascript"><![CDATA[
document.addEventListener('DOMContentLoaded', (event) => {
  highlightEdges();
  highlightAdjacentNodes();
});
]]></script>
</svg>
