<?xml version="1.0" encoding="UTF-8" standalone="no"?>
<!DOCTYPE svg PUBLIC "-//W3C//DTD SVG 1.1//EN"
 "http://www.w3.org/Graphics/SVG/1.1/DTD/svg11.dtd">
<!-- Generated by graphviz version 2.43.0 (0)
 -->
<!-- Title: McuUidType.hpp Pages: 1 -->
<svg width="507pt" height="137pt"
 viewBox="0.00 0.00 507.00 137.00" xmlns="http://www.w3.org/2000/svg" xmlns:xlink="http://www.w3.org/1999/xlink">
<g id="graph0" class="graph" transform="scale(1 1) rotate(0) translate(4 133)">
<title>McuUidType.hpp</title>
<!-- Node1 -->
<g id="Node000001" class="node">
<title>Node1</title>
<g id="a_Node000001"><a xlink:title=" ">
<polygon fill="#999999" stroke="#666666" points="216.5,-129 119.5,-129 119.5,-110 216.5,-110 216.5,-129"/>
<text text-anchor="middle" x="168" y="-117" font-family="Helvetica,sans-Serif" font-size="10.00">McuUidType.hpp</text>
</a>
</g>
</g>
<!-- Node2 -->
<g id="Node000002" class="node">
<title>Node2</title>
<g id="a_Node000002"><a xlink:title=" ">
<polygon fill="#e0e0e0" stroke="#999999" points="64,-74 0,-74 0,-55 64,-55 64,-74"/>
<text text-anchor="middle" x="32" y="-62" font-family="Helvetica,sans-Serif" font-size="10.00">algorithm</text>
</a>
</g>
</g>
<!-- Node1&#45;&gt;Node2 -->
<g id="edge1_Node000001_Node000002" class="edge">
<title>Node1&#45;&gt;Node2</title>
<g id="a_edge1_Node000001_Node000002"><a xlink:title=" ">
<path fill="none" stroke="#63b8ff" d="M146.15,-109.98C123.88,-101.3 89.1,-87.75 63.78,-77.88"/>
<polygon fill="#63b8ff" stroke="#63b8ff" points="64.84,-74.54 54.25,-74.17 62.29,-81.06 64.84,-74.54"/>
</a>
</g>
</g>
<!-- Node3 -->
<g id="Node000003" class="node">
<title>Node3</title>
<g id="a_Node000003"><a xlink:title=" ">
<polygon fill="#e0e0e0" stroke="#999999" points="53,-19 11,-19 11,0 53,0 53,-19"/>
<text text-anchor="middle" x="32" y="-7" font-family="Helvetica,sans-Serif" font-size="10.00">array</text>
</a>
</g>
</g>
<!-- Node1&#45;&gt;Node3 -->
<g id="edge2_Node000001_Node000003" class="edge">
<title>Node1&#45;&gt;Node3</title>
<g id="a_edge2_Node000001_Node000003"><a xlink:title=" ">
<path fill="none" stroke="#63b8ff" d="M156.87,-109.66C133.64,-91.22 79.78,-48.45 50.98,-25.57"/>
<polygon fill="#63b8ff" stroke="#63b8ff" points="52.91,-22.64 42.9,-19.16 48.56,-28.12 52.91,-22.64"/>
</a>
</g>
</g>
<!-- Node4 -->
<g id="Node000004" class="node">
<title>Node4</title>
<g id="a_Node000004"><a xlink:title=" ">
<polygon fill="#e0e0e0" stroke="#999999" points="124.5,-19 71.5,-19 71.5,0 124.5,0 124.5,-19"/>
<text text-anchor="middle" x="98" y="-7" font-family="Helvetica,sans-Serif" font-size="10.00">cstddef</text>
</a>
</g>
</g>
<!-- Node1&#45;&gt;Node4 -->
<g id="edge3_Node000001_Node000004" class="edge">
<title>Node1&#45;&gt;Node4</title>
<g id="a_edge3_Node000001_Node000004"><a xlink:title=" ">
<path fill="none" stroke="#63b8ff" d="M162.27,-109.66C150.68,-91.77 124.25,-51 109.14,-27.69"/>
<polygon fill="#63b8ff" stroke="#63b8ff" points="111.99,-25.65 103.61,-19.16 106.11,-29.45 111.99,-25.65"/>
</a>
</g>
</g>
<!-- Node5 -->
<g id="Node000005" class="node">
<title>Node5</title>
<g id="a_Node000005"><a xlink:title=" ">
<polygon fill="#e0e0e0" stroke="#999999" points="193,-19 143,-19 143,0 193,0 193,-19"/>
<text text-anchor="middle" x="168" y="-7" font-family="Helvetica,sans-Serif" font-size="10.00">cstdint</text>
</a>
</g>
</g>
<!-- Node1&#45;&gt;Node5 -->
<g id="edge4_Node000001_Node000005" class="edge">
<title>Node1&#45;&gt;Node5</title>
<g id="a_edge4_Node000001_Node000005"><a xlink:title=" ">
<path fill="none" stroke="#63b8ff" d="M168,-109.66C168,-92.17 168,-52.8 168,-29.27"/>
<polygon fill="#63b8ff" stroke="#63b8ff" points="171.5,-29.16 168,-19.16 164.5,-29.16 171.5,-29.16"/>
</a>
</g>
</g>
<!-- Node6 -->
<g id="Node000006" class="node">
<title>Node6</title>
<g id="a_Node000006"><a xlink:title=" ">
<polygon fill="#e0e0e0" stroke="#999999" points="378,-74 328,-74 328,-55 378,-55 378,-74"/>
<text text-anchor="middle" x="353" y="-62" font-family="Helvetica,sans-Serif" font-size="10.00">cstring</text>
</a>
</g>
</g>
<!-- Node1&#45;&gt;Node6 -->
<g id="edge5_Node000001_Node000006" class="edge">
<title>Node1&#45;&gt;Node6</title>
<g id="a_edge5_Node000001_Node000006"><a xlink:title=" ">
<path fill="none" stroke="#63b8ff" d="M197.72,-109.98C230.54,-100.58 283.31,-85.46 318.08,-75.51"/>
<polygon fill="#63b8ff" stroke="#63b8ff" points="319.16,-78.84 327.81,-72.72 317.23,-72.11 319.16,-78.84"/>
</a>
</g>
</g>
<!-- Node7 -->
<g id="Node000007" class="node">
<title>Node7</title>
<g id="a_Node000007"><a xlink:title=" ">
<polygon fill="#e0e0e0" stroke="#999999" points="499,-19 455,-19 455,0 499,0 499,-19"/>
<text text-anchor="middle" x="477" y="-7" font-family="Helvetica,sans-Serif" font-size="10.00">string</text>
</a>
</g>
</g>
<!-- Node1&#45;&gt;Node7 -->
<g id="edge6_Node000001_Node000007" class="edge">
<title>Node1&#45;&gt;Node7</title>
<g id="a_edge6_Node000001_Node000007"><a xlink:title=" ">
<path fill="none" stroke="#63b8ff" d="M191.62,-109.89C214.66,-101.34 250.57,-87.57 281,-74 298.25,-66.31 301.39,-61.81 319,-55 324.98,-52.69 400.65,-31.63 445.06,-19.33"/>
<polygon fill="#63b8ff" stroke="#63b8ff" points="446.12,-22.67 454.82,-16.63 444.25,-15.92 446.12,-22.67"/>
</a>
</g>
</g>
<!-- Node8 -->
<g id="Node000008" class="node">
<title>Node8</title>
<g id="a_Node000008"><a xlink:href="../../d7/dd7/Helpers_8hpp.html" target="_top" xlink:title=" ">
<polygon fill="white" stroke="#666666" points="271.5,-74 196.5,-74 196.5,-55 271.5,-55 271.5,-74"/>
<text text-anchor="middle" x="234" y="-62" font-family="Helvetica,sans-Serif" font-size="10.00">Helpers.hpp</text>
</a>
</g>
</g>
<!-- Node1&#45;&gt;Node8 -->
<g id="edge7_Node000001_Node000008" class="edge">
<title>Node1&#45;&gt;Node8</title>
<g id="a_edge7_Node000001_Node000008"><a xlink:title=" ">
<path fill="none" stroke="#63b8ff" d="M178.6,-109.98C188.46,-102.07 203.35,-90.11 215.22,-80.58"/>
<polygon fill="#63b8ff" stroke="#63b8ff" points="217.6,-83.16 223.2,-74.17 213.21,-77.7 217.6,-83.16"/>
</a>
</g>
</g>
<!-- Node8&#45;&gt;Node3 -->
<g id="edge8_Node000008_Node000003" class="edge">
<title>Node8&#45;&gt;Node3</title>
<g id="a_edge8_Node000008_Node000003"><a xlink:title=" ">
<path fill="none" stroke="#63b8ff" d="M200,-54.95C167.29,-46.67 116.21,-33.59 63.2,-19.28"/>
<polygon fill="#63b8ff" stroke="#63b8ff" points="63.86,-15.83 53.29,-16.6 62.03,-22.59 63.86,-15.83"/>
</a>
</g>
</g>
<!-- Node8&#45;&gt;Node4 -->
<g id="edge9_Node000008_Node000004" class="edge">
<title>Node8&#45;&gt;Node4</title>
<g id="a_edge9_Node000008_Node000004"><a xlink:title=" ">
<path fill="none" stroke="#63b8ff" d="M212.15,-54.98C189.88,-46.3 155.1,-32.75 129.78,-22.88"/>
<polygon fill="#63b8ff" stroke="#63b8ff" points="130.84,-19.54 120.25,-19.17 128.29,-26.06 130.84,-19.54"/>
</a>
</g>
</g>
<!-- Node8&#45;&gt;Node5 -->
<g id="edge10_Node000008_Node000005" class="edge">
<title>Node8&#45;&gt;Node5</title>
<g id="a_edge10_Node000008_Node000005"><a xlink:title=" ">
<path fill="none" stroke="#63b8ff" d="M223.4,-54.98C213.54,-47.07 198.65,-35.11 186.78,-25.58"/>
<polygon fill="#63b8ff" stroke="#63b8ff" points="188.79,-22.7 178.8,-19.17 184.4,-28.16 188.79,-22.7"/>
</a>
</g>
</g>
<!-- Node8&#45;&gt;Node7 -->
<g id="edge13_Node000008_Node000007" class="edge">
<title>Node8&#45;&gt;Node7</title>
<g id="a_edge13_Node000008_Node000007"><a xlink:title=" ">
<path fill="none" stroke="#63b8ff" d="M271.68,-56.31C312.2,-48.42 378.72,-35.01 444.93,-19.15"/>
<polygon fill="#63b8ff" stroke="#63b8ff" points="445.79,-22.54 454.69,-16.79 444.15,-15.74 445.79,-22.54"/>
</a>
</g>
</g>
<!-- Node9 -->
<g id="Node000009" class="node">
<title>Node9</title>
<g id="a_Node000009"><a xlink:title=" ">
<polygon fill="#e0e0e0" stroke="#999999" points="267,-19 211,-19 211,0 267,0 267,-19"/>
<text text-anchor="middle" x="239" y="-7" font-family="Helvetica,sans-Serif" font-size="10.00">iomanip</text>
</a>
</g>
</g>
<!-- Node8&#45;&gt;Node9 -->
<g id="edge11_Node000008_Node000009" class="edge">
<title>Node8&#45;&gt;Node9</title>
<g id="a_edge11_Node000008_Node000009"><a xlink:title=" ">
<path fill="none" stroke="#63b8ff" d="M234.83,-54.75C235.48,-47.8 236.42,-37.85 237.24,-29.13"/>
<polygon fill="#63b8ff" stroke="#63b8ff" points="240.73,-29.37 238.19,-19.09 233.77,-28.72 240.73,-29.37"/>
</a>
</g>
</g>
<!-- Node10 -->
<g id="Node000010" class="node">
<title>Node10</title>
<g id="a_Node000010"><a xlink:title=" ">
<polygon fill="#e0e0e0" stroke="#999999" points="345,-19 285,-19 285,0 345,0 345,-19"/>
<text text-anchor="middle" x="315" y="-7" font-family="Helvetica,sans-Serif" font-size="10.00">iostream</text>
</a>
</g>
</g>
<!-- Node8&#45;&gt;Node10 -->
<g id="edge12_Node000008_Node000010" class="edge">
<title>Node8&#45;&gt;Node10</title>
<g id="a_edge12_Node000008_Node000010"><a xlink:title=" ">
<path fill="none" stroke="#63b8ff" d="M247.01,-54.98C259.46,-46.84 278.46,-34.41 293.21,-24.76"/>
<polygon fill="#63b8ff" stroke="#63b8ff" points="295.3,-27.57 301.75,-19.17 291.46,-21.72 295.3,-27.57"/>
</a>
</g>
</g>
<!-- Node11 -->
<g id="Node000011" class="node">
<title>Node11</title>
<g id="a_Node000011"><a xlink:title=" ">
<polygon fill="#e0e0e0" stroke="#999999" points="436.5,-19 363.5,-19 363.5,0 436.5,0 436.5,-19"/>
<text text-anchor="middle" x="400" y="-7" font-family="Helvetica,sans-Serif" font-size="10.00">string_view</text>
</a>
</g>
</g>
<!-- Node8&#45;&gt;Node11 -->
<g id="edge14_Node000008_Node000011" class="edge">
<title>Node8&#45;&gt;Node11</title>
<g id="a_edge14_Node000008_Node000011"><a xlink:title=" ">
<path fill="none" stroke="#63b8ff" d="M260.67,-54.98C288.54,-46.09 332.45,-32.07 363.52,-22.15"/>
<polygon fill="#63b8ff" stroke="#63b8ff" points="364.66,-25.46 373.12,-19.08 362.53,-18.79 364.66,-25.46"/>
</a>
</g>
</g>
</g>
</svg>
