<?xml version="1.0" encoding="UTF-8" standalone="no"?>
<!DOCTYPE svg PUBLIC "-//W3C//DTD SVG 1.1//EN"
 "http://www.w3.org/Graphics/SVG/1.1/DTD/svg11.dtd">
<!-- Generated by graphviz version 14.0.1 (20251006.0113)
 -->
<!-- Title: proto::lacte::McuUid::McuUid Pages: 1 -->
<svg width="253pt" height="186pt"
 viewBox="0.00 0.00 253.00 186.00" xmlns="http://www.w3.org/2000/svg" xmlns:xlink="http://www.w3.org/1999/xlink">
<g id="graph0" class="graph" transform="scale(1 1) rotate(0) translate(4 181.5)">
<title>proto::lacte::McuUid::McuUid</title>
<!-- Node1 -->
<g id="Node000001" class="node">
<title>Node1</title>
<g id="a_Node000001"><a xlink:title=" ">
<polygon fill="#999999" stroke="#666666" points="245,-103.5 140.5,-103.5 140.5,-73 245,-73 245,-103.5"/>
<text xml:space="preserve" text-anchor="start" x="148.5" y="-90" font-family="Helvetica,sans-Serif" font-size="10.00">proto::lacte::McuUid</text>
<text xml:space="preserve" text-anchor="middle" x="192.75" y="-78.75" font-family="Helvetica,sans-Serif" font-size="10.00">::McuUid</text>
</a>
</g>
</g>
<!-- Node2 -->
<g id="Node000002" class="node">
<title>Node2</title>
<g id="a_Node000002"><a xlink:href="../../da/dbe/structproto_1_1lacte_1_1_mcu_uid.html#a72e2842f5c09eac8255e59a0044fd104" target="_top" xlink:title=" ">
<polygon fill="white" stroke="#666666" points="104.5,-177.5 0,-177.5 0,-147 104.5,-147 104.5,-177.5"/>
<text xml:space="preserve" text-anchor="start" x="8" y="-164" font-family="Helvetica,sans-Serif" font-size="10.00">proto::lacte::McuUid</text>
<text xml:space="preserve" text-anchor="middle" x="52.25" y="-152.75" font-family="Helvetica,sans-Serif" font-size="10.00">::McuUid</text>
</a>
</g>
</g>
<!-- Node1&#45;&gt;Node2 -->
<g id="edge1_Node000001_Node000002" class="edge">
<title>Node1&#45;&gt;Node2</title>
<g id="a_edge1_Node000001_Node000002"><a xlink:title=" ">
<path fill="none" stroke="#63b8ff" d="M155.12,-109.44C139.61,-118.25 121.29,-128.45 104.5,-137.25 98.63,-140.33 92.32,-143.51 86.2,-146.53"/>
<polygon fill="#63b8ff" stroke="#63b8ff" points="156.59,-112.63 163.54,-104.64 153.12,-106.56 156.59,-112.63"/>
</a>
</g>
</g>
<!-- Node3 -->
<g id="Node000003" class="node">
<title>Node3</title>
<g id="a_Node000003"><a xlink:href="../../da/dbe/structproto_1_1lacte_1_1_mcu_uid.html#a008ad8c5bf212faf62f568de76c479f4" target="_top" xlink:title=" ">
<polygon fill="white" stroke="#666666" points="104.5,-128.5 0,-128.5 0,-98 104.5,-98 104.5,-128.5"/>
<text xml:space="preserve" text-anchor="start" x="8" y="-115" font-family="Helvetica,sans-Serif" font-size="10.00">proto::lacte::McuUid</text>
<text xml:space="preserve" text-anchor="middle" x="52.25" y="-103.75" font-family="Helvetica,sans-Serif" font-size="10.00">::operator!=</text>
</a>
</g>
</g>
<!-- Node1&#45;&gt;Node3 -->
<g id="edge2_Node000001_Node000003" class="edge">
<title>Node1&#45;&gt;Node3</title>
<g id="a_edge2_Node000001_Node000003"><a xlink:title=" ">
<path fill="none" stroke="#63b8ff" d="M128.92,-99.59C120.87,-101.04 112.71,-102.52 104.87,-103.93"/>
<polygon fill="#63b8ff" stroke="#63b8ff" points="129.47,-103.05 138.69,-97.83 128.23,-96.16 129.47,-103.05"/>
</a>
</g>
</g>
<!-- Node4 -->
<g id="Node000004" class="node">
<title>Node4</title>
<g id="a_Node000004"><a xlink:href="../../da/dbe/structproto_1_1lacte_1_1_mcu_uid.html#a858033263e91bc43739b686481b10cc0" target="_top" xlink:title=" ">
<polygon fill="white" stroke="#666666" points="104.5,-79.5 0,-79.5 0,-49 104.5,-49 104.5,-79.5"/>
<text xml:space="preserve" text-anchor="start" x="8" y="-66" font-family="Helvetica,sans-Serif" font-size="10.00">proto::lacte::McuUid</text>
<text xml:space="preserve" text-anchor="middle" x="52.25" y="-54.75" font-family="Helvetica,sans-Serif" font-size="10.00">::operator&lt;&lt;</text>
</a>
</g>
</g>
<!-- Node1&#45;&gt;Node4 -->
<g id="edge3_Node000001_Node000004" class="edge">
<title>Node1&#45;&gt;Node4</title>
<g id="a_edge3_Node000001_Node000004"><a xlink:title=" ">
<path fill="none" stroke="#63b8ff" d="M128.92,-77.36C120.87,-75.97 112.71,-74.55 104.87,-73.19"/>
<polygon fill="#63b8ff" stroke="#63b8ff" points="128.24,-80.8 138.69,-79.05 129.43,-73.9 128.24,-80.8"/>
</a>
</g>
</g>
<!-- Node5 -->
<g id="Node000005" class="node">
<title>Node5</title>
<g id="a_Node000005"><a xlink:href="../../da/dbe/structproto_1_1lacte_1_1_mcu_uid.html#ac0342485ad900912b2ecc7975d8b3622" target="_top" xlink:title=" ">
<polygon fill="white" stroke="#666666" points="104.5,-30.5 0,-30.5 0,0 104.5,0 104.5,-30.5"/>
<text xml:space="preserve" text-anchor="start" x="8" y="-17" font-family="Helvetica,sans-Serif" font-size="10.00">proto::lacte::McuUid</text>
<text xml:space="preserve" text-anchor="middle" x="52.25" y="-5.75" font-family="Helvetica,sans-Serif" font-size="10.00">::operator==</text>
</a>
</g>
</g>
<!-- Node1&#45;&gt;Node5 -->
<g id="edge4_Node000001_Node000005" class="edge">
<title>Node1&#45;&gt;Node5</title>
<g id="a_edge4_Node000001_Node000005"><a xlink:title=" ">
<path fill="none" stroke="#63b8ff" d="M154.37,-67.16C139.01,-58.63 120.99,-48.8 104.5,-40.25 98.52,-37.15 92.11,-33.93 85.9,-30.88"/>
<polygon fill="#63b8ff" stroke="#63b8ff" points="152.28,-70 162.72,-71.81 155.69,-63.89 152.28,-70"/>
</a>
</g>
</g>
</g>
</svg>
