<?xml version="1.0" encoding="UTF-8" standalone="no"?>
<!DOCTYPE svg PUBLIC "-//W3C//DTD SVG 1.1//EN"
 "http://www.w3.org/Graphics/SVG/1.1/DTD/svg11.dtd">
<!-- Generated by graphviz version 2.43.0 (0)
 -->
<!-- Title: CustomSpan::empty Pages: 1 -->
<svg width="493pt" height="170pt"
 viewBox="0.00 0.00 493.00 170.00" xmlns="http://www.w3.org/2000/svg" xmlns:xlink="http://www.w3.org/1999/xlink">

<svg id="main" version="1.1" xmlns="http://www.w3.org/2000/svg" xmlns:xlink="http://www.w3.org/1999/xlink" xml:space="preserve" onload="init(evt)">
<style type="text/css"><![CDATA[
.node, .edge {opacity: 0.7;}
.node.selected, .edge.selected {opacity: 1;}
.edge:hover path { stroke: red; }
.edge:hover polygon { stroke: red; fill: red; }
]]></style>
<script type="application/ecmascript" xlink:href="../../svg.min.js"/>
<svg id="graph" class="graph">
<g id="graph0" class="graph" transform="scale(1 1) rotate(0) translate(4 166)">
<title>CustomSpan::empty</title>
<!-- Node1 -->
<g id="Node000001" class="node">
<title>Node1</title>
<g id="a_Node000001"><a xlink:title=" ">
<polygon fill="#999999" stroke="#666666" points="485,-88.5 369,-88.5 369,-69.5 485,-69.5 485,-88.5"/>
<text text-anchor="middle" x="427" y="-76.5" font-family="Helvetica,sans-Serif" font-size="10.00">CustomSpan::empty</text>
</a>
</g>
</g>
<!-- Node2 -->
<g id="Node000002" class="node">
<title>Node2</title>
<g id="a_Node000002"><a xlink:href="../../d0/d29/classproto_1_1RxContainer.html#a62f66f4bc347105478aba5bffd14796f" target="_top" xlink:title="Feeds a chunk of bytes to the parser and advances internal state.">
<polygon fill="white" stroke="#666666" points="319,-116 211,-116 211,-86 319,-86 319,-116"/>
<text text-anchor="start" x="219" y="-104" font-family="Helvetica,sans-Serif" font-size="10.00">proto::RxContainer</text>
<text text-anchor="middle" x="265" y="-93" font-family="Helvetica,sans-Serif" font-size="10.00">::fill</text>
</a>
</g>
</g>
<!-- Node1&#45;&gt;Node2 -->
<g id="edge1_Node000001_Node000002" class="edge">
<title>Node1&#45;&gt;Node2</title>
<g id="a_edge1_Node000001_Node000002"><a xlink:title=" ">
<path fill="none" stroke="#63b8ff" d="M358.71,-88.25C345.51,-90.07 331.84,-91.95 319.18,-93.69"/>
<polygon fill="#63b8ff" stroke="#63b8ff" points="359.26,-91.71 368.69,-86.88 358.3,-84.78 359.26,-91.71"/>
</a>
</g>
</g>
<!-- Node3 -->
<g id="Node000003" class="node">
<title>Node3</title>
<g id="a_Node000003"><a xlink:href="../../d4/d66/classproto_1_1exoAtlant_1_1ExoAtlantProtocol__.html#ab292d3fc1828c447d3e9d654aff5fcda" target="_top" xlink:title="Разбор входящего блока данных">
<polygon fill="white" stroke="#666666" points="154,-162 7,-162 7,-132 154,-132 154,-162"/>
<text text-anchor="start" x="15" y="-150" font-family="Helvetica,sans-Serif" font-size="10.00">proto::exoAtlant::ExoAtlant</text>
<text text-anchor="middle" x="80.5" y="-139" font-family="Helvetica,sans-Serif" font-size="10.00">Protocol_::parse</text>
</a>
</g>
</g>
<!-- Node1&#45;&gt;Node3 -->
<g id="edge6_Node000001_Node000003" class="edge">
<title>Node1&#45;&gt;Node3</title>
<g id="a_edge6_Node000001_Node000003"><a xlink:title=" ">
<path fill="none" stroke="#63b8ff" d="M402.16,-93.9C383.94,-104.5 357.81,-118.04 333,-125 274.23,-141.47 204.98,-146.53 154.05,-147.73"/>
<polygon fill="#63b8ff" stroke="#63b8ff" points="404.12,-96.8 410.92,-88.67 400.54,-90.79 404.12,-96.8"/>
</a>
</g>
</g>
<!-- Node6 -->
<g id="Node000006" class="node">
<title>Node6</title>
<g id="a_Node000006"><a xlink:href="../../d3/d81/namespaceproto_1_1lacte.html#a8e059adc76ca059dc745bb461ab1a734" target="_top" xlink:title=" ">
<polygon fill="white" stroke="#666666" points="333,-67.5 197,-67.5 197,-48.5 333,-48.5 333,-67.5"/>
<text text-anchor="middle" x="265" y="-55.5" font-family="Helvetica,sans-Serif" font-size="10.00">proto::lacte::operator&lt;&lt;</text>
</a>
</g>
</g>
<!-- Node1&#45;&gt;Node6 -->
<g id="edge5_Node000001_Node000006" class="edge">
<title>Node1&#45;&gt;Node6</title>
<g id="a_edge5_Node000001_Node000006"><a xlink:title=" ">
<path fill="none" stroke="#63b8ff" d="M358.59,-70.15C350.21,-69.05 341.65,-67.93 333.27,-66.83"/>
<polygon fill="#63b8ff" stroke="#63b8ff" points="358.32,-73.65 368.69,-71.48 359.23,-66.71 358.32,-73.65"/>
</a>
</g>
</g>
<!-- Node7 -->
<g id="Node000007" class="node">
<title>Node7</title>
<g id="a_Node000007"><a xlink:href="../../d6/dc5/classproto_1_1ProtocolEndpoint.html#af1e4aec725ab34fe336f3dc40bbae6aa" target="_top" xlink:title="Construct endpoint and install a permanent RX callback that snapshots the last frame&#39;s type code.">
<polygon fill="white" stroke="#666666" points="330.5,-30 199.5,-30 199.5,0 330.5,0 330.5,-30"/>
<text text-anchor="start" x="207.5" y="-18" font-family="Helvetica,sans-Serif" font-size="10.00">proto::ProtocolEndpoint</text>
<text text-anchor="middle" x="265" y="-7" font-family="Helvetica,sans-Serif" font-size="10.00">::ProtocolEndpoint</text>
</a>
</g>
</g>
<!-- Node1&#45;&gt;Node7 -->
<g id="edge7_Node000001_Node000007" class="edge">
<title>Node1&#45;&gt;Node7</title>
<g id="a_edge7_Node000001_Node000007"><a xlink:title=" ">
<path fill="none" stroke="#63b8ff" d="M395.31,-65.23C377.27,-57.28 353.97,-47.26 333,-39 325.41,-36.01 317.28,-32.97 309.4,-30.1"/>
<polygon fill="#63b8ff" stroke="#63b8ff" points="394.17,-68.55 404.73,-69.4 397.01,-62.15 394.17,-68.55"/>
</a>
</g>
</g>
<!-- Node2&#45;&gt;Node3 -->
<g id="edge2_Node000002_Node000003" class="edge">
<title>Node2&#45;&gt;Node3</title>
<g id="a_edge2_Node000002_Node000003"><a xlink:title=" ">
<path fill="none" stroke="#63b8ff" d="M200.81,-116.93C181.5,-121.79 160.33,-127.13 141.25,-131.94"/>
<polygon fill="#63b8ff" stroke="#63b8ff" points="201.88,-120.27 210.72,-114.43 200.17,-113.48 201.88,-120.27"/>
</a>
</g>
</g>
<!-- Node4 -->
<g id="Node000004" class="node">
<title>Node4</title>
<g id="a_Node000004"><a xlink:href="../../d3/d19/classproto_1_1ProtocolNoSysEndpoint.html#ab30ab8459d9984e0548be53972e4f498" target="_top" xlink:title=" ">
<polygon fill="white" stroke="#666666" points="161,-114 0,-114 0,-84 161,-84 161,-114"/>
<text text-anchor="start" x="8" y="-102" font-family="Helvetica,sans-Serif" font-size="10.00">proto::ProtocolNoSysEndpoint</text>
<text text-anchor="middle" x="80.5" y="-91" font-family="Helvetica,sans-Serif" font-size="10.00">::receive</text>
</a>
</g>
</g>
<!-- Node2&#45;&gt;Node4 -->
<g id="edge3_Node000002_Node000004" class="edge">
<title>Node2&#45;&gt;Node4</title>
<g id="a_edge3_Node000002_Node000004"><a xlink:title=" ">
<path fill="none" stroke="#63b8ff" d="M200.72,-100.31C188.01,-100.17 174.49,-100.02 161.3,-99.87"/>
<polygon fill="#63b8ff" stroke="#63b8ff" points="200.69,-103.81 210.72,-100.42 200.76,-96.81 200.69,-103.81"/>
</a>
</g>
</g>
<!-- Node5 -->
<g id="Node000005" class="node">
<title>Node5</title>
<g id="a_Node000005"><a xlink:href="../../d6/dc5/classproto_1_1ProtocolEndpoint.html#adf613bd3ee363704002a992199be43f1" target="_top" xlink:title="Wire the endpoint to external RX and TX interfaces.">
<polygon fill="white" stroke="#666666" points="146,-66 15,-66 15,-36 146,-36 146,-66"/>
<text text-anchor="start" x="23" y="-54" font-family="Helvetica,sans-Serif" font-size="10.00">proto::ProtocolEndpoint</text>
<text text-anchor="middle" x="80.5" y="-43" font-family="Helvetica,sans-Serif" font-size="10.00">::set_interfaces</text>
</a>
</g>
</g>
<!-- Node2&#45;&gt;Node5 -->
<g id="edge4_Node000002_Node000005" class="edge">
<title>Node2&#45;&gt;Node5</title>
<g id="a_edge4_Node000002_Node000005"><a xlink:title=" ">
<path fill="none" stroke="#63b8ff" d="M200.94,-83.72C179.95,-77.97 156.75,-71.62 136.43,-66.05"/>
<polygon fill="#63b8ff" stroke="#63b8ff" points="200.15,-87.14 210.72,-86.4 202,-80.39 200.15,-87.14"/>
</a>
</g>
</g>
</g>
</svg>
</svg>

<style type='text/css'>
<![CDATA[
[data-mouse-over-selected='false'] { opacity: 0.7; }
[data-mouse-over-selected='true']  { opacity: 1.0; }
]]>
</style>
<script type="application/ecmascript"><![CDATA[
document.addEventListener('DOMContentLoaded', (event) => {
  highlightEdges();
  highlightAdjacentNodes();
});
]]></script>
</svg>
