<?xml version="1.0" encoding="UTF-8" standalone="no"?>
<!DOCTYPE svg PUBLIC "-//W3C//DTD SVG 1.1//EN"
 "http://www.w3.org/Graphics/SVG/1.1/DTD/svg11.dtd">
<!-- Generated by graphviz version 2.43.0 (0)
 -->
<!-- Title: CustomSpan::begin Pages: 1 -->
<svg width="480pt" height="230pt"
 viewBox="0.00 0.00 480.00 230.00" xmlns="http://www.w3.org/2000/svg" xmlns:xlink="http://www.w3.org/1999/xlink">
<g id="graph0" class="graph" transform="scale(1 1) rotate(0) translate(4 226)">
<title>CustomSpan::begin</title>
<!-- Node1 -->
<g id="Node000001" class="node">
<title>Node1</title>
<g id="a_Node000001"><a xlink:title=" ">
<polygon fill="#999999" stroke="#666666" points="472,-96.5 361,-96.5 361,-77.5 472,-77.5 472,-96.5"/>
<text text-anchor="middle" x="416.5" y="-84.5" font-family="Helvetica,sans-Serif" font-size="10.00">CustomSpan::begin</text>
</a>
</g>
</g>
<!-- Node2 -->
<g id="Node000002" class="node">
<title>Node2</title>
<g id="a_Node000002"><a xlink:href="../../d0/d29/classproto_1_1RxContainer.html#a62f66f4bc347105478aba5bffd14796f" target="_top" xlink:title="Feeds a chunk of bytes to the parser and advances internal state.">
<polygon fill="white" stroke="#666666" points="315,-174 207,-174 207,-144 315,-144 315,-174"/>
<text text-anchor="start" x="215" y="-162" font-family="Helvetica,sans-Serif" font-size="10.00">proto::RxContainer</text>
<text text-anchor="middle" x="261" y="-151" font-family="Helvetica,sans-Serif" font-size="10.00">::fill</text>
</a>
</g>
</g>
<!-- Node1&#45;&gt;Node2 -->
<g id="edge1_Node000001_Node000002" class="edge">
<title>Node1&#45;&gt;Node2</title>
<g id="a_edge1_Node000001_Node000002"><a xlink:title=" ">
<path fill="none" stroke="#63b8ff" d="M389.61,-101.83C371.74,-111.8 347.28,-124.9 325,-135 318.18,-138.09 310.83,-141.14 303.64,-143.97"/>
<polygon fill="#63b8ff" stroke="#63b8ff" points="391.8,-104.61 398.8,-96.66 388.37,-98.51 391.8,-104.61"/>
</a>
</g>
</g>
<!-- Node6 -->
<g id="Node000006" class="node">
<title>Node6</title>
<g id="a_Node000006"><a xlink:href="../../da/d22/structproto_1_1lacte_1_1InfoPacketType.html#a48de98880b0ac61f172c6212e61e0915" target="_top" xlink:title=" ">
<polygon fill="white" stroke="#666666" points="325,-126 197,-126 197,-96 325,-96 325,-126"/>
<text text-anchor="start" x="205" y="-114" font-family="Helvetica,sans-Serif" font-size="10.00">proto::lacte::InfoPacket</text>
<text text-anchor="middle" x="261" y="-103" font-family="Helvetica,sans-Serif" font-size="10.00">Type::InfoPacketType</text>
</a>
</g>
</g>
<!-- Node1&#45;&gt;Node6 -->
<g id="edge5_Node000001_Node000006" class="edge">
<title>Node1&#45;&gt;Node6</title>
<g id="a_edge5_Node000001_Node000006"><a xlink:title=" ">
<path fill="none" stroke="#63b8ff" d="M350.98,-97.09C342.39,-98.43 333.59,-99.81 325.02,-101.15"/>
<polygon fill="#63b8ff" stroke="#63b8ff" points="351.61,-100.53 360.95,-95.53 350.53,-93.62 351.61,-100.53"/>
</a>
</g>
</g>
<!-- Node7 -->
<g id="Node000007" class="node">
<title>Node7</title>
<g id="a_Node000007"><a xlink:href="../../de/d3d/structproto_1_1lacte_1_1McuUid.html#aef74a9b6ed04daf8b88229f901643d0d" target="_top" xlink:title=" ">
<polygon fill="white" stroke="#666666" points="318.5,-78 203.5,-78 203.5,-48 318.5,-48 318.5,-78"/>
<text text-anchor="start" x="211.5" y="-66" font-family="Helvetica,sans-Serif" font-size="10.00">proto::lacte::McuUid</text>
<text text-anchor="middle" x="261" y="-55" font-family="Helvetica,sans-Serif" font-size="10.00">::McuUid</text>
</a>
</g>
</g>
<!-- Node1&#45;&gt;Node7 -->
<g id="edge6_Node000001_Node000007" class="edge">
<title>Node1&#45;&gt;Node7</title>
<g id="a_edge6_Node000001_Node000007"><a xlink:title=" ">
<path fill="none" stroke="#63b8ff" d="M350.84,-76.89C340.17,-75.22 329.17,-73.5 318.71,-71.87"/>
<polygon fill="#63b8ff" stroke="#63b8ff" points="350.53,-80.38 360.95,-78.47 351.61,-73.47 350.53,-80.38"/>
</a>
</g>
</g>
<!-- Node8 -->
<g id="Node000008" class="node">
<title>Node8</title>
<g id="a_Node000008"><a xlink:href="../../d3/d81/namespaceproto_1_1lacte.html#a1ea4387b238442615d817d3f07b5160e" target="_top" xlink:title=" ">
<polygon fill="white" stroke="#666666" points="313.5,-30 208.5,-30 208.5,0 313.5,0 313.5,-30"/>
<text text-anchor="start" x="216.5" y="-18" font-family="Helvetica,sans-Serif" font-size="10.00">proto::lacte::parse</text>
<text text-anchor="middle" x="261" y="-7" font-family="Helvetica,sans-Serif" font-size="10.00">_hex_bytes_fill</text>
</a>
</g>
</g>
<!-- Node1&#45;&gt;Node8 -->
<g id="edge7_Node000001_Node000008" class="edge">
<title>Node1&#45;&gt;Node8</title>
<g id="a_edge7_Node000001_Node000008"><a xlink:title=" ">
<path fill="none" stroke="#63b8ff" d="M389.61,-72.17C371.74,-62.2 347.28,-49.1 325,-39 318.18,-35.91 310.83,-32.86 303.64,-30.03"/>
<polygon fill="#63b8ff" stroke="#63b8ff" points="388.37,-75.49 398.8,-77.34 391.8,-69.39 388.37,-75.49"/>
</a>
</g>
</g>
<!-- Node3 -->
<g id="Node000003" class="node">
<title>Node3</title>
<g id="a_Node000003"><a xlink:href="../../d4/d66/classproto_1_1exoAtlant_1_1ExoAtlantProtocol__.html#ab292d3fc1828c447d3e9d654aff5fcda" target="_top" xlink:title="Разбор входящего блока данных">
<polygon fill="white" stroke="#666666" points="154,-222 7,-222 7,-192 154,-192 154,-222"/>
<text text-anchor="start" x="15" y="-210" font-family="Helvetica,sans-Serif" font-size="10.00">proto::exoAtlant::ExoAtlant</text>
<text text-anchor="middle" x="80.5" y="-199" font-family="Helvetica,sans-Serif" font-size="10.00">Protocol_::parse</text>
</a>
</g>
</g>
<!-- Node2&#45;&gt;Node3 -->
<g id="edge2_Node000002_Node000003" class="edge">
<title>Node2&#45;&gt;Node3</title>
<g id="a_edge2_Node000002_Node000003"><a xlink:title=" ">
<path fill="none" stroke="#63b8ff" d="M197.24,-175.88C177.77,-181.11 156.45,-186.85 137.47,-191.95"/>
<polygon fill="#63b8ff" stroke="#63b8ff" points="198.18,-179.25 206.93,-173.27 196.36,-172.49 198.18,-179.25"/>
</a>
</g>
</g>
<!-- Node4 -->
<g id="Node000004" class="node">
<title>Node4</title>
<g id="a_Node000004"><a xlink:href="../../d3/d19/classproto_1_1ProtocolNoSysEndpoint.html#ab30ab8459d9984e0548be53972e4f498" target="_top" xlink:title=" ">
<polygon fill="white" stroke="#666666" points="161,-174 0,-174 0,-144 161,-144 161,-174"/>
<text text-anchor="start" x="8" y="-162" font-family="Helvetica,sans-Serif" font-size="10.00">proto::ProtocolNoSysEndpoint</text>
<text text-anchor="middle" x="80.5" y="-151" font-family="Helvetica,sans-Serif" font-size="10.00">::receive</text>
</a>
</g>
</g>
<!-- Node2&#45;&gt;Node4 -->
<g id="edge3_Node000002_Node000004" class="edge">
<title>Node2&#45;&gt;Node4</title>
<g id="a_edge3_Node000002_Node000004"><a xlink:title=" ">
<path fill="none" stroke="#63b8ff" d="M196.59,-159C185.11,-159 173.01,-159 161.14,-159"/>
<polygon fill="#63b8ff" stroke="#63b8ff" points="196.93,-162.5 206.93,-159 196.93,-155.5 196.93,-162.5"/>
</a>
</g>
</g>
<!-- Node5 -->
<g id="Node000005" class="node">
<title>Node5</title>
<g id="a_Node000005"><a xlink:href="../../d6/dc5/classproto_1_1ProtocolEndpoint.html#adf613bd3ee363704002a992199be43f1" target="_top" xlink:title="Wire the endpoint to external RX and TX interfaces.">
<polygon fill="white" stroke="#666666" points="146,-126 15,-126 15,-96 146,-96 146,-126"/>
<text text-anchor="start" x="23" y="-114" font-family="Helvetica,sans-Serif" font-size="10.00">proto::ProtocolEndpoint</text>
<text text-anchor="middle" x="80.5" y="-103" font-family="Helvetica,sans-Serif" font-size="10.00">::set_interfaces</text>
</a>
</g>
</g>
<!-- Node2&#45;&gt;Node5 -->
<g id="edge4_Node000002_Node000005" class="edge">
<title>Node2&#45;&gt;Node5</title>
<g id="a_edge4_Node000002_Node000005"><a xlink:title=" ">
<path fill="none" stroke="#63b8ff" d="M197.24,-142.12C177.77,-136.89 156.45,-131.15 137.47,-126.05"/>
<polygon fill="#63b8ff" stroke="#63b8ff" points="196.36,-145.51 206.93,-144.73 198.18,-138.75 196.36,-145.51"/>
</a>
</g>
</g>
<!-- Node9 -->
<g id="Node000009" class="node">
<title>Node9</title>
<g id="a_Node000009"><a xlink:href="../../de/d3d/structproto_1_1lacte_1_1McuUid.html#a5cfbdeb412b3611c734e66dfa22dd3be" target="_top" xlink:title=" ">
<polygon fill="white" stroke="#666666" points="138,-30 23,-30 23,0 138,0 138,-30"/>
<text text-anchor="start" x="31" y="-18" font-family="Helvetica,sans-Serif" font-size="10.00">proto::lacte::McuUid</text>
<text text-anchor="middle" x="80.5" y="-7" font-family="Helvetica,sans-Serif" font-size="10.00">::McuUid</text>
</a>
</g>
</g>
<!-- Node8&#45;&gt;Node9 -->
<g id="edge8_Node000008_Node000009" class="edge">
<title>Node8&#45;&gt;Node9</title>
<g id="a_edge8_Node000008_Node000009"><a xlink:title=" ">
<path fill="none" stroke="#63b8ff" d="M198.33,-15C178.75,-15 157.21,-15 138.01,-15"/>
<polygon fill="#63b8ff" stroke="#63b8ff" points="198.37,-18.5 208.37,-15 198.37,-11.5 198.37,-18.5"/>
</a>
</g>
</g>
</g>
</svg>
