<?xml version="1.0" encoding="UTF-8" standalone="no"?>
<!DOCTYPE svg PUBLIC "-//W3C//DTD SVG 1.1//EN"
 "http://www.w3.org/Graphics/SVG/1.1/DTD/svg11.dtd">
<!-- Generated by graphviz version 14.0.1 (20251006.0113)
 -->
<!-- Title: RfidNumberType.hpp Pages: 1 -->
<svg width="179pt" height="248pt"
 viewBox="0.00 0.00 179.00 248.00" xmlns="http://www.w3.org/2000/svg" xmlns:xlink="http://www.w3.org/1999/xlink">

<svg id="main" version="1.1" xmlns="http://www.w3.org/2000/svg" xmlns:xlink="http://www.w3.org/1999/xlink" xml:space="preserve">

<style type="text/css"><![CDATA[
.node, .edge {opacity: 0.7;}
.node.selected, .edge.selected {opacity: 1;}
.edge:hover path { stroke: red; }
.edge:hover polygon { stroke: red; fill: red; }
]]></style>
<script type="application/ecmascript" xlink:href="../../svg.min.js"/>
<svg id="graph" class="graph">
<g id="graph0" class="graph" transform="scale(1 1) rotate(0) translate(4 244.25)">
<title>RfidNumberType.hpp</title>
<!-- Node1 -->
<g id="Node000001" class="node">
<title>Node1</title>
<g id="a_Node000001"><a xlink:title=" ">
<polygon fill="#999999" stroke="#666666" points="170.5,-240.25 62.25,-240.25 62.25,-221 170.5,-221 170.5,-240.25"/>
<text xml:space="preserve" text-anchor="middle" x="116.38" y="-226.75" font-family="Helvetica,sans-Serif" font-size="10.00">RfidNumberType.hpp</text>
</a>
</g>
</g>
<!-- Node2 -->
<g id="Node000002" class="node">
<title>Node2</title>
<g id="a_Node000002"><a xlink:href="../../dc/de2/_info_packet_type_8hpp.html" target="_top" xlink:title=" ">
<polygon fill="white" stroke="#666666" points="127.88,-185 24.88,-185 24.88,-165.75 127.88,-165.75 127.88,-185"/>
<text xml:space="preserve" text-anchor="middle" x="76.38" y="-171.5" font-family="Helvetica,sans-Serif" font-size="10.00">InfoPacketType.hpp</text>
</a>
</g>
</g>
<!-- Node1&#45;&gt;Node2 -->
<g id="edge1_Node000001_Node000002" class="edge">
<title>Node1&#45;&gt;Node2</title>
<g id="a_edge1_Node000001_Node000002"><a xlink:title=" ">
<path fill="none" stroke="#63b8ff" d="M102.9,-211.69C96.25,-202.84 88.52,-192.54 83.12,-185.36"/>
<polygon fill="#63b8ff" stroke="#63b8ff" points="100.06,-213.73 108.86,-219.62 105.65,-209.52 100.06,-213.73"/>
</a>
</g>
</g>
<!-- Node5 -->
<g id="Node000005" class="node">
<title>Node5</title>
<g id="a_Node000005"><a xlink:href="../../db/dc5/_virtual_board_8hpp.html" target="_top" xlink:title=" ">
<polygon fill="white" stroke="#666666" points="160.38,-19.25 72.38,-19.25 72.38,0 160.38,0 160.38,-19.25"/>
<text xml:space="preserve" text-anchor="middle" x="116.38" y="-5.75" font-family="Helvetica,sans-Serif" font-size="10.00">VirtualBoard.hpp</text>
</a>
</g>
</g>
<!-- Node1&#45;&gt;Node5 -->
<g id="edge5_Node000001_Node000005" class="edge">
<title>Node1&#45;&gt;Node5</title>
<g id="a_edge5_Node000001_Node000005"><a xlink:title=" ">
<path fill="none" stroke="#63b8ff" d="M126.85,-210.6C130.7,-202.86 134.76,-193.71 137.38,-185 146.96,-153.11 148.35,-143.67 145.38,-110.5 143.14,-85.65 142.53,-79.16 135.38,-55.25 131.56,-42.5 125.22,-28.49 120.92,-19.63"/>
<polygon fill="#63b8ff" stroke="#63b8ff" points="123.8,-208.89 122.24,-219.37 129.99,-212.14 123.8,-208.89"/>
</a>
</g>
</g>
<!-- Node3 -->
<g id="Node000003" class="node">
<title>Node3</title>
<g id="a_Node000003"><a xlink:href="../../d8/df0/_lacte_protocol_prototype_8hpp.html" target="_top" xlink:title=" ">
<polygon fill="white" stroke="#666666" points="136.75,-129.75 0,-129.75 0,-110.5 136.75,-110.5 136.75,-129.75"/>
<text xml:space="preserve" text-anchor="middle" x="68.38" y="-116.25" font-family="Helvetica,sans-Serif" font-size="10.00">LacteProtocolPrototype.hpp</text>
</a>
</g>
</g>
<!-- Node2&#45;&gt;Node3 -->
<g id="edge2_Node000002_Node000003" class="edge">
<title>Node2&#45;&gt;Node3</title>
<g id="a_edge2_Node000002_Node000003"><a xlink:title=" ">
<path fill="none" stroke="#63b8ff" d="M73.38,-154.42C72.12,-146.05 70.72,-136.75 69.72,-130.11"/>
<polygon fill="#63b8ff" stroke="#63b8ff" points="69.88,-154.72 74.83,-164.09 76.8,-153.68 69.88,-154.72"/>
</a>
</g>
</g>
<!-- Node4 -->
<g id="Node000004" class="node">
<title>Node4</title>
<g id="a_Node000004"><a xlink:href="../../dc/d95/_lacte_protocol_8hpp.html" target="_top" xlink:title=" ">
<polygon fill="white" stroke="#666666" points="126.75,-74.5 32,-74.5 32,-55.25 126.75,-55.25 126.75,-74.5"/>
<text xml:space="preserve" text-anchor="middle" x="79.38" y="-61" font-family="Helvetica,sans-Serif" font-size="10.00">LacteProtocol.hpp</text>
</a>
</g>
</g>
<!-- Node3&#45;&gt;Node4 -->
<g id="edge3_Node000003_Node000004" class="edge">
<title>Node3&#45;&gt;Node4</title>
<g id="a_edge3_Node000003_Node000004"><a xlink:title=" ">
<path fill="none" stroke="#63b8ff" d="M72.5,-99.17C74.23,-90.8 76.15,-81.5 77.52,-74.86"/>
<polygon fill="#63b8ff" stroke="#63b8ff" points="69.09,-98.35 70.5,-108.85 75.95,-99.76 69.09,-98.35"/>
</a>
</g>
</g>
<!-- Node4&#45;&gt;Node5 -->
<g id="edge4_Node000004_Node000005" class="edge">
<title>Node4&#45;&gt;Node5</title>
<g id="a_edge4_Node000004_Node000005"><a xlink:title=" ">
<path fill="none" stroke="#63b8ff" d="M92.04,-45.65C98.14,-36.86 105.2,-26.71 110.13,-19.61"/>
<polygon fill="#63b8ff" stroke="#63b8ff" points="89.18,-43.63 86.35,-53.84 94.93,-47.62 89.18,-43.63"/>
</a>
</g>
</g>
</g>
</svg>
</svg>

<style type='text/css'>
<![CDATA[
[data-mouse-over-selected='false'] { opacity: 0.7; }
[data-mouse-over-selected='true']  { opacity: 1.0; }
]]>
</style>
<script type="application/ecmascript"><![CDATA[
document.addEventListener('DOMContentLoaded', (event) => {
  highlightEdges();
  highlightAdjacentNodes();
});
]]></script>
</svg>
