<?xml version="1.0" encoding="UTF-8" standalone="no"?>
<!DOCTYPE svg PUBLIC "-//W3C//DTD SVG 1.1//EN"
 "http://www.w3.org/Graphics/SVG/1.1/DTD/svg11.dtd">
<!-- Generated by graphviz version 14.0.1 (20251006.0113)
 -->
<!-- Title: Helpers.hpp Pages: 1 -->
<svg width="1513pt" height="304pt"
 viewBox="0.00 0.00 1513.00 304.00" xmlns="http://www.w3.org/2000/svg" xmlns:xlink="http://www.w3.org/1999/xlink">
<g id="graph0" class="graph" transform="scale(1 1) rotate(0) translate(4 299.5)">
<title>Helpers.hpp</title>
<!-- Node1 -->
<g id="Node000001" class="node">
<title>Node1</title>
<g id="a_Node000001"><a xlink:title=" ">
<polygon fill="#999999" stroke="#666666" points="821.75,-295.5 753.25,-295.5 753.25,-276.25 821.75,-276.25 821.75,-295.5"/>
<text xml:space="preserve" text-anchor="middle" x="787.5" y="-282" font-family="Helvetica,sans-Serif" font-size="10.00">Helpers.hpp</text>
</a>
</g>
</g>
<!-- Node2 -->
<g id="Node000002" class="node">
<title>Node2</title>
<g id="a_Node000002"><a xlink:href="../../d3/d89/_activation_time_type_8hpp.html" target="_top" xlink:title=" ">
<polygon fill="white" stroke="#666666" points="121,-240.25 0,-240.25 0,-221 121,-221 121,-240.25"/>
<text xml:space="preserve" text-anchor="middle" x="60.5" y="-226.75" font-family="Helvetica,sans-Serif" font-size="10.00">ActivationTimeType.hpp</text>
</a>
</g>
</g>
<!-- Node1&#45;&gt;Node2 -->
<g id="edge1_Node000001_Node000002" class="edge">
<title>Node1&#45;&gt;Node2</title>
<g id="a_edge1_Node000001_Node000002"><a xlink:title=" ">
<path fill="none" stroke="#63b8ff" d="M741.49,-282.65C634.14,-277.27 358.82,-262.34 129.5,-240.25 126.86,-240 124.16,-239.72 121.43,-239.43"/>
<polygon fill="#63b8ff" stroke="#63b8ff" points="741.17,-286.14 751.33,-283.14 741.52,-279.15 741.17,-286.14"/>
</a>
</g>
</g>
<!-- Node7 -->
<g id="Node000007" class="node">
<title>Node7</title>
<g id="a_Node000007"><a xlink:href="../../d6/d0f/_drink_counter_type_8hpp.html" target="_top" xlink:title=" ">
<polygon fill="white" stroke="#666666" points="252.25,-240.25 138.75,-240.25 138.75,-221 252.25,-221 252.25,-240.25"/>
<text xml:space="preserve" text-anchor="middle" x="195.5" y="-226.75" font-family="Helvetica,sans-Serif" font-size="10.00">DrinkCounterType.hpp</text>
</a>
</g>
</g>
<!-- Node1&#45;&gt;Node7 -->
<g id="edge6_Node000001_Node000007" class="edge">
<title>Node1&#45;&gt;Node7</title>
<g id="a_edge6_Node000001_Node000007"><a xlink:title=" ">
<path fill="none" stroke="#63b8ff" d="M741.67,-281.69C650.23,-275.18 438.71,-259.34 261.5,-240.25 258.63,-239.94 255.69,-239.61 252.72,-239.26"/>
<polygon fill="#63b8ff" stroke="#63b8ff" points="741.25,-285.17 751.47,-282.38 741.75,-278.19 741.25,-285.17"/>
</a>
</g>
</g>
<!-- Node8 -->
<g id="Node000008" class="node">
<title>Node8</title>
<g id="a_Node000008"><a xlink:href="../../de/df3/_lacte_id_type_8hpp.html" target="_top" xlink:title=" ">
<polygon fill="white" stroke="#666666" points="358.5,-240.25 270.5,-240.25 270.5,-221 358.5,-221 358.5,-240.25"/>
<text xml:space="preserve" text-anchor="middle" x="314.5" y="-226.75" font-family="Helvetica,sans-Serif" font-size="10.00">LacteIdType.hpp</text>
</a>
</g>
</g>
<!-- Node1&#45;&gt;Node8 -->
<g id="edge8_Node000001_Node000008" class="edge">
<title>Node1&#45;&gt;Node8</title>
<g id="a_edge8_Node000001_Node000008"><a xlink:title=" ">
<path fill="none" stroke="#63b8ff" d="M741.62,-280.84C664.29,-273.85 503.16,-258.48 367.5,-240.25 364.64,-239.87 361.69,-239.45 358.72,-239.01"/>
<polygon fill="#63b8ff" stroke="#63b8ff" points="741.07,-284.3 751.34,-281.71 741.7,-277.33 741.07,-284.3"/>
</a>
</g>
</g>
<!-- Node9 -->
<g id="Node000009" class="node">
<title>Node9</title>
<g id="a_Node000009"><a xlink:href="../../d5/d3b/_lacte_sn_type_8hpp.html" target="_top" xlink:title=" ">
<polygon fill="white" stroke="#666666" points="468.38,-240.25 376.62,-240.25 376.62,-221 468.38,-221 468.38,-240.25"/>
<text xml:space="preserve" text-anchor="middle" x="422.5" y="-226.75" font-family="Helvetica,sans-Serif" font-size="10.00">LacteSnType.hpp</text>
</a>
</g>
</g>
<!-- Node1&#45;&gt;Node9 -->
<g id="edge10_Node000001_Node000009" class="edge">
<title>Node1&#45;&gt;Node9</title>
<g id="a_edge10_Node000001_Node000009"><a xlink:title=" ">
<path fill="none" stroke="#63b8ff" d="M742.02,-278.51C681.58,-270.01 571.46,-254.38 477.5,-240.25 474.63,-239.82 471.68,-239.37 468.71,-238.91"/>
<polygon fill="#63b8ff" stroke="#63b8ff" points="741.19,-281.93 751.58,-279.85 742.16,-275 741.19,-281.93"/>
</a>
</g>
</g>
<!-- Node10 -->
<g id="Node000010" class="node">
<title>Node10</title>
<g id="a_Node000010"><a xlink:href="../../db/da8/_machine_sn_type_8hpp.html" target="_top" xlink:title=" ">
<polygon fill="white" stroke="#666666" points="590.75,-240.25 486.25,-240.25 486.25,-221 590.75,-221 590.75,-240.25"/>
<text xml:space="preserve" text-anchor="middle" x="538.5" y="-226.75" font-family="Helvetica,sans-Serif" font-size="10.00">MachineSnType.hpp</text>
</a>
</g>
</g>
<!-- Node1&#45;&gt;Node10 -->
<g id="edge12_Node000001_Node000010" class="edge">
<title>Node1&#45;&gt;Node10</title>
<g id="a_edge12_Node000001_Node000010"><a xlink:title=" ">
<path fill="none" stroke="#63b8ff" d="M741.77,-275.1C695.93,-265.29 625.89,-250.31 581.16,-240.75"/>
<polygon fill="#63b8ff" stroke="#63b8ff" points="740.89,-278.49 751.4,-277.15 742.35,-271.64 740.89,-278.49"/>
</a>
</g>
</g>
<!-- Node11 -->
<g id="Node000011" class="node">
<title>Node11</title>
<g id="a_Node000011"><a xlink:href="../../d9/d16/_magic_word_type_8hpp.html" target="_top" xlink:title=" ">
<polygon fill="white" stroke="#666666" points="713.75,-240.25 609.25,-240.25 609.25,-221 713.75,-221 713.75,-240.25"/>
<text xml:space="preserve" text-anchor="middle" x="661.5" y="-226.75" font-family="Helvetica,sans-Serif" font-size="10.00">MagicWordType.hpp</text>
</a>
</g>
</g>
<!-- Node1&#45;&gt;Node11 -->
<g id="edge14_Node000001_Node000011" class="edge">
<title>Node1&#45;&gt;Node11</title>
<g id="a_edge14_Node000001_Node000011"><a xlink:title=" ">
<path fill="none" stroke="#63b8ff" d="M755.62,-271.4C732.88,-261.79 702.93,-249.13 682.98,-240.7"/>
<polygon fill="#63b8ff" stroke="#63b8ff" points="754.16,-274.58 764.73,-275.25 756.88,-268.14 754.16,-274.58"/>
</a>
</g>
</g>
<!-- Node12 -->
<g id="Node000012" class="node">
<title>Node12</title>
<g id="a_Node000012"><a xlink:href="../../d9/dae/_mcu_uid_type_8hpp.html" target="_top" xlink:title=" ">
<polygon fill="white" stroke="#666666" points="1490.25,-240.25 1400.75,-240.25 1400.75,-221 1490.25,-221 1490.25,-240.25"/>
<text xml:space="preserve" text-anchor="middle" x="1445.5" y="-226.75" font-family="Helvetica,sans-Serif" font-size="10.00">McuUidType.hpp</text>
</a>
</g>
</g>
<!-- Node1&#45;&gt;Node12 -->
<g id="edge16_Node000001_Node000012" class="edge">
<title>Node1&#45;&gt;Node12</title>
<g id="a_edge16_Node000001_Node000012"><a xlink:title=" ">
<path fill="none" stroke="#63b8ff" d="M833.28,-282.82C934.29,-277.99 1183.8,-264.47 1391.5,-240.25 1394.42,-239.91 1397.43,-239.52 1400.46,-239.11"/>
<polygon fill="#63b8ff" stroke="#63b8ff" points="833.32,-279.31 823.5,-283.28 833.65,-286.3 833.32,-279.31"/>
</a>
</g>
</g>
<!-- Node13 -->
<g id="Node000013" class="node">
<title>Node13</title>
<g id="a_Node000013"><a xlink:href="../../d2/d8f/_u_i_d_packet_type_8hpp.html" target="_top" xlink:title=" ">
<polygon fill="white" stroke="#666666" points="1497.75,-185 1393.25,-185 1393.25,-165.75 1497.75,-165.75 1497.75,-185"/>
<text xml:space="preserve" text-anchor="middle" x="1445.5" y="-171.5" font-family="Helvetica,sans-Serif" font-size="10.00">UIDPacketType.hpp</text>
</a>
</g>
</g>
<!-- Node1&#45;&gt;Node13 -->
<g id="edge28_Node000001_Node000013" class="edge">
<title>Node1&#45;&gt;Node13</title>
<g id="a_edge28_Node000001_Node000013"><a xlink:title=" ">
<path fill="none" stroke="#63b8ff" d="M833.32,-283.71C987.13,-279.59 1476.64,-264.58 1499.5,-240.25 1517.2,-221.41 1484.18,-197.89 1462.41,-185.3"/>
<polygon fill="#63b8ff" stroke="#63b8ff" points="833.42,-280.21 823.51,-283.97 833.6,-287.2 833.42,-280.21"/>
</a>
</g>
</g>
<!-- Node14 -->
<g id="Node000014" class="node">
<title>Node14</title>
<g id="a_Node000014"><a xlink:href="../../d1/d5c/_product_date_type_8hpp.html" target="_top" xlink:title=" ">
<polygon fill="white" stroke="#666666" points="842.75,-240.25 732.25,-240.25 732.25,-221 842.75,-221 842.75,-240.25"/>
<text xml:space="preserve" text-anchor="middle" x="787.5" y="-226.75" font-family="Helvetica,sans-Serif" font-size="10.00">ProductDateType.hpp</text>
</a>
</g>
</g>
<!-- Node1&#45;&gt;Node14 -->
<g id="edge20_Node000001_Node000014" class="edge">
<title>Node1&#45;&gt;Node14</title>
<g id="a_edge20_Node000001_Node000014"><a xlink:title=" ">
<path fill="none" stroke="#63b8ff" d="M787.5,-264.63C787.5,-256.34 787.5,-247.17 787.5,-240.61"/>
<polygon fill="#63b8ff" stroke="#63b8ff" points="784,-264.57 787.5,-274.57 791,-264.57 784,-264.57"/>
</a>
</g>
</g>
<!-- Node15 -->
<g id="Node000015" class="node">
<title>Node15</title>
<g id="a_Node000015"><a xlink:href="../../d1/d08/_product_shelf_life_type_8hpp.html" target="_top" xlink:title=" ">
<polygon fill="white" stroke="#666666" points="988.38,-240.25 860.62,-240.25 860.62,-221 988.38,-221 988.38,-240.25"/>
<text xml:space="preserve" text-anchor="middle" x="924.5" y="-226.75" font-family="Helvetica,sans-Serif" font-size="10.00">ProductShelfLifeType.hpp</text>
</a>
</g>
</g>
<!-- Node1&#45;&gt;Node15 -->
<g id="edge22_Node000001_Node000015" class="edge">
<title>Node1&#45;&gt;Node15</title>
<g id="a_edge22_Node000001_Node000015"><a xlink:title=" ">
<path fill="none" stroke="#63b8ff" d="M821.16,-271.79C845.99,-262.14 879.16,-249.25 901.15,-240.7"/>
<polygon fill="#63b8ff" stroke="#63b8ff" points="820.2,-268.41 812.15,-275.29 822.74,-274.93 820.2,-268.41"/>
</a>
</g>
</g>
<!-- Node16 -->
<g id="Node000016" class="node">
<title>Node16</title>
<g id="a_Node000016"><a xlink:href="../../dd/d73/_product_volume_type_8hpp.html" target="_top" xlink:title=" ">
<polygon fill="white" stroke="#666666" points="1128.75,-240.25 1006.25,-240.25 1006.25,-221 1128.75,-221 1128.75,-240.25"/>
<text xml:space="preserve" text-anchor="middle" x="1067.5" y="-226.75" font-family="Helvetica,sans-Serif" font-size="10.00">ProductVolumeType.hpp</text>
</a>
</g>
</g>
<!-- Node1&#45;&gt;Node16 -->
<g id="edge24_Node000001_Node000016" class="edge">
<title>Node1&#45;&gt;Node16</title>
<g id="a_edge24_Node000001_Node000016"><a xlink:title=" ">
<path fill="none" stroke="#63b8ff" d="M833.21,-276.18C884.61,-266.41 967.69,-250.61 1019.87,-240.68"/>
<polygon fill="#63b8ff" stroke="#63b8ff" points="832.77,-272.7 823.6,-278.01 834.08,-279.58 832.77,-272.7"/>
</a>
</g>
</g>
<!-- Node17 -->
<g id="Node000017" class="node">
<title>Node17</title>
<g id="a_Node000017"><a xlink:href="../../d8/dc4/_time_counter_type_8hpp.html" target="_top" xlink:title=" ">
<polygon fill="white" stroke="#666666" points="1258.5,-240.25 1146.5,-240.25 1146.5,-221 1258.5,-221 1258.5,-240.25"/>
<text xml:space="preserve" text-anchor="middle" x="1202.5" y="-226.75" font-family="Helvetica,sans-Serif" font-size="10.00">TimeCounterType.hpp</text>
</a>
</g>
</g>
<!-- Node1&#45;&gt;Node17 -->
<g id="edge26_Node000001_Node000017" class="edge">
<title>Node1&#45;&gt;Node17</title>
<g id="a_edge26_Node000001_Node000017"><a xlink:title=" ">
<path fill="none" stroke="#63b8ff" d="M833.14,-279.13C899.96,-270.71 1028.34,-254.45 1137.5,-240.25 1140.32,-239.88 1143.21,-239.51 1146.13,-239.12"/>
<polygon fill="#63b8ff" stroke="#63b8ff" points="832.77,-275.65 823.29,-280.37 833.65,-282.6 832.77,-275.65"/>
</a>
</g>
</g>
<!-- Node18 -->
<g id="Node000018" class="node">
<title>Node18</title>
<g id="a_Node000018"><a xlink:href="../../d9/d8d/_usage_time_type_8hpp.html" target="_top" xlink:title=" ">
<polygon fill="white" stroke="#666666" points="1382.5,-240.25 1276.5,-240.25 1276.5,-221 1382.5,-221 1382.5,-240.25"/>
<text xml:space="preserve" text-anchor="middle" x="1329.5" y="-226.75" font-family="Helvetica,sans-Serif" font-size="10.00">UsageTimeType.hpp</text>
</a>
</g>
</g>
<!-- Node1&#45;&gt;Node18 -->
<g id="edge29_Node000001_Node000018" class="edge">
<title>Node1&#45;&gt;Node18</title>
<g id="a_edge29_Node000001_Node000018"><a xlink:title=" ">
<path fill="none" stroke="#63b8ff" d="M833.57,-281.29C919.17,-274.48 1108.5,-258.69 1267.5,-240.25 1270.31,-239.92 1273.18,-239.58 1276.09,-239.21"/>
<polygon fill="#63b8ff" stroke="#63b8ff" points="833.39,-277.8 823.7,-282.08 833.95,-284.78 833.39,-277.8"/>
</a>
</g>
</g>
<!-- Node3 -->
<g id="Node000003" class="node">
<title>Node3</title>
<g id="a_Node000003"><a xlink:href="../../d7/ded/_rfid_data_types_8hpp.html" target="_top" xlink:title=" ">
<polygon fill="white" stroke="#666666" points="837.5,-185 737.5,-185 737.5,-165.75 837.5,-165.75 837.5,-185"/>
<text xml:space="preserve" text-anchor="middle" x="787.5" y="-171.5" font-family="Helvetica,sans-Serif" font-size="10.00">RfidDataTypes.hpp</text>
</a>
</g>
</g>
<!-- Node2&#45;&gt;Node3 -->
<g id="edge2_Node000002_Node000003" class="edge">
<title>Node2&#45;&gt;Node3</title>
<g id="a_edge2_Node000002_Node000003"><a xlink:title=" ">
<path fill="none" stroke="#63b8ff" d="M132.79,-220.73C364.42,-198.73 628.52,-184.29 737.06,-178.82"/>
<polygon fill="#63b8ff" stroke="#63b8ff" points="132.56,-217.24 122.94,-221.67 133.23,-224.21 132.56,-217.24"/>
</a>
</g>
</g>
<!-- Node4 -->
<g id="Node000004" class="node">
<title>Node4</title>
<g id="a_Node000004"><a xlink:href="../../d8/df0/_lacte_protocol_prototype_8hpp.html" target="_top" xlink:title=" ">
<polygon fill="white" stroke="#666666" points="1184.88,-129.75 1048.12,-129.75 1048.12,-110.5 1184.88,-110.5 1184.88,-129.75"/>
<text xml:space="preserve" text-anchor="middle" x="1116.5" y="-116.25" font-family="Helvetica,sans-Serif" font-size="10.00">LacteProtocolPrototype.hpp</text>
</a>
</g>
</g>
<!-- Node3&#45;&gt;Node4 -->
<g id="edge3_Node000003_Node000004" class="edge">
<title>Node3&#45;&gt;Node4</title>
<g id="a_edge3_Node000003_Node000004"><a xlink:title=" ">
<path fill="none" stroke="#63b8ff" d="M849.15,-164.4C909.84,-154.57 1001.7,-139.71 1060.39,-130.21"/>
<polygon fill="#63b8ff" stroke="#63b8ff" points="848.63,-160.93 839.32,-165.99 849.75,-167.84 848.63,-160.93"/>
</a>
</g>
</g>
<!-- Node5 -->
<g id="Node000005" class="node">
<title>Node5</title>
<g id="a_Node000005"><a xlink:href="../../dc/d95/_lacte_protocol_8hpp.html" target="_top" xlink:title=" ">
<polygon fill="white" stroke="#666666" points="1163.88,-74.5 1069.12,-74.5 1069.12,-55.25 1163.88,-55.25 1163.88,-74.5"/>
<text xml:space="preserve" text-anchor="middle" x="1116.5" y="-61" font-family="Helvetica,sans-Serif" font-size="10.00">LacteProtocol.hpp</text>
</a>
</g>
</g>
<!-- Node4&#45;&gt;Node5 -->
<g id="edge4_Node000004_Node000005" class="edge">
<title>Node4&#45;&gt;Node5</title>
<g id="a_edge4_Node000004_Node000005"><a xlink:title=" ">
<path fill="none" stroke="#63b8ff" d="M1116.5,-98.88C1116.5,-90.59 1116.5,-81.42 1116.5,-74.86"/>
<polygon fill="#63b8ff" stroke="#63b8ff" points="1113,-98.82 1116.5,-108.82 1120,-98.82 1113,-98.82"/>
</a>
</g>
</g>
<!-- Node6 -->
<g id="Node000006" class="node">
<title>Node6</title>
<g id="a_Node000006"><a xlink:href="../../db/dc5/_virtual_board_8hpp.html" target="_top" xlink:title=" ">
<polygon fill="white" stroke="#666666" points="1160.5,-19.25 1072.5,-19.25 1072.5,0 1160.5,0 1160.5,-19.25"/>
<text xml:space="preserve" text-anchor="middle" x="1116.5" y="-5.75" font-family="Helvetica,sans-Serif" font-size="10.00">VirtualBoard.hpp</text>
</a>
</g>
</g>
<!-- Node5&#45;&gt;Node6 -->
<g id="edge5_Node000005_Node000006" class="edge">
<title>Node5&#45;&gt;Node6</title>
<g id="a_edge5_Node000005_Node000006"><a xlink:title=" ">
<path fill="none" stroke="#63b8ff" d="M1116.5,-43.63C1116.5,-35.34 1116.5,-26.17 1116.5,-19.61"/>
<polygon fill="#63b8ff" stroke="#63b8ff" points="1113,-43.57 1116.5,-53.57 1120,-43.57 1113,-43.57"/>
</a>
</g>
</g>
<!-- Node7&#45;&gt;Node3 -->
<g id="edge7_Node000007_Node000003" class="edge">
<title>Node7&#45;&gt;Node3</title>
<g id="a_edge7_Node000007_Node000003"><a xlink:title=" ">
<path fill="none" stroke="#63b8ff" d="M264.01,-220.78C444.23,-201.59 645.15,-186.46 737.02,-179.89"/>
<polygon fill="#63b8ff" stroke="#63b8ff" points="263.79,-217.28 254.22,-221.83 264.54,-224.24 263.79,-217.28"/>
</a>
</g>
</g>
<!-- Node8&#45;&gt;Node3 -->
<g id="edge9_Node000008_Node000003" class="edge">
<title>Node8&#45;&gt;Node3</title>
<g id="a_edge9_Node000008_Node000003"><a xlink:title=" ">
<path fill="none" stroke="#63b8ff" d="M369.98,-220.74C508.94,-202.31 660.48,-187.77 737.29,-180.8"/>
<polygon fill="#63b8ff" stroke="#63b8ff" points="369.67,-217.25 360.22,-222.04 370.59,-224.18 369.67,-217.25"/>
</a>
</g>
</g>
<!-- Node9&#45;&gt;Node3 -->
<g id="edge11_Node000009_Node000003" class="edge">
<title>Node9&#45;&gt;Node3</title>
<g id="a_edge11_Node000009_Node000003"><a xlink:title=" ">
<path fill="none" stroke="#63b8ff" d="M479.9,-220.65C576.91,-206.12 678.21,-191.72 737.27,-183.41"/>
<polygon fill="#63b8ff" stroke="#63b8ff" points="479.57,-217.16 470.2,-222.11 480.61,-224.09 479.57,-217.16"/>
</a>
</g>
</g>
<!-- Node10&#45;&gt;Node3 -->
<g id="edge13_Node000010_Node000003" class="edge">
<title>Node10&#45;&gt;Node3</title>
<g id="a_edge13_Node000010_Node000003"><a xlink:title=" ">
<path fill="none" stroke="#63b8ff" d="M592.23,-218.13C638.03,-208.34 702.96,-194.45 745.15,-185.43"/>
<polygon fill="#63b8ff" stroke="#63b8ff" points="591.55,-214.7 582.5,-220.21 593.01,-221.55 591.55,-214.7"/>
</a>
</g>
</g>
<!-- Node11&#45;&gt;Node3 -->
<g id="edge15_Node000011_Node000003" class="edge">
<title>Node11&#45;&gt;Node3</title>
<g id="a_edge15_Node000011_Node000003"><a xlink:title=" ">
<path fill="none" stroke="#63b8ff" d="M693.38,-216.15C716.12,-206.54 746.07,-193.88 766.02,-185.45"/>
<polygon fill="#63b8ff" stroke="#63b8ff" points="692.12,-212.89 684.27,-220 694.84,-219.33 692.12,-212.89"/>
</a>
</g>
</g>
<!-- Node12&#45;&gt;Node3 -->
<g id="edge17_Node000012_Node000003" class="edge">
<title>Node12&#45;&gt;Node3</title>
<g id="a_edge17_Node000012_Node000003"><a xlink:title=" ">
<path fill="none" stroke="#63b8ff" d="M1389.16,-220.83C1178.22,-196.66 939.67,-183.57 837.75,-178.65"/>
<polygon fill="#63b8ff" stroke="#63b8ff" points="1388.62,-224.29 1398.95,-221.96 1389.42,-217.34 1388.62,-224.29"/>
</a>
</g>
</g>
<!-- Node12&#45;&gt;Node13 -->
<g id="edge18_Node000012_Node000013" class="edge">
<title>Node12&#45;&gt;Node13</title>
<g id="a_edge18_Node000012_Node000013"><a xlink:title=" ">
<path fill="none" stroke="#63b8ff" d="M1445.5,-209.38C1445.5,-201.09 1445.5,-191.92 1445.5,-185.36"/>
<polygon fill="#63b8ff" stroke="#63b8ff" points="1442,-209.32 1445.5,-219.32 1449,-209.32 1442,-209.32"/>
</a>
</g>
</g>
<!-- Node13&#45;&gt;Node4 -->
<g id="edge19_Node000013_Node000004" class="edge">
<title>Node13&#45;&gt;Node4</title>
<g id="a_edge19_Node000013_Node000004"><a xlink:title=" ">
<path fill="none" stroke="#63b8ff" d="M1381.66,-164.04C1321,-154.22 1230.66,-139.6 1172.66,-130.22"/>
<polygon fill="#63b8ff" stroke="#63b8ff" points="1381.08,-167.49 1391.51,-165.64 1382.2,-160.58 1381.08,-167.49"/>
</a>
</g>
</g>
<!-- Node14&#45;&gt;Node3 -->
<g id="edge21_Node000014_Node000003" class="edge">
<title>Node14&#45;&gt;Node3</title>
<g id="a_edge21_Node000014_Node000003"><a xlink:title=" ">
<path fill="none" stroke="#63b8ff" d="M787.5,-209.38C787.5,-201.09 787.5,-191.92 787.5,-185.36"/>
<polygon fill="#63b8ff" stroke="#63b8ff" points="784,-209.32 787.5,-219.32 791,-209.32 784,-209.32"/>
</a>
</g>
</g>
<!-- Node15&#45;&gt;Node3 -->
<g id="edge23_Node000015_Node000003" class="edge">
<title>Node15&#45;&gt;Node3</title>
<g id="a_edge23_Node000015_Node000003"><a xlink:title=" ">
<path fill="none" stroke="#63b8ff" d="M890.84,-216.54C866.01,-206.89 832.84,-194 810.85,-185.45"/>
<polygon fill="#63b8ff" stroke="#63b8ff" points="889.26,-219.68 899.85,-220.04 891.8,-213.16 889.26,-219.68"/>
</a>
</g>
</g>
<!-- Node16&#45;&gt;Node3 -->
<g id="edge25_Node000016_Node000003" class="edge">
<title>Node16&#45;&gt;Node3</title>
<g id="a_edge25_Node000016_Node000003"><a xlink:title=" ">
<path fill="none" stroke="#63b8ff" d="M1008.39,-218.38C956.82,-208.58 882.97,-194.53 835.12,-185.43"/>
<polygon fill="#63b8ff" stroke="#63b8ff" points="1007.72,-221.82 1018.2,-220.25 1009.03,-214.94 1007.72,-221.82"/>
</a>
</g>
</g>
<!-- Node17&#45;&gt;Node3 -->
<g id="edge27_Node000017_Node000003" class="edge">
<title>Node17&#45;&gt;Node3</title>
<g id="a_edge27_Node000017_Node000003"><a xlink:title=" ">
<path fill="none" stroke="#63b8ff" d="M1134.96,-220.68C1022.9,-206.12 903.77,-191.03 837.94,-182.72"/>
<polygon fill="#63b8ff" stroke="#63b8ff" points="1134.26,-224.11 1144.63,-221.93 1135.17,-217.17 1134.26,-224.11"/>
</a>
</g>
</g>
<!-- Node18&#45;&gt;Node3 -->
<g id="edge30_Node000018_Node000003" class="edge">
<title>Node18&#45;&gt;Node3</title>
<g id="a_edge30_Node000018_Node000003"><a xlink:title=" ">
<path fill="none" stroke="#63b8ff" d="M1264.93,-220.75C1102.7,-202.15 923.14,-187.11 837.68,-180.28"/>
<polygon fill="#63b8ff" stroke="#63b8ff" points="1264.25,-224.19 1274.58,-221.86 1265.05,-217.24 1264.25,-224.19"/>
</a>
</g>
</g>
</g>
</svg>
