<?xml version="1.0" encoding="UTF-8" standalone="no"?>
<!DOCTYPE svg PUBLIC "-//W3C//DTD SVG 1.1//EN"
 "http://www.w3.org/Graphics/SVG/1.1/DTD/svg11.dtd">
<!-- Generated by graphviz version 2.43.0 (0)
 -->
<!-- Title: Helpers.hpp Pages: 1 -->
<!--zoomable 302 -->

<svg id="main" version="1.1" xmlns="http://www.w3.org/2000/svg" xmlns:xlink="http://www.w3.org/1999/xlink" xml:space="preserve" onload="init(evt)">
<style type="text/css"><![CDATA[
.node, .edge {opacity: 0.7;}
.node.selected, .edge.selected {opacity: 1;}
.edge:hover path { stroke: red; }
.edge:hover polygon { stroke: red; fill: red; }
]]></style>

<defs>
  <circle id="rim" cx="0" cy="0" r="7"/>
  <circle id="rim2" cx="0" cy="0" r="3.5"/>
  <g id="zoomPlus">
    <use xlink:href="#rim" fill="#404040"><set attributeName="fill" to="#808080" begin="zoomplus.mouseover" end="zoomplus.mouseout"/></use>
    <path d="M-4,0h8M0,-4v8" fill="none" stroke="white" stroke-width="1.5" pointer-events="none"/>
  </g>
  <g id="zoomMin">
    <use xlink:href="#rim" fill="#404040"><set attributeName="fill" to="#808080" begin="zoomminus.mouseover" end="zoomminus.mouseout"/></use>
    <path d="M-4,0h8" fill="none" stroke="white" stroke-width="1.5" pointer-events="none"/>
  </g>
  <g id="arrowUp" transform="translate(30 24)">
    <use xlink:href="#rim"/>
    <path pointer-events="none" fill="none" stroke="white" stroke-width="1.5" d="M0,-3.0v7 M-2.5,-0.5L0,-3.0L2.5,-0.5"/>
  </g>
  <g id="arrowRight" transform="rotate(90) translate(36 -43)">
    <use xlink:href="#rim"/>
    <path pointer-events="none" fill="none" stroke="white" stroke-width="1.5" d="M0,-3.0v7 M-2.5,-0.5L0,-3.0L2.5,-0.5"/>
  </g>
  <g id="arrowDown" transform="rotate(180) translate(-30 -48)">
    <use xlink:href="#rim"/>
    <path pointer-events="none" fill="none" stroke="white" stroke-width="1.5" d="M0,-3.0v7 M-2.5,-0.5L0,-3.0L2.5,-0.5"/>
  </g>
  <g id="arrowLeft" transform="rotate(270) translate(-36 17)">
    <use xlink:href="#rim"/>
    <path pointer-events="none" fill="none" stroke="white" stroke-width="1.5" d="M0,-3.0v7 M-2.5,-0.5L0,-3.0L2.5,-0.5"/>
  </g>
  <g id="resetDef">
    <use xlink:href="#rim2" fill="#404040"><set attributeName="fill" to="#808080" begin="reset.mouseover" end="reset.mouseout"/></use>
  </g>
</defs>
<script type="application/ecmascript">
var viewWidth = 1633;
var viewHeight = 302;
var sectionId = 'dynsection-1';
</script>
<script type="application/ecmascript" xlink:href="../../svg.min.js"/>
<svg id="graph" class="graph">
<g id="viewport">
<title>Helpers.hpp</title>
<!-- Node1 -->
<g id="Node000001" class="node">
<title>Node1</title>
<g id="a_Node000001"><a xlink:title=" ">
<polygon fill="#999999" stroke="#666666" points="886.5,-294 811.5,-294 811.5,-275 886.5,-275 886.5,-294"/>
<text text-anchor="middle" x="849" y="-282" font-family="Helvetica,sans-Serif" font-size="10.00">Helpers.hpp</text>
</a>
</g>
</g>
<!-- Node2 -->
<g id="Node000002" class="node">
<title>Node2</title>
<g id="a_Node000002"><a xlink:href="../../dc/d01/ActivationTimeType_8hpp.html" target="_top" xlink:title=" ">
<polygon fill="white" stroke="#666666" points="134,-239 0,-239 0,-220 134,-220 134,-239"/>
<text text-anchor="middle" x="67" y="-227" font-family="Helvetica,sans-Serif" font-size="10.00">ActivationTimeType.hpp</text>
</a>
</g>
</g>
<!-- Node1&#45;&gt;Node2 -->
<g id="edge1_Node000001_Node000002" class="edge">
<title>Node1&#45;&gt;Node2</title>
<g id="a_edge1_Node000001_Node000002"><a xlink:title=" ">
<path fill="none" stroke="#63b8ff" d="M801.32,-281.29C687.38,-275.85 390.37,-260.62 143,-239 140.09,-238.75 137.12,-238.47 134.12,-238.19"/>
<polygon fill="#63b8ff" stroke="#63b8ff" points="801.29,-284.8 811.45,-281.77 801.63,-277.8 801.29,-284.8"/>
</a>
</g>
</g>
<!-- Node7 -->
<g id="Node000007" class="node">
<title>Node7</title>
<g id="a_Node000007"><a xlink:href="../../de/de6/DrinkCounterType_8hpp.html" target="_top" xlink:title=" ">
<polygon fill="white" stroke="#666666" points="277.5,-239 152.5,-239 152.5,-220 277.5,-220 277.5,-239"/>
<text text-anchor="middle" x="215" y="-227" font-family="Helvetica,sans-Serif" font-size="10.00">DrinkCounterType.hpp</text>
</a>
</g>
</g>
<!-- Node1&#45;&gt;Node7 -->
<g id="edge6_Node000001_Node000007" class="edge">
<title>Node1&#45;&gt;Node7</title>
<g id="a_edge6_Node000001_Node000007"><a xlink:title=" ">
<path fill="none" stroke="#63b8ff" d="M801.31,-280.38C704.22,-273.89 476.63,-257.94 286,-239 283.28,-238.73 280.51,-238.44 277.7,-238.15"/>
<polygon fill="#63b8ff" stroke="#63b8ff" points="801.19,-283.88 811.4,-281.05 801.65,-276.9 801.19,-283.88"/>
</a>
</g>
</g>
<!-- Node8 -->
<g id="Node000008" class="node">
<title>Node8</title>
<g id="a_Node000008"><a xlink:href="../../d7/dcc/LacteIdType_8hpp.html" target="_top" xlink:title=" ">
<polygon fill="white" stroke="#666666" points="390.5,-239 295.5,-239 295.5,-220 390.5,-220 390.5,-239"/>
<text text-anchor="middle" x="343" y="-227" font-family="Helvetica,sans-Serif" font-size="10.00">LacteIdType.hpp</text>
</a>
</g>
</g>
<!-- Node1&#45;&gt;Node8 -->
<g id="edge8_Node000001_Node000008" class="edge">
<title>Node1&#45;&gt;Node8</title>
<g id="a_edge8_Node000001_Node000008"><a xlink:title=" ">
<path fill="none" stroke="#63b8ff" d="M801.36,-279.55C719.27,-272.58 545.93,-257.1 400,-239 396.92,-238.62 393.75,-238.2 390.56,-237.77"/>
<polygon fill="#63b8ff" stroke="#63b8ff" points="801.12,-283.05 811.38,-280.4 801.71,-276.07 801.12,-283.05"/>
</a>
</g>
</g>
<!-- Node9 -->
<g id="Node000009" class="node">
<title>Node9</title>
<g id="a_Node000009"><a xlink:href="../../d4/d74/LacteSnType_8hpp.html" target="_top" xlink:title=" ">
<polygon fill="white" stroke="#666666" points="507,-239 409,-239 409,-220 507,-220 507,-239"/>
<text text-anchor="middle" x="458" y="-227" font-family="Helvetica,sans-Serif" font-size="10.00">LacteSnType.hpp</text>
</a>
</g>
</g>
<!-- Node1&#45;&gt;Node9 -->
<g id="edge10_Node000001_Node000009" class="edge">
<title>Node1&#45;&gt;Node9</title>
<g id="a_edge10_Node000001_Node000009"><a xlink:title=" ">
<path fill="none" stroke="#63b8ff" d="M800.98,-277.28C736.23,-268.84 617.36,-253.2 516,-239 513.08,-238.59 510.07,-238.16 507.04,-237.73"/>
<polygon fill="#63b8ff" stroke="#63b8ff" points="800.91,-280.8 811.27,-278.62 801.81,-273.86 800.91,-280.8"/>
</a>
</g>
</g>
<!-- Node10 -->
<g id="Node000010" class="node">
<title>Node10</title>
<g id="a_Node000010"><a xlink:href="../../df/d1a/MachineSnType_8hpp.html" target="_top" xlink:title=" ">
<polygon fill="white" stroke="#666666" points="638.5,-239 525.5,-239 525.5,-220 638.5,-220 638.5,-239"/>
<text text-anchor="middle" x="582" y="-227" font-family="Helvetica,sans-Serif" font-size="10.00">MachineSnType.hpp</text>
</a>
</g>
</g>
<!-- Node1&#45;&gt;Node10 -->
<g id="edge12_Node000001_Node000010" class="edge">
<title>Node1&#45;&gt;Node10</title>
<g id="a_edge12_Node000001_Node000010"><a xlink:title=" ">
<path fill="none" stroke="#63b8ff" d="M801.4,-274.05C751.42,-264.13 673.53,-248.67 625.25,-239.08"/>
<polygon fill="#63b8ff" stroke="#63b8ff" points="800.82,-277.5 811.31,-276.02 802.18,-270.64 800.82,-277.5"/>
</a>
</g>
</g>
<!-- Node11 -->
<g id="Node000011" class="node">
<title>Node11</title>
<g id="a_Node000011"><a xlink:href="../../d5/df1/MagicWordType_8hpp.html" target="_top" xlink:title=" ">
<polygon fill="white" stroke="#666666" points="771,-239 657,-239 657,-220 771,-220 771,-239"/>
<text text-anchor="middle" x="714" y="-227" font-family="Helvetica,sans-Serif" font-size="10.00">MagicWordType.hpp</text>
</a>
</g>
</g>
<!-- Node1&#45;&gt;Node11 -->
<g id="edge14_Node000001_Node000011" class="edge">
<title>Node1&#45;&gt;Node11</title>
<g id="a_edge14_Node000001_Node000011"><a xlink:title=" ">
<path fill="none" stroke="#63b8ff" d="M817.9,-271.29C792.88,-261.47 758.34,-247.91 736.08,-239.17"/>
<polygon fill="#63b8ff" stroke="#63b8ff" points="816.72,-274.59 827.31,-274.98 819.28,-268.07 816.72,-274.59"/>
</a>
</g>
</g>
<!-- Node12 -->
<g id="Node000012" class="node">
<title>Node12</title>
<g id="a_Node000012"><a xlink:href="../../d1/d57/McuUidType_8hpp.html" target="_top" xlink:title=" ">
<polygon fill="white" stroke="#666666" points="1610.5,-239 1513.5,-239 1513.5,-220 1610.5,-220 1610.5,-239"/>
<text text-anchor="middle" x="1562" y="-227" font-family="Helvetica,sans-Serif" font-size="10.00">McuUidType.hpp</text>
</a>
</g>
</g>
<!-- Node1&#45;&gt;Node12 -->
<g id="edge16_Node000001_Node000012" class="edge">
<title>Node1&#45;&gt;Node12</title>
<g id="a_edge16_Node000001_Node000012"><a xlink:title=" ">
<path fill="none" stroke="#63b8ff" d="M897.03,-281.52C1005.48,-276.76 1277.52,-263.25 1504,-239 1507.04,-238.67 1510.16,-238.31 1513.3,-237.92"/>
<polygon fill="#63b8ff" stroke="#63b8ff" points="896.59,-278.03 886.75,-281.96 896.89,-285.03 896.59,-278.03"/>
</a>
</g>
</g>
<!-- Node13 -->
<g id="Node000013" class="node">
<title>Node13</title>
<g id="a_Node000013"><a xlink:href="../../de/dd5/UIDPacketType_8hpp.html" target="_top" xlink:title=" ">
<polygon fill="white" stroke="#666666" points="1617,-184 1507,-184 1507,-165 1617,-165 1617,-184"/>
<text text-anchor="middle" x="1562" y="-172" font-family="Helvetica,sans-Serif" font-size="10.00">UIDPacketType.hpp</text>
</a>
</g>
</g>
<!-- Node1&#45;&gt;Node13 -->
<g id="edge28_Node000001_Node000013" class="edge">
<title>Node1&#45;&gt;Node13</title>
<g id="a_edge28_Node000001_Node000013"><a xlink:title=" ">
<path fill="none" stroke="#63b8ff" d="M896.91,-282.53C1061.5,-278.95 1595.11,-265.37 1620,-239 1638.35,-219.56 1602.68,-196.26 1579.56,-184"/>
<polygon fill="#63b8ff" stroke="#63b8ff" points="896.53,-279.03 886.61,-282.75 896.68,-286.03 896.53,-279.03"/>
</a>
</g>
</g>
<!-- Node14 -->
<g id="Node000014" class="node">
<title>Node14</title>
<g id="a_Node000014"><a xlink:href="../../da/d1d/ProductDateType_8hpp.html" target="_top" xlink:title=" ">
<polygon fill="white" stroke="#666666" points="909,-239 789,-239 789,-220 909,-220 909,-239"/>
<text text-anchor="middle" x="849" y="-227" font-family="Helvetica,sans-Serif" font-size="10.00">ProductDateType.hpp</text>
</a>
</g>
</g>
<!-- Node1&#45;&gt;Node14 -->
<g id="edge20_Node000001_Node000014" class="edge">
<title>Node1&#45;&gt;Node14</title>
<g id="a_edge20_Node000001_Node000014"><a xlink:title=" ">
<path fill="none" stroke="#63b8ff" d="M849,-264.66C849,-255.93 849,-245.99 849,-239.09"/>
<polygon fill="#63b8ff" stroke="#63b8ff" points="845.5,-264.75 849,-274.75 852.5,-264.75 845.5,-264.75"/>
</a>
</g>
</g>
<!-- Node15 -->
<g id="Node000015" class="node">
<title>Node15</title>
<g id="a_Node000015"><a xlink:href="../../d7/d11/ProductShelfLifeType_8hpp.html" target="_top" xlink:title=" ">
<polygon fill="white" stroke="#666666" points="1067,-239 927,-239 927,-220 1067,-220 1067,-239"/>
<text text-anchor="middle" x="997" y="-227" font-family="Helvetica,sans-Serif" font-size="10.00">ProductShelfLifeType.hpp</text>
</a>
</g>
</g>
<!-- Node1&#45;&gt;Node15 -->
<g id="edge22_Node000001_Node000015" class="edge">
<title>Node1&#45;&gt;Node15</title>
<g id="a_edge22_Node000001_Node000015"><a xlink:title=" ">
<path fill="none" stroke="#63b8ff" d="M882.37,-271.55C909.85,-261.71 948.17,-247.98 972.79,-239.17"/>
<polygon fill="#63b8ff" stroke="#63b8ff" points="881.01,-268.32 872.78,-274.98 883.37,-274.91 881.01,-268.32"/>
</a>
</g>
</g>
<!-- Node16 -->
<g id="Node000016" class="node">
<title>Node16</title>
<g id="a_Node000016"><a xlink:href="../../d3/d74/ProductVolumeType_8hpp.html" target="_top" xlink:title=" ">
<polygon fill="white" stroke="#666666" points="1219,-239 1085,-239 1085,-220 1219,-220 1219,-239"/>
<text text-anchor="middle" x="1152" y="-227" font-family="Helvetica,sans-Serif" font-size="10.00">ProductVolumeType.hpp</text>
</a>
</g>
</g>
<!-- Node1&#45;&gt;Node16 -->
<g id="edge24_Node000001_Node000016" class="edge">
<title>Node1&#45;&gt;Node16</title>
<g id="a_edge24_Node000001_Node000016"><a xlink:title=" ">
<path fill="none" stroke="#63b8ff" d="M896.85,-275.13C953.24,-265.27 1046.43,-248.97 1103.22,-239.03"/>
<polygon fill="#63b8ff" stroke="#63b8ff" points="896.01,-271.72 886.76,-276.89 897.22,-278.62 896.01,-271.72"/>
</a>
</g>
</g>
<!-- Node17 -->
<g id="Node000017" class="node">
<title>Node17</title>
<g id="a_Node000017"><a xlink:href="../../d2/d37/TimeCounterType_8hpp.html" target="_top" xlink:title=" ">
<polygon fill="white" stroke="#666666" points="1360.5,-239 1237.5,-239 1237.5,-220 1360.5,-220 1360.5,-239"/>
<text text-anchor="middle" x="1299" y="-227" font-family="Helvetica,sans-Serif" font-size="10.00">TimeCounterType.hpp</text>
</a>
</g>
</g>
<!-- Node1&#45;&gt;Node17 -->
<g id="edge26_Node000001_Node000017" class="edge">
<title>Node1&#45;&gt;Node17</title>
<g id="a_edge26_Node000001_Node000017"><a xlink:title=" ">
<path fill="none" stroke="#63b8ff" d="M896.76,-277.93C968.62,-269.53 1108.86,-253.13 1228,-239 1231.08,-238.63 1234.24,-238.26 1237.43,-237.88"/>
<polygon fill="#63b8ff" stroke="#63b8ff" points="896.19,-274.47 886.66,-279.11 897,-281.42 896.19,-274.47"/>
</a>
</g>
</g>
<!-- Node18 -->
<g id="Node000018" class="node">
<title>Node18</title>
<g id="a_Node000018"><a xlink:href="../../d8/dc2/UsageTimeType_8hpp.html" target="_top" xlink:title=" ">
<polygon fill="white" stroke="#666666" points="1495,-239 1379,-239 1379,-220 1495,-220 1495,-239"/>
<text text-anchor="middle" x="1437" y="-227" font-family="Helvetica,sans-Serif" font-size="10.00">UsageTimeType.hpp</text>
</a>
</g>
</g>
<!-- Node1&#45;&gt;Node18 -->
<g id="edge29_Node000001_Node000018" class="edge">
<title>Node1&#45;&gt;Node18</title>
<g id="a_edge29_Node000001_Node000018"><a xlink:title=" ">
<path fill="none" stroke="#63b8ff" d="M896.73,-280.08C988.51,-273.36 1195.93,-257.47 1370,-239 1372.91,-238.69 1375.9,-238.36 1378.91,-238.02"/>
<polygon fill="#63b8ff" stroke="#63b8ff" points="896.36,-276.6 886.64,-280.82 896.87,-283.58 896.36,-276.6"/>
</a>
</g>
</g>
<!-- Node3 -->
<g id="Node000003" class="node">
<title>Node3</title>
<g id="a_Node000003"><a xlink:href="../../d5/dd1/RfidDataTypes_8hpp.html" target="_top" xlink:title=" ">
<polygon fill="white" stroke="#666666" points="902.5,-184 795.5,-184 795.5,-165 902.5,-165 902.5,-184"/>
<text text-anchor="middle" x="849" y="-172" font-family="Helvetica,sans-Serif" font-size="10.00">RfidDataTypes.hpp</text>
</a>
</g>
</g>
<!-- Node2&#45;&gt;Node3 -->
<g id="edge2_Node000002_Node000003" class="edge">
<title>Node2&#45;&gt;Node3</title>
<g id="a_edge2_Node000002_Node000003"><a xlink:title=" ">
<path fill="none" stroke="#63b8ff" d="M144.11,-219.95C393.81,-198.36 678.85,-183.6 795.35,-177.99"/>
<polygon fill="#63b8ff" stroke="#63b8ff" points="143.78,-216.46 134.12,-220.81 144.38,-223.43 143.78,-216.46"/>
</a>
</g>
</g>
<!-- Node4 -->
<g id="Node000004" class="node">
<title>Node4</title>
<g id="a_Node000004"><a xlink:href="../../dd/d58/LacteProtocolPrototype_8hpp.html" target="_top" xlink:title=" ">
<polygon fill="white" stroke="#666666" points="1280.5,-129 1129.5,-129 1129.5,-110 1280.5,-110 1280.5,-129"/>
<text text-anchor="middle" x="1205" y="-117" font-family="Helvetica,sans-Serif" font-size="10.00">LacteProtocolPrototype.hpp</text>
</a>
</g>
</g>
<!-- Node3&#45;&gt;Node4 -->
<g id="edge3_Node000003_Node000004" class="edge">
<title>Node3&#45;&gt;Node4</title>
<g id="a_edge3_Node000003_Node000004"><a xlink:title=" ">
<path fill="none" stroke="#63b8ff" d="M912.66,-164.02C979.4,-154.09 1083.34,-138.61 1147.63,-129.04"/>
<polygon fill="#63b8ff" stroke="#63b8ff" points="912.06,-160.57 902.68,-165.51 913.09,-167.5 912.06,-160.57"/>
</a>
</g>
</g>
<!-- Node5 -->
<g id="Node000005" class="node">
<title>Node5</title>
<g id="a_Node000005"><a xlink:href="../../d9/ddb/LacteProtocol_8hpp.html" target="_top" xlink:title=" ">
<polygon fill="white" stroke="#666666" points="1257,-74 1153,-74 1153,-55 1257,-55 1257,-74"/>
<text text-anchor="middle" x="1205" y="-62" font-family="Helvetica,sans-Serif" font-size="10.00">LacteProtocol.hpp</text>
</a>
</g>
</g>
<!-- Node4&#45;&gt;Node5 -->
<g id="edge4_Node000004_Node000005" class="edge">
<title>Node4&#45;&gt;Node5</title>
<g id="a_edge4_Node000004_Node000005"><a xlink:title=" ">
<path fill="none" stroke="#63b8ff" d="M1205,-99.66C1205,-90.93 1205,-80.99 1205,-74.09"/>
<polygon fill="#63b8ff" stroke="#63b8ff" points="1201.5,-99.75 1205,-109.75 1208.5,-99.75 1201.5,-99.75"/>
</a>
</g>
</g>
<!-- Node6 -->
<g id="Node000006" class="node">
<title>Node6</title>
<g id="a_Node000006"><a xlink:href="../../dc/d80/VirtualBoard_8hpp.html" target="_top" xlink:title=" ">
<polygon fill="white" stroke="#666666" points="1254,-19 1156,-19 1156,0 1254,0 1254,-19"/>
<text text-anchor="middle" x="1205" y="-7" font-family="Helvetica,sans-Serif" font-size="10.00">VirtualBoard.hpp</text>
</a>
</g>
</g>
<!-- Node5&#45;&gt;Node6 -->
<g id="edge5_Node000005_Node000006" class="edge">
<title>Node5&#45;&gt;Node6</title>
<g id="a_edge5_Node000005_Node000006"><a xlink:title=" ">
<path fill="none" stroke="#63b8ff" d="M1205,-44.66C1205,-35.93 1205,-25.99 1205,-19.09"/>
<polygon fill="#63b8ff" stroke="#63b8ff" points="1201.5,-44.75 1205,-54.75 1208.5,-44.75 1201.5,-44.75"/>
</a>
</g>
</g>
<!-- Node7&#45;&gt;Node3 -->
<g id="edge7_Node000007_Node000003" class="edge">
<title>Node7&#45;&gt;Node3</title>
<g id="a_edge7_Node000007_Node000003"><a xlink:title=" ">
<path fill="none" stroke="#63b8ff" d="M287.73,-219.86C480.41,-200.91 696.9,-185.63 795.37,-179.02"/>
<polygon fill="#63b8ff" stroke="#63b8ff" points="287.31,-216.39 277.7,-220.85 288,-223.35 287.31,-216.39"/>
</a>
</g>
</g>
<!-- Node8&#45;&gt;Node3 -->
<g id="edge9_Node000008_Node000003" class="edge">
<title>Node8&#45;&gt;Node3</title>
<g id="a_edge9_Node000008_Node000003"><a xlink:title=" ">
<path fill="none" stroke="#63b8ff" d="M400.82,-219.96C549.98,-201.65 712.93,-186.99 795.34,-179.96"/>
<polygon fill="#63b8ff" stroke="#63b8ff" points="400.06,-216.53 390.56,-221.23 400.92,-223.48 400.06,-216.53"/>
</a>
</g>
</g>
<!-- Node9&#45;&gt;Node3 -->
<g id="edge11_Node000009_Node000003" class="edge">
<title>Node9&#45;&gt;Node3</title>
<g id="a_edge11_Node000009_Node000003"><a xlink:title=" ">
<path fill="none" stroke="#63b8ff" d="M517.13,-219.86C621.63,-205.26 731.55,-190.78 795.33,-182.46"/>
<polygon fill="#63b8ff" stroke="#63b8ff" points="516.46,-216.42 507.04,-221.27 517.43,-223.35 516.46,-216.42"/>
</a>
</g>
</g>
<!-- Node10&#45;&gt;Node3 -->
<g id="edge13_Node000010_Node000003" class="edge">
<title>Node10&#45;&gt;Node3</title>
<g id="a_edge13_Node000010_Node000003"><a xlink:title=" ">
<path fill="none" stroke="#63b8ff" d="M634.88,-218C684.93,-208.07 759.16,-193.33 805.77,-184.08"/>
<polygon fill="#63b8ff" stroke="#63b8ff" points="634.03,-214.6 624.9,-219.98 635.39,-221.47 634.03,-214.6"/>
</a>
</g>
</g>
<!-- Node11&#45;&gt;Node3 -->
<g id="edge15_Node000011_Node000003" class="edge">
<title>Node11&#45;&gt;Node3</title>
<g id="a_edge15_Node000011_Node000003"><a xlink:title=" ">
<path fill="none" stroke="#63b8ff" d="M745.1,-216.29C770.12,-206.47 804.66,-192.91 826.92,-184.17"/>
<polygon fill="#63b8ff" stroke="#63b8ff" points="743.72,-213.07 735.69,-219.98 746.28,-219.59 743.72,-213.07"/>
</a>
</g>
</g>
<!-- Node12&#45;&gt;Node3 -->
<g id="edge17_Node000012_Node000003" class="edge">
<title>Node12&#45;&gt;Node3</title>
<g id="a_edge17_Node000012_Node000003"><a xlink:title=" ">
<path fill="none" stroke="#63b8ff" d="M1503.08,-219.99C1273.53,-195.76 1012.93,-182.62 902.61,-177.73"/>
<polygon fill="#63b8ff" stroke="#63b8ff" points="1502.99,-223.5 1513.3,-221.08 1503.73,-216.54 1502.99,-223.5"/>
</a>
</g>
</g>
<!-- Node12&#45;&gt;Node13 -->
<g id="edge18_Node000012_Node000013" class="edge">
<title>Node12&#45;&gt;Node13</title>
<g id="a_edge18_Node000012_Node000013"><a xlink:title=" ">
<path fill="none" stroke="#63b8ff" d="M1562,-209.66C1562,-200.93 1562,-190.99 1562,-184.09"/>
<polygon fill="#63b8ff" stroke="#63b8ff" points="1558.5,-209.75 1562,-219.75 1565.5,-209.75 1558.5,-209.75"/>
</a>
</g>
</g>
<!-- Node13&#45;&gt;Node4 -->
<g id="edge19_Node000013_Node000004" class="edge">
<title>Node13&#45;&gt;Node4</title>
<g id="a_edge19_Node000013_Node000004"><a xlink:title=" ">
<path fill="none" stroke="#63b8ff" d="M1496.58,-163.79C1429.51,-153.83 1326.24,-138.5 1262.29,-129.01"/>
<polygon fill="#63b8ff" stroke="#63b8ff" points="1496.2,-167.27 1506.61,-165.28 1497.23,-160.35 1496.2,-167.27"/>
</a>
</g>
</g>
<!-- Node14&#45;&gt;Node3 -->
<g id="edge21_Node000014_Node000003" class="edge">
<title>Node14&#45;&gt;Node3</title>
<g id="a_edge21_Node000014_Node000003"><a xlink:title=" ">
<path fill="none" stroke="#63b8ff" d="M849,-209.66C849,-200.93 849,-190.99 849,-184.09"/>
<polygon fill="#63b8ff" stroke="#63b8ff" points="845.5,-209.75 849,-219.75 852.5,-209.75 845.5,-209.75"/>
</a>
</g>
</g>
<!-- Node15&#45;&gt;Node3 -->
<g id="edge23_Node000015_Node000003" class="edge">
<title>Node15&#45;&gt;Node3</title>
<g id="a_edge23_Node000015_Node000003"><a xlink:title=" ">
<path fill="none" stroke="#63b8ff" d="M963.63,-216.55C936.15,-206.71 897.83,-192.98 873.21,-184.17"/>
<polygon fill="#63b8ff" stroke="#63b8ff" points="962.63,-219.91 973.22,-219.98 964.99,-213.32 962.63,-219.91"/>
</a>
</g>
</g>
<!-- Node16&#45;&gt;Node3 -->
<g id="edge25_Node000016_Node000003" class="edge">
<title>Node16&#45;&gt;Node3</title>
<g id="a_edge25_Node000016_Node000003"><a xlink:title=" ">
<path fill="none" stroke="#63b8ff" d="M1093.39,-218.25C1036.49,-208.3 951.13,-193.36 897.81,-184.04"/>
<polygon fill="#63b8ff" stroke="#63b8ff" points="1092.86,-221.71 1103.32,-219.98 1094.07,-214.81 1092.86,-221.71"/>
</a>
</g>
</g>
<!-- Node17&#45;&gt;Node3 -->
<g id="edge27_Node000017_Node000003" class="edge">
<title>Node17&#45;&gt;Node3</title>
<g id="a_edge27_Node000017_Node000003"><a xlink:title=" ">
<path fill="none" stroke="#63b8ff" d="M1227.49,-219.94C1104.92,-205.42 974.17,-190.11 902.67,-181.76"/>
<polygon fill="#63b8ff" stroke="#63b8ff" points="1227.08,-223.42 1237.43,-221.12 1227.91,-216.47 1227.08,-223.42"/>
</a>
</g>
</g>
<!-- Node18&#45;&gt;Node3 -->
<g id="edge30_Node000018_Node000003" class="edge">
<title>Node18&#45;&gt;Node3</title>
<g id="a_edge30_Node000018_Node000003"><a xlink:title=" ">
<path fill="none" stroke="#63b8ff" d="M1368.91,-219.93C1192.14,-201.35 995.5,-186.18 902.7,-179.36"/>
<polygon fill="#63b8ff" stroke="#63b8ff" points="1368.6,-223.41 1378.91,-220.98 1369.34,-216.45 1368.6,-223.41"/>
</a>
</g>
</g>
</g>
</svg>

<g id="navigator" transform="translate(0 0)" fill="#404254">
  <rect fill="#f2f5e9" fill-opacity="0.5" stroke="#606060" stroke-width=".5" x="0" y="0" width="60" height="60"/>
  <use id="zoomplus" xlink:href="#zoomPlus" x="17" y="9" onmousedown="handleZoom(evt,'in')"/>
  <use id="zoomminus" xlink:href="#zoomMin" x="42" y="9" onmousedown="handleZoom(evt,'out')"/>
  <use id="reset" xlink:href="#resetDef" x="30" y="36" onmousedown="handleReset()"/>
   <use id="arrowup" xlink:href="#arrowUp" x="0" y="0" onmousedown="handlePan(0,-1)"/>
  <use id="arrowright" xlink:href="#arrowRight" x="0" y="0" onmousedown="handlePan(1,0)"/>
  <use id="arrowdown" xlink:href="#arrowDown" x="0" y="0" onmousedown="handlePan(0,1)"/>
  <use id="arrowleft" xlink:href="#arrowLeft" x="0" y="0" onmousedown="handlePan(-1,0)"/>
</g>
<svg viewBox="0 0 15 15" width="100%" height="30px" preserveAspectRatio="xMaxYMin meet">
 <g id="arrow_out" transform="scale(0.3 0.3)">
  <a xlink:href="Helpers_8hpp__dep__incl_org.svg" target="_base">
   <rect id="button" ry="5" rx="5" y="6" x="6" height="38" width="38"
        fill="#f2f5e9" fill-opacity="0.5" stroke="#606060" stroke-width="1.0"/>
   <path id="arrow"
     d="M 11.500037,31.436501 C 11.940474,20.09759 22.043105,11.32322 32.158766,21.979434 L 37.068811,17.246167 C 37.068811,17.246167 37.088388,32 37.088388,32 L 22.160133,31.978069 C 22.160133,31.978069 26.997745,27.140456 26.997745,27.140456 C 18.528582,18.264221 13.291696,25.230495 11.500037,31.436501 z"
     style="fill:#404040;"/>
  </a>
 </g>
</svg>

<style type='text/css'>
<![CDATA[
[data-mouse-over-selected='false'] { opacity: 0.7; }
[data-mouse-over-selected='true']  { opacity: 1.0; }
]]>
</style>
<script type="application/ecmascript"><![CDATA[
document.addEventListener('DOMContentLoaded', (event) => {
  highlightEdges();
  highlightAdjacentNodes();
});
]]></script>
</svg>
