<?xml version="1.0" encoding="UTF-8" standalone="no"?>
<!DOCTYPE svg PUBLIC "-//W3C//DTD SVG 1.1//EN"
 "http://www.w3.org/Graphics/SVG/1.1/DTD/svg11.dtd">
<!-- Generated by graphviz version 14.0.1 (20251006.0113)
 -->
<!-- Title: proto::lacte::RFIDDataPacketType Pages: 1 -->
<!--zoomable 479 -->

<svg id="main" version="1.1" xmlns="http://www.w3.org/2000/svg" xmlns:xlink="http://www.w3.org/1999/xlink" xml:space="preserve" onload="init(evt)">

<style type="text/css"><![CDATA[
.node, .edge {opacity: 0.7;}
.node.selected, .edge.selected {opacity: 1;}
.edge:hover path { stroke: red; }
.edge:hover polygon { stroke: red; fill: red; }
]]></style>

<defs>
  <circle id="rim" cx="0" cy="0" r="7"/>
  <circle id="rim2" cx="0" cy="0" r="3.5"/>
  <g id="zoomPlus">
    <use xlink:href="#rim" fill="#404040"><set attributeName="fill" to="#808080" begin="zoomplus.mouseover" end="zoomplus.mouseout"/></use>
    <path d="M-4,0h8M0,-4v8" fill="none" stroke="white" stroke-width="1.5" pointer-events="none"/>
  </g>
  <g id="zoomMin">
    <use xlink:href="#rim" fill="#404040"><set attributeName="fill" to="#808080" begin="zoomminus.mouseover" end="zoomminus.mouseout"/></use>
    <path d="M-4,0h8" fill="none" stroke="white" stroke-width="1.5" pointer-events="none"/>
  </g>
  <g id="arrowUp" transform="translate(30 24)">
    <use xlink:href="#rim"/>
    <path pointer-events="none" fill="none" stroke="white" stroke-width="1.5" d="M0,-3.0v7 M-2.5,-0.5L0,-3.0L2.5,-0.5"/>
  </g>
  <g id="arrowRight" transform="rotate(90) translate(36 -43)">
    <use xlink:href="#rim"/>
    <path pointer-events="none" fill="none" stroke="white" stroke-width="1.5" d="M0,-3.0v7 M-2.5,-0.5L0,-3.0L2.5,-0.5"/>
  </g>
  <g id="arrowDown" transform="rotate(180) translate(-30 -48)">
    <use xlink:href="#rim"/>
    <path pointer-events="none" fill="none" stroke="white" stroke-width="1.5" d="M0,-3.0v7 M-2.5,-0.5L0,-3.0L2.5,-0.5"/>
  </g>
  <g id="arrowLeft" transform="rotate(270) translate(-36 17)">
    <use xlink:href="#rim"/>
    <path pointer-events="none" fill="none" stroke="white" stroke-width="1.5" d="M0,-3.0v7 M-2.5,-0.5L0,-3.0L2.5,-0.5"/>
  </g>
  <g id="resetDef">
    <use xlink:href="#rim2" fill="#404040"><set attributeName="fill" to="#808080" begin="reset.mouseover" end="reset.mouseout"/></use>
  </g>
</defs>
<script type="application/ecmascript">
var viewWidth = 439;
var viewHeight = 479;
var sectionId = 'dynsection-0';
</script>
<script type="application/ecmascript" xlink:href="../../svg.min.js"/>
<svg id="graph" class="graph">
<g id="viewport">
<title>proto::lacte::RFIDDataPacketType</title>
<!-- Node1 -->
<g id="Node000001" class="node">
<title>Node1</title>
<g id="a_Node000001"><a xlink:title=" ">
<polygon fill="#999999" stroke="#666666" points="431,-239.63 263.5,-239.63 263.5,-220.38 431,-220.38 431,-239.63"/>
<text xml:space="preserve" text-anchor="middle" x="347.25" y="-226.13" font-family="Helvetica,sans-Serif" font-size="10.00">proto::lacte::RFIDDataPacketType</text>
</a>
</g>
</g>
<!-- Node2 -->
<g id="Node000002" class="node">
<title>Node2</title>
<g id="a_Node000002"><a xlink:href="../../df/dd7/structproto_1_1lacte_1_1_magic_word.html" target="_top" xlink:title=" ">
<polygon fill="white" stroke="#666666" points="131.12,-459.63 11.63,-459.63 11.63,-440.38 131.12,-440.38 131.12,-459.63"/>
<text xml:space="preserve" text-anchor="middle" x="71.38" y="-446.13" font-family="Helvetica,sans-Serif" font-size="10.00">proto::lacte::MagicWord</text>
</a>
</g>
</g>
<!-- Node2&#45;&gt;Node1 -->
<g id="edge1_Node000001_Node000002" class="edge">
<title>Node2&#45;&gt;Node1</title>
<g id="a_edge1_Node000001_Node000002"><a xlink:title=" ">
<path fill="none" stroke="#9a32cd" stroke-dasharray="5,2" d="M142.7,-455.19C176.52,-454.27 216.02,-447.84 245.5,-427.01 312.96,-379.35 338.17,-272.79 344.52,-239.88"/>
<polygon fill="#9a32cd" stroke="#9a32cd" points="142.94,-451.68 132.98,-455.28 143.01,-458.68 142.94,-451.68"/>
</a>
</g>
<text xml:space="preserve" text-anchor="start" x="172" y="-458.82" font-family="Helvetica,sans-Serif" font-size="10.00" fill="grey">m_magicWord</text>
</g>
<!-- Node3 -->
<g id="Node000003" class="node">
<title>Node3</title>
<g id="a_Node000003"><a xlink:href="../../d0/d28/structproto_1_1lacte_1_1_lacte_id.html" target="_top" xlink:title=" ">
<polygon fill="white" stroke="#666666" points="122.88,-419.63 19.88,-419.63 19.88,-400.38 122.88,-400.38 122.88,-419.63"/>
<text xml:space="preserve" text-anchor="middle" x="71.38" y="-406.13" font-family="Helvetica,sans-Serif" font-size="10.00">proto::lacte::LacteId</text>
</a>
</g>
</g>
<!-- Node3&#45;&gt;Node1 -->
<g id="edge2_Node000001_Node000003" class="edge">
<title>Node3&#45;&gt;Node1</title>
<g id="a_edge2_Node000001_Node000003"><a xlink:title=" ">
<path fill="none" stroke="#9a32cd" stroke-dasharray="5,2" d="M134.41,-407.63C176.39,-404.99 227.39,-399.48 245.5,-388.01 303.21,-351.44 334.04,-268.55 343.25,-239.94"/>
<polygon fill="#9a32cd" stroke="#9a32cd" points="134.41,-404.12 124.63,-408.2 134.81,-411.11 134.41,-404.12"/>
</a>
</g>
<text xml:space="preserve" text-anchor="start" x="181.75" y="-410.38" font-family="Helvetica,sans-Serif" font-size="10.00" fill="grey">m_lacteId</text>
</g>
<!-- Node4 -->
<g id="Node000004" class="node">
<title>Node4</title>
<g id="a_Node000004"><a xlink:href="../../d7/d8d/structproto_1_1lacte_1_1_lacte_sn.html" target="_top" xlink:title=" ">
<polygon fill="white" stroke="#666666" points="124.75,-379.63 18,-379.63 18,-360.38 124.75,-360.38 124.75,-379.63"/>
<text xml:space="preserve" text-anchor="middle" x="71.38" y="-366.13" font-family="Helvetica,sans-Serif" font-size="10.00">proto::lacte::LacteSn</text>
</a>
</g>
</g>
<!-- Node4&#45;&gt;Node1 -->
<g id="edge3_Node000001_Node000004" class="edge">
<title>Node4&#45;&gt;Node1</title>
<g id="a_edge3_Node000001_Node000004"><a xlink:title=" ">
<path fill="none" stroke="#9a32cd" stroke-dasharray="5,2" d="M136.24,-371.27C170.46,-369.45 212.29,-363.04 245.5,-345.01 292.39,-319.55 327.76,-263.18 340.79,-240.13"/>
<polygon fill="#9a32cd" stroke="#9a32cd" points="136.31,-367.77 126.46,-371.67 136.59,-374.76 136.31,-367.77"/>
</a>
</g>
<text xml:space="preserve" text-anchor="start" x="179.88" y="-373.55" font-family="Helvetica,sans-Serif" font-size="10.00" fill="grey">m_lacteSn</text>
</g>
<!-- Node5 -->
<g id="Node000005" class="node">
<title>Node5</title>
<g id="a_Node000005"><a xlink:href="../../df/d79/structproto_1_1lacte_1_1_product_volume.html" target="_top" xlink:title=" ">
<polygon fill="white" stroke="#666666" points="140.12,-339.63 2.62,-339.63 2.62,-320.38 140.12,-320.38 140.12,-339.63"/>
<text xml:space="preserve" text-anchor="middle" x="71.38" y="-326.13" font-family="Helvetica,sans-Serif" font-size="10.00">proto::lacte::ProductVolume</text>
</a>
</g>
</g>
<!-- Node5&#45;&gt;Node1 -->
<g id="edge4_Node000001_Node000005" class="edge">
<title>Node5&#45;&gt;Node1</title>
<g id="a_edge4_Node000001_Node000005"><a xlink:title=" ">
<path fill="none" stroke="#9a32cd" stroke-dasharray="5,2" d="M151.86,-324.88C182.03,-320.96 216.16,-314.08 245.5,-302.01 282.28,-286.87 318.52,-256.01 335.79,-240.06"/>
<polygon fill="#9a32cd" stroke="#9a32cd" points="151.53,-321.4 142.02,-326.06 152.36,-328.35 151.53,-321.4"/>
</a>
</g>
<text xml:space="preserve" text-anchor="start" x="163.75" y="-328.15" font-family="Helvetica,sans-Serif" font-size="10.00" fill="grey">m_productVolume</text>
</g>
<!-- Node6 -->
<g id="Node000006" class="node">
<title>Node6</title>
<g id="a_Node000006"><a xlink:href="../../d6/deb/structproto_1_1lacte_1_1_prod_date.html" target="_top" xlink:title=" ">
<polygon fill="white" stroke="#666666" points="127.38,-299.63 15.38,-299.63 15.38,-280.38 127.38,-280.38 127.38,-299.63"/>
<text xml:space="preserve" text-anchor="middle" x="71.38" y="-286.13" font-family="Helvetica,sans-Serif" font-size="10.00">proto::lacte::ProdDate</text>
</a>
</g>
</g>
<!-- Node6&#45;&gt;Node1 -->
<g id="edge5_Node000001_Node000006" class="edge">
<title>Node6&#45;&gt;Node1</title>
<g id="a_edge5_Node000001_Node000006"><a xlink:title=" ">
<path fill="none" stroke="#9a32cd" stroke-dasharray="5,2" d="M139.01,-283.4C171.43,-279.42 210.79,-273.46 245.5,-265.01 272.13,-258.52 301.64,-247.84 321.8,-239.98"/>
<polygon fill="#9a32cd" stroke="#9a32cd" points="138.88,-279.89 129.36,-284.55 139.7,-286.84 138.88,-279.89"/>
</a>
</g>
<text xml:space="preserve" text-anchor="start" x="176.5" y="-285.28" font-family="Helvetica,sans-Serif" font-size="10.00" fill="grey">m_prodDate</text>
</g>
<!-- Node7 -->
<g id="Node000007" class="node">
<title>Node7</title>
<g id="a_Node000007"><a xlink:href="../../d9/d99/structproto_1_1lacte_1_1_product_shelf_life.html" target="_top" xlink:title=" ">
<polygon fill="white" stroke="#666666" points="142.75,-259.63 0,-259.63 0,-240.38 142.75,-240.38 142.75,-259.63"/>
<text xml:space="preserve" text-anchor="middle" x="71.38" y="-246.13" font-family="Helvetica,sans-Serif" font-size="10.00">proto::lacte::ProductShelfLife</text>
</a>
</g>
</g>
<!-- Node7&#45;&gt;Node1 -->
<g id="edge6_Node000001_Node000007" class="edge">
<title>Node7&#45;&gt;Node1</title>
<g id="a_edge6_Node000001_Node000007"><a xlink:title=" ">
<path fill="none" stroke="#9a32cd" stroke-dasharray="5,2" d="M154.35,-244.02C188.79,-241.51 228.78,-238.59 263.31,-236.07"/>
<polygon fill="#9a32cd" stroke="#9a32cd" points="154.13,-240.53 144.41,-244.75 154.64,-247.51 154.13,-240.53"/>
</a>
</g>
<text xml:space="preserve" text-anchor="start" x="178" y="-248.29" font-family="Helvetica,sans-Serif" font-size="10.00" fill="grey">m_shelfLife</text>
</g>
<!-- Node8 -->
<g id="Node000008" class="node">
<title>Node8</title>
<g id="a_Node000008"><a xlink:href="../../d1/d60/structproto_1_1lacte_1_1_usage_time.html" target="_top" xlink:title=" ">
<polygon fill="white" stroke="#666666" points="131.88,-219.63 10.88,-219.63 10.88,-200.38 131.88,-200.38 131.88,-219.63"/>
<text xml:space="preserve" text-anchor="middle" x="71.38" y="-206.13" font-family="Helvetica,sans-Serif" font-size="10.00">proto::lacte::UsageTime</text>
</a>
</g>
</g>
<!-- Node8&#45;&gt;Node1 -->
<g id="edge7_Node000001_Node000008" class="edge">
<title>Node8&#45;&gt;Node1</title>
<g id="a_edge7_Node000001_Node000008"><a xlink:title=" ">
<path fill="none" stroke="#9a32cd" stroke-dasharray="5,2" d="M143.41,-211.31C174.75,-212.26 212,-213.91 245.5,-216.76 255.26,-217.59 265.52,-218.68 275.61,-219.88"/>
<polygon fill="#9a32cd" stroke="#9a32cd" points="143.76,-207.82 133.66,-211.03 143.56,-214.81 143.76,-207.82"/>
</a>
</g>
<text xml:space="preserve" text-anchor="start" x="172.38" y="-221.51" font-family="Helvetica,sans-Serif" font-size="10.00" fill="grey">m_usageTime</text>
</g>
<!-- Node9 -->
<g id="Node000009" class="node">
<title>Node9</title>
<g id="a_Node000009"><a xlink:href="../../da/dbe/structproto_1_1lacte_1_1_mcu_uid.html" target="_top" xlink:title=" ">
<polygon fill="white" stroke="#666666" points="123.62,-179.63 19.12,-179.63 19.12,-160.38 123.62,-160.38 123.62,-179.63"/>
<text xml:space="preserve" text-anchor="middle" x="71.38" y="-166.13" font-family="Helvetica,sans-Serif" font-size="10.00">proto::lacte::McuUid</text>
</a>
</g>
</g>
<!-- Node9&#45;&gt;Node1 -->
<g id="edge8_Node000001_Node000009" class="edge">
<title>Node9&#45;&gt;Node1</title>
<g id="a_edge8_Node000001_Node000009"><a xlink:title=" ">
<path fill="none" stroke="#9a32cd" stroke-dasharray="5,2" d="M135.12,-173.7C168.31,-176.61 209.51,-181.75 245.5,-190.76 273.91,-197.87 305.11,-210.89 325.14,-219.98"/>
<polygon fill="#9a32cd" stroke="#9a32cd" points="135.51,-170.22 125.25,-172.88 134.93,-177.19 135.51,-170.22"/>
</a>
</g>
<text xml:space="preserve" text-anchor="start" x="179.5" y="-195.51" font-family="Helvetica,sans-Serif" font-size="10.00" fill="grey">m_mcuUid</text>
</g>
<!-- Node10 -->
<g id="Node000010" class="node">
<title>Node10</title>
<g id="a_Node000010"><a xlink:href="../../d8/d8a/structproto_1_1lacte_1_1_machine_sn.html" target="_top" xlink:title=" ">
<polygon fill="white" stroke="#666666" points="131.12,-139.63 11.63,-139.63 11.63,-120.38 131.12,-120.38 131.12,-139.63"/>
<text xml:space="preserve" text-anchor="middle" x="71.38" y="-126.13" font-family="Helvetica,sans-Serif" font-size="10.00">proto::lacte::MachineSn</text>
</a>
</g>
</g>
<!-- Node10&#45;&gt;Node1 -->
<g id="edge9_Node000001_Node000010" class="edge">
<title>Node10&#45;&gt;Node1</title>
<g id="a_edge9_Node000001_Node000010"><a xlink:title=" ">
<path fill="none" stroke="#9a32cd" stroke-dasharray="5,2" d="M142.75,-132.13C175.05,-135.08 213.24,-141.43 245.5,-154.76 283.23,-170.35 319.6,-203.31 336.46,-219.95"/>
<polygon fill="#9a32cd" stroke="#9a32cd" points="143.36,-128.67 133.11,-131.35 142.79,-135.65 143.36,-128.67"/>
</a>
</g>
<text xml:space="preserve" text-anchor="start" x="172" y="-159.51" font-family="Helvetica,sans-Serif" font-size="10.00" fill="grey">m_machineSn</text>
</g>
<!-- Node11 -->
<g id="Node000011" class="node">
<title>Node11</title>
<g id="a_Node000011"><a xlink:href="../../de/d0a/structproto_1_1lacte_1_1_activation_time.html" target="_top" xlink:title=" ">
<polygon fill="white" stroke="#666666" points="139.38,-99.63 3.38,-99.63 3.38,-80.38 139.38,-80.38 139.38,-99.63"/>
<text xml:space="preserve" text-anchor="middle" x="71.38" y="-86.13" font-family="Helvetica,sans-Serif" font-size="10.00">proto::lacte::ActivationTime</text>
</a>
</g>
</g>
<!-- Node11&#45;&gt;Node1 -->
<g id="edge10_Node000001_Node000011" class="edge">
<title>Node11&#45;&gt;Node1</title>
<g id="a_edge10_Node000001_Node000011"><a xlink:title=" ">
<path fill="none" stroke="#9a32cd" stroke-dasharray="5,2" d="M150.78,-88.45C181.83,-90.78 216.88,-97.28 245.5,-112.76 293.19,-138.55 328.35,-196.64 341.06,-220"/>
<polygon fill="#9a32cd" stroke="#9a32cd" points="151.24,-84.98 141.04,-87.87 150.81,-91.96 151.24,-84.98"/>
</a>
</g>
<text xml:space="preserve" text-anchor="start" x="164.5" y="-117.51" font-family="Helvetica,sans-Serif" font-size="10.00" fill="grey">m_activationTime</text>
</g>
<!-- Node12 -->
<g id="Node000012" class="node">
<title>Node12</title>
<g id="a_Node000012"><a xlink:href="../../d9/d0c/structproto_1_1lacte_1_1_drink_counter.html" target="_top" xlink:title=" ">
<polygon fill="white" stroke="#666666" points="135.62,-59.63 7.12,-59.63 7.12,-40.38 135.62,-40.38 135.62,-59.63"/>
<text xml:space="preserve" text-anchor="middle" x="71.38" y="-46.13" font-family="Helvetica,sans-Serif" font-size="10.00">proto::lacte::DrinkCounter</text>
</a>
</g>
</g>
<!-- Node12&#45;&gt;Node1 -->
<g id="edge11_Node000001_Node000012" class="edge">
<title>Node12&#45;&gt;Node1</title>
<g id="a_edge11_Node000001_Node000012"><a xlink:title=" ">
<path fill="none" stroke="#9a32cd" stroke-dasharray="5,2" d="M147.24,-44.04C179.62,-44.86 216.63,-50.66 245.5,-68.76 304.51,-105.76 334.69,-191.31 343.48,-220.24"/>
<polygon fill="#9a32cd" stroke="#9a32cd" points="147.54,-40.54 137.51,-43.96 147.48,-47.54 147.54,-40.54"/>
</a>
</g>
<text xml:space="preserve" text-anchor="start" x="168.62" y="-73.51" font-family="Helvetica,sans-Serif" font-size="10.00" fill="grey">m_drinkCounter</text>
</g>
<!-- Node13 -->
<g id="Node000013" class="node">
<title>Node13</title>
<g id="a_Node000013"><a xlink:href="../../dc/dc4/structproto_1_1lacte_1_1_time_counter.html" target="_top" xlink:title=" ">
<polygon fill="white" stroke="#666666" points="134.88,-19.63 7.87,-19.63 7.87,-0.38 134.88,-0.38 134.88,-19.63"/>
<text xml:space="preserve" text-anchor="middle" x="71.38" y="-6.13" font-family="Helvetica,sans-Serif" font-size="10.00">proto::lacte::TimeCounter</text>
</a>
</g>
</g>
<!-- Node13&#45;&gt;Node1 -->
<g id="edge12_Node000001_Node000013" class="edge">
<title>Node13&#45;&gt;Node1</title>
<g id="a_edge12_Node000001_Node000013"><a xlink:title=" ">
<path fill="none" stroke="#9a32cd" stroke-dasharray="5,2" d="M146.43,-0.16C179.32,0.47 216.96,-4.33 245.5,-23.76 316.65,-72.21 339.46,-185.73 344.85,-220.02"/>
<polygon fill="#9a32cd" stroke="#9a32cd" points="146.38,3.34 136.53,-0.53 146.65,-3.65 146.38,3.34"/>
</a>
</g>
<text xml:space="preserve" text-anchor="start" x="169.75" y="-28.51" font-family="Helvetica,sans-Serif" font-size="10.00" fill="grey">m_timeCounter</text>
</g>
</g>
</svg>

<g id="navigator" transform="translate(0 0)" fill="#404254">
  <rect fill="#f2f5e9" fill-opacity="0.5" stroke="#606060" stroke-width=".5" x="0" y="0" width="60" height="60"/>
  <use id="zoomplus" xlink:href="#zoomPlus" x="17" y="9" onmousedown="handleZoom(evt,'in')"/>
  <use id="zoomminus" xlink:href="#zoomMin" x="42" y="9" onmousedown="handleZoom(evt,'out')"/>
  <use id="reset" xlink:href="#resetDef" x="30" y="36" onmousedown="handleReset()"/>
   <use id="arrowup" xlink:href="#arrowUp" x="0" y="0" onmousedown="handlePan(0,-1)"/>
  <use id="arrowright" xlink:href="#arrowRight" x="0" y="0" onmousedown="handlePan(1,0)"/>
  <use id="arrowdown" xlink:href="#arrowDown" x="0" y="0" onmousedown="handlePan(0,1)"/>
  <use id="arrowleft" xlink:href="#arrowLeft" x="0" y="0" onmousedown="handlePan(-1,0)"/>
</g>
<svg viewBox="0 0 15 15" width="100%" height="30px" preserveAspectRatio="xMaxYMin meet">
 <g id="arrow_out" transform="scale(0.3 0.3)">
  <a xlink:href="structproto_1_1lacte_1_1_r_f_i_d_data_packet_type__coll__graph_org.svg" target="_base">
   <rect id="button" ry="5" rx="5" y="6" x="6" height="38" width="38"
        fill="#f2f5e9" fill-opacity="0.5" stroke="#606060" stroke-width="1.0"/>
   <path id="arrow"
     d="M 11.500037,31.436501 C 11.940474,20.09759 22.043105,11.32322 32.158766,21.979434 L 37.068811,17.246167 C 37.068811,17.246167 37.088388,32 37.088388,32 L 22.160133,31.978069 C 22.160133,31.978069 26.997745,27.140456 26.997745,27.140456 C 18.528582,18.264221 13.291696,25.230495 11.500037,31.436501 z"
     style="fill:#404040;"/>
  </a>
 </g>
</svg>

<style type='text/css'>
<![CDATA[
[data-mouse-over-selected='false'] { opacity: 0.7; }
[data-mouse-over-selected='true']  { opacity: 1.0; }
]]>
</style>
<script type="application/ecmascript"><![CDATA[
document.addEventListener('DOMContentLoaded', (event) => {
  highlightEdges();
  highlightAdjacentNodes();
});
]]></script>
</svg>
