<?xml version="1.0" encoding="UTF-8" standalone="no"?>
<!DOCTYPE svg PUBLIC "-//W3C//DTD SVG 1.1//EN"
 "http://www.w3.org/Graphics/SVG/1.1/DTD/svg11.dtd">
<!-- Generated by graphviz version 2.43.0 (0)
 -->
<!-- Title: proto::RxContainer&lt; Fields, TCrc &gt; Pages: 1 -->
<svg width="144pt" height="182pt"
 viewBox="0.00 0.00 144.00 182.00" xmlns="http://www.w3.org/2000/svg" xmlns:xlink="http://www.w3.org/1999/xlink">
<g id="graph0" class="graph" transform="scale(1 1) rotate(0) translate(4 178)">
<title>proto::RxContainer&lt; Fields, TCrc &gt;</title>
<!-- Node1 -->
<g id="Node000001" class="node">
<title>Node1</title>
<g id="a_Node000001"><a xlink:title="Incremental parser for protocol frames based on field prototypes.">
<polygon fill="#999999" stroke="#666666" points="122,-30 14,-30 14,0 122,0 122,-30"/>
<text text-anchor="start" x="22" y="-18" font-family="Helvetica,sans-Serif" font-size="10.00">proto::RxContainer</text>
<text text-anchor="middle" x="68" y="-7" font-family="Helvetica,sans-Serif" font-size="10.00">&lt; Fields, TCrc &gt;</text>
</a>
</g>
</g>
<!-- Node2 -->
<g id="Node000002" class="node">
<title>Node2</title>
<g id="a_Node000002"><a xlink:href="../../d5/d09/classproto_1_1FieldContainer.html" target="_top" xlink:title="Generic container for protocol fields with CRC and debug support.">
<polygon fill="white" stroke="#666666" points="127.5,-97 8.5,-97 8.5,-67 127.5,-67 127.5,-97"/>
<text text-anchor="start" x="16.5" y="-85" font-family="Helvetica,sans-Serif" font-size="10.00">proto::FieldContainer</text>
<text text-anchor="middle" x="68" y="-74" font-family="Helvetica,sans-Serif" font-size="10.00">&lt; Fields, TCrc &gt;</text>
</a>
</g>
</g>
<!-- Node2&#45;&gt;Node1 -->
<g id="edge1_Node000001_Node000002" class="edge">
<title>Node2&#45;&gt;Node1</title>
<g id="a_edge1_Node000001_Node000002"><a xlink:title=" ">
<path fill="none" stroke="#63b8ff" d="M68,-56.61C68,-47.65 68,-37.82 68,-30.08"/>
<polygon fill="#63b8ff" stroke="#63b8ff" points="64.5,-56.9 68,-66.9 71.5,-56.9 64.5,-56.9"/>
</a>
</g>
</g>
<!-- Node3 -->
<g id="Node000003" class="node">
<title>Node3</title>
<g id="a_Node000003"><a xlink:href="../../d6/df7/structproto_1_1TransformToFieldsTuple.html" target="_top" xlink:title=" ">
<polygon fill="white" stroke="#666666" points="136,-174 0,-174 0,-144 136,-144 136,-174"/>
<text text-anchor="start" x="8" y="-162" font-family="Helvetica,sans-Serif" font-size="10.00">proto::TransformToFields</text>
<text text-anchor="middle" x="68" y="-151" font-family="Helvetica,sans-Serif" font-size="10.00">Tuple&lt; Fields &gt;</text>
</a>
</g>
</g>
<!-- Node3&#45;&gt;Node2 -->
<g id="edge2_Node000002_Node000003" class="edge">
<title>Node3&#45;&gt;Node2</title>
<g id="a_edge2_Node000002_Node000003"><a xlink:title=" ">
<path fill="none" stroke="#9a32cd" stroke-dasharray="5,2" d="M68,-133.54C68,-121.45 68,-107.29 68,-97.04"/>
<polygon fill="#9a32cd" stroke="#9a32cd" points="64.5,-133.89 68,-143.89 71.5,-133.89 64.5,-133.89"/>
</a>
</g>
<text text-anchor="middle" x="90.5" y="-118" font-family="Helvetica,sans-Serif" font-size="10.00" fill="grey"> m_fields</text>
</g>
</g>
</svg>
