<?xml version="1.0" encoding="UTF-8" standalone="no"?>
<!DOCTYPE svg PUBLIC "-//W3C//DTD SVG 1.1//EN"
 "http://www.w3.org/Graphics/SVG/1.1/DTD/svg11.dtd">
<!-- Generated by graphviz version 14.0.1 (20251006.0113)
 -->
<!-- Title: Crc.hpp Pages: 1 -->
<svg width="175pt" height="138pt"
 viewBox="0.00 0.00 175.00 138.00" xmlns="http://www.w3.org/2000/svg" xmlns:xlink="http://www.w3.org/1999/xlink">
<g id="graph0" class="graph" transform="scale(1 1) rotate(0) translate(4 133.75)">
<title>Crc.hpp</title>
<!-- Node1 -->
<g id="Node000001" class="node">
<title>Node1</title>
<g id="a_Node000001"><a xlink:title=" ">
<polygon fill="#999999" stroke="#666666" points="90.88,-129.75 40.38,-129.75 40.38,-110.5 90.88,-110.5 90.88,-129.75"/>
<text xml:space="preserve" text-anchor="middle" x="65.62" y="-116.25" font-family="Helvetica,sans-Serif" font-size="10.00">Crc.hpp</text>
</a>
</g>
</g>
<!-- Node2 -->
<g id="Node000002" class="node">
<title>Node2</title>
<g id="a_Node000002"><a xlink:title=" ">
<polygon fill="#e0e0e0" stroke="#999999" points="45.25,-74.5 0,-74.5 0,-55.25 45.25,-55.25 45.25,-74.5"/>
<text xml:space="preserve" text-anchor="middle" x="22.62" y="-61" font-family="Helvetica,sans-Serif" font-size="10.00">cstdint</text>
</a>
</g>
</g>
<!-- Node1&#45;&gt;Node2 -->
<g id="edge1_Node000001_Node000002" class="edge">
<title>Node1&#45;&gt;Node2</title>
<g id="a_edge1_Node000001_Node000002"><a xlink:title=" ">
<path fill="none" stroke="#63b8ff" d="M58.52,-110.33C52.71,-103.13 44.29,-92.71 37.07,-83.76"/>
<polygon fill="#63b8ff" stroke="#63b8ff" points="39.84,-81.62 30.83,-76.04 34.39,-86.02 39.84,-81.62"/>
</a>
</g>
</g>
<!-- Node3 -->
<g id="Node000003" class="node">
<title>Node3</title>
<g id="a_Node000003"><a xlink:href="../../de/ddc/_custom_span_8hpp.html" target="_top" xlink:title=" ">
<polygon fill="white" stroke="#666666" points="155.5,-74.5 63.75,-74.5 63.75,-55.25 155.5,-55.25 155.5,-74.5"/>
<text xml:space="preserve" text-anchor="middle" x="109.62" y="-61" font-family="Helvetica,sans-Serif" font-size="10.00">CustomSpan.hpp</text>
</a>
</g>
</g>
<!-- Node1&#45;&gt;Node3 -->
<g id="edge2_Node000001_Node000003" class="edge">
<title>Node1&#45;&gt;Node3</title>
<g id="a_edge2_Node000001_Node000003"><a xlink:title=" ">
<path fill="none" stroke="#63b8ff" d="M72.89,-110.33C78.91,-103.05 87.64,-92.48 95.08,-83.48"/>
<polygon fill="#63b8ff" stroke="#63b8ff" points="97.57,-85.96 101.24,-76.03 92.17,-81.51 97.57,-85.96"/>
</a>
</g>
</g>
<!-- Node4 -->
<g id="Node000004" class="node">
<title>Node4</title>
<g id="a_Node000004"><a xlink:title=" ">
<polygon fill="#e0e0e0" stroke="#999999" points="100.75,-19.25 52.5,-19.25 52.5,0 100.75,0 100.75,-19.25"/>
<text xml:space="preserve" text-anchor="middle" x="76.62" y="-5.75" font-family="Helvetica,sans-Serif" font-size="10.00">cassert</text>
</a>
</g>
</g>
<!-- Node3&#45;&gt;Node4 -->
<g id="edge3_Node000003_Node000004" class="edge">
<title>Node3&#45;&gt;Node4</title>
<g id="a_edge3_Node000003_Node000004"><a xlink:title=" ">
<path fill="none" stroke="#63b8ff" d="M104.18,-55.08C99.85,-48.11 93.66,-38.12 88.24,-29.37"/>
<polygon fill="#63b8ff" stroke="#63b8ff" points="91.23,-27.55 82.99,-20.9 85.28,-31.24 91.23,-27.55"/>
</a>
</g>
</g>
<!-- Node5 -->
<g id="Node000005" class="node">
<title>Node5</title>
<g id="a_Node000005"><a xlink:title=" ">
<polygon fill="#e0e0e0" stroke="#999999" points="166.75,-19.25 118.5,-19.25 118.5,0 166.75,0 166.75,-19.25"/>
<text xml:space="preserve" text-anchor="middle" x="142.62" y="-5.75" font-family="Helvetica,sans-Serif" font-size="10.00">cstddef</text>
</a>
</g>
</g>
<!-- Node3&#45;&gt;Node5 -->
<g id="edge4_Node000003_Node000005" class="edge">
<title>Node3&#45;&gt;Node5</title>
<g id="a_edge4_Node000003_Node000005"><a xlink:title=" ">
<path fill="none" stroke="#63b8ff" d="M115.07,-55.08C119.4,-48.11 125.59,-38.12 131.01,-29.37"/>
<polygon fill="#63b8ff" stroke="#63b8ff" points="133.97,-31.24 136.26,-20.9 128.02,-27.55 133.97,-31.24"/>
</a>
</g>
</g>
</g>
</svg>
