<?xml version="1.0" encoding="UTF-8" standalone="no"?>
<!DOCTYPE svg PUBLIC "-//W3C//DTD SVG 1.1//EN"
 "http://www.w3.org/Graphics/SVG/1.1/DTD/svg11.dtd">
<!-- Generated by graphviz version 2.43.0 (0)
 -->
<!-- Title: lacte Pages: 1 -->
<svg width="182pt" height="204pt"
 viewBox="0.00 0.00 182.00 204.00" xmlns="http://www.w3.org/2000/svg" xmlns:xlink="http://www.w3.org/1999/xlink">
<g id="graph0" class="graph" transform="scale(1 1) rotate(0) translate(4 200)">
<title>lacte</title>
<g id="clust1" class="cluster">
<title>clusterdir_5280ec33e0efe019e655258f927f0b9b</title>
<g id="a_clust1"><a xlink:href="dir_5280ec33e0efe019e655258f927f0b9b.html" target="_top" xlink:title="protocols">
<polygon fill="#edf0f7" stroke="#404040" stroke-dasharray="5,2" points="8,-8 8,-188 114,-188 114,-8 8,-8"/>
<text text-anchor="middle" x="61" y="-176" font-family="Helvetica,sans-Serif" font-size="10.00">protocols</text>
</a>
</g>
</g>
<g id="clust2" class="cluster">
<title>clusterdir_1ae6f3a1723d1c5a98056be5e8cfa268</title>
<g id="a_clust2"><a xlink:href="dir_1ae6f3a1723d1c5a98056be5e8cfa268.html" target="_top">
<polygon fill="#edf0f7" stroke="#404040" stroke-width="2" points="16,-16 16,-161 106,-161 106,-16 16,-16"/>
</a>
</g>
</g>
<!-- dir_1ae6f3a1723d1c5a98056be5e8cfa268 -->
<g id="node1" class="node">
<title>dir_1ae6f3a1723d1c5a98056be5e8cfa268</title>
<text text-anchor="middle" x="71" y="-141" font-family="Helvetica,sans-Serif" font-size="10.00">lacte</text>
</g>
<!-- dir_941d5b4d4b1759b6bddb304046397e8f -->
<g id="node2" class="node">
<title>dir_941d5b4d4b1759b6bddb304046397e8f</title>
<g id="a_node2"><a xlink:href="dir_941d5b4d4b1759b6bddb304046397e8f.html" target="_top" xlink:title="objects">
<polygon fill="#a2b4d6" stroke="#404040" points="86,-43 34,-43 34,-24 86,-24 86,-43"/>
<text text-anchor="middle" x="60" y="-31" font-family="Helvetica,sans-Serif" font-size="10.00">objects</text>
</a>
</g>
</g>
<!-- dir_1ae6f3a1723d1c5a98056be5e8cfa268&#45;&gt;dir_941d5b4d4b1759b6bddb304046397e8f -->
<g id="edge2" class="edge">
<title>dir_1ae6f3a1723d1c5a98056be5e8cfa268&#45;&gt;dir_941d5b4d4b1759b6bddb304046397e8f</title>
<g id="a_edge2"><a xlink:href="dir_000005_000006.html" target="_top">
<path fill="none" stroke="#63b8ff" d="M60.84,-133.81C52.1,-125.6 40.1,-112.43 35,-98 29.34,-82 37.84,-64.03 46.43,-51.3"/>
<polygon fill="#63b8ff" stroke="#63b8ff" points="49.38,-53.18 52.49,-43.06 43.75,-49.03 49.38,-53.18"/>
</a>
</g>
<g id="a_edge2&#45;headlabel"><a xlink:href="dir_000005_000006.html" target="_top" xlink:title="5">
<text text-anchor="middle" x="49.54" y="-55.26" font-family="Helvetica,sans-Serif" font-size="10.00" fill="#63b8ff">5</text>
</a>
</g>
</g>
<!-- dir_74d46dd14b816f65d3bfa54df9ddf165 -->
<g id="node3" class="node">
<title>dir_74d46dd14b816f65d3bfa54df9ddf165</title>
<g id="a_node3"><a xlink:href="dir_74d46dd14b816f65d3bfa54df9ddf165.html" target="_top" xlink:title="packets">
<polygon fill="#a2b4d6" stroke="#404040" points="98,-98 44,-98 44,-79 98,-79 98,-98"/>
<text text-anchor="middle" x="71" y="-86" font-family="Helvetica,sans-Serif" font-size="10.00">packets</text>
</a>
</g>
</g>
<!-- dir_1ae6f3a1723d1c5a98056be5e8cfa268&#45;&gt;dir_74d46dd14b816f65d3bfa54df9ddf165 -->
<g id="edge1" class="edge">
<title>dir_1ae6f3a1723d1c5a98056be5e8cfa268&#45;&gt;dir_74d46dd14b816f65d3bfa54df9ddf165</title>
<g id="a_edge1"><a xlink:href="dir_000005_000007.html" target="_top">
<path fill="none" stroke="#63b8ff" d="M71,-133.75C71,-126.8 71,-116.85 71,-108.13"/>
<polygon fill="#63b8ff" stroke="#63b8ff" points="74.5,-108.09 71,-98.09 67.5,-108.09 74.5,-108.09"/>
</a>
</g>
<g id="a_edge1&#45;headlabel"><a xlink:href="dir_000005_000007.html" target="_top" xlink:title="4">
<text text-anchor="middle" x="77.34" y="-109.18" font-family="Helvetica,sans-Serif" font-size="10.00" fill="#63b8ff">4</text>
</a>
</g>
</g>
<!-- dir_d44c64559bbebec7f509842c48db8b23 -->
<g id="node4" class="node">
<title>dir_d44c64559bbebec7f509842c48db8b23</title>
<g id="a_node4"><a xlink:href="dir_d44c64559bbebec7f509842c48db8b23.html" target="_top" xlink:title="include">
<polygon fill="#edf0f7" stroke="red" points="174,-98 122,-98 122,-79 174,-79 174,-98"/>
<text text-anchor="middle" x="148" y="-86" font-family="Helvetica,sans-Serif" font-size="10.00">include</text>
</a>
</g>
</g>
<!-- dir_1ae6f3a1723d1c5a98056be5e8cfa268&#45;&gt;dir_d44c64559bbebec7f509842c48db8b23 -->
<g id="edge3" class="edge">
<title>dir_1ae6f3a1723d1c5a98056be5e8cfa268&#45;&gt;dir_d44c64559bbebec7f509842c48db8b23</title>
<g id="a_edge3"><a xlink:href="dir_000005_000004.html" target="_top">
<path fill="none" stroke="#63b8ff" d="M83.37,-133.98C95.09,-125.92 112.92,-113.65 126.89,-104.03"/>
<polygon fill="#63b8ff" stroke="#63b8ff" points="129.15,-106.72 135.4,-98.17 125.18,-100.96 129.15,-106.72"/>
</a>
</g>
<g id="a_edge3&#45;headlabel"><a xlink:href="dir_000005_000004.html" target="_top" xlink:title="4">
<text text-anchor="middle" x="127.8" y="-108.6" font-family="Helvetica,sans-Serif" font-size="10.00" fill="#63b8ff">4</text>
</a>
</g>
</g>
<!-- dir_74d46dd14b816f65d3bfa54df9ddf165&#45;&gt;dir_941d5b4d4b1759b6bddb304046397e8f -->
<g id="edge4" class="edge">
<title>dir_74d46dd14b816f65d3bfa54df9ddf165&#45;&gt;dir_941d5b4d4b1759b6bddb304046397e8f</title>
<g id="a_edge4"><a xlink:href="dir_000007_000006.html" target="_top">
<path fill="none" stroke="#63b8ff" d="M69.18,-78.75C67.74,-71.8 65.68,-61.85 63.87,-53.13"/>
<polygon fill="#63b8ff" stroke="#63b8ff" points="67.24,-52.17 61.78,-43.09 60.39,-53.59 67.24,-52.17"/>
</a>
</g>
<g id="a_edge4&#45;headlabel"><a xlink:href="dir_000007_000006.html" target="_top" xlink:title="3">
<text text-anchor="middle" x="70.75" y="-52.61" font-family="Helvetica,sans-Serif" font-size="10.00" fill="#63b8ff">3</text>
</a>
</g>
</g>
</g>
</svg>
