<?xml version="1.0" encoding="UTF-8" standalone="no"?>
<!DOCTYPE svg PUBLIC "-//W3C//DTD SVG 1.1//EN"
 "http://www.w3.org/Graphics/SVG/1.1/DTD/svg11.dtd">
<!-- Generated by graphviz version 14.0.1 (20251006.0113)
 -->
<!-- Title: proto::lacte::BoardErrorDiff::BoardErrorDiff Pages: 1 -->
<svg width="430pt" height="39pt"
 viewBox="0.00 0.00 430.00 39.00" xmlns="http://www.w3.org/2000/svg" xmlns:xlink="http://www.w3.org/1999/xlink">
<g id="graph0" class="graph" transform="scale(1 1) rotate(0) translate(4 34.5)">
<title>proto::lacte::BoardErrorDiff::BoardErrorDiff</title>
<!-- Node1 -->
<g id="Node000001" class="node">
<title>Node1</title>
<g id="a_Node000001"><a xlink:title=" ">
<polygon fill="#999999" stroke="#666666" points="117.25,-30.5 0,-30.5 0,0 117.25,0 117.25,-30.5"/>
<text xml:space="preserve" text-anchor="start" x="8" y="-17" font-family="Helvetica,sans-Serif" font-size="10.00">proto::lacte::BoardError</text>
<text xml:space="preserve" text-anchor="middle" x="58.62" y="-5.75" font-family="Helvetica,sans-Serif" font-size="10.00">Diff::BoardErrorDiff</text>
</a>
</g>
</g>
<!-- Node2 -->
<g id="Node000002" class="node">
<title>Node2</title>
<g id="a_Node000002"><a xlink:href="../../d9/d72/classproto_1_1lacte_1_1_error_flags.html#a2dba95c61487cddca6e661194467606d" target="_top" xlink:title=" ">
<polygon fill="white" stroke="#666666" points="290.75,-24.88 153.25,-24.88 153.25,-5.63 290.75,-5.63 290.75,-24.88"/>
<text xml:space="preserve" text-anchor="middle" x="222" y="-11.38" font-family="Helvetica,sans-Serif" font-size="10.00">proto::lacte::ErrorFlags::has</text>
</a>
</g>
</g>
<!-- Node1&#45;&gt;Node2 -->
<g id="edge1_Node000001_Node000002" class="edge">
<title>Node1&#45;&gt;Node2</title>
<g id="a_edge1_Node000001_Node000002"><a xlink:title=" ">
<path fill="none" stroke="#63b8ff" d="M117.43,-15.25C125.24,-15.25 133.35,-15.25 141.46,-15.25"/>
<polygon fill="#63b8ff" stroke="#63b8ff" points="141.36,-18.75 151.35,-15.25 141.35,-11.75 141.36,-18.75"/>
</a>
</g>
</g>
<!-- Node3 -->
<g id="Node000003" class="node">
<title>Node3</title>
<g id="a_Node000003"><a xlink:href="../../d3/d81/namespaceproto_1_1lacte.html#a99c9dae032d5ed58f9ff6e24ed0da8e0" target="_top" xlink:title=" ">
<polygon fill="white" stroke="#666666" points="421.5,-24.88 326.75,-24.88 326.75,-5.63 421.5,-5.63 421.5,-24.88"/>
<text xml:space="preserve" text-anchor="middle" x="374.12" y="-11.38" font-family="Helvetica,sans-Serif" font-size="10.00">proto::lacte::mask</text>
</a>
</g>
</g>
<!-- Node2&#45;&gt;Node3 -->
<g id="edge2_Node000002_Node000003" class="edge">
<title>Node2&#45;&gt;Node3</title>
<g id="a_edge2_Node000002_Node000003"><a xlink:title=" ">
<path fill="none" stroke="#63b8ff" d="M291.03,-15.25C299.06,-15.25 307.2,-15.25 315.07,-15.25"/>
<polygon fill="#63b8ff" stroke="#63b8ff" points="314.86,-18.75 324.86,-15.25 314.86,-11.75 314.86,-18.75"/>
</a>
</g>
</g>
</g>
</svg>
