<?xml version="1.0" encoding="UTF-8" standalone="no"?>
<!DOCTYPE svg PUBLIC "-//W3C//DTD SVG 1.1//EN"
 "http://www.w3.org/Graphics/SVG/1.1/DTD/svg11.dtd">
<!-- Generated by graphviz version 14.0.1 (20251006.0113)
 -->
<!-- Title: RxContainer.hpp Pages: 1 -->
<svg width="560pt" height="149pt"
 viewBox="0.00 0.00 560.00 149.00" xmlns="http://www.w3.org/2000/svg" xmlns:xlink="http://www.w3.org/1999/xlink">
<g id="graph0" class="graph" transform="scale(1 1) rotate(0) translate(4 145)">
<title>RxContainer.hpp</title>
<!-- Node1 -->
<g id="Node000001" class="node">
<title>Node1</title>
<g id="a_Node000001"><a xlink:title="Stateful frame parsing container that incrementally matches and fills protocol fields from a byte str...">
<polygon fill="#999999" stroke="#666666" points="284.25,-141 195.5,-141 195.5,-121.75 284.25,-121.75 284.25,-141"/>
<text xml:space="preserve" text-anchor="middle" x="239.88" y="-127.5" font-family="Helvetica,sans-Serif" font-size="10.00">RxContainer.hpp</text>
</a>
</g>
</g>
<!-- Node2 -->
<g id="Node000002" class="node">
<title>Node2</title>
<g id="a_Node000002"><a xlink:title=" ">
<polygon fill="#e0e0e0" stroke="#999999" points="55.75,-80.12 0,-80.12 0,-60.88 55.75,-60.88 55.75,-80.12"/>
<text xml:space="preserve" text-anchor="middle" x="27.88" y="-66.62" font-family="Helvetica,sans-Serif" font-size="10.00">algorithm</text>
</a>
</g>
</g>
<!-- Node1&#45;&gt;Node2 -->
<g id="edge1_Node000001_Node000002" class="edge">
<title>Node1&#45;&gt;Node2</title>
<g id="a_edge1_Node000001_Node000002"><a xlink:title=" ">
<path fill="none" stroke="#63b8ff" d="M198.47,-121.27C162.76,-113.07 109.98,-100.13 64.88,-85.75 63.51,-85.31 62.12,-84.86 60.73,-84.38"/>
<polygon fill="#63b8ff" stroke="#63b8ff" points="62.05,-81.14 51.45,-81.03 59.67,-87.72 62.05,-81.14"/>
</a>
</g>
</g>
<!-- Node3 -->
<g id="Node000003" class="node">
<title>Node3</title>
<g id="a_Node000003"><a xlink:title=" ">
<polygon fill="#e0e0e0" stroke="#999999" points="119.5,-80.12 74.25,-80.12 74.25,-60.88 119.5,-60.88 119.5,-80.12"/>
<text xml:space="preserve" text-anchor="middle" x="96.88" y="-66.62" font-family="Helvetica,sans-Serif" font-size="10.00">cstring</text>
</a>
</g>
</g>
<!-- Node1&#45;&gt;Node3 -->
<g id="edge2_Node000001_Node000003" class="edge">
<title>Node1&#45;&gt;Node3</title>
<g id="a_edge2_Node000001_Node000003"><a xlink:title=" ">
<path fill="none" stroke="#63b8ff" d="M216.81,-121.39C194.29,-112.55 159.09,-98.55 128.88,-85.75 128.26,-85.49 127.64,-85.23 127.02,-84.96"/>
<polygon fill="#63b8ff" stroke="#63b8ff" points="128.75,-81.9 118.19,-81.11 125.96,-88.31 128.75,-81.9"/>
</a>
</g>
</g>
<!-- Node4 -->
<g id="Node000004" class="node">
<title>Node4</title>
<g id="a_Node000004"><a xlink:title=" ">
<polygon fill="#e0e0e0" stroke="#999999" points="195.88,-80.12 137.88,-80.12 137.88,-60.88 195.88,-60.88 195.88,-80.12"/>
<text xml:space="preserve" text-anchor="middle" x="166.88" y="-66.62" font-family="Helvetica,sans-Serif" font-size="10.00">functional</text>
</a>
</g>
</g>
<!-- Node1&#45;&gt;Node4 -->
<g id="edge3_Node000001_Node000004" class="edge">
<title>Node1&#45;&gt;Node4</title>
<g id="a_edge3_Node000001_Node000004"><a xlink:title=" ">
<path fill="none" stroke="#63b8ff" d="M228.79,-121.43C217.64,-112.44 200.21,-98.39 186.68,-87.48"/>
<polygon fill="#63b8ff" stroke="#63b8ff" points="189.23,-85.03 179.24,-81.48 184.83,-90.48 189.23,-85.03"/>
</a>
</g>
</g>
<!-- Node5 -->
<g id="Node000005" class="node">
<title>Node5</title>
<g id="a_Node000005"><a xlink:title=" ">
<polygon fill="#e0e0e0" stroke="#999999" points="265.5,-80.12 214.25,-80.12 214.25,-60.88 265.5,-60.88 265.5,-80.12"/>
<text xml:space="preserve" text-anchor="middle" x="239.88" y="-66.62" font-family="Helvetica,sans-Serif" font-size="10.00">memory</text>
</a>
</g>
</g>
<!-- Node1&#45;&gt;Node5 -->
<g id="edge4_Node000001_Node000005" class="edge">
<title>Node1&#45;&gt;Node5</title>
<g id="a_edge4_Node000001_Node000005"><a xlink:title=" ">
<path fill="none" stroke="#63b8ff" d="M239.88,-121.43C239.88,-113.65 239.88,-102.08 239.88,-92.03"/>
<polygon fill="#63b8ff" stroke="#63b8ff" points="243.38,-92.04 239.88,-82.04 236.38,-92.04 243.38,-92.04"/>
</a>
</g>
</g>
<!-- Node6 -->
<g id="Node000006" class="node">
<title>Node6</title>
<g id="a_Node000006"><a xlink:title=" ">
<polygon fill="#e0e0e0" stroke="#999999" points="320.38,-80.12 283.38,-80.12 283.38,-60.88 320.38,-60.88 320.38,-80.12"/>
<text xml:space="preserve" text-anchor="middle" x="301.88" y="-66.62" font-family="Helvetica,sans-Serif" font-size="10.00">tuple</text>
</a>
</g>
</g>
<!-- Node1&#45;&gt;Node6 -->
<g id="edge5_Node000001_Node000006" class="edge">
<title>Node1&#45;&gt;Node6</title>
<g id="a_edge5_Node000001_Node000006"><a xlink:title=" ">
<path fill="none" stroke="#63b8ff" d="M249.29,-121.43C258.49,-112.7 272.71,-99.19 284.05,-88.43"/>
<polygon fill="#63b8ff" stroke="#63b8ff" points="286.43,-90.99 291.27,-81.57 281.61,-85.92 286.43,-90.99"/>
</a>
</g>
</g>
<!-- Node7 -->
<g id="Node000007" class="node">
<title>Node7</title>
<g id="a_Node000007"><a xlink:href="../../de/ddc/_custom_span_8hpp.html" target="_top" xlink:title=" ">
<polygon fill="white" stroke="#666666" points="429.75,-80.12 338,-80.12 338,-60.88 429.75,-60.88 429.75,-80.12"/>
<text xml:space="preserve" text-anchor="middle" x="383.88" y="-66.62" font-family="Helvetica,sans-Serif" font-size="10.00">CustomSpan.hpp</text>
</a>
</g>
</g>
<!-- Node1&#45;&gt;Node7 -->
<g id="edge6_Node000001_Node000007" class="edge">
<title>Node1&#45;&gt;Node7</title>
<g id="a_edge6_Node000001_Node000007"><a xlink:title=" ">
<path fill="none" stroke="#63b8ff" d="M262.06,-121.3C285.91,-111.55 324.07,-95.95 351.32,-84.81"/>
<polygon fill="#63b8ff" stroke="#63b8ff" points="352.57,-88.08 360.5,-81.06 349.92,-81.6 352.57,-88.08"/>
</a>
</g>
</g>
<!-- Node10 -->
<g id="Node000010" class="node">
<title>Node10</title>
<g id="a_Node000010"><a xlink:href="../../d8/dd8/_field_container_8hpp.html" target="_top" xlink:title=" ">
<polygon fill="white" stroke="#666666" points="552.12,-85.75 447.62,-85.75 447.62,-55.25 552.12,-55.25 552.12,-85.75"/>
<text xml:space="preserve" text-anchor="start" x="455.62" y="-72.25" font-family="Helvetica,sans-Serif" font-size="10.00">prototypes/container</text>
<text xml:space="preserve" text-anchor="middle" x="499.88" y="-61" font-family="Helvetica,sans-Serif" font-size="10.00">/FieldContainer.hpp</text>
</a>
</g>
</g>
<!-- Node1&#45;&gt;Node10 -->
<g id="edge9_Node000001_Node000010" class="edge">
<title>Node1&#45;&gt;Node10</title>
<g id="a_edge9_Node000001_Node000010"><a xlink:title=" ">
<path fill="none" stroke="#63b8ff" d="M281.06,-121.25C318.96,-112.83 377.04,-99.87 436.25,-86.34"/>
<polygon fill="#63b8ff" stroke="#63b8ff" points="436.87,-89.79 445.83,-84.15 435.31,-82.97 436.87,-89.79"/>
</a>
</g>
</g>
<!-- Node8 -->
<g id="Node000008" class="node">
<title>Node8</title>
<g id="a_Node000008"><a xlink:title=" ">
<polygon fill="#e0e0e0" stroke="#999999" points="375,-19.25 326.75,-19.25 326.75,0 375,0 375,-19.25"/>
<text xml:space="preserve" text-anchor="middle" x="350.88" y="-5.75" font-family="Helvetica,sans-Serif" font-size="10.00">cassert</text>
</a>
</g>
</g>
<!-- Node7&#45;&gt;Node8 -->
<g id="edge7_Node000007_Node000008" class="edge">
<title>Node7&#45;&gt;Node8</title>
<g id="a_edge7_Node000007_Node000008"><a xlink:title=" ">
<path fill="none" stroke="#63b8ff" d="M378.86,-60.56C374.26,-52.35 367.29,-39.91 361.45,-29.5"/>
<polygon fill="#63b8ff" stroke="#63b8ff" points="364.62,-27.98 356.67,-20.97 358.51,-31.41 364.62,-27.98"/>
</a>
</g>
</g>
<!-- Node9 -->
<g id="Node000009" class="node">
<title>Node9</title>
<g id="a_Node000009"><a xlink:title=" ">
<polygon fill="#e0e0e0" stroke="#999999" points="441,-19.25 392.75,-19.25 392.75,0 441,0 441,-19.25"/>
<text xml:space="preserve" text-anchor="middle" x="416.88" y="-5.75" font-family="Helvetica,sans-Serif" font-size="10.00">cstddef</text>
</a>
</g>
</g>
<!-- Node7&#45;&gt;Node9 -->
<g id="edge8_Node000007_Node000009" class="edge">
<title>Node7&#45;&gt;Node9</title>
<g id="a_edge8_Node000007_Node000009"><a xlink:title=" ">
<path fill="none" stroke="#63b8ff" d="M388.89,-60.56C393.49,-52.35 400.46,-39.91 406.3,-29.5"/>
<polygon fill="#63b8ff" stroke="#63b8ff" points="409.24,-31.41 411.08,-20.97 403.13,-27.98 409.24,-31.41"/>
</a>
</g>
</g>
</g>
</svg>
