<?xml version="1.0" encoding="UTF-8" standalone="no"?>
<!DOCTYPE svg PUBLIC "-//W3C//DTD SVG 1.1//EN"
 "http://www.w3.org/Graphics/SVG/1.1/DTD/svg11.dtd">
<!-- Generated by graphviz version 14.0.1 (20251006.0113)
 -->
<!-- Title: ProtocolNoSysEndpoint.hpp Pages: 1 -->
<!--zoomable 337 -->

<svg id="main" version="1.1" xmlns="http://www.w3.org/2000/svg" xmlns:xlink="http://www.w3.org/1999/xlink" xml:space="preserve" onload="init(evt)">

<style type="text/css"><![CDATA[
.node, .edge {opacity: 0.7;}
.node.selected, .edge.selected {opacity: 1;}
.edge:hover path { stroke: red; }
.edge:hover polygon { stroke: red; fill: red; }
]]></style>

<defs>
  <circle id="rim" cx="0" cy="0" r="7"/>
  <circle id="rim2" cx="0" cy="0" r="3.5"/>
  <g id="zoomPlus">
    <use xlink:href="#rim" fill="#404040"><set attributeName="fill" to="#808080" begin="zoomplus.mouseover" end="zoomplus.mouseout"/></use>
    <path d="M-4,0h8M0,-4v8" fill="none" stroke="white" stroke-width="1.5" pointer-events="none"/>
  </g>
  <g id="zoomMin">
    <use xlink:href="#rim" fill="#404040"><set attributeName="fill" to="#808080" begin="zoomminus.mouseover" end="zoomminus.mouseout"/></use>
    <path d="M-4,0h8" fill="none" stroke="white" stroke-width="1.5" pointer-events="none"/>
  </g>
  <g id="arrowUp" transform="translate(30 24)">
    <use xlink:href="#rim"/>
    <path pointer-events="none" fill="none" stroke="white" stroke-width="1.5" d="M0,-3.0v7 M-2.5,-0.5L0,-3.0L2.5,-0.5"/>
  </g>
  <g id="arrowRight" transform="rotate(90) translate(36 -43)">
    <use xlink:href="#rim"/>
    <path pointer-events="none" fill="none" stroke="white" stroke-width="1.5" d="M0,-3.0v7 M-2.5,-0.5L0,-3.0L2.5,-0.5"/>
  </g>
  <g id="arrowDown" transform="rotate(180) translate(-30 -48)">
    <use xlink:href="#rim"/>
    <path pointer-events="none" fill="none" stroke="white" stroke-width="1.5" d="M0,-3.0v7 M-2.5,-0.5L0,-3.0L2.5,-0.5"/>
  </g>
  <g id="arrowLeft" transform="rotate(270) translate(-36 17)">
    <use xlink:href="#rim"/>
    <path pointer-events="none" fill="none" stroke="white" stroke-width="1.5" d="M0,-3.0v7 M-2.5,-0.5L0,-3.0L2.5,-0.5"/>
  </g>
  <g id="resetDef">
    <use xlink:href="#rim2" fill="#404040"><set attributeName="fill" to="#808080" begin="reset.mouseover" end="reset.mouseout"/></use>
  </g>
</defs>
<script type="application/ecmascript">
var viewWidth = 1069;
var viewHeight = 337;
var sectionId = 'dynsection-0';
</script>
<script type="application/ecmascript" xlink:href="../../svg.min.js"/>
<svg id="graph" class="graph">
<g id="viewport">
<title>ProtocolNoSysEndpoint.hpp</title>
<!-- Node1 -->
<g id="Node000001" class="node">
<title>Node1</title>
<g id="a_Node000001"><a xlink:title=" ">
<polygon fill="#999999" stroke="#666666" points="342.12,-329.25 203.12,-329.25 203.12,-310 342.12,-310 342.12,-329.25"/>
<text xml:space="preserve" text-anchor="middle" x="272.62" y="-315.75" font-family="Helvetica,sans-Serif" font-size="10.00">ProtocolNoSysEndpoint.hpp</text>
</a>
</g>
</g>
<!-- Node2 -->
<g id="Node000002" class="node">
<title>Node2</title>
<g id="a_Node000002"><a xlink:title=" ">
<polygon fill="#e0e0e0" stroke="#999999" points="130.75,-268.38 88.5,-268.38 88.5,-249.12 130.75,-249.12 130.75,-268.38"/>
<text xml:space="preserve" text-anchor="middle" x="109.62" y="-254.88" font-family="Helvetica,sans-Serif" font-size="10.00">deque</text>
</a>
</g>
</g>
<!-- Node1&#45;&gt;Node2 -->
<g id="edge1_Node000001_Node000002" class="edge">
<title>Node1&#45;&gt;Node2</title>
<g id="a_edge1_Node000001_Node000002"><a xlink:title=" ">
<path fill="none" stroke="#63b8ff" d="M245.51,-309.62C219.5,-300.88 179.19,-287.05 144.62,-274 143.66,-273.63 142.68,-273.26 141.69,-272.88"/>
<polygon fill="#63b8ff" stroke="#63b8ff" points="143.02,-269.64 132.44,-269.22 140.45,-276.15 143.02,-269.64"/>
</a>
</g>
</g>
<!-- Node3 -->
<g id="Node000003" class="node">
<title>Node3</title>
<g id="a_Node000003"><a xlink:title=" ">
<polygon fill="#e0e0e0" stroke="#999999" points="179.62,-135.38 121.62,-135.38 121.62,-116.12 179.62,-116.12 179.62,-135.38"/>
<text xml:space="preserve" text-anchor="middle" x="150.62" y="-121.88" font-family="Helvetica,sans-Serif" font-size="10.00">functional</text>
</a>
</g>
</g>
<!-- Node1&#45;&gt;Node3 -->
<g id="edge2_Node000001_Node000003" class="edge">
<title>Node1&#45;&gt;Node3</title>
<g id="a_edge2_Node000001_Node000003"><a xlink:title=" ">
<path fill="none" stroke="#63b8ff" d="M262.88,-309.77C243.93,-292.07 201.88,-250.35 177.62,-207.5 166.61,-188.04 159.19,-163.38 154.95,-146.46"/>
<polygon fill="#63b8ff" stroke="#63b8ff" points="158.47,-146.11 152.78,-137.17 151.65,-147.7 158.47,-146.11"/>
</a>
</g>
</g>
<!-- Node4 -->
<g id="Node000004" class="node">
<title>Node4</title>
<g id="a_Node000004"><a xlink:href="../../d0/d95/_rx_container_8hpp.html" target="_top" xlink:title="Stateful frame parsing container that incrementally matches and fills protocol fields from a byte str...">
<polygon fill="white" stroke="#666666" points="442.88,-207.5 338.38,-207.5 338.38,-177 442.88,-177 442.88,-207.5"/>
<text xml:space="preserve" text-anchor="start" x="346.38" y="-194" font-family="Helvetica,sans-Serif" font-size="10.00">prototypes/container</text>
<text xml:space="preserve" text-anchor="middle" x="390.62" y="-182.75" font-family="Helvetica,sans-Serif" font-size="10.00">/RxContainer.hpp</text>
</a>
</g>
</g>
<!-- Node1&#45;&gt;Node4 -->
<g id="edge3_Node000001_Node000004" class="edge">
<title>Node1&#45;&gt;Node4</title>
<g id="a_edge3_Node000001_Node000004"><a xlink:title=" ">
<path fill="none" stroke="#63b8ff" d="M281.11,-309.61C299.41,-290.17 343.03,-243.82 369.36,-215.84"/>
<polygon fill="#63b8ff" stroke="#63b8ff" points="371.59,-218.58 375.9,-208.9 366.49,-213.78 371.59,-218.58"/>
</a>
</g>
</g>
<!-- Node13 -->
<g id="Node000013" class="node">
<title>Node13</title>
<g id="a_Node000013"><a xlink:href="../../d7/d5d/_tx_container_8hpp.html" target="_top" xlink:title="TX&#45;side container that builds protocol frames from a set of fields.">
<polygon fill="white" stroke="#666666" points="562.88,-274 458.38,-274 458.38,-243.5 562.88,-243.5 562.88,-274"/>
<text xml:space="preserve" text-anchor="start" x="466.38" y="-260.5" font-family="Helvetica,sans-Serif" font-size="10.00">prototypes/container</text>
<text xml:space="preserve" text-anchor="middle" x="510.62" y="-249.25" font-family="Helvetica,sans-Serif" font-size="10.00">/TxContainer.hpp</text>
</a>
</g>
</g>
<!-- Node1&#45;&gt;Node13 -->
<g id="edge13_Node000001_Node000013" class="edge">
<title>Node1&#45;&gt;Node13</title>
<g id="a_edge13_Node000001_Node000013"><a xlink:title=" ">
<path fill="none" stroke="#63b8ff" d="M309.29,-309.55C345.88,-300.5 402.83,-286.42 446.83,-275.53"/>
<polygon fill="#63b8ff" stroke="#63b8ff" points="447.67,-278.93 456.54,-273.13 445.99,-272.13 447.67,-278.93"/>
</a>
</g>
</g>
<!-- Node4&#45;&gt;Node3 -->
<g id="edge6_Node000004_Node000003" class="edge">
<title>Node4&#45;&gt;Node3</title>
<g id="a_edge6_Node000004_Node000003"><a xlink:title=" ">
<path fill="none" stroke="#63b8ff" d="M338.27,-179.97C297.23,-170.7 238.84,-156.6 188.62,-141 187.07,-140.52 185.48,-140 183.89,-139.47"/>
<polygon fill="#63b8ff" stroke="#63b8ff" points="185.41,-136.3 174.81,-136.27 183.08,-142.9 185.41,-136.3"/>
</a>
</g>
</g>
<!-- Node5 -->
<g id="Node000005" class="node">
<title>Node5</title>
<g id="a_Node000005"><a xlink:title=" ">
<polygon fill="#e0e0e0" stroke="#999999" points="471.5,-135.38 415.75,-135.38 415.75,-116.12 471.5,-116.12 471.5,-135.38"/>
<text xml:space="preserve" text-anchor="middle" x="443.62" y="-121.88" font-family="Helvetica,sans-Serif" font-size="10.00">algorithm</text>
</a>
</g>
</g>
<!-- Node4&#45;&gt;Node5 -->
<g id="edge4_Node000004_Node000005" class="edge">
<title>Node4&#45;&gt;Node5</title>
<g id="a_edge4_Node000004_Node000005"><a xlink:title=" ">
<path fill="none" stroke="#63b8ff" d="M402.65,-176.61C410.52,-167.04 420.85,-154.47 429.16,-144.35"/>
<polygon fill="#63b8ff" stroke="#63b8ff" points="431.77,-146.69 435.41,-136.74 426.36,-142.25 431.77,-146.69"/>
</a>
</g>
</g>
<!-- Node6 -->
<g id="Node000006" class="node">
<title>Node6</title>
<g id="a_Node000006"><a xlink:title=" ">
<polygon fill="#e0e0e0" stroke="#999999" points="410.25,-74.5 365,-74.5 365,-55.25 410.25,-55.25 410.25,-74.5"/>
<text xml:space="preserve" text-anchor="middle" x="387.62" y="-61" font-family="Helvetica,sans-Serif" font-size="10.00">cstring</text>
</a>
</g>
</g>
<!-- Node4&#45;&gt;Node6 -->
<g id="edge5_Node000004_Node000006" class="edge">
<title>Node4&#45;&gt;Node6</title>
<g id="a_edge5_Node000004_Node000006"><a xlink:title=" ">
<path fill="none" stroke="#63b8ff" d="M390.28,-176.87C389.75,-154.53 388.71,-111.42 388.11,-86"/>
<polygon fill="#63b8ff" stroke="#63b8ff" points="391.61,-86.25 387.88,-76.33 384.62,-86.41 391.61,-86.25"/>
</a>
</g>
</g>
<!-- Node7 -->
<g id="Node000007" class="node">
<title>Node7</title>
<g id="a_Node000007"><a xlink:title=" ">
<polygon fill="#e0e0e0" stroke="#999999" points="249.25,-135.38 198,-135.38 198,-116.12 249.25,-116.12 249.25,-135.38"/>
<text xml:space="preserve" text-anchor="middle" x="223.62" y="-121.88" font-family="Helvetica,sans-Serif" font-size="10.00">memory</text>
</a>
</g>
</g>
<!-- Node4&#45;&gt;Node7 -->
<g id="edge7_Node000004_Node000007" class="edge">
<title>Node4&#45;&gt;Node7</title>
<g id="a_edge7_Node000004_Node000007"><a xlink:title=" ">
<path fill="none" stroke="#63b8ff" d="M351.26,-176.53C324.97,-166.64 289.65,-153.22 258.62,-141 257.85,-140.69 257.06,-140.38 256.27,-140.07"/>
<polygon fill="#63b8ff" stroke="#63b8ff" points="257.8,-136.91 247.22,-136.44 255.19,-143.41 257.8,-136.91"/>
</a>
</g>
</g>
<!-- Node8 -->
<g id="Node000008" class="node">
<title>Node8</title>
<g id="a_Node000008"><a xlink:title=" ">
<polygon fill="#e0e0e0" stroke="#999999" points="649.12,-135.38 612.12,-135.38 612.12,-116.12 649.12,-116.12 649.12,-135.38"/>
<text xml:space="preserve" text-anchor="middle" x="630.62" y="-121.88" font-family="Helvetica,sans-Serif" font-size="10.00">tuple</text>
</a>
</g>
</g>
<!-- Node4&#45;&gt;Node8 -->
<g id="edge8_Node000004_Node000008" class="edge">
<title>Node4&#45;&gt;Node8</title>
<g id="a_edge8_Node000004_Node000008"><a xlink:title=" ">
<path fill="none" stroke="#63b8ff" d="M443.04,-182.43C486.58,-174.26 549.72,-160.42 602.62,-141 603.11,-140.82 603.6,-140.64 604.09,-140.45"/>
<polygon fill="#63b8ff" stroke="#63b8ff" points="605.26,-143.76 612.95,-136.48 602.4,-137.37 605.26,-143.76"/>
</a>
</g>
</g>
<!-- Node9 -->
<g id="Node000009" class="node">
<title>Node9</title>
<g id="a_Node000009"><a xlink:href="../../de/ddc/_custom_span_8hpp.html" target="_top" xlink:title=" ">
<polygon fill="white" stroke="#666666" points="359.5,-135.38 267.75,-135.38 267.75,-116.12 359.5,-116.12 359.5,-135.38"/>
<text xml:space="preserve" text-anchor="middle" x="313.62" y="-121.88" font-family="Helvetica,sans-Serif" font-size="10.00">CustomSpan.hpp</text>
</a>
</g>
</g>
<!-- Node4&#45;&gt;Node9 -->
<g id="edge9_Node000004_Node000009" class="edge">
<title>Node4&#45;&gt;Node9</title>
<g id="a_edge9_Node000004_Node000009"><a xlink:title=" ">
<path fill="none" stroke="#63b8ff" d="M373.15,-176.61C361.13,-166.54 345.16,-153.17 332.79,-142.81"/>
<polygon fill="#63b8ff" stroke="#63b8ff" points="335.23,-140.28 325.32,-136.54 330.74,-145.65 335.23,-140.28"/>
</a>
</g>
</g>
<!-- Node12 -->
<g id="Node000012" class="node">
<title>Node12</title>
<g id="a_Node000012"><a xlink:href="../../d8/dd8/_field_container_8hpp.html" target="_top" xlink:title=" ">
<polygon fill="white" stroke="#666666" points="593.88,-141 489.38,-141 489.38,-110.5 593.88,-110.5 593.88,-141"/>
<text xml:space="preserve" text-anchor="start" x="497.38" y="-127.5" font-family="Helvetica,sans-Serif" font-size="10.00">prototypes/container</text>
<text xml:space="preserve" text-anchor="middle" x="541.62" y="-116.25" font-family="Helvetica,sans-Serif" font-size="10.00">/FieldContainer.hpp</text>
</a>
</g>
</g>
<!-- Node4&#45;&gt;Node12 -->
<g id="edge12_Node000004_Node000012" class="edge">
<title>Node4&#45;&gt;Node12</title>
<g id="a_edge12_Node000004_Node000012"><a xlink:title=" ">
<path fill="none" stroke="#63b8ff" d="M424.89,-176.61C446.15,-167.53 473.7,-155.77 496.69,-145.94"/>
<polygon fill="#63b8ff" stroke="#63b8ff" points="498.02,-149.18 505.84,-142.03 495.27,-142.74 498.02,-149.18"/>
</a>
</g>
</g>
<!-- Node10 -->
<g id="Node000010" class="node">
<title>Node10</title>
<g id="a_Node000010"><a xlink:title=" ">
<polygon fill="#e0e0e0" stroke="#999999" points="341.75,-74.5 293.5,-74.5 293.5,-55.25 341.75,-55.25 341.75,-74.5"/>
<text xml:space="preserve" text-anchor="middle" x="317.62" y="-61" font-family="Helvetica,sans-Serif" font-size="10.00">cassert</text>
</a>
</g>
</g>
<!-- Node9&#45;&gt;Node10 -->
<g id="edge10_Node000009_Node000010" class="edge">
<title>Node9&#45;&gt;Node10</title>
<g id="a_edge10_Node000009_Node000010"><a xlink:title=" ">
<path fill="none" stroke="#63b8ff" d="M314.23,-115.81C314.77,-107.94 315.56,-96.2 316.25,-86.07"/>
<polygon fill="#63b8ff" stroke="#63b8ff" points="319.72,-86.63 316.91,-76.41 312.74,-86.15 319.72,-86.63"/>
</a>
</g>
</g>
<!-- Node11 -->
<g id="Node000011" class="node">
<title>Node11</title>
<g id="a_Node000011"><a xlink:title=" ">
<polygon fill="#e0e0e0" stroke="#999999" points="275.75,-74.5 227.5,-74.5 227.5,-55.25 275.75,-55.25 275.75,-74.5"/>
<text xml:space="preserve" text-anchor="middle" x="251.62" y="-61" font-family="Helvetica,sans-Serif" font-size="10.00">cstddef</text>
</a>
</g>
</g>
<!-- Node9&#45;&gt;Node11 -->
<g id="edge11_Node000009_Node000011" class="edge">
<title>Node9&#45;&gt;Node11</title>
<g id="a_edge11_Node000009_Node000011"><a xlink:title=" ">
<path fill="none" stroke="#63b8ff" d="M304.21,-115.81C295.01,-107.08 280.79,-93.57 269.45,-82.8"/>
<polygon fill="#63b8ff" stroke="#63b8ff" points="271.89,-80.29 262.23,-75.94 267.07,-85.37 271.89,-80.29"/>
</a>
</g>
</g>
<!-- Node13&#45;&gt;Node5 -->
<g id="edge14_Node000013_Node000005" class="edge">
<title>Node13&#45;&gt;Node5</title>
<g id="a_edge14_Node000013_Node000005"><a xlink:title=" ">
<path fill="none" stroke="#63b8ff" d="M503.2,-243.23C491.04,-219.45 466.87,-172.2 453.35,-145.77"/>
<polygon fill="#63b8ff" stroke="#63b8ff" points="456.64,-144.51 448.97,-137.2 450.41,-147.7 456.64,-144.51"/>
</a>
</g>
</g>
<!-- Node13&#45;&gt;Node8 -->
<g id="edge15_Node000013_Node000008" class="edge">
<title>Node13&#45;&gt;Node8</title>
<g id="a_edge15_Node000013_Node000008"><a xlink:title=" ">
<path fill="none" stroke="#63b8ff" d="M523.93,-243.23C546.2,-218.92 590.93,-170.08 614.79,-144.04"/>
<polygon fill="#63b8ff" stroke="#63b8ff" points="617.09,-146.71 621.27,-136.97 611.93,-141.98 617.09,-146.71"/>
</a>
</g>
</g>
<!-- Node13&#45;&gt;Node9 -->
<g id="edge17_Node000013_Node000009" class="edge">
<title>Node13&#45;&gt;Node9</title>
<g id="a_edge17_Node000013_Node000009"><a xlink:title=" ">
<path fill="none" stroke="#63b8ff" d="M458.27,-257.33C417.44,-254.08 362.34,-242.77 329.62,-207.5 314.62,-191.32 311.89,-165.27 312.09,-147.15"/>
<polygon fill="#63b8ff" stroke="#63b8ff" points="315.58,-147.51 312.54,-137.37 308.59,-147.2 315.58,-147.51"/>
</a>
</g>
</g>
<!-- Node13&#45;&gt;Node12 -->
<g id="edge24_Node000013_Node000012" class="edge">
<title>Node13&#45;&gt;Node12</title>
<g id="a_edge24_Node000013_Node000012"><a xlink:title=" ">
<path fill="none" stroke="#63b8ff" d="M514.06,-243.23C519.25,-221.3 529.17,-179.4 535.58,-152.29"/>
<polygon fill="#63b8ff" stroke="#63b8ff" points="538.93,-153.34 537.83,-142.81 532.12,-151.73 538.93,-153.34"/>
</a>
</g>
</g>
<!-- Node14 -->
<g id="Node000014" class="node">
<title>Node14</title>
<g id="a_Node000014"><a xlink:title=" ">
<polygon fill="#e0e0e0" stroke="#999999" points="1060.5,-74.5 998.75,-74.5 998.75,-55.25 1060.5,-55.25 1060.5,-74.5"/>
<text xml:space="preserve" text-anchor="middle" x="1029.62" y="-61" font-family="Helvetica,sans-Serif" font-size="10.00">type_traits</text>
</a>
</g>
</g>
<!-- Node13&#45;&gt;Node14 -->
<g id="edge16_Node000013_Node000014" class="edge">
<title>Node13&#45;&gt;Node14</title>
<g id="a_edge16_Node000013_Node000014"><a xlink:title=" ">
<path fill="none" stroke="#63b8ff" d="M563.37,-255.51C628.05,-251.41 740.22,-239.87 830.62,-207.5 907.62,-179.93 981.55,-113.52 1013.33,-82.44"/>
<polygon fill="#63b8ff" stroke="#63b8ff" points="1015.45,-85.27 1020.08,-75.74 1010.52,-80.3 1015.45,-85.27"/>
</a>
</g>
</g>
<!-- Node15 -->
<g id="Node000015" class="node">
<title>Node15</title>
<g id="a_Node000015"><a xlink:href="../../dc/dba/_interface_8hpp.html" target="_top" xlink:title=" ">
<polygon fill="white" stroke="#666666" points="260.12,-201.88 187.12,-201.88 187.12,-182.62 260.12,-182.62 260.12,-201.88"/>
<text xml:space="preserve" text-anchor="middle" x="223.62" y="-188.38" font-family="Helvetica,sans-Serif" font-size="10.00">Interface.hpp</text>
</a>
</g>
</g>
<!-- Node13&#45;&gt;Node15 -->
<g id="edge18_Node000013_Node000015" class="edge">
<title>Node13&#45;&gt;Node15</title>
<g id="a_edge18_Node000013_Node000015"><a xlink:title=" ">
<path fill="none" stroke="#63b8ff" d="M457.98,-245.92C404.73,-233.95 323.1,-215.61 271.59,-204.03"/>
<polygon fill="#63b8ff" stroke="#63b8ff" points="272.44,-200.63 261.92,-201.86 270.9,-207.46 272.44,-200.63"/>
</a>
</g>
</g>
<!-- Node18 -->
<g id="Node000018" class="node">
<title>Node18</title>
<g id="a_Node000018"><a xlink:href="../../d0/d22/_field_info_8hpp.html" target="_top" xlink:title="Helpers and utilities for compile&#45;time field metadata and tuple processing.">
<polygon fill="white" stroke="#666666" points="821.62,-201.88 679.62,-201.88 679.62,-182.62 821.62,-182.62 821.62,-201.88"/>
<text xml:space="preserve" text-anchor="middle" x="750.62" y="-188.38" font-family="Helvetica,sans-Serif" font-size="10.00">prototypes/field/FieldInfo.hpp</text>
</a>
</g>
</g>
<!-- Node13&#45;&gt;Node18 -->
<g id="edge25_Node000013_Node000018" class="edge">
<title>Node13&#45;&gt;Node18</title>
<g id="a_edge25_Node000013_Node000018"><a xlink:title=" ">
<path fill="none" stroke="#63b8ff" d="M563.29,-243.6C605.96,-232.13 665.41,-216.15 705.82,-205.29"/>
<polygon fill="#63b8ff" stroke="#63b8ff" points="706.73,-208.67 715.48,-202.7 704.91,-201.91 706.73,-208.67"/>
</a>
</g>
</g>
<!-- Node15&#45;&gt;Node3 -->
<g id="edge20_Node000015_Node000003" class="edge">
<title>Node15&#45;&gt;Node3</title>
<g id="a_edge20_Node000015_Node000003"><a xlink:title=" ">
<path fill="none" stroke="#63b8ff" d="M213.47,-182.28C202.03,-172.17 183.2,-155.53 169.12,-143.1"/>
<polygon fill="#63b8ff" stroke="#63b8ff" points="171.63,-140.64 161.82,-136.64 167,-145.89 171.63,-140.64"/>
</a>
</g>
</g>
<!-- Node15&#45;&gt;Node7 -->
<g id="edge21_Node000015_Node000007" class="edge">
<title>Node15&#45;&gt;Node7</title>
<g id="a_edge21_Node000015_Node000007"><a xlink:title=" ">
<path fill="none" stroke="#63b8ff" d="M223.62,-182.28C223.62,-173.23 223.62,-158.95 223.62,-147.13"/>
<polygon fill="#63b8ff" stroke="#63b8ff" points="227.13,-147.16 223.63,-137.16 220.13,-147.16 227.13,-147.16"/>
</a>
</g>
</g>
<!-- Node15&#45;&gt;Node9 -->
<g id="edge23_Node000015_Node000009" class="edge">
<title>Node15&#45;&gt;Node9</title>
<g id="a_edge23_Node000015_Node000009"><a xlink:title=" ">
<path fill="none" stroke="#63b8ff" d="M236.14,-182.28C250.57,-171.94 274.53,-154.77 292,-142.25"/>
<polygon fill="#63b8ff" stroke="#63b8ff" points="293.61,-145.4 299.7,-136.73 289.53,-139.71 293.61,-145.4"/>
</a>
</g>
</g>
<!-- Node16 -->
<g id="Node000016" class="node">
<title>Node16</title>
<g id="a_Node000016"><a xlink:title=" ">
<polygon fill="#e0e0e0" stroke="#999999" points="45.25,-135.38 0,-135.38 0,-116.12 45.25,-116.12 45.25,-135.38"/>
<text xml:space="preserve" text-anchor="middle" x="22.62" y="-121.88" font-family="Helvetica,sans-Serif" font-size="10.00">chrono</text>
</a>
</g>
</g>
<!-- Node15&#45;&gt;Node16 -->
<g id="edge19_Node000015_Node000016" class="edge">
<title>Node15&#45;&gt;Node16</title>
<g id="a_edge19_Node000015_Node000016"><a xlink:title=" ">
<path fill="none" stroke="#63b8ff" d="M188.23,-182.17C153.73,-172.98 99.99,-157.76 54.62,-141 53.83,-140.71 53.03,-140.4 52.23,-140.09"/>
<polygon fill="#63b8ff" stroke="#63b8ff" points="53.72,-136.93 43.15,-136.33 51.05,-143.39 53.72,-136.93"/>
</a>
</g>
</g>
<!-- Node17 -->
<g id="Node000017" class="node">
<title>Node17</title>
<g id="a_Node000017"><a xlink:title=" ">
<polygon fill="#e0e0e0" stroke="#999999" points="103.62,-135.38 63.62,-135.38 63.62,-116.12 103.62,-116.12 103.62,-135.38"/>
<text xml:space="preserve" text-anchor="middle" x="83.62" y="-121.88" font-family="Helvetica,sans-Serif" font-size="10.00">string</text>
</a>
</g>
</g>
<!-- Node15&#45;&gt;Node17 -->
<g id="edge22_Node000015_Node000017" class="edge">
<title>Node15&#45;&gt;Node17</title>
<g id="a_edge22_Node000015_Node000017"><a xlink:title=" ">
<path fill="none" stroke="#63b8ff" d="M203.08,-182.18C180.73,-172.26 144,-155.81 112.62,-141 112.4,-140.9 112.18,-140.79 111.96,-140.68"/>
<polygon fill="#63b8ff" stroke="#63b8ff" points="113.57,-137.58 103.05,-136.39 110.53,-143.88 113.57,-137.58"/>
</a>
</g>
</g>
<!-- Node18&#45;&gt;Node8 -->
<g id="edge26_Node000018_Node000008" class="edge">
<title>Node18&#45;&gt;Node8</title>
<g id="a_edge26_Node000018_Node000008"><a xlink:title=" ">
<path fill="none" stroke="#63b8ff" d="M733.69,-182.15C713.85,-171.49 680.75,-153.69 657.43,-141.16"/>
<polygon fill="#63b8ff" stroke="#63b8ff" points="659.28,-138.18 648.81,-136.52 655.96,-144.34 659.28,-138.18"/>
</a>
</g>
</g>
<!-- Node18&#45;&gt;Node14 -->
<g id="edge27_Node000018_Node000014" class="edge">
<title>Node18&#45;&gt;Node14</title>
<g id="a_edge27_Node000018_Node000014"><a xlink:title=" ">
<path fill="none" stroke="#63b8ff" d="M784.14,-182.16C815.04,-173.28 861.85,-158.56 900.62,-141 939.43,-123.43 981.58,-97.45 1006.78,-81.11"/>
<polygon fill="#63b8ff" stroke="#63b8ff" points="1008.47,-84.19 1014.92,-75.78 1004.64,-78.33 1008.47,-84.19"/>
</a>
</g>
</g>
<!-- Node19 -->
<g id="Node000019" class="node">
<title>Node19</title>
<g id="a_Node000019"><a xlink:title=" ">
<polygon fill="#e0e0e0" stroke="#999999" points="891.25,-135.38 852,-135.38 852,-116.12 891.25,-116.12 891.25,-135.38"/>
<text xml:space="preserve" text-anchor="middle" x="871.62" y="-121.88" font-family="Helvetica,sans-Serif" font-size="10.00">utility</text>
</a>
</g>
</g>
<!-- Node18&#45;&gt;Node19 -->
<g id="edge28_Node000018_Node000019" class="edge">
<title>Node18&#45;&gt;Node19</title>
<g id="a_edge28_Node000018_Node000019"><a xlink:title=" ">
<path fill="none" stroke="#63b8ff" d="M767.7,-182.15C787.7,-171.49 821.08,-153.69 844.6,-141.16"/>
<polygon fill="#63b8ff" stroke="#63b8ff" points="846.12,-144.31 853.3,-136.52 842.83,-138.14 846.12,-144.31"/>
</a>
</g>
</g>
<!-- Node20 -->
<g id="Node000020" class="node">
<title>Node20</title>
<g id="a_Node000020"><a xlink:href="../../d3/d6e/_field_prototype_8hpp.html" target="_top" xlink:title="FieldPrototype template for describing and handling protocol fields.">
<polygon fill="white" stroke="#666666" points="834.38,-135.38 666.88,-135.38 666.88,-116.12 834.38,-116.12 834.38,-135.38"/>
<text xml:space="preserve" text-anchor="middle" x="750.62" y="-121.88" font-family="Helvetica,sans-Serif" font-size="10.00">prototypes/field/FieldPrototype.hpp</text>
</a>
</g>
</g>
<!-- Node18&#45;&gt;Node20 -->
<g id="edge29_Node000018_Node000020" class="edge">
<title>Node18&#45;&gt;Node20</title>
<g id="a_edge29_Node000018_Node000020"><a xlink:title=" ">
<path fill="none" stroke="#63b8ff" d="M750.62,-182.28C750.62,-173.23 750.62,-158.95 750.62,-147.13"/>
<polygon fill="#63b8ff" stroke="#63b8ff" points="754.13,-147.16 750.63,-137.16 747.13,-147.16 754.13,-147.16"/>
</a>
</g>
</g>
<!-- Node20&#45;&gt;Node6 -->
<g id="edge31_Node000020_Node000006" class="edge">
<title>Node20&#45;&gt;Node6</title>
<g id="a_edge31_Node000020_Node000006"><a xlink:title=" ">
<path fill="none" stroke="#63b8ff" d="M692.23,-115.66C681.07,-113.94 669.49,-112.16 658.62,-110.5 555.54,-94.78 526.05,-96.84 421.6,-74.94"/>
<polygon fill="#63b8ff" stroke="#63b8ff" points="422.56,-71.56 412.05,-72.91 421.11,-78.41 422.56,-71.56"/>
</a>
</g>
</g>
<!-- Node20&#45;&gt;Node14 -->
<g id="edge37_Node000020_Node000014" class="edge">
<title>Node20&#45;&gt;Node14</title>
<g id="a_edge37_Node000020_Node000014"><a xlink:title=" ">
<path fill="none" stroke="#63b8ff" d="M794.25,-115.65C839.93,-106.1 914.05,-90.57 987.75,-74.89"/>
<polygon fill="#63b8ff" stroke="#63b8ff" points="988.09,-78.4 997.14,-72.89 986.63,-71.55 988.09,-78.4"/>
</a>
</g>
</g>
<!-- Node21 -->
<g id="Node000021" class="node">
<title>Node21</title>
<g id="a_Node000021"><a xlink:title=" ">
<polygon fill="#e0e0e0" stroke="#999999" points="914.25,-19.25 869,-19.25 869,0 914.25,0 914.25,-19.25"/>
<text xml:space="preserve" text-anchor="middle" x="891.62" y="-5.75" font-family="Helvetica,sans-Serif" font-size="10.00">cstdint</text>
</a>
</g>
</g>
<!-- Node20&#45;&gt;Node21 -->
<g id="edge30_Node000020_Node000021" class="edge">
<title>Node20&#45;&gt;Node21</title>
<g id="a_edge30_Node000020_Node000021"><a xlink:title=" ">
<path fill="none" stroke="#63b8ff" d="M812.95,-115.65C838.68,-108.66 866.44,-96.32 883.62,-74.5 893.26,-62.27 894.78,-44.42 894.16,-30.71"/>
<polygon fill="#63b8ff" stroke="#63b8ff" points="897.67,-30.7 893.3,-21.05 890.7,-31.32 897.67,-30.7"/>
</a>
</g>
</g>
<!-- Node22 -->
<g id="Node000022" class="node">
<title>Node22</title>
<g id="a_Node000022"><a xlink:title=" ">
<polygon fill="#e0e0e0" stroke="#999999" points="980.5,-74.5 930.75,-74.5 930.75,-55.25 980.5,-55.25 980.5,-74.5"/>
<text xml:space="preserve" text-anchor="middle" x="955.62" y="-61" font-family="Helvetica,sans-Serif" font-size="10.00">iomanip</text>
</a>
</g>
</g>
<!-- Node20&#45;&gt;Node22 -->
<g id="edge32_Node000020_Node000022" class="edge">
<title>Node20&#45;&gt;Node22</title>
<g id="a_edge32_Node000020_Node000022"><a xlink:title=" ">
<path fill="none" stroke="#63b8ff" d="M782.21,-115.68C819.31,-105.02 880.74,-87.38 919.65,-76.21"/>
<polygon fill="#63b8ff" stroke="#63b8ff" points="920.37,-79.64 929.02,-73.52 918.44,-72.91 920.37,-79.64"/>
</a>
</g>
</g>
<!-- Node23 -->
<g id="Node000023" class="node">
<title>Node23</title>
<g id="a_Node000023"><a xlink:title=" ">
<polygon fill="#e0e0e0" stroke="#999999" points="481.38,-74.5 427.88,-74.5 427.88,-55.25 481.38,-55.25 481.38,-74.5"/>
<text xml:space="preserve" text-anchor="middle" x="454.62" y="-61" font-family="Helvetica,sans-Serif" font-size="10.00">iostream</text>
</a>
</g>
</g>
<!-- Node20&#45;&gt;Node23 -->
<g id="edge33_Node000020_Node000023" class="edge">
<title>Node20&#45;&gt;Node23</title>
<g id="a_edge33_Node000020_Node000023"><a xlink:title=" ">
<path fill="none" stroke="#63b8ff" d="M699.45,-115.7C649.08,-106.62 569.72,-91.82 492.59,-75.07"/>
<polygon fill="#63b8ff" stroke="#63b8ff" points="493.72,-71.74 483.2,-73.02 492.23,-78.58 493.72,-71.74"/>
</a>
</g>
</g>
<!-- Node24 -->
<g id="Node000024" class="node">
<title>Node24</title>
<g id="a_Node000024"><a xlink:title=" ">
<polygon fill="#e0e0e0" stroke="#999999" points="538.25,-74.5 499,-74.5 499,-55.25 538.25,-55.25 538.25,-74.5"/>
<text xml:space="preserve" text-anchor="middle" x="518.62" y="-61" font-family="Helvetica,sans-Serif" font-size="10.00">limits</text>
</a>
</g>
</g>
<!-- Node20&#45;&gt;Node24 -->
<g id="edge34_Node000020_Node000024" class="edge">
<title>Node20&#45;&gt;Node24</title>
<g id="a_edge34_Node000020_Node000024"><a xlink:title=" ">
<path fill="none" stroke="#63b8ff" d="M710.96,-115.69C672.06,-106.65 610.83,-92 549.51,-75.19"/>
<polygon fill="#63b8ff" stroke="#63b8ff" points="550.5,-71.83 539.93,-72.54 548.63,-78.58 550.5,-71.83"/>
</a>
</g>
</g>
<!-- Node25 -->
<g id="Node000025" class="node">
<title>Node25</title>
<g id="a_Node000025"><a xlink:title=" ">
<polygon fill="#e0e0e0" stroke="#999999" points="607.25,-74.5 556,-74.5 556,-55.25 607.25,-55.25 607.25,-74.5"/>
<text xml:space="preserve" text-anchor="middle" x="581.62" y="-61" font-family="Helvetica,sans-Serif" font-size="10.00">sstream</text>
</a>
</g>
</g>
<!-- Node20&#45;&gt;Node25 -->
<g id="edge35_Node000020_Node000025" class="edge">
<title>Node20&#45;&gt;Node25</title>
<g id="a_edge35_Node000020_Node000025"><a xlink:title=" ">
<path fill="none" stroke="#63b8ff" d="M724.59,-115.68C696.18,-105.78 650.48,-89.86 618.41,-78.69"/>
<polygon fill="#63b8ff" stroke="#63b8ff" points="619.71,-75.44 609.12,-75.45 617.41,-82.05 619.71,-75.44"/>
</a>
</g>
</g>
<!-- Node26 -->
<g id="Node000026" class="node">
<title>Node26</title>
<g id="a_Node000026"><a xlink:title=" ">
<polygon fill="#e0e0e0" stroke="#999999" points="692.38,-19.25 626.88,-19.25 626.88,0 692.38,0 692.38,-19.25"/>
<text xml:space="preserve" text-anchor="middle" x="659.62" y="-5.75" font-family="Helvetica,sans-Serif" font-size="10.00">string_view</text>
</a>
</g>
</g>
<!-- Node20&#45;&gt;Node26 -->
<g id="edge36_Node000020_Node000026" class="edge">
<title>Node20&#45;&gt;Node26</title>
<g id="a_edge36_Node000020_Node000026"><a xlink:title=" ">
<path fill="none" stroke="#63b8ff" d="M714.3,-115.65C693.19,-108.3 668.33,-95.6 655.62,-74.5 647.72,-61.38 649.49,-43.88 652.8,-30.51"/>
<polygon fill="#63b8ff" stroke="#63b8ff" points="656.11,-31.68 655.62,-21.09 649.4,-29.67 656.11,-31.68"/>
</a>
</g>
</g>
<!-- Node27 -->
<g id="Node000027" class="node">
<title>Node27</title>
<g id="a_Node000027"><a xlink:title=" ">
<polygon fill="#e0e0e0" stroke="#999999" points="707.12,-74.5 664.12,-74.5 664.12,-55.25 707.12,-55.25 707.12,-74.5"/>
<text xml:space="preserve" text-anchor="middle" x="685.62" y="-61" font-family="Helvetica,sans-Serif" font-size="10.00">vector</text>
</a>
</g>
</g>
<!-- Node20&#45;&gt;Node27 -->
<g id="edge38_Node000020_Node000027" class="edge">
<title>Node20&#45;&gt;Node27</title>
<g id="a_edge38_Node000020_Node000027"><a xlink:title=" ">
<path fill="none" stroke="#63b8ff" d="M740.75,-115.81C731.02,-106.99 715.9,-93.3 703.96,-82.48"/>
<polygon fill="#63b8ff" stroke="#63b8ff" points="706.47,-80.04 696.71,-75.92 701.77,-85.22 706.47,-80.04"/>
</a>
</g>
</g>
<!-- Node28 -->
<g id="Node000028" class="node">
<title>Node28</title>
<g id="a_Node000028"><a xlink:href="../../d8/d46/_field_flags_8hpp.html" target="_top" xlink:title="Common enums and utilities for protocol field names and flags.">
<polygon fill="white" stroke="#666666" points="874.38,-74.5 724.88,-74.5 724.88,-55.25 874.38,-55.25 874.38,-74.5"/>
<text xml:space="preserve" text-anchor="middle" x="799.62" y="-61" font-family="Helvetica,sans-Serif" font-size="10.00">prototypes/field/FieldFlags.hpp</text>
</a>
</g>
</g>
<!-- Node20&#45;&gt;Node28 -->
<g id="edge39_Node000020_Node000028" class="edge">
<title>Node20&#45;&gt;Node28</title>
<g id="a_edge39_Node000020_Node000028"><a xlink:title=" ">
<path fill="none" stroke="#63b8ff" d="M758.07,-115.81C765.19,-107.25 776.13,-94.1 785,-83.45"/>
<polygon fill="#63b8ff" stroke="#63b8ff" points="787.44,-85.99 791.14,-76.06 782.06,-81.51 787.44,-85.99"/>
</a>
</g>
</g>
<!-- Node28&#45;&gt;Node21 -->
<g id="edge41_Node000028_Node000021" class="edge">
<title>Node28&#45;&gt;Node21</title>
<g id="a_edge41_Node000028_Node000021"><a xlink:title=" ">
<path fill="none" stroke="#63b8ff" d="M815.23,-54.84C829.24,-46.73 850.06,-34.68 866.43,-25.21"/>
<polygon fill="#63b8ff" stroke="#63b8ff" points="867.73,-28.5 874.63,-20.46 864.22,-22.44 867.73,-28.5"/>
</a>
</g>
</g>
<!-- Node28&#45;&gt;Node26 -->
<g id="edge43_Node000028_Node000026" class="edge">
<title>Node28&#45;&gt;Node26</title>
<g id="a_edge43_Node000028_Node000026"><a xlink:title=" ">
<path fill="none" stroke="#63b8ff" d="M775.88,-54.84C753.45,-46.31 719.56,-33.42 694.15,-23.76"/>
<polygon fill="#63b8ff" stroke="#63b8ff" points="695.5,-20.52 684.91,-20.24 693.01,-27.07 695.5,-20.52"/>
</a>
</g>
</g>
<!-- Node29 -->
<g id="Node000029" class="node">
<title>Node29</title>
<g id="a_Node000029"><a xlink:title=" ">
<polygon fill="#e0e0e0" stroke="#999999" points="829.5,-19.25 791.75,-19.25 791.75,0 829.5,0 829.5,-19.25"/>
<text xml:space="preserve" text-anchor="middle" x="810.62" y="-5.75" font-family="Helvetica,sans-Serif" font-size="10.00">array</text>
</a>
</g>
</g>
<!-- Node28&#45;&gt;Node29 -->
<g id="edge40_Node000028_Node000029" class="edge">
<title>Node28&#45;&gt;Node29</title>
<g id="a_edge40_Node000028_Node000029"><a xlink:title=" ">
<path fill="none" stroke="#63b8ff" d="M801.44,-55.08C802.8,-48.49 804.72,-39.21 806.45,-30.82"/>
<polygon fill="#63b8ff" stroke="#63b8ff" points="809.87,-31.59 808.46,-21.09 803.01,-30.18 809.87,-31.59"/>
</a>
</g>
</g>
<!-- Node30 -->
<g id="Node000030" class="node">
<title>Node30</title>
<g id="a_Node000030"><a xlink:title=" ">
<polygon fill="#e0e0e0" stroke="#999999" points="773.25,-19.25 722,-19.25 722,0 773.25,0 773.25,-19.25"/>
<text xml:space="preserve" text-anchor="middle" x="747.62" y="-5.75" font-family="Helvetica,sans-Serif" font-size="10.00">ostream</text>
</a>
</g>
</g>
<!-- Node28&#45;&gt;Node30 -->
<g id="edge42_Node000028_Node000030" class="edge">
<title>Node28&#45;&gt;Node30</title>
<g id="a_edge42_Node000028_Node000030"><a xlink:title=" ">
<path fill="none" stroke="#63b8ff" d="M791.04,-55.08C783.78,-47.65 773.17,-36.79 764.26,-27.66"/>
<polygon fill="#63b8ff" stroke="#63b8ff" points="766.95,-25.4 757.46,-20.69 761.94,-30.29 766.95,-25.4"/>
</a>
</g>
</g>
</g>
</svg>

<g id="navigator" transform="translate(0 0)" fill="#404254">
  <rect fill="#f2f5e9" fill-opacity="0.5" stroke="#606060" stroke-width=".5" x="0" y="0" width="60" height="60"/>
  <use id="zoomplus" xlink:href="#zoomPlus" x="17" y="9" onmousedown="handleZoom(evt,'in')"/>
  <use id="zoomminus" xlink:href="#zoomMin" x="42" y="9" onmousedown="handleZoom(evt,'out')"/>
  <use id="reset" xlink:href="#resetDef" x="30" y="36" onmousedown="handleReset()"/>
   <use id="arrowup" xlink:href="#arrowUp" x="0" y="0" onmousedown="handlePan(0,-1)"/>
  <use id="arrowright" xlink:href="#arrowRight" x="0" y="0" onmousedown="handlePan(1,0)"/>
  <use id="arrowdown" xlink:href="#arrowDown" x="0" y="0" onmousedown="handlePan(0,1)"/>
  <use id="arrowleft" xlink:href="#arrowLeft" x="0" y="0" onmousedown="handlePan(-1,0)"/>
</g>
<svg viewBox="0 0 15 15" width="100%" height="30px" preserveAspectRatio="xMaxYMin meet">
 <g id="arrow_out" transform="scale(0.3 0.3)">
  <a xlink:href="_protocol_no_sys_endpoint_8hpp__incl_org.svg" target="_base">
   <rect id="button" ry="5" rx="5" y="6" x="6" height="38" width="38"
        fill="#f2f5e9" fill-opacity="0.5" stroke="#606060" stroke-width="1.0"/>
   <path id="arrow"
     d="M 11.500037,31.436501 C 11.940474,20.09759 22.043105,11.32322 32.158766,21.979434 L 37.068811,17.246167 C 37.068811,17.246167 37.088388,32 37.088388,32 L 22.160133,31.978069 C 22.160133,31.978069 26.997745,27.140456 26.997745,27.140456 C 18.528582,18.264221 13.291696,25.230495 11.500037,31.436501 z"
     style="fill:#404040;"/>
  </a>
 </g>
</svg>

<style type='text/css'>
<![CDATA[
[data-mouse-over-selected='false'] { opacity: 0.7; }
[data-mouse-over-selected='true']  { opacity: 1.0; }
]]>
</style>
<script type="application/ecmascript"><![CDATA[
document.addEventListener('DOMContentLoaded', (event) => {
  highlightEdges();
  highlightAdjacentNodes();
});
]]></script>
</svg>
