<?xml version="1.0" encoding="UTF-8" standalone="no"?>
<!DOCTYPE svg PUBLIC "-//W3C//DTD SVG 1.1//EN"
 "http://www.w3.org/Graphics/SVG/1.1/DTD/svg11.dtd">
<!-- Generated by graphviz version 2.43.0 (0)
 -->
<!-- Title: exoAtlantProtocol.hpp Pages: 1 -->
<!--zoomable 445 -->

<svg id="main" version="1.1" xmlns="http://www.w3.org/2000/svg" xmlns:xlink="http://www.w3.org/1999/xlink" xml:space="preserve" onload="init(evt)">
<style type="text/css"><![CDATA[
.node, .edge {opacity: 0.7;}
.node.selected, .edge.selected {opacity: 1;}
.edge:hover path { stroke: red; }
.edge:hover polygon { stroke: red; fill: red; }
]]></style>

<defs>
  <circle id="rim" cx="0" cy="0" r="7"/>
  <circle id="rim2" cx="0" cy="0" r="3.5"/>
  <g id="zoomPlus">
    <use xlink:href="#rim" fill="#404040"><set attributeName="fill" to="#808080" begin="zoomplus.mouseover" end="zoomplus.mouseout"/></use>
    <path d="M-4,0h8M0,-4v8" fill="none" stroke="white" stroke-width="1.5" pointer-events="none"/>
  </g>
  <g id="zoomMin">
    <use xlink:href="#rim" fill="#404040"><set attributeName="fill" to="#808080" begin="zoomminus.mouseover" end="zoomminus.mouseout"/></use>
    <path d="M-4,0h8" fill="none" stroke="white" stroke-width="1.5" pointer-events="none"/>
  </g>
  <g id="arrowUp" transform="translate(30 24)">
    <use xlink:href="#rim"/>
    <path pointer-events="none" fill="none" stroke="white" stroke-width="1.5" d="M0,-3.0v7 M-2.5,-0.5L0,-3.0L2.5,-0.5"/>
  </g>
  <g id="arrowRight" transform="rotate(90) translate(36 -43)">
    <use xlink:href="#rim"/>
    <path pointer-events="none" fill="none" stroke="white" stroke-width="1.5" d="M0,-3.0v7 M-2.5,-0.5L0,-3.0L2.5,-0.5"/>
  </g>
  <g id="arrowDown" transform="rotate(180) translate(-30 -48)">
    <use xlink:href="#rim"/>
    <path pointer-events="none" fill="none" stroke="white" stroke-width="1.5" d="M0,-3.0v7 M-2.5,-0.5L0,-3.0L2.5,-0.5"/>
  </g>
  <g id="arrowLeft" transform="rotate(270) translate(-36 17)">
    <use xlink:href="#rim"/>
    <path pointer-events="none" fill="none" stroke="white" stroke-width="1.5" d="M0,-3.0v7 M-2.5,-0.5L0,-3.0L2.5,-0.5"/>
  </g>
  <g id="resetDef">
    <use xlink:href="#rim2" fill="#404040"><set attributeName="fill" to="#808080" begin="reset.mouseover" end="reset.mouseout"/></use>
  </g>
</defs>
<script type="application/ecmascript">
var viewWidth = 1617;
var viewHeight = 445;
var sectionId = 'dynsection-0';
</script>
<script type="application/ecmascript" xlink:href="../../svg.min.js"/>
<svg id="graph" class="graph">
<g id="viewport">
<title>exoAtlantProtocol.hpp</title>
<!-- Node1 -->
<g id="Node000001" class="node">
<title>Node1</title>
<g id="a_Node000001"><a xlink:title=" ">
<polygon fill="#999999" stroke="#666666" points="834,-437 710,-437 710,-418 834,-418 834,-437"/>
<text text-anchor="middle" x="772" y="-425" font-family="Helvetica,sans-Serif" font-size="10.00">exoAtlantProtocol.hpp</text>
</a>
</g>
</g>
<!-- Node2 -->
<g id="Node000002" class="node">
<title>Node2</title>
<g id="a_Node000002"><a xlink:title=" ">
<polygon fill="#e0e0e0" stroke="#999999" points="1382,-19 1332,-19 1332,0 1382,0 1382,-19"/>
<text text-anchor="middle" x="1357" y="-7" font-family="Helvetica,sans-Serif" font-size="10.00">cstdint</text>
</a>
</g>
</g>
<!-- Node1&#45;&gt;Node2 -->
<g id="edge1_Node000001_Node000002" class="edge">
<title>Node1&#45;&gt;Node2</title>
<g id="a_edge1_Node000001_Node000002"><a xlink:title=" ">
<path fill="none" stroke="#63b8ff" d="M834.15,-424.59C1027.9,-417.84 1608,-391.09 1608,-313 1608,-313 1608,-313 1608,-118.5 1608,-89.04 1610.86,-74.75 1589,-55 1560.57,-29.31 1450.03,-17.41 1392.4,-12.86"/>
<polygon fill="#63b8ff" stroke="#63b8ff" points="1392.52,-9.36 1382.28,-12.1 1391.99,-16.34 1392.52,-9.36"/>
</a>
</g>
</g>
<!-- Node3 -->
<g id="Node000003" class="node">
<title>Node3</title>
<g id="a_Node000003"><a xlink:title=" ">
<polygon fill="#e0e0e0" stroke="#999999" points="560.5,-74 519.5,-74 519.5,-55 560.5,-55 560.5,-74"/>
<text text-anchor="middle" x="540" y="-62" font-family="Helvetica,sans-Serif" font-size="10.00">tuple</text>
</a>
</g>
</g>
<!-- Node1&#45;&gt;Node3 -->
<g id="edge2_Node000001_Node000003" class="edge">
<title>Node1&#45;&gt;Node3</title>
<g id="a_edge2_Node000001_Node000003"><a xlink:title=" ">
<path fill="none" stroke="#63b8ff" d="M709.8,-423.88C526.31,-415.34 0,-384.59 0,-313 0,-313 0,-313 0,-179 0,-74.13 394.96,-65.62 509.32,-65.35"/>
<polygon fill="#63b8ff" stroke="#63b8ff" points="509.49,-68.85 519.49,-65.35 509.49,-61.85 509.49,-68.85"/>
</a>
</g>
</g>
<!-- Node4 -->
<g id="Node000004" class="node">
<title>Node4</title>
<g id="a_Node000004"><a xlink:href="../../db/d8d/NamedTuple_8hpp.html" target="_top" xlink:title=" ">
<polygon fill="white" stroke="#666666" points="1177,-189.5 1079,-189.5 1079,-170.5 1177,-170.5 1177,-189.5"/>
<text text-anchor="middle" x="1128" y="-177.5" font-family="Helvetica,sans-Serif" font-size="10.00">NamedTuple.hpp</text>
</a>
</g>
</g>
<!-- Node1&#45;&gt;Node4 -->
<g id="edge3_Node000001_Node000004" class="edge">
<title>Node1&#45;&gt;Node4</title>
<g id="a_edge3_Node000001_Node000004"><a xlink:title=" ">
<path fill="none" stroke="#63b8ff" d="M784.67,-417.76C837.55,-381.3 1040.95,-241.03 1107.09,-195.42"/>
<polygon fill="#63b8ff" stroke="#63b8ff" points="1109.24,-198.19 1115.48,-189.63 1105.26,-192.43 1109.24,-198.19"/>
</a>
</g>
</g>
<!-- Node18 -->
<g id="Node000018" class="node">
<title>Node18</title>
<g id="a_Node000018"><a xlink:href="../../dc/dc4/ProtocolNoSysEndpoint_8hpp.html" target="_top" xlink:title=" ">
<polygon fill="white" stroke="#666666" points="487.5,-382 336.5,-382 336.5,-363 487.5,-363 487.5,-382"/>
<text text-anchor="middle" x="412" y="-370" font-family="Helvetica,sans-Serif" font-size="10.00">ProtocolNoSysEndpoint.hpp</text>
</a>
</g>
</g>
<!-- Node1&#45;&gt;Node18 -->
<g id="edge22_Node000001_Node000018" class="edge">
<title>Node1&#45;&gt;Node18</title>
<g id="a_edge22_Node000001_Node000018"><a xlink:title=" ">
<path fill="none" stroke="#63b8ff" d="M714.16,-417.98C650.35,-408.59 547.78,-393.49 480.13,-383.53"/>
<polygon fill="#63b8ff" stroke="#63b8ff" points="480.4,-380.03 469.99,-382.04 479.38,-386.96 480.4,-380.03"/>
</a>
</g>
</g>
<!-- Node4&#45;&gt;Node3 -->
<g id="edge4_Node000004_Node000003" class="edge">
<title>Node4&#45;&gt;Node3</title>
<g id="a_edge4_Node000004_Node000003"><a xlink:title=" ">
<path fill="none" stroke="#63b8ff" d="M1078.72,-171.41C1063.74,-169.21 1047.21,-166.9 1032,-165 878.14,-145.81 834.92,-168.57 685,-129 683.49,-128.6 610.6,-96.57 568.76,-78.16"/>
<polygon fill="#63b8ff" stroke="#63b8ff" points="570.16,-74.95 559.59,-74.13 567.34,-81.36 570.16,-74.95"/>
</a>
</g>
</g>
<!-- Node5 -->
<g id="Node000005" class="node">
<title>Node5</title>
<g id="a_Node000005"><a xlink:title=" ">
<polygon fill="#e0e0e0" stroke="#999999" points="897.5,-74 828.5,-74 828.5,-55 897.5,-55 897.5,-74"/>
<text text-anchor="middle" x="863" y="-62" font-family="Helvetica,sans-Serif" font-size="10.00">type_traits</text>
</a>
</g>
</g>
<!-- Node4&#45;&gt;Node5 -->
<g id="edge5_Node000004_Node000005" class="edge">
<title>Node4&#45;&gt;Node5</title>
<g id="a_edge5_Node000004_Node000005"><a xlink:title=" ">
<path fill="none" stroke="#63b8ff" d="M1122.62,-170.21C1113,-155.32 1091.41,-125.25 1065,-110 1058.14,-106.04 964.82,-86.41 907.45,-74.58"/>
<polygon fill="#63b8ff" stroke="#63b8ff" points="908.03,-71.13 897.53,-72.54 906.62,-77.98 908.03,-71.13"/>
</a>
</g>
</g>
<!-- Node6 -->
<g id="Node000006" class="node">
<title>Node6</title>
<g id="a_Node000006"><a xlink:title=" ">
<polygon fill="#e0e0e0" stroke="#999999" points="632.5,-129 587.5,-129 587.5,-110 632.5,-110 632.5,-129"/>
<text text-anchor="middle" x="610" y="-117" font-family="Helvetica,sans-Serif" font-size="10.00">utility</text>
</a>
</g>
</g>
<!-- Node4&#45;&gt;Node6 -->
<g id="edge6_Node000004_Node000006" class="edge">
<title>Node4&#45;&gt;Node6</title>
<g id="a_edge6_Node000004_Node000006"><a xlink:title=" ">
<path fill="none" stroke="#63b8ff" d="M1078.73,-171.32C1063.75,-169.12 1047.22,-166.82 1032,-165 861.36,-144.59 816.68,-156.3 647,-129 645.54,-128.76 644.04,-128.5 642.54,-128.23"/>
<polygon fill="#63b8ff" stroke="#63b8ff" points="643.1,-124.77 632.6,-126.19 641.7,-131.63 643.1,-124.77"/>
</a>
</g>
</g>
<!-- Node7 -->
<g id="Node000007" class="node">
<title>Node7</title>
<g id="a_Node000007"><a xlink:href="../../df/db6/FieldPrototype_8hpp.html" target="_top" xlink:title="FieldPrototype template for describing and handling protocol fields.">
<polygon fill="white" stroke="#666666" points="1381,-129 1193,-129 1193,-110 1381,-110 1381,-129"/>
<text text-anchor="middle" x="1287" y="-117" font-family="Helvetica,sans-Serif" font-size="10.00">prototypes/field/FieldPrototype.hpp</text>
</a>
</g>
</g>
<!-- Node4&#45;&gt;Node7 -->
<g id="edge7_Node000004_Node000007" class="edge">
<title>Node4&#45;&gt;Node7</title>
<g id="a_edge7_Node000004_Node000007"><a xlink:title=" ">
<path fill="none" stroke="#63b8ff" d="M1151.12,-170.49C1178.32,-160.49 1223.67,-143.8 1254.42,-132.49"/>
<polygon fill="#63b8ff" stroke="#63b8ff" points="1255.68,-135.75 1263.85,-129.02 1253.26,-129.18 1255.68,-135.75"/>
</a>
</g>
</g>
<!-- Node7&#45;&gt;Node2 -->
<g id="edge8_Node000007_Node000002" class="edge">
<title>Node7&#45;&gt;Node2</title>
<g id="a_edge8_Node000007_Node000002"><a xlink:title=" ">
<path fill="none" stroke="#63b8ff" d="M1292.73,-109.66C1304.32,-91.77 1330.75,-51 1345.86,-27.69"/>
<polygon fill="#63b8ff" stroke="#63b8ff" points="1348.89,-29.45 1351.39,-19.16 1343.01,-25.65 1348.89,-29.45"/>
</a>
</g>
</g>
<!-- Node7&#45;&gt;Node5 -->
<g id="edge15_Node000007_Node000005" class="edge">
<title>Node7&#45;&gt;Node5</title>
<g id="a_edge15_Node000007_Node000005"><a xlink:title=" ">
<path fill="none" stroke="#63b8ff" d="M1196.66,-109.98C1121.71,-102.43 1012.12,-90.33 907.77,-74.18"/>
<polygon fill="#63b8ff" stroke="#63b8ff" points="908.11,-70.69 897.69,-72.6 907.03,-77.6 908.11,-70.69"/>
</a>
</g>
</g>
<!-- Node8 -->
<g id="Node000008" class="node">
<title>Node8</title>
<g id="a_Node000008"><a xlink:title=" ">
<polygon fill="#e0e0e0" stroke="#999999" points="1580,-74 1530,-74 1530,-55 1580,-55 1580,-74"/>
<text text-anchor="middle" x="1555" y="-62" font-family="Helvetica,sans-Serif" font-size="10.00">cstring</text>
</a>
</g>
</g>
<!-- Node7&#45;&gt;Node8 -->
<g id="edge9_Node000007_Node000008" class="edge">
<title>Node7&#45;&gt;Node8</title>
<g id="a_edge9_Node000007_Node000008"><a xlink:title=" ">
<path fill="none" stroke="#63b8ff" d="M1336.47,-109.94C1381.72,-101.92 1450.74,-89.21 1519.63,-74.2"/>
<polygon fill="#63b8ff" stroke="#63b8ff" points="1520.77,-77.54 1529.79,-71.97 1519.27,-70.7 1520.77,-77.54"/>
</a>
</g>
</g>
<!-- Node9 -->
<g id="Node000009" class="node">
<title>Node9</title>
<g id="a_Node000009"><a xlink:title=" ">
<polygon fill="#e0e0e0" stroke="#999999" points="1434,-74 1378,-74 1378,-55 1434,-55 1434,-74"/>
<text text-anchor="middle" x="1406" y="-62" font-family="Helvetica,sans-Serif" font-size="10.00">iomanip</text>
</a>
</g>
</g>
<!-- Node7&#45;&gt;Node9 -->
<g id="edge10_Node000007_Node000009" class="edge">
<title>Node7&#45;&gt;Node9</title>
<g id="a_edge10_Node000007_Node000009"><a xlink:title=" ">
<path fill="none" stroke="#63b8ff" d="M1306.12,-109.98C1325.35,-101.42 1355.23,-88.11 1377.31,-78.28"/>
<polygon fill="#63b8ff" stroke="#63b8ff" points="1378.82,-81.44 1386.53,-74.17 1375.97,-75.04 1378.82,-81.44"/>
</a>
</g>
</g>
<!-- Node10 -->
<g id="Node000010" class="node">
<title>Node10</title>
<g id="a_Node000010"><a xlink:title=" ">
<polygon fill="#e0e0e0" stroke="#999999" points="1512,-74 1452,-74 1452,-55 1512,-55 1512,-74"/>
<text text-anchor="middle" x="1482" y="-62" font-family="Helvetica,sans-Serif" font-size="10.00">iostream</text>
</a>
</g>
</g>
<!-- Node7&#45;&gt;Node10 -->
<g id="edge11_Node000007_Node000010" class="edge">
<title>Node7&#45;&gt;Node10</title>
<g id="a_edge11_Node000007_Node000010"><a xlink:title=" ">
<path fill="none" stroke="#63b8ff" d="M1318.33,-109.98C1351.89,-100.86 1405.24,-86.36 1441.86,-76.41"/>
<polygon fill="#63b8ff" stroke="#63b8ff" points="1442.98,-79.73 1451.71,-73.73 1441.14,-72.98 1442.98,-79.73"/>
</a>
</g>
</g>
<!-- Node11 -->
<g id="Node000011" class="node">
<title>Node11</title>
<g id="a_Node000011"><a xlink:title=" ">
<polygon fill="#e0e0e0" stroke="#999999" points="1025,-74 981,-74 981,-55 1025,-55 1025,-74"/>
<text text-anchor="middle" x="1003" y="-62" font-family="Helvetica,sans-Serif" font-size="10.00">limits</text>
</a>
</g>
</g>
<!-- Node7&#45;&gt;Node11 -->
<g id="edge12_Node000007_Node000011" class="edge">
<title>Node7&#45;&gt;Node11</title>
<g id="a_edge12_Node000007_Node000011"><a xlink:title=" ">
<path fill="none" stroke="#63b8ff" d="M1229.67,-109.98C1180.51,-102.33 1107.6,-90.13 1035.46,-74.16"/>
<polygon fill="#63b8ff" stroke="#63b8ff" points="1035.81,-70.65 1025.29,-71.88 1034.28,-77.48 1035.81,-70.65"/>
</a>
</g>
</g>
<!-- Node12 -->
<g id="Node000012" class="node">
<title>Node12</title>
<g id="a_Node000012"><a xlink:title=" ">
<polygon fill="#e0e0e0" stroke="#999999" points="1099,-74 1043,-74 1043,-55 1099,-55 1099,-74"/>
<text text-anchor="middle" x="1071" y="-62" font-family="Helvetica,sans-Serif" font-size="10.00">sstream</text>
</a>
</g>
</g>
<!-- Node7&#45;&gt;Node12 -->
<g id="edge13_Node000007_Node000012" class="edge">
<title>Node7&#45;&gt;Node12</title>
<g id="a_edge13_Node000007_Node000012"><a xlink:title=" ">
<path fill="none" stroke="#63b8ff" d="M1252.3,-109.98C1213.05,-100.35 1149.35,-84.72 1108.85,-74.79"/>
<polygon fill="#63b8ff" stroke="#63b8ff" points="1109.63,-71.37 1099.08,-72.39 1107.96,-78.17 1109.63,-71.37"/>
</a>
</g>
</g>
<!-- Node13 -->
<g id="Node000013" class="node">
<title>Node13</title>
<g id="a_Node000013"><a xlink:title=" ">
<polygon fill="#e0e0e0" stroke="#999999" points="1313.5,-19 1240.5,-19 1240.5,0 1313.5,0 1313.5,-19"/>
<text text-anchor="middle" x="1277" y="-7" font-family="Helvetica,sans-Serif" font-size="10.00">string_view</text>
</a>
</g>
</g>
<!-- Node7&#45;&gt;Node13 -->
<g id="edge14_Node000007_Node000013" class="edge">
<title>Node7&#45;&gt;Node13</title>
<g id="a_edge14_Node000007_Node000013"><a xlink:title=" ">
<path fill="none" stroke="#63b8ff" d="M1289.27,-109.82C1292.16,-97.53 1296.38,-74.42 1293,-55 1291.43,-46 1288.2,-36.42 1285.06,-28.46"/>
<polygon fill="#63b8ff" stroke="#63b8ff" points="1288.23,-26.97 1281.11,-19.12 1281.78,-29.69 1288.23,-26.97"/>
</a>
</g>
</g>
<!-- Node14 -->
<g id="Node000014" class="node">
<title>Node14</title>
<g id="a_Node000014"><a xlink:title=" ">
<polygon fill="#e0e0e0" stroke="#999999" points="962.5,-74 915.5,-74 915.5,-55 962.5,-55 962.5,-74"/>
<text text-anchor="middle" x="939" y="-62" font-family="Helvetica,sans-Serif" font-size="10.00">vector</text>
</a>
</g>
</g>
<!-- Node7&#45;&gt;Node14 -->
<g id="edge16_Node000007_Node000014" class="edge">
<title>Node7&#45;&gt;Node14</title>
<g id="a_edge16_Node000007_Node000014"><a xlink:title=" ">
<path fill="none" stroke="#63b8ff" d="M1209.24,-109.97C1147.62,-102.64 1059.17,-90.88 972.71,-73.93"/>
<polygon fill="#63b8ff" stroke="#63b8ff" points="973.21,-70.46 962.72,-71.95 971.85,-77.33 973.21,-70.46"/>
</a>
</g>
</g>
<!-- Node15 -->
<g id="Node000015" class="node">
<title>Node15</title>
<g id="a_Node000015"><a xlink:href="../../d4/d9e/FieldFlags_8hpp.html" target="_top" xlink:title="Common enums and utilities for protocol field names and flags.">
<polygon fill="white" stroke="#666666" points="1284.5,-74 1117.5,-74 1117.5,-55 1284.5,-55 1284.5,-74"/>
<text text-anchor="middle" x="1201" y="-62" font-family="Helvetica,sans-Serif" font-size="10.00">prototypes/field/FieldFlags.hpp</text>
</a>
</g>
</g>
<!-- Node7&#45;&gt;Node15 -->
<g id="edge17_Node000007_Node000015" class="edge">
<title>Node7&#45;&gt;Node15</title>
<g id="a_edge17_Node000007_Node000015"><a xlink:title=" ">
<path fill="none" stroke="#63b8ff" d="M1273.18,-109.98C1259.85,-101.77 1239.42,-89.18 1223.69,-79.49"/>
<polygon fill="#63b8ff" stroke="#63b8ff" points="1225.42,-76.44 1215.07,-74.17 1221.75,-82.4 1225.42,-76.44"/>
</a>
</g>
</g>
<!-- Node15&#45;&gt;Node2 -->
<g id="edge19_Node000015_Node000002" class="edge">
<title>Node15&#45;&gt;Node2</title>
<g id="a_edge19_Node000015_Node000002"><a xlink:title=" ">
<path fill="none" stroke="#63b8ff" d="M1226.06,-54.98C1252.11,-46.14 1293.05,-32.23 1322.22,-22.32"/>
<polygon fill="#63b8ff" stroke="#63b8ff" points="1323.66,-25.53 1332,-18.99 1321.4,-18.9 1323.66,-25.53"/>
</a>
</g>
</g>
<!-- Node15&#45;&gt;Node13 -->
<g id="edge21_Node000015_Node000013" class="edge">
<title>Node15&#45;&gt;Node13</title>
<g id="a_edge21_Node000015_Node000013"><a xlink:title=" ">
<path fill="none" stroke="#63b8ff" d="M1213.21,-54.98C1224.78,-46.92 1242.38,-34.65 1256.16,-25.03"/>
<polygon fill="#63b8ff" stroke="#63b8ff" points="1258.37,-27.76 1264.57,-19.17 1254.36,-22.02 1258.37,-27.76"/>
</a>
</g>
</g>
<!-- Node16 -->
<g id="Node000016" class="node">
<title>Node16</title>
<g id="a_Node000016"><a xlink:title=" ">
<polygon fill="#e0e0e0" stroke="#999999" points="1222,-19 1180,-19 1180,0 1222,0 1222,-19"/>
<text text-anchor="middle" x="1201" y="-7" font-family="Helvetica,sans-Serif" font-size="10.00">array</text>
</a>
</g>
</g>
<!-- Node15&#45;&gt;Node16 -->
<g id="edge18_Node000015_Node000016" class="edge">
<title>Node15&#45;&gt;Node16</title>
<g id="a_edge18_Node000015_Node000016"><a xlink:title=" ">
<path fill="none" stroke="#63b8ff" d="M1201,-54.75C1201,-47.8 1201,-37.85 1201,-29.13"/>
<polygon fill="#63b8ff" stroke="#63b8ff" points="1204.5,-29.09 1201,-19.09 1197.5,-29.09 1204.5,-29.09"/>
</a>
</g>
</g>
<!-- Node17 -->
<g id="Node000017" class="node">
<title>Node17</title>
<g id="a_Node000017"><a xlink:title=" ">
<polygon fill="#e0e0e0" stroke="#999999" points="1161.5,-19 1104.5,-19 1104.5,0 1161.5,0 1161.5,-19"/>
<text text-anchor="middle" x="1133" y="-7" font-family="Helvetica,sans-Serif" font-size="10.00">ostream</text>
</a>
</g>
</g>
<!-- Node15&#45;&gt;Node17 -->
<g id="edge20_Node000015_Node000017" class="edge">
<title>Node15&#45;&gt;Node17</title>
<g id="a_edge20_Node000015_Node000017"><a xlink:title=" ">
<path fill="none" stroke="#63b8ff" d="M1190.07,-54.98C1179.92,-47.07 1164.58,-35.11 1152.35,-25.58"/>
<polygon fill="#63b8ff" stroke="#63b8ff" points="1154.16,-22.56 1144.12,-19.17 1149.86,-28.08 1154.16,-22.56"/>
</a>
</g>
</g>
<!-- Node19 -->
<g id="Node000019" class="node">
<title>Node19</title>
<g id="a_Node000019"><a xlink:title=" ">
<polygon fill="#e0e0e0" stroke="#999999" points="334.5,-321.5 287.5,-321.5 287.5,-302.5 334.5,-302.5 334.5,-321.5"/>
<text text-anchor="middle" x="311" y="-309.5" font-family="Helvetica,sans-Serif" font-size="10.00">deque</text>
</a>
</g>
</g>
<!-- Node18&#45;&gt;Node19 -->
<g id="edge23_Node000018_Node000019" class="edge">
<title>Node18&#45;&gt;Node19</title>
<g id="a_edge23_Node000018_Node000019"><a xlink:title=" ">
<path fill="none" stroke="#63b8ff" d="M397.1,-362.87C380.69,-353.36 354.07,-337.95 334.77,-326.77"/>
<polygon fill="#63b8ff" stroke="#63b8ff" points="336.37,-323.65 325.96,-321.67 332.86,-329.71 336.37,-323.65"/>
</a>
</g>
</g>
<!-- Node20 -->
<g id="Node000020" class="node">
<title>Node20</title>
<g id="a_Node000020"><a xlink:title=" ">
<polygon fill="#e0e0e0" stroke="#999999" points="93.5,-189.5 28.5,-189.5 28.5,-170.5 93.5,-170.5 93.5,-189.5"/>
<text text-anchor="middle" x="61" y="-177.5" font-family="Helvetica,sans-Serif" font-size="10.00">functional</text>
</a>
</g>
</g>
<!-- Node18&#45;&gt;Node20 -->
<g id="edge24_Node000018_Node000020" class="edge">
<title>Node18&#45;&gt;Node20</title>
<g id="a_edge24_Node000018_Node000020"><a xlink:title=" ">
<path fill="none" stroke="#63b8ff" d="M376.63,-362.94C321.91,-348.5 215.12,-315.42 139,-261 113.33,-242.65 88.8,-215.32 74.31,-197.84"/>
<polygon fill="#63b8ff" stroke="#63b8ff" points="76.72,-195.25 67.7,-189.69 71.28,-199.66 76.72,-195.25"/>
</a>
</g>
</g>
<!-- Node21 -->
<g id="Node000021" class="node">
<title>Node21</title>
<g id="a_Node000021"><a xlink:href="../../da/d06/RxContainer_8hpp.html" target="_top" xlink:title="Stateful frame parsing container that incrementally matches and fills protocol fields from a byte str...">
<polygon fill="white" stroke="#666666" points="618,-327 500,-327 500,-297 618,-297 618,-327"/>
<text text-anchor="start" x="508" y="-315" font-family="Helvetica,sans-Serif" font-size="10.00">prototypes/container</text>
<text text-anchor="middle" x="559" y="-304" font-family="Helvetica,sans-Serif" font-size="10.00">/RxContainer.hpp</text>
</a>
</g>
</g>
<!-- Node18&#45;&gt;Node21 -->
<g id="edge25_Node000018_Node000021" class="edge">
<title>Node18&#45;&gt;Node21</title>
<g id="a_edge25_Node000018_Node000021"><a xlink:title=" ">
<path fill="none" stroke="#63b8ff" d="M433.38,-362.99C454.44,-354.61 487.27,-341.55 514.08,-330.87"/>
<polygon fill="#63b8ff" stroke="#63b8ff" points="515.66,-334.01 523.66,-327.06 513.07,-327.51 515.66,-334.01"/>
</a>
</g>
</g>
<!-- Node33 -->
<g id="Node000033" class="node">
<title>Node33</title>
<g id="a_Node000033"><a xlink:href="../../d9/d32/TxContainer_8hpp.html" target="_top" xlink:title="TX&#45;side container that builds protocol frames from a set of fields.">
<polygon fill="white" stroke="#666666" points="471,-327 353,-327 353,-297 471,-297 471,-327"/>
<text text-anchor="start" x="361" y="-315" font-family="Helvetica,sans-Serif" font-size="10.00">prototypes/container</text>
<text text-anchor="middle" x="412" y="-304" font-family="Helvetica,sans-Serif" font-size="10.00">/TxContainer.hpp</text>
</a>
</g>
</g>
<!-- Node18&#45;&gt;Node33 -->
<g id="edge53_Node000018_Node000033" class="edge">
<title>Node18&#45;&gt;Node33</title>
<g id="a_edge53_Node000018_Node000033"><a xlink:title=" ">
<path fill="none" stroke="#63b8ff" d="M412,-362.87C412,-356.11 412,-346.35 412,-337.26"/>
<polygon fill="#63b8ff" stroke="#63b8ff" points="415.5,-337.11 412,-327.11 408.5,-337.11 415.5,-337.11"/>
</a>
</g>
</g>
<!-- Node21&#45;&gt;Node3 -->
<g id="edge30_Node000021_Node000003" class="edge">
<title>Node21&#45;&gt;Node3</title>
<g id="a_edge30_Node000021_Node000003"><a xlink:title=" ">
<path fill="none" stroke="#63b8ff" d="M564.68,-296.93C570.46,-280.32 577.22,-252.26 567,-231 555.9,-207.92 533.44,-217.91 522,-195 508.89,-168.75 520.44,-158.34 520,-129 519.87,-120.56 518.23,-118.26 520,-110 521.97,-100.8 526,-91.2 529.93,-83.29"/>
<polygon fill="#63b8ff" stroke="#63b8ff" points="533.09,-84.79 534.68,-74.32 526.91,-81.51 533.09,-84.79"/>
</a>
</g>
</g>
<!-- Node21&#45;&gt;Node8 -->
<g id="edge27_Node000021_Node000008" class="edge">
<title>Node21&#45;&gt;Node8</title>
<g id="a_edge27_Node000021_Node000008"><a xlink:title=" ">
<path fill="none" stroke="#63b8ff" d="M618.1,-306.57C782.88,-293.63 1244.44,-253.04 1384,-195 1449.09,-167.93 1511.43,-110.08 1539.49,-81.77"/>
<polygon fill="#63b8ff" stroke="#63b8ff" points="1542.29,-83.92 1546.76,-74.31 1537.27,-79.03 1542.29,-83.92"/>
</a>
</g>
</g>
<!-- Node21&#45;&gt;Node20 -->
<g id="edge28_Node000021_Node000020" class="edge">
<title>Node21&#45;&gt;Node20</title>
<g id="a_edge28_Node000021_Node000020"><a xlink:title=" ">
<path fill="none" stroke="#63b8ff" d="M499.95,-300.25C493.23,-299.11 486.47,-298.01 480,-297 360.81,-278.47 325.82,-297.97 211,-261 162.03,-245.23 110.21,-213.85 82.12,-195.43"/>
<polygon fill="#63b8ff" stroke="#63b8ff" points="83.81,-192.34 73.54,-189.72 79.93,-198.17 83.81,-192.34"/>
</a>
</g>
</g>
<!-- Node22 -->
<g id="Node000022" class="node">
<title>Node22</title>
<g id="a_Node000022"><a xlink:title=" ">
<polygon fill="#e0e0e0" stroke="#999999" points="537,-255.5 473,-255.5 473,-236.5 537,-236.5 537,-255.5"/>
<text text-anchor="middle" x="505" y="-243.5" font-family="Helvetica,sans-Serif" font-size="10.00">algorithm</text>
</a>
</g>
</g>
<!-- Node21&#45;&gt;Node22 -->
<g id="edge26_Node000021_Node000022" class="edge">
<title>Node21&#45;&gt;Node22</title>
<g id="a_edge26_Node000021_Node000022"><a xlink:title=" ">
<path fill="none" stroke="#63b8ff" d="M547.02,-296.8C538.76,-287.01 527.76,-273.98 519.09,-263.7"/>
<polygon fill="#63b8ff" stroke="#63b8ff" points="521.59,-261.23 512.46,-255.84 516.24,-265.74 521.59,-261.23"/>
</a>
</g>
</g>
<!-- Node23 -->
<g id="Node000023" class="node">
<title>Node23</title>
<g id="a_Node000023"><a xlink:title=" ">
<polygon fill="#e0e0e0" stroke="#999999" points="455,-189.5 397,-189.5 397,-170.5 455,-170.5 455,-189.5"/>
<text text-anchor="middle" x="426" y="-177.5" font-family="Helvetica,sans-Serif" font-size="10.00">memory</text>
</a>
</g>
</g>
<!-- Node21&#45;&gt;Node23 -->
<g id="edge29_Node000021_Node000023" class="edge">
<title>Node21&#45;&gt;Node23</title>
<g id="a_edge29_Node000021_Node000023"><a xlink:title=" ">
<path fill="none" stroke="#63b8ff" d="M560.57,-296.95C561.71,-279.58 561,-249.99 546,-231 540.29,-223.77 492.99,-205.4 459.52,-193.06"/>
<polygon fill="#63b8ff" stroke="#63b8ff" points="460.65,-189.75 450.06,-189.6 458.25,-196.32 460.65,-189.75"/>
</a>
</g>
</g>
<!-- Node24 -->
<g id="Node000024" class="node">
<title>Node24</title>
<g id="a_Node000024"><a xlink:href="../../d1/dcf/CustomSpan_8hpp.html" target="_top" xlink:title=" ">
<polygon fill="white" stroke="#666666" points="210.5,-189.5 111.5,-189.5 111.5,-170.5 210.5,-170.5 210.5,-189.5"/>
<text text-anchor="middle" x="161" y="-177.5" font-family="Helvetica,sans-Serif" font-size="10.00">CustomSpan.hpp</text>
</a>
</g>
</g>
<!-- Node21&#45;&gt;Node24 -->
<g id="edge31_Node000021_Node000024" class="edge">
<title>Node21&#45;&gt;Node24</title>
<g id="a_edge31_Node000021_Node000024"><a xlink:title=" ">
<path fill="none" stroke="#63b8ff" d="M499.92,-300.39C493.21,-299.22 486.46,-298.07 480,-297 377.07,-279.9 342.02,-306.27 248,-261 239.65,-256.98 199.74,-218.78 176.99,-196.65"/>
<polygon fill="#63b8ff" stroke="#63b8ff" points="179.34,-194.05 169.73,-189.58 174.45,-199.06 179.34,-194.05"/>
</a>
</g>
</g>
<!-- Node27 -->
<g id="Node000027" class="node">
<title>Node27</title>
<g id="a_Node000027"><a xlink:href="../../d8/daa/FieldContainer_8hpp.html" target="_top" xlink:title="Defines the FieldContainer class template, a generic container for protocol fields.">
<polygon fill="white" stroke="#666666" points="907,-261 789,-261 789,-231 907,-231 907,-261"/>
<text text-anchor="start" x="797" y="-249" font-family="Helvetica,sans-Serif" font-size="10.00">prototypes/container</text>
<text text-anchor="middle" x="848" y="-238" font-family="Helvetica,sans-Serif" font-size="10.00">/FieldContainer.hpp</text>
</a>
</g>
</g>
<!-- Node21&#45;&gt;Node27 -->
<g id="edge34_Node000021_Node000027" class="edge">
<title>Node21&#45;&gt;Node27</title>
<g id="a_edge34_Node000021_Node000027"><a xlink:title=" ">
<path fill="none" stroke="#63b8ff" d="M618.18,-297.89C664.84,-287.56 729.98,-273.13 779.01,-262.28"/>
<polygon fill="#63b8ff" stroke="#63b8ff" points="779.89,-265.67 788.9,-260.09 778.38,-258.83 779.89,-265.67"/>
</a>
</g>
</g>
<!-- Node25 -->
<g id="Node000025" class="node">
<title>Node25</title>
<g id="a_Node000025"><a xlink:title=" ">
<polygon fill="#e0e0e0" stroke="#999999" points="241,-129 189,-129 189,-110 241,-110 241,-129"/>
<text text-anchor="middle" x="215" y="-117" font-family="Helvetica,sans-Serif" font-size="10.00">cassert</text>
</a>
</g>
</g>
<!-- Node24&#45;&gt;Node25 -->
<g id="edge32_Node000024_Node000025" class="edge">
<title>Node24&#45;&gt;Node25</title>
<g id="a_edge32_Node000024_Node000025"><a xlink:title=" ">
<path fill="none" stroke="#63b8ff" d="M168.97,-170.37C177.1,-161.55 189.93,-147.66 199.98,-136.77"/>
<polygon fill="#63b8ff" stroke="#63b8ff" points="202.79,-138.89 207,-129.17 197.64,-134.14 202.79,-138.89"/>
</a>
</g>
</g>
<!-- Node26 -->
<g id="Node000026" class="node">
<title>Node26</title>
<g id="a_Node000026"><a xlink:title=" ">
<polygon fill="#e0e0e0" stroke="#999999" points="684.5,-74 631.5,-74 631.5,-55 684.5,-55 684.5,-74"/>
<text text-anchor="middle" x="658" y="-62" font-family="Helvetica,sans-Serif" font-size="10.00">cstddef</text>
</a>
</g>
</g>
<!-- Node24&#45;&gt;Node26 -->
<g id="edge33_Node000024_Node000026" class="edge">
<title>Node24&#45;&gt;Node26</title>
<g id="a_edge33_Node000024_Node000026"><a xlink:title=" ">
<path fill="none" stroke="#63b8ff" d="M160.52,-170.16C160.24,-155.18 162.09,-125 180,-110 246.56,-54.26 482.57,-82.13 569,-74 586.11,-72.39 605.08,-70.58 621.08,-69.05"/>
<polygon fill="#63b8ff" stroke="#63b8ff" points="621.51,-72.53 631.13,-68.09 620.84,-65.56 621.51,-72.53"/>
</a>
</g>
</g>
<!-- Node27&#45;&gt;Node3 -->
<g id="edge35_Node000027_Node000003" class="edge">
<title>Node27&#45;&gt;Node3</title>
<g id="a_edge35_Node000027_Node000003"><a xlink:title=" ">
<path fill="none" stroke="#63b8ff" d="M788.83,-244.18C708.26,-241.67 570.44,-231.93 539,-195 512.37,-163.71 524.27,-111.11 533.26,-83.56"/>
<polygon fill="#63b8ff" stroke="#63b8ff" points="536.6,-84.62 536.59,-74.02 529.99,-82.31 536.6,-84.62"/>
</a>
</g>
</g>
<!-- Node27&#45;&gt;Node5 -->
<g id="edge36_Node000027_Node000005" class="edge">
<title>Node27&#45;&gt;Node5</title>
<g id="a_edge36_Node000027_Node000005"><a xlink:title=" ">
<path fill="none" stroke="#63b8ff" d="M907.34,-236.77C955.13,-228.77 1016.77,-214.92 1032,-195 1073.77,-140.37 965.57,-96.75 903.32,-76.99"/>
<polygon fill="#63b8ff" stroke="#63b8ff" points="904.34,-73.64 893.75,-74.02 902.27,-80.32 904.34,-73.64"/>
</a>
</g>
</g>
<!-- Node27&#45;&gt;Node6 -->
<g id="edge38_Node000027_Node000006" class="edge">
<title>Node27&#45;&gt;Node6</title>
<g id="a_edge38_Node000027_Node000006"><a xlink:title=" ">
<path fill="none" stroke="#63b8ff" d="M827.06,-230.98C801.48,-214.17 756.59,-185.68 716,-165 691.9,-152.72 663.6,-140.97 642.31,-132.63"/>
<polygon fill="#63b8ff" stroke="#63b8ff" points="643.36,-129.28 632.77,-128.94 640.83,-135.81 643.36,-129.28"/>
</a>
</g>
</g>
<!-- Node27&#45;&gt;Node7 -->
<g id="edge52_Node000027_Node000007" class="edge">
<title>Node27&#45;&gt;Node7</title>
<g id="a_edge52_Node000027_Node000007"><a xlink:title=" ">
<path fill="none" stroke="#63b8ff" d="M907.38,-243.69C1037.28,-240.2 1337.51,-228.56 1368,-195 1376.97,-185.13 1374.79,-176.48 1368,-165 1359.14,-150.02 1343.24,-139.74 1327.86,-132.88"/>
<polygon fill="#63b8ff" stroke="#63b8ff" points="1329,-129.56 1318.42,-129.03 1326.36,-136.04 1329,-129.56"/>
</a>
</g>
</g>
<!-- Node28 -->
<g id="Node000028" class="node">
<title>Node28</title>
<g id="a_Node000028"><a xlink:title=" ">
<polygon fill="#e0e0e0" stroke="#999999" points="894.5,-189.5 801.5,-189.5 801.5,-170.5 894.5,-170.5 894.5,-189.5"/>
<text text-anchor="middle" x="848" y="-177.5" font-family="Helvetica,sans-Serif" font-size="10.00">unordered_map</text>
</a>
</g>
</g>
<!-- Node27&#45;&gt;Node28 -->
<g id="edge37_Node000027_Node000028" class="edge">
<title>Node27&#45;&gt;Node28</title>
<g id="a_edge37_Node000027_Node000028"><a xlink:title=" ">
<path fill="none" stroke="#63b8ff" d="M848,-230.8C848,-221.7 848,-209.79 848,-199.9"/>
<polygon fill="#63b8ff" stroke="#63b8ff" points="851.5,-199.84 848,-189.84 844.5,-199.84 851.5,-199.84"/>
</a>
</g>
</g>
<!-- Node29 -->
<g id="Node000029" class="node">
<title>Node29</title>
<g id="a_Node000029"><a xlink:title=" ">
<polygon fill="#e0e0e0" stroke="#999999" points="1023,-195 913,-195 913,-165 1023,-165 1023,-195"/>
<text text-anchor="start" x="921" y="-183" font-family="Helvetica,sans-Serif" font-size="10.00">libraries/crc/crcSoft</text>
<text text-anchor="middle" x="968" y="-172" font-family="Helvetica,sans-Serif" font-size="10.00">/CrcSoft.hpp</text>
</a>
</g>
</g>
<!-- Node27&#45;&gt;Node29 -->
<g id="edge39_Node000027_Node000029" class="edge">
<title>Node27&#45;&gt;Node29</title>
<g id="a_edge39_Node000027_Node000029"><a xlink:title=" ">
<path fill="none" stroke="#63b8ff" d="M874.33,-230.95C891.53,-221.78 914.18,-209.71 932.89,-199.72"/>
<polygon fill="#63b8ff" stroke="#63b8ff" points="934.55,-202.81 941.73,-195.01 931.26,-196.63 934.55,-202.81"/>
</a>
</g>
</g>
<!-- Node30 -->
<g id="Node000030" class="node">
<title>Node30</title>
<g id="a_Node000030"><a xlink:href="../../d7/d91/DataField_8hpp.html" target="_top" xlink:title="Variant DATA field that maps protocol IDs to payload types at compile time.">
<polygon fill="white" stroke="#666666" points="1359,-189.5 1195,-189.5 1195,-170.5 1359,-170.5 1359,-189.5"/>
<text text-anchor="middle" x="1277" y="-177.5" font-family="Helvetica,sans-Serif" font-size="10.00">prototypes/field/DataField.hpp</text>
</a>
</g>
</g>
<!-- Node27&#45;&gt;Node30 -->
<g id="edge40_Node000027_Node000030" class="edge">
<title>Node27&#45;&gt;Node30</title>
<g id="a_edge40_Node000027_Node000030"><a xlink:title=" ">
<path fill="none" stroke="#63b8ff" d="M907.24,-236.34C974.74,-226.45 1088.34,-209.74 1186,-195 1194.29,-193.75 1203.01,-192.42 1211.63,-191.1"/>
<polygon fill="#63b8ff" stroke="#63b8ff" points="1212.31,-194.54 1221.67,-189.57 1211.25,-187.62 1212.31,-194.54"/>
</a>
</g>
</g>
<!-- Node30&#45;&gt;Node3 -->
<g id="edge42_Node000030_Node000003" class="edge">
<title>Node30&#45;&gt;Node3</title>
<g id="a_edge42_Node000030_Node000003"><a xlink:title=" ">
<path fill="none" stroke="#63b8ff" d="M1226.07,-170.47C1213.04,-168.48 1199.02,-166.5 1186,-165 978.76,-141.12 919.04,-184.69 718,-129 699.8,-123.96 697.5,-117.1 680,-110 643.17,-95.05 599.29,-81.81 570.6,-73.74"/>
<polygon fill="#63b8ff" stroke="#63b8ff" points="571.33,-70.31 560.76,-71 569.46,-77.05 571.33,-70.31"/>
</a>
</g>
</g>
<!-- Node30&#45;&gt;Node5 -->
<g id="edge43_Node000030_Node000005" class="edge">
<title>Node30&#45;&gt;Node5</title>
<g id="a_edge43_Node000030_Node000005"><a xlink:title=" ">
<path fill="none" stroke="#63b8ff" d="M1253.37,-170.45C1226.2,-160.6 1180.3,-143.84 1141,-129 1119.15,-120.75 1114.44,-116.47 1092,-110 1014.09,-87.55 990.38,-89.94 907.58,-74.27"/>
<polygon fill="#63b8ff" stroke="#63b8ff" points="908.21,-70.83 897.73,-72.38 906.89,-77.7 908.21,-70.83"/>
</a>
</g>
</g>
<!-- Node30&#45;&gt;Node7 -->
<g id="edge51_Node000030_Node000007" class="edge">
<title>Node30&#45;&gt;Node7</title>
<g id="a_edge51_Node000030_Node000007"><a xlink:title=" ">
<path fill="none" stroke="#63b8ff" d="M1278.48,-170.37C1279.88,-162.16 1282.04,-149.54 1283.83,-139.05"/>
<polygon fill="#63b8ff" stroke="#63b8ff" points="1287.28,-139.61 1285.52,-129.17 1280.38,-138.43 1287.28,-139.61"/>
</a>
</g>
</g>
<!-- Node30&#45;&gt;Node8 -->
<g id="edge41_Node000030_Node000008" class="edge">
<title>Node30&#45;&gt;Node8</title>
<g id="a_edge41_Node000030_Node000008"><a xlink:title=" ">
<path fill="none" stroke="#63b8ff" d="M1297.9,-170.47C1346.5,-150.63 1467.32,-101.3 1524.32,-78.03"/>
<polygon fill="#63b8ff" stroke="#63b8ff" points="1525.93,-81.15 1533.86,-74.13 1523.28,-74.67 1525.93,-81.15"/>
</a>
</g>
</g>
<!-- Node30&#45;&gt;Node14 -->
<g id="edge44_Node000030_Node000014" class="edge">
<title>Node30&#45;&gt;Node14</title>
<g id="a_edge44_Node000030_Node000014"><a xlink:title=" ">
<path fill="none" stroke="#63b8ff" d="M1261.19,-170.32C1230.83,-153.77 1165.21,-118.56 1141,-110 1071.56,-85.46 1048.63,-91.05 972.79,-74.06"/>
<polygon fill="#63b8ff" stroke="#63b8ff" points="973.29,-70.58 962.76,-71.75 971.72,-77.4 973.29,-70.58"/>
</a>
</g>
</g>
<!-- Node31 -->
<g id="Node000031" class="node">
<title>Node31</title>
<g id="a_Node000031"><a xlink:href="../../d7/d38/UniqueVariant_8hpp.html" target="_top" xlink:title=" ">
<polygon fill="white" stroke="#666666" points="834.5,-129 727.5,-129 727.5,-110 834.5,-110 834.5,-129"/>
<text text-anchor="middle" x="781" y="-117" font-family="Helvetica,sans-Serif" font-size="10.00">UniqueVariant.hpp</text>
</a>
</g>
</g>
<!-- Node30&#45;&gt;Node31 -->
<g id="edge45_Node000030_Node000031" class="edge">
<title>Node30&#45;&gt;Node31</title>
<g id="a_edge45_Node000030_Node000031"><a xlink:title=" ">
<path fill="none" stroke="#63b8ff" d="M1224.12,-170.47C1211.64,-168.57 1198.36,-166.63 1186,-165 1065.86,-149.17 925.15,-134.6 845.2,-126.69"/>
<polygon fill="#63b8ff" stroke="#63b8ff" points="845.1,-123.16 834.81,-125.67 844.42,-130.13 845.1,-123.16"/>
</a>
</g>
</g>
<!-- Node31&#45;&gt;Node3 -->
<g id="edge47_Node000031_Node000003" class="edge">
<title>Node31&#45;&gt;Node3</title>
<g id="a_edge47_Node000031_Node000003"><a xlink:title=" ">
<path fill="none" stroke="#63b8ff" d="M742.28,-109.98C694.59,-99.5 614.53,-81.89 570.8,-72.27"/>
<polygon fill="#63b8ff" stroke="#63b8ff" points="571.28,-68.8 560.76,-70.07 569.78,-75.63 571.28,-68.8"/>
</a>
</g>
</g>
<!-- Node31&#45;&gt;Node5 -->
<g id="edge48_Node000031_Node000005" class="edge">
<title>Node31&#45;&gt;Node5</title>
<g id="a_edge48_Node000031_Node000005"><a xlink:title=" ">
<path fill="none" stroke="#63b8ff" d="M794.17,-109.98C806.77,-101.84 826,-89.41 840.94,-79.76"/>
<polygon fill="#63b8ff" stroke="#63b8ff" points="843.09,-82.54 849.59,-74.17 839.29,-76.66 843.09,-82.54"/>
</a>
</g>
</g>
<!-- Node31&#45;&gt;Node14 -->
<g id="edge50_Node000031_Node000014" class="edge">
<title>Node31&#45;&gt;Node14</title>
<g id="a_edge50_Node000031_Node000014"><a xlink:title=" ">
<path fill="none" stroke="#63b8ff" d="M806.39,-109.98C833.42,-100.91 876.33,-86.52 905.98,-76.58"/>
<polygon fill="#63b8ff" stroke="#63b8ff" points="907.12,-79.89 915.48,-73.39 904.89,-73.25 907.12,-79.89"/>
</a>
</g>
</g>
<!-- Node31&#45;&gt;Node26 -->
<g id="edge46_Node000031_Node000026" class="edge">
<title>Node31&#45;&gt;Node26</title>
<g id="a_edge46_Node000031_Node000026"><a xlink:title=" ">
<path fill="none" stroke="#63b8ff" d="M761.24,-109.98C741.27,-101.38 710.2,-87.99 687.35,-78.15"/>
<polygon fill="#63b8ff" stroke="#63b8ff" points="688.69,-74.91 678.12,-74.17 685.92,-81.34 688.69,-74.91"/>
</a>
</g>
</g>
<!-- Node32 -->
<g id="Node000032" class="node">
<title>Node32</title>
<g id="a_Node000032"><a xlink:title=" ">
<polygon fill="#e0e0e0" stroke="#999999" points="806.5,-74 755.5,-74 755.5,-55 806.5,-55 806.5,-74"/>
<text text-anchor="middle" x="781" y="-62" font-family="Helvetica,sans-Serif" font-size="10.00">variant</text>
</a>
</g>
</g>
<!-- Node31&#45;&gt;Node32 -->
<g id="edge49_Node000031_Node000032" class="edge">
<title>Node31&#45;&gt;Node32</title>
<g id="a_edge49_Node000031_Node000032"><a xlink:title=" ">
<path fill="none" stroke="#63b8ff" d="M781,-109.75C781,-102.8 781,-92.85 781,-84.13"/>
<polygon fill="#63b8ff" stroke="#63b8ff" points="784.5,-84.09 781,-74.09 777.5,-84.09 784.5,-84.09"/>
</a>
</g>
</g>
<!-- Node33&#45;&gt;Node3 -->
<g id="edge55_Node000033_Node000003" class="edge">
<title>Node33&#45;&gt;Node3</title>
<g id="a_edge55_Node000033_Node000003"><a xlink:title=" ">
<path fill="none" stroke="#63b8ff" d="M404.07,-296.75C390.04,-269.45 364.42,-208.61 388,-165 413.77,-117.32 473.44,-88.82 509.88,-75.23"/>
<polygon fill="#63b8ff" stroke="#63b8ff" points="511.26,-78.46 519.49,-71.79 508.9,-71.86 511.26,-78.46"/>
</a>
</g>
</g>
<!-- Node33&#45;&gt;Node5 -->
<g id="edge56_Node000033_Node000005" class="edge">
<title>Node33&#45;&gt;Node5</title>
<g id="a_edge56_Node000033_Node000005"><a xlink:title=" ">
<path fill="none" stroke="#63b8ff" d="M416.98,-296.73C424.24,-278.25 439.57,-246.6 464,-231 559.36,-170.12 607.33,-226.48 716,-195 724.6,-192.51 858.14,-136.52 863,-129 871.52,-115.84 870.57,-97.71 868.05,-84.19"/>
<polygon fill="#63b8ff" stroke="#63b8ff" points="871.39,-83.09 865.73,-74.13 864.57,-84.66 871.39,-83.09"/>
</a>
</g>
</g>
<!-- Node33&#45;&gt;Node22 -->
<g id="edge54_Node000033_Node000022" class="edge">
<title>Node33&#45;&gt;Node22</title>
<g id="a_edge54_Node000033_Node000022"><a xlink:title=" ">
<path fill="none" stroke="#63b8ff" d="M432.64,-296.8C447.94,-286.27 468.71,-271.97 484.08,-261.4"/>
<polygon fill="#63b8ff" stroke="#63b8ff" points="486.16,-264.21 492.42,-255.66 482.2,-258.44 486.16,-264.21"/>
</a>
</g>
</g>
<!-- Node33&#45;&gt;Node24 -->
<g id="edge57_Node000033_Node000024" class="edge">
<title>Node33&#45;&gt;Node24</title>
<g id="a_edge57_Node000033_Node000024"><a xlink:title=" ">
<path fill="none" stroke="#63b8ff" d="M352.85,-298.54C298.13,-286.64 223.56,-269.33 212,-261 190.22,-245.32 175.51,-217.19 167.69,-198.81"/>
<polygon fill="#63b8ff" stroke="#63b8ff" points="170.93,-197.5 163.96,-189.52 164.43,-200.1 170.93,-197.5"/>
</a>
</g>
</g>
<!-- Node33&#45;&gt;Node27 -->
<g id="edge64_Node000033_Node000027" class="edge">
<title>Node33&#45;&gt;Node27</title>
<g id="a_edge64_Node000033_Node000027"><a xlink:title=" ">
<path fill="none" stroke="#63b8ff" d="M471.06,-300.29C477.78,-299.15 484.53,-298.03 491,-297 590.71,-281.19 706.52,-265.45 778.54,-255.97"/>
<polygon fill="#63b8ff" stroke="#63b8ff" points="779.38,-259.39 788.84,-254.62 778.47,-252.45 779.38,-259.39"/>
</a>
</g>
</g>
<!-- Node34 -->
<g id="Node000034" class="node">
<title>Node34</title>
<g id="a_Node000034"><a xlink:href="../../d7/d79/Interface_8hpp.html" target="_top" xlink:title=" ">
<polygon fill="white" stroke="#666666" points="338.5,-255.5 257.5,-255.5 257.5,-236.5 338.5,-236.5 338.5,-255.5"/>
<text text-anchor="middle" x="298" y="-243.5" font-family="Helvetica,sans-Serif" font-size="10.00">Interface.hpp</text>
</a>
</g>
</g>
<!-- Node33&#45;&gt;Node34 -->
<g id="edge58_Node000033_Node000034" class="edge">
<title>Node33&#45;&gt;Node34</title>
<g id="a_edge58_Node000033_Node000034"><a xlink:title=" ">
<path fill="none" stroke="#63b8ff" d="M386.98,-296.95C367.69,-286.13 341.18,-271.24 322.12,-260.54"/>
<polygon fill="#63b8ff" stroke="#63b8ff" points="323.6,-257.36 313.17,-255.52 320.18,-263.46 323.6,-257.36"/>
</a>
</g>
</g>
<!-- Node37 -->
<g id="Node000037" class="node">
<title>Node37</title>
<g id="a_Node000037"><a xlink:href="../../d7/d50/FieldInfo_8hpp.html" target="_top" xlink:title="Helpers and utilities for compile&#45;time field metadata and tuple processing.">
<polygon fill="white" stroke="#666666" points="707.5,-189.5 548.5,-189.5 548.5,-170.5 707.5,-170.5 707.5,-189.5"/>
<text text-anchor="middle" x="628" y="-177.5" font-family="Helvetica,sans-Serif" font-size="10.00">prototypes/field/FieldInfo.hpp</text>
</a>
</g>
</g>
<!-- Node33&#45;&gt;Node37 -->
<g id="edge65_Node000033_Node000037" class="edge">
<title>Node33&#45;&gt;Node37</title>
<g id="a_edge65_Node000033_Node000037"><a xlink:title=" ">
<path fill="none" stroke="#63b8ff" d="M411.23,-296.77C411.09,-278.94 413.67,-248.6 431,-231 448.66,-213.06 507.82,-199.59 556.74,-191.18"/>
<polygon fill="#63b8ff" stroke="#63b8ff" points="557.41,-194.61 566.69,-189.51 556.25,-187.71 557.41,-194.61"/>
</a>
</g>
</g>
<!-- Node34&#45;&gt;Node20 -->
<g id="edge60_Node000034_Node000020" class="edge">
<title>Node34&#45;&gt;Node20</title>
<g id="a_edge60_Node000034_Node000020"><a xlink:title=" ">
<path fill="none" stroke="#63b8ff" d="M260.91,-236.47C221.32,-227.14 156.86,-211.34 102,-195 99.69,-194.31 97.31,-193.58 94.93,-192.82"/>
<polygon fill="#63b8ff" stroke="#63b8ff" points="95.77,-189.41 85.18,-189.61 93.59,-196.06 95.77,-189.41"/>
</a>
</g>
</g>
<!-- Node34&#45;&gt;Node23 -->
<g id="edge61_Node000034_Node000023" class="edge">
<title>Node34&#45;&gt;Node23</title>
<g id="a_edge61_Node000034_Node000023"><a xlink:title=" ">
<path fill="none" stroke="#63b8ff" d="M315.26,-236.37C336.92,-225.54 374.29,-206.85 399.57,-194.22"/>
<polygon fill="#63b8ff" stroke="#63b8ff" points="401.22,-197.3 408.6,-189.7 398.09,-191.04 401.22,-197.3"/>
</a>
</g>
</g>
<!-- Node34&#45;&gt;Node24 -->
<g id="edge63_Node000034_Node000024" class="edge">
<title>Node34&#45;&gt;Node24</title>
<g id="a_edge63_Node000034_Node000024"><a xlink:title=" ">
<path fill="none" stroke="#63b8ff" d="M279.52,-236.37C256.24,-225.49 215.99,-206.69 188.94,-194.05"/>
<polygon fill="#63b8ff" stroke="#63b8ff" points="190.16,-190.76 179.62,-189.7 187.2,-197.1 190.16,-190.76"/>
</a>
</g>
</g>
<!-- Node35 -->
<g id="Node000035" class="node">
<title>Node35</title>
<g id="a_Node000035"><a xlink:title=" ">
<polygon fill="#e0e0e0" stroke="#999999" points="341,-189.5 291,-189.5 291,-170.5 341,-170.5 341,-189.5"/>
<text text-anchor="middle" x="316" y="-177.5" font-family="Helvetica,sans-Serif" font-size="10.00">chrono</text>
</a>
</g>
</g>
<!-- Node34&#45;&gt;Node35 -->
<g id="edge59_Node000034_Node000035" class="edge">
<title>Node34&#45;&gt;Node35</title>
<g id="a_edge59_Node000034_Node000035"><a xlink:title=" ">
<path fill="none" stroke="#63b8ff" d="M300.43,-236.37C303.04,-227.07 307.29,-211.98 310.68,-199.9"/>
<polygon fill="#63b8ff" stroke="#63b8ff" points="314.16,-200.48 313.5,-189.91 307.42,-198.58 314.16,-200.48"/>
</a>
</g>
</g>
<!-- Node36 -->
<g id="Node000036" class="node">
<title>Node36</title>
<g id="a_Node000036"><a xlink:title=" ">
<polygon fill="#e0e0e0" stroke="#999999" points="273,-189.5 229,-189.5 229,-170.5 273,-170.5 273,-189.5"/>
<text text-anchor="middle" x="251" y="-177.5" font-family="Helvetica,sans-Serif" font-size="10.00">string</text>
</a>
</g>
</g>
<!-- Node34&#45;&gt;Node36 -->
<g id="edge62_Node000034_Node000036" class="edge">
<title>Node34&#45;&gt;Node36</title>
<g id="a_edge62_Node000034_Node000036"><a xlink:title=" ">
<path fill="none" stroke="#63b8ff" d="M291.66,-236.37C284.48,-226.59 272.61,-210.42 263.54,-198.08"/>
<polygon fill="#63b8ff" stroke="#63b8ff" points="266.28,-195.89 257.54,-189.91 260.64,-200.04 266.28,-195.89"/>
</a>
</g>
</g>
<!-- Node37&#45;&gt;Node3 -->
<g id="edge66_Node000037_Node000003" class="edge">
<title>Node37&#45;&gt;Node3</title>
<g id="a_edge66_Node000037_Node000003"><a xlink:title=" ">
<path fill="none" stroke="#63b8ff" d="M618.07,-170.42C607.42,-160.93 590.38,-144.88 578,-129 566.67,-114.47 556.1,-96.29 549.01,-83.11"/>
<polygon fill="#63b8ff" stroke="#63b8ff" points="552.05,-81.37 544.3,-74.15 545.85,-84.63 552.05,-81.37"/>
</a>
</g>
</g>
<!-- Node37&#45;&gt;Node5 -->
<g id="edge67_Node000037_Node000005" class="edge">
<title>Node37&#45;&gt;Node5</title>
<g id="a_edge67_Node000037_Node000005"><a xlink:title=" ">
<path fill="none" stroke="#63b8ff" d="M675.77,-170.48C735.29,-159.46 830.73,-140.36 843,-129 855.31,-117.6 860.09,-98.7 861.92,-84.48"/>
<polygon fill="#63b8ff" stroke="#63b8ff" points="865.43,-84.59 862.85,-74.31 858.46,-83.96 865.43,-84.59"/>
</a>
</g>
</g>
<!-- Node37&#45;&gt;Node6 -->
<g id="edge68_Node000037_Node000006" class="edge">
<title>Node37&#45;&gt;Node6</title>
<g id="a_edge68_Node000037_Node000006"><a xlink:title=" ">
<path fill="none" stroke="#63b8ff" d="M625.34,-170.37C622.82,-162.16 618.94,-149.54 615.71,-139.05"/>
<polygon fill="#63b8ff" stroke="#63b8ff" points="618.95,-137.7 612.67,-129.17 612.26,-139.75 618.95,-137.7"/>
</a>
</g>
</g>
<!-- Node37&#45;&gt;Node7 -->
<g id="edge69_Node000037_Node000007" class="edge">
<title>Node37&#45;&gt;Node7</title>
<g id="a_edge69_Node000037_Node000007"><a xlink:title=" ">
<path fill="none" stroke="#63b8ff" d="M707.82,-171.91C826.88,-161.35 1051.07,-141.44 1182.87,-129.74"/>
<polygon fill="#63b8ff" stroke="#63b8ff" points="1183.33,-133.22 1192.98,-128.85 1182.71,-126.24 1183.33,-133.22"/>
</a>
</g>
</g>
</g>
</svg>

<g id="navigator" transform="translate(0 0)" fill="#404254">
  <rect fill="#f2f5e9" fill-opacity="0.5" stroke="#606060" stroke-width=".5" x="0" y="0" width="60" height="60"/>
  <use id="zoomplus" xlink:href="#zoomPlus" x="17" y="9" onmousedown="handleZoom(evt,'in')"/>
  <use id="zoomminus" xlink:href="#zoomMin" x="42" y="9" onmousedown="handleZoom(evt,'out')"/>
  <use id="reset" xlink:href="#resetDef" x="30" y="36" onmousedown="handleReset()"/>
   <use id="arrowup" xlink:href="#arrowUp" x="0" y="0" onmousedown="handlePan(0,-1)"/>
  <use id="arrowright" xlink:href="#arrowRight" x="0" y="0" onmousedown="handlePan(1,0)"/>
  <use id="arrowdown" xlink:href="#arrowDown" x="0" y="0" onmousedown="handlePan(0,1)"/>
  <use id="arrowleft" xlink:href="#arrowLeft" x="0" y="0" onmousedown="handlePan(-1,0)"/>
</g>
<svg viewBox="0 0 15 15" width="100%" height="30px" preserveAspectRatio="xMaxYMin meet">
 <g id="arrow_out" transform="scale(0.3 0.3)">
  <a xlink:href="exoAtlantProtocol_8hpp__incl_org.svg" target="_base">
   <rect id="button" ry="5" rx="5" y="6" x="6" height="38" width="38"
        fill="#f2f5e9" fill-opacity="0.5" stroke="#606060" stroke-width="1.0"/>
   <path id="arrow"
     d="M 11.500037,31.436501 C 11.940474,20.09759 22.043105,11.32322 32.158766,21.979434 L 37.068811,17.246167 C 37.068811,17.246167 37.088388,32 37.088388,32 L 22.160133,31.978069 C 22.160133,31.978069 26.997745,27.140456 26.997745,27.140456 C 18.528582,18.264221 13.291696,25.230495 11.500037,31.436501 z"
     style="fill:#404040;"/>
  </a>
 </g>
</svg>

<style type='text/css'>
<![CDATA[
[data-mouse-over-selected='false'] { opacity: 0.7; }
[data-mouse-over-selected='true']  { opacity: 1.0; }
]]>
</style>
<script type="application/ecmascript"><![CDATA[
document.addEventListener('DOMContentLoaded', (event) => {
  highlightEdges();
  highlightAdjacentNodes();
});
]]></script>
</svg>
