<?xml version="1.0" encoding="UTF-8" standalone="no"?>
<!DOCTYPE svg PUBLIC "-//W3C//DTD SVG 1.1//EN"
 "http://www.w3.org/Graphics/SVG/1.1/DTD/svg11.dtd">
<!-- Generated by graphviz version 2.43.0 (0)
 -->
<!-- Title: proto::lacte::LacteId::LacteId Pages: 1 -->
<svg width="402pt" height="38pt"
 viewBox="0.00 0.00 402.00 38.00" xmlns="http://www.w3.org/2000/svg" xmlns:xlink="http://www.w3.org/1999/xlink">
<g id="graph0" class="graph" transform="scale(1 1) rotate(0) translate(4 34)">
<title>proto::lacte::LacteId::LacteId</title>
<!-- Node1 -->
<g id="Node000001" class="node">
<title>Node1</title>
<g id="a_Node000001"><a xlink:title=" ">
<polygon fill="#999999" stroke="#666666" points="113,-30 0,-30 0,0 113,0 113,-30"/>
<text text-anchor="start" x="8" y="-18" font-family="Helvetica,sans-Serif" font-size="10.00">proto::lacte::LacteId</text>
<text text-anchor="middle" x="56.5" y="-7" font-family="Helvetica,sans-Serif" font-size="10.00">::LacteId</text>
</a>
</g>
</g>
<!-- Node2 -->
<g id="Node000002" class="node">
<title>Node2</title>
<g id="a_Node000002"><a xlink:href="../../d3/d81/namespaceproto_1_1lacte.html#a0d7742c2bb9b4857128ae945a05923b9" target="_top" xlink:title=" ">
<polygon fill="white" stroke="#666666" points="254,-30 149,-30 149,0 254,0 254,-30"/>
<text text-anchor="start" x="157" y="-18" font-family="Helvetica,sans-Serif" font-size="10.00">proto::lacte::parse</text>
<text text-anchor="middle" x="201.5" y="-7" font-family="Helvetica,sans-Serif" font-size="10.00">_uint_sv</text>
</a>
</g>
</g>
<!-- Node1&#45;&gt;Node2 -->
<g id="edge1_Node000001_Node000002" class="edge">
<title>Node1&#45;&gt;Node2</title>
<g id="a_edge1_Node000001_Node000002"><a xlink:title=" ">
<path fill="none" stroke="#63b8ff" d="M113.2,-15C121.56,-15 130.23,-15 138.71,-15"/>
<polygon fill="#63b8ff" stroke="#63b8ff" points="138.93,-18.5 148.93,-15 138.93,-11.5 138.93,-18.5"/>
</a>
</g>
</g>
<!-- Node3 -->
<g id="Node000003" class="node">
<title>Node3</title>
<g id="a_Node000003"><a xlink:href="../../d6/d58/classCustomSpan.html#a7612ff42bfc672d97414e1e3ddc391b9" target="_top" xlink:title=" ">
<polygon fill="white" stroke="#666666" points="394,-24.5 290,-24.5 290,-5.5 394,-5.5 394,-24.5"/>
<text text-anchor="middle" x="342" y="-12.5" font-family="Helvetica,sans-Serif" font-size="10.00">CustomSpan::size</text>
</a>
</g>
</g>
<!-- Node2&#45;&gt;Node3 -->
<g id="edge2_Node000002_Node000003" class="edge">
<title>Node2&#45;&gt;Node3</title>
<g id="a_edge2_Node000002_Node000003"><a xlink:title=" ">
<path fill="none" stroke="#63b8ff" d="M254.07,-15C262.38,-15 271.06,-15 279.57,-15"/>
<polygon fill="#63b8ff" stroke="#63b8ff" points="279.85,-18.5 289.85,-15 279.85,-11.5 279.85,-18.5"/>
</a>
</g>
</g>
</g>
</svg>
