<?xml version="1.0" encoding="UTF-8" standalone="no"?>
<!DOCTYPE svg PUBLIC "-//W3C//DTD SVG 1.1//EN"
 "http://www.w3.org/Graphics/SVG/1.1/DTD/svg11.dtd">
<!-- Generated by graphviz version 2.43.0 (0)
 -->
<!-- Title: proto::exoAtlant::ExoAtlantProtocol_&lt; RX_BASE, TX_BASE &gt; Pages: 1 -->
<!--zoomable 130 -->

<svg id="main" version="1.1" xmlns="http://www.w3.org/2000/svg" xmlns:xlink="http://www.w3.org/1999/xlink" xml:space="preserve" onload="init(evt)">
<style type="text/css"><![CDATA[
.node, .edge {opacity: 0.7;}
.node.selected, .edge.selected {opacity: 1;}
.edge:hover path { stroke: red; }
.edge:hover polygon { stroke: red; fill: red; }
]]></style>

<defs>
  <circle id="rim" cx="0" cy="0" r="7"/>
  <circle id="rim2" cx="0" cy="0" r="3.5"/>
  <g id="zoomPlus">
    <use xlink:href="#rim" fill="#404040"><set attributeName="fill" to="#808080" begin="zoomplus.mouseover" end="zoomplus.mouseout"/></use>
    <path d="M-4,0h8M0,-4v8" fill="none" stroke="white" stroke-width="1.5" pointer-events="none"/>
  </g>
  <g id="zoomMin">
    <use xlink:href="#rim" fill="#404040"><set attributeName="fill" to="#808080" begin="zoomminus.mouseover" end="zoomminus.mouseout"/></use>
    <path d="M-4,0h8" fill="none" stroke="white" stroke-width="1.5" pointer-events="none"/>
  </g>
  <g id="arrowUp" transform="translate(30 24)">
    <use xlink:href="#rim"/>
    <path pointer-events="none" fill="none" stroke="white" stroke-width="1.5" d="M0,-3.0v7 M-2.5,-0.5L0,-3.0L2.5,-0.5"/>
  </g>
  <g id="arrowRight" transform="rotate(90) translate(36 -43)">
    <use xlink:href="#rim"/>
    <path pointer-events="none" fill="none" stroke="white" stroke-width="1.5" d="M0,-3.0v7 M-2.5,-0.5L0,-3.0L2.5,-0.5"/>
  </g>
  <g id="arrowDown" transform="rotate(180) translate(-30 -48)">
    <use xlink:href="#rim"/>
    <path pointer-events="none" fill="none" stroke="white" stroke-width="1.5" d="M0,-3.0v7 M-2.5,-0.5L0,-3.0L2.5,-0.5"/>
  </g>
  <g id="arrowLeft" transform="rotate(270) translate(-36 17)">
    <use xlink:href="#rim"/>
    <path pointer-events="none" fill="none" stroke="white" stroke-width="1.5" d="M0,-3.0v7 M-2.5,-0.5L0,-3.0L2.5,-0.5"/>
  </g>
  <g id="resetDef">
    <use xlink:href="#rim2" fill="#404040"><set attributeName="fill" to="#808080" begin="reset.mouseover" end="reset.mouseout"/></use>
  </g>
</defs>
<script type="application/ecmascript">
var viewWidth = 1016;
var viewHeight = 130;
var sectionId = 'dynsection-1';
</script>
<script type="application/ecmascript" xlink:href="../../svg.min.js"/>
<svg id="graph" class="graph">
<g id="viewport">
<title>proto::exoAtlant::ExoAtlantProtocol_&lt; RX_BASE, TX_BASE &gt;</title>
<!-- Node1 -->
<g id="Node000001" class="node">
<title>Node1</title>
<g id="a_Node000001"><a xlink:title=" ">
<polygon fill="#999999" stroke="#666666" points="1008,-80 830,-80 830,-50 1008,-50 1008,-80"/>
<text text-anchor="start" x="838" y="-68" font-family="Helvetica,sans-Serif" font-size="10.00">proto::exoAtlant::ExoAtlant</text>
<text text-anchor="middle" x="919" y="-57" font-family="Helvetica,sans-Serif" font-size="10.00">Protocol_&lt; RX_BASE, TX_BASE &gt;</text>
</a>
</g>
</g>
<!-- Node2 -->
<g id="Node000002" class="node">
<title>Node2</title>
<g id="a_Node000002"><a xlink:href="../../d3/d19/classproto_1_1ProtocolNoSysEndpoint.html" target="_top" xlink:title=" ">
<polygon fill="white" stroke="#666666" points="793,-91 568,-91 568,-39 793,-39 793,-91"/>
<text text-anchor="start" x="576" y="-79" font-family="Helvetica,sans-Serif" font-size="10.00">proto::ProtocolNoSysEndpoint</text>
<text text-anchor="start" x="576" y="-68" font-family="Helvetica,sans-Serif" font-size="10.00">&lt; exoAtlantPacket&lt; RX_BASE</text>
<text text-anchor="start" x="576" y="-57" font-family="Helvetica,sans-Serif" font-size="10.00"> &gt;::packet_fields, exoAtlantPacket</text>
<text text-anchor="middle" x="680.5" y="-46" font-family="Helvetica,sans-Serif" font-size="10.00">&lt; TX_BASE &gt;::packet_fields, custom_crc &gt;</text>
</a>
</g>
</g>
<!-- Node2&#45;&gt;Node1 -->
<g id="edge1_Node000001_Node000002" class="edge">
<title>Node2&#45;&gt;Node1</title>
<g id="a_edge1_Node000001_Node000002"><a xlink:title=" ">
<path fill="none" stroke="#63b8ff" d="M803.29,-65C812.25,-65 821.18,-65 829.88,-65"/>
<polygon fill="#63b8ff" stroke="#63b8ff" points="803.17,-61.5 793.17,-65 803.17,-68.5 803.17,-61.5"/>
</a>
</g>
</g>
<!-- Node3 -->
<g id="Node000003" class="node">
<title>Node3</title>
<g id="a_Node000003"><a xlink:href="../../d0/d29/classproto_1_1RxContainer.html" target="_top" xlink:title=" ">
<polygon fill="white" stroke="#666666" points="504,-122 373,-122 373,-70 504,-70 504,-122"/>
<text text-anchor="start" x="381" y="-110" font-family="Helvetica,sans-Serif" font-size="10.00">proto::RxContainer</text>
<text text-anchor="start" x="381" y="-99" font-family="Helvetica,sans-Serif" font-size="10.00">&lt; exoAtlantPacket&lt; RX</text>
<text text-anchor="start" x="381" y="-88" font-family="Helvetica,sans-Serif" font-size="10.00">_BASE &gt;::packet_fields,</text>
<text text-anchor="middle" x="438.5" y="-77" font-family="Helvetica,sans-Serif" font-size="10.00"> custom_crc &gt;</text>
</a>
</g>
</g>
<!-- Node3&#45;&gt;Node2 -->
<g id="edge2_Node000002_Node000003" class="edge">
<title>Node3&#45;&gt;Node2</title>
<g id="a_edge2_Node000002_Node000003"><a xlink:title=" ">
<path fill="none" stroke="#9a32cd" stroke-dasharray="5,2" d="M514.43,-86.32C531.29,-84.14 549.54,-81.79 567.54,-79.46"/>
<polygon fill="#9a32cd" stroke="#9a32cd" points="513.6,-82.9 504.13,-87.65 514.5,-89.84 513.6,-82.9"/>
</a>
</g>
<text text-anchor="middle" x="536" y="-88" font-family="Helvetica,sans-Serif" font-size="10.00" fill="grey"> m_rx</text>
</g>
<!-- Node4 -->
<g id="Node000004" class="node">
<title>Node4</title>
<g id="a_Node000004"><a xlink:href="../../d5/d09/classproto_1_1FieldContainer.html" target="_top" xlink:title="Generic container for protocol fields with CRC and debug support.">
<polygon fill="white" stroke="#666666" points="336,-108 217,-108 217,-78 336,-78 336,-108"/>
<text text-anchor="start" x="225" y="-96" font-family="Helvetica,sans-Serif" font-size="10.00">proto::FieldContainer</text>
<text text-anchor="middle" x="276.5" y="-85" font-family="Helvetica,sans-Serif" font-size="10.00">&lt; Fields, TCrc &gt;</text>
</a>
</g>
</g>
<!-- Node4&#45;&gt;Node3 -->
<g id="edge3_Node000003_Node000004" class="edge">
<title>Node4&#45;&gt;Node3</title>
<g id="a_edge3_Node000003_Node000004"><a xlink:title=" ">
<path fill="none" stroke="#63b8ff" d="M346.39,-94.29C355.19,-94.46 364.17,-94.63 372.9,-94.79"/>
<polygon fill="#63b8ff" stroke="#63b8ff" points="346.23,-90.79 336.17,-94.1 346.1,-97.79 346.23,-90.79"/>
</a>
</g>
</g>
<!-- Node5 -->
<g id="Node000005" class="node">
<title>Node5</title>
<g id="a_Node000005"><a xlink:href="../../d6/df7/structproto_1_1TransformToFieldsTuple.html" target="_top" xlink:title=" ">
<polygon fill="white" stroke="#666666" points="136,-81 0,-81 0,-51 136,-51 136,-81"/>
<text text-anchor="start" x="8" y="-69" font-family="Helvetica,sans-Serif" font-size="10.00">proto::TransformToFields</text>
<text text-anchor="middle" x="68" y="-58" font-family="Helvetica,sans-Serif" font-size="10.00">Tuple&lt; Fields &gt;</text>
</a>
</g>
</g>
<!-- Node5&#45;&gt;Node4 -->
<g id="edge4_Node000004_Node000005" class="edge">
<title>Node5&#45;&gt;Node4</title>
<g id="a_edge4_Node000004_Node000005"><a xlink:title=" ">
<path fill="none" stroke="#9a32cd" stroke-dasharray="5,2" d="M146.27,-76.1C169.61,-79.16 194.86,-82.46 216.78,-85.32"/>
<polygon fill="#9a32cd" stroke="#9a32cd" points="146.41,-72.59 136.04,-74.77 145.51,-79.53 146.41,-72.59"/>
</a>
</g>
<text text-anchor="middle" x="176.5" y="-85" font-family="Helvetica,sans-Serif" font-size="10.00" fill="grey"> m_fields</text>
</g>
<!-- Node7 -->
<g id="Node000007" class="node">
<title>Node7</title>
<g id="a_Node000007"><a xlink:href="../../d5/d09/classproto_1_1FieldContainer.html" target="_top" xlink:title="Generic container for protocol fields with CRC and debug support.">
<polygon fill="white" stroke="#666666" points="336,-57 217,-57 217,-27 336,-27 336,-57"/>
<text text-anchor="start" x="225" y="-45" font-family="Helvetica,sans-Serif" font-size="10.00">proto::FieldContainer</text>
<text text-anchor="middle" x="276.5" y="-34" font-family="Helvetica,sans-Serif" font-size="10.00">&lt; Fields, TCrc &gt;</text>
</a>
</g>
</g>
<!-- Node5&#45;&gt;Node7 -->
<g id="edge7_Node000007_Node000005" class="edge">
<title>Node5&#45;&gt;Node7</title>
<g id="a_edge7_Node000007_Node000005"><a xlink:title=" ">
<path fill="none" stroke="#9a32cd" stroke-dasharray="5,2" d="M146.31,-53.97C148.9,-53.63 151.47,-53.31 154,-53 174.39,-50.52 196.78,-48.34 216.71,-46.59"/>
<polygon fill="#9a32cd" stroke="#9a32cd" points="145.67,-50.52 136.22,-55.33 146.6,-57.46 145.67,-50.52"/>
</a>
</g>
<text text-anchor="middle" x="176.5" y="-56" font-family="Helvetica,sans-Serif" font-size="10.00" fill="grey"> m_fields</text>
</g>
<!-- Node6 -->
<g id="Node000006" class="node">
<title>Node6</title>
<g id="a_Node000006"><a xlink:href="../../d4/dd2/classproto_1_1TxContainer.html" target="_top" xlink:title=" ">
<polygon fill="white" stroke="#666666" points="504,-52 373,-52 373,0 504,0 504,-52"/>
<text text-anchor="start" x="381" y="-40" font-family="Helvetica,sans-Serif" font-size="10.00">proto::TxContainer</text>
<text text-anchor="start" x="381" y="-29" font-family="Helvetica,sans-Serif" font-size="10.00">&lt; exoAtlantPacket&lt; TX</text>
<text text-anchor="start" x="381" y="-18" font-family="Helvetica,sans-Serif" font-size="10.00">_BASE &gt;::packet_fields,</text>
<text text-anchor="middle" x="438.5" y="-7" font-family="Helvetica,sans-Serif" font-size="10.00"> custom_crc &gt;</text>
</a>
</g>
</g>
<!-- Node6&#45;&gt;Node2 -->
<g id="edge5_Node000002_Node000006" class="edge">
<title>Node6&#45;&gt;Node2</title>
<g id="a_edge5_Node000002_Node000006"><a xlink:title=" ">
<path fill="none" stroke="#9a32cd" stroke-dasharray="5,2" d="M514.43,-38.18C531.29,-40.92 549.54,-43.88 567.54,-46.81"/>
<polygon fill="#9a32cd" stroke="#9a32cd" points="514.56,-34.65 504.13,-36.5 513.44,-41.56 514.56,-34.65"/>
</a>
</g>
<text text-anchor="middle" x="536" y="-47" font-family="Helvetica,sans-Serif" font-size="10.00" fill="grey"> m_tx</text>
</g>
<!-- Node7&#45;&gt;Node6 -->
<g id="edge6_Node000006_Node000007" class="edge">
<title>Node7&#45;&gt;Node6</title>
<g id="a_edge6_Node000006_Node000007"><a xlink:title=" ">
<path fill="none" stroke="#63b8ff" d="M346.39,-35.11C355.19,-34.23 364.17,-33.33 372.9,-32.46"/>
<polygon fill="#63b8ff" stroke="#63b8ff" points="345.77,-31.66 336.17,-36.13 346.47,-38.62 345.77,-31.66"/>
</a>
</g>
</g>
</g>
</svg>

<g id="navigator" transform="translate(0 0)" fill="#404254">
  <rect fill="#f2f5e9" fill-opacity="0.5" stroke="#606060" stroke-width=".5" x="0" y="0" width="60" height="60"/>
  <use id="zoomplus" xlink:href="#zoomPlus" x="17" y="9" onmousedown="handleZoom(evt,'in')"/>
  <use id="zoomminus" xlink:href="#zoomMin" x="42" y="9" onmousedown="handleZoom(evt,'out')"/>
  <use id="reset" xlink:href="#resetDef" x="30" y="36" onmousedown="handleReset()"/>
   <use id="arrowup" xlink:href="#arrowUp" x="0" y="0" onmousedown="handlePan(0,-1)"/>
  <use id="arrowright" xlink:href="#arrowRight" x="0" y="0" onmousedown="handlePan(1,0)"/>
  <use id="arrowdown" xlink:href="#arrowDown" x="0" y="0" onmousedown="handlePan(0,1)"/>
  <use id="arrowleft" xlink:href="#arrowLeft" x="0" y="0" onmousedown="handlePan(-1,0)"/>
</g>
<svg viewBox="0 0 15 15" width="100%" height="30px" preserveAspectRatio="xMaxYMin meet">
 <g id="arrow_out" transform="scale(0.3 0.3)">
  <a xlink:href="classproto_1_1exoAtlant_1_1ExoAtlantProtocol____coll__graph_org.svg" target="_base">
   <rect id="button" ry="5" rx="5" y="6" x="6" height="38" width="38"
        fill="#f2f5e9" fill-opacity="0.5" stroke="#606060" stroke-width="1.0"/>
   <path id="arrow"
     d="M 11.500037,31.436501 C 11.940474,20.09759 22.043105,11.32322 32.158766,21.979434 L 37.068811,17.246167 C 37.068811,17.246167 37.088388,32 37.088388,32 L 22.160133,31.978069 C 22.160133,31.978069 26.997745,27.140456 26.997745,27.140456 C 18.528582,18.264221 13.291696,25.230495 11.500037,31.436501 z"
     style="fill:#404040;"/>
  </a>
 </g>
</svg>

<style type='text/css'>
<![CDATA[
[data-mouse-over-selected='false'] { opacity: 0.7; }
[data-mouse-over-selected='true']  { opacity: 1.0; }
]]>
</style>
<script type="application/ecmascript"><![CDATA[
document.addEventListener('DOMContentLoaded', (event) => {
  highlightEdges();
  highlightAdjacentNodes();
});
]]></script>
</svg>
