<?xml version="1.0" encoding="UTF-8" standalone="no"?>
<!DOCTYPE svg PUBLIC "-//W3C//DTD SVG 1.1//EN"
 "http://www.w3.org/Graphics/SVG/1.1/DTD/svg11.dtd">
<!-- Generated by graphviz version 2.43.0 (0)
 -->
<!-- Title: McuUidType.hpp Pages: 1 -->
<svg width="522pt" height="137pt"
 viewBox="0.00 0.00 521.50 137.00" xmlns="http://www.w3.org/2000/svg" xmlns:xlink="http://www.w3.org/1999/xlink">
<g id="graph0" class="graph" transform="scale(1 1) rotate(0) translate(4 133)">
<title>McuUidType.hpp</title>
<!-- Node1 -->
<g id="Node000001" class="node">
<title>Node1</title>
<g id="a_Node000001"><a xlink:title=" ">
<polygon fill="#999999" stroke="#666666" points="267.5,-129 170.5,-129 170.5,-110 267.5,-110 267.5,-129"/>
<text text-anchor="middle" x="219" y="-117" font-family="Helvetica,sans-Serif" font-size="10.00">McuUidType.hpp</text>
</a>
</g>
</g>
<!-- Node2 -->
<g id="Node000002" class="node">
<title>Node2</title>
<g id="a_Node000002"><a xlink:title=" ">
<polygon fill="#e0e0e0" stroke="#999999" points="64,-74 0,-74 0,-55 64,-55 64,-74"/>
<text text-anchor="middle" x="32" y="-62" font-family="Helvetica,sans-Serif" font-size="10.00">algorithm</text>
</a>
</g>
</g>
<!-- Node1&#45;&gt;Node2 -->
<g id="edge1_Node000001_Node000002" class="edge">
<title>Node1&#45;&gt;Node2</title>
<g id="a_edge1_Node000001_Node000002"><a xlink:title=" ">
<path fill="none" stroke="#63b8ff" d="M188.96,-109.98C157.29,-101.01 107.23,-86.82 72.19,-76.89"/>
<polygon fill="#63b8ff" stroke="#63b8ff" points="72.86,-73.44 62.28,-74.08 70.95,-80.18 72.86,-73.44"/>
</a>
</g>
</g>
<!-- Node3 -->
<g id="Node000003" class="node">
<title>Node3</title>
<g id="a_Node000003"><a xlink:title=" ">
<polygon fill="#e0e0e0" stroke="#999999" points="68,-19 26,-19 26,0 68,0 68,-19"/>
<text text-anchor="middle" x="47" y="-7" font-family="Helvetica,sans-Serif" font-size="10.00">array</text>
</a>
</g>
</g>
<!-- Node1&#45;&gt;Node3 -->
<g id="edge2_Node000001_Node000003" class="edge">
<title>Node1&#45;&gt;Node3</title>
<g id="a_edge2_Node000001_Node000003"><a xlink:title=" ">
<path fill="none" stroke="#63b8ff" d="M205.22,-109.84C175.65,-91.28 105.91,-47.49 69.7,-24.75"/>
<polygon fill="#63b8ff" stroke="#63b8ff" points="71.18,-21.55 60.85,-19.2 67.46,-27.48 71.18,-21.55"/>
</a>
</g>
</g>
<!-- Node4 -->
<g id="Node000004" class="node">
<title>Node4</title>
<g id="a_Node000004"><a xlink:title=" ">
<polygon fill="#e0e0e0" stroke="#999999" points="139.5,-19 86.5,-19 86.5,0 139.5,0 139.5,-19"/>
<text text-anchor="middle" x="113" y="-7" font-family="Helvetica,sans-Serif" font-size="10.00">cstddef</text>
</a>
</g>
</g>
<!-- Node1&#45;&gt;Node4 -->
<g id="edge3_Node000001_Node000004" class="edge">
<title>Node1&#45;&gt;Node4</title>
<g id="a_edge3_Node000001_Node000004"><a xlink:title=" ">
<path fill="none" stroke="#63b8ff" d="M210.33,-109.66C192.46,-91.46 151.32,-49.55 128.67,-26.47"/>
<polygon fill="#63b8ff" stroke="#63b8ff" points="131,-23.84 121.5,-19.16 126,-28.75 131,-23.84"/>
</a>
</g>
</g>
<!-- Node5 -->
<g id="Node000005" class="node">
<title>Node5</title>
<g id="a_Node000005"><a xlink:title=" ">
<polygon fill="#e0e0e0" stroke="#999999" points="208,-19 158,-19 158,0 208,0 208,-19"/>
<text text-anchor="middle" x="183" y="-7" font-family="Helvetica,sans-Serif" font-size="10.00">cstdint</text>
</a>
</g>
</g>
<!-- Node1&#45;&gt;Node5 -->
<g id="edge4_Node000001_Node000005" class="edge">
<title>Node1&#45;&gt;Node5</title>
<g id="a_edge4_Node000001_Node000005"><a xlink:title=" ">
<path fill="none" stroke="#63b8ff" d="M210.45,-109.83C202.79,-101.45 191.99,-87.98 187,-74 181.83,-59.52 181.1,-42.01 181.51,-29.05"/>
<polygon fill="#63b8ff" stroke="#63b8ff" points="185,-29.2 182.08,-19.02 178.02,-28.8 185,-29.2"/>
</a>
</g>
</g>
<!-- Node6 -->
<g id="Node000006" class="node">
<title>Node6</title>
<g id="a_Node000006"><a xlink:title=" ">
<polygon fill="#e0e0e0" stroke="#999999" points="490,-74 440,-74 440,-55 490,-55 490,-74"/>
<text text-anchor="middle" x="465" y="-62" font-family="Helvetica,sans-Serif" font-size="10.00">cstring</text>
</a>
</g>
</g>
<!-- Node1&#45;&gt;Node6 -->
<g id="edge5_Node000001_Node000006" class="edge">
<title>Node1&#45;&gt;Node6</title>
<g id="a_edge5_Node000001_Node000006"><a xlink:title=" ">
<path fill="none" stroke="#63b8ff" d="M259.08,-109.92C300.78,-100.98 367.98,-86.56 426,-74 427.26,-73.73 428.54,-73.45 429.83,-73.17"/>
<polygon fill="#63b8ff" stroke="#63b8ff" points="430.8,-76.54 439.83,-71 429.31,-69.7 430.8,-76.54"/>
</a>
</g>
</g>
<!-- Node7 -->
<g id="Node000007" class="node">
<title>Node7</title>
<g id="a_Node000007"><a xlink:title=" ">
<polygon fill="#e0e0e0" stroke="#999999" points="422,-19 378,-19 378,0 422,0 422,-19"/>
<text text-anchor="middle" x="400" y="-7" font-family="Helvetica,sans-Serif" font-size="10.00">string</text>
</a>
</g>
</g>
<!-- Node1&#45;&gt;Node7 -->
<g id="edge6_Node000001_Node000007" class="edge">
<title>Node1&#45;&gt;Node7</title>
<g id="a_edge6_Node000001_Node000007"><a xlink:title=" ">
<path fill="none" stroke="#63b8ff" d="M267.8,-110.4C295.4,-103.99 329.4,-92.87 355,-74 371.1,-62.13 383.63,-42.75 391.33,-28.52"/>
<polygon fill="#63b8ff" stroke="#63b8ff" points="394.64,-29.74 396.07,-19.24 388.41,-26.56 394.64,-29.74"/>
</a>
</g>
</g>
<!-- Node8 -->
<g id="Node000008" class="node">
<title>Node8</title>
<g id="a_Node000008"><a xlink:title=" ">
<polygon fill="#e0e0e0" stroke="#999999" points="513.5,-19 440.5,-19 440.5,0 513.5,0 513.5,-19"/>
<text text-anchor="middle" x="477" y="-7" font-family="Helvetica,sans-Serif" font-size="10.00">string_view</text>
</a>
</g>
</g>
<!-- Node1&#45;&gt;Node8 -->
<g id="edge7_Node000001_Node000008" class="edge">
<title>Node1&#45;&gt;Node8</title>
<g id="a_edge7_Node000001_Node000008"><a xlink:title=" ">
<path fill="none" stroke="#63b8ff" d="M262.73,-109.95C295.37,-102.69 340.6,-90.77 378,-74 407.59,-60.73 438.58,-39.48 457.83,-25.26"/>
<polygon fill="#63b8ff" stroke="#63b8ff" points="460.15,-27.9 466.05,-19.09 455.95,-22.3 460.15,-27.9"/>
</a>
</g>
</g>
<!-- Node9 -->
<g id="Node000009" class="node">
<title>Node9</title>
<g id="a_Node000009"><a xlink:href="../../d7/dd7/Helpers_8hpp.html" target="_top" xlink:title=" ">
<polygon fill="white" stroke="#666666" points="346,-74 196,-74 196,-55 346,-55 346,-74"/>
<text text-anchor="middle" x="271" y="-62" font-family="Helvetica,sans-Serif" font-size="10.00">protocols/lacte/Helpers.hpp</text>
</a>
</g>
</g>
<!-- Node1&#45;&gt;Node9 -->
<g id="edge8_Node000001_Node000009" class="edge">
<title>Node1&#45;&gt;Node9</title>
<g id="a_edge8_Node000001_Node000009"><a xlink:title=" ">
<path fill="none" stroke="#63b8ff" d="M227.59,-109.75C235.16,-102.03 246.38,-90.6 255.51,-81.28"/>
<polygon fill="#63b8ff" stroke="#63b8ff" points="258.07,-83.68 262.57,-74.09 253.07,-78.78 258.07,-83.68"/>
</a>
</g>
</g>
<!-- Node9&#45;&gt;Node3 -->
<g id="edge9_Node000009_Node000003" class="edge">
<title>Node9&#45;&gt;Node3</title>
<g id="a_edge9_Node000009_Node000003"><a xlink:title=" ">
<path fill="none" stroke="#63b8ff" d="M231.1,-54.97C193.85,-46.86 136.5,-34.04 78.04,-19.17"/>
<polygon fill="#63b8ff" stroke="#63b8ff" points="78.82,-15.76 68.27,-16.67 77.09,-22.54 78.82,-15.76"/>
</a>
</g>
</g>
<!-- Node9&#45;&gt;Node4 -->
<g id="edge10_Node000009_Node000004" class="edge">
<title>Node9&#45;&gt;Node4</title>
<g id="a_edge10_Node000009_Node000004"><a xlink:title=" ">
<path fill="none" stroke="#63b8ff" d="M245.61,-54.98C219.2,-46.13 177.65,-32.19 148.11,-22.28"/>
<polygon fill="#63b8ff" stroke="#63b8ff" points="149.18,-18.94 138.58,-19.08 146.95,-25.58 149.18,-18.94"/>
</a>
</g>
</g>
<!-- Node9&#45;&gt;Node5 -->
<g id="edge11_Node000009_Node000005" class="edge">
<title>Node9&#45;&gt;Node5</title>
<g id="a_edge11_Node000009_Node000005"><a xlink:title=" ">
<path fill="none" stroke="#63b8ff" d="M256.86,-54.98C243.21,-46.77 222.31,-34.18 206.22,-24.49"/>
<polygon fill="#63b8ff" stroke="#63b8ff" points="207.77,-21.33 197.4,-19.17 204.16,-27.33 207.77,-21.33"/>
</a>
</g>
</g>
<!-- Node9&#45;&gt;Node7 -->
<g id="edge14_Node000009_Node000007" class="edge">
<title>Node9&#45;&gt;Node7</title>
<g id="a_edge14_Node000009_Node000007"><a xlink:title=" ">
<path fill="none" stroke="#63b8ff" d="M291.73,-54.98C312.76,-46.34 345.55,-32.87 369.54,-23.02"/>
<polygon fill="#63b8ff" stroke="#63b8ff" points="370.98,-26.21 378.9,-19.17 368.32,-19.73 370.98,-26.21"/>
</a>
</g>
</g>
<!-- Node9&#45;&gt;Node8 -->
<g id="edge15_Node000009_Node000008" class="edge">
<title>Node9&#45;&gt;Node8</title>
<g id="a_edge15_Node000009_Node000008"><a xlink:title=" ">
<path fill="none" stroke="#63b8ff" d="M304.1,-54.98C339.28,-45.93 395.07,-31.58 433.72,-21.64"/>
<polygon fill="#63b8ff" stroke="#63b8ff" points="434.83,-24.96 443.64,-19.08 433.09,-18.18 434.83,-24.96"/>
</a>
</g>
</g>
<!-- Node10 -->
<g id="Node000010" class="node">
<title>Node10</title>
<g id="a_Node000010"><a xlink:title=" ">
<polygon fill="#e0e0e0" stroke="#999999" points="360,-19 304,-19 304,0 360,0 360,-19"/>
<text text-anchor="middle" x="332" y="-7" font-family="Helvetica,sans-Serif" font-size="10.00">iomanip</text>
</a>
</g>
</g>
<!-- Node9&#45;&gt;Node10 -->
<g id="edge12_Node000009_Node000010" class="edge">
<title>Node9&#45;&gt;Node10</title>
<g id="a_edge12_Node000009_Node000010"><a xlink:title=" ">
<path fill="none" stroke="#63b8ff" d="M280.8,-54.98C289.82,-47.15 303.41,-35.34 314.32,-25.86"/>
<polygon fill="#63b8ff" stroke="#63b8ff" points="316.77,-28.37 322.02,-19.17 312.18,-23.09 316.77,-28.37"/>
</a>
</g>
</g>
<!-- Node11 -->
<g id="Node000011" class="node">
<title>Node11</title>
<g id="a_Node000011"><a xlink:title=" ">
<polygon fill="#e0e0e0" stroke="#999999" points="286,-19 226,-19 226,0 286,0 286,-19"/>
<text text-anchor="middle" x="256" y="-7" font-family="Helvetica,sans-Serif" font-size="10.00">iostream</text>
</a>
</g>
</g>
<!-- Node9&#45;&gt;Node11 -->
<g id="edge13_Node000009_Node000011" class="edge">
<title>Node9&#45;&gt;Node11</title>
<g id="a_edge13_Node000009_Node000011"><a xlink:title=" ">
<path fill="none" stroke="#63b8ff" d="M268.52,-54.75C266.54,-47.72 263.68,-37.62 261.19,-28.84"/>
<polygon fill="#63b8ff" stroke="#63b8ff" points="264.52,-27.76 258.43,-19.09 257.79,-29.66 264.52,-27.76"/>
</a>
</g>
</g>
</g>
</svg>
