<?xml version="1.0" encoding="UTF-8" standalone="no"?>
<!DOCTYPE svg PUBLIC "-//W3C//DTD SVG 1.1//EN"
 "http://www.w3.org/Graphics/SVG/1.1/DTD/svg11.dtd">
<!-- Generated by graphviz version 2.43.0 (0)
 -->
<!-- Title: InfoPacketType.hpp Pages: 1 -->
<svg width="842pt" height="148pt"
 viewBox="0.00 0.00 841.50 148.00" xmlns="http://www.w3.org/2000/svg" xmlns:xlink="http://www.w3.org/1999/xlink">
<g id="graph0" class="graph" transform="scale(1 1) rotate(0) translate(4 144)">
<title>InfoPacketType.hpp</title>
<!-- Node1 -->
<g id="Node000001" class="node">
<title>Node1</title>
<g id="a_Node000001"><a xlink:title=" ">
<polygon fill="#999999" stroke="#666666" points="442,-140 332,-140 332,-121 442,-121 442,-140"/>
<text text-anchor="middle" x="387" y="-128" font-family="Helvetica,sans-Serif" font-size="10.00">InfoPacketType.hpp</text>
</a>
</g>
</g>
<!-- Node2 -->
<g id="Node000002" class="node">
<title>Node2</title>
<g id="a_Node000002"><a xlink:href="../../d5/d29/LacteBoardErrors_8hpp.html" target="_top" xlink:title=" ">
<polygon fill="white" stroke="#666666" points="450.5,-85 323.5,-85 323.5,-55 450.5,-55 450.5,-85"/>
<text text-anchor="start" x="331.5" y="-73" font-family="Helvetica,sans-Serif" font-size="10.00">protocols/lacte/objects</text>
<text text-anchor="middle" x="387" y="-62" font-family="Helvetica,sans-Serif" font-size="10.00">/LacteBoardErrors.hpp</text>
</a>
</g>
</g>
<!-- Node1&#45;&gt;Node2 -->
<g id="edge1_Node000001_Node000002" class="edge">
<title>Node1&#45;&gt;Node2</title>
<g id="a_edge1_Node000001_Node000002"><a xlink:title=" ">
<path fill="none" stroke="#63b8ff" d="M387,-120.87C387,-114.11 387,-104.35 387,-95.26"/>
<polygon fill="#63b8ff" stroke="#63b8ff" points="390.5,-95.11 387,-85.11 383.5,-95.11 390.5,-95.11"/>
</a>
</g>
</g>
<!-- Node13 -->
<g id="Node000013" class="node">
<title>Node13</title>
<g id="a_Node000013"><a xlink:href="../../db/df5/RfidNumberType_8hpp.html" target="_top" xlink:title=" ">
<polygon fill="white" stroke="#666666" points="305.5,-85 178.5,-85 178.5,-55 305.5,-55 305.5,-85"/>
<text text-anchor="start" x="186.5" y="-73" font-family="Helvetica,sans-Serif" font-size="10.00">protocols/lacte/objects</text>
<text text-anchor="middle" x="242" y="-62" font-family="Helvetica,sans-Serif" font-size="10.00">/RfidNumberType.hpp</text>
</a>
</g>
</g>
<!-- Node1&#45;&gt;Node13 -->
<g id="edge12_Node000001_Node000013" class="edge">
<title>Node1&#45;&gt;Node13</title>
<g id="a_edge12_Node000001_Node000013"><a xlink:title=" ">
<path fill="none" stroke="#63b8ff" d="M365.92,-120.99C345.14,-112.61 312.76,-99.55 286.3,-88.87"/>
<polygon fill="#63b8ff" stroke="#63b8ff" points="287.44,-85.56 276.86,-85.06 284.82,-92.05 287.44,-85.56"/>
</a>
</g>
</g>
<!-- Node15 -->
<g id="Node000015" class="node">
<title>Node15</title>
<g id="a_Node000015"><a xlink:title=" ">
<polygon fill="#e0e0e0" stroke="#999999" points="533,-79.5 469,-79.5 469,-60.5 533,-60.5 533,-79.5"/>
<text text-anchor="middle" x="501" y="-67.5" font-family="Helvetica,sans-Serif" font-size="10.00">algorithm</text>
</a>
</g>
</g>
<!-- Node1&#45;&gt;Node15 -->
<g id="edge19_Node000001_Node000015" class="edge">
<title>Node1&#45;&gt;Node15</title>
<g id="a_edge19_Node000001_Node000015"><a xlink:title=" ">
<path fill="none" stroke="#63b8ff" d="M403.82,-120.87C422.6,-111.23 453.2,-95.53 475.05,-84.31"/>
<polygon fill="#63b8ff" stroke="#63b8ff" points="476.81,-87.35 484.11,-79.67 473.61,-81.12 476.81,-87.35"/>
</a>
</g>
</g>
<!-- Node3 -->
<g id="Node000003" class="node">
<title>Node3</title>
<g id="a_Node000003"><a xlink:title=" ">
<polygon fill="#e0e0e0" stroke="#999999" points="202,-19 160,-19 160,0 202,0 202,-19"/>
<text text-anchor="middle" x="181" y="-7" font-family="Helvetica,sans-Serif" font-size="10.00">array</text>
</a>
</g>
</g>
<!-- Node2&#45;&gt;Node3 -->
<g id="edge2_Node000002_Node000003" class="edge">
<title>Node2&#45;&gt;Node3</title>
<g id="a_edge2_Node000002_Node000003"><a xlink:title=" ">
<path fill="none" stroke="#63b8ff" d="M337.66,-54.99C298.5,-43.87 244.99,-28.67 211.73,-19.23"/>
<polygon fill="#63b8ff" stroke="#63b8ff" points="212.68,-15.86 202.1,-16.49 210.77,-22.59 212.68,-15.86"/>
</a>
</g>
</g>
<!-- Node4 -->
<g id="Node000004" class="node">
<title>Node4</title>
<g id="a_Node000004"><a xlink:title=" ">
<polygon fill="#e0e0e0" stroke="#999999" points="270,-19 220,-19 220,0 270,0 270,-19"/>
<text text-anchor="middle" x="245" y="-7" font-family="Helvetica,sans-Serif" font-size="10.00">cstdint</text>
</a>
</g>
</g>
<!-- Node2&#45;&gt;Node4 -->
<g id="edge3_Node000002_Node000004" class="edge">
<title>Node2&#45;&gt;Node4</title>
<g id="a_edge3_Node000002_Node000004"><a xlink:title=" ">
<path fill="none" stroke="#63b8ff" d="M352.99,-54.99C329.4,-45.27 298.26,-32.44 275.48,-23.06"/>
<polygon fill="#63b8ff" stroke="#63b8ff" points="276.55,-19.71 265.97,-19.14 273.88,-26.18 276.55,-19.71"/>
</a>
</g>
</g>
<!-- Node5 -->
<g id="Node000005" class="node">
<title>Node5</title>
<g id="a_Node000005"><a xlink:title=" ">
<polygon fill="#e0e0e0" stroke="#999999" points="683.5,-19 600.5,-19 600.5,0 683.5,0 683.5,-19"/>
<text text-anchor="middle" x="642" y="-7" font-family="Helvetica,sans-Serif" font-size="10.00">initializer_list</text>
</a>
</g>
</g>
<!-- Node2&#45;&gt;Node5 -->
<g id="edge4_Node000002_Node000005" class="edge">
<title>Node2&#45;&gt;Node5</title>
<g id="a_edge4_Node000002_Node000005"><a xlink:title=" ">
<path fill="none" stroke="#63b8ff" d="M448.08,-54.99C493.13,-44.65 553.54,-30.79 594.89,-21.31"/>
<polygon fill="#63b8ff" stroke="#63b8ff" points="595.75,-24.7 604.71,-19.05 594.19,-17.88 595.75,-24.7"/>
</a>
</g>
</g>
<!-- Node6 -->
<g id="Node000006" class="node">
<title>Node6</title>
<g id="a_Node000006"><a xlink:title=" ">
<polygon fill="#e0e0e0" stroke="#999999" points="758,-19 702,-19 702,0 758,0 758,-19"/>
<text text-anchor="middle" x="730" y="-7" font-family="Helvetica,sans-Serif" font-size="10.00">optional</text>
</a>
</g>
</g>
<!-- Node2&#45;&gt;Node6 -->
<g id="edge5_Node000002_Node000006" class="edge">
<title>Node2&#45;&gt;Node6</title>
<g id="a_edge5_Node000002_Node000006"><a xlink:title=" ">
<path fill="none" stroke="#63b8ff" d="M450.68,-56.65C453.83,-56.08 456.95,-55.53 460,-55 560.12,-37.67 588.4,-38.66 691.85,-19.1"/>
<polygon fill="#63b8ff" stroke="#63b8ff" points="692.6,-22.52 701.76,-17.21 691.28,-15.65 692.6,-22.52"/>
</a>
</g>
</g>
<!-- Node7 -->
<g id="Node000007" class="node">
<title>Node7</title>
<g id="a_Node000007"><a xlink:title=" ">
<polygon fill="#e0e0e0" stroke="#999999" points="833.5,-19 776.5,-19 776.5,0 833.5,0 833.5,-19"/>
<text text-anchor="middle" x="805" y="-7" font-family="Helvetica,sans-Serif" font-size="10.00">ostream</text>
</a>
</g>
</g>
<!-- Node2&#45;&gt;Node7 -->
<g id="edge6_Node000002_Node000007" class="edge">
<title>Node2&#45;&gt;Node7</title>
<g id="a_edge6_Node000002_Node000007"><a xlink:title=" ">
<path fill="none" stroke="#63b8ff" d="M450.65,-56.51C453.81,-55.98 456.94,-55.47 460,-55 592.59,-34.54 629.83,-41.67 766.42,-18.91"/>
<polygon fill="#63b8ff" stroke="#63b8ff" points="767.15,-22.34 776.43,-17.22 765.99,-15.44 767.15,-22.34"/>
</a>
</g>
</g>
<!-- Node8 -->
<g id="Node000008" class="node">
<title>Node8</title>
<g id="a_Node000008"><a xlink:title=" ">
<polygon fill="#e0e0e0" stroke="#999999" points="344,-19 288,-19 288,0 344,0 344,-19"/>
<text text-anchor="middle" x="316" y="-7" font-family="Helvetica,sans-Serif" font-size="10.00">sstream</text>
</a>
</g>
</g>
<!-- Node2&#45;&gt;Node8 -->
<g id="edge7_Node000002_Node000008" class="edge">
<title>Node2&#45;&gt;Node8</title>
<g id="a_edge7_Node000002_Node000008"><a xlink:title=" ">
<path fill="none" stroke="#63b8ff" d="M369.81,-54.84C359.19,-46.09 345.56,-34.85 334.67,-25.88"/>
<polygon fill="#63b8ff" stroke="#63b8ff" points="336.58,-22.92 326.64,-19.27 332.13,-28.33 336.58,-22.92"/>
</a>
</g>
</g>
<!-- Node9 -->
<g id="Node000009" class="node">
<title>Node9</title>
<g id="a_Node000009"><a xlink:title=" ">
<polygon fill="#e0e0e0" stroke="#999999" points="406,-19 362,-19 362,0 406,0 406,-19"/>
<text text-anchor="middle" x="384" y="-7" font-family="Helvetica,sans-Serif" font-size="10.00">string</text>
</a>
</g>
</g>
<!-- Node2&#45;&gt;Node9 -->
<g id="edge8_Node000002_Node000009" class="edge">
<title>Node2&#45;&gt;Node9</title>
<g id="a_edge8_Node000002_Node000009"><a xlink:title=" ">
<path fill="none" stroke="#63b8ff" d="M386.27,-54.84C385.88,-47.21 385.4,-37.7 384.97,-29.45"/>
<polygon fill="#63b8ff" stroke="#63b8ff" points="388.46,-29.07 384.45,-19.27 381.47,-29.43 388.46,-29.07"/>
</a>
</g>
</g>
<!-- Node10 -->
<g id="Node000010" class="node">
<title>Node10</title>
<g id="a_Node000010"><a xlink:title=" ">
<polygon fill="#e0e0e0" stroke="#999999" points="141.5,-19 68.5,-19 68.5,0 141.5,0 141.5,-19"/>
<text text-anchor="middle" x="105" y="-7" font-family="Helvetica,sans-Serif" font-size="10.00">string_view</text>
</a>
</g>
</g>
<!-- Node2&#45;&gt;Node10 -->
<g id="edge9_Node000002_Node000010" class="edge">
<title>Node2&#45;&gt;Node10</title>
<g id="a_edge9_Node000002_Node000010"><a xlink:title=" ">
<path fill="none" stroke="#63b8ff" d="M323.36,-55.8C271.15,-44.97 198.44,-29.88 151.54,-20.15"/>
<polygon fill="#63b8ff" stroke="#63b8ff" points="152.15,-16.71 141.65,-18.1 150.73,-23.56 152.15,-16.71"/>
</a>
</g>
</g>
<!-- Node11 -->
<g id="Node000011" class="node">
<title>Node11</title>
<g id="a_Node000011"><a xlink:title=" ">
<polygon fill="#e0e0e0" stroke="#999999" points="517.5,-19 424.5,-19 424.5,0 517.5,0 517.5,-19"/>
<text text-anchor="middle" x="471" y="-7" font-family="Helvetica,sans-Serif" font-size="10.00">unordered_map</text>
</a>
</g>
</g>
<!-- Node2&#45;&gt;Node11 -->
<g id="edge10_Node000002_Node000011" class="edge">
<title>Node2&#45;&gt;Node11</title>
<g id="a_edge10_Node000002_Node000011"><a xlink:title=" ">
<path fill="none" stroke="#63b8ff" d="M407.33,-54.84C420.27,-45.83 436.99,-34.18 450.05,-25.09"/>
<polygon fill="#63b8ff" stroke="#63b8ff" points="452.21,-27.85 458.41,-19.27 448.21,-22.11 452.21,-27.85"/>
</a>
</g>
</g>
<!-- Node12 -->
<g id="Node000012" class="node">
<title>Node12</title>
<g id="a_Node000012"><a xlink:title=" ">
<polygon fill="#e0e0e0" stroke="#999999" points="582.5,-19 535.5,-19 535.5,0 582.5,0 582.5,-19"/>
<text text-anchor="middle" x="559" y="-7" font-family="Helvetica,sans-Serif" font-size="10.00">vector</text>
</a>
</g>
</g>
<!-- Node2&#45;&gt;Node12 -->
<g id="edge11_Node000002_Node000012" class="edge">
<title>Node2&#45;&gt;Node12</title>
<g id="a_edge11_Node000002_Node000012"><a xlink:title=" ">
<path fill="none" stroke="#63b8ff" d="M428.2,-54.99C457.94,-44.87 497.6,-31.38 525.42,-21.92"/>
<polygon fill="#63b8ff" stroke="#63b8ff" points="526.76,-25.16 535.1,-18.63 524.5,-18.54 526.76,-25.16"/>
</a>
</g>
</g>
<!-- Node13&#45;&gt;Node3 -->
<g id="edge13_Node000013_Node000003" class="edge">
<title>Node13&#45;&gt;Node3</title>
<g id="a_edge13_Node000013_Node000003"><a xlink:title=" ">
<path fill="none" stroke="#63b8ff" d="M227.23,-54.84C218.29,-46.26 206.86,-35.3 197.6,-26.42"/>
<polygon fill="#63b8ff" stroke="#63b8ff" points="199.78,-23.66 190.14,-19.27 194.94,-28.71 199.78,-23.66"/>
</a>
</g>
</g>
<!-- Node13&#45;&gt;Node4 -->
<g id="edge14_Node000013_Node000004" class="edge">
<title>Node13&#45;&gt;Node4</title>
<g id="a_edge14_Node000013_Node000004"><a xlink:title=" ">
<path fill="none" stroke="#63b8ff" d="M242.73,-54.84C243.12,-47.21 243.6,-37.7 244.03,-29.45"/>
<polygon fill="#63b8ff" stroke="#63b8ff" points="247.53,-29.43 244.55,-19.27 240.54,-29.07 247.53,-29.43"/>
</a>
</g>
</g>
<!-- Node13&#45;&gt;Node8 -->
<g id="edge16_Node000013_Node000008" class="edge">
<title>Node13&#45;&gt;Node8</title>
<g id="a_edge16_Node000013_Node000008"><a xlink:title=" ">
<path fill="none" stroke="#63b8ff" d="M259.91,-54.84C271.09,-46 285.48,-34.63 296.88,-25.62"/>
<polygon fill="#63b8ff" stroke="#63b8ff" points="299.24,-28.21 304.91,-19.27 294.9,-22.72 299.24,-28.21"/>
</a>
</g>
</g>
<!-- Node13&#45;&gt;Node9 -->
<g id="edge17_Node000013_Node000009" class="edge">
<title>Node13&#45;&gt;Node9</title>
<g id="a_edge17_Node000013_Node000009"><a xlink:title=" ">
<path fill="none" stroke="#63b8ff" d="M276.01,-54.99C299.6,-45.27 330.74,-32.44 353.52,-23.06"/>
<polygon fill="#63b8ff" stroke="#63b8ff" points="355.12,-26.18 363.03,-19.14 352.45,-19.71 355.12,-26.18"/>
</a>
</g>
</g>
<!-- Node13&#45;&gt;Node10 -->
<g id="edge18_Node000013_Node000010" class="edge">
<title>Node13&#45;&gt;Node10</title>
<g id="a_edge18_Node000013_Node000010"><a xlink:title=" ">
<path fill="none" stroke="#63b8ff" d="M209.19,-54.99C186.53,-45.31 156.65,-32.56 134.7,-23.18"/>
<polygon fill="#63b8ff" stroke="#63b8ff" points="135.8,-19.85 125.23,-19.14 133.05,-26.29 135.8,-19.85"/>
</a>
</g>
</g>
<!-- Node14 -->
<g id="Node000014" class="node">
<title>Node14</title>
<g id="a_Node000014"><a xlink:title=" ">
<polygon fill="#e0e0e0" stroke="#999999" points="50,-19 0,-19 0,0 50,0 50,-19"/>
<text text-anchor="middle" x="25" y="-7" font-family="Helvetica,sans-Serif" font-size="10.00">cstring</text>
</a>
</g>
</g>
<!-- Node13&#45;&gt;Node14 -->
<g id="edge15_Node000013_Node000014" class="edge">
<title>Node13&#45;&gt;Node14</title>
<g id="a_edge15_Node000013_Node000014"><a xlink:title=" ">
<path fill="none" stroke="#63b8ff" d="M190.02,-54.99C149.74,-44.13 95.03,-29.38 59.86,-19.9"/>
<polygon fill="#63b8ff" stroke="#63b8ff" points="60.62,-16.48 50.05,-17.25 58.8,-23.24 60.62,-16.48"/>
</a>
</g>
</g>
</g>
</svg>
