<?xml version="1.0" encoding="UTF-8" standalone="no"?>
<!DOCTYPE svg PUBLIC "-//W3C//DTD SVG 1.1//EN"
 "http://www.w3.org/Graphics/SVG/1.1/DTD/svg11.dtd">
<!-- Generated by graphviz version 2.43.0 (0)
 -->
<!-- Title: McuUidType.hpp Pages: 1 -->
<svg width="244pt" height="247pt"
 viewBox="0.00 0.00 243.50 247.00" xmlns="http://www.w3.org/2000/svg" xmlns:xlink="http://www.w3.org/1999/xlink">
<g id="graph0" class="graph" transform="scale(1 1) rotate(0) translate(4 243)">
<title>McuUidType.hpp</title>
<!-- Node1 -->
<g id="Node000001" class="node">
<title>Node1</title>
<g id="a_Node000001"><a xlink:title=" ">
<polygon fill="#999999" stroke="#666666" points="165,-239 68,-239 68,-220 165,-220 165,-239"/>
<text text-anchor="middle" x="116.5" y="-227" font-family="Helvetica,sans-Serif" font-size="10.00">McuUidType.hpp</text>
</a>
</g>
</g>
<!-- Node2 -->
<g id="Node000002" class="node">
<title>Node2</title>
<g id="a_Node000002"><a xlink:href="../../d5/dd1/RfidDataTypes_8hpp.html" target="_top" xlink:title=" ">
<polygon fill="white" stroke="#666666" points="107,-184 0,-184 0,-165 107,-165 107,-184"/>
<text text-anchor="middle" x="53.5" y="-172" font-family="Helvetica,sans-Serif" font-size="10.00">RfidDataTypes.hpp</text>
</a>
</g>
</g>
<!-- Node1&#45;&gt;Node2 -->
<g id="edge1_Node000001_Node000002" class="edge">
<title>Node1&#45;&gt;Node2</title>
<g id="a_edge1_Node000001_Node000002"><a xlink:title=" ">
<path fill="none" stroke="#63b8ff" d="M98.46,-213.32C87.23,-203.87 73.18,-192.06 63.81,-184.17"/>
<polygon fill="#63b8ff" stroke="#63b8ff" points="96.47,-216.23 106.38,-219.98 100.98,-210.87 96.47,-216.23"/>
</a>
</g>
</g>
<!-- Node6 -->
<g id="Node000006" class="node">
<title>Node6</title>
<g id="a_Node000006"><a xlink:href="../../de/dd5/UIDPacketType_8hpp.html" target="_top" xlink:title=" ">
<polygon fill="white" stroke="#666666" points="235.5,-184 125.5,-184 125.5,-165 235.5,-165 235.5,-184"/>
<text text-anchor="middle" x="180.5" y="-172" font-family="Helvetica,sans-Serif" font-size="10.00">UIDPacketType.hpp</text>
</a>
</g>
</g>
<!-- Node1&#45;&gt;Node6 -->
<g id="edge5_Node000001_Node000006" class="edge">
<title>Node1&#45;&gt;Node6</title>
<g id="a_edge5_Node000001_Node000006"><a xlink:title=" ">
<path fill="none" stroke="#63b8ff" d="M134.49,-213.6C145.96,-204.11 160.41,-192.13 170.03,-184.17"/>
<polygon fill="#63b8ff" stroke="#63b8ff" points="132.25,-210.91 126.78,-219.98 136.72,-216.3 132.25,-210.91"/>
</a>
</g>
</g>
<!-- Node3 -->
<g id="Node000003" class="node">
<title>Node3</title>
<g id="a_Node000003"><a xlink:href="../../dd/d58/LacteProtocolPrototype_8hpp.html" target="_top" xlink:title=" ">
<polygon fill="white" stroke="#666666" points="192,-129 41,-129 41,-110 192,-110 192,-129"/>
<text text-anchor="middle" x="116.5" y="-117" font-family="Helvetica,sans-Serif" font-size="10.00">LacteProtocolPrototype.hpp</text>
</a>
</g>
</g>
<!-- Node2&#45;&gt;Node3 -->
<g id="edge2_Node000002_Node000003" class="edge">
<title>Node2&#45;&gt;Node3</title>
<g id="a_edge2_Node000002_Node000003"><a xlink:title=" ">
<path fill="none" stroke="#63b8ff" d="M71.54,-158.32C82.77,-148.87 96.82,-137.06 106.19,-129.17"/>
<polygon fill="#63b8ff" stroke="#63b8ff" points="69.02,-155.87 63.62,-164.98 73.53,-161.23 69.02,-155.87"/>
</a>
</g>
</g>
<!-- Node4 -->
<g id="Node000004" class="node">
<title>Node4</title>
<g id="a_Node000004"><a xlink:href="../../d9/ddb/LacteProtocol_8hpp.html" target="_top" xlink:title=" ">
<polygon fill="white" stroke="#666666" points="168.5,-74 64.5,-74 64.5,-55 168.5,-55 168.5,-74"/>
<text text-anchor="middle" x="116.5" y="-62" font-family="Helvetica,sans-Serif" font-size="10.00">LacteProtocol.hpp</text>
</a>
</g>
</g>
<!-- Node3&#45;&gt;Node4 -->
<g id="edge3_Node000003_Node000004" class="edge">
<title>Node3&#45;&gt;Node4</title>
<g id="a_edge3_Node000003_Node000004"><a xlink:title=" ">
<path fill="none" stroke="#63b8ff" d="M116.5,-99.66C116.5,-90.93 116.5,-80.99 116.5,-74.09"/>
<polygon fill="#63b8ff" stroke="#63b8ff" points="113,-99.75 116.5,-109.75 120,-99.75 113,-99.75"/>
</a>
</g>
</g>
<!-- Node5 -->
<g id="Node000005" class="node">
<title>Node5</title>
<g id="a_Node000005"><a xlink:href="../../dc/d80/VirtualBoard_8hpp.html" target="_top" xlink:title=" ">
<polygon fill="white" stroke="#666666" points="165.5,-19 67.5,-19 67.5,0 165.5,0 165.5,-19"/>
<text text-anchor="middle" x="116.5" y="-7" font-family="Helvetica,sans-Serif" font-size="10.00">VirtualBoard.hpp</text>
</a>
</g>
</g>
<!-- Node4&#45;&gt;Node5 -->
<g id="edge4_Node000004_Node000005" class="edge">
<title>Node4&#45;&gt;Node5</title>
<g id="a_edge4_Node000004_Node000005"><a xlink:title=" ">
<path fill="none" stroke="#63b8ff" d="M116.5,-44.66C116.5,-35.93 116.5,-25.99 116.5,-19.09"/>
<polygon fill="#63b8ff" stroke="#63b8ff" points="113,-44.75 116.5,-54.75 120,-44.75 113,-44.75"/>
</a>
</g>
</g>
<!-- Node6&#45;&gt;Node3 -->
<g id="edge6_Node000006_Node000003" class="edge">
<title>Node6&#45;&gt;Node3</title>
<g id="a_edge6_Node000006_Node000003"><a xlink:title=" ">
<path fill="none" stroke="#63b8ff" d="M162.51,-158.6C151.04,-149.11 136.59,-137.13 126.97,-129.17"/>
<polygon fill="#63b8ff" stroke="#63b8ff" points="160.28,-161.3 170.22,-164.98 164.75,-155.91 160.28,-161.3"/>
</a>
</g>
</g>
</g>
</svg>
