<?xml version="1.0" encoding="UTF-8" standalone="no"?>
<!DOCTYPE svg PUBLIC "-//W3C//DTD SVG 1.1//EN"
 "http://www.w3.org/Graphics/SVG/1.1/DTD/svg11.dtd">
<!-- Generated by graphviz version 14.0.1 (20251006.0113)
 -->
<!-- Title: Interface.hpp Pages: 1 -->
<svg width="358pt" height="304pt"
 viewBox="0.00 0.00 358.00 304.00" xmlns="http://www.w3.org/2000/svg" xmlns:xlink="http://www.w3.org/1999/xlink">

<svg id="main" version="1.1" xmlns="http://www.w3.org/2000/svg" xmlns:xlink="http://www.w3.org/1999/xlink" xml:space="preserve">

<style type="text/css"><![CDATA[
.node, .edge {opacity: 0.7;}
.node.selected, .edge.selected {opacity: 1;}
.edge:hover path { stroke: red; }
.edge:hover polygon { stroke: red; fill: red; }
]]></style>
<script type="application/ecmascript" xlink:href="../../svg.min.js"/>
<svg id="graph" class="graph">
<g id="graph0" class="graph" transform="scale(1 1) rotate(0) translate(4 299.5)">
<title>Interface.hpp</title>
<!-- Node1 -->
<g id="Node000001" class="node">
<title>Node1</title>
<g id="a_Node000001"><a xlink:title=" ">
<polygon fill="#999999" stroke="#666666" points="299.79,-295.5 226.79,-295.5 226.79,-276.25 299.79,-276.25 299.79,-295.5"/>
<text xml:space="preserve" text-anchor="middle" x="263.29" y="-282" font-family="Helvetica,sans-Serif" font-size="10.00">Interface.hpp</text>
</a>
</g>
</g>
<!-- Node2 -->
<g id="Node000002" class="node">
<title>Node2</title>
<g id="a_Node000002"><a xlink:href="../../d7/d5d/_tx_container_8hpp.html" target="_top" xlink:title="TX&#45;side container that builds protocol frames from a set of fields.">
<polygon fill="white" stroke="#666666" points="257.92,-240.25 170.67,-240.25 170.67,-221 257.92,-221 257.92,-240.25"/>
<text xml:space="preserve" text-anchor="middle" x="214.29" y="-226.75" font-family="Helvetica,sans-Serif" font-size="10.00">TxContainer.hpp</text>
</a>
</g>
</g>
<!-- Node1&#45;&gt;Node2 -->
<g id="edge1_Node000001_Node000002" class="edge">
<title>Node1&#45;&gt;Node2</title>
<g id="a_edge1_Node000001_Node000002"><a xlink:title=" ">
<path fill="none" stroke="#63b8ff" d="M247.57,-267.79C239.26,-258.75 229.38,-248.02 222.56,-240.61"/>
<polygon fill="#63b8ff" stroke="#63b8ff" points="244.83,-269.98 254.18,-274.97 249.98,-265.24 244.83,-269.98"/>
</a>
</g>
</g>
<!-- Node9 -->
<g id="Node000009" class="node">
<title>Node9</title>
<g id="a_Node000009"><a xlink:href="../../db/d39/_ymodem_8hpp.html" target="_top" xlink:title=" ">
<polygon fill="white" stroke="#666666" points="350.17,-240.25 276.42,-240.25 276.42,-221 350.17,-221 350.17,-240.25"/>
<text xml:space="preserve" text-anchor="middle" x="313.29" y="-226.75" font-family="Helvetica,sans-Serif" font-size="10.00">Ymodem.hpp</text>
</a>
</g>
</g>
<!-- Node1&#45;&gt;Node9 -->
<g id="edge9_Node000001_Node000009" class="edge">
<title>Node1&#45;&gt;Node9</title>
<g id="a_edge9_Node000001_Node000009"><a xlink:title=" ">
<path fill="none" stroke="#63b8ff" d="M279.34,-267.79C287.82,-258.75 297.9,-248.02 304.86,-240.61"/>
<polygon fill="#63b8ff" stroke="#63b8ff" points="276.88,-265.29 272.59,-274.98 281.98,-270.08 276.88,-265.29"/>
</a>
</g>
</g>
<!-- Node3 -->
<g id="Node000003" class="node">
<title>Node3</title>
<g id="a_Node000003"><a xlink:href="../../dd/d7f/_protocol_endpoint_8hpp.html" target="_top" xlink:title="Base endpoint class for protocol implementations.">
<polygon fill="white" stroke="#666666" points="127.79,-185 18.79,-185 18.79,-165.75 127.79,-165.75 127.79,-185"/>
<text xml:space="preserve" text-anchor="middle" x="73.29" y="-171.5" font-family="Helvetica,sans-Serif" font-size="10.00">ProtocolEndpoint.hpp</text>
</a>
</g>
</g>
<!-- Node2&#45;&gt;Node3 -->
<g id="edge2_Node000002_Node000003" class="edge">
<title>Node2&#45;&gt;Node3</title>
<g id="a_edge2_Node000002_Node000003"><a xlink:title=" ">
<path fill="none" stroke="#63b8ff" d="M179.66,-216.54C154.09,-206.89 119.96,-194 97.33,-185.45"/>
<polygon fill="#63b8ff" stroke="#63b8ff" points="178.37,-219.8 188.96,-220.06 180.84,-213.25 178.37,-219.8"/>
</a>
</g>
</g>
<!-- Node7 -->
<g id="Node000007" class="node">
<title>Node7</title>
<g id="a_Node000007"><a xlink:href="../../dc/d1e/_protocol_no_sys_endpoint_8hpp.html" target="_top" xlink:title=" ">
<polygon fill="white" stroke="#666666" points="284.79,-185 145.79,-185 145.79,-165.75 284.79,-165.75 284.79,-185"/>
<text xml:space="preserve" text-anchor="middle" x="215.29" y="-171.5" font-family="Helvetica,sans-Serif" font-size="10.00">ProtocolNoSysEndpoint.hpp</text>
</a>
</g>
</g>
<!-- Node2&#45;&gt;Node7 -->
<g id="edge7_Node000002_Node000007" class="edge">
<title>Node2&#45;&gt;Node7</title>
<g id="a_edge7_Node000002_Node000007"><a xlink:title=" ">
<path fill="none" stroke="#63b8ff" d="M214.67,-209.38C214.83,-201.09 215,-191.92 215.13,-185.36"/>
<polygon fill="#63b8ff" stroke="#63b8ff" points="211.18,-209.25 214.49,-219.32 218.18,-209.39 211.18,-209.25"/>
</a>
</g>
</g>
<!-- Node4 -->
<g id="Node000004" class="node">
<title>Node4</title>
<g id="a_Node000004"><a xlink:href="../../dc/d95/_lacte_protocol_8hpp.html" target="_top" xlink:title=" ">
<polygon fill="white" stroke="#666666" points="127.67,-74.5 32.92,-74.5 32.92,-55.25 127.67,-55.25 127.67,-74.5"/>
<text xml:space="preserve" text-anchor="middle" x="80.29" y="-61" font-family="Helvetica,sans-Serif" font-size="10.00">LacteProtocol.hpp</text>
</a>
</g>
</g>
<!-- Node3&#45;&gt;Node4 -->
<g id="edge3_Node000003_Node000004" class="edge">
<title>Node3&#45;&gt;Node4</title>
<g id="a_edge3_Node000003_Node000004"><a xlink:title=" ">
<path fill="none" stroke="#63b8ff" d="M38.84,-160.58C15.65,-149.08 -8.67,-131.27 3.29,-110.5 13.4,-92.96 33.33,-81.69 50.38,-74.86"/>
<polygon fill="#63b8ff" stroke="#63b8ff" points="37.36,-163.75 47.9,-164.77 40.29,-157.4 37.36,-163.75"/>
</a>
</g>
</g>
<!-- Node6 -->
<g id="Node000006" class="node">
<title>Node6</title>
<g id="a_Node000006"><a xlink:href="../../d8/df0/_lacte_protocol_prototype_8hpp.html" target="_top" xlink:title=" ">
<polygon fill="white" stroke="#666666" points="148.67,-129.75 11.92,-129.75 11.92,-110.5 148.67,-110.5 148.67,-129.75"/>
<text xml:space="preserve" text-anchor="middle" x="80.29" y="-116.25" font-family="Helvetica,sans-Serif" font-size="10.00">LacteProtocolPrototype.hpp</text>
</a>
</g>
</g>
<!-- Node3&#45;&gt;Node6 -->
<g id="edge5_Node000003_Node000006" class="edge">
<title>Node3&#45;&gt;Node6</title>
<g id="a_edge5_Node000003_Node000006"><a xlink:title=" ">
<path fill="none" stroke="#63b8ff" d="M75.92,-154.42C77.02,-146.05 78.24,-136.75 79.11,-130.11"/>
<polygon fill="#63b8ff" stroke="#63b8ff" points="72.48,-153.71 74.65,-164.08 79.42,-154.62 72.48,-153.71"/>
</a>
</g>
</g>
<!-- Node5 -->
<g id="Node000005" class="node">
<title>Node5</title>
<g id="a_Node000005"><a xlink:href="../../db/dc5/_virtual_board_8hpp.html" target="_top" xlink:title=" ">
<polygon fill="white" stroke="#666666" points="124.29,-19.25 36.29,-19.25 36.29,0 124.29,0 124.29,-19.25"/>
<text xml:space="preserve" text-anchor="middle" x="80.29" y="-5.75" font-family="Helvetica,sans-Serif" font-size="10.00">VirtualBoard.hpp</text>
</a>
</g>
</g>
<!-- Node4&#45;&gt;Node5 -->
<g id="edge4_Node000004_Node000005" class="edge">
<title>Node4&#45;&gt;Node5</title>
<g id="a_edge4_Node000004_Node000005"><a xlink:title=" ">
<path fill="none" stroke="#63b8ff" d="M80.29,-43.63C80.29,-35.34 80.29,-26.17 80.29,-19.61"/>
<polygon fill="#63b8ff" stroke="#63b8ff" points="76.79,-43.57 80.29,-53.57 83.79,-43.57 76.79,-43.57"/>
</a>
</g>
</g>
<!-- Node6&#45;&gt;Node4 -->
<g id="edge6_Node000006_Node000004" class="edge">
<title>Node6&#45;&gt;Node4</title>
<g id="a_edge6_Node000006_Node000004"><a xlink:title=" ">
<path fill="none" stroke="#63b8ff" d="M80.29,-98.88C80.29,-90.59 80.29,-81.42 80.29,-74.86"/>
<polygon fill="#63b8ff" stroke="#63b8ff" points="76.79,-98.82 80.29,-108.82 83.79,-98.82 76.79,-98.82"/>
</a>
</g>
</g>
<!-- Node8 -->
<g id="Node000008" class="node">
<title>Node8</title>
<g id="a_Node000008"><a xlink:href="../../d5/d46/exo_atlant_protocol_8hpp.html" target="_top" xlink:title=" ">
<polygon fill="white" stroke="#666666" points="278.29,-129.75 166.29,-129.75 166.29,-110.5 278.29,-110.5 278.29,-129.75"/>
<text xml:space="preserve" text-anchor="middle" x="222.29" y="-116.25" font-family="Helvetica,sans-Serif" font-size="10.00">exoAtlantProtocol.hpp</text>
</a>
</g>
</g>
<!-- Node7&#45;&gt;Node8 -->
<g id="edge8_Node000007_Node000008" class="edge">
<title>Node7&#45;&gt;Node8</title>
<g id="a_edge8_Node000007_Node000008"><a xlink:title=" ">
<path fill="none" stroke="#63b8ff" d="M217.92,-154.42C219.02,-146.05 220.24,-136.75 221.11,-130.11"/>
<polygon fill="#63b8ff" stroke="#63b8ff" points="214.48,-153.71 216.65,-164.08 221.42,-154.62 214.48,-153.71"/>
</a>
</g>
</g>
<!-- Node9&#45;&gt;Node4 -->
<g id="edge10_Node000009_Node000004" class="edge">
<title>Node9&#45;&gt;Node4</title>
<g id="a_edge10_Node000009_Node000004"><a xlink:title=" ">
<path fill="none" stroke="#63b8ff" d="M315,-209.39C316.05,-182.89 313.57,-136.71 287.29,-110.5 265.3,-88.56 182.13,-76.14 128.15,-70.23"/>
<polygon fill="#63b8ff" stroke="#63b8ff" points="311.53,-208.94 314.39,-219.14 318.51,-209.38 311.53,-208.94"/>
</a>
</g>
</g>
</g>
</svg>
</svg>

<style type='text/css'>
<![CDATA[
[data-mouse-over-selected='false'] { opacity: 0.7; }
[data-mouse-over-selected='true']  { opacity: 1.0; }
]]>
</style>
<script type="application/ecmascript"><![CDATA[
document.addEventListener('DOMContentLoaded', (event) => {
  highlightEdges();
  highlightAdjacentNodes();
});
]]></script>
</svg>
