<?xml version="1.0" encoding="UTF-8" standalone="no"?>
<!DOCTYPE svg PUBLIC "-//W3C//DTD SVG 1.1//EN"
 "http://www.w3.org/Graphics/SVG/1.1/DTD/svg11.dtd">
<!-- Generated by graphviz version 14.0.1 (20251006.0113)
 -->
<!-- Title: proto::lacte::ProdDate::ProdDate Pages: 1 -->
<svg width="268pt" height="186pt"
 viewBox="0.00 0.00 268.00 186.00" xmlns="http://www.w3.org/2000/svg" xmlns:xlink="http://www.w3.org/1999/xlink">

<svg id="main" version="1.1" xmlns="http://www.w3.org/2000/svg" xmlns:xlink="http://www.w3.org/1999/xlink" xml:space="preserve">

<style type="text/css"><![CDATA[
.node, .edge {opacity: 0.7;}
.node.selected, .edge.selected {opacity: 1;}
.edge:hover path { stroke: red; }
.edge:hover polygon { stroke: red; fill: red; }
]]></style>
<script type="application/ecmascript" xlink:href="../../svg.min.js"/>
<svg id="graph" class="graph">
<g id="graph0" class="graph" transform="scale(1 1) rotate(0) translate(4 181.5)">
<title>proto::lacte::ProdDate::ProdDate</title>
<!-- Node1 -->
<g id="Node000001" class="node">
<title>Node1</title>
<g id="a_Node000001"><a xlink:title=" ">
<polygon fill="#999999" stroke="#666666" points="260,-103.5 148,-103.5 148,-73 260,-73 260,-103.5"/>
<text xml:space="preserve" text-anchor="start" x="156" y="-90" font-family="Helvetica,sans-Serif" font-size="10.00">proto::lacte::ProdDate</text>
<text xml:space="preserve" text-anchor="middle" x="204" y="-78.75" font-family="Helvetica,sans-Serif" font-size="10.00">::ProdDate</text>
</a>
</g>
</g>
<!-- Node2 -->
<g id="Node000002" class="node">
<title>Node2</title>
<g id="a_Node000002"><a xlink:href="../../d6/deb/structproto_1_1lacte_1_1_prod_date.html#a143dfbe70844b170bceeefcbab91d6f5" target="_top" xlink:title=" ">
<polygon fill="white" stroke="#666666" points="112,-177.5 0,-177.5 0,-147 112,-147 112,-177.5"/>
<text xml:space="preserve" text-anchor="start" x="8" y="-164" font-family="Helvetica,sans-Serif" font-size="10.00">proto::lacte::ProdDate</text>
<text xml:space="preserve" text-anchor="middle" x="56" y="-152.75" font-family="Helvetica,sans-Serif" font-size="10.00">::operator!=</text>
</a>
</g>
</g>
<!-- Node1&#45;&gt;Node2 -->
<g id="edge1_Node000001_Node000002" class="edge">
<title>Node1&#45;&gt;Node2</title>
<g id="a_edge1_Node000001_Node000002"><a xlink:title=" ">
<path fill="none" stroke="#63b8ff" d="M165.28,-109.29C149.02,-118.18 129.71,-128.47 112,-137.25 105.7,-140.37 98.94,-143.57 92.37,-146.6"/>
<polygon fill="#63b8ff" stroke="#63b8ff" points="166.57,-112.58 173.65,-104.7 163.2,-106.45 166.57,-112.58"/>
</a>
</g>
</g>
<!-- Node3 -->
<g id="Node000003" class="node">
<title>Node3</title>
<g id="a_Node000003"><a xlink:href="../../d6/deb/structproto_1_1lacte_1_1_prod_date.html#a68b23bf382dac12d1ed4b550c20c1afd" target="_top" xlink:title=" ">
<polygon fill="white" stroke="#666666" points="112,-128.5 0,-128.5 0,-98 112,-98 112,-128.5"/>
<text xml:space="preserve" text-anchor="start" x="8" y="-115" font-family="Helvetica,sans-Serif" font-size="10.00">proto::lacte::ProdDate</text>
<text xml:space="preserve" text-anchor="middle" x="56" y="-103.75" font-family="Helvetica,sans-Serif" font-size="10.00">::operator&lt;&lt;</text>
</a>
</g>
</g>
<!-- Node1&#45;&gt;Node3 -->
<g id="edge2_Node000001_Node000003" class="edge">
<title>Node1&#45;&gt;Node3</title>
<g id="a_edge2_Node000001_Node000003"><a xlink:title=" ">
<path fill="none" stroke="#63b8ff" d="M136.47,-99.64C128.38,-101.03 120.18,-102.43 112.27,-103.79"/>
<polygon fill="#63b8ff" stroke="#63b8ff" points="137.05,-103.09 146.31,-97.96 135.86,-96.19 137.05,-103.09"/>
</a>
</g>
</g>
<!-- Node4 -->
<g id="Node000004" class="node">
<title>Node4</title>
<g id="a_Node000004"><a xlink:href="../../d6/deb/structproto_1_1lacte_1_1_prod_date.html#ada01db1490591722caea739e17aa6317" target="_top" xlink:title=" ">
<polygon fill="white" stroke="#666666" points="112,-79.5 0,-79.5 0,-49 112,-49 112,-79.5"/>
<text xml:space="preserve" text-anchor="start" x="8" y="-66" font-family="Helvetica,sans-Serif" font-size="10.00">proto::lacte::ProdDate</text>
<text xml:space="preserve" text-anchor="middle" x="56" y="-54.75" font-family="Helvetica,sans-Serif" font-size="10.00">::operator==</text>
</a>
</g>
</g>
<!-- Node1&#45;&gt;Node4 -->
<g id="edge3_Node000001_Node000004" class="edge">
<title>Node1&#45;&gt;Node4</title>
<g id="a_edge3_Node000001_Node000004"><a xlink:title=" ">
<path fill="none" stroke="#63b8ff" d="M136.47,-77.31C128.38,-75.98 120.18,-74.64 112.27,-73.34"/>
<polygon fill="#63b8ff" stroke="#63b8ff" points="135.87,-80.76 146.31,-78.93 137.01,-73.86 135.87,-80.76"/>
</a>
</g>
</g>
<!-- Node5 -->
<g id="Node000005" class="node">
<title>Node5</title>
<g id="a_Node000005"><a xlink:href="../../d6/deb/structproto_1_1lacte_1_1_prod_date.html#a1f086f2e3571aaea320eff53e4b13074" target="_top" xlink:title=" ">
<polygon fill="white" stroke="#666666" points="112,-30.5 0,-30.5 0,0 112,0 112,-30.5"/>
<text xml:space="preserve" text-anchor="start" x="8" y="-17" font-family="Helvetica,sans-Serif" font-size="10.00">proto::lacte::ProdDate</text>
<text xml:space="preserve" text-anchor="middle" x="56" y="-5.75" font-family="Helvetica,sans-Serif" font-size="10.00">::ProdDate</text>
</a>
</g>
</g>
<!-- Node1&#45;&gt;Node5 -->
<g id="edge4_Node000001_Node000005" class="edge">
<title>Node1&#45;&gt;Node5</title>
<g id="a_edge4_Node000001_Node000005"><a xlink:title=" ">
<path fill="none" stroke="#63b8ff" d="M164.41,-67.26C148.32,-58.67 129.36,-48.77 112,-40.25 105.69,-37.16 98.92,-33.97 92.35,-30.95"/>
<polygon fill="#63b8ff" stroke="#63b8ff" points="162.73,-70.32 173.2,-71.97 166.04,-64.16 162.73,-70.32"/>
</a>
</g>
</g>
</g>
</svg>
</svg>

<style type='text/css'>
<![CDATA[
[data-mouse-over-selected='false'] { opacity: 0.7; }
[data-mouse-over-selected='true']  { opacity: 1.0; }
]]>
</style>
<script type="application/ecmascript"><![CDATA[
document.addEventListener('DOMContentLoaded', (event) => {
  highlightEdges();
  highlightAdjacentNodes();
});
]]></script>
</svg>
