<?xml version="1.0" encoding="UTF-8" standalone="no"?>
<!DOCTYPE svg PUBLIC "-//W3C//DTD SVG 1.1//EN"
 "http://www.w3.org/Graphics/SVG/1.1/DTD/svg11.dtd">
<!-- Generated by graphviz version 14.0.1 (20251006.0113)
 -->
<!-- Title: Graphical Class Hierarchy Pages: 1 -->
<svg width="285pt" height="394pt"
 viewBox="0.00 0.00 285.00 394.00" xmlns="http://www.w3.org/2000/svg" xmlns:xlink="http://www.w3.org/1999/xlink">
<g id="graph0" class="graph" transform="scale(1 1) rotate(0) translate(4 389.5)">
<title>Graphical Class Hierarchy</title>
<!-- Node0 -->
<g id="Node000000" class="node">
<title>Node0</title>
<g id="a_Node000000"><a xlink:title=" ">
<polygon fill="#e0e0e0" stroke="#999999" points="80.5,-138.88 0,-138.88 0,-119.62 80.5,-119.62 80.5,-138.88"/>
<text xml:space="preserve" text-anchor="middle" x="40.25" y="-125.38" font-family="Helvetica,sans-Serif" font-size="10.00">std::false_type</text>
</a>
</g>
</g>
<!-- Node1 -->
<g id="Node000001" class="node">
<title>Node1</title>
<g id="a_Node000001"><a xlink:href="d8/d9e/structproto_1_1_field_prototype_1_1_is_std_vector_3_01std_1_1vector_3_01_u_00_01_a_01_4_01_4.html" target="_top" xlink:title=" ">
<polygon fill="white" stroke="#666666" points="277.25,-337 116.5,-337 116.5,-261.5 277.25,-261.5 277.25,-337"/>
<text xml:space="preserve" text-anchor="start" x="124.5" y="-323.5" font-family="Helvetica,sans-Serif" font-size="10.00">proto::FieldPrototype</text>
<text xml:space="preserve" text-anchor="start" x="124.5" y="-312.25" font-family="Helvetica,sans-Serif" font-size="10.00">&lt; NAME_, TYPE_, BASE</text>
<text xml:space="preserve" text-anchor="start" x="124.5" y="-301" font-family="Helvetica,sans-Serif" font-size="10.00">_, FLAGS_, MAX_SIZE, SIZE,</text>
<text xml:space="preserve" text-anchor="start" x="124.5" y="-289.75" font-family="Helvetica,sans-Serif" font-size="10.00"> CONST_VALUE_, MATCHER &gt;</text>
<text xml:space="preserve" text-anchor="start" x="124.5" y="-278.5" font-family="Helvetica,sans-Serif" font-size="10.00">::IsStdVector&lt; std::vector</text>
<text xml:space="preserve" text-anchor="middle" x="196.88" y="-267.25" font-family="Helvetica,sans-Serif" font-size="10.00">&lt; U, A &gt; &gt;</text>
</a>
</g>
</g>
<!-- Node0&#45;&gt;Node1 -->
<g id="edge22_Node000000_Node000001" class="edge">
<title>Node0&#45;&gt;Node1</title>
<g id="a_edge22_Node000000_Node000001"><a xlink:title=" ">
<path fill="none" stroke="#63b8ff" d="M49.87,-149.51C61.8,-175.72 85.44,-221.63 116.5,-252.25 119.69,-255.4 123.14,-258.42 126.74,-261.3"/>
<polygon fill="#63b8ff" stroke="#63b8ff" points="53.21,-148.41 45.97,-140.67 46.81,-151.23 53.21,-148.41"/>
</a>
</g>
</g>
<!-- Node3 -->
<g id="Node000003" class="node">
<title>Node3</title>
<g id="a_Node000003"><a xlink:href="d8/ddc/structproto_1_1_is_data_field_prototype_3_01_t_00_01std_1_1void__t_3_01decltype_07std_1_1remove_c88a60d3ab4bb4ac104f4d88281dba5c.html" target="_top" xlink:title=" ">
<polygon fill="white" stroke="#666666" points="274.62,-243.38 119.12,-243.38 119.12,-179.12 274.62,-179.12 274.62,-243.38"/>
<text xml:space="preserve" text-anchor="start" x="127.12" y="-229.88" font-family="Helvetica,sans-Serif" font-size="10.00">proto::IsDataFieldPrototype</text>
<text xml:space="preserve" text-anchor="start" x="127.12" y="-218.62" font-family="Helvetica,sans-Serif" font-size="10.00">&lt; T, std::void_t&lt; decltype</text>
<text xml:space="preserve" text-anchor="start" x="127.12" y="-207.38" font-family="Helvetica,sans-Serif" font-size="10.00">(std::remove_cv_t&lt; std::remove</text>
<text xml:space="preserve" text-anchor="start" x="127.12" y="-196.12" font-family="Helvetica,sans-Serif" font-size="10.00">_reference_t&lt; T &gt; &gt;::IS_DATA</text>
<text xml:space="preserve" text-anchor="middle" x="196.88" y="-184.88" font-family="Helvetica,sans-Serif" font-size="10.00">_FIELD)&gt; &gt;</text>
</a>
</g>
</g>
<!-- Node0&#45;&gt;Node3 -->
<g id="edge23_Node000000_Node000003" class="edge">
<title>Node0&#45;&gt;Node3</title>
<g id="a_edge23_Node000000_Node000003"><a xlink:title=" ">
<path fill="none" stroke="#63b8ff" d="M69.49,-144.83C83.58,-152.55 100.9,-161.97 116.5,-170.25 121.71,-173.01 127.12,-175.86 132.55,-178.7"/>
<polygon fill="#63b8ff" stroke="#63b8ff" points="71.21,-141.78 60.76,-140.03 67.84,-147.92 71.21,-141.78"/>
</a>
</g>
</g>
<!-- Node5 -->
<g id="Node000005" class="node">
<title>Node5</title>
<g id="a_Node000005"><a xlink:href="d8/dd1/structproto_1_1_field_prototype_1_1_is_std_vector.html" target="_top" xlink:title=" ">
<polygon fill="white" stroke="#666666" points="277.25,-161.38 116.5,-161.38 116.5,-97.12 277.25,-97.12 277.25,-161.38"/>
<text xml:space="preserve" text-anchor="start" x="124.5" y="-147.88" font-family="Helvetica,sans-Serif" font-size="10.00">proto::FieldPrototype</text>
<text xml:space="preserve" text-anchor="start" x="124.5" y="-136.62" font-family="Helvetica,sans-Serif" font-size="10.00">&lt; NAME_, TYPE_, BASE</text>
<text xml:space="preserve" text-anchor="start" x="124.5" y="-125.38" font-family="Helvetica,sans-Serif" font-size="10.00">_, FLAGS_, MAX_SIZE, SIZE,</text>
<text xml:space="preserve" text-anchor="start" x="124.5" y="-114.12" font-family="Helvetica,sans-Serif" font-size="10.00"> CONST_VALUE_, MATCHER &gt;</text>
<text xml:space="preserve" text-anchor="middle" x="196.88" y="-102.88" font-family="Helvetica,sans-Serif" font-size="10.00">::IsStdVector&lt; class &gt;</text>
</a>
</g>
</g>
<!-- Node0&#45;&gt;Node5 -->
<g id="edge24_Node000000_Node000005" class="edge">
<title>Node0&#45;&gt;Node5</title>
<g id="a_edge24_Node000000_Node000005"><a xlink:title=" ">
<path fill="none" stroke="#63b8ff" d="M92.08,-129.25C99.83,-129.25 107.98,-129.25 116.18,-129.25"/>
<polygon fill="#63b8ff" stroke="#63b8ff" points="92.18,-125.75 82.18,-129.25 92.18,-132.75 92.18,-125.75"/>
</a>
</g>
</g>
<!-- Node6 -->
<g id="Node000006" class="node">
<title>Node6</title>
<g id="a_Node000006"><a xlink:href="df/d6d/structproto_1_1_is_data_field_prototype.html" target="_top" xlink:title="Trait to detect DataFieldPrototype types.">
<polygon fill="white" stroke="#666666" points="264.88,-79.5 128.88,-79.5 128.88,-49 264.88,-49 264.88,-79.5"/>
<text xml:space="preserve" text-anchor="start" x="136.88" y="-66" font-family="Helvetica,sans-Serif" font-size="10.00">proto::IsDataFieldPrototype</text>
<text xml:space="preserve" text-anchor="middle" x="196.88" y="-54.75" font-family="Helvetica,sans-Serif" font-size="10.00">&lt; T, typename &gt;</text>
</a>
</g>
</g>
<!-- Node0&#45;&gt;Node6 -->
<g id="edge25_Node000000_Node000006" class="edge">
<title>Node0&#45;&gt;Node6</title>
<g id="a_edge25_Node000000_Node000006"><a xlink:title=" ">
<path fill="none" stroke="#63b8ff" d="M66.81,-113.61C81.08,-105.33 99.38,-95.41 116.5,-88.25 123.67,-85.25 131.35,-82.45 139,-79.89"/>
<polygon fill="#63b8ff" stroke="#63b8ff" points="65.34,-110.42 58.52,-118.53 68.9,-116.44 65.34,-110.42"/>
</a>
</g>
</g>
<!-- Node7 -->
<g id="Node000007" class="node">
<title>Node7</title>
<g id="a_Node000007"><a xlink:href="d7/da9/structproto_1_1meta_1_1tl__contains_3_01_type_list_3_4_00_01_t_01_4.html" target="_top" xlink:title=" ">
<polygon fill="white" stroke="#666666" points="256.25,-30.5 137.5,-30.5 137.5,0 256.25,0 256.25,-30.5"/>
<text xml:space="preserve" text-anchor="start" x="145.5" y="-17" font-family="Helvetica,sans-Serif" font-size="10.00">proto::meta::tl_contains</text>
<text xml:space="preserve" text-anchor="middle" x="196.88" y="-5.75" font-family="Helvetica,sans-Serif" font-size="10.00">&lt; TypeList&lt;&gt;, T &gt;</text>
</a>
</g>
</g>
<!-- Node0&#45;&gt;Node7 -->
<g id="edge26_Node000000_Node000007" class="edge">
<title>Node0&#45;&gt;Node7</title>
<g id="a_edge26_Node000000_Node000007"><a xlink:title=" ">
<path fill="none" stroke="#63b8ff" d="M53.02,-109.69C66.11,-89.51 89.08,-58.49 116.5,-40.25 122.88,-36.01 130.01,-32.45 137.32,-29.48"/>
<polygon fill="#63b8ff" stroke="#63b8ff" points="50.09,-107.76 47.75,-118.1 56.02,-111.48 50.09,-107.76"/>
</a>
</g>
</g>
<!-- Node2 -->
<g id="Node000002" class="node">
<title>Node2</title>
<g id="a_Node000002"><a xlink:title=" ">
<polygon fill="#e0e0e0" stroke="#999999" points="78.25,-308.88 2.25,-308.88 2.25,-289.62 78.25,-289.62 78.25,-308.88"/>
<text xml:space="preserve" text-anchor="middle" x="40.25" y="-295.38" font-family="Helvetica,sans-Serif" font-size="10.00">std::true_type</text>
</a>
</g>
</g>
<!-- Node2&#45;&gt;Node1 -->
<g id="edge27_Node000002_Node000001" class="edge">
<title>Node2&#45;&gt;Node1</title>
<g id="a_edge27_Node000002_Node000001"><a xlink:title=" ">
<path fill="none" stroke="#63b8ff" d="M90.12,-299.25C98.49,-299.25 107.37,-299.25 116.3,-299.25"/>
<polygon fill="#63b8ff" stroke="#63b8ff" points="90.19,-295.75 80.19,-299.25 90.19,-302.75 90.19,-295.75"/>
</a>
</g>
</g>
<!-- Node2&#45;&gt;Node3 -->
<g id="edge28_Node000002_Node000003" class="edge">
<title>Node2&#45;&gt;Node3</title>
<g id="a_edge28_Node000002_Node000003"><a xlink:title=" ">
<path fill="none" stroke="#63b8ff" d="M65.9,-283.15C80.44,-273.82 99.32,-262.03 116.5,-252.25 121.49,-249.41 126.69,-246.54 131.94,-243.69"/>
<polygon fill="#63b8ff" stroke="#63b8ff" points="64.37,-279.97 57.86,-288.33 68.16,-285.85 64.37,-279.97"/>
</a>
</g>
</g>
<!-- Node4 -->
<g id="Node000004" class="node">
<title>Node4</title>
<g id="a_Node000004"><a xlink:href="da/d47/structproto_1_1meta_1_1tl__contains_3_01_type_list_3_01_t_00_01_ts_8_8_8_01_4_00_01_t_01_4.html" target="_top" xlink:title=" ">
<polygon fill="white" stroke="#666666" points="261.88,-385.5 131.88,-385.5 131.88,-355 261.88,-355 261.88,-385.5"/>
<text xml:space="preserve" text-anchor="start" x="139.88" y="-372" font-family="Helvetica,sans-Serif" font-size="10.00">proto::meta::tl_contains</text>
<text xml:space="preserve" text-anchor="middle" x="196.88" y="-360.75" font-family="Helvetica,sans-Serif" font-size="10.00">&lt; TypeList&lt; T, Ts... &gt;, T &gt;</text>
</a>
</g>
</g>
<!-- Node2&#45;&gt;Node4 -->
<g id="edge29_Node000002_Node000004" class="edge">
<title>Node2&#45;&gt;Node4</title>
<g id="a_edge29_Node000002_Node000004"><a xlink:title=" ">
<path fill="none" stroke="#63b8ff" d="M63.94,-315.64C78.43,-325.53 97.92,-337.82 116.5,-346.25 123.19,-349.28 130.36,-352.06 137.56,-354.56"/>
<polygon fill="#63b8ff" stroke="#63b8ff" points="66.22,-312.96 56.02,-310.11 62.21,-318.7 66.22,-312.96"/>
</a>
</g>
</g>
</g>
</svg>
