<?xml version="1.0" encoding="UTF-8" standalone="no"?>
<!DOCTYPE svg PUBLIC "-//W3C//DTD SVG 1.1//EN"
 "http://www.w3.org/Graphics/SVG/1.1/DTD/svg11.dtd">
<!-- Generated by graphviz version 14.0.1 (20251006.0113)
 -->
<!-- Title: Graphical Class Hierarchy Pages: 1 -->
<svg width="288pt" height="664pt"
 viewBox="0.00 0.00 288.00 664.00" xmlns="http://www.w3.org/2000/svg" xmlns:xlink="http://www.w3.org/1999/xlink">
<g id="graph0" class="graph" transform="scale(1 1) rotate(0) translate(4 659.5)">
<title>Graphical Class Hierarchy</title>
<!-- Node0 -->
<g id="Node000000" class="node">
<title>Node0</title>
<g id="a_Node000000"><a xlink:title=" ">
<polygon fill="#e0e0e0" stroke="#999999" points="79,-331.88 0,-331.88 0,-312.62 79,-312.62 79,-331.88"/>
<text xml:space="preserve" text-anchor="middle" x="39.5" y="-318.38" font-family="Helvetica,sans-Serif" font-size="10.00">FieldContainer</text>
</a>
</g>
</g>
<!-- Node1 -->
<g id="Node000001" class="node">
<title>Node1</title>
<g id="a_Node000001"><a xlink:href="df/dd6/classproto_1_1_rx_container.html" target="_top" xlink:title=" ">
<polygon fill="white" stroke="#666666" points="246.5,-655.5 148,-655.5 148,-625 246.5,-625 246.5,-655.5"/>
<text xml:space="preserve" text-anchor="start" x="156" y="-642" font-family="Helvetica,sans-Serif" font-size="10.00">proto::RxContainer</text>
<text xml:space="preserve" text-anchor="middle" x="197.25" y="-630.75" font-family="Helvetica,sans-Serif" font-size="10.00">&lt; RxFields, Crc &gt;</text>
</a>
</g>
</g>
<!-- Node0&#45;&gt;Node1 -->
<g id="edge1_Node000000_Node000001" class="edge">
<title>Node0&#45;&gt;Node1</title>
<g id="a_edge1_Node000000_Node000001"><a xlink:title=" ">
<path fill="none" stroke="#63b8ff" d="M43.13,-343.41C51.08,-404 76.67,-576.39 115,-616.25 123.67,-625.26 135.53,-630.93 147.52,-634.49"/>
<polygon fill="#63b8ff" stroke="#63b8ff" points="46.64,-343.24 41.9,-333.76 39.7,-344.13 46.64,-343.24"/>
</a>
</g>
</g>
<!-- Node2 -->
<g id="Node000002" class="node">
<title>Node2</title>
<g id="a_Node000002"><a xlink:href="df/dd6/classproto_1_1_rx_container.html" target="_top" xlink:title=" ">
<polygon fill="white" stroke="#666666" points="259.25,-606.75 135.25,-606.75 135.25,-553.75 259.25,-553.75 259.25,-606.75"/>
<text xml:space="preserve" text-anchor="start" x="143.25" y="-593.25" font-family="Helvetica,sans-Serif" font-size="10.00">proto::RxContainer</text>
<text xml:space="preserve" text-anchor="start" x="143.25" y="-582" font-family="Helvetica,sans-Serif" font-size="10.00">&lt; exoAtlantPacket&lt; RX</text>
<text xml:space="preserve" text-anchor="start" x="143.25" y="-570.75" font-family="Helvetica,sans-Serif" font-size="10.00">_BASE &gt;::packet_fields,</text>
<text xml:space="preserve" text-anchor="middle" x="197.25" y="-559.5" font-family="Helvetica,sans-Serif" font-size="10.00"> custom_crc &gt;</text>
</a>
</g>
</g>
<!-- Node0&#45;&gt;Node2 -->
<g id="edge2_Node000000_Node000002" class="edge">
<title>Node0&#45;&gt;Node2</title>
<g id="a_edge2_Node000000_Node000002"><a xlink:title=" ">
<path fill="none" stroke="#63b8ff" d="M41.93,-343.44C45.93,-386.74 60.82,-486.29 115,-545.25 120.61,-551.36 127.47,-556.44 134.8,-560.67"/>
<polygon fill="#63b8ff" stroke="#63b8ff" points="45.43,-343.32 41.14,-333.64 38.45,-343.88 45.43,-343.32"/>
</a>
</g>
</g>
<!-- Node3 -->
<g id="Node000003" class="node">
<title>Node3</title>
<g id="a_Node000003"><a xlink:href="df/dd6/classproto_1_1_rx_container.html" target="_top" xlink:title=" ">
<polygon fill="white" stroke="#666666" points="279.5,-536.12 115,-536.12 115,-494.38 279.5,-494.38 279.5,-536.12"/>
<text xml:space="preserve" text-anchor="start" x="123" y="-522.62" font-family="Helvetica,sans-Serif" font-size="10.00">proto::RxContainer</text>
<text xml:space="preserve" text-anchor="start" x="123" y="-511.38" font-family="Helvetica,sans-Serif" font-size="10.00">&lt; HostPacket&lt; RX_BASE</text>
<text xml:space="preserve" text-anchor="middle" x="197.25" y="-500.12" font-family="Helvetica,sans-Serif" font-size="10.00"> &gt;::packet_fields, Crc16Modbus &gt;</text>
</a>
</g>
</g>
<!-- Node0&#45;&gt;Node3 -->
<g id="edge3_Node000000_Node000003" class="edge">
<title>Node0&#45;&gt;Node3</title>
<g id="a_edge3_Node000000_Node000003"><a xlink:title=" ">
<path fill="none" stroke="#63b8ff" d="M44.63,-343.24C52.44,-377.58 72.54,-445.86 115,-485.25 118.53,-488.52 122.44,-491.45 126.59,-494.06"/>
<polygon fill="#63b8ff" stroke="#63b8ff" points="48.11,-342.78 42.61,-333.72 41.26,-344.23 48.11,-342.78"/>
</a>
</g>
</g>
<!-- Node4 -->
<g id="Node000004" class="node">
<title>Node4</title>
<g id="a_Node000004"><a xlink:href="df/dd6/classproto_1_1_rx_container.html" target="_top" xlink:title=" ">
<polygon fill="white" stroke="#666666" points="279.5,-476.12 115,-476.12 115,-434.38 279.5,-434.38 279.5,-476.12"/>
<text xml:space="preserve" text-anchor="start" x="123" y="-462.62" font-family="Helvetica,sans-Serif" font-size="10.00">proto::RxContainer</text>
<text xml:space="preserve" text-anchor="start" x="123" y="-451.38" font-family="Helvetica,sans-Serif" font-size="10.00">&lt; BoardPacket&lt; RX_BASE</text>
<text xml:space="preserve" text-anchor="middle" x="197.25" y="-440.12" font-family="Helvetica,sans-Serif" font-size="10.00"> &gt;::packet_fields, Crc16Modbus &gt;</text>
</a>
</g>
</g>
<!-- Node0&#45;&gt;Node4 -->
<g id="edge4_Node000000_Node000004" class="edge">
<title>Node0&#45;&gt;Node4</title>
<g id="a_edge4_Node000000_Node000004"><a xlink:title=" ">
<path fill="none" stroke="#63b8ff" d="M50.29,-342.27C62.49,-365.29 85.39,-402.78 115,-425.25 119.19,-428.43 123.76,-431.3 128.51,-433.89"/>
<polygon fill="#63b8ff" stroke="#63b8ff" points="53.53,-340.92 45.87,-333.61 47.3,-344.11 53.53,-340.92"/>
</a>
</g>
</g>
<!-- Node5 -->
<g id="Node000005" class="node">
<title>Node5</title>
<g id="a_Node000005"><a xlink:href="df/dd6/classproto_1_1_rx_container.html" target="_top" xlink:title=" ">
<polygon fill="white" stroke="#666666" points="253.62,-416.5 140.88,-416.5 140.88,-386 253.62,-386 253.62,-416.5"/>
<text xml:space="preserve" text-anchor="start" x="148.88" y="-403" font-family="Helvetica,sans-Serif" font-size="10.00">proto::RxContainer</text>
<text xml:space="preserve" text-anchor="middle" x="197.25" y="-391.75" font-family="Helvetica,sans-Serif" font-size="10.00">&lt; RxFields, CrcSoft &gt;</text>
</a>
</g>
</g>
<!-- Node0&#45;&gt;Node5 -->
<g id="edge5_Node000000_Node000005" class="edge">
<title>Node0&#45;&gt;Node5</title>
<g id="a_edge5_Node000000_Node000005"><a xlink:title=" ">
<path fill="none" stroke="#63b8ff" d="M60.37,-339.45C74.74,-351.17 95.07,-366.3 115,-376.25 123.06,-380.27 131.89,-383.79 140.66,-386.83"/>
<polygon fill="#63b8ff" stroke="#63b8ff" points="62.93,-337.03 53.01,-333.3 58.44,-342.4 62.93,-337.03"/>
</a>
</g>
</g>
<!-- Node6 -->
<g id="Node000006" class="node">
<title>Node6</title>
<g id="a_Node000006"><a xlink:href="da/dd6/classproto_1_1_tx_container.html" target="_top" xlink:title=" ">
<polygon fill="white" stroke="#666666" points="245.75,-367.5 148.75,-367.5 148.75,-337 245.75,-337 245.75,-367.5"/>
<text xml:space="preserve" text-anchor="start" x="156.75" y="-354" font-family="Helvetica,sans-Serif" font-size="10.00">proto::TxContainer</text>
<text xml:space="preserve" text-anchor="middle" x="197.25" y="-342.75" font-family="Helvetica,sans-Serif" font-size="10.00">&lt; TxFields, Crc &gt;</text>
</a>
</g>
</g>
<!-- Node0&#45;&gt;Node6 -->
<g id="edge6_Node000000_Node000006" class="edge">
<title>Node0&#45;&gt;Node6</title>
<g id="a_edge6_Node000000_Node000006"><a xlink:title=" ">
<path fill="none" stroke="#63b8ff" d="M90.58,-331.9C109.11,-335.47 130.06,-339.5 148.39,-343.03"/>
<polygon fill="#63b8ff" stroke="#63b8ff" points="91.37,-328.48 80.89,-330.03 90.04,-335.36 91.37,-328.48"/>
</a>
</g>
</g>
<!-- Node7 -->
<g id="Node000007" class="node">
<title>Node7</title>
<g id="a_Node000007"><a xlink:href="da/dd6/classproto_1_1_tx_container.html" target="_top" xlink:title=" ">
<polygon fill="white" stroke="#666666" points="259.25,-318.75 135.25,-318.75 135.25,-265.75 259.25,-265.75 259.25,-318.75"/>
<text xml:space="preserve" text-anchor="start" x="143.25" y="-305.25" font-family="Helvetica,sans-Serif" font-size="10.00">proto::TxContainer</text>
<text xml:space="preserve" text-anchor="start" x="143.25" y="-294" font-family="Helvetica,sans-Serif" font-size="10.00">&lt; exoAtlantPacket&lt; TX</text>
<text xml:space="preserve" text-anchor="start" x="143.25" y="-282.75" font-family="Helvetica,sans-Serif" font-size="10.00">_BASE &gt;::packet_fields,</text>
<text xml:space="preserve" text-anchor="middle" x="197.25" y="-271.5" font-family="Helvetica,sans-Serif" font-size="10.00"> custom_crc &gt;</text>
</a>
</g>
</g>
<!-- Node0&#45;&gt;Node7 -->
<g id="edge7_Node000000_Node000007" class="edge">
<title>Node0&#45;&gt;Node7</title>
<g id="a_edge7_Node000000_Node000007"><a xlink:title=" ">
<path fill="none" stroke="#63b8ff" d="M90.4,-312.64C104.54,-309.91 120.1,-306.92 134.84,-304.08"/>
<polygon fill="#63b8ff" stroke="#63b8ff" points="90.04,-309.14 80.89,-314.47 91.37,-316.02 90.04,-309.14"/>
</a>
</g>
</g>
<!-- Node8 -->
<g id="Node000008" class="node">
<title>Node8</title>
<g id="a_Node000008"><a xlink:href="da/dd6/classproto_1_1_tx_container.html" target="_top" xlink:title=" ">
<polygon fill="white" stroke="#666666" points="279.5,-248.12 115,-248.12 115,-206.38 279.5,-206.38 279.5,-248.12"/>
<text xml:space="preserve" text-anchor="start" x="123" y="-234.62" font-family="Helvetica,sans-Serif" font-size="10.00">proto::TxContainer</text>
<text xml:space="preserve" text-anchor="start" x="123" y="-223.38" font-family="Helvetica,sans-Serif" font-size="10.00">&lt; BoardPacket&lt; TX_BASE</text>
<text xml:space="preserve" text-anchor="middle" x="197.25" y="-212.12" font-family="Helvetica,sans-Serif" font-size="10.00"> &gt;::packet_fields, Crc16Modbus &gt;</text>
</a>
</g>
</g>
<!-- Node0&#45;&gt;Node8 -->
<g id="edge8_Node000000_Node000008" class="edge">
<title>Node0&#45;&gt;Node8</title>
<g id="a_edge8_Node000000_Node000008"><a xlink:title=" ">
<path fill="none" stroke="#63b8ff" d="M57.6,-304.05C71.84,-289.76 93.24,-270.16 115,-257.25 120.3,-254.1 125.99,-251.2 131.8,-248.53"/>
<polygon fill="#63b8ff" stroke="#63b8ff" points="55.23,-301.47 50.77,-311.08 60.25,-306.35 55.23,-301.47"/>
</a>
</g>
</g>
<!-- Node9 -->
<g id="Node000009" class="node">
<title>Node9</title>
<g id="a_Node000009"><a xlink:href="da/dd6/classproto_1_1_tx_container.html" target="_top" xlink:title=" ">
<polygon fill="white" stroke="#666666" points="279.5,-188.12 115,-188.12 115,-146.38 279.5,-146.38 279.5,-188.12"/>
<text xml:space="preserve" text-anchor="start" x="123" y="-174.62" font-family="Helvetica,sans-Serif" font-size="10.00">proto::TxContainer</text>
<text xml:space="preserve" text-anchor="start" x="123" y="-163.38" font-family="Helvetica,sans-Serif" font-size="10.00">&lt; HostPacket&lt; TX_BASE</text>
<text xml:space="preserve" text-anchor="middle" x="197.25" y="-152.12" font-family="Helvetica,sans-Serif" font-size="10.00"> &gt;::packet_fields, Crc16Modbus &gt;</text>
</a>
</g>
</g>
<!-- Node0&#45;&gt;Node9 -->
<g id="edge9_Node000000_Node000009" class="edge">
<title>Node0&#45;&gt;Node9</title>
<g id="a_edge9_Node000000_Node000009"><a xlink:title=" ">
<path fill="none" stroke="#63b8ff" d="M47.77,-301.57C58.43,-274.07 80.81,-225.67 115,-197.25 118.93,-193.98 123.25,-191.05 127.79,-188.43"/>
<polygon fill="#63b8ff" stroke="#63b8ff" points="44.52,-300.25 44.33,-310.85 51.09,-302.68 44.52,-300.25"/>
</a>
</g>
</g>
<!-- Node10 -->
<g id="Node000010" class="node">
<title>Node10</title>
<g id="a_Node000010"><a xlink:href="da/dd6/classproto_1_1_tx_container.html" target="_top" xlink:title=" ">
<polygon fill="white" stroke="#666666" points="252.88,-128.5 141.62,-128.5 141.62,-98 252.88,-98 252.88,-128.5"/>
<text xml:space="preserve" text-anchor="start" x="149.62" y="-115" font-family="Helvetica,sans-Serif" font-size="10.00">proto::TxContainer</text>
<text xml:space="preserve" text-anchor="middle" x="197.25" y="-103.75" font-family="Helvetica,sans-Serif" font-size="10.00">&lt; TxFields, CrcSoft &gt;</text>
</a>
</g>
</g>
<!-- Node0&#45;&gt;Node10 -->
<g id="edge10_Node000000_Node000010" class="edge">
<title>Node0&#45;&gt;Node10</title>
<g id="a_edge10_Node000000_Node000010"><a xlink:title=" ">
<path fill="none" stroke="#63b8ff" d="M42.97,-301.35C48.61,-263.13 65.96,-181.81 115,-137.25 122.4,-130.52 131.6,-125.68 141.13,-122.19"/>
<polygon fill="#63b8ff" stroke="#63b8ff" points="39.53,-300.67 41.68,-311.04 46.47,-301.59 39.53,-300.67"/>
</a>
</g>
</g>
<!-- Node11 -->
<g id="Node000011" class="node">
<title>Node11</title>
<g id="a_Node000011"><a xlink:href="df/dd6/classproto_1_1_rx_container.html" target="_top" xlink:title="Incremental parser for protocol frames based on field prototypes.">
<polygon fill="white" stroke="#666666" points="246.5,-79.5 148,-79.5 148,-49 246.5,-49 246.5,-79.5"/>
<text xml:space="preserve" text-anchor="start" x="156" y="-66" font-family="Helvetica,sans-Serif" font-size="10.00">proto::RxContainer</text>
<text xml:space="preserve" text-anchor="middle" x="197.25" y="-54.75" font-family="Helvetica,sans-Serif" font-size="10.00">&lt; Fields, TCrc &gt;</text>
</a>
</g>
</g>
<!-- Node0&#45;&gt;Node11 -->
<g id="edge11_Node000000_Node000011" class="edge">
<title>Node0&#45;&gt;Node11</title>
<g id="a_edge11_Node000000_Node000011"><a xlink:title=" ">
<path fill="none" stroke="#63b8ff" d="M41.04,-300.85C43.35,-255.35 55.24,-148.36 115,-89.25 123.92,-80.43 135.87,-74.71 147.86,-71"/>
<polygon fill="#63b8ff" stroke="#63b8ff" points="37.54,-300.55 40.66,-310.67 44.54,-300.82 37.54,-300.55"/>
</a>
</g>
</g>
<!-- Node12 -->
<g id="Node000012" class="node">
<title>Node12</title>
<g id="a_Node000012"><a xlink:href="da/dd6/classproto_1_1_tx_container.html" target="_top" xlink:title=" ">
<polygon fill="white" stroke="#666666" points="245.75,-30.5 148.75,-30.5 148.75,0 245.75,0 245.75,-30.5"/>
<text xml:space="preserve" text-anchor="start" x="156.75" y="-17" font-family="Helvetica,sans-Serif" font-size="10.00">proto::TxContainer</text>
<text xml:space="preserve" text-anchor="middle" x="197.25" y="-5.75" font-family="Helvetica,sans-Serif" font-size="10.00">&lt; Fields, TCrc &gt;</text>
</a>
</g>
</g>
<!-- Node0&#45;&gt;Node12 -->
<g id="edge12_Node000000_Node000012" class="edge">
<title>Node0&#45;&gt;Node12</title>
<g id="a_edge12_Node000000_Node000012"><a xlink:title=" ">
<path fill="none" stroke="#63b8ff" d="M39.6,-300.74C38.65,-248.63 43.69,-114.48 115,-40.25 123.89,-30.99 136.13,-25.14 148.4,-21.44"/>
<polygon fill="#63b8ff" stroke="#63b8ff" points="36.1,-300.72 39.89,-310.62 43.1,-300.52 36.1,-300.72"/>
</a>
</g>
</g>
</g>
</svg>
