<?xml version="1.0" encoding="UTF-8" standalone="no"?>
<!DOCTYPE svg PUBLIC "-//W3C//DTD SVG 1.1//EN"
 "http://www.w3.org/Graphics/SVG/1.1/DTD/svg11.dtd">
<!-- Generated by graphviz version 2.43.0 (0)
 -->
<!-- Title: RfidNumberType.hpp Pages: 1 -->
<svg width="195pt" height="247pt"
 viewBox="0.00 0.00 194.50 247.00" xmlns="http://www.w3.org/2000/svg" xmlns:xlink="http://www.w3.org/1999/xlink">

<svg id="main" version="1.1" xmlns="http://www.w3.org/2000/svg" xmlns:xlink="http://www.w3.org/1999/xlink" xml:space="preserve" onload="init(evt)">
<style type="text/css"><![CDATA[
.node, .edge {opacity: 0.7;}
.node.selected, .edge.selected {opacity: 1;}
.edge:hover path { stroke: red; }
.edge:hover polygon { stroke: red; fill: red; }
]]></style>
<script type="application/ecmascript" xlink:href="../../svg.min.js"/>
<svg id="graph" class="graph">
<g id="graph0" class="graph" transform="scale(1 1) rotate(0) translate(4 243)">
<title>RfidNumberType.hpp</title>
<!-- Node1 -->
<g id="Node000001" class="node">
<title>Node1</title>
<g id="a_Node000001"><a xlink:title=" ">
<polygon fill="#999999" stroke="#666666" points="186.5,-239 68.5,-239 68.5,-220 186.5,-220 186.5,-239"/>
<text text-anchor="middle" x="127.5" y="-227" font-family="Helvetica,sans-Serif" font-size="10.00">RfidNumberType.hpp</text>
</a>
</g>
</g>
<!-- Node2 -->
<g id="Node000002" class="node">
<title>Node2</title>
<g id="a_Node000002"><a xlink:href="../../d8/daa/InfoPacketType_8hpp.html" target="_top" xlink:title=" ">
<polygon fill="white" stroke="#666666" points="141.5,-184 31.5,-184 31.5,-165 141.5,-165 141.5,-184"/>
<text text-anchor="middle" x="86.5" y="-172" font-family="Helvetica,sans-Serif" font-size="10.00">InfoPacketType.hpp</text>
</a>
</g>
</g>
<!-- Node1&#45;&gt;Node2 -->
<g id="edge1_Node000001_Node000002" class="edge">
<title>Node1&#45;&gt;Node2</title>
<g id="a_edge1_Node000001_Node000002"><a xlink:title=" ">
<path fill="none" stroke="#63b8ff" d="M114.48,-211.67C107.38,-202.5 98.9,-191.52 93.14,-184.09"/>
<polygon fill="#63b8ff" stroke="#63b8ff" points="111.84,-213.98 120.73,-219.75 117.38,-209.7 111.84,-213.98"/>
</a>
</g>
</g>
<!-- Node5 -->
<g id="Node000005" class="node">
<title>Node5</title>
<g id="a_Node000005"><a xlink:href="../../dc/d80/VirtualBoard_8hpp.html" target="_top" xlink:title=" ">
<polygon fill="white" stroke="#666666" points="176.5,-19 78.5,-19 78.5,0 176.5,0 176.5,-19"/>
<text text-anchor="middle" x="127.5" y="-7" font-family="Helvetica,sans-Serif" font-size="10.00">VirtualBoard.hpp</text>
</a>
</g>
</g>
<!-- Node1&#45;&gt;Node5 -->
<g id="edge5_Node000001_Node000005" class="edge">
<title>Node1&#45;&gt;Node5</title>
<g id="a_edge5_Node000001_Node000005"><a xlink:title=" ">
<path fill="none" stroke="#63b8ff" d="M138.03,-211.25C142.5,-203.22 147.39,-193.39 150.5,-184 160.91,-152.55 162.76,-142.97 159.5,-110 157.04,-85.19 156.32,-78.67 148.5,-55 144.21,-42.02 137.08,-27.88 132.34,-19.1"/>
<polygon fill="#63b8ff" stroke="#63b8ff" points="134.95,-209.59 132.93,-219.99 140.99,-213.12 134.95,-209.59"/>
</a>
</g>
</g>
<!-- Node3 -->
<g id="Node000003" class="node">
<title>Node3</title>
<g id="a_Node000003"><a xlink:href="../../dd/d58/LacteProtocolPrototype_8hpp.html" target="_top" xlink:title=" ">
<polygon fill="white" stroke="#666666" points="151,-129 0,-129 0,-110 151,-110 151,-129"/>
<text text-anchor="middle" x="75.5" y="-117" font-family="Helvetica,sans-Serif" font-size="10.00">LacteProtocolPrototype.hpp</text>
</a>
</g>
</g>
<!-- Node2&#45;&gt;Node3 -->
<g id="edge2_Node000002_Node000003" class="edge">
<title>Node2&#45;&gt;Node3</title>
<g id="a_edge2_Node000002_Node000003"><a xlink:title=" ">
<path fill="none" stroke="#63b8ff" d="M82.65,-154.95C80.82,-146.15 78.73,-136.06 77.28,-129.09"/>
<polygon fill="#63b8ff" stroke="#63b8ff" points="79.22,-155.67 84.68,-164.75 86.08,-154.25 79.22,-155.67"/>
</a>
</g>
</g>
<!-- Node4 -->
<g id="Node000004" class="node">
<title>Node4</title>
<g id="a_Node000004"><a xlink:href="../../d9/ddb/LacteProtocol_8hpp.html" target="_top" xlink:title=" ">
<polygon fill="white" stroke="#666666" points="139.5,-74 35.5,-74 35.5,-55 139.5,-55 139.5,-74"/>
<text text-anchor="middle" x="87.5" y="-62" font-family="Helvetica,sans-Serif" font-size="10.00">LacteProtocol.hpp</text>
</a>
</g>
</g>
<!-- Node3&#45;&gt;Node4 -->
<g id="edge3_Node000003_Node000004" class="edge">
<title>Node3&#45;&gt;Node4</title>
<g id="a_edge3_Node000003_Node000004"><a xlink:title=" ">
<path fill="none" stroke="#63b8ff" d="M79.7,-99.95C81.69,-91.15 83.98,-81.06 85.56,-74.09"/>
<polygon fill="#63b8ff" stroke="#63b8ff" points="76.28,-99.22 77.48,-109.75 83.1,-100.77 76.28,-99.22"/>
</a>
</g>
</g>
<!-- Node4&#45;&gt;Node5 -->
<g id="edge4_Node000004_Node000005" class="edge">
<title>Node4&#45;&gt;Node5</title>
<g id="a_edge4_Node000004_Node000005"><a xlink:title=" ">
<path fill="none" stroke="#63b8ff" d="M100.2,-46.67C107.13,-37.5 115.41,-26.52 121.02,-19.09"/>
<polygon fill="#63b8ff" stroke="#63b8ff" points="97.34,-44.66 94.11,-54.75 102.92,-48.87 97.34,-44.66"/>
</a>
</g>
</g>
</g>
</svg>
</svg>

<style type='text/css'>
<![CDATA[
[data-mouse-over-selected='false'] { opacity: 0.7; }
[data-mouse-over-selected='true']  { opacity: 1.0; }
]]>
</style>
<script type="application/ecmascript"><![CDATA[
document.addEventListener('DOMContentLoaded', (event) => {
  highlightEdges();
  highlightAdjacentNodes();
});
]]></script>
</svg>
