<?xml version="1.0" encoding="UTF-8" standalone="no"?>
<!DOCTYPE svg PUBLIC "-//W3C//DTD SVG 1.1//EN"
 "http://www.w3.org/Graphics/SVG/1.1/DTD/svg11.dtd">
<!-- Generated by graphviz version 14.0.1 (20251006.0113)
 -->
<!-- Title: proto::get_field_info_by_name Pages: 1 -->
<svg width="266pt" height="62pt"
 viewBox="0.00 0.00 266.00 62.00" xmlns="http://www.w3.org/2000/svg" xmlns:xlink="http://www.w3.org/1999/xlink">
<g id="graph0" class="graph" transform="scale(1 1) rotate(0) translate(4 58.12)">
<title>proto::get_field_info_by_name</title>
<!-- Node1 -->
<g id="Node000001" class="node">
<title>Node1</title>
<g id="a_Node000001"><a xlink:title="Retrieve a FieldInfo&#45;like element from a tuple by its FieldName.">
<polygon fill="#999999" stroke="#666666" points="257.75,-36.12 156.25,-36.12 156.25,-5.62 257.75,-5.62 257.75,-36.12"/>
<text xml:space="preserve" text-anchor="start" x="164.25" y="-22.62" font-family="Helvetica,sans-Serif" font-size="10.00">proto::get_field_info</text>
<text xml:space="preserve" text-anchor="middle" x="207" y="-11.38" font-family="Helvetica,sans-Serif" font-size="10.00">_by_name</text>
</a>
</g>
</g>
<!-- Node1&#45;&gt;Node1 -->
<g id="edge1_Node000001_Node000001" class="edge">
<title>Node1&#45;&gt;Node1</title>
<g id="a_edge1_Node000001_Node000001"><a xlink:title=" ">
<path fill="none" stroke="#63b8ff" d="M231.63,-47.83C227.6,-51.6 219.39,-54.12 207,-54.12 184.34,-54.12 175.66,-45.68 180.97,-36.61"/>
<polygon fill="#63b8ff" stroke="#63b8ff" points="235.08,-48.47 232.84,-38.11 228.13,-47.6 235.08,-48.47"/>
</a>
</g>
</g>
<!-- Node2 -->
<g id="Node000002" class="node">
<title>Node2</title>
<g id="a_Node000002"><a xlink:href="../../da/dd6/classproto_1_1_tx_container.html#a4636ad0f62ff172c7a74231bc9757985" target="_top" xlink:title=" ">
<polygon fill="white" stroke="#666666" points="120.25,-41.75 0,-41.75 0,0 120.25,0 120.25,-41.75"/>
<text xml:space="preserve" text-anchor="start" x="8" y="-28.25" font-family="Helvetica,sans-Serif" font-size="10.00">proto::TxContainer</text>
<text xml:space="preserve" text-anchor="start" x="8" y="-17" font-family="Helvetica,sans-Serif" font-size="10.00">&lt; TxFields, Crc &gt;::send</text>
<text xml:space="preserve" text-anchor="middle" x="60.12" y="-5.75" font-family="Helvetica,sans-Serif" font-size="10.00">_packet</text>
</a>
</g>
</g>
<!-- Node1&#45;&gt;Node2 -->
<g id="edge2_Node000001_Node000002" class="edge">
<title>Node1&#45;&gt;Node2</title>
<g id="a_edge2_Node000001_Node000002"><a xlink:title=" ">
<path fill="none" stroke="#63b8ff" d="M144.64,-20.88C136.66,-20.88 128.51,-20.88 120.57,-20.88"/>
<polygon fill="#63b8ff" stroke="#63b8ff" points="144.63,-24.38 154.63,-20.88 144.63,-17.38 144.63,-24.38"/>
</a>
</g>
</g>
</g>
</svg>
