<?xml version="1.0" encoding="UTF-8" standalone="no"?>
<!DOCTYPE svg PUBLIC "-//W3C//DTD SVG 1.1//EN"
 "http://www.w3.org/Graphics/SVG/1.1/DTD/svg11.dtd">
<!-- Generated by graphviz version 14.0.1 (20251006.0113)
 -->
<!-- Title: proto::make_field_info Pages: 1 -->
<svg width="515pt" height="312pt"
 viewBox="0.00 0.00 515.00 312.00" xmlns="http://www.w3.org/2000/svg" xmlns:xlink="http://www.w3.org/1999/xlink">
<g id="graph0" class="graph" transform="scale(1 1) rotate(0) translate(4 307.5)">
<title>proto::make_field_info</title>
<!-- Node1 -->
<g id="Node000001" class="node">
<title>Node1</title>
<g id="a_Node000001"><a xlink:title="Helper to create a FieldInfo with type/size deduction.">
<polygon fill="#999999" stroke="#666666" points="507,-153.88 395,-153.88 395,-134.62 507,-134.62 507,-153.88"/>
<text xml:space="preserve" text-anchor="middle" x="451" y="-140.38" font-family="Helvetica,sans-Serif" font-size="10.00">proto::make_field_info</text>
</a>
</g>
</g>
<!-- Node2 -->
<g id="Node000002" class="node">
<title>Node2</title>
<g id="a_Node000002"><a xlink:href="../../dd/db1/classproto_1_1lacte_1_1_lacte_board_protocol.html#a1e22ab3e46127991c7b048041c7b7067" target="_top" xlink:title=" ">
<polygon fill="white" stroke="#666666" points="333.5,-273.5 213.25,-273.5 213.25,-243 333.5,-243 333.5,-273.5"/>
<text xml:space="preserve" text-anchor="start" x="221.25" y="-260" font-family="Helvetica,sans-Serif" font-size="10.00">proto::lacte::LacteBoard</text>
<text xml:space="preserve" text-anchor="middle" x="273.38" y="-248.75" font-family="Helvetica,sans-Serif" font-size="10.00">Protocol::answer</text>
</a>
</g>
</g>
<!-- Node1&#45;&gt;Node2 -->
<g id="edge1_Node000001_Node000002" class="edge">
<title>Node1&#45;&gt;Node2</title>
<g id="a_edge1_Node000001_Node000002"><a xlink:title=" ">
<path fill="none" stroke="#63b8ff" d="M435.6,-163C419.16,-183.16 390.45,-214.79 359,-233.25 351.21,-237.83 342.51,-241.62 333.74,-244.75"/>
<polygon fill="#63b8ff" stroke="#63b8ff" points="438.22,-165.32 441.7,-155.31 432.74,-160.97 438.22,-165.32"/>
</a>
</g>
</g>
<!-- Node3 -->
<g id="Node000003" class="node">
<title>Node3</title>
<g id="a_Node000003"><a xlink:href="../../dd/db1/classproto_1_1lacte_1_1_lacte_board_protocol.html#adb308fed1049363915a9e6ba22fce84a" target="_top" xlink:title=" ">
<polygon fill="white" stroke="#666666" points="333.5,-224.5 213.25,-224.5 213.25,-194 333.5,-194 333.5,-224.5"/>
<text xml:space="preserve" text-anchor="start" x="221.25" y="-211" font-family="Helvetica,sans-Serif" font-size="10.00">proto::lacte::LacteBoard</text>
<text xml:space="preserve" text-anchor="middle" x="273.38" y="-199.75" font-family="Helvetica,sans-Serif" font-size="10.00">Protocol::answer</text>
</a>
</g>
</g>
<!-- Node1&#45;&gt;Node3 -->
<g id="edge2_Node000001_Node000003" class="edge">
<title>Node1&#45;&gt;Node3</title>
<g id="a_edge2_Node000001_Node000003"><a xlink:title=" ">
<path fill="none" stroke="#63b8ff" d="M419.93,-159.14C402.42,-167.47 379.76,-177.68 359,-185.25 350.97,-188.18 342.4,-190.98 333.91,-193.56"/>
<polygon fill="#63b8ff" stroke="#63b8ff" points="421.26,-162.39 428.75,-154.89 418.22,-156.08 421.26,-162.39"/>
</a>
</g>
</g>
<!-- Node4 -->
<g id="Node000004" class="node">
<title>Node4</title>
<g id="a_Node000004"><a xlink:href="../../d6/dd3/classproto_1_1lacte_1_1_lacte_host_protocol.html#a3222d318f611eae10e718af657624701" target="_top" xlink:title=" ">
<polygon fill="white" stroke="#666666" points="359,-175.88 187.75,-175.88 187.75,-156.62 359,-156.62 359,-175.88"/>
<text xml:space="preserve" text-anchor="middle" x="273.38" y="-162.38" font-family="Helvetica,sans-Serif" font-size="10.00">proto::lacte::LacteHostProtocol::get</text>
</a>
</g>
</g>
<!-- Node1&#45;&gt;Node4 -->
<g id="edge3_Node000001_Node000004" class="edge">
<title>Node1&#45;&gt;Node4</title>
<g id="a_edge3_Node000001_Node000004"><a xlink:title=" ">
<path fill="none" stroke="#63b8ff" d="M383.69,-152.56C374.32,-153.73 364.6,-154.95 354.99,-156.15"/>
<polygon fill="#63b8ff" stroke="#63b8ff" points="383.92,-156.05 393.41,-151.34 383.05,-149.11 383.92,-156.05"/>
</a>
</g>
</g>
<!-- Node11 -->
<g id="Node000011" class="node">
<title>Node11</title>
<g id="a_Node000011"><a xlink:href="../../d6/dd3/classproto_1_1lacte_1_1_lacte_host_protocol.html#a81682b4f39af583935ed81ff1e20e4ff" target="_top" xlink:title=" ">
<polygon fill="white" stroke="#666666" points="349.25,-138.5 197.5,-138.5 197.5,-108 349.25,-108 349.25,-138.5"/>
<text xml:space="preserve" text-anchor="start" x="205.5" y="-125" font-family="Helvetica,sans-Serif" font-size="10.00">proto::lacte::LacteHostProtocol</text>
<text xml:space="preserve" text-anchor="middle" x="273.38" y="-113.75" font-family="Helvetica,sans-Serif" font-size="10.00">::get_param</text>
</a>
</g>
</g>
<!-- Node1&#45;&gt;Node11 -->
<g id="edge10_Node000001_Node000011" class="edge">
<title>Node1&#45;&gt;Node11</title>
<g id="a_edge10_Node000001_Node000011"><a xlink:title=" ">
<path fill="none" stroke="#63b8ff" d="M383.55,-136.3C372.44,-134.98 360.85,-133.59 349.54,-132.24"/>
<polygon fill="#63b8ff" stroke="#63b8ff" points="383.07,-139.77 393.41,-137.48 383.9,-132.82 383.07,-139.77"/>
</a>
</g>
</g>
<!-- Node12 -->
<g id="Node000012" class="node">
<title>Node12</title>
<g id="a_Node000012"><a xlink:href="../../da/dd6/classproto_1_1_tx_container.html#a4636ad0f62ff172c7a74231bc9757985" target="_top" xlink:title=" ">
<polygon fill="white" stroke="#666666" points="333.5,-90.12 213.25,-90.12 213.25,-48.38 333.5,-48.38 333.5,-90.12"/>
<text xml:space="preserve" text-anchor="start" x="221.25" y="-76.62" font-family="Helvetica,sans-Serif" font-size="10.00">proto::TxContainer</text>
<text xml:space="preserve" text-anchor="start" x="221.25" y="-65.38" font-family="Helvetica,sans-Serif" font-size="10.00">&lt; TxFields, Crc &gt;::send</text>
<text xml:space="preserve" text-anchor="middle" x="273.38" y="-54.12" font-family="Helvetica,sans-Serif" font-size="10.00">_packet</text>
</a>
</g>
</g>
<!-- Node1&#45;&gt;Node12 -->
<g id="edge11_Node000001_Node000012" class="edge">
<title>Node1&#45;&gt;Node12</title>
<g id="a_edge11_Node000001_Node000012"><a xlink:title=" ">
<path fill="none" stroke="#63b8ff" d="M421.75,-129.2C403.98,-120 380.44,-108.31 359,-99.25 350.96,-95.85 342.39,-92.5 333.9,-89.35"/>
<polygon fill="#63b8ff" stroke="#63b8ff" points="419.65,-132.05 430.14,-133.58 422.9,-125.85 419.65,-132.05"/>
</a>
</g>
</g>
<!-- Node13 -->
<g id="Node000013" class="node">
<title>Node13</title>
<g id="a_Node000013"><a xlink:href="../../d3/d9e/classproto_1_1exo_atlant_1_1_exo_atlant_protocol__.html#ac9dd8408999d03d57dadb02ff647d93a" target="_top" xlink:title="Сериализация исходящего блока данных">
<polygon fill="white" stroke="#666666" points="340.25,-30.5 206.5,-30.5 206.5,0 340.25,0 340.25,-30.5"/>
<text xml:space="preserve" text-anchor="start" x="214.5" y="-17" font-family="Helvetica,sans-Serif" font-size="10.00">proto::exoAtlant::ExoAtlant</text>
<text xml:space="preserve" text-anchor="middle" x="273.38" y="-5.75" font-family="Helvetica,sans-Serif" font-size="10.00">Protocol_::serialize</text>
</a>
</g>
</g>
<!-- Node1&#45;&gt;Node13 -->
<g id="edge12_Node000001_Node000013" class="edge">
<title>Node1&#45;&gt;Node13</title>
<g id="a_edge12_Node000001_Node000013"><a xlink:title=" ">
<path fill="none" stroke="#63b8ff" d="M438.03,-124.46C422.66,-100.73 393.77,-61.37 359,-39.25 353.33,-35.64 347.11,-32.57 340.7,-29.95"/>
<polygon fill="#63b8ff" stroke="#63b8ff" points="435.03,-126.26 443.31,-132.87 440.96,-122.54 435.03,-126.26"/>
</a>
</g>
</g>
<!-- Node5 -->
<g id="Node000005" class="node">
<title>Node5</title>
<g id="a_Node000005"><a xlink:href="../../d6/dd3/classproto_1_1lacte_1_1_lacte_host_protocol.html#af956203f98e365e127142084fbcc2e0e" target="_top" xlink:title=" ">
<polygon fill="white" stroke="#666666" points="151.75,-303.5 0,-303.5 0,-273 151.75,-273 151.75,-303.5"/>
<text xml:space="preserve" text-anchor="start" x="8" y="-290" font-family="Helvetica,sans-Serif" font-size="10.00">proto::lacte::LacteHostProtocol</text>
<text xml:space="preserve" text-anchor="middle" x="75.88" y="-278.75" font-family="Helvetica,sans-Serif" font-size="10.00">::get_info</text>
</a>
</g>
</g>
<!-- Node4&#45;&gt;Node5 -->
<g id="edge4_Node000004_Node000005" class="edge">
<title>Node4&#45;&gt;Node5</title>
<g id="a_edge4_Node000004_Node000005"><a xlink:title=" ">
<path fill="none" stroke="#63b8ff" d="M192.52,-181.77C190.87,-182.85 189.28,-184.01 187.75,-185.25 158.05,-209.25 180.19,-237.78 151.75,-263.25 147.67,-266.91 143.03,-270.03 138.12,-272.7"/>
<polygon fill="#63b8ff" stroke="#63b8ff" points="194.07,-184.91 201.15,-177.02 190.7,-178.78 194.07,-184.91"/>
</a>
</g>
</g>
<!-- Node6 -->
<g id="Node000006" class="node">
<title>Node6</title>
<g id="a_Node000006"><a xlink:href="../../d6/dd3/classproto_1_1lacte_1_1_lacte_host_protocol.html#a8c12ff5726f58db9831b13382a0e2456" target="_top" xlink:title=" ">
<polygon fill="white" stroke="#666666" points="151.75,-254.5 0,-254.5 0,-224 151.75,-224 151.75,-254.5"/>
<text xml:space="preserve" text-anchor="start" x="8" y="-241" font-family="Helvetica,sans-Serif" font-size="10.00">proto::lacte::LacteHostProtocol</text>
<text xml:space="preserve" text-anchor="middle" x="75.88" y="-229.75" font-family="Helvetica,sans-Serif" font-size="10.00">::get_rfid</text>
</a>
</g>
</g>
<!-- Node4&#45;&gt;Node6 -->
<g id="edge5_Node000004_Node000006" class="edge">
<title>Node4&#45;&gt;Node6</title>
<g id="a_edge5_Node000004_Node000006"><a xlink:title=" ">
<path fill="none" stroke="#63b8ff" d="M200.89,-179.79C196.36,-181.41 191.95,-183.23 187.75,-185.25 169.25,-194.18 169.78,-204.4 151.75,-214.25 145.38,-217.73 138.43,-220.85 131.43,-223.59"/>
<polygon fill="#63b8ff" stroke="#63b8ff" points="201.7,-183.21 210.14,-176.81 199.55,-176.54 201.7,-183.21"/>
</a>
</g>
</g>
<!-- Node7 -->
<g id="Node000007" class="node">
<title>Node7</title>
<g id="a_Node000007"><a xlink:href="../../d6/dd3/classproto_1_1lacte_1_1_lacte_host_protocol.html#a4a03daefcb8a0ca173c5c1006d55c83f" target="_top" xlink:title=" ">
<polygon fill="white" stroke="#666666" points="151.75,-205.5 0,-205.5 0,-175 151.75,-175 151.75,-205.5"/>
<text xml:space="preserve" text-anchor="start" x="8" y="-192" font-family="Helvetica,sans-Serif" font-size="10.00">proto::lacte::LacteHostProtocol</text>
<text xml:space="preserve" text-anchor="middle" x="75.88" y="-180.75" font-family="Helvetica,sans-Serif" font-size="10.00">::get_rfid_data</text>
</a>
</g>
</g>
<!-- Node4&#45;&gt;Node7 -->
<g id="edge6_Node000004_Node000007" class="edge">
<title>Node4&#45;&gt;Node7</title>
<g id="a_edge6_Node000004_Node000007"><a xlink:title=" ">
<path fill="none" stroke="#63b8ff" d="M178.72,-177.75C169.75,-178.85 160.73,-179.96 151.97,-181.03"/>
<polygon fill="#63b8ff" stroke="#63b8ff" points="179.03,-181.24 188.53,-176.54 178.18,-174.29 179.03,-181.24"/>
</a>
</g>
</g>
<!-- Node8 -->
<g id="Node000008" class="node">
<title>Node8</title>
<g id="a_Node000008"><a xlink:href="../../d6/dd3/classproto_1_1lacte_1_1_lacte_host_protocol.html#a5138dda64478785bb9a49d03ecf55805" target="_top" xlink:title=" ">
<polygon fill="white" stroke="#666666" points="151.75,-156.5 0,-156.5 0,-126 151.75,-126 151.75,-156.5"/>
<text xml:space="preserve" text-anchor="start" x="8" y="-143" font-family="Helvetica,sans-Serif" font-size="10.00">proto::lacte::LacteHostProtocol</text>
<text xml:space="preserve" text-anchor="middle" x="75.88" y="-131.75" font-family="Helvetica,sans-Serif" font-size="10.00">::get_uid</text>
</a>
</g>
</g>
<!-- Node4&#45;&gt;Node8 -->
<g id="edge7_Node000004_Node000008" class="edge">
<title>Node4&#45;&gt;Node8</title>
<g id="a_edge7_Node000004_Node000008"><a xlink:title=" ">
<path fill="none" stroke="#63b8ff" d="M182.12,-154.71C172.04,-153.42 161.86,-152.12 152,-150.86"/>
<polygon fill="#63b8ff" stroke="#63b8ff" points="181.56,-158.16 191.92,-155.96 182.44,-151.22 181.56,-158.16"/>
</a>
</g>
</g>
<!-- Node9 -->
<g id="Node000009" class="node">
<title>Node9</title>
<g id="a_Node000009"><a xlink:href="../../d6/dd3/classproto_1_1lacte_1_1_lacte_host_protocol.html#aebf52854ab0837d9e79a47412a1fb476" target="_top" xlink:title=" ">
<polygon fill="white" stroke="#666666" points="151.75,-107.5 0,-107.5 0,-77 151.75,-77 151.75,-107.5"/>
<text xml:space="preserve" text-anchor="start" x="8" y="-94" font-family="Helvetica,sans-Serif" font-size="10.00">proto::lacte::LacteHostProtocol</text>
<text xml:space="preserve" text-anchor="middle" x="75.88" y="-82.75" font-family="Helvetica,sans-Serif" font-size="10.00">::get_version</text>
</a>
</g>
</g>
<!-- Node4&#45;&gt;Node9 -->
<g id="edge8_Node000004_Node000009" class="edge">
<title>Node4&#45;&gt;Node9</title>
<g id="a_edge8_Node000004_Node000009"><a xlink:title=" ">
<path fill="none" stroke="#63b8ff" d="M200.23,-152.56C195.93,-150.98 191.74,-149.22 187.75,-147.25 169.07,-138.04 169.94,-127.39 151.75,-117.25 145.53,-113.78 138.74,-110.69 131.88,-107.96"/>
<polygon fill="#63b8ff" stroke="#63b8ff" points="199.05,-155.86 209.64,-155.67 201.24,-149.21 199.05,-155.86"/>
</a>
</g>
</g>
<!-- Node10 -->
<g id="Node000010" class="node">
<title>Node10</title>
<g id="a_Node000010"><a xlink:href="../../d6/dd3/classproto_1_1lacte_1_1_lacte_host_protocol.html#a60104e61b4a82a461c6c25a9c7c6703c" target="_top" xlink:title=" ">
<polygon fill="white" stroke="#666666" points="151.75,-58.5 0,-58.5 0,-28 151.75,-28 151.75,-58.5"/>
<text xml:space="preserve" text-anchor="start" x="8" y="-45" font-family="Helvetica,sans-Serif" font-size="10.00">proto::lacte::LacteHostProtocol</text>
<text xml:space="preserve" text-anchor="middle" x="75.88" y="-33.75" font-family="Helvetica,sans-Serif" font-size="10.00">::restart</text>
</a>
</g>
</g>
<!-- Node4&#45;&gt;Node10 -->
<g id="edge9_Node000004_Node000010" class="edge">
<title>Node4&#45;&gt;Node10</title>
<g id="a_edge9_Node000004_Node000010"><a xlink:title=" ">
<path fill="none" stroke="#63b8ff" d="M192.51,-150.74C190.87,-149.65 189.28,-148.49 187.75,-147.25 157.8,-122.93 180.43,-94.06 151.75,-68.25 147.78,-64.67 143.28,-61.61 138.5,-58.98"/>
<polygon fill="#63b8ff" stroke="#63b8ff" points="190.68,-153.73 201.13,-155.5 194.06,-147.6 190.68,-153.73"/>
</a>
</g>
</g>
</g>
</svg>
