<?xml version="1.0" encoding="UTF-8" standalone="no"?>
<!DOCTYPE svg PUBLIC "-//W3C//DTD SVG 1.1//EN"
 "http://www.w3.org/Graphics/SVG/1.1/DTD/svg11.dtd">
<!-- Generated by graphviz version 14.0.1 (20251006.0113)
 -->
<!-- Title: proto::has_flag Pages: 1 -->
<svg width="270pt" height="196pt"
 viewBox="0.00 0.00 270.00 196.00" xmlns="http://www.w3.org/2000/svg" xmlns:xlink="http://www.w3.org/1999/xlink">

<svg id="main" version="1.1" xmlns="http://www.w3.org/2000/svg" xmlns:xlink="http://www.w3.org/1999/xlink" xml:space="preserve">

<style type="text/css"><![CDATA[
.node, .edge {opacity: 0.7;}
.node.selected, .edge.selected {opacity: 1;}
.edge:hover path { stroke: red; }
.edge:hover polygon { stroke: red; fill: red; }
]]></style>
<script type="application/ecmascript" xlink:href="../../svg.min.js"/>
<svg id="graph" class="graph">
<g id="graph0" class="graph" transform="scale(1 1) rotate(0) translate(4 192.12)">
<title>proto::has_flag</title>
<!-- Node1 -->
<g id="Node000001" class="node">
<title>Node1</title>
<g id="a_Node000001"><a xlink:title="Generic flag check helper.">
<polygon fill="#999999" stroke="#666666" points="262.25,-103.5 181.75,-103.5 181.75,-84.25 262.25,-84.25 262.25,-103.5"/>
<text xml:space="preserve" text-anchor="middle" x="222" y="-90" font-family="Helvetica,sans-Serif" font-size="10.00">proto::has_flag</text>
</a>
</g>
</g>
<!-- Node2 -->
<g id="Node000002" class="node">
<title>Node2</title>
<g id="a_Node000002"><a xlink:href="../../df/dd6/classproto_1_1_rx_container.html#a32164b9bb4d7aafb36c279431ae3ba83" target="_top" xlink:title=" ">
<polygon fill="white" stroke="#666666" points="145.75,-188.12 0,-188.12 0,-157.62 145.75,-157.62 145.75,-188.12"/>
<text xml:space="preserve" text-anchor="start" x="8" y="-174.62" font-family="Helvetica,sans-Serif" font-size="10.00">proto::RxContainer</text>
<text xml:space="preserve" text-anchor="middle" x="72.88" y="-163.38" font-family="Helvetica,sans-Serif" font-size="10.00">&lt; RxFields, Crc &gt;::check_crc</text>
</a>
</g>
</g>
<!-- Node1&#45;&gt;Node2 -->
<g id="edge1_Node000001_Node000002" class="edge">
<title>Node1&#45;&gt;Node2</title>
<g id="a_edge1_Node000001_Node000002"><a xlink:title=" ">
<path fill="none" stroke="#63b8ff" d="M201.39,-110.84C186.82,-122.76 166.04,-138.4 145.75,-148.88 139.91,-151.89 133.6,-154.65 127.24,-157.13"/>
<polygon fill="#63b8ff" stroke="#63b8ff" points="203.42,-113.7 208.84,-104.6 198.92,-108.34 203.42,-113.7"/>
</a>
</g>
</g>
<!-- Node3 -->
<g id="Node000003" class="node">
<title>Node3</title>
<g id="a_Node000003"><a xlink:href="../../df/dd6/classproto_1_1_rx_container.html#a13af162783447e92a0e44e240a775deb" target="_top" xlink:title=" ">
<polygon fill="white" stroke="#666666" points="128.12,-139.75 17.62,-139.75 17.62,-98 128.12,-98 128.12,-139.75"/>
<text xml:space="preserve" text-anchor="start" x="25.62" y="-126.25" font-family="Helvetica,sans-Serif" font-size="10.00">proto::RxContainer</text>
<text xml:space="preserve" text-anchor="start" x="25.62" y="-115" font-family="Helvetica,sans-Serif" font-size="10.00">&lt; RxFields, Crc &gt;::fill</text>
<text xml:space="preserve" text-anchor="middle" x="72.88" y="-103.75" font-family="Helvetica,sans-Serif" font-size="10.00">_fields</text>
</a>
</g>
</g>
<!-- Node1&#45;&gt;Node3 -->
<g id="edge2_Node000001_Node000003" class="edge">
<title>Node1&#45;&gt;Node3</title>
<g id="a_edge2_Node000001_Node000003"><a xlink:title=" ">
<path fill="none" stroke="#63b8ff" d="M170.54,-102.45C157.03,-104.75 142.35,-107.24 128.62,-109.57"/>
<polygon fill="#63b8ff" stroke="#63b8ff" points="170.81,-105.95 180.08,-100.83 169.64,-99.05 170.81,-105.95"/>
</a>
</g>
</g>
<!-- Node4 -->
<g id="Node000004" class="node">
<title>Node4</title>
<g id="a_Node000004"><a xlink:href="../../d6/dca/namespaceproto.html#a4f5b6064ae32d6b4790b30776d45d08b" target="_top" xlink:title="Stream output for FieldFlags.">
<polygon fill="white" stroke="#666666" points="118.38,-79.5 27.38,-79.5 27.38,-60.25 118.38,-60.25 118.38,-79.5"/>
<text xml:space="preserve" text-anchor="middle" x="72.88" y="-66" font-family="Helvetica,sans-Serif" font-size="10.00">proto::operator&lt;&lt;</text>
</a>
</g>
</g>
<!-- Node1&#45;&gt;Node4 -->
<g id="edge3_Node000001_Node000004" class="edge">
<title>Node1&#45;&gt;Node4</title>
<g id="a_edge3_Node000001_Node000004"><a xlink:title=" ">
<path fill="none" stroke="#63b8ff" d="M170.33,-85.61C153.61,-82.88 135.14,-79.87 118.87,-77.22"/>
<polygon fill="#63b8ff" stroke="#63b8ff" points="169.65,-89.04 180.08,-87.2 170.77,-82.14 169.65,-89.04"/>
</a>
</g>
</g>
<!-- Node5 -->
<g id="Node000005" class="node">
<title>Node5</title>
<g id="a_Node000005"><a xlink:href="../../df/dd6/classproto_1_1_rx_container.html#a1d6da44ba10df67547d25eb435059666" target="_top" xlink:title=" ">
<polygon fill="white" stroke="#666666" points="130,-41.75 15.75,-41.75 15.75,0 130,0 130,-41.75"/>
<text xml:space="preserve" text-anchor="start" x="23.75" y="-28.25" font-family="Helvetica,sans-Serif" font-size="10.00">proto::RxContainer</text>
<text xml:space="preserve" text-anchor="start" x="23.75" y="-17" font-family="Helvetica,sans-Serif" font-size="10.00">&lt; RxFields, Crc &gt;::set</text>
<text xml:space="preserve" text-anchor="middle" x="72.88" y="-5.75" font-family="Helvetica,sans-Serif" font-size="10.00">_data_len</text>
</a>
</g>
</g>
<!-- Node1&#45;&gt;Node5 -->
<g id="edge4_Node000001_Node000005" class="edge">
<title>Node1&#45;&gt;Node5</title>
<g id="a_edge4_Node000001_Node000005"><a xlink:title=" ">
<path fill="none" stroke="#63b8ff" d="M195.22,-78.09C180.88,-69.58 162.59,-59.16 145.75,-50.88 139.68,-47.89 133.25,-44.93 126.81,-42.09"/>
<polygon fill="#63b8ff" stroke="#63b8ff" points="193.2,-80.96 203.58,-83.11 196.8,-74.96 193.2,-80.96"/>
</a>
</g>
</g>
</g>
</svg>
</svg>

<style type='text/css'>
<![CDATA[
[data-mouse-over-selected='false'] { opacity: 0.7; }
[data-mouse-over-selected='true']  { opacity: 1.0; }
]]>
</style>
<script type="application/ecmascript"><![CDATA[
document.addEventListener('DOMContentLoaded', (event) => {
  highlightEdges();
  highlightAdjacentNodes();
});
]]></script>
</svg>
