<?xml version="1.0" encoding="UTF-8" standalone="no"?>
<!DOCTYPE svg PUBLIC "-//W3C//DTD SVG 1.1//EN"
 "http://www.w3.org/Graphics/SVG/1.1/DTD/svg11.dtd">
<!-- Generated by graphviz version 14.0.1 (20251006.0113)
 -->
<!-- Title: proto::lacte::VirtualBoard&lt; RX_BASE, TX_BASE &gt; Pages: 1 -->
<!--zoomable 631 -->

<svg id="main" version="1.1" xmlns="http://www.w3.org/2000/svg" xmlns:xlink="http://www.w3.org/1999/xlink" xml:space="preserve" onload="init(evt)">

<style type="text/css"><![CDATA[
.node, .edge {opacity: 0.7;}
.node.selected, .edge.selected {opacity: 1;}
.edge:hover path { stroke: red; }
.edge:hover polygon { stroke: red; fill: red; }
]]></style>

<defs>
  <circle id="rim" cx="0" cy="0" r="7"/>
  <circle id="rim2" cx="0" cy="0" r="3.5"/>
  <g id="zoomPlus">
    <use xlink:href="#rim" fill="#404040"><set attributeName="fill" to="#808080" begin="zoomplus.mouseover" end="zoomplus.mouseout"/></use>
    <path d="M-4,0h8M0,-4v8" fill="none" stroke="white" stroke-width="1.5" pointer-events="none"/>
  </g>
  <g id="zoomMin">
    <use xlink:href="#rim" fill="#404040"><set attributeName="fill" to="#808080" begin="zoomminus.mouseover" end="zoomminus.mouseout"/></use>
    <path d="M-4,0h8" fill="none" stroke="white" stroke-width="1.5" pointer-events="none"/>
  </g>
  <g id="arrowUp" transform="translate(30 24)">
    <use xlink:href="#rim"/>
    <path pointer-events="none" fill="none" stroke="white" stroke-width="1.5" d="M0,-3.0v7 M-2.5,-0.5L0,-3.0L2.5,-0.5"/>
  </g>
  <g id="arrowRight" transform="rotate(90) translate(36 -43)">
    <use xlink:href="#rim"/>
    <path pointer-events="none" fill="none" stroke="white" stroke-width="1.5" d="M0,-3.0v7 M-2.5,-0.5L0,-3.0L2.5,-0.5"/>
  </g>
  <g id="arrowDown" transform="rotate(180) translate(-30 -48)">
    <use xlink:href="#rim"/>
    <path pointer-events="none" fill="none" stroke="white" stroke-width="1.5" d="M0,-3.0v7 M-2.5,-0.5L0,-3.0L2.5,-0.5"/>
  </g>
  <g id="arrowLeft" transform="rotate(270) translate(-36 17)">
    <use xlink:href="#rim"/>
    <path pointer-events="none" fill="none" stroke="white" stroke-width="1.5" d="M0,-3.0v7 M-2.5,-0.5L0,-3.0L2.5,-0.5"/>
  </g>
  <g id="resetDef">
    <use xlink:href="#rim2" fill="#404040"><set attributeName="fill" to="#808080" begin="reset.mouseover" end="reset.mouseout"/></use>
  </g>
</defs>
<script type="application/ecmascript">
var viewWidth = 689;
var viewHeight = 631;
var sectionId = 'dynsection-0';
</script>
<script type="application/ecmascript" xlink:href="../../svg.min.js"/>
<svg id="graph" class="graph">
<g id="viewport">
<title>proto::lacte::VirtualBoard&lt; RX_BASE, TX_BASE &gt;</title>
<!-- Node1 -->
<g id="Node000001" class="node">
<title>Node1</title>
<g id="a_Node000001"><a xlink:title=" ">
<polygon fill="#999999" stroke="#666666" points="681,-546.33 549.5,-546.33 549.5,-515.83 681,-515.83 681,-546.33"/>
<text xml:space="preserve" text-anchor="start" x="557.5" y="-532.83" font-family="Helvetica,sans-Serif" font-size="10.00">proto::lacte::VirtualBoard</text>
<text xml:space="preserve" text-anchor="middle" x="615.25" y="-521.58" font-family="Helvetica,sans-Serif" font-size="10.00">&lt; RX_BASE, TX_BASE &gt;</text>
</a>
</g>
</g>
<!-- Node2 -->
<g id="Node000002" class="node">
<title>Node2</title>
<g id="a_Node000002"><a xlink:href="../../d7/de4/structproto_1_1lacte_1_1_version_packet_type.html" target="_top" xlink:title=" ">
<polygon fill="white" stroke="#666666" points="432.5,-622.7 277,-622.7 277,-603.45 432.5,-603.45 432.5,-622.7"/>
<text xml:space="preserve" text-anchor="middle" x="354.75" y="-609.2" font-family="Helvetica,sans-Serif" font-size="10.00">proto::lacte::VersionPacketType</text>
</a>
</g>
</g>
<!-- Node2&#45;&gt;Node1 -->
<g id="edge1_Node000001_Node000002" class="edge">
<title>Node2&#45;&gt;Node1</title>
<g id="a_edge1_Node000001_Node000002"><a xlink:title=" ">
<path fill="none" stroke="#9a32cd" stroke-dasharray="5,2" d="M444.14,-601.92C472.59,-596.77 503.88,-589.42 531.5,-579.08 553.27,-570.92 575.98,-557.33 592.09,-546.69"/>
<polygon fill="#9a32cd" stroke="#9a32cd" points="443.72,-598.44 434.46,-603.6 444.91,-605.34 443.72,-598.44"/>
</a>
</g>
<text xml:space="preserve" text-anchor="start" x="459.5" y="-603.48" font-family="Helvetica,sans-Serif" font-size="10.00" fill="grey">m_version_data</text>
</g>
<!-- Node3 -->
<g id="Node000003" class="node">
<title>Node3</title>
<g id="a_Node000003"><a xlink:href="../../de/dff/structproto_1_1lacte_1_1_info_packet_type.html" target="_top" xlink:title=" ">
<polygon fill="white" stroke="#666666" points="424.25,-585.7 285.25,-585.7 285.25,-566.45 424.25,-566.45 424.25,-585.7"/>
<text xml:space="preserve" text-anchor="middle" x="354.75" y="-572.2" font-family="Helvetica,sans-Serif" font-size="10.00">proto::lacte::InfoPacketType</text>
</a>
</g>
</g>
<!-- Node3&#45;&gt;Node1 -->
<g id="edge2_Node000001_Node000003" class="edge">
<title>Node3&#45;&gt;Node1</title>
<g id="a_edge2_Node000001_Node000003"><a xlink:title=" ">
<path fill="none" stroke="#9a32cd" stroke-dasharray="5,2" d="M424.9,-564.04C463.48,-557.32 511.25,-549.01 549.16,-542.41"/>
<polygon fill="#9a32cd" stroke="#9a32cd" points="424.51,-560.56 415.25,-565.72 425.71,-567.45 424.51,-560.56"/>
</a>
</g>
<text xml:space="preserve" text-anchor="start" x="467.38" y="-562.36" font-family="Helvetica,sans-Serif" font-size="10.00" fill="grey">m_info_data</text>
</g>
<!-- Node4 -->
<g id="Node000004" class="node">
<title>Node4</title>
<g id="a_Node000004"><a xlink:href="../../d9/d72/classproto_1_1lacte_1_1_error_flags.html" target="_top" xlink:title=" ">
<polygon fill="white" stroke="#666666" points="133,-613.7 17.25,-613.7 17.25,-594.45 133,-594.45 133,-613.7"/>
<text xml:space="preserve" text-anchor="middle" x="75.12" y="-600.2" font-family="Helvetica,sans-Serif" font-size="10.00">proto::lacte::ErrorFlags</text>
</a>
</g>
</g>
<!-- Node4&#45;&gt;Node3 -->
<g id="edge3_Node000003_Node000004" class="edge">
<title>Node4&#45;&gt;Node3</title>
<g id="a_edge3_Node000003_Node000004"><a xlink:title=" ">
<path fill="none" stroke="#9a32cd" stroke-dasharray="5,2" d="M144.73,-597.16C187.41,-592.85 242.11,-587.34 284.85,-583.03"/>
<polygon fill="#9a32cd" stroke="#9a32cd" points="144.42,-593.67 134.82,-598.16 145.12,-600.64 144.42,-593.67"/>
</a>
</g>
<text xml:space="preserve" text-anchor="start" x="191.5" y="-598.97" font-family="Helvetica,sans-Serif" font-size="10.00" fill="grey">m_errors</text>
</g>
<!-- Node5 -->
<g id="Node000005" class="node">
<title>Node5</title>
<g id="a_Node000005"><a xlink:href="../../df/d1b/structproto_1_1lacte_1_1_r_f_i_d_number_type.html" target="_top" xlink:title=" ">
<polygon fill="white" stroke="#666666" points="150.25,-556.7 0,-556.7 0,-537.45 150.25,-537.45 150.25,-556.7"/>
<text xml:space="preserve" text-anchor="middle" x="75.12" y="-543.2" font-family="Helvetica,sans-Serif" font-size="10.00">proto::lacte::RFIDNumberType</text>
</a>
</g>
</g>
<!-- Node5&#45;&gt;Node1 -->
<g id="edge7_Node000001_Node000005" class="edge">
<title>Node5&#45;&gt;Node1</title>
<g id="a_edge7_Node000001_Node000005"><a xlink:title=" ">
<path fill="none" stroke="#9a32cd" stroke-dasharray="5,2" d="M161.91,-543.67C195.88,-542.38 235.28,-540.95 271,-539.83 367.82,-536.79 480.03,-534.08 549.08,-532.51"/>
<polygon fill="#9a32cd" stroke="#9a32cd" points="161.98,-540.16 152.12,-544.04 162.25,-547.16 161.98,-540.16"/>
</a>
</g>
<text xml:space="preserve" text-anchor="start" x="341.25" y="-544.58" font-family="Helvetica,sans-Serif" font-size="10.00" fill="grey">m_rfid</text>
</g>
<!-- Node5&#45;&gt;Node3 -->
<g id="edge4_Node000003_Node000005" class="edge">
<title>Node5&#45;&gt;Node3</title>
<g id="a_edge4_Node000003_Node000005"><a xlink:title=" ">
<path fill="none" stroke="#9a32cd" stroke-dasharray="5,2" d="M161.75,-556.02C201.3,-560.15 247.63,-564.99 284.87,-568.88"/>
<polygon fill="#9a32cd" stroke="#9a32cd" points="162.34,-552.56 152.03,-555.01 161.61,-559.53 162.34,-552.56"/>
</a>
</g>
<text xml:space="preserve" text-anchor="start" x="197.12" y="-569.78" font-family="Helvetica,sans-Serif" font-size="10.00" fill="grey">m_rfid</text>
</g>
<!-- Node6 -->
<g id="Node000006" class="node">
<title>Node6</title>
<g id="a_Node000006"><a xlink:href="../../d6/d9b/structproto_1_1lacte_1_1_u_i_d_packet_type.html" target="_top" xlink:title=" ">
<polygon fill="white" stroke="#666666" points="425,-494.7 284.5,-494.7 284.5,-475.45 425,-475.45 425,-494.7"/>
<text xml:space="preserve" text-anchor="middle" x="354.75" y="-481.2" font-family="Helvetica,sans-Serif" font-size="10.00">proto::lacte::UIDPacketType</text>
</a>
</g>
</g>
<!-- Node6&#45;&gt;Node1 -->
<g id="edge5_Node000001_Node000006" class="edge">
<title>Node6&#45;&gt;Node1</title>
<g id="a_edge5_Node000001_Node000006"><a xlink:title=" ">
<path fill="none" stroke="#9a32cd" stroke-dasharray="5,2" d="M436.59,-487.16C466.67,-489.17 500.91,-492.91 531.5,-499.83 547.68,-503.49 564.93,-509.62 579.48,-515.49"/>
<polygon fill="#9a32cd" stroke="#9a32cd" points="436.99,-483.68 426.8,-486.57 436.57,-490.67 436.99,-483.68"/>
</a>
</g>
<text xml:space="preserve" text-anchor="start" x="468.88" y="-504.58" font-family="Helvetica,sans-Serif" font-size="10.00" fill="grey">m_uid_data</text>
</g>
<!-- Node7 -->
<g id="Node000007" class="node">
<title>Node7</title>
<g id="a_Node000007"><a xlink:href="../../da/dbe/structproto_1_1lacte_1_1_mcu_uid.html" target="_top" xlink:title=" ">
<polygon fill="white" stroke="#666666" points="127.38,-481.7 22.88,-481.7 22.88,-462.45 127.38,-462.45 127.38,-481.7"/>
<text xml:space="preserve" text-anchor="middle" x="75.12" y="-468.2" font-family="Helvetica,sans-Serif" font-size="10.00">proto::lacte::McuUid</text>
</a>
</g>
</g>
<!-- Node7&#45;&gt;Node6 -->
<g id="edge6_Node000006_Node000007" class="edge">
<title>Node7&#45;&gt;Node6</title>
<g id="a_edge6_Node000006_Node000007"><a xlink:title=" ">
<path fill="none" stroke="#9a32cd" stroke-dasharray="5,2" d="M139.19,-475.03C182.36,-477.05 239.63,-479.73 284.13,-481.82"/>
<polygon fill="#9a32cd" stroke="#9a32cd" points="139.36,-471.53 129.21,-474.56 139.03,-478.53 139.36,-471.53"/>
</a>
</g>
<text xml:space="preserve" text-anchor="start" x="197.5" y="-484.87" font-family="Helvetica,sans-Serif" font-size="10.00" fill="grey">m_uid</text>
</g>
<!-- Node8 -->
<g id="Node000008" class="node">
<title>Node8</title>
<g id="a_Node000008"><a xlink:href="../../d9/de1/structproto_1_1lacte_1_1_r_f_i_d_data_packet_type.html" target="_top" xlink:title=" ">
<polygon fill="white" stroke="#666666" points="438.5,-261.7 271,-261.7 271,-242.45 438.5,-242.45 438.5,-261.7"/>
<text xml:space="preserve" text-anchor="middle" x="354.75" y="-248.2" font-family="Helvetica,sans-Serif" font-size="10.00">proto::lacte::RFIDDataPacketType</text>
</a>
</g>
</g>
<!-- Node7&#45;&gt;Node8 -->
<g id="edge16_Node000008_Node000007" class="edge">
<title>Node7&#45;&gt;Node8</title>
<g id="a_edge16_Node000008_Node000007"><a xlink:title=" ">
<path fill="none" stroke="#9a32cd" stroke-dasharray="5,2" d="M138.9,-459.73C185.91,-450.06 243.66,-437.1 253,-430.08 313.18,-384.85 342.78,-292.46 351.18,-262.04"/>
<polygon fill="#9a32cd" stroke="#9a32cd" points="138.41,-456.26 129.31,-461.68 139.81,-463.11 138.41,-456.26"/>
</a>
</g>
<text xml:space="preserve" text-anchor="start" x="187" y="-458.2" font-family="Helvetica,sans-Serif" font-size="10.00" fill="grey">m_mcuUid</text>
</g>
<!-- Node8&#45;&gt;Node1 -->
<g id="edge8_Node000001_Node000008" class="edge">
<title>Node8&#45;&gt;Node1</title>
<g id="a_edge8_Node000001_Node000008"><a xlink:title=" ">
<path fill="none" stroke="#9a32cd" stroke-dasharray="5,2" d="M372.53,-270.19C420.08,-321.51 555.16,-467.3 599.76,-515.44"/>
<polygon fill="#9a32cd" stroke="#9a32cd" points="375.34,-268.07 365.98,-263.12 370.21,-272.83 375.34,-268.07"/>
</a>
</g>
<text xml:space="preserve" text-anchor="start" x="468.5" y="-445.58" font-family="Helvetica,sans-Serif" font-size="10.00" fill="grey">m_rfid_data</text>
</g>
<!-- Node9 -->
<g id="Node000009" class="node">
<title>Node9</title>
<g id="a_Node000009"><a xlink:href="../../df/dd7/structproto_1_1lacte_1_1_magic_word.html" target="_top" xlink:title=" ">
<polygon fill="white" stroke="#666666" points="134.88,-421.7 15.38,-421.7 15.38,-402.45 134.88,-402.45 134.88,-421.7"/>
<text xml:space="preserve" text-anchor="middle" x="75.12" y="-408.2" font-family="Helvetica,sans-Serif" font-size="10.00">proto::lacte::MagicWord</text>
</a>
</g>
</g>
<!-- Node9&#45;&gt;Node8 -->
<g id="edge9_Node000008_Node000009" class="edge">
<title>Node9&#45;&gt;Node8</title>
<g id="a_edge9_Node000008_Node000009"><a xlink:title=" ">
<path fill="none" stroke="#9a32cd" stroke-dasharray="5,2" d="M146.56,-414.43C180.77,-412.62 221.24,-405.9 253,-387.08 304.83,-356.36 338.48,-287.66 349.65,-262"/>
<polygon fill="#9a32cd" stroke="#9a32cd" points="146.59,-410.93 136.73,-414.81 146.86,-417.92 146.59,-410.93"/>
</a>
</g>
<text xml:space="preserve" text-anchor="start" x="179.5" y="-417.12" font-family="Helvetica,sans-Serif" font-size="10.00" fill="grey">m_magicWord</text>
</g>
<!-- Node10 -->
<g id="Node000010" class="node">
<title>Node10</title>
<g id="a_Node000010"><a xlink:href="../../d0/d28/structproto_1_1lacte_1_1_lacte_id.html" target="_top" xlink:title=" ">
<polygon fill="white" stroke="#666666" points="126.62,-381.7 23.62,-381.7 23.62,-362.45 126.62,-362.45 126.62,-381.7"/>
<text xml:space="preserve" text-anchor="middle" x="75.12" y="-368.2" font-family="Helvetica,sans-Serif" font-size="10.00">proto::lacte::LacteId</text>
</a>
</g>
</g>
<!-- Node10&#45;&gt;Node8 -->
<g id="edge10_Node000008_Node000010" class="edge">
<title>Node10&#45;&gt;Node8</title>
<g id="a_edge10_Node000008_Node000010"><a xlink:title=" ">
<path fill="none" stroke="#9a32cd" stroke-dasharray="5,2" d="M137.88,-370.02C173.08,-366.83 217.17,-359.32 253,-342.08 293.79,-322.45 330.34,-281.26 345.86,-262.18"/>
<polygon fill="#9a32cd" stroke="#9a32cd" points="137.99,-366.5 128.3,-370.79 138.55,-373.48 137.99,-366.5"/>
</a>
</g>
<text xml:space="preserve" text-anchor="start" x="189.25" y="-370.99" font-family="Helvetica,sans-Serif" font-size="10.00" fill="grey">m_lacteId</text>
</g>
<!-- Node11 -->
<g id="Node000011" class="node">
<title>Node11</title>
<g id="a_Node000011"><a xlink:href="../../d7/d8d/structproto_1_1lacte_1_1_lacte_sn.html" target="_top" xlink:title=" ">
<polygon fill="white" stroke="#666666" points="128.5,-341.7 21.75,-341.7 21.75,-322.45 128.5,-322.45 128.5,-341.7"/>
<text xml:space="preserve" text-anchor="middle" x="75.12" y="-328.2" font-family="Helvetica,sans-Serif" font-size="10.00">proto::lacte::LacteSn</text>
</a>
</g>
</g>
<!-- Node11&#45;&gt;Node8 -->
<g id="edge11_Node000008_Node000011" class="edge">
<title>Node11&#45;&gt;Node8</title>
<g id="a_edge11_Node000008_Node000011"><a xlink:title=" ">
<path fill="none" stroke="#9a32cd" stroke-dasharray="5,2" d="M140.17,-325.8C174.25,-321.32 216.54,-313.93 253,-302.08 284.2,-291.93 317.84,-273.57 337.28,-262.14"/>
<polygon fill="#9a32cd" stroke="#9a32cd" points="139.93,-322.3 130.45,-327.02 140.81,-329.25 139.93,-322.3"/>
</a>
</g>
<text xml:space="preserve" text-anchor="start" x="187.38" y="-325.83" font-family="Helvetica,sans-Serif" font-size="10.00" fill="grey">m_lacteSn</text>
</g>
<!-- Node12 -->
<g id="Node000012" class="node">
<title>Node12</title>
<g id="a_Node000012"><a xlink:href="../../df/d79/structproto_1_1lacte_1_1_product_volume.html" target="_top" xlink:title=" ">
<polygon fill="white" stroke="#666666" points="143.88,-301.7 6.38,-301.7 6.38,-282.45 143.88,-282.45 143.88,-301.7"/>
<text xml:space="preserve" text-anchor="middle" x="75.12" y="-288.2" font-family="Helvetica,sans-Serif" font-size="10.00">proto::lacte::ProductVolume</text>
</a>
</g>
</g>
<!-- Node12&#45;&gt;Node8 -->
<g id="edge12_Node000008_Node000012" class="edge">
<title>Node12&#45;&gt;Node8</title>
<g id="a_edge12_Node000008_Node000012"><a xlink:title=" ">
<path fill="none" stroke="#9a32cd" stroke-dasharray="5,2" d="M155.31,-283.14C185.89,-279.45 221.12,-274.9 253,-270.08 268.37,-267.75 285.01,-264.91 300.24,-262.18"/>
<polygon fill="#9a32cd" stroke="#9a32cd" points="155.29,-279.61 145.78,-284.28 156.12,-286.56 155.29,-279.61"/>
</a>
</g>
<text xml:space="preserve" text-anchor="start" x="171.25" y="-286" font-family="Helvetica,sans-Serif" font-size="10.00" fill="grey">m_productVolume</text>
</g>
<!-- Node13 -->
<g id="Node000013" class="node">
<title>Node13</title>
<g id="a_Node000013"><a xlink:href="../../d6/deb/structproto_1_1lacte_1_1_prod_date.html" target="_top" xlink:title=" ">
<polygon fill="white" stroke="#666666" points="131.12,-261.7 19.13,-261.7 19.13,-242.45 131.12,-242.45 131.12,-261.7"/>
<text xml:space="preserve" text-anchor="middle" x="75.12" y="-248.2" font-family="Helvetica,sans-Serif" font-size="10.00">proto::lacte::ProdDate</text>
</a>
</g>
</g>
<!-- Node13&#45;&gt;Node8 -->
<g id="edge13_Node000008_Node000013" class="edge">
<title>Node13&#45;&gt;Node8</title>
<g id="a_edge13_Node000008_Node000013"><a xlink:title=" ">
<path fill="none" stroke="#9a32cd" stroke-dasharray="5,2" d="M142.38,-252.08C180.87,-252.08 229.72,-252.08 270.75,-252.08"/>
<polygon fill="#9a32cd" stroke="#9a32cd" points="142.82,-248.58 132.82,-252.08 142.82,-255.58 142.82,-248.58"/>
</a>
</g>
<text xml:space="preserve" text-anchor="start" x="184" y="-256.83" font-family="Helvetica,sans-Serif" font-size="10.00" fill="grey">m_prodDate</text>
</g>
<!-- Node14 -->
<g id="Node000014" class="node">
<title>Node14</title>
<g id="a_Node000014"><a xlink:href="../../d9/d99/structproto_1_1lacte_1_1_product_shelf_life.html" target="_top" xlink:title=" ">
<polygon fill="white" stroke="#666666" points="146.5,-221.7 3.75,-221.7 3.75,-202.45 146.5,-202.45 146.5,-221.7"/>
<text xml:space="preserve" text-anchor="middle" x="75.12" y="-208.2" font-family="Helvetica,sans-Serif" font-size="10.00">proto::lacte::ProductShelfLife</text>
</a>
</g>
</g>
<!-- Node14&#45;&gt;Node8 -->
<g id="edge14_Node000008_Node000014" class="edge">
<title>Node14&#45;&gt;Node8</title>
<g id="a_edge14_Node000008_Node000014"><a xlink:title=" ">
<path fill="none" stroke="#9a32cd" stroke-dasharray="5,2" d="M158.17,-219.01C188.11,-222.01 222.17,-225.95 253,-230.83 272.07,-233.84 292.98,-238.09 310.79,-242"/>
<polygon fill="#9a32cd" stroke="#9a32cd" points="158.72,-215.55 148.43,-218.06 158.04,-222.52 158.72,-215.55"/>
</a>
</g>
<text xml:space="preserve" text-anchor="start" x="185.5" y="-235.58" font-family="Helvetica,sans-Serif" font-size="10.00" fill="grey">m_shelfLife</text>
</g>
<!-- Node15 -->
<g id="Node000015" class="node">
<title>Node15</title>
<g id="a_Node000015"><a xlink:href="../../d1/d60/structproto_1_1lacte_1_1_usage_time.html" target="_top" xlink:title=" ">
<polygon fill="white" stroke="#666666" points="135.62,-181.7 14.62,-181.7 14.62,-162.45 135.62,-162.45 135.62,-181.7"/>
<text xml:space="preserve" text-anchor="middle" x="75.12" y="-168.2" font-family="Helvetica,sans-Serif" font-size="10.00">proto::lacte::UsageTime</text>
</a>
</g>
</g>
<!-- Node15&#45;&gt;Node8 -->
<g id="edge15_Node000008_Node000015" class="edge">
<title>Node15&#45;&gt;Node8</title>
<g id="a_edge15_Node000008_Node000015"><a xlink:title=" ">
<path fill="none" stroke="#9a32cd" stroke-dasharray="5,2" d="M147.16,-177.32C179.97,-181.13 219.09,-187.66 253,-198.83 285.32,-209.47 319.69,-229.85 338.77,-242.08"/>
<polygon fill="#9a32cd" stroke="#9a32cd" points="147.66,-173.85 137.34,-176.25 146.9,-180.81 147.66,-173.85"/>
</a>
</g>
<text xml:space="preserve" text-anchor="start" x="179.88" y="-203.58" font-family="Helvetica,sans-Serif" font-size="10.00" fill="grey">m_usageTime</text>
</g>
<!-- Node16 -->
<g id="Node000016" class="node">
<title>Node16</title>
<g id="a_Node000016"><a xlink:href="../../d8/d8a/structproto_1_1lacte_1_1_machine_sn.html" target="_top" xlink:title=" ">
<polygon fill="white" stroke="#666666" points="134.88,-141.7 15.38,-141.7 15.38,-122.45 134.88,-122.45 134.88,-141.7"/>
<text xml:space="preserve" text-anchor="middle" x="75.12" y="-128.2" font-family="Helvetica,sans-Serif" font-size="10.00">proto::lacte::MachineSn</text>
</a>
</g>
</g>
<!-- Node16&#45;&gt;Node8 -->
<g id="edge17_Node000008_Node000016" class="edge">
<title>Node16&#45;&gt;Node8</title>
<g id="a_edge17_Node000008_Node000016"><a xlink:title=" ">
<path fill="none" stroke="#9a32cd" stroke-dasharray="5,2" d="M146.35,-133.73C180,-136.82 220.03,-143.96 253,-159.83 294.46,-179.78 330.94,-222.47 346.18,-241.98"/>
<polygon fill="#9a32cd" stroke="#9a32cd" points="146.97,-130.27 136.72,-132.96 146.41,-137.25 146.97,-130.27"/>
</a>
</g>
<text xml:space="preserve" text-anchor="start" x="179.5" y="-164.58" font-family="Helvetica,sans-Serif" font-size="10.00" fill="grey">m_machineSn</text>
</g>
<!-- Node17 -->
<g id="Node000017" class="node">
<title>Node17</title>
<g id="a_Node000017"><a xlink:href="../../de/d0a/structproto_1_1lacte_1_1_activation_time.html" target="_top" xlink:title=" ">
<polygon fill="white" stroke="#666666" points="143.12,-101.7 7.12,-101.7 7.12,-82.45 143.12,-82.45 143.12,-101.7"/>
<text xml:space="preserve" text-anchor="middle" x="75.12" y="-88.2" font-family="Helvetica,sans-Serif" font-size="10.00">proto::lacte::ActivationTime</text>
</a>
</g>
</g>
<!-- Node17&#45;&gt;Node8 -->
<g id="edge18_Node000008_Node000017" class="edge">
<title>Node17&#45;&gt;Node8</title>
<g id="a_edge18_Node000008_Node000017"><a xlink:title=" ">
<path fill="none" stroke="#9a32cd" stroke-dasharray="5,2" d="M154.84,-88.98C187.16,-90.95 223.78,-97.6 253,-114.83 305.45,-145.75 338.73,-215.78 349.72,-241.95"/>
<polygon fill="#9a32cd" stroke="#9a32cd" points="155.27,-85.5 145.12,-88.54 154.95,-92.49 155.27,-85.5"/>
</a>
</g>
<text xml:space="preserve" text-anchor="start" x="172" y="-119.58" font-family="Helvetica,sans-Serif" font-size="10.00" fill="grey">m_activationTime</text>
</g>
<!-- Node18 -->
<g id="Node000018" class="node">
<title>Node18</title>
<g id="a_Node000018"><a xlink:href="../../d9/d0c/structproto_1_1lacte_1_1_drink_counter.html" target="_top" xlink:title=" ">
<polygon fill="white" stroke="#666666" points="139.38,-61.7 10.88,-61.7 10.88,-42.45 139.38,-42.45 139.38,-61.7"/>
<text xml:space="preserve" text-anchor="middle" x="75.12" y="-48.2" font-family="Helvetica,sans-Serif" font-size="10.00">proto::lacte::DrinkCounter</text>
</a>
</g>
</g>
<!-- Node18&#45;&gt;Node8 -->
<g id="edge19_Node000008_Node000018" class="edge">
<title>Node18&#45;&gt;Node8</title>
<g id="a_edge19_Node000008_Node000018"><a xlink:title=" ">
<path fill="none" stroke="#9a32cd" stroke-dasharray="5,2" d="M151.01,-44C184.65,-43.99 223.35,-49.35 253,-68.83 317.93,-111.49 344.71,-210.88 351.75,-242.34"/>
<polygon fill="#9a32cd" stroke="#9a32cd" points="151.27,-40.49 141.33,-44.17 151.39,-47.49 151.27,-40.49"/>
</a>
</g>
<text xml:space="preserve" text-anchor="start" x="176.12" y="-73.58" font-family="Helvetica,sans-Serif" font-size="10.00" fill="grey">m_drinkCounter</text>
</g>
<!-- Node19 -->
<g id="Node000019" class="node">
<title>Node19</title>
<g id="a_Node000019"><a xlink:href="../../dc/dc4/structproto_1_1lacte_1_1_time_counter.html" target="_top" xlink:title=" ">
<polygon fill="white" stroke="#666666" points="138.62,-21.7 11.62,-21.7 11.62,-2.45 138.62,-2.45 138.62,-21.7"/>
<text xml:space="preserve" text-anchor="middle" x="75.12" y="-8.2" font-family="Helvetica,sans-Serif" font-size="10.00">proto::lacte::TimeCounter</text>
</a>
</g>
</g>
<!-- Node19&#45;&gt;Node8 -->
<g id="edge20_Node000008_Node000019" class="edge">
<title>Node19&#45;&gt;Node8</title>
<g id="a_edge20_Node000008_Node000019"><a xlink:title=" ">
<path fill="none" stroke="#9a32cd" stroke-dasharray="5,2" d="M141.4,-0.93C177.35,1.64 221.04,-1.45 253,-23.83 330.36,-77.98 349.03,-205.42 352.86,-242.06"/>
<polygon fill="#9a32cd" stroke="#9a32cd" points="141.17,2.56 131.52,-1.82 141.8,-4.41 141.17,2.56"/>
</a>
</g>
<text xml:space="preserve" text-anchor="start" x="177.25" y="-28.58" font-family="Helvetica,sans-Serif" font-size="10.00" fill="grey">m_timeCounter</text>
</g>
</g>
</svg>

<g id="navigator" transform="translate(0 0)" fill="#404254">
  <rect fill="#f2f5e9" fill-opacity="0.5" stroke="#606060" stroke-width=".5" x="0" y="0" width="60" height="60"/>
  <use id="zoomplus" xlink:href="#zoomPlus" x="17" y="9" onmousedown="handleZoom(evt,'in')"/>
  <use id="zoomminus" xlink:href="#zoomMin" x="42" y="9" onmousedown="handleZoom(evt,'out')"/>
  <use id="reset" xlink:href="#resetDef" x="30" y="36" onmousedown="handleReset()"/>
   <use id="arrowup" xlink:href="#arrowUp" x="0" y="0" onmousedown="handlePan(0,-1)"/>
  <use id="arrowright" xlink:href="#arrowRight" x="0" y="0" onmousedown="handlePan(1,0)"/>
  <use id="arrowdown" xlink:href="#arrowDown" x="0" y="0" onmousedown="handlePan(0,1)"/>
  <use id="arrowleft" xlink:href="#arrowLeft" x="0" y="0" onmousedown="handlePan(-1,0)"/>
</g>
<svg viewBox="0 0 15 15" width="100%" height="30px" preserveAspectRatio="xMaxYMin meet">
 <g id="arrow_out" transform="scale(0.3 0.3)">
  <a xlink:href="classproto_1_1lacte_1_1_virtual_board__coll__graph_org.svg" target="_base">
   <rect id="button" ry="5" rx="5" y="6" x="6" height="38" width="38"
        fill="#f2f5e9" fill-opacity="0.5" stroke="#606060" stroke-width="1.0"/>
   <path id="arrow"
     d="M 11.500037,31.436501 C 11.940474,20.09759 22.043105,11.32322 32.158766,21.979434 L 37.068811,17.246167 C 37.068811,17.246167 37.088388,32 37.088388,32 L 22.160133,31.978069 C 22.160133,31.978069 26.997745,27.140456 26.997745,27.140456 C 18.528582,18.264221 13.291696,25.230495 11.500037,31.436501 z"
     style="fill:#404040;"/>
  </a>
 </g>
</svg>

<style type='text/css'>
<![CDATA[
[data-mouse-over-selected='false'] { opacity: 0.7; }
[data-mouse-over-selected='true']  { opacity: 1.0; }
]]>
</style>
<script type="application/ecmascript"><![CDATA[
document.addEventListener('DOMContentLoaded', (event) => {
  highlightEdges();
  highlightAdjacentNodes();
});
]]></script>
</svg>
