<?xml version="1.0" encoding="UTF-8" standalone="no"?>
<!DOCTYPE svg PUBLIC "-//W3C//DTD SVG 1.1//EN"
 "http://www.w3.org/Graphics/SVG/1.1/DTD/svg11.dtd">
<!-- Generated by graphviz version 14.0.1 (20251006.0113)
 -->
<!-- Title: FieldContainer.hpp Pages: 1 -->
<svg width="315pt" height="304pt"
 viewBox="0.00 0.00 315.00 304.00" xmlns="http://www.w3.org/2000/svg" xmlns:xlink="http://www.w3.org/1999/xlink">

<svg id="main" version="1.1" xmlns="http://www.w3.org/2000/svg" xmlns:xlink="http://www.w3.org/1999/xlink" xml:space="preserve">

<style type="text/css"><![CDATA[
.node, .edge {opacity: 0.7;}
.node.selected, .edge.selected {opacity: 1;}
.edge:hover path { stroke: red; }
.edge:hover polygon { stroke: red; fill: red; }
]]></style>
<script type="application/ecmascript" xlink:href="../../svg.min.js"/>
<svg id="graph" class="graph">
<g id="graph0" class="graph" transform="scale(1 1) rotate(0) translate(4 299.5)">
<title>FieldContainer.hpp</title>
<!-- Node1 -->
<g id="Node000001" class="node">
<title>Node1</title>
<g id="a_Node000001"><a xlink:title=" ">
<polygon fill="#999999" stroke="#666666" points="214.88,-295.5 117.88,-295.5 117.88,-276.25 214.88,-276.25 214.88,-295.5"/>
<text xml:space="preserve" text-anchor="middle" x="166.38" y="-282" font-family="Helvetica,sans-Serif" font-size="10.00">FieldContainer.hpp</text>
</a>
</g>
</g>
<!-- Node2 -->
<g id="Node000002" class="node">
<title>Node2</title>
<g id="a_Node000002"><a xlink:href="../../d0/d95/_rx_container_8hpp.html" target="_top" xlink:title="Stateful frame parsing container that incrementally matches and fills protocol fields from a byte str...">
<polygon fill="white" stroke="#666666" points="157.75,-240.25 69,-240.25 69,-221 157.75,-221 157.75,-240.25"/>
<text xml:space="preserve" text-anchor="middle" x="113.38" y="-226.75" font-family="Helvetica,sans-Serif" font-size="10.00">RxContainer.hpp</text>
</a>
</g>
</g>
<!-- Node1&#45;&gt;Node2 -->
<g id="edge1_Node000001_Node000002" class="edge">
<title>Node1&#45;&gt;Node2</title>
<g id="a_edge1_Node000001_Node000002"><a xlink:title=" ">
<path fill="none" stroke="#63b8ff" d="M149.65,-268.07C140.6,-258.98 129.77,-248.1 122.32,-240.61"/>
<polygon fill="#63b8ff" stroke="#63b8ff" points="147.02,-270.39 156.56,-275.01 151.98,-265.45 147.02,-270.39"/>
</a>
</g>
</g>
<!-- Node9 -->
<g id="Node000009" class="node">
<title>Node9</title>
<g id="a_Node000009"><a xlink:href="../../d7/d5d/_tx_container_8hpp.html" target="_top" xlink:title="TX&#45;side container that builds protocol frames from a set of fields.">
<polygon fill="white" stroke="#666666" points="263,-240.25 175.75,-240.25 175.75,-221 263,-221 263,-240.25"/>
<text xml:space="preserve" text-anchor="middle" x="219.38" y="-226.75" font-family="Helvetica,sans-Serif" font-size="10.00">TxContainer.hpp</text>
</a>
</g>
</g>
<!-- Node1&#45;&gt;Node9 -->
<g id="edge9_Node000001_Node000009" class="edge">
<title>Node1&#45;&gt;Node9</title>
<g id="a_edge9_Node000001_Node000009"><a xlink:title=" ">
<path fill="none" stroke="#63b8ff" d="M183.1,-268.07C192.15,-258.98 202.98,-248.1 210.43,-240.61"/>
<polygon fill="#63b8ff" stroke="#63b8ff" points="180.77,-265.45 176.19,-275.01 185.73,-270.39 180.77,-265.45"/>
</a>
</g>
</g>
<!-- Node3 -->
<g id="Node000003" class="node">
<title>Node3</title>
<g id="a_Node000003"><a xlink:href="../../dd/d7f/_protocol_endpoint_8hpp.html" target="_top" xlink:title="Base endpoint class for protocol implementations.">
<polygon fill="white" stroke="#666666" points="149.88,-185 40.88,-185 40.88,-165.75 149.88,-165.75 149.88,-185"/>
<text xml:space="preserve" text-anchor="middle" x="95.38" y="-171.5" font-family="Helvetica,sans-Serif" font-size="10.00">ProtocolEndpoint.hpp</text>
</a>
</g>
</g>
<!-- Node2&#45;&gt;Node3 -->
<g id="edge2_Node000002_Node000003" class="edge">
<title>Node2&#45;&gt;Node3</title>
<g id="a_edge2_Node000002_Node000003"><a xlink:title=" ">
<path fill="none" stroke="#63b8ff" d="M106.73,-209.96C103.87,-201.52 100.68,-192.08 98.41,-185.36"/>
<polygon fill="#63b8ff" stroke="#63b8ff" points="103.4,-211.05 109.92,-219.4 110.03,-208.8 103.4,-211.05"/>
</a>
</g>
</g>
<!-- Node7 -->
<g id="Node000007" class="node">
<title>Node7</title>
<g id="a_Node000007"><a xlink:href="../../dc/d1e/_protocol_no_sys_endpoint_8hpp.html" target="_top" xlink:title=" ">
<polygon fill="white" stroke="#666666" points="306.88,-185 167.88,-185 167.88,-165.75 306.88,-165.75 306.88,-185"/>
<text xml:space="preserve" text-anchor="middle" x="237.38" y="-171.5" font-family="Helvetica,sans-Serif" font-size="10.00">ProtocolNoSysEndpoint.hpp</text>
</a>
</g>
</g>
<!-- Node2&#45;&gt;Node7 -->
<g id="edge7_Node000002_Node000007" class="edge">
<title>Node2&#45;&gt;Node7</title>
<g id="a_edge7_Node000002_Node000007"><a xlink:title=" ">
<path fill="none" stroke="#63b8ff" d="M144.75,-216.15C167.12,-206.54 196.61,-193.88 216.24,-185.45"/>
<polygon fill="#63b8ff" stroke="#63b8ff" points="143.61,-212.83 135.8,-219.99 146.37,-219.26 143.61,-212.83"/>
</a>
</g>
</g>
<!-- Node4 -->
<g id="Node000004" class="node">
<title>Node4</title>
<g id="a_Node000004"><a xlink:href="../../dc/d95/_lacte_protocol_8hpp.html" target="_top" xlink:title=" ">
<polygon fill="white" stroke="#666666" points="94.75,-74.5 0,-74.5 0,-55.25 94.75,-55.25 94.75,-74.5"/>
<text xml:space="preserve" text-anchor="middle" x="47.38" y="-61" font-family="Helvetica,sans-Serif" font-size="10.00">LacteProtocol.hpp</text>
</a>
</g>
</g>
<!-- Node3&#45;&gt;Node4 -->
<g id="edge3_Node000003_Node000004" class="edge">
<title>Node3&#45;&gt;Node4</title>
<g id="a_edge3_Node000003_Node000004"><a xlink:title=" ">
<path fill="none" stroke="#63b8ff" d="M55.23,-160.87C41,-153.92 26.51,-143.86 18.38,-129.75 7.55,-110.97 25.8,-87.42 37.92,-74.82"/>
<polygon fill="#63b8ff" stroke="#63b8ff" points="53.51,-163.93 64.07,-164.78 56.34,-157.53 53.51,-163.93"/>
</a>
</g>
</g>
<!-- Node6 -->
<g id="Node000006" class="node">
<title>Node6</title>
<g id="a_Node000006"><a xlink:href="../../d8/df0/_lacte_protocol_prototype_8hpp.html" target="_top" xlink:title=" ">
<polygon fill="white" stroke="#666666" points="163.75,-129.75 27,-129.75 27,-110.5 163.75,-110.5 163.75,-129.75"/>
<text xml:space="preserve" text-anchor="middle" x="95.38" y="-116.25" font-family="Helvetica,sans-Serif" font-size="10.00">LacteProtocolPrototype.hpp</text>
</a>
</g>
</g>
<!-- Node3&#45;&gt;Node6 -->
<g id="edge5_Node000003_Node000006" class="edge">
<title>Node3&#45;&gt;Node6</title>
<g id="a_edge5_Node000003_Node000006"><a xlink:title=" ">
<path fill="none" stroke="#63b8ff" d="M95.38,-154.13C95.38,-145.84 95.38,-136.67 95.38,-130.11"/>
<polygon fill="#63b8ff" stroke="#63b8ff" points="91.88,-154.07 95.38,-164.07 98.88,-154.07 91.88,-154.07"/>
</a>
</g>
</g>
<!-- Node5 -->
<g id="Node000005" class="node">
<title>Node5</title>
<g id="a_Node000005"><a xlink:href="../../db/dc5/_virtual_board_8hpp.html" target="_top" xlink:title=" ">
<polygon fill="white" stroke="#666666" points="91.38,-19.25 3.38,-19.25 3.38,0 91.38,0 91.38,-19.25"/>
<text xml:space="preserve" text-anchor="middle" x="47.38" y="-5.75" font-family="Helvetica,sans-Serif" font-size="10.00">VirtualBoard.hpp</text>
</a>
</g>
</g>
<!-- Node4&#45;&gt;Node5 -->
<g id="edge4_Node000004_Node000005" class="edge">
<title>Node4&#45;&gt;Node5</title>
<g id="a_edge4_Node000004_Node000005"><a xlink:title=" ">
<path fill="none" stroke="#63b8ff" d="M47.38,-43.63C47.38,-35.34 47.38,-26.17 47.38,-19.61"/>
<polygon fill="#63b8ff" stroke="#63b8ff" points="43.88,-43.57 47.38,-53.57 50.88,-43.57 43.88,-43.57"/>
</a>
</g>
</g>
<!-- Node6&#45;&gt;Node4 -->
<g id="edge6_Node000006_Node000004" class="edge">
<title>Node6&#45;&gt;Node4</title>
<g id="a_edge6_Node000006_Node000004"><a xlink:title=" ">
<path fill="none" stroke="#63b8ff" d="M79.98,-102.04C71.83,-93 62.16,-82.27 55.47,-74.86"/>
<polygon fill="#63b8ff" stroke="#63b8ff" points="77.14,-104.12 86.44,-109.21 82.34,-99.44 77.14,-104.12"/>
</a>
</g>
</g>
<!-- Node8 -->
<g id="Node000008" class="node">
<title>Node8</title>
<g id="a_Node000008"><a xlink:href="../../d5/d46/exo_atlant_protocol_8hpp.html" target="_top" xlink:title=" ">
<polygon fill="white" stroke="#666666" points="293.38,-129.75 181.38,-129.75 181.38,-110.5 293.38,-110.5 293.38,-129.75"/>
<text xml:space="preserve" text-anchor="middle" x="237.38" y="-116.25" font-family="Helvetica,sans-Serif" font-size="10.00">exoAtlantProtocol.hpp</text>
</a>
</g>
</g>
<!-- Node7&#45;&gt;Node8 -->
<g id="edge8_Node000007_Node000008" class="edge">
<title>Node7&#45;&gt;Node8</title>
<g id="a_edge8_Node000007_Node000008"><a xlink:title=" ">
<path fill="none" stroke="#63b8ff" d="M237.38,-154.13C237.38,-145.84 237.38,-136.67 237.38,-130.11"/>
<polygon fill="#63b8ff" stroke="#63b8ff" points="233.88,-154.07 237.38,-164.07 240.88,-154.07 233.88,-154.07"/>
</a>
</g>
</g>
<!-- Node9&#45;&gt;Node3 -->
<g id="edge10_Node000009_Node000003" class="edge">
<title>Node9&#45;&gt;Node3</title>
<g id="a_edge10_Node000009_Node000003"><a xlink:title=" ">
<path fill="none" stroke="#63b8ff" d="M188,-216.15C165.63,-206.54 136.14,-193.88 116.51,-185.45"/>
<polygon fill="#63b8ff" stroke="#63b8ff" points="186.38,-219.26 196.95,-219.99 189.14,-212.83 186.38,-219.26"/>
</a>
</g>
</g>
<!-- Node9&#45;&gt;Node7 -->
<g id="edge11_Node000009_Node000007" class="edge">
<title>Node9&#45;&gt;Node7</title>
<g id="a_edge11_Node000009_Node000007"><a xlink:title=" ">
<path fill="none" stroke="#63b8ff" d="M226.02,-209.96C228.88,-201.52 232.07,-192.08 234.34,-185.36"/>
<polygon fill="#63b8ff" stroke="#63b8ff" points="222.72,-208.8 222.83,-219.4 229.35,-211.05 222.72,-208.8"/>
</a>
</g>
</g>
</g>
</svg>
</svg>

<style type='text/css'>
<![CDATA[
[data-mouse-over-selected='false'] { opacity: 0.7; }
[data-mouse-over-selected='true']  { opacity: 1.0; }
]]>
</style>
<script type="application/ecmascript"><![CDATA[
document.addEventListener('DOMContentLoaded', (event) => {
  highlightEdges();
  highlightAdjacentNodes();
});
]]></script>
</svg>
