<?xml version="1.0" encoding="UTF-8" standalone="no"?>
<!DOCTYPE svg PUBLIC "-//W3C//DTD SVG 1.1//EN"
 "http://www.w3.org/Graphics/SVG/1.1/DTD/svg11.dtd">
<!-- Generated by graphviz version 2.43.0 (0)
 -->
<!-- Title: DataField.hpp Pages: 1 -->
<svg width="958pt" height="192pt"
 viewBox="0.00 0.00 957.50 192.00" xmlns="http://www.w3.org/2000/svg" xmlns:xlink="http://www.w3.org/1999/xlink">
<g id="graph0" class="graph" transform="scale(1 1) rotate(0) translate(4 188)">
<title>DataField.hpp</title>
<!-- Node1 -->
<g id="Node000001" class="node">
<title>Node1</title>
<g id="a_Node000001"><a xlink:title="Variant DATA field that maps protocol IDs to payload types at compile time.">
<polygon fill="#999999" stroke="#666666" points="336.5,-184 252.5,-184 252.5,-165 336.5,-165 336.5,-184"/>
<text text-anchor="middle" x="294.5" y="-172" font-family="Helvetica,sans-Serif" font-size="10.00">DataField.hpp</text>
</a>
</g>
</g>
<!-- Node2 -->
<g id="Node000002" class="node">
<title>Node2</title>
<g id="a_Node000002"><a xlink:title=" ">
<polygon fill="#e0e0e0" stroke="#999999" points="401.5,-74 351.5,-74 351.5,-55 401.5,-55 401.5,-74"/>
<text text-anchor="middle" x="376.5" y="-62" font-family="Helvetica,sans-Serif" font-size="10.00">cstring</text>
</a>
</g>
</g>
<!-- Node1&#45;&gt;Node2 -->
<g id="edge1_Node000001_Node000002" class="edge">
<title>Node1&#45;&gt;Node2</title>
<g id="a_edge1_Node000001_Node000002"><a xlink:title=" ">
<path fill="none" stroke="#63b8ff" d="M301.21,-164.66C314.85,-146.69 346.02,-105.64 363.68,-82.38"/>
<polygon fill="#63b8ff" stroke="#63b8ff" points="366.67,-84.24 369.93,-74.16 361.09,-80.01 366.67,-84.24"/>
</a>
</g>
</g>
<!-- Node3 -->
<g id="Node000003" class="node">
<title>Node3</title>
<g id="a_Node000003"><a xlink:title=" ">
<polygon fill="#e0e0e0" stroke="#999999" points="41,-74 0,-74 0,-55 41,-55 41,-74"/>
<text text-anchor="middle" x="20.5" y="-62" font-family="Helvetica,sans-Serif" font-size="10.00">tuple</text>
</a>
</g>
</g>
<!-- Node1&#45;&gt;Node3 -->
<g id="edge2_Node000001_Node000003" class="edge">
<title>Node1&#45;&gt;Node3</title>
<g id="a_edge2_Node000001_Node000003"><a xlink:title=" ">
<path fill="none" stroke="#63b8ff" d="M252.4,-169.86C210.95,-164.96 146.73,-153.8 96.5,-129 72.56,-117.18 49.71,-96.35 35.43,-81.77"/>
<polygon fill="#63b8ff" stroke="#63b8ff" points="37.85,-79.25 28.42,-74.42 32.78,-84.07 37.85,-79.25"/>
</a>
</g>
</g>
<!-- Node4 -->
<g id="Node000004" class="node">
<title>Node4</title>
<g id="a_Node000004"><a xlink:title=" ">
<polygon fill="#e0e0e0" stroke="#999999" points="268,-74 199,-74 199,-55 268,-55 268,-74"/>
<text text-anchor="middle" x="233.5" y="-62" font-family="Helvetica,sans-Serif" font-size="10.00">type_traits</text>
</a>
</g>
</g>
<!-- Node1&#45;&gt;Node4 -->
<g id="edge3_Node000001_Node000004" class="edge">
<title>Node1&#45;&gt;Node4</title>
<g id="a_edge3_Node000001_Node000004"><a xlink:title=" ">
<path fill="none" stroke="#63b8ff" d="M289.51,-164.66C279.45,-146.85 256.58,-106.37 243.39,-83.01"/>
<polygon fill="#63b8ff" stroke="#63b8ff" points="246.36,-81.14 238.39,-74.16 240.26,-84.59 246.36,-81.14"/>
</a>
</g>
</g>
<!-- Node5 -->
<g id="Node000005" class="node">
<title>Node5</title>
<g id="a_Node000005"><a xlink:title=" ">
<polygon fill="#e0e0e0" stroke="#999999" points="333,-74 286,-74 286,-55 333,-55 333,-74"/>
<text text-anchor="middle" x="309.5" y="-62" font-family="Helvetica,sans-Serif" font-size="10.00">vector</text>
</a>
</g>
</g>
<!-- Node1&#45;&gt;Node5 -->
<g id="edge4_Node000001_Node000005" class="edge">
<title>Node1&#45;&gt;Node5</title>
<g id="a_edge4_Node000001_Node000005"><a xlink:title=" ">
<path fill="none" stroke="#63b8ff" d="M295.73,-164.66C298.16,-147.17 303.62,-107.8 306.89,-84.27"/>
<polygon fill="#63b8ff" stroke="#63b8ff" points="310.39,-84.54 308.3,-74.16 303.45,-83.58 310.39,-84.54"/>
</a>
</g>
</g>
<!-- Node6 -->
<g id="Node000006" class="node">
<title>Node6</title>
<g id="a_Node000006"><a xlink:href="../../d7/d38/UniqueVariant_8hpp.html" target="_top" xlink:title=" ">
<polygon fill="white" stroke="#666666" points="213,-129 106,-129 106,-110 213,-110 213,-129"/>
<text text-anchor="middle" x="159.5" y="-117" font-family="Helvetica,sans-Serif" font-size="10.00">UniqueVariant.hpp</text>
</a>
</g>
</g>
<!-- Node1&#45;&gt;Node6 -->
<g id="edge5_Node000001_Node000006" class="edge">
<title>Node1&#45;&gt;Node6</title>
<g id="a_edge5_Node000001_Node000006"><a xlink:title=" ">
<path fill="none" stroke="#63b8ff" d="M272.81,-164.98C250.7,-156.3 216.18,-142.75 191.05,-132.88"/>
<polygon fill="#63b8ff" stroke="#63b8ff" points="192.17,-129.57 181.58,-129.17 189.61,-136.08 192.17,-129.57"/>
</a>
</g>
</g>
<!-- Node9 -->
<g id="Node000009" class="node">
<title>Node9</title>
<g id="a_Node000009"><a xlink:href="../../df/db6/FieldPrototype_8hpp.html" target="_top" xlink:title="FieldPrototype template for describing and handling protocol fields.">
<polygon fill="white" stroke="#666666" points="613.5,-129 425.5,-129 425.5,-110 613.5,-110 613.5,-129"/>
<text text-anchor="middle" x="519.5" y="-117" font-family="Helvetica,sans-Serif" font-size="10.00">prototypes/field/FieldPrototype.hpp</text>
</a>
</g>
</g>
<!-- Node1&#45;&gt;Node9 -->
<g id="edge11_Node000001_Node000009" class="edge">
<title>Node1&#45;&gt;Node9</title>
<g id="a_edge11_Node000001_Node000009"><a xlink:title=" ">
<path fill="none" stroke="#63b8ff" d="M330.65,-164.98C369.41,-155.86 431.05,-141.33 473.3,-131.38"/>
<polygon fill="#63b8ff" stroke="#63b8ff" points="474.14,-134.78 483.07,-129.08 472.53,-127.97 474.14,-134.78"/>
</a>
</g>
</g>
<!-- Node6&#45;&gt;Node3 -->
<g id="edge7_Node000006_Node000003" class="edge">
<title>Node6&#45;&gt;Node3</title>
<g id="a_edge7_Node000006_Node000003"><a xlink:title=" ">
<path fill="none" stroke="#63b8ff" d="M137.17,-109.98C113.76,-101.06 76.83,-86.98 50.8,-77.05"/>
<polygon fill="#63b8ff" stroke="#63b8ff" points="52,-73.77 41.41,-73.47 49.51,-80.31 52,-73.77"/>
</a>
</g>
</g>
<!-- Node6&#45;&gt;Node4 -->
<g id="edge8_Node000006_Node000004" class="edge">
<title>Node6&#45;&gt;Node4</title>
<g id="a_edge8_Node000006_Node000004"><a xlink:title=" ">
<path fill="none" stroke="#63b8ff" d="M171.39,-109.98C182.65,-101.92 199.79,-89.65 213.21,-80.03"/>
<polygon fill="#63b8ff" stroke="#63b8ff" points="215.3,-82.84 221.39,-74.17 211.23,-77.15 215.3,-82.84"/>
</a>
</g>
</g>
<!-- Node6&#45;&gt;Node5 -->
<g id="edge10_Node000006_Node000005" class="edge">
<title>Node6&#45;&gt;Node5</title>
<g id="a_edge10_Node000006_Node000005"><a xlink:title=" ">
<path fill="none" stroke="#63b8ff" d="M183.6,-109.98C208.68,-101.12 248.13,-87.18 276.18,-77.27"/>
<polygon fill="#63b8ff" stroke="#63b8ff" points="277.69,-80.45 285.95,-73.82 275.36,-73.85 277.69,-80.45"/>
</a>
</g>
</g>
<!-- Node7 -->
<g id="Node000007" class="node">
<title>Node7</title>
<g id="a_Node000007"><a xlink:title=" ">
<polygon fill="#e0e0e0" stroke="#999999" points="112,-74 59,-74 59,-55 112,-55 112,-74"/>
<text text-anchor="middle" x="85.5" y="-62" font-family="Helvetica,sans-Serif" font-size="10.00">cstddef</text>
</a>
</g>
</g>
<!-- Node6&#45;&gt;Node7 -->
<g id="edge6_Node000006_Node000007" class="edge">
<title>Node6&#45;&gt;Node7</title>
<g id="a_edge6_Node000006_Node000007"><a xlink:title=" ">
<path fill="none" stroke="#63b8ff" d="M147.61,-109.98C136.35,-101.92 119.21,-89.65 105.79,-80.03"/>
<polygon fill="#63b8ff" stroke="#63b8ff" points="107.77,-77.15 97.61,-74.17 103.7,-82.84 107.77,-77.15"/>
</a>
</g>
</g>
<!-- Node8 -->
<g id="Node000008" class="node">
<title>Node8</title>
<g id="a_Node000008"><a xlink:title=" ">
<polygon fill="#e0e0e0" stroke="#999999" points="181,-74 130,-74 130,-55 181,-55 181,-74"/>
<text text-anchor="middle" x="155.5" y="-62" font-family="Helvetica,sans-Serif" font-size="10.00">variant</text>
</a>
</g>
</g>
<!-- Node6&#45;&gt;Node8 -->
<g id="edge9_Node000006_Node000008" class="edge">
<title>Node6&#45;&gt;Node8</title>
<g id="a_edge9_Node000006_Node000008"><a xlink:title=" ">
<path fill="none" stroke="#63b8ff" d="M158.84,-109.75C158.32,-102.8 157.56,-92.85 156.91,-84.13"/>
<polygon fill="#63b8ff" stroke="#63b8ff" points="160.39,-83.8 156.15,-74.09 153.41,-84.32 160.39,-83.8"/>
</a>
</g>
</g>
<!-- Node9&#45;&gt;Node2 -->
<g id="edge13_Node000009_Node000002" class="edge">
<title>Node9&#45;&gt;Node2</title>
<g id="a_edge13_Node000009_Node000002"><a xlink:title=" ">
<path fill="none" stroke="#63b8ff" d="M496.52,-109.98C473,-101.27 436.21,-87.63 409.56,-77.75"/>
<polygon fill="#63b8ff" stroke="#63b8ff" points="410.49,-74.36 399.89,-74.17 408.05,-80.93 410.49,-74.36"/>
</a>
</g>
</g>
<!-- Node9&#45;&gt;Node4 -->
<g id="edge19_Node000009_Node000004" class="edge">
<title>Node9&#45;&gt;Node4</title>
<g id="a_edge19_Node000009_Node000004"><a xlink:title=" ">
<path fill="none" stroke="#63b8ff" d="M471.97,-110C425.16,-101.58 351.34,-88.19 278.49,-74.36"/>
<polygon fill="#63b8ff" stroke="#63b8ff" points="278.7,-70.84 268.23,-72.41 277.4,-77.71 278.7,-70.84"/>
</a>
</g>
</g>
<!-- Node9&#45;&gt;Node5 -->
<g id="edge20_Node000009_Node000005" class="edge">
<title>Node9&#45;&gt;Node5</title>
<g id="a_edge20_Node000009_Node000005"><a xlink:title=" ">
<path fill="none" stroke="#63b8ff" d="M485.22,-109.94C451.58,-101.53 398.53,-88.24 343.26,-74.18"/>
<polygon fill="#63b8ff" stroke="#63b8ff" points="343.84,-70.72 333.29,-71.64 342.12,-77.5 343.84,-70.72"/>
</a>
</g>
</g>
<!-- Node10 -->
<g id="Node000010" class="node">
<title>Node10</title>
<g id="a_Node000010"><a xlink:title=" ">
<polygon fill="#e0e0e0" stroke="#999999" points="664.5,-19 614.5,-19 614.5,0 664.5,0 664.5,-19"/>
<text text-anchor="middle" x="639.5" y="-7" font-family="Helvetica,sans-Serif" font-size="10.00">cstdint</text>
</a>
</g>
</g>
<!-- Node9&#45;&gt;Node10 -->
<g id="edge12_Node000009_Node000010" class="edge">
<title>Node9&#45;&gt;Node10</title>
<g id="a_edge12_Node000009_Node000010"><a xlink:title=" ">
<path fill="none" stroke="#63b8ff" d="M562.62,-109.94C584.14,-103.52 608.86,-92.54 624.5,-74 634.89,-61.69 638.36,-43.47 639.4,-29.69"/>
<polygon fill="#63b8ff" stroke="#63b8ff" points="642.91,-29.53 639.8,-19.4 635.92,-29.26 642.91,-29.53"/>
</a>
</g>
</g>
<!-- Node11 -->
<g id="Node000011" class="node">
<title>Node11</title>
<g id="a_Node000011"><a xlink:title=" ">
<polygon fill="#e0e0e0" stroke="#999999" points="949.5,-74 893.5,-74 893.5,-55 949.5,-55 949.5,-74"/>
<text text-anchor="middle" x="921.5" y="-62" font-family="Helvetica,sans-Serif" font-size="10.00">iomanip</text>
</a>
</g>
</g>
<!-- Node9&#45;&gt;Node11 -->
<g id="edge14_Node000009_Node000011" class="edge">
<title>Node9&#45;&gt;Node11</title>
<g id="a_edge14_Node000009_Node000011"><a xlink:title=" ">
<path fill="none" stroke="#63b8ff" d="M611.39,-109.98C682.98,-102.72 785.02,-91.02 883.18,-74.07"/>
<polygon fill="#63b8ff" stroke="#63b8ff" points="884.03,-77.47 893.28,-72.3 882.83,-70.58 884.03,-77.47"/>
</a>
</g>
</g>
<!-- Node12 -->
<g id="Node000012" class="node">
<title>Node12</title>
<g id="a_Node000012"><a xlink:title=" ">
<polygon fill="#e0e0e0" stroke="#999999" points="479.5,-74 419.5,-74 419.5,-55 479.5,-55 479.5,-74"/>
<text text-anchor="middle" x="449.5" y="-62" font-family="Helvetica,sans-Serif" font-size="10.00">iostream</text>
</a>
</g>
</g>
<!-- Node9&#45;&gt;Node12 -->
<g id="edge15_Node000009_Node000012" class="edge">
<title>Node9&#45;&gt;Node12</title>
<g id="a_edge15_Node000009_Node000012"><a xlink:title=" ">
<path fill="none" stroke="#63b8ff" d="M508.25,-109.98C497.7,-102 481.7,-89.88 469.06,-80.31"/>
<polygon fill="#63b8ff" stroke="#63b8ff" points="471.04,-77.42 460.95,-74.17 466.81,-83 471.04,-77.42"/>
</a>
</g>
</g>
<!-- Node13 -->
<g id="Node000013" class="node">
<title>Node13</title>
<g id="a_Node000013"><a xlink:title=" ">
<polygon fill="#e0e0e0" stroke="#999999" points="541.5,-74 497.5,-74 497.5,-55 541.5,-55 541.5,-74"/>
<text text-anchor="middle" x="519.5" y="-62" font-family="Helvetica,sans-Serif" font-size="10.00">limits</text>
</a>
</g>
</g>
<!-- Node9&#45;&gt;Node13 -->
<g id="edge16_Node000009_Node000013" class="edge">
<title>Node9&#45;&gt;Node13</title>
<g id="a_edge16_Node000009_Node000013"><a xlink:title=" ">
<path fill="none" stroke="#63b8ff" d="M519.5,-109.75C519.5,-102.8 519.5,-92.85 519.5,-84.13"/>
<polygon fill="#63b8ff" stroke="#63b8ff" points="523,-84.09 519.5,-74.09 516,-84.09 523,-84.09"/>
</a>
</g>
</g>
<!-- Node14 -->
<g id="Node000014" class="node">
<title>Node14</title>
<g id="a_Node000014"><a xlink:title=" ">
<polygon fill="#e0e0e0" stroke="#999999" points="615.5,-74 559.5,-74 559.5,-55 615.5,-55 615.5,-74"/>
<text text-anchor="middle" x="587.5" y="-62" font-family="Helvetica,sans-Serif" font-size="10.00">sstream</text>
</a>
</g>
</g>
<!-- Node9&#45;&gt;Node14 -->
<g id="edge17_Node000009_Node000014" class="edge">
<title>Node9&#45;&gt;Node14</title>
<g id="a_edge17_Node000009_Node000014"><a xlink:title=" ">
<path fill="none" stroke="#63b8ff" d="M530.43,-109.98C540.58,-102.07 555.92,-90.11 568.15,-80.58"/>
<polygon fill="#63b8ff" stroke="#63b8ff" points="570.64,-83.08 576.38,-74.17 566.34,-77.56 570.64,-83.08"/>
</a>
</g>
</g>
<!-- Node15 -->
<g id="Node000015" class="node">
<title>Node15</title>
<g id="a_Node000015"><a xlink:title=" ">
<polygon fill="#e0e0e0" stroke="#999999" points="756,-19 683,-19 683,0 756,0 756,-19"/>
<text text-anchor="middle" x="719.5" y="-7" font-family="Helvetica,sans-Serif" font-size="10.00">string_view</text>
</a>
</g>
</g>
<!-- Node9&#45;&gt;Node15 -->
<g id="edge18_Node000009_Node000015" class="edge">
<title>Node9&#45;&gt;Node15</title>
<g id="a_edge18_Node000009_Node000015"><a xlink:title=" ">
<path fill="none" stroke="#63b8ff" d="M552.99,-109.96C578.76,-102.57 614.72,-90.49 643.5,-74 666.66,-60.73 689.68,-40.2 704.21,-26.1"/>
<polygon fill="#63b8ff" stroke="#63b8ff" points="706.72,-28.54 711.36,-19.01 701.8,-23.57 706.72,-28.54"/>
</a>
</g>
</g>
<!-- Node16 -->
<g id="Node000016" class="node">
<title>Node16</title>
<g id="a_Node000016"><a xlink:href="../../d4/d9e/FieldFlags_8hpp.html" target="_top" xlink:title="Common enums and utilities for protocol field names and flags.">
<polygon fill="white" stroke="#666666" points="876,-74 709,-74 709,-55 876,-55 876,-74"/>
<text text-anchor="middle" x="792.5" y="-62" font-family="Helvetica,sans-Serif" font-size="10.00">prototypes/field/FieldFlags.hpp</text>
</a>
</g>
</g>
<!-- Node9&#45;&gt;Node16 -->
<g id="edge21_Node000009_Node000016" class="edge">
<title>Node9&#45;&gt;Node16</title>
<g id="a_edge21_Node000009_Node000016"><a xlink:title=" ">
<path fill="none" stroke="#63b8ff" d="M563.36,-109.98C610.98,-100.74 687.08,-85.97 738.38,-76.01"/>
<polygon fill="#63b8ff" stroke="#63b8ff" points="739.14,-79.42 748.29,-74.08 737.81,-72.55 739.14,-79.42"/>
</a>
</g>
</g>
<!-- Node16&#45;&gt;Node10 -->
<g id="edge23_Node000016_Node000010" class="edge">
<title>Node16&#45;&gt;Node10</title>
<g id="a_edge23_Node000016_Node000010"><a xlink:title=" ">
<path fill="none" stroke="#63b8ff" d="M767.92,-54.98C742.45,-46.16 702.46,-32.31 673.87,-22.41"/>
<polygon fill="#63b8ff" stroke="#63b8ff" points="674.87,-19.05 664.27,-19.08 672.58,-25.66 674.87,-19.05"/>
</a>
</g>
</g>
<!-- Node16&#45;&gt;Node15 -->
<g id="edge25_Node000016_Node000015" class="edge">
<title>Node16&#45;&gt;Node15</title>
<g id="a_edge25_Node000016_Node000015"><a xlink:title=" ">
<path fill="none" stroke="#63b8ff" d="M780.77,-54.98C769.77,-47 753.08,-34.88 739.9,-25.31"/>
<polygon fill="#63b8ff" stroke="#63b8ff" points="741.59,-22.21 731.44,-19.17 737.48,-27.88 741.59,-22.21"/>
</a>
</g>
</g>
<!-- Node17 -->
<g id="Node000017" class="node">
<title>Node17</title>
<g id="a_Node000017"><a xlink:title=" ">
<polygon fill="#e0e0e0" stroke="#999999" points="816.5,-19 774.5,-19 774.5,0 816.5,0 816.5,-19"/>
<text text-anchor="middle" x="795.5" y="-7" font-family="Helvetica,sans-Serif" font-size="10.00">array</text>
</a>
</g>
</g>
<!-- Node16&#45;&gt;Node17 -->
<g id="edge22_Node000016_Node000017" class="edge">
<title>Node16&#45;&gt;Node17</title>
<g id="a_edge22_Node000016_Node000017"><a xlink:title=" ">
<path fill="none" stroke="#63b8ff" d="M793,-54.75C793.39,-47.8 793.95,-37.85 794.45,-29.13"/>
<polygon fill="#63b8ff" stroke="#63b8ff" points="797.94,-29.27 795.01,-19.09 790.95,-28.88 797.94,-29.27"/>
</a>
</g>
</g>
<!-- Node18 -->
<g id="Node000018" class="node">
<title>Node18</title>
<g id="a_Node000018"><a xlink:title=" ">
<polygon fill="#e0e0e0" stroke="#999999" points="892,-19 835,-19 835,0 892,0 892,-19"/>
<text text-anchor="middle" x="863.5" y="-7" font-family="Helvetica,sans-Serif" font-size="10.00">ostream</text>
</a>
</g>
</g>
<!-- Node16&#45;&gt;Node18 -->
<g id="edge24_Node000016_Node000018" class="edge">
<title>Node16&#45;&gt;Node18</title>
<g id="a_edge24_Node000016_Node000018"><a xlink:title=" ">
<path fill="none" stroke="#63b8ff" d="M803.91,-54.98C814.61,-47 830.84,-34.88 843.66,-25.31"/>
<polygon fill="#63b8ff" stroke="#63b8ff" points="845.97,-27.96 851.89,-19.17 841.78,-22.35 845.97,-27.96"/>
</a>
</g>
</g>
</g>
</svg>
