<?xml version="1.0" encoding="UTF-8" standalone="no"?>
<!DOCTYPE svg PUBLIC "-//W3C//DTD SVG 1.1//EN"
 "http://www.w3.org/Graphics/SVG/1.1/DTD/svg11.dtd">
<!-- Generated by graphviz version 2.43.0 (0)
 -->
<!-- Title: ProtocolNoSysEndpoint.hpp Pages: 1 -->
<svg width="1622pt" height="390pt"
 viewBox="0.00 0.00 1621.50 390.00" xmlns="http://www.w3.org/2000/svg" xmlns:xlink="http://www.w3.org/1999/xlink">
<g id="graph0" class="graph" transform="scale(1 1) rotate(0) translate(4 386)">
<title>ProtocolNoSysEndpoint.hpp</title>
<!-- Node1 -->
<g id="Node000001" class="node">
<title>Node1</title>
<g id="a_Node000001"><a xlink:title=" ">
<polygon fill="#999999" stroke="#666666" points="267,-382 116,-382 116,-363 267,-363 267,-382"/>
<text text-anchor="middle" x="191.5" y="-370" font-family="Helvetica,sans-Serif" font-size="10.00">ProtocolNoSysEndpoint.hpp</text>
</a>
</g>
</g>
<!-- Node2 -->
<g id="Node000002" class="node">
<title>Node2</title>
<g id="a_Node000002"><a xlink:title=" ">
<polygon fill="#e0e0e0" stroke="#999999" points="47,-321.5 0,-321.5 0,-302.5 47,-302.5 47,-321.5"/>
<text text-anchor="middle" x="23.5" y="-309.5" font-family="Helvetica,sans-Serif" font-size="10.00">deque</text>
</a>
</g>
</g>
<!-- Node1&#45;&gt;Node2 -->
<g id="edge1_Node000001_Node000002" class="edge">
<title>Node1&#45;&gt;Node2</title>
<g id="a_edge1_Node000001_Node000002"><a xlink:title=" ">
<path fill="none" stroke="#63b8ff" d="M166.03,-362.98C139.78,-354.14 97.69,-339.86 61.5,-327 59.66,-326.35 57.78,-325.67 55.87,-324.98"/>
<polygon fill="#63b8ff" stroke="#63b8ff" points="56.97,-321.66 46.38,-321.53 54.57,-328.24 56.97,-321.66"/>
</a>
</g>
</g>
<!-- Node3 -->
<g id="Node000003" class="node">
<title>Node3</title>
<g id="a_Node000003"><a xlink:title=" ">
<polygon fill="#e0e0e0" stroke="#999999" points="163,-189.5 98,-189.5 98,-170.5 163,-170.5 163,-189.5"/>
<text text-anchor="middle" x="130.5" y="-177.5" font-family="Helvetica,sans-Serif" font-size="10.00">functional</text>
</a>
</g>
</g>
<!-- Node1&#45;&gt;Node3 -->
<g id="edge2_Node000001_Node000003" class="edge">
<title>Node1&#45;&gt;Node3</title>
<g id="a_edge2_Node000001_Node000003"><a xlink:title=" ">
<path fill="none" stroke="#63b8ff" d="M188.53,-362.93C182.12,-344.4 166.62,-299.18 154.5,-261 147.87,-240.11 140.71,-216.01 135.95,-199.76"/>
<polygon fill="#63b8ff" stroke="#63b8ff" points="139.23,-198.53 133.07,-189.91 132.51,-200.49 139.23,-198.53"/>
</a>
</g>
</g>
<!-- Node4 -->
<g id="Node000004" class="node">
<title>Node4</title>
<g id="a_Node000004"><a xlink:href="../../da/d06/RxContainer_8hpp.html" target="_top" xlink:title="Stateful frame parsing container that incrementally matches and fills protocol fields from a byte str...">
<polygon fill="white" stroke="#666666" points="581.5,-327 463.5,-327 463.5,-297 581.5,-297 581.5,-327"/>
<text text-anchor="start" x="471.5" y="-315" font-family="Helvetica,sans-Serif" font-size="10.00">prototypes/container</text>
<text text-anchor="middle" x="522.5" y="-304" font-family="Helvetica,sans-Serif" font-size="10.00">/RxContainer.hpp</text>
</a>
</g>
</g>
<!-- Node1&#45;&gt;Node4 -->
<g id="edge3_Node000001_Node000004" class="edge">
<title>Node1&#45;&gt;Node4</title>
<g id="a_edge3_Node000001_Node000004"><a xlink:title=" ">
<path fill="none" stroke="#63b8ff" d="M239.63,-362.99C295.88,-353.05 389.4,-336.52 453.39,-325.21"/>
<polygon fill="#63b8ff" stroke="#63b8ff" points="454.16,-328.63 463.4,-323.44 452.95,-321.74 454.16,-328.63"/>
</a>
</g>
</g>
<!-- Node31 -->
<g id="Node000031" class="node">
<title>Node31</title>
<g id="a_Node000031"><a xlink:href="../../d9/d32/TxContainer_8hpp.html" target="_top" xlink:title="TX&#45;side container that builds protocol frames from a set of fields.">
<polygon fill="white" stroke="#666666" points="385.5,-327 267.5,-327 267.5,-297 385.5,-297 385.5,-327"/>
<text text-anchor="start" x="275.5" y="-315" font-family="Helvetica,sans-Serif" font-size="10.00">prototypes/container</text>
<text text-anchor="middle" x="326.5" y="-304" font-family="Helvetica,sans-Serif" font-size="10.00">/TxContainer.hpp</text>
</a>
</g>
</g>
<!-- Node1&#45;&gt;Node31 -->
<g id="edge45_Node000001_Node000031" class="edge">
<title>Node1&#45;&gt;Node31</title>
<g id="a_edge45_Node000001_Node000031"><a xlink:title=" ">
<path fill="none" stroke="#63b8ff" d="M211.13,-362.99C230.3,-354.68 260.1,-341.78 284.6,-331.16"/>
<polygon fill="#63b8ff" stroke="#63b8ff" points="286.26,-334.25 294.04,-327.06 283.48,-327.83 286.26,-334.25"/>
</a>
</g>
</g>
<!-- Node4&#45;&gt;Node3 -->
<g id="edge6_Node000004_Node000003" class="edge">
<title>Node4&#45;&gt;Node3</title>
<g id="a_edge6_Node000004_Node000003"><a xlink:title=" ">
<path fill="none" stroke="#63b8ff" d="M463.21,-304.64C373.57,-294.66 211.52,-274.99 188.5,-261 164.38,-246.34 147.31,-217.48 138.18,-198.73"/>
<polygon fill="#63b8ff" stroke="#63b8ff" points="141.3,-197.12 133.94,-189.5 134.94,-200.05 141.3,-197.12"/>
</a>
</g>
</g>
<!-- Node5 -->
<g id="Node000005" class="node">
<title>Node5</title>
<g id="a_Node000005"><a xlink:title=" ">
<polygon fill="#e0e0e0" stroke="#999999" points="475.5,-255.5 411.5,-255.5 411.5,-236.5 475.5,-236.5 475.5,-255.5"/>
<text text-anchor="middle" x="443.5" y="-243.5" font-family="Helvetica,sans-Serif" font-size="10.00">algorithm</text>
</a>
</g>
</g>
<!-- Node4&#45;&gt;Node5 -->
<g id="edge4_Node000004_Node000005" class="edge">
<title>Node4&#45;&gt;Node5</title>
<g id="a_edge4_Node000004_Node000005"><a xlink:title=" ">
<path fill="none" stroke="#63b8ff" d="M504.97,-296.8C492.29,-286.53 475.18,-272.67 462.24,-262.18"/>
<polygon fill="#63b8ff" stroke="#63b8ff" points="464.39,-259.42 454.42,-255.84 459.98,-264.86 464.39,-259.42"/>
</a>
</g>
</g>
<!-- Node6 -->
<g id="Node000006" class="node">
<title>Node6</title>
<g id="a_Node000006"><a xlink:title=" ">
<polygon fill="#e0e0e0" stroke="#999999" points="1613.5,-74 1563.5,-74 1563.5,-55 1613.5,-55 1613.5,-74"/>
<text text-anchor="middle" x="1588.5" y="-62" font-family="Helvetica,sans-Serif" font-size="10.00">cstring</text>
</a>
</g>
</g>
<!-- Node4&#45;&gt;Node6 -->
<g id="edge5_Node000004_Node000006" class="edge">
<title>Node4&#45;&gt;Node6</title>
<g id="a_edge5_Node000004_Node000006"><a xlink:title=" ">
<path fill="none" stroke="#63b8ff" d="M581.87,-308.1C713.79,-300.38 1040.18,-274.19 1300.5,-195 1402.53,-163.96 1515.8,-105.32 1564.31,-78.94"/>
<polygon fill="#63b8ff" stroke="#63b8ff" points="1566.03,-81.99 1573.12,-74.12 1562.67,-75.85 1566.03,-81.99"/>
</a>
</g>
</g>
<!-- Node7 -->
<g id="Node000007" class="node">
<title>Node7</title>
<g id="a_Node000007"><a xlink:title=" ">
<polygon fill="#e0e0e0" stroke="#999999" points="487.5,-189.5 429.5,-189.5 429.5,-170.5 487.5,-170.5 487.5,-189.5"/>
<text text-anchor="middle" x="458.5" y="-177.5" font-family="Helvetica,sans-Serif" font-size="10.00">memory</text>
</a>
</g>
</g>
<!-- Node4&#45;&gt;Node7 -->
<g id="edge7_Node000004_Node000007" class="edge">
<title>Node4&#45;&gt;Node7</title>
<g id="a_edge7_Node000004_Node000007"><a xlink:title=" ">
<path fill="none" stroke="#63b8ff" d="M524.81,-296.84C526.85,-280.15 528.05,-252.02 517.5,-231 509.99,-216.03 495.79,-203.78 483.21,-195.15"/>
<polygon fill="#63b8ff" stroke="#63b8ff" points="484.75,-191.98 474.45,-189.52 480.97,-197.87 484.75,-191.98"/>
</a>
</g>
</g>
<!-- Node8 -->
<g id="Node000008" class="node">
<title>Node8</title>
<g id="a_Node000008"><a xlink:title=" ">
<polygon fill="#e0e0e0" stroke="#999999" points="600,-74 559,-74 559,-55 600,-55 600,-74"/>
<text text-anchor="middle" x="579.5" y="-62" font-family="Helvetica,sans-Serif" font-size="10.00">tuple</text>
</a>
</g>
</g>
<!-- Node4&#45;&gt;Node8 -->
<g id="edge8_Node000004_Node000008" class="edge">
<title>Node4&#45;&gt;Node8</title>
<g id="a_edge8_Node000004_Node000008"><a xlink:title=" ">
<path fill="none" stroke="#63b8ff" d="M526.75,-296.67C529.57,-286.74 533.17,-273.16 535.5,-261 548.26,-194.57 533.32,-174.24 554.5,-110 557.62,-100.55 562.81,-90.82 567.66,-82.88"/>
<polygon fill="#63b8ff" stroke="#63b8ff" points="570.77,-84.53 573.24,-74.23 564.88,-80.73 570.77,-84.53"/>
</a>
</g>
</g>
<!-- Node9 -->
<g id="Node000009" class="node">
<title>Node9</title>
<g id="a_Node000009"><a xlink:href="../../d1/dcf/CustomSpan_8hpp.html" target="_top" xlink:title=" ">
<polygon fill="white" stroke="#666666" points="411,-189.5 312,-189.5 312,-170.5 411,-170.5 411,-189.5"/>
<text text-anchor="middle" x="361.5" y="-177.5" font-family="Helvetica,sans-Serif" font-size="10.00">CustomSpan.hpp</text>
</a>
</g>
</g>
<!-- Node4&#45;&gt;Node9 -->
<g id="edge9_Node000004_Node000009" class="edge">
<title>Node4&#45;&gt;Node9</title>
<g id="a_edge9_Node000004_Node000009"><a xlink:title=" ">
<path fill="none" stroke="#63b8ff" d="M519.21,-296.98C514.4,-279.38 503.84,-249.26 484.5,-231 464.54,-212.15 436.53,-200.02 412.28,-192.43"/>
<polygon fill="#63b8ff" stroke="#63b8ff" points="413.09,-189.02 402.51,-189.55 411.11,-195.74 413.09,-189.02"/>
</a>
</g>
</g>
<!-- Node12 -->
<g id="Node000012" class="node">
<title>Node12</title>
<g id="a_Node000012"><a xlink:href="../../d8/daa/FieldContainer_8hpp.html" target="_top" xlink:title="Defines the FieldContainer class template, a generic container for protocol fields.">
<polygon fill="white" stroke="#666666" points="902.5,-261 784.5,-261 784.5,-231 902.5,-231 902.5,-261"/>
<text text-anchor="start" x="792.5" y="-249" font-family="Helvetica,sans-Serif" font-size="10.00">prototypes/container</text>
<text text-anchor="middle" x="843.5" y="-238" font-family="Helvetica,sans-Serif" font-size="10.00">/FieldContainer.hpp</text>
</a>
</g>
</g>
<!-- Node4&#45;&gt;Node12 -->
<g id="edge12_Node000004_Node000012" class="edge">
<title>Node4&#45;&gt;Node12</title>
<g id="a_edge12_Node000004_Node000012"><a xlink:title=" ">
<path fill="none" stroke="#63b8ff" d="M581.75,-299.19C636.18,-288.33 716.87,-272.25 774.25,-260.81"/>
<polygon fill="#63b8ff" stroke="#63b8ff" points="775.2,-264.19 784.32,-258.8 773.83,-257.32 775.2,-264.19"/>
</a>
</g>
</g>
<!-- Node10 -->
<g id="Node000010" class="node">
<title>Node10</title>
<g id="a_Node000010"><a xlink:title=" ">
<polygon fill="#e0e0e0" stroke="#999999" points="387.5,-129 335.5,-129 335.5,-110 387.5,-110 387.5,-129"/>
<text text-anchor="middle" x="361.5" y="-117" font-family="Helvetica,sans-Serif" font-size="10.00">cassert</text>
</a>
</g>
</g>
<!-- Node9&#45;&gt;Node10 -->
<g id="edge10_Node000009_Node000010" class="edge">
<title>Node9&#45;&gt;Node10</title>
<g id="a_edge10_Node000009_Node000010"><a xlink:title=" ">
<path fill="none" stroke="#63b8ff" d="M361.5,-170.37C361.5,-162.25 361.5,-149.81 361.5,-139.39"/>
<polygon fill="#63b8ff" stroke="#63b8ff" points="365,-139.17 361.5,-129.17 358,-139.17 365,-139.17"/>
</a>
</g>
</g>
<!-- Node11 -->
<g id="Node000011" class="node">
<title>Node11</title>
<g id="a_Node000011"><a xlink:title=" ">
<polygon fill="#e0e0e0" stroke="#999999" points="742,-74 689,-74 689,-55 742,-55 742,-74"/>
<text text-anchor="middle" x="715.5" y="-62" font-family="Helvetica,sans-Serif" font-size="10.00">cstddef</text>
</a>
</g>
</g>
<!-- Node9&#45;&gt;Node11 -->
<g id="edge11_Node000009_Node000011" class="edge">
<title>Node9&#45;&gt;Node11</title>
<g id="a_edge11_Node000009_Node000011"><a xlink:title=" ">
<path fill="none" stroke="#63b8ff" d="M388.11,-170.47C450.64,-150.42 607.05,-100.27 678.65,-77.31"/>
<polygon fill="#63b8ff" stroke="#63b8ff" points="680.13,-80.52 688.58,-74.13 677.99,-73.85 680.13,-80.52"/>
</a>
</g>
</g>
<!-- Node12&#45;&gt;Node8 -->
<g id="edge13_Node000012_Node000008" class="edge">
<title>Node12&#45;&gt;Node8</title>
<g id="a_edge13_Node000012_Node000008"><a xlink:title=" ">
<path fill="none" stroke="#63b8ff" d="M784.24,-242.63C712.77,-238.39 598.9,-226.72 572.5,-195 546.3,-163.53 560.86,-111.42 571.49,-83.88"/>
<polygon fill="#63b8ff" stroke="#63b8ff" points="574.85,-84.89 575.41,-74.31 568.38,-82.24 574.85,-84.89"/>
</a>
</g>
</g>
<!-- Node13 -->
<g id="Node000013" class="node">
<title>Node13</title>
<g id="a_Node000013"><a xlink:title=" ">
<polygon fill="#e0e0e0" stroke="#999999" points="863,-74 794,-74 794,-55 863,-55 863,-74"/>
<text text-anchor="middle" x="828.5" y="-62" font-family="Helvetica,sans-Serif" font-size="10.00">type_traits</text>
</a>
</g>
</g>
<!-- Node12&#45;&gt;Node13 -->
<g id="edge14_Node000012_Node000013" class="edge">
<title>Node12&#45;&gt;Node13</title>
<g id="a_edge14_Node000012_Node000013"><a xlink:title=" ">
<path fill="none" stroke="#63b8ff" d="M842.32,-230.91C839.64,-198.85 833.09,-120.38 830.07,-84.26"/>
<polygon fill="#63b8ff" stroke="#63b8ff" points="833.54,-83.81 829.22,-74.13 826.57,-84.39 833.54,-83.81"/>
</a>
</g>
</g>
<!-- Node14 -->
<g id="Node000014" class="node">
<title>Node14</title>
<g id="a_Node000014"><a xlink:title=" ">
<polygon fill="#e0e0e0" stroke="#999999" points="965,-189.5 872,-189.5 872,-170.5 965,-170.5 965,-189.5"/>
<text text-anchor="middle" x="918.5" y="-177.5" font-family="Helvetica,sans-Serif" font-size="10.00">unordered_map</text>
</a>
</g>
</g>
<!-- Node12&#45;&gt;Node14 -->
<g id="edge15_Node000012_Node000014" class="edge">
<title>Node12&#45;&gt;Node14</title>
<g id="a_edge15_Node000012_Node000014"><a xlink:title=" ">
<path fill="none" stroke="#63b8ff" d="M860.14,-230.8C872.07,-220.62 888.11,-206.93 900.36,-196.48"/>
<polygon fill="#63b8ff" stroke="#63b8ff" points="902.8,-199 908.14,-189.84 898.26,-193.67 902.8,-199"/>
</a>
</g>
</g>
<!-- Node15 -->
<g id="Node000015" class="node">
<title>Node15</title>
<g id="a_Node000015"><a xlink:title=" ">
<polygon fill="#e0e0e0" stroke="#999999" points="737,-129 692,-129 692,-110 737,-110 737,-129"/>
<text text-anchor="middle" x="714.5" y="-117" font-family="Helvetica,sans-Serif" font-size="10.00">utility</text>
</a>
</g>
</g>
<!-- Node12&#45;&gt;Node15 -->
<g id="edge16_Node000012_Node000015" class="edge">
<title>Node12&#45;&gt;Node15</title>
<g id="a_edge16_Node000012_Node000015"><a xlink:title=" ">
<path fill="none" stroke="#63b8ff" d="M828.7,-230.72C804.34,-207.2 755.96,-160.52 730.71,-136.14"/>
<polygon fill="#63b8ff" stroke="#63b8ff" points="733.01,-133.5 723.38,-129.07 728.14,-138.53 733.01,-133.5"/>
</a>
</g>
</g>
<!-- Node16 -->
<g id="Node000016" class="node">
<title>Node16</title>
<g id="a_Node000016"><a xlink:title=" ">
<polygon fill="#e0e0e0" stroke="#999999" points="1093.5,-195 983.5,-195 983.5,-165 1093.5,-165 1093.5,-195"/>
<text text-anchor="start" x="991.5" y="-183" font-family="Helvetica,sans-Serif" font-size="10.00">libraries/crc/crcSoft</text>
<text text-anchor="middle" x="1038.5" y="-172" font-family="Helvetica,sans-Serif" font-size="10.00">/CrcSoft.hpp</text>
</a>
</g>
</g>
<!-- Node12&#45;&gt;Node16 -->
<g id="edge17_Node000012_Node000016" class="edge">
<title>Node12&#45;&gt;Node16</title>
<g id="a_edge17_Node000012_Node000016"><a xlink:title=" ">
<path fill="none" stroke="#63b8ff" d="M886.29,-230.95C915.63,-221.33 954.74,-208.49 985.97,-198.24"/>
<polygon fill="#63b8ff" stroke="#63b8ff" points="987.4,-201.46 995.81,-195.01 985.21,-194.81 987.4,-201.46"/>
</a>
</g>
</g>
<!-- Node17 -->
<g id="Node000017" class="node">
<title>Node17</title>
<g id="a_Node000017"><a xlink:href="../../d7/d91/DataField_8hpp.html" target="_top" xlink:title="Variant DATA field that maps protocol IDs to payload types at compile time.">
<polygon fill="white" stroke="#666666" points="1275.5,-189.5 1111.5,-189.5 1111.5,-170.5 1275.5,-170.5 1275.5,-189.5"/>
<text text-anchor="middle" x="1193.5" y="-177.5" font-family="Helvetica,sans-Serif" font-size="10.00">prototypes/field/DataField.hpp</text>
</a>
</g>
</g>
<!-- Node12&#45;&gt;Node17 -->
<g id="edge18_Node000012_Node000017" class="edge">
<title>Node12&#45;&gt;Node17</title>
<g id="a_edge18_Node000012_Node000017"><a xlink:title=" ">
<path fill="none" stroke="#63b8ff" d="M902.87,-234.14C968.32,-222.18 1072.81,-203.07 1137.06,-191.32"/>
<polygon fill="#63b8ff" stroke="#63b8ff" points="1137.8,-194.74 1147.01,-189.5 1136.54,-187.86 1137.8,-194.74"/>
</a>
</g>
</g>
<!-- Node21 -->
<g id="Node000021" class="node">
<title>Node21</title>
<g id="a_Node000021"><a xlink:href="../../df/db6/FieldPrototype_8hpp.html" target="_top" xlink:title="FieldPrototype template for describing and handling protocol fields.">
<polygon fill="white" stroke="#666666" points="1287.5,-129 1099.5,-129 1099.5,-110 1287.5,-110 1287.5,-129"/>
<text text-anchor="middle" x="1193.5" y="-117" font-family="Helvetica,sans-Serif" font-size="10.00">prototypes/field/FieldPrototype.hpp</text>
</a>
</g>
</g>
<!-- Node12&#45;&gt;Node21 -->
<g id="edge44_Node000012_Node000021" class="edge">
<title>Node12&#45;&gt;Node21</title>
<g id="a_edge44_Node000012_Node000021"><a xlink:title=" ">
<path fill="none" stroke="#63b8ff" d="M902.86,-242.59C1017.32,-237.33 1259.51,-222.98 1284.5,-195 1293.38,-185.06 1291.56,-176.31 1284.5,-165 1274.85,-149.54 1258.09,-139.3 1241.57,-132.59"/>
<polygon fill="#63b8ff" stroke="#63b8ff" points="1242.52,-129.21 1231.92,-129.04 1240.1,-135.78 1242.52,-129.21"/>
</a>
</g>
</g>
<!-- Node17&#45;&gt;Node6 -->
<g id="edge19_Node000017_Node000006" class="edge">
<title>Node17&#45;&gt;Node6</title>
<g id="a_edge19_Node000017_Node000006"><a xlink:title=" ">
<path fill="none" stroke="#63b8ff" d="M1223.19,-170.47C1294.88,-149.87 1477.15,-97.49 1553.76,-75.48"/>
<polygon fill="#63b8ff" stroke="#63b8ff" points="1554.77,-78.83 1563.41,-72.71 1552.84,-72.11 1554.77,-78.83"/>
</a>
</g>
</g>
<!-- Node17&#45;&gt;Node8 -->
<g id="edge20_Node000017_Node000008" class="edge">
<title>Node17&#45;&gt;Node8</title>
<g id="a_edge20_Node000017_Node000008"><a xlink:title=" ">
<path fill="none" stroke="#63b8ff" d="M1138.09,-170.48C1045.39,-156.22 868.91,-129.08 868.5,-129 773.78,-111.33 662.71,-85.46 610.1,-72.9"/>
<polygon fill="#63b8ff" stroke="#63b8ff" points="610.62,-69.42 600.08,-70.5 608.99,-76.23 610.62,-69.42"/>
</a>
</g>
</g>
<!-- Node17&#45;&gt;Node13 -->
<g id="edge21_Node000017_Node000013" class="edge">
<title>Node17&#45;&gt;Node13</title>
<g id="a_edge21_Node000017_Node000013"><a xlink:title=" ">
<path fill="none" stroke="#63b8ff" d="M1139.07,-170.46C1057.57,-157.55 912.16,-134.05 901.5,-129 877.9,-117.81 856.04,-96.79 842.51,-82.01"/>
<polygon fill="#63b8ff" stroke="#63b8ff" points="844.8,-79.32 835.56,-74.14 839.56,-83.95 844.8,-79.32"/>
</a>
</g>
</g>
<!-- Node18 -->
<g id="Node000018" class="node">
<title>Node18</title>
<g id="a_Node000018"><a xlink:title=" ">
<polygon fill="#e0e0e0" stroke="#999999" points="997,-74 950,-74 950,-55 997,-55 997,-74"/>
<text text-anchor="middle" x="973.5" y="-62" font-family="Helvetica,sans-Serif" font-size="10.00">vector</text>
</a>
</g>
</g>
<!-- Node17&#45;&gt;Node18 -->
<g id="edge22_Node000017_Node000018" class="edge">
<title>Node17&#45;&gt;Node18</title>
<g id="a_edge22_Node000017_Node000018"><a xlink:title=" ">
<path fill="none" stroke="#63b8ff" d="M1175.14,-170.4C1154.45,-160.63 1119.85,-144.08 1090.5,-129 1058.16,-112.38 1021.38,-92.21 997.83,-79.12"/>
<polygon fill="#63b8ff" stroke="#63b8ff" points="999.34,-75.96 988.9,-74.15 995.93,-82.07 999.34,-75.96"/>
</a>
</g>
</g>
<!-- Node19 -->
<g id="Node000019" class="node">
<title>Node19</title>
<g id="a_Node000019"><a xlink:href="../../d7/d38/UniqueVariant_8hpp.html" target="_top" xlink:title=" ">
<polygon fill="white" stroke="#666666" points="1017,-129 910,-129 910,-110 1017,-110 1017,-129"/>
<text text-anchor="middle" x="963.5" y="-117" font-family="Helvetica,sans-Serif" font-size="10.00">UniqueVariant.hpp</text>
</a>
</g>
</g>
<!-- Node17&#45;&gt;Node19 -->
<g id="edge23_Node000017_Node000019" class="edge">
<title>Node17&#45;&gt;Node19</title>
<g id="a_edge23_Node000017_Node000019"><a xlink:title=" ">
<path fill="none" stroke="#63b8ff" d="M1160.06,-170.49C1119.6,-160.2 1051.4,-142.86 1006.92,-131.54"/>
<polygon fill="#63b8ff" stroke="#63b8ff" points="1007.54,-128.09 996.98,-129.02 1005.81,-134.87 1007.54,-128.09"/>
</a>
</g>
</g>
<!-- Node17&#45;&gt;Node21 -->
<g id="edge29_Node000017_Node000021" class="edge">
<title>Node17&#45;&gt;Node21</title>
<g id="a_edge29_Node000017_Node000021"><a xlink:title=" ">
<path fill="none" stroke="#63b8ff" d="M1193.5,-170.37C1193.5,-162.25 1193.5,-149.81 1193.5,-139.39"/>
<polygon fill="#63b8ff" stroke="#63b8ff" points="1197,-139.17 1193.5,-129.17 1190,-139.17 1197,-139.17"/>
</a>
</g>
</g>
<!-- Node19&#45;&gt;Node8 -->
<g id="edge25_Node000019_Node000008" class="edge">
<title>Node19&#45;&gt;Node8</title>
<g id="a_edge25_Node000019_Node000008"><a xlink:title=" ">
<path fill="none" stroke="#63b8ff" d="M909.7,-111.07C827.97,-99.79 675.17,-78.7 610.1,-69.72"/>
<polygon fill="#63b8ff" stroke="#63b8ff" points="610.46,-66.24 600.08,-68.34 609.51,-73.17 610.46,-66.24"/>
</a>
</g>
</g>
<!-- Node19&#45;&gt;Node11 -->
<g id="edge24_Node000019_Node000011" class="edge">
<title>Node19&#45;&gt;Node11</title>
<g id="a_edge24_Node000019_Node000011"><a xlink:title=" ">
<path fill="none" stroke="#63b8ff" d="M923.65,-109.98C876.3,-99.86 797.95,-83.12 752.08,-73.32"/>
<polygon fill="#63b8ff" stroke="#63b8ff" points="752.76,-69.88 742.25,-71.22 751.3,-76.73 752.76,-69.88"/>
</a>
</g>
</g>
<!-- Node19&#45;&gt;Node13 -->
<g id="edge26_Node000019_Node000013" class="edge">
<title>Node19&#45;&gt;Node13</title>
<g id="a_edge26_Node000019_Node000013"><a xlink:title=" ">
<path fill="none" stroke="#63b8ff" d="M941.81,-109.98C919.7,-101.3 885.18,-87.75 860.05,-77.88"/>
<polygon fill="#63b8ff" stroke="#63b8ff" points="861.17,-74.57 850.58,-74.17 858.61,-81.08 861.17,-74.57"/>
</a>
</g>
</g>
<!-- Node19&#45;&gt;Node18 -->
<g id="edge28_Node000019_Node000018" class="edge">
<title>Node19&#45;&gt;Node18</title>
<g id="a_edge28_Node000019_Node000018"><a xlink:title=" ">
<path fill="none" stroke="#63b8ff" d="M965.15,-109.75C966.46,-102.8 968.34,-92.85 969.98,-84.13"/>
<polygon fill="#63b8ff" stroke="#63b8ff" points="973.46,-84.56 971.88,-74.09 966.59,-83.27 973.46,-84.56"/>
</a>
</g>
</g>
<!-- Node20 -->
<g id="Node000020" class="node">
<title>Node20</title>
<g id="a_Node000020"><a xlink:title=" ">
<polygon fill="#e0e0e0" stroke="#999999" points="932,-74 881,-74 881,-55 932,-55 932,-74"/>
<text text-anchor="middle" x="906.5" y="-62" font-family="Helvetica,sans-Serif" font-size="10.00">variant</text>
</a>
</g>
</g>
<!-- Node19&#45;&gt;Node20 -->
<g id="edge27_Node000019_Node000020" class="edge">
<title>Node19&#45;&gt;Node20</title>
<g id="a_edge27_Node000019_Node000020"><a xlink:title=" ">
<path fill="none" stroke="#63b8ff" d="M954.34,-109.98C946,-102.23 933.47,-90.58 923.32,-81.14"/>
<polygon fill="#63b8ff" stroke="#63b8ff" points="925.53,-78.42 915.82,-74.17 920.76,-83.54 925.53,-78.42"/>
</a>
</g>
</g>
<!-- Node21&#45;&gt;Node6 -->
<g id="edge31_Node000021_Node000006" class="edge">
<title>Node21&#45;&gt;Node6</title>
<g id="a_edge31_Node000021_Node000006"><a xlink:title=" ">
<path fill="none" stroke="#63b8ff" d="M1287.86,-110.06C1358.55,-102.99 1457.78,-91.5 1553.48,-73.98"/>
<polygon fill="#63b8ff" stroke="#63b8ff" points="1554.13,-77.42 1563.32,-72.16 1552.85,-70.54 1554.13,-77.42"/>
</a>
</g>
</g>
<!-- Node21&#45;&gt;Node13 -->
<g id="edge37_Node000021_Node000013" class="edge">
<title>Node21&#45;&gt;Node13</title>
<g id="a_edge37_Node000021_Node000013"><a xlink:title=" ">
<path fill="none" stroke="#63b8ff" d="M1124.15,-109.97C1061.31,-101.99 965.94,-89.27 873.18,-74.03"/>
<polygon fill="#63b8ff" stroke="#63b8ff" points="873.49,-70.53 863.06,-72.36 872.35,-77.44 873.49,-70.53"/>
</a>
</g>
</g>
<!-- Node21&#45;&gt;Node18 -->
<g id="edge38_Node000021_Node000018" class="edge">
<title>Node21&#45;&gt;Node18</title>
<g id="a_edge38_Node000021_Node000018"><a xlink:title=" ">
<path fill="none" stroke="#63b8ff" d="M1156.55,-109.92C1120.86,-101.58 1065.02,-88.42 1007.31,-74.17"/>
<polygon fill="#63b8ff" stroke="#63b8ff" points="1007.83,-70.69 997.28,-71.68 1006.15,-77.48 1007.83,-70.69"/>
</a>
</g>
</g>
<!-- Node22 -->
<g id="Node000022" class="node">
<title>Node22</title>
<g id="a_Node000022"><a xlink:title=" ">
<polygon fill="#e0e0e0" stroke="#999999" points="1260.5,-19 1210.5,-19 1210.5,0 1260.5,0 1260.5,-19"/>
<text text-anchor="middle" x="1235.5" y="-7" font-family="Helvetica,sans-Serif" font-size="10.00">cstdint</text>
</a>
</g>
</g>
<!-- Node21&#45;&gt;Node22 -->
<g id="edge30_Node000021_Node000022" class="edge">
<title>Node21&#45;&gt;Node22</title>
<g id="a_edge30_Node000021_Node000022"><a xlink:title=" ">
<path fill="none" stroke="#63b8ff" d="M1199.96,-109.74C1206.07,-101.07 1215.09,-87.21 1220.5,-74 1226.41,-59.57 1230.3,-42.29 1232.64,-29.41"/>
<polygon fill="#63b8ff" stroke="#63b8ff" points="1236.11,-29.83 1234.3,-19.4 1229.21,-28.69 1236.11,-29.83"/>
</a>
</g>
</g>
<!-- Node23 -->
<g id="Node000023" class="node">
<title>Node23</title>
<g id="a_Node000023"><a xlink:title=" ">
<polygon fill="#e0e0e0" stroke="#999999" points="1545.5,-74 1489.5,-74 1489.5,-55 1545.5,-55 1545.5,-74"/>
<text text-anchor="middle" x="1517.5" y="-62" font-family="Helvetica,sans-Serif" font-size="10.00">iomanip</text>
</a>
</g>
</g>
<!-- Node21&#45;&gt;Node23 -->
<g id="edge32_Node000021_Node000023" class="edge">
<title>Node21&#45;&gt;Node23</title>
<g id="a_edge32_Node000021_Node000023"><a xlink:title=" ">
<path fill="none" stroke="#63b8ff" d="M1258.09,-110C1314.34,-102.26 1398.28,-89.9 1479.37,-74.31"/>
<polygon fill="#63b8ff" stroke="#63b8ff" points="1480.1,-77.73 1489.25,-72.39 1478.76,-70.86 1480.1,-77.73"/>
</a>
</g>
</g>
<!-- Node24 -->
<g id="Node000024" class="node">
<title>Node24</title>
<g id="a_Node000024"><a xlink:title=" ">
<polygon fill="#e0e0e0" stroke="#999999" points="1075.5,-74 1015.5,-74 1015.5,-55 1075.5,-55 1075.5,-74"/>
<text text-anchor="middle" x="1045.5" y="-62" font-family="Helvetica,sans-Serif" font-size="10.00">iostream</text>
</a>
</g>
</g>
<!-- Node21&#45;&gt;Node24 -->
<g id="edge33_Node000021_Node000024" class="edge">
<title>Node21&#45;&gt;Node24</title>
<g id="a_edge33_Node000021_Node000024"><a xlink:title=" ">
<path fill="none" stroke="#63b8ff" d="M1169.72,-109.98C1145.27,-101.23 1106.97,-87.51 1079.35,-77.62"/>
<polygon fill="#63b8ff" stroke="#63b8ff" points="1080.31,-74.25 1069.71,-74.17 1077.95,-80.84 1080.31,-74.25"/>
</a>
</g>
</g>
<!-- Node25 -->
<g id="Node000025" class="node">
<title>Node25</title>
<g id="a_Node000025"><a xlink:title=" ">
<polygon fill="#e0e0e0" stroke="#999999" points="1137.5,-74 1093.5,-74 1093.5,-55 1137.5,-55 1137.5,-74"/>
<text text-anchor="middle" x="1115.5" y="-62" font-family="Helvetica,sans-Serif" font-size="10.00">limits</text>
</a>
</g>
</g>
<!-- Node21&#45;&gt;Node25 -->
<g id="edge34_Node000021_Node000025" class="edge">
<title>Node21&#45;&gt;Node25</title>
<g id="a_edge34_Node000021_Node000025"><a xlink:title=" ">
<path fill="none" stroke="#63b8ff" d="M1180.97,-109.98C1169.1,-101.92 1151.04,-89.65 1136.89,-80.03"/>
<polygon fill="#63b8ff" stroke="#63b8ff" points="1138.5,-76.9 1128.26,-74.17 1134.56,-82.69 1138.5,-76.9"/>
</a>
</g>
</g>
<!-- Node26 -->
<g id="Node000026" class="node">
<title>Node26</title>
<g id="a_Node000026"><a xlink:title=" ">
<polygon fill="#e0e0e0" stroke="#999999" points="1211.5,-74 1155.5,-74 1155.5,-55 1211.5,-55 1211.5,-74"/>
<text text-anchor="middle" x="1183.5" y="-62" font-family="Helvetica,sans-Serif" font-size="10.00">sstream</text>
</a>
</g>
</g>
<!-- Node21&#45;&gt;Node26 -->
<g id="edge35_Node000021_Node000026" class="edge">
<title>Node21&#45;&gt;Node26</title>
<g id="a_edge35_Node000021_Node000026"><a xlink:title=" ">
<path fill="none" stroke="#63b8ff" d="M1191.85,-109.75C1190.54,-102.8 1188.66,-92.85 1187.02,-84.13"/>
<polygon fill="#63b8ff" stroke="#63b8ff" points="1190.41,-83.27 1185.12,-74.09 1183.54,-84.56 1190.41,-83.27"/>
</a>
</g>
</g>
<!-- Node27 -->
<g id="Node000027" class="node">
<title>Node27</title>
<g id="a_Node000027"><a xlink:title=" ">
<polygon fill="#e0e0e0" stroke="#999999" points="1352,-19 1279,-19 1279,0 1352,0 1352,-19"/>
<text text-anchor="middle" x="1315.5" y="-7" font-family="Helvetica,sans-Serif" font-size="10.00">string_view</text>
</a>
</g>
</g>
<!-- Node21&#45;&gt;Node27 -->
<g id="edge36_Node000021_Node000027" class="edge">
<title>Node21&#45;&gt;Node27</title>
<g id="a_edge36_Node000021_Node000027"><a xlink:title=" ">
<path fill="none" stroke="#63b8ff" d="M1203.48,-109.66C1224.23,-91.3 1272.22,-48.81 1298.14,-25.87"/>
<polygon fill="#63b8ff" stroke="#63b8ff" points="1300.55,-28.41 1305.72,-19.16 1295.91,-23.17 1300.55,-28.41"/>
</a>
</g>
</g>
<!-- Node28 -->
<g id="Node000028" class="node">
<title>Node28</title>
<g id="a_Node000028"><a xlink:href="../../d4/d9e/FieldFlags_8hpp.html" target="_top" xlink:title="Common enums and utilities for protocol field names and flags.">
<polygon fill="white" stroke="#666666" points="1472,-74 1305,-74 1305,-55 1472,-55 1472,-74"/>
<text text-anchor="middle" x="1388.5" y="-62" font-family="Helvetica,sans-Serif" font-size="10.00">prototypes/field/FieldFlags.hpp</text>
</a>
</g>
</g>
<!-- Node21&#45;&gt;Node28 -->
<g id="edge39_Node000021_Node000028" class="edge">
<title>Node21&#45;&gt;Node28</title>
<g id="a_edge39_Node000021_Node000028"><a xlink:title=" ">
<path fill="none" stroke="#63b8ff" d="M1224.83,-109.98C1257.99,-100.97 1310.5,-86.7 1347.06,-76.76"/>
<polygon fill="#63b8ff" stroke="#63b8ff" points="1348.19,-80.08 1356.92,-74.08 1346.36,-73.33 1348.19,-80.08"/>
</a>
</g>
</g>
<!-- Node28&#45;&gt;Node22 -->
<g id="edge41_Node000028_Node000022" class="edge">
<title>Node28&#45;&gt;Node22</title>
<g id="a_edge41_Node000028_Node000022"><a xlink:title=" ">
<path fill="none" stroke="#63b8ff" d="M1363.92,-54.98C1338.45,-46.16 1298.46,-32.31 1269.87,-22.41"/>
<polygon fill="#63b8ff" stroke="#63b8ff" points="1270.87,-19.05 1260.27,-19.08 1268.58,-25.66 1270.87,-19.05"/>
</a>
</g>
</g>
<!-- Node28&#45;&gt;Node27 -->
<g id="edge43_Node000028_Node000027" class="edge">
<title>Node28&#45;&gt;Node27</title>
<g id="a_edge43_Node000028_Node000027"><a xlink:title=" ">
<path fill="none" stroke="#63b8ff" d="M1376.77,-54.98C1365.77,-47 1349.08,-34.88 1335.9,-25.31"/>
<polygon fill="#63b8ff" stroke="#63b8ff" points="1337.59,-22.21 1327.44,-19.17 1333.48,-27.88 1337.59,-22.21"/>
</a>
</g>
</g>
<!-- Node29 -->
<g id="Node000029" class="node">
<title>Node29</title>
<g id="a_Node000029"><a xlink:title=" ">
<polygon fill="#e0e0e0" stroke="#999999" points="1412.5,-19 1370.5,-19 1370.5,0 1412.5,0 1412.5,-19"/>
<text text-anchor="middle" x="1391.5" y="-7" font-family="Helvetica,sans-Serif" font-size="10.00">array</text>
</a>
</g>
</g>
<!-- Node28&#45;&gt;Node29 -->
<g id="edge40_Node000028_Node000029" class="edge">
<title>Node28&#45;&gt;Node29</title>
<g id="a_edge40_Node000028_Node000029"><a xlink:title=" ">
<path fill="none" stroke="#63b8ff" d="M1389,-54.75C1389.39,-47.8 1389.95,-37.85 1390.45,-29.13"/>
<polygon fill="#63b8ff" stroke="#63b8ff" points="1393.94,-29.27 1391.01,-19.09 1386.95,-28.88 1393.94,-29.27"/>
</a>
</g>
</g>
<!-- Node30 -->
<g id="Node000030" class="node">
<title>Node30</title>
<g id="a_Node000030"><a xlink:title=" ">
<polygon fill="#e0e0e0" stroke="#999999" points="1488,-19 1431,-19 1431,0 1488,0 1488,-19"/>
<text text-anchor="middle" x="1459.5" y="-7" font-family="Helvetica,sans-Serif" font-size="10.00">ostream</text>
</a>
</g>
</g>
<!-- Node28&#45;&gt;Node30 -->
<g id="edge42_Node000028_Node000030" class="edge">
<title>Node28&#45;&gt;Node30</title>
<g id="a_edge42_Node000028_Node000030"><a xlink:title=" ">
<path fill="none" stroke="#63b8ff" d="M1399.91,-54.98C1410.61,-47 1426.84,-34.88 1439.66,-25.31"/>
<polygon fill="#63b8ff" stroke="#63b8ff" points="1441.97,-27.96 1447.89,-19.17 1437.78,-22.35 1441.97,-27.96"/>
</a>
</g>
</g>
<!-- Node31&#45;&gt;Node5 -->
<g id="edge46_Node000031_Node000005" class="edge">
<title>Node31&#45;&gt;Node5</title>
<g id="a_edge46_Node000031_Node000005"><a xlink:title=" ">
<path fill="none" stroke="#63b8ff" d="M352.18,-296.95C372.06,-286.08 399.43,-271.11 419.01,-260.4"/>
<polygon fill="#63b8ff" stroke="#63b8ff" points="420.84,-263.39 427.93,-255.52 417.48,-257.25 420.84,-263.39"/>
</a>
</g>
</g>
<!-- Node31&#45;&gt;Node8 -->
<g id="edge47_Node000031_Node000008" class="edge">
<title>Node31&#45;&gt;Node8</title>
<g id="a_edge47_Node000031_Node000008"><a xlink:title=" ">
<path fill="none" stroke="#63b8ff" d="M267.44,-299.42C180.22,-279.69 32.98,-234.81 88.5,-165 146.42,-92.17 450.55,-71.57 548.84,-66.78"/>
<polygon fill="#63b8ff" stroke="#63b8ff" points="549.17,-70.26 559,-66.3 548.85,-63.27 549.17,-70.26"/>
</a>
</g>
</g>
<!-- Node31&#45;&gt;Node9 -->
<g id="edge49_Node000031_Node000009" class="edge">
<title>Node31&#45;&gt;Node9</title>
<g id="a_edge49_Node000031_Node000009"><a xlink:title=" ">
<path fill="none" stroke="#63b8ff" d="M325.39,-296.76C324.58,-280.47 324.6,-253.19 331.5,-231 335.2,-219.11 342.27,-207.1 348.61,-197.84"/>
<polygon fill="#63b8ff" stroke="#63b8ff" points="351.55,-199.74 354.57,-189.59 345.88,-195.65 351.55,-199.74"/>
</a>
</g>
</g>
<!-- Node31&#45;&gt;Node12 -->
<g id="edge56_Node000031_Node000012" class="edge">
<title>Node31&#45;&gt;Node12</title>
<g id="a_edge56_Node000031_Node000012"><a xlink:title=" ">
<path fill="none" stroke="#63b8ff" d="M385.55,-303.69C481.84,-291.77 672.14,-268.21 774.5,-255.54"/>
<polygon fill="#63b8ff" stroke="#63b8ff" points="774.93,-259.02 784.42,-254.31 774.07,-252.07 774.93,-259.02"/>
</a>
</g>
</g>
<!-- Node31&#45;&gt;Node13 -->
<g id="edge48_Node000031_Node000013" class="edge">
<title>Node31&#45;&gt;Node13</title>
<g id="a_edge48_Node000031_Node000013"><a xlink:title=" ">
<path fill="none" stroke="#63b8ff" d="M338.96,-296.86C358.4,-274.95 394.55,-234.91 402.5,-231 541.62,-162.55 618.4,-277.78 749.5,-195 790.77,-168.94 813.69,-112.75 823.2,-83.7"/>
<polygon fill="#63b8ff" stroke="#63b8ff" points="826.58,-84.61 826.2,-74.02 819.89,-82.54 826.58,-84.61"/>
</a>
</g>
</g>
<!-- Node32 -->
<g id="Node000032" class="node">
<title>Node32</title>
<g id="a_Node000032"><a xlink:href="../../d7/d79/Interface_8hpp.html" target="_top" xlink:title=" ">
<polygon fill="white" stroke="#666666" points="279,-255.5 198,-255.5 198,-236.5 279,-236.5 279,-255.5"/>
<text text-anchor="middle" x="238.5" y="-243.5" font-family="Helvetica,sans-Serif" font-size="10.00">Interface.hpp</text>
</a>
</g>
</g>
<!-- Node31&#45;&gt;Node32 -->
<g id="edge50_Node000031_Node000032" class="edge">
<title>Node31&#45;&gt;Node32</title>
<g id="a_edge50_Node000031_Node000032"><a xlink:title=" ">
<path fill="none" stroke="#63b8ff" d="M306.97,-296.8C292.63,-286.37 273.2,-272.24 258.71,-261.69"/>
<polygon fill="#63b8ff" stroke="#63b8ff" points="260.55,-258.71 250.41,-255.66 256.43,-264.37 260.55,-258.71"/>
</a>
</g>
</g>
<!-- Node35 -->
<g id="Node000035" class="node">
<title>Node35</title>
<g id="a_Node000035"><a xlink:href="../../d7/d50/FieldInfo_8hpp.html" target="_top" xlink:title="Helpers and utilities for compile&#45;time field metadata and tuple processing.">
<polygon fill="white" stroke="#666666" points="740,-189.5 581,-189.5 581,-170.5 740,-170.5 740,-189.5"/>
<text text-anchor="middle" x="660.5" y="-177.5" font-family="Helvetica,sans-Serif" font-size="10.00">prototypes/field/FieldInfo.hpp</text>
</a>
</g>
</g>
<!-- Node31&#45;&gt;Node35 -->
<g id="edge57_Node000031_Node000035" class="edge">
<title>Node31&#45;&gt;Node35</title>
<g id="a_edge57_Node000031_Node000035"><a xlink:title=" ">
<path fill="none" stroke="#63b8ff" d="M329.96,-296.88C335.23,-278.59 347.1,-247.12 369.5,-231 401.04,-208.3 497.3,-194.95 570.55,-187.84"/>
<polygon fill="#63b8ff" stroke="#63b8ff" points="571.09,-191.3 580.72,-186.87 570.43,-184.33 571.09,-191.3"/>
</a>
</g>
</g>
<!-- Node32&#45;&gt;Node3 -->
<g id="edge52_Node000032_Node000003" class="edge">
<title>Node32&#45;&gt;Node3</title>
<g id="a_edge52_Node000032_Node000003"><a xlink:title=" ">
<path fill="none" stroke="#63b8ff" d="M223.93,-236.37C205.98,-225.73 175.23,-207.51 153.94,-194.89"/>
<polygon fill="#63b8ff" stroke="#63b8ff" points="155.57,-191.79 145.18,-189.7 152,-197.81 155.57,-191.79"/>
</a>
</g>
</g>
<!-- Node32&#45;&gt;Node7 -->
<g id="edge53_Node000032_Node000007" class="edge">
<title>Node32&#45;&gt;Node7</title>
<g id="a_edge53_Node000032_Node000007"><a xlink:title=" ">
<path fill="none" stroke="#63b8ff" d="M272.42,-236.44C308.95,-227.04 368.69,-211.11 419.5,-195 421.62,-194.33 423.79,-193.62 425.98,-192.88"/>
<polygon fill="#63b8ff" stroke="#63b8ff" points="427.2,-196.16 435.5,-189.58 424.91,-189.55 427.2,-196.16"/>
</a>
</g>
</g>
<!-- Node32&#45;&gt;Node9 -->
<g id="edge55_Node000032_Node000009" class="edge">
<title>Node32&#45;&gt;Node9</title>
<g id="a_edge55_Node000032_Node000009"><a xlink:title=" ">
<path fill="none" stroke="#63b8ff" d="M255.09,-236.37C275.81,-225.59 311.5,-207.02 335.78,-194.38"/>
<polygon fill="#63b8ff" stroke="#63b8ff" points="337.53,-197.42 344.78,-189.7 334.3,-191.21 337.53,-197.42"/>
</a>
</g>
</g>
<!-- Node33 -->
<g id="Node000033" class="node">
<title>Node33</title>
<g id="a_Node000033"><a xlink:title=" ">
<polygon fill="#e0e0e0" stroke="#999999" points="231.5,-189.5 181.5,-189.5 181.5,-170.5 231.5,-170.5 231.5,-189.5"/>
<text text-anchor="middle" x="206.5" y="-177.5" font-family="Helvetica,sans-Serif" font-size="10.00">chrono</text>
</a>
</g>
</g>
<!-- Node32&#45;&gt;Node33 -->
<g id="edge51_Node000032_Node000033" class="edge">
<title>Node32&#45;&gt;Node33</title>
<g id="a_edge51_Node000032_Node000033"><a xlink:title=" ">
<path fill="none" stroke="#63b8ff" d="M234.18,-236.37C229.44,-226.88 221.68,-211.36 215.58,-199.16"/>
<polygon fill="#63b8ff" stroke="#63b8ff" points="218.56,-197.28 210.95,-189.91 212.29,-200.41 218.56,-197.28"/>
</a>
</g>
</g>
<!-- Node34 -->
<g id="Node000034" class="node">
<title>Node34</title>
<g id="a_Node000034"><a xlink:title=" ">
<polygon fill="#e0e0e0" stroke="#999999" points="293.5,-189.5 249.5,-189.5 249.5,-170.5 293.5,-170.5 293.5,-189.5"/>
<text text-anchor="middle" x="271.5" y="-177.5" font-family="Helvetica,sans-Serif" font-size="10.00">string</text>
</a>
</g>
</g>
<!-- Node32&#45;&gt;Node34 -->
<g id="edge54_Node000032_Node000034" class="edge">
<title>Node32&#45;&gt;Node34</title>
<g id="a_edge54_Node000032_Node000034"><a xlink:title=" ">
<path fill="none" stroke="#63b8ff" d="M242.95,-236.37C247.89,-226.78 256.01,-211.05 262.32,-198.8"/>
<polygon fill="#63b8ff" stroke="#63b8ff" points="265.44,-200.4 266.91,-189.91 259.21,-197.19 265.44,-200.4"/>
</a>
</g>
</g>
<!-- Node35&#45;&gt;Node8 -->
<g id="edge58_Node000035_Node000008" class="edge">
<title>Node35&#45;&gt;Node8</title>
<g id="a_edge58_Node000035_Node000008"><a xlink:title=" ">
<path fill="none" stroke="#63b8ff" d="M654.41,-170.47C641.1,-151.82 609.2,-107.11 591.62,-82.49"/>
<polygon fill="#63b8ff" stroke="#63b8ff" points="594.32,-80.24 585.66,-74.13 588.62,-84.3 594.32,-80.24"/>
</a>
</g>
</g>
<!-- Node35&#45;&gt;Node13 -->
<g id="edge59_Node000035_Node000013" class="edge">
<title>Node35&#45;&gt;Node13</title>
<g id="a_edge59_Node000035_Node000013"><a xlink:title=" ">
<path fill="none" stroke="#63b8ff" d="M660.91,-170.49C662.07,-156.02 666.51,-126.58 683.5,-110 710.28,-83.86 752.01,-73.03 783.84,-68.56"/>
<polygon fill="#63b8ff" stroke="#63b8ff" points="784.31,-72.03 793.8,-67.33 783.44,-65.09 784.31,-72.03"/>
</a>
</g>
</g>
<!-- Node35&#45;&gt;Node15 -->
<g id="edge60_Node000035_Node000015" class="edge">
<title>Node35&#45;&gt;Node15</title>
<g id="a_edge60_Node000035_Node000015"><a xlink:title=" ">
<path fill="none" stroke="#63b8ff" d="M668.47,-170.37C676.6,-161.55 689.43,-147.66 699.48,-136.77"/>
<polygon fill="#63b8ff" stroke="#63b8ff" points="702.29,-138.89 706.5,-129.17 697.14,-134.14 702.29,-138.89"/>
</a>
</g>
</g>
<!-- Node35&#45;&gt;Node21 -->
<g id="edge61_Node000035_Node000021" class="edge">
<title>Node35&#45;&gt;Node21</title>
<g id="a_edge61_Node000035_Node000021"><a xlink:title=" ">
<path fill="none" stroke="#63b8ff" d="M738,-170.49C835.8,-159.76 1003.55,-141.35 1105.9,-130.11"/>
<polygon fill="#63b8ff" stroke="#63b8ff" points="1106.35,-133.59 1115.9,-129.02 1105.58,-126.63 1106.35,-133.59"/>
</a>
</g>
</g>
</g>
</svg>
