<?xml version="1.0" encoding="UTF-8" standalone="no"?>
<!DOCTYPE svg PUBLIC "-//W3C//DTD SVG 1.1//EN"
 "http://www.w3.org/Graphics/SVG/1.1/DTD/svg11.dtd">
<!-- Generated by graphviz version 14.0.1 (20251006.0113)
 -->
<!-- Title: UsageTimeType.hpp Pages: 1 -->
<svg width="458pt" height="138pt"
 viewBox="0.00 0.00 458.00 138.00" xmlns="http://www.w3.org/2000/svg" xmlns:xlink="http://www.w3.org/1999/xlink">

<svg id="main" version="1.1" xmlns="http://www.w3.org/2000/svg" xmlns:xlink="http://www.w3.org/1999/xlink" xml:space="preserve">

<style type="text/css"><![CDATA[
.node, .edge {opacity: 0.7;}
.node.selected, .edge.selected {opacity: 1;}
.edge:hover path { stroke: red; }
.edge:hover polygon { stroke: red; fill: red; }
]]></style>
<script type="application/ecmascript" xlink:href="../../svg.min.js"/>
<svg id="graph" class="graph">
<g id="graph0" class="graph" transform="scale(1 1) rotate(0) translate(4 133.75)">
<title>UsageTimeType.hpp</title>
<!-- Node1 -->
<g id="Node000001" class="node">
<title>Node1</title>
<g id="a_Node000001"><a xlink:title=" ">
<polygon fill="#999999" stroke="#666666" points="198.62,-129.75 92.62,-129.75 92.62,-110.5 198.62,-110.5 198.62,-129.75"/>
<text xml:space="preserve" text-anchor="middle" x="145.62" y="-116.25" font-family="Helvetica,sans-Serif" font-size="10.00">UsageTimeType.hpp</text>
</a>
</g>
</g>
<!-- Node2 -->
<g id="Node000002" class="node">
<title>Node2</title>
<g id="a_Node000002"><a xlink:title=" ">
<polygon fill="#e0e0e0" stroke="#999999" points="45.25,-19.25 0,-19.25 0,0 45.25,0 45.25,-19.25"/>
<text xml:space="preserve" text-anchor="middle" x="22.62" y="-5.75" font-family="Helvetica,sans-Serif" font-size="10.00">cstdint</text>
</a>
</g>
</g>
<!-- Node1&#45;&gt;Node2 -->
<g id="edge1_Node000001_Node000002" class="edge">
<title>Node1&#45;&gt;Node2</title>
<g id="a_edge1_Node000001_Node000002"><a xlink:title=" ">
<path fill="none" stroke="#63b8ff" d="M135.56,-110.25C114.93,-92.05 67.57,-50.27 41.2,-27.01"/>
<polygon fill="#63b8ff" stroke="#63b8ff" points="43.78,-24.62 33.96,-20.63 39.15,-29.87 43.78,-24.62"/>
</a>
</g>
</g>
<!-- Node3 -->
<g id="Node000003" class="node">
<title>Node3</title>
<g id="a_Node000003"><a xlink:title=" ">
<polygon fill="#e0e0e0" stroke="#999999" points="311.25,-74.5 260,-74.5 260,-55.25 311.25,-55.25 311.25,-74.5"/>
<text xml:space="preserve" text-anchor="middle" x="285.62" y="-61" font-family="Helvetica,sans-Serif" font-size="10.00">ostream</text>
</a>
</g>
</g>
<!-- Node1&#45;&gt;Node3 -->
<g id="edge2_Node000001_Node000003" class="edge">
<title>Node1&#45;&gt;Node3</title>
<g id="a_edge2_Node000001_Node000003"><a xlink:title=" ">
<path fill="none" stroke="#63b8ff" d="M169.37,-110.09C191.8,-101.56 225.69,-88.67 251.1,-79.01"/>
<polygon fill="#63b8ff" stroke="#63b8ff" points="252.24,-82.32 260.34,-75.49 249.75,-75.77 252.24,-82.32"/>
</a>
</g>
</g>
<!-- Node4 -->
<g id="Node000004" class="node">
<title>Node4</title>
<g id="a_Node000004"><a xlink:title=" ">
<polygon fill="#e0e0e0" stroke="#999999" points="103.62,-19.25 63.62,-19.25 63.62,0 103.62,0 103.62,-19.25"/>
<text xml:space="preserve" text-anchor="middle" x="83.62" y="-5.75" font-family="Helvetica,sans-Serif" font-size="10.00">string</text>
</a>
</g>
</g>
<!-- Node1&#45;&gt;Node4 -->
<g id="edge3_Node000001_Node000004" class="edge">
<title>Node1&#45;&gt;Node4</title>
<g id="a_edge3_Node000001_Node000004"><a xlink:title=" ">
<path fill="none" stroke="#63b8ff" d="M140.55,-110.25C130.51,-92.68 107.93,-53.16 94.42,-29.52"/>
<polygon fill="#63b8ff" stroke="#63b8ff" points="97.52,-27.89 89.52,-20.94 91.44,-31.36 97.52,-27.89"/>
</a>
</g>
</g>
<!-- Node5 -->
<g id="Node000005" class="node">
<title>Node5</title>
<g id="a_Node000005"><a xlink:title=" ">
<polygon fill="#e0e0e0" stroke="#999999" points="187.38,-19.25 121.88,-19.25 121.88,0 187.38,0 187.38,-19.25"/>
<text xml:space="preserve" text-anchor="middle" x="154.62" y="-5.75" font-family="Helvetica,sans-Serif" font-size="10.00">string_view</text>
</a>
</g>
</g>
<!-- Node1&#45;&gt;Node5 -->
<g id="edge4_Node000001_Node000005" class="edge">
<title>Node1&#45;&gt;Node5</title>
<g id="a_edge4_Node000001_Node000005"><a xlink:title=" ">
<path fill="none" stroke="#63b8ff" d="M146.36,-110.25C147.79,-93 150.98,-54.58 152.95,-30.81"/>
<polygon fill="#63b8ff" stroke="#63b8ff" points="156.41,-31.39 153.75,-21.14 149.44,-30.81 156.41,-31.39"/>
</a>
</g>
</g>
<!-- Node6 -->
<g id="Node000006" class="node">
<title>Node6</title>
<g id="a_Node000006"><a xlink:href="../../dd/d07/_helpers_8hpp.html" target="_top" xlink:title=" ">
<polygon fill="white" stroke="#666666" points="241.88,-74.5 173.38,-74.5 173.38,-55.25 241.88,-55.25 241.88,-74.5"/>
<text xml:space="preserve" text-anchor="middle" x="207.62" y="-61" font-family="Helvetica,sans-Serif" font-size="10.00">Helpers.hpp</text>
</a>
</g>
</g>
<!-- Node1&#45;&gt;Node6 -->
<g id="edge5_Node000001_Node000006" class="edge">
<title>Node1&#45;&gt;Node6</title>
<g id="a_edge5_Node000001_Node000006"><a xlink:title=" ">
<path fill="none" stroke="#63b8ff" d="M156.14,-110.09C165.01,-102.47 177.94,-91.37 188.61,-82.2"/>
<polygon fill="#63b8ff" stroke="#63b8ff" points="190.81,-84.93 196.11,-75.76 186.25,-79.62 190.81,-84.93"/>
</a>
</g>
</g>
<!-- Node6&#45;&gt;Node2 -->
<g id="edge8_Node000006_Node000002" class="edge">
<title>Node6&#45;&gt;Node2</title>
<g id="a_edge8_Node000006_Node000002"><a xlink:title=" ">
<path fill="none" stroke="#63b8ff" d="M176.24,-54.84C142.99,-45.27 90.67,-30.21 56.5,-20.38"/>
<polygon fill="#63b8ff" stroke="#63b8ff" points="57.7,-17.08 47.12,-17.68 55.76,-23.81 57.7,-17.08"/>
</a>
</g>
</g>
<!-- Node6&#45;&gt;Node4 -->
<g id="edge11_Node000006_Node000004" class="edge">
<title>Node6&#45;&gt;Node4</title>
<g id="a_edge11_Node000006_Node000004"><a xlink:title=" ">
<path fill="none" stroke="#63b8ff" d="M186.59,-54.84C166.76,-46.32 136.8,-33.46 114.31,-23.8"/>
<polygon fill="#63b8ff" stroke="#63b8ff" points="115.9,-20.68 105.33,-19.95 113.14,-27.11 115.9,-20.68"/>
</a>
</g>
</g>
<!-- Node6&#45;&gt;Node5 -->
<g id="edge12_Node000006_Node000005" class="edge">
<title>Node6&#45;&gt;Node5</title>
<g id="a_edge12_Node000006_Node000005"><a xlink:title=" ">
<path fill="none" stroke="#63b8ff" d="M198.87,-55.08C191.48,-47.65 180.66,-36.79 171.58,-27.66"/>
<polygon fill="#63b8ff" stroke="#63b8ff" points="174.17,-25.3 164.63,-20.68 169.21,-30.24 174.17,-25.3"/>
</a>
</g>
</g>
<!-- Node7 -->
<g id="Node000007" class="node">
<title>Node7</title>
<g id="a_Node000007"><a xlink:title=" ">
<polygon fill="#e0e0e0" stroke="#999999" points="449.5,-19.25 411.75,-19.25 411.75,0 449.5,0 449.5,-19.25"/>
<text xml:space="preserve" text-anchor="middle" x="430.62" y="-5.75" font-family="Helvetica,sans-Serif" font-size="10.00">array</text>
</a>
</g>
</g>
<!-- Node6&#45;&gt;Node7 -->
<g id="edge6_Node000006_Node000007" class="edge">
<title>Node6&#45;&gt;Node7</title>
<g id="a_edge6_Node000006_Node000007"><a xlink:title=" ">
<path fill="none" stroke="#63b8ff" d="M242.34,-56.74C279.26,-48.97 339.61,-35.78 400.44,-19.68"/>
<polygon fill="#63b8ff" stroke="#63b8ff" points="401.18,-23.11 409.94,-17.14 399.37,-16.35 401.18,-23.11"/>
</a>
</g>
</g>
<!-- Node8 -->
<g id="Node000008" class="node">
<title>Node8</title>
<g id="a_Node000008"><a xlink:title=" ">
<polygon fill="#e0e0e0" stroke="#999999" points="253.75,-19.25 205.5,-19.25 205.5,0 253.75,0 253.75,-19.25"/>
<text xml:space="preserve" text-anchor="middle" x="229.62" y="-5.75" font-family="Helvetica,sans-Serif" font-size="10.00">cstddef</text>
</a>
</g>
</g>
<!-- Node6&#45;&gt;Node8 -->
<g id="edge7_Node000006_Node000008" class="edge">
<title>Node6&#45;&gt;Node8</title>
<g id="a_edge7_Node000006_Node000008"><a xlink:title=" ">
<path fill="none" stroke="#63b8ff" d="M211.26,-55.08C214.04,-48.34 218,-38.77 221.52,-30.24"/>
<polygon fill="#63b8ff" stroke="#63b8ff" points="224.75,-31.59 225.34,-21.01 218.28,-28.91 224.75,-31.59"/>
</a>
</g>
</g>
<!-- Node9 -->
<g id="Node000009" class="node">
<title>Node9</title>
<g id="a_Node000009"><a xlink:title=" ">
<polygon fill="#e0e0e0" stroke="#999999" points="321.5,-19.25 271.75,-19.25 271.75,0 321.5,0 321.5,-19.25"/>
<text xml:space="preserve" text-anchor="middle" x="296.62" y="-5.75" font-family="Helvetica,sans-Serif" font-size="10.00">iomanip</text>
</a>
</g>
</g>
<!-- Node6&#45;&gt;Node9 -->
<g id="edge9_Node000006_Node000009" class="edge">
<title>Node6&#45;&gt;Node9</title>
<g id="a_edge9_Node000006_Node000009"><a xlink:title=" ">
<path fill="none" stroke="#63b8ff" d="M222.72,-54.84C236.15,-46.81 256.04,-34.91 271.8,-25.48"/>
<polygon fill="#63b8ff" stroke="#63b8ff" points="273.37,-28.62 280.15,-20.48 269.78,-22.61 273.37,-28.62"/>
</a>
</g>
</g>
<!-- Node10 -->
<g id="Node000010" class="node">
<title>Node10</title>
<g id="a_Node000010"><a xlink:title=" ">
<polygon fill="#e0e0e0" stroke="#999999" points="393.38,-19.25 339.88,-19.25 339.88,0 393.38,0 393.38,-19.25"/>
<text xml:space="preserve" text-anchor="middle" x="366.62" y="-5.75" font-family="Helvetica,sans-Serif" font-size="10.00">iostream</text>
</a>
</g>
</g>
<!-- Node6&#45;&gt;Node10 -->
<g id="edge10_Node000006_Node000010" class="edge">
<title>Node6&#45;&gt;Node10</title>
<g id="a_edge10_Node000006_Node000010"><a xlink:title=" ">
<path fill="none" stroke="#63b8ff" d="M234.6,-54.84C260.52,-46.16 299.94,-32.96 328.96,-23.24"/>
<polygon fill="#63b8ff" stroke="#63b8ff" points="329.71,-26.68 338.09,-20.18 327.49,-20.04 329.71,-26.68"/>
</a>
</g>
</g>
</g>
</svg>
</svg>

<style type='text/css'>
<![CDATA[
[data-mouse-over-selected='false'] { opacity: 0.7; }
[data-mouse-over-selected='true']  { opacity: 1.0; }
]]>
</style>
<script type="application/ecmascript"><![CDATA[
document.addEventListener('DOMContentLoaded', (event) => {
  highlightEdges();
  highlightAdjacentNodes();
});
]]></script>
</svg>
