<?xml version="1.0" encoding="UTF-8" standalone="no"?>
<!DOCTYPE svg PUBLIC "-//W3C//DTD SVG 1.1//EN"
 "http://www.w3.org/Graphics/SVG/1.1/DTD/svg11.dtd">
<!-- Generated by graphviz version 14.0.1 (20251006.0113)
 -->
<!-- Title: FieldPrototype.hpp Pages: 1 -->
<svg width="717pt" height="138pt"
 viewBox="0.00 0.00 717.00 138.00" xmlns="http://www.w3.org/2000/svg" xmlns:xlink="http://www.w3.org/1999/xlink">
<g id="graph0" class="graph" transform="scale(1 1) rotate(0) translate(4 133.75)">
<title>FieldPrototype.hpp</title>
<!-- Node1 -->
<g id="Node000001" class="node">
<title>Node1</title>
<g id="a_Node000001"><a xlink:title="FieldPrototype template for describing and handling protocol fields.">
<polygon fill="#999999" stroke="#666666" points="429.5,-129.75 331.75,-129.75 331.75,-110.5 429.5,-110.5 429.5,-129.75"/>
<text xml:space="preserve" text-anchor="middle" x="380.62" y="-116.25" font-family="Helvetica,sans-Serif" font-size="10.00">FieldPrototype.hpp</text>
</a>
</g>
</g>
<!-- Node2 -->
<g id="Node000002" class="node">
<title>Node2</title>
<g id="a_Node000002"><a xlink:title=" ">
<polygon fill="#e0e0e0" stroke="#999999" points="45.25,-19.25 0,-19.25 0,0 45.25,0 45.25,-19.25"/>
<text xml:space="preserve" text-anchor="middle" x="22.62" y="-5.75" font-family="Helvetica,sans-Serif" font-size="10.00">cstdint</text>
</a>
</g>
</g>
<!-- Node1&#45;&gt;Node2 -->
<g id="edge1_Node000001_Node000002" class="edge">
<title>Node1&#45;&gt;Node2</title>
<g id="a_edge1_Node000001_Node000002"><a xlink:title=" ">
<path fill="none" stroke="#63b8ff" d="M331.38,-116.59C255.37,-111.92 113.73,-100.02 70.62,-74.5 52.93,-64.02 39.64,-44.27 31.58,-29.49"/>
<polygon fill="#63b8ff" stroke="#63b8ff" points="34.78,-28.07 27.13,-20.74 28.54,-31.24 34.78,-28.07"/>
</a>
</g>
</g>
<!-- Node3 -->
<g id="Node000003" class="node">
<title>Node3</title>
<g id="a_Node000003"><a xlink:title=" ">
<polygon fill="#e0e0e0" stroke="#999999" points="302.25,-74.5 257,-74.5 257,-55.25 302.25,-55.25 302.25,-74.5"/>
<text xml:space="preserve" text-anchor="middle" x="279.62" y="-61" font-family="Helvetica,sans-Serif" font-size="10.00">cstring</text>
</a>
</g>
</g>
<!-- Node1&#45;&gt;Node3 -->
<g id="edge2_Node000001_Node000003" class="edge">
<title>Node1&#45;&gt;Node3</title>
<g id="a_edge2_Node000001_Node000003"><a xlink:title=" ">
<path fill="none" stroke="#63b8ff" d="M363.49,-110.09C347.97,-101.91 324.82,-89.71 306.78,-80.19"/>
<polygon fill="#63b8ff" stroke="#63b8ff" points="308.66,-77.23 298.18,-75.66 305.39,-83.42 308.66,-77.23"/>
</a>
</g>
</g>
<!-- Node4 -->
<g id="Node000004" class="node">
<title>Node4</title>
<g id="a_Node000004"><a xlink:title=" ">
<polygon fill="#e0e0e0" stroke="#999999" points="370.5,-74.5 320.75,-74.5 320.75,-55.25 370.5,-55.25 370.5,-74.5"/>
<text xml:space="preserve" text-anchor="middle" x="345.62" y="-61" font-family="Helvetica,sans-Serif" font-size="10.00">iomanip</text>
</a>
</g>
</g>
<!-- Node1&#45;&gt;Node4 -->
<g id="edge3_Node000001_Node000004" class="edge">
<title>Node1&#45;&gt;Node4</title>
<g id="a_edge3_Node000001_Node000004"><a xlink:title=" ">
<path fill="none" stroke="#63b8ff" d="M374.85,-110.33C370.21,-103.28 363.55,-93.15 357.76,-84.33"/>
<polygon fill="#63b8ff" stroke="#63b8ff" points="360.78,-82.56 352.36,-76.12 354.93,-86.4 360.78,-82.56"/>
</a>
</g>
</g>
<!-- Node5 -->
<g id="Node000005" class="node">
<title>Node5</title>
<g id="a_Node000005"><a xlink:title=" ">
<polygon fill="#e0e0e0" stroke="#999999" points="442.38,-74.5 388.88,-74.5 388.88,-55.25 442.38,-55.25 442.38,-74.5"/>
<text xml:space="preserve" text-anchor="middle" x="415.62" y="-61" font-family="Helvetica,sans-Serif" font-size="10.00">iostream</text>
</a>
</g>
</g>
<!-- Node1&#45;&gt;Node5 -->
<g id="edge4_Node000001_Node000005" class="edge">
<title>Node1&#45;&gt;Node5</title>
<g id="a_edge4_Node000001_Node000005"><a xlink:title=" ">
<path fill="none" stroke="#63b8ff" d="M386.4,-110.33C391.04,-103.28 397.7,-93.15 403.49,-84.33"/>
<polygon fill="#63b8ff" stroke="#63b8ff" points="406.32,-86.4 408.89,-76.12 400.47,-82.56 406.32,-86.4"/>
</a>
</g>
</g>
<!-- Node6 -->
<g id="Node000006" class="node">
<title>Node6</title>
<g id="a_Node000006"><a xlink:title=" ">
<polygon fill="#e0e0e0" stroke="#999999" points="499.25,-74.5 460,-74.5 460,-55.25 499.25,-55.25 499.25,-74.5"/>
<text xml:space="preserve" text-anchor="middle" x="479.62" y="-61" font-family="Helvetica,sans-Serif" font-size="10.00">limits</text>
</a>
</g>
</g>
<!-- Node1&#45;&gt;Node6 -->
<g id="edge5_Node000001_Node000006" class="edge">
<title>Node1&#45;&gt;Node6</title>
<g id="a_edge5_Node000001_Node000006"><a xlink:title=" ">
<path fill="none" stroke="#63b8ff" d="M397.42,-110.09C412.64,-101.91 435.32,-89.71 453.01,-80.19"/>
<polygon fill="#63b8ff" stroke="#63b8ff" points="454.27,-83.49 461.42,-75.67 450.95,-77.32 454.27,-83.49"/>
</a>
</g>
</g>
<!-- Node7 -->
<g id="Node000007" class="node">
<title>Node7</title>
<g id="a_Node000007"><a xlink:title=" ">
<polygon fill="#e0e0e0" stroke="#999999" points="568.25,-74.5 517,-74.5 517,-55.25 568.25,-55.25 568.25,-74.5"/>
<text xml:space="preserve" text-anchor="middle" x="542.62" y="-61" font-family="Helvetica,sans-Serif" font-size="10.00">sstream</text>
</a>
</g>
</g>
<!-- Node1&#45;&gt;Node7 -->
<g id="edge6_Node000001_Node000007" class="edge">
<title>Node1&#45;&gt;Node7</title>
<g id="a_edge6_Node000001_Node000007"><a xlink:title=" ">
<path fill="none" stroke="#63b8ff" d="M408.11,-110.09C435,-101.25 476.15,-87.73 505.85,-77.96"/>
<polygon fill="#63b8ff" stroke="#63b8ff" points="506.77,-81.34 515.18,-74.9 504.59,-74.69 506.77,-81.34"/>
</a>
</g>
</g>
<!-- Node8 -->
<g id="Node000008" class="node">
<title>Node8</title>
<g id="a_Node000008"><a xlink:title=" ">
<polygon fill="#e0e0e0" stroke="#999999" points="128.38,-19.25 62.88,-19.25 62.88,0 128.38,0 128.38,-19.25"/>
<text xml:space="preserve" text-anchor="middle" x="95.62" y="-5.75" font-family="Helvetica,sans-Serif" font-size="10.00">string_view</text>
</a>
</g>
</g>
<!-- Node1&#45;&gt;Node8 -->
<g id="edge7_Node000001_Node000008" class="edge">
<title>Node1&#45;&gt;Node8</title>
<g id="a_edge7_Node000001_Node000008"><a xlink:title=" ">
<path fill="none" stroke="#63b8ff" d="M331.54,-119.24C254.94,-118.27 112.43,-111.39 80.62,-74.5 69.84,-61.99 76.09,-43.15 83.53,-29.17"/>
<polygon fill="#63b8ff" stroke="#63b8ff" points="86.34,-31.3 88.42,-20.92 80.32,-27.74 86.34,-31.3"/>
</a>
</g>
</g>
<!-- Node9 -->
<g id="Node000009" class="node">
<title>Node9</title>
<g id="a_Node000009"><a xlink:title=" ">
<polygon fill="#e0e0e0" stroke="#999999" points="648.5,-74.5 586.75,-74.5 586.75,-55.25 648.5,-55.25 648.5,-74.5"/>
<text xml:space="preserve" text-anchor="middle" x="617.62" y="-61" font-family="Helvetica,sans-Serif" font-size="10.00">type_traits</text>
</a>
</g>
</g>
<!-- Node1&#45;&gt;Node9 -->
<g id="edge8_Node000001_Node000009" class="edge">
<title>Node1&#45;&gt;Node9</title>
<g id="a_edge8_Node000001_Node000009"><a xlink:title=" ">
<path fill="none" stroke="#63b8ff" d="M421.1,-110.03C464.06,-100.38 531.65,-85.19 575.31,-75.38"/>
<polygon fill="#63b8ff" stroke="#63b8ff" points="575.93,-78.83 584.92,-73.22 574.4,-72 575.93,-78.83"/>
</a>
</g>
</g>
<!-- Node10 -->
<g id="Node000010" class="node">
<title>Node10</title>
<g id="a_Node000010"><a xlink:title=" ">
<polygon fill="#e0e0e0" stroke="#999999" points="709.12,-74.5 666.12,-74.5 666.12,-55.25 709.12,-55.25 709.12,-74.5"/>
<text xml:space="preserve" text-anchor="middle" x="687.62" y="-61" font-family="Helvetica,sans-Serif" font-size="10.00">vector</text>
</a>
</g>
</g>
<!-- Node1&#45;&gt;Node10 -->
<g id="edge9_Node000001_Node000010" class="edge">
<title>Node1&#45;&gt;Node10</title>
<g id="a_edge9_Node000001_Node000010"><a xlink:title=" ">
<path fill="none" stroke="#63b8ff" d="M429.5,-113.06C482.77,-106.05 570.7,-93.31 654.72,-74.94"/>
<polygon fill="#63b8ff" stroke="#63b8ff" points="655.27,-78.41 664.27,-72.82 653.75,-71.57 655.27,-78.41"/>
</a>
</g>
</g>
<!-- Node11 -->
<g id="Node000011" class="node">
<title>Node11</title>
<g id="a_Node000011"><a xlink:href="../../d8/d46/_field_flags_8hpp.html" target="_top" xlink:title="Common enums and utilities for protocol field names and flags.">
<polygon fill="white" stroke="#666666" points="239.38,-74.5 89.88,-74.5 89.88,-55.25 239.38,-55.25 239.38,-74.5"/>
<text xml:space="preserve" text-anchor="middle" x="164.62" y="-61" font-family="Helvetica,sans-Serif" font-size="10.00">prototypes/field/FieldFlags.hpp</text>
</a>
</g>
</g>
<!-- Node1&#45;&gt;Node11 -->
<g id="edge10_Node000001_Node000011" class="edge">
<title>Node1&#45;&gt;Node11</title>
<g id="a_edge10_Node000001_Node000011"><a xlink:title=" ">
<path fill="none" stroke="#63b8ff" d="M343.98,-110.09C307.75,-101.16 252.14,-87.45 212.44,-77.66"/>
<polygon fill="#63b8ff" stroke="#63b8ff" points="213.46,-74.31 202.92,-75.31 211.79,-81.11 213.46,-74.31"/>
</a>
</g>
</g>
<!-- Node11&#45;&gt;Node2 -->
<g id="edge12_Node000011_Node000002" class="edge">
<title>Node11&#45;&gt;Node2</title>
<g id="a_edge12_Node000011_Node000002"><a xlink:title=" ">
<path fill="none" stroke="#63b8ff" d="M140.54,-54.84C117.27,-46.12 81.85,-32.83 55.9,-23.1"/>
<polygon fill="#63b8ff" stroke="#63b8ff" points="57.43,-19.94 46.84,-19.7 54.97,-26.49 57.43,-19.94"/>
</a>
</g>
</g>
<!-- Node11&#45;&gt;Node8 -->
<g id="edge14_Node000011_Node000008" class="edge">
<title>Node11&#45;&gt;Node8</title>
<g id="a_edge14_Node000011_Node000008"><a xlink:title=" ">
<path fill="none" stroke="#63b8ff" d="M152.92,-54.84C142.85,-47.07 128.08,-35.67 116.06,-26.4"/>
<polygon fill="#63b8ff" stroke="#63b8ff" points="118.41,-23.79 108.36,-20.45 114.13,-29.33 118.41,-23.79"/>
</a>
</g>
</g>
<!-- Node12 -->
<g id="Node000012" class="node">
<title>Node12</title>
<g id="a_Node000012"><a xlink:title=" ">
<polygon fill="#e0e0e0" stroke="#999999" points="184.5,-19.25 146.75,-19.25 146.75,0 184.5,0 184.5,-19.25"/>
<text xml:space="preserve" text-anchor="middle" x="165.62" y="-5.75" font-family="Helvetica,sans-Serif" font-size="10.00">array</text>
</a>
</g>
</g>
<!-- Node11&#45;&gt;Node12 -->
<g id="edge11_Node000011_Node000012" class="edge">
<title>Node11&#45;&gt;Node12</title>
<g id="a_edge11_Node000011_Node000012"><a xlink:title=" ">
<path fill="none" stroke="#63b8ff" d="M164.79,-55.08C164.91,-48.57 165.08,-39.42 165.24,-31.12"/>
<polygon fill="#63b8ff" stroke="#63b8ff" points="168.74,-31.19 165.43,-21.12 161.74,-31.05 168.74,-31.19"/>
</a>
</g>
</g>
<!-- Node13 -->
<g id="Node000013" class="node">
<title>Node13</title>
<g id="a_Node000013"><a xlink:title=" ">
<polygon fill="#e0e0e0" stroke="#999999" points="254.25,-19.25 203,-19.25 203,0 254.25,0 254.25,-19.25"/>
<text xml:space="preserve" text-anchor="middle" x="228.62" y="-5.75" font-family="Helvetica,sans-Serif" font-size="10.00">ostream</text>
</a>
</g>
</g>
<!-- Node11&#45;&gt;Node13 -->
<g id="edge13_Node000011_Node000013" class="edge">
<title>Node11&#45;&gt;Node13</title>
<g id="a_edge13_Node000011_Node000013"><a xlink:title=" ">
<path fill="none" stroke="#63b8ff" d="M175.48,-54.84C184.73,-47.15 198.25,-35.9 209.33,-26.68"/>
<polygon fill="#63b8ff" stroke="#63b8ff" points="211.32,-29.58 216.77,-20.49 206.84,-24.2 211.32,-29.58"/>
</a>
</g>
</g>
</g>
</svg>
