<?xml version="1.0" encoding="UTF-8" standalone="no"?>
<!DOCTYPE svg PUBLIC "-//W3C//DTD SVG 1.1//EN"
 "http://www.w3.org/Graphics/SVG/1.1/DTD/svg11.dtd">
<!-- Generated by graphviz version 14.0.1 (20251006.0113)
 -->
<!-- Title: RxContainer.hpp Pages: 1 -->
<svg width="315pt" height="248pt"
 viewBox="0.00 0.00 315.00 248.00" xmlns="http://www.w3.org/2000/svg" xmlns:xlink="http://www.w3.org/1999/xlink">
<g id="graph0" class="graph" transform="scale(1 1) rotate(0) translate(4 244.25)">
<title>RxContainer.hpp</title>
<!-- Node1 -->
<g id="Node000001" class="node">
<title>Node1</title>
<g id="a_Node000001"><a xlink:title="Stateful frame parsing container that incrementally matches and fills protocol fields from a byte str...">
<polygon fill="#999999" stroke="#666666" points="210.75,-240.25 122,-240.25 122,-221 210.75,-221 210.75,-240.25"/>
<text xml:space="preserve" text-anchor="middle" x="166.38" y="-226.75" font-family="Helvetica,sans-Serif" font-size="10.00">RxContainer.hpp</text>
</a>
</g>
</g>
<!-- Node2 -->
<g id="Node000002" class="node">
<title>Node2</title>
<g id="a_Node000002"><a xlink:href="../../dd/d7f/_protocol_endpoint_8hpp.html" target="_top" xlink:title="Base endpoint class for protocol implementations.">
<polygon fill="white" stroke="#666666" points="149.88,-185 40.88,-185 40.88,-165.75 149.88,-165.75 149.88,-185"/>
<text xml:space="preserve" text-anchor="middle" x="95.38" y="-171.5" font-family="Helvetica,sans-Serif" font-size="10.00">ProtocolEndpoint.hpp</text>
</a>
</g>
</g>
<!-- Node1&#45;&gt;Node2 -->
<g id="edge1_Node000001_Node000002" class="edge">
<title>Node1&#45;&gt;Node2</title>
<g id="a_edge1_Node000001_Node000002"><a xlink:title=" ">
<path fill="none" stroke="#63b8ff" d="M145.13,-213.69C132.73,-204.39 117.55,-193.01 107.24,-185.27"/>
<polygon fill="#63b8ff" stroke="#63b8ff" points="143.02,-216.48 153.12,-219.68 147.22,-210.88 143.02,-216.48"/>
</a>
</g>
</g>
<!-- Node6 -->
<g id="Node000006" class="node">
<title>Node6</title>
<g id="a_Node000006"><a xlink:href="../../dc/d1e/_protocol_no_sys_endpoint_8hpp.html" target="_top" xlink:title=" ">
<polygon fill="white" stroke="#666666" points="306.88,-185 167.88,-185 167.88,-165.75 306.88,-165.75 306.88,-185"/>
<text xml:space="preserve" text-anchor="middle" x="237.38" y="-171.5" font-family="Helvetica,sans-Serif" font-size="10.00">ProtocolNoSysEndpoint.hpp</text>
</a>
</g>
</g>
<!-- Node1&#45;&gt;Node6 -->
<g id="edge6_Node000001_Node000006" class="edge">
<title>Node1&#45;&gt;Node6</title>
<g id="a_edge6_Node000001_Node000006"><a xlink:title=" ">
<path fill="none" stroke="#63b8ff" d="M187.62,-213.69C200.02,-204.39 215.2,-193.01 225.51,-185.27"/>
<polygon fill="#63b8ff" stroke="#63b8ff" points="185.53,-210.88 179.63,-219.68 189.73,-216.48 185.53,-210.88"/>
</a>
</g>
</g>
<!-- Node3 -->
<g id="Node000003" class="node">
<title>Node3</title>
<g id="a_Node000003"><a xlink:href="../../dc/d95/_lacte_protocol_8hpp.html" target="_top" xlink:title=" ">
<polygon fill="white" stroke="#666666" points="94.75,-74.5 0,-74.5 0,-55.25 94.75,-55.25 94.75,-74.5"/>
<text xml:space="preserve" text-anchor="middle" x="47.38" y="-61" font-family="Helvetica,sans-Serif" font-size="10.00">LacteProtocol.hpp</text>
</a>
</g>
</g>
<!-- Node2&#45;&gt;Node3 -->
<g id="edge2_Node000002_Node000003" class="edge">
<title>Node2&#45;&gt;Node3</title>
<g id="a_edge2_Node000002_Node000003"><a xlink:title=" ">
<path fill="none" stroke="#63b8ff" d="M55.23,-160.87C41,-153.92 26.51,-143.86 18.38,-129.75 7.55,-110.97 25.8,-87.42 37.92,-74.82"/>
<polygon fill="#63b8ff" stroke="#63b8ff" points="53.51,-163.93 64.07,-164.78 56.34,-157.53 53.51,-163.93"/>
</a>
</g>
</g>
<!-- Node5 -->
<g id="Node000005" class="node">
<title>Node5</title>
<g id="a_Node000005"><a xlink:href="../../d8/df0/_lacte_protocol_prototype_8hpp.html" target="_top" xlink:title=" ">
<polygon fill="white" stroke="#666666" points="163.75,-129.75 27,-129.75 27,-110.5 163.75,-110.5 163.75,-129.75"/>
<text xml:space="preserve" text-anchor="middle" x="95.38" y="-116.25" font-family="Helvetica,sans-Serif" font-size="10.00">LacteProtocolPrototype.hpp</text>
</a>
</g>
</g>
<!-- Node2&#45;&gt;Node5 -->
<g id="edge4_Node000002_Node000005" class="edge">
<title>Node2&#45;&gt;Node5</title>
<g id="a_edge4_Node000002_Node000005"><a xlink:title=" ">
<path fill="none" stroke="#63b8ff" d="M95.38,-154.13C95.38,-145.84 95.38,-136.67 95.38,-130.11"/>
<polygon fill="#63b8ff" stroke="#63b8ff" points="91.88,-154.07 95.38,-164.07 98.88,-154.07 91.88,-154.07"/>
</a>
</g>
</g>
<!-- Node4 -->
<g id="Node000004" class="node">
<title>Node4</title>
<g id="a_Node000004"><a xlink:href="../../db/dc5/_virtual_board_8hpp.html" target="_top" xlink:title=" ">
<polygon fill="white" stroke="#666666" points="91.38,-19.25 3.38,-19.25 3.38,0 91.38,0 91.38,-19.25"/>
<text xml:space="preserve" text-anchor="middle" x="47.38" y="-5.75" font-family="Helvetica,sans-Serif" font-size="10.00">VirtualBoard.hpp</text>
</a>
</g>
</g>
<!-- Node3&#45;&gt;Node4 -->
<g id="edge3_Node000003_Node000004" class="edge">
<title>Node3&#45;&gt;Node4</title>
<g id="a_edge3_Node000003_Node000004"><a xlink:title=" ">
<path fill="none" stroke="#63b8ff" d="M47.38,-43.63C47.38,-35.34 47.38,-26.17 47.38,-19.61"/>
<polygon fill="#63b8ff" stroke="#63b8ff" points="43.88,-43.57 47.38,-53.57 50.88,-43.57 43.88,-43.57"/>
</a>
</g>
</g>
<!-- Node5&#45;&gt;Node3 -->
<g id="edge5_Node000005_Node000003" class="edge">
<title>Node5&#45;&gt;Node3</title>
<g id="a_edge5_Node000005_Node000003"><a xlink:title=" ">
<path fill="none" stroke="#63b8ff" d="M79.98,-102.04C71.83,-93 62.16,-82.27 55.47,-74.86"/>
<polygon fill="#63b8ff" stroke="#63b8ff" points="77.14,-104.12 86.44,-109.21 82.34,-99.44 77.14,-104.12"/>
</a>
</g>
</g>
<!-- Node7 -->
<g id="Node000007" class="node">
<title>Node7</title>
<g id="a_Node000007"><a xlink:href="../../d5/d46/exo_atlant_protocol_8hpp.html" target="_top" xlink:title=" ">
<polygon fill="white" stroke="#666666" points="293.38,-129.75 181.38,-129.75 181.38,-110.5 293.38,-110.5 293.38,-129.75"/>
<text xml:space="preserve" text-anchor="middle" x="237.38" y="-116.25" font-family="Helvetica,sans-Serif" font-size="10.00">exoAtlantProtocol.hpp</text>
</a>
</g>
</g>
<!-- Node6&#45;&gt;Node7 -->
<g id="edge7_Node000006_Node000007" class="edge">
<title>Node6&#45;&gt;Node7</title>
<g id="a_edge7_Node000006_Node000007"><a xlink:title=" ">
<path fill="none" stroke="#63b8ff" d="M237.38,-154.13C237.38,-145.84 237.38,-136.67 237.38,-130.11"/>
<polygon fill="#63b8ff" stroke="#63b8ff" points="233.88,-154.07 237.38,-164.07 240.88,-154.07 233.88,-154.07"/>
</a>
</g>
</g>
</g>
</svg>
