<?xml version="1.0" encoding="UTF-8" standalone="no"?>
<!DOCTYPE svg PUBLIC "-//W3C//DTD SVG 1.1//EN"
 "http://www.w3.org/Graphics/SVG/1.1/DTD/svg11.dtd">
<!-- Generated by graphviz version 2.43.0 (0)
 -->
<!-- Title: InfoPacketType.hpp Pages: 1 -->
<svg width="842pt" height="137pt"
 viewBox="0.00 0.00 841.50 137.00" xmlns="http://www.w3.org/2000/svg" xmlns:xlink="http://www.w3.org/1999/xlink">
<g id="graph0" class="graph" transform="scale(1 1) rotate(0) translate(4 133)">
<title>InfoPacketType.hpp</title>
<!-- Node1 -->
<g id="Node000001" class="node">
<title>Node1</title>
<g id="a_Node000001"><a xlink:title=" ">
<polygon fill="#999999" stroke="#666666" points="439,-129 329,-129 329,-110 439,-110 439,-129"/>
<text text-anchor="middle" x="384" y="-117" font-family="Helvetica,sans-Serif" font-size="10.00">InfoPacketType.hpp</text>
</a>
</g>
</g>
<!-- Node2 -->
<g id="Node000002" class="node">
<title>Node2</title>
<g id="a_Node000002"><a xlink:href="../../d5/d29/LacteBoardErrors_8hpp.html" target="_top" xlink:title=" ">
<polygon fill="white" stroke="#666666" points="444.5,-74 323.5,-74 323.5,-55 444.5,-55 444.5,-74"/>
<text text-anchor="middle" x="384" y="-62" font-family="Helvetica,sans-Serif" font-size="10.00">LacteBoardErrors.hpp</text>
</a>
</g>
</g>
<!-- Node1&#45;&gt;Node2 -->
<g id="edge1_Node000001_Node000002" class="edge">
<title>Node1&#45;&gt;Node2</title>
<g id="a_edge1_Node000001_Node000002"><a xlink:title=" ">
<path fill="none" stroke="#63b8ff" d="M384,-109.75C384,-102.8 384,-92.85 384,-84.13"/>
<polygon fill="#63b8ff" stroke="#63b8ff" points="387.5,-84.09 384,-74.09 380.5,-84.09 387.5,-84.09"/>
</a>
</g>
</g>
<!-- Node13 -->
<g id="Node000013" class="node">
<title>Node13</title>
<g id="a_Node000013"><a xlink:href="../../db/df5/RfidNumberType_8hpp.html" target="_top" xlink:title=" ">
<polygon fill="white" stroke="#666666" points="304,-74 186,-74 186,-55 304,-55 304,-74"/>
<text text-anchor="middle" x="245" y="-62" font-family="Helvetica,sans-Serif" font-size="10.00">RfidNumberType.hpp</text>
</a>
</g>
</g>
<!-- Node1&#45;&gt;Node13 -->
<g id="edge12_Node000001_Node000013" class="edge">
<title>Node1&#45;&gt;Node13</title>
<g id="a_edge12_Node000001_Node000013"><a xlink:title=" ">
<path fill="none" stroke="#63b8ff" d="M361.67,-109.98C338.8,-101.27 303.04,-87.63 277.14,-77.75"/>
<polygon fill="#63b8ff" stroke="#63b8ff" points="278.33,-74.46 267.74,-74.17 275.84,-81 278.33,-74.46"/>
</a>
</g>
</g>
<!-- Node15 -->
<g id="Node000015" class="node">
<title>Node15</title>
<g id="a_Node000015"><a xlink:title=" ">
<polygon fill="#e0e0e0" stroke="#999999" points="527,-74 463,-74 463,-55 527,-55 527,-74"/>
<text text-anchor="middle" x="495" y="-62" font-family="Helvetica,sans-Serif" font-size="10.00">algorithm</text>
</a>
</g>
</g>
<!-- Node1&#45;&gt;Node15 -->
<g id="edge19_Node000001_Node000015" class="edge">
<title>Node1&#45;&gt;Node15</title>
<g id="a_edge19_Node000001_Node000015"><a xlink:title=" ">
<path fill="none" stroke="#63b8ff" d="M401.83,-109.98C419.61,-101.5 447.15,-88.35 467.68,-78.54"/>
<polygon fill="#63b8ff" stroke="#63b8ff" points="469.33,-81.64 476.84,-74.17 466.31,-75.32 469.33,-81.64"/>
</a>
</g>
</g>
<!-- Node3 -->
<g id="Node000003" class="node">
<title>Node3</title>
<g id="a_Node000003"><a xlink:title=" ">
<polygon fill="#e0e0e0" stroke="#999999" points="202,-19 160,-19 160,0 202,0 202,-19"/>
<text text-anchor="middle" x="181" y="-7" font-family="Helvetica,sans-Serif" font-size="10.00">array</text>
</a>
</g>
</g>
<!-- Node2&#45;&gt;Node3 -->
<g id="edge2_Node000002_Node000003" class="edge">
<title>Node2&#45;&gt;Node3</title>
<g id="a_edge2_Node000002_Node000003"><a xlink:title=" ">
<path fill="none" stroke="#63b8ff" d="M349.8,-54.96C316.9,-46.69 265.52,-33.63 212.25,-19.29"/>
<polygon fill="#63b8ff" stroke="#63b8ff" points="212.85,-15.83 202.29,-16.6 211.03,-22.59 212.85,-15.83"/>
</a>
</g>
</g>
<!-- Node4 -->
<g id="Node000004" class="node">
<title>Node4</title>
<g id="a_Node000004"><a xlink:title=" ">
<polygon fill="#e0e0e0" stroke="#999999" points="270,-19 220,-19 220,0 270,0 270,-19"/>
<text text-anchor="middle" x="245" y="-7" font-family="Helvetica,sans-Serif" font-size="10.00">cstdint</text>
</a>
</g>
</g>
<!-- Node2&#45;&gt;Node4 -->
<g id="edge3_Node000002_Node000004" class="edge">
<title>Node2&#45;&gt;Node4</title>
<g id="a_edge3_Node000002_Node000004"><a xlink:title=" ">
<path fill="none" stroke="#63b8ff" d="M361.67,-54.98C338.8,-46.27 303.04,-32.63 277.14,-22.75"/>
<polygon fill="#63b8ff" stroke="#63b8ff" points="278.33,-19.46 267.74,-19.17 275.84,-26 278.33,-19.46"/>
</a>
</g>
</g>
<!-- Node5 -->
<g id="Node000005" class="node">
<title>Node5</title>
<g id="a_Node000005"><a xlink:title=" ">
<polygon fill="#e0e0e0" stroke="#999999" points="683.5,-19 600.5,-19 600.5,0 683.5,0 683.5,-19"/>
<text text-anchor="middle" x="642" y="-7" font-family="Helvetica,sans-Serif" font-size="10.00">initializer_list</text>
</a>
</g>
</g>
<!-- Node2&#45;&gt;Node5 -->
<g id="edge4_Node000002_Node000005" class="edge">
<title>Node2&#45;&gt;Node5</title>
<g id="a_edge4_Node000002_Node000005"><a xlink:title=" ">
<path fill="none" stroke="#63b8ff" d="M425.45,-54.98C470.27,-45.78 541.77,-31.09 590.25,-21.13"/>
<polygon fill="#63b8ff" stroke="#63b8ff" points="591.13,-24.52 600.22,-19.08 589.72,-17.67 591.13,-24.52"/>
</a>
</g>
</g>
<!-- Node6 -->
<g id="Node000006" class="node">
<title>Node6</title>
<g id="a_Node000006"><a xlink:title=" ">
<polygon fill="#e0e0e0" stroke="#999999" points="758,-19 702,-19 702,0 758,0 758,-19"/>
<text text-anchor="middle" x="730" y="-7" font-family="Helvetica,sans-Serif" font-size="10.00">optional</text>
</a>
</g>
</g>
<!-- Node2&#45;&gt;Node6 -->
<g id="edge5_Node000002_Node000006" class="edge">
<title>Node2&#45;&gt;Node6</title>
<g id="a_edge5_Node000002_Node000006"><a xlink:title=" ">
<path fill="none" stroke="#63b8ff" d="M444.53,-55.39C516.25,-45.68 632.52,-29.6 691.74,-19.07"/>
<polygon fill="#63b8ff" stroke="#63b8ff" points="692.56,-22.48 701.77,-17.24 691.3,-15.59 692.56,-22.48"/>
</a>
</g>
</g>
<!-- Node7 -->
<g id="Node000007" class="node">
<title>Node7</title>
<g id="a_Node000007"><a xlink:title=" ">
<polygon fill="#e0e0e0" stroke="#999999" points="833.5,-19 776.5,-19 776.5,0 833.5,0 833.5,-19"/>
<text text-anchor="middle" x="805" y="-7" font-family="Helvetica,sans-Serif" font-size="10.00">ostream</text>
</a>
</g>
</g>
<!-- Node2&#45;&gt;Node7 -->
<g id="edge6_Node000002_Node000007" class="edge">
<title>Node2&#45;&gt;Node7</title>
<g id="a_edge6_Node000002_Node000007"><a xlink:title=" ">
<path fill="none" stroke="#63b8ff" d="M444.7,-56.11C447.85,-55.73 450.96,-55.36 454,-55 589.8,-38.95 627.19,-42.15 766.24,-18.95"/>
<polygon fill="#63b8ff" stroke="#63b8ff" points="767.15,-22.34 776.43,-17.23 765.99,-15.44 767.15,-22.34"/>
</a>
</g>
</g>
<!-- Node8 -->
<g id="Node000008" class="node">
<title>Node8</title>
<g id="a_Node000008"><a xlink:title=" ">
<polygon fill="#e0e0e0" stroke="#999999" points="344,-19 288,-19 288,0 344,0 344,-19"/>
<text text-anchor="middle" x="316" y="-7" font-family="Helvetica,sans-Serif" font-size="10.00">sstream</text>
</a>
</g>
</g>
<!-- Node2&#45;&gt;Node8 -->
<g id="edge7_Node000002_Node000008" class="edge">
<title>Node2&#45;&gt;Node8</title>
<g id="a_edge7_Node000002_Node000008"><a xlink:title=" ">
<path fill="none" stroke="#63b8ff" d="M373.07,-54.98C362.92,-47.07 347.58,-35.11 335.35,-25.58"/>
<polygon fill="#63b8ff" stroke="#63b8ff" points="337.16,-22.56 327.12,-19.17 332.86,-28.08 337.16,-22.56"/>
</a>
</g>
</g>
<!-- Node9 -->
<g id="Node000009" class="node">
<title>Node9</title>
<g id="a_Node000009"><a xlink:title=" ">
<polygon fill="#e0e0e0" stroke="#999999" points="406,-19 362,-19 362,0 406,0 406,-19"/>
<text text-anchor="middle" x="384" y="-7" font-family="Helvetica,sans-Serif" font-size="10.00">string</text>
</a>
</g>
</g>
<!-- Node2&#45;&gt;Node9 -->
<g id="edge8_Node000002_Node000009" class="edge">
<title>Node2&#45;&gt;Node9</title>
<g id="a_edge8_Node000002_Node000009"><a xlink:title=" ">
<path fill="none" stroke="#63b8ff" d="M384,-54.75C384,-47.8 384,-37.85 384,-29.13"/>
<polygon fill="#63b8ff" stroke="#63b8ff" points="387.5,-29.09 384,-19.09 380.5,-29.09 387.5,-29.09"/>
</a>
</g>
</g>
<!-- Node10 -->
<g id="Node000010" class="node">
<title>Node10</title>
<g id="a_Node000010"><a xlink:title=" ">
<polygon fill="#e0e0e0" stroke="#999999" points="141.5,-19 68.5,-19 68.5,0 141.5,0 141.5,-19"/>
<text text-anchor="middle" x="105" y="-7" font-family="Helvetica,sans-Serif" font-size="10.00">string_view</text>
</a>
</g>
</g>
<!-- Node2&#45;&gt;Node10 -->
<g id="edge9_Node000002_Node000010" class="edge">
<title>Node2&#45;&gt;Node10</title>
<g id="a_edge9_Node000002_Node000010"><a xlink:title=" ">
<path fill="none" stroke="#63b8ff" d="M339.17,-54.98C287.76,-45.22 203.87,-29.28 151.69,-19.37"/>
<polygon fill="#63b8ff" stroke="#63b8ff" points="152.18,-15.9 141.7,-17.47 150.87,-22.78 152.18,-15.9"/>
</a>
</g>
</g>
<!-- Node11 -->
<g id="Node000011" class="node">
<title>Node11</title>
<g id="a_Node000011"><a xlink:title=" ">
<polygon fill="#e0e0e0" stroke="#999999" points="517.5,-19 424.5,-19 424.5,0 517.5,0 517.5,-19"/>
<text text-anchor="middle" x="471" y="-7" font-family="Helvetica,sans-Serif" font-size="10.00">unordered_map</text>
</a>
</g>
</g>
<!-- Node2&#45;&gt;Node11 -->
<g id="edge10_Node000002_Node000011" class="edge">
<title>Node2&#45;&gt;Node11</title>
<g id="a_edge10_Node000002_Node000011"><a xlink:title=" ">
<path fill="none" stroke="#63b8ff" d="M397.98,-54.98C411.47,-46.77 432.13,-34.18 448.04,-24.49"/>
<polygon fill="#63b8ff" stroke="#63b8ff" points="450.05,-27.36 456.77,-19.17 446.41,-21.38 450.05,-27.36"/>
</a>
</g>
</g>
<!-- Node12 -->
<g id="Node000012" class="node">
<title>Node12</title>
<g id="a_Node000012"><a xlink:title=" ">
<polygon fill="#e0e0e0" stroke="#999999" points="582.5,-19 535.5,-19 535.5,0 582.5,0 582.5,-19"/>
<text text-anchor="middle" x="559" y="-7" font-family="Helvetica,sans-Serif" font-size="10.00">vector</text>
</a>
</g>
</g>
<!-- Node2&#45;&gt;Node12 -->
<g id="edge11_Node000002_Node000012" class="edge">
<title>Node2&#45;&gt;Node12</title>
<g id="a_edge11_Node000002_Node000012"><a xlink:title=" ">
<path fill="none" stroke="#63b8ff" d="M412.12,-54.98C443.11,-45.6 492.93,-30.51 525.82,-20.55"/>
<polygon fill="#63b8ff" stroke="#63b8ff" points="526.89,-23.88 535.44,-17.63 524.86,-17.18 526.89,-23.88"/>
</a>
</g>
</g>
<!-- Node13&#45;&gt;Node3 -->
<g id="edge13_Node000013_Node000003" class="edge">
<title>Node13&#45;&gt;Node3</title>
<g id="a_edge13_Node000013_Node000003"><a xlink:title=" ">
<path fill="none" stroke="#63b8ff" d="M234.72,-54.98C225.16,-47.07 210.72,-35.11 199.22,-25.58"/>
<polygon fill="#63b8ff" stroke="#63b8ff" points="201.4,-22.85 191.47,-19.17 196.94,-28.24 201.4,-22.85"/>
</a>
</g>
</g>
<!-- Node13&#45;&gt;Node4 -->
<g id="edge14_Node000013_Node000004" class="edge">
<title>Node13&#45;&gt;Node4</title>
<g id="a_edge14_Node000013_Node000004"><a xlink:title=" ">
<path fill="none" stroke="#63b8ff" d="M245,-54.75C245,-47.8 245,-37.85 245,-29.13"/>
<polygon fill="#63b8ff" stroke="#63b8ff" points="248.5,-29.09 245,-19.09 241.5,-29.09 248.5,-29.09"/>
</a>
</g>
</g>
<!-- Node13&#45;&gt;Node8 -->
<g id="edge16_Node000013_Node000008" class="edge">
<title>Node13&#45;&gt;Node8</title>
<g id="a_edge16_Node000013_Node000008"><a xlink:title=" ">
<path fill="none" stroke="#63b8ff" d="M256.41,-54.98C267.11,-47 283.34,-34.88 296.16,-25.31"/>
<polygon fill="#63b8ff" stroke="#63b8ff" points="298.47,-27.96 304.39,-19.17 294.28,-22.35 298.47,-27.96"/>
</a>
</g>
</g>
<!-- Node13&#45;&gt;Node9 -->
<g id="edge17_Node000013_Node000009" class="edge">
<title>Node13&#45;&gt;Node9</title>
<g id="a_edge17_Node000013_Node000009"><a xlink:title=" ">
<path fill="none" stroke="#63b8ff" d="M267.33,-54.98C290.33,-46.21 326.38,-32.47 352.32,-22.58"/>
<polygon fill="#63b8ff" stroke="#63b8ff" points="353.63,-25.83 361.72,-18.99 351.13,-19.29 353.63,-25.83"/>
</a>
</g>
</g>
<!-- Node13&#45;&gt;Node10 -->
<g id="edge18_Node000013_Node000010" class="edge">
<title>Node13&#45;&gt;Node10</title>
<g id="a_edge18_Node000013_Node000010"><a xlink:title=" ">
<path fill="none" stroke="#63b8ff" d="M222.51,-54.98C199.48,-46.27 163.46,-32.63 137.37,-22.75"/>
<polygon fill="#63b8ff" stroke="#63b8ff" points="138.49,-19.44 127.9,-19.17 136.02,-25.98 138.49,-19.44"/>
</a>
</g>
</g>
<!-- Node14 -->
<g id="Node000014" class="node">
<title>Node14</title>
<g id="a_Node000014"><a xlink:title=" ">
<polygon fill="#e0e0e0" stroke="#999999" points="50,-19 0,-19 0,0 50,0 50,-19"/>
<text text-anchor="middle" x="25" y="-7" font-family="Helvetica,sans-Serif" font-size="10.00">cstring</text>
</a>
</g>
</g>
<!-- Node13&#45;&gt;Node14 -->
<g id="edge15_Node000013_Node000014" class="edge">
<title>Node13&#45;&gt;Node14</title>
<g id="a_edge15_Node000013_Node000014"><a xlink:title=" ">
<path fill="none" stroke="#63b8ff" d="M208.97,-54.99C173.53,-46.6 117.62,-33.3 60.22,-19.28"/>
<polygon fill="#63b8ff" stroke="#63b8ff" points="60.79,-15.82 50.24,-16.84 59.13,-22.62 60.79,-15.82"/>
</a>
</g>
</g>
</g>
</svg>
