<?xml version="1.0" encoding="UTF-8" standalone="no"?>
<!DOCTYPE svg PUBLIC "-//W3C//DTD SVG 1.1//EN"
 "http://www.w3.org/Graphics/SVG/1.1/DTD/svg11.dtd">
<!-- Generated by graphviz version 2.43.0 (0)
 -->
<!-- Title: proto::TxContainer::reset Pages: 1 -->
<svg width="455pt" height="134pt"
 viewBox="0.00 0.00 455.00 134.00" xmlns="http://www.w3.org/2000/svg" xmlns:xlink="http://www.w3.org/1999/xlink">
<g id="graph0" class="graph" transform="scale(1 1) rotate(0) translate(4 130)">
<title>proto::TxContainer::reset</title>
<!-- Node1 -->
<g id="Node000001" class="node">
<title>Node1</title>
<g id="a_Node000001"><a xlink:title="Reset the internal state of the container and its fields.">
<polygon fill="#999999" stroke="#666666" points="447,-54 340,-54 340,-24 447,-24 447,-54"/>
<text text-anchor="start" x="348" y="-42" font-family="Helvetica,sans-Serif" font-size="10.00">proto::TxContainer</text>
<text text-anchor="middle" x="393.5" y="-31" font-family="Helvetica,sans-Serif" font-size="10.00">::reset</text>
</a>
</g>
</g>
<!-- Node2 -->
<g id="Node000002" class="node">
<title>Node2</title>
<g id="a_Node000002"><a xlink:href="../../d4/dd2/classproto_1_1TxContainer.html#a4636ad0f62ff172c7a74231bc9757985" target="_top" xlink:title="Build and send a packet, setting field values from a pack of FieldInfo.">
<polygon fill="white" stroke="#666666" points="304,-78 197,-78 197,-48 304,-48 304,-78"/>
<text text-anchor="start" x="205" y="-66" font-family="Helvetica,sans-Serif" font-size="10.00">proto::TxContainer</text>
<text text-anchor="middle" x="250.5" y="-55" font-family="Helvetica,sans-Serif" font-size="10.00">::send_packet</text>
</a>
</g>
</g>
<!-- Node1&#45;&gt;Node2 -->
<g id="edge1_Node000001_Node000002" class="edge">
<title>Node1&#45;&gt;Node2</title>
<g id="a_edge1_Node000001_Node000002"><a xlink:title=" ">
<path fill="none" stroke="#63b8ff" d="M329.95,-49.65C321.3,-51.12 312.49,-52.62 304.05,-54.06"/>
<polygon fill="#63b8ff" stroke="#63b8ff" points="330.73,-53.07 340,-47.94 329.55,-46.16 330.73,-53.07"/>
</a>
</g>
</g>
<!-- Node6 -->
<g id="Node000006" class="node">
<title>Node6</title>
<g id="a_Node000006"><a xlink:href="../../d4/dd2/classproto_1_1TxContainer.html#ae65bae4fd4431a2c7b96d4ec7723a1cc" target="_top" xlink:title="Binds default matchers to LEN/ALEN/CRC (if those fields exist) and performs an initial Reset().">
<polygon fill="white" stroke="#666666" points="304,-30 197,-30 197,0 304,0 304,-30"/>
<text text-anchor="start" x="205" y="-18" font-family="Helvetica,sans-Serif" font-size="10.00">proto::TxContainer</text>
<text text-anchor="middle" x="250.5" y="-7" font-family="Helvetica,sans-Serif" font-size="10.00">::TxContainer</text>
</a>
</g>
</g>
<!-- Node1&#45;&gt;Node6 -->
<g id="edge5_Node000001_Node000006" class="edge">
<title>Node1&#45;&gt;Node6</title>
<g id="a_edge5_Node000001_Node000006"><a xlink:title=" ">
<path fill="none" stroke="#63b8ff" d="M329.95,-28.35C321.3,-26.88 312.49,-25.38 304.05,-23.94"/>
<polygon fill="#63b8ff" stroke="#63b8ff" points="329.55,-31.84 340,-30.06 330.73,-24.93 329.55,-31.84"/>
</a>
</g>
</g>
<!-- Node3 -->
<g id="Node000003" class="node">
<title>Node3</title>
<g id="a_Node000003"><a xlink:href="../../d6/dc5/classproto_1_1ProtocolEndpoint.html#a5807ea4b27b179c2b19f43643fcc2d59" target="_top" xlink:title=" ">
<polygon fill="white" stroke="#666666" points="146,-126 15,-126 15,-96 146,-96 146,-126"/>
<text text-anchor="start" x="23" y="-114" font-family="Helvetica,sans-Serif" font-size="10.00">proto::ProtocolEndpoint</text>
<text text-anchor="middle" x="80.5" y="-103" font-family="Helvetica,sans-Serif" font-size="10.00">::request</text>
</a>
</g>
</g>
<!-- Node2&#45;&gt;Node3 -->
<g id="edge2_Node000002_Node000003" class="edge">
<title>Node2&#45;&gt;Node3</title>
<g id="a_edge2_Node000002_Node000003"><a xlink:title=" ">
<path fill="none" stroke="#63b8ff" d="M186.75,-80.93C169.39,-85.89 150.73,-91.22 134.01,-96"/>
<polygon fill="#63b8ff" stroke="#63b8ff" points="188.15,-84.17 196.8,-78.06 186.23,-77.44 188.15,-84.17"/>
</a>
</g>
</g>
<!-- Node4 -->
<g id="Node000004" class="node">
<title>Node4</title>
<g id="a_Node000004"><a xlink:href="../../d6/dc5/classproto_1_1ProtocolEndpoint.html#abfed28efa8dd14d2e45f194493e5816f" target="_top" xlink:title=" ">
<polygon fill="white" stroke="#666666" points="146,-78 15,-78 15,-48 146,-48 146,-78"/>
<text text-anchor="start" x="23" y="-66" font-family="Helvetica,sans-Serif" font-size="10.00">proto::ProtocolEndpoint</text>
<text text-anchor="middle" x="80.5" y="-55" font-family="Helvetica,sans-Serif" font-size="10.00">::send</text>
</a>
</g>
</g>
<!-- Node2&#45;&gt;Node4 -->
<g id="edge3_Node000002_Node000004" class="edge">
<title>Node2&#45;&gt;Node4</title>
<g id="a_edge3_Node000002_Node000004"><a xlink:title=" ">
<path fill="none" stroke="#63b8ff" d="M186.42,-63C173.25,-63 159.34,-63 146.12,-63"/>
<polygon fill="#63b8ff" stroke="#63b8ff" points="186.8,-66.5 196.8,-63 186.8,-59.5 186.8,-66.5"/>
</a>
</g>
</g>
<!-- Node5 -->
<g id="Node000005" class="node">
<title>Node5</title>
<g id="a_Node000005"><a xlink:href="../../d3/d19/classproto_1_1ProtocolNoSysEndpoint.html#a0edc938ab2c7d12ca9defdf25ab767b8" target="_top" xlink:title=" ">
<polygon fill="white" stroke="#666666" points="161,-30 0,-30 0,0 161,0 161,-30"/>
<text text-anchor="start" x="8" y="-18" font-family="Helvetica,sans-Serif" font-size="10.00">proto::ProtocolNoSysEndpoint</text>
<text text-anchor="middle" x="80.5" y="-7" font-family="Helvetica,sans-Serif" font-size="10.00">::send</text>
</a>
</g>
</g>
<!-- Node2&#45;&gt;Node5 -->
<g id="edge4_Node000002_Node000005" class="edge">
<title>Node2&#45;&gt;Node5</title>
<g id="a_edge4_Node000002_Node000005"><a xlink:title=" ">
<path fill="none" stroke="#63b8ff" d="M186.75,-45.07C169.39,-40.11 150.73,-34.78 134.01,-30"/>
<polygon fill="#63b8ff" stroke="#63b8ff" points="186.23,-48.56 196.8,-47.94 188.15,-41.83 186.23,-48.56"/>
</a>
</g>
</g>
</g>
</svg>
