<?xml version="1.0" encoding="UTF-8" standalone="no"?>
<!DOCTYPE svg PUBLIC "-//W3C//DTD SVG 1.1//EN"
 "http://www.w3.org/Graphics/SVG/1.1/DTD/svg11.dtd">
<!-- Generated by graphviz version 2.43.0 (0)
 -->
<!-- Title: proto::lacte::McuUid::McuUid Pages: 1 -->
<svg width="412pt" height="88pt"
 viewBox="0.00 0.00 412.00 88.00" xmlns="http://www.w3.org/2000/svg" xmlns:xlink="http://www.w3.org/1999/xlink">

<svg id="main" version="1.1" xmlns="http://www.w3.org/2000/svg" xmlns:xlink="http://www.w3.org/1999/xlink" xml:space="preserve" onload="init(evt)">
<style type="text/css"><![CDATA[
.node, .edge {opacity: 0.7;}
.node.selected, .edge.selected {opacity: 1;}
.edge:hover path { stroke: red; }
.edge:hover polygon { stroke: red; fill: red; }
]]></style>
<script type="application/ecmascript" xlink:href="../../svg.min.js"/>
<svg id="graph" class="graph">
<g id="graph0" class="graph" transform="scale(1 1) rotate(0) translate(4 84)">
<title>proto::lacte::McuUid::McuUid</title>
<!-- Node1 -->
<g id="Node000001" class="node">
<title>Node1</title>
<g id="a_Node000001"><a xlink:title=" ">
<polygon fill="#999999" stroke="#666666" points="115,-63.5 0,-63.5 0,-33.5 115,-33.5 115,-63.5"/>
<text text-anchor="start" x="8" y="-51.5" font-family="Helvetica,sans-Serif" font-size="10.00">proto::lacte::McuUid</text>
<text text-anchor="middle" x="57.5" y="-40.5" font-family="Helvetica,sans-Serif" font-size="10.00">::McuUid</text>
</a>
</g>
</g>
<!-- Node2 -->
<g id="Node000002" class="node">
<title>Node2</title>
<g id="a_Node000002"><a xlink:href="../../d6/d58/classCustomSpan.html#aa94cafb45950ce4dbcf4e57f6c22615a" target="_top" xlink:title=" ">
<polygon fill="white" stroke="#666666" points="257,-80 151,-80 151,-61 257,-61 257,-80"/>
<text text-anchor="middle" x="204" y="-68" font-family="Helvetica,sans-Serif" font-size="10.00">CustomSpan::data</text>
</a>
</g>
</g>
<!-- Node1&#45;&gt;Node2 -->
<g id="edge1_Node000001_Node000002" class="edge">
<title>Node1&#45;&gt;Node2</title>
<g id="a_edge1_Node000001_Node000002"><a xlink:title=" ">
<path fill="none" stroke="#63b8ff" d="M115.2,-57.13C123.51,-58.4 132.12,-59.71 140.55,-60.99"/>
<polygon fill="#63b8ff" stroke="#63b8ff" points="140.29,-64.49 150.71,-62.54 141.35,-57.57 140.29,-64.49"/>
</a>
</g>
</g>
<!-- Node3 -->
<g id="Node000003" class="node">
<title>Node3</title>
<g id="a_Node000003"><a xlink:href="../../d3/d81/namespaceproto_1_1lacte.html#a1ea4387b238442615d817d3f07b5160e" target="_top" xlink:title=" ">
<polygon fill="white" stroke="#666666" points="256.5,-42.5 151.5,-42.5 151.5,-12.5 256.5,-12.5 256.5,-42.5"/>
<text text-anchor="start" x="159.5" y="-30.5" font-family="Helvetica,sans-Serif" font-size="10.00">proto::lacte::parse</text>
<text text-anchor="middle" x="204" y="-19.5" font-family="Helvetica,sans-Serif" font-size="10.00">_hex_bytes_fill</text>
</a>
</g>
</g>
<!-- Node1&#45;&gt;Node3 -->
<g id="edge2_Node000001_Node000003" class="edge">
<title>Node1&#45;&gt;Node3</title>
<g id="a_edge2_Node000001_Node000003"><a xlink:title=" ">
<path fill="none" stroke="#63b8ff" d="M115.2,-40.26C123.72,-39.02 132.55,-37.74 141.17,-36.49"/>
<polygon fill="#63b8ff" stroke="#63b8ff" points="141.78,-39.93 151.18,-35.03 140.78,-33.01 141.78,-39.93"/>
</a>
</g>
</g>
<!-- Node4 -->
<g id="Node000004" class="node">
<title>Node4</title>
<g id="a_Node000004"><a xlink:href="../../d6/d58/classCustomSpan.html#afeef45fadf14f15d82570e9022861177" target="_top" xlink:title=" ">
<polygon fill="white" stroke="#666666" points="404,-56 293,-56 293,-37 404,-37 404,-56"/>
<text text-anchor="middle" x="348.5" y="-44" font-family="Helvetica,sans-Serif" font-size="10.00">CustomSpan::begin</text>
</a>
</g>
</g>
<!-- Node3&#45;&gt;Node4 -->
<g id="edge3_Node000003_Node000004" class="edge">
<title>Node3&#45;&gt;Node4</title>
<g id="a_edge3_Node000003_Node000004"><a xlink:title=" ">
<path fill="none" stroke="#63b8ff" d="M256.85,-34.41C265.2,-35.53 273.94,-36.69 282.55,-37.84"/>
<polygon fill="#63b8ff" stroke="#63b8ff" points="282.19,-41.32 292.57,-39.18 283.12,-34.38 282.19,-41.32"/>
</a>
</g>
</g>
<!-- Node5 -->
<g id="Node000005" class="node">
<title>Node5</title>
<g id="a_Node000005"><a xlink:href="../../d6/d58/classCustomSpan.html#a7612ff42bfc672d97414e1e3ddc391b9" target="_top" xlink:title=" ">
<polygon fill="white" stroke="#666666" points="400.5,-19 296.5,-19 296.5,0 400.5,0 400.5,-19"/>
<text text-anchor="middle" x="348.5" y="-7" font-family="Helvetica,sans-Serif" font-size="10.00">CustomSpan::size</text>
</a>
</g>
</g>
<!-- Node3&#45;&gt;Node5 -->
<g id="edge4_Node000003_Node000005" class="edge">
<title>Node3&#45;&gt;Node5</title>
<g id="a_edge4_Node000003_Node000005"><a xlink:title=" ">
<path fill="none" stroke="#63b8ff" d="M256.85,-20.95C266.42,-19.74 276.49,-18.47 286.3,-17.23"/>
<polygon fill="#63b8ff" stroke="#63b8ff" points="286.92,-20.68 296.4,-15.95 286.05,-13.73 286.92,-20.68"/>
</a>
</g>
</g>
</g>
</svg>
</svg>

<style type='text/css'>
<![CDATA[
[data-mouse-over-selected='false'] { opacity: 0.7; }
[data-mouse-over-selected='true']  { opacity: 1.0; }
]]>
</style>
<script type="application/ecmascript"><![CDATA[
document.addEventListener('DOMContentLoaded', (event) => {
  highlightEdges();
  highlightAdjacentNodes();
});
]]></script>
</svg>
